<svg xmlns="http://www.w3.org/2000/svg" width="32" height="40" fill="none" class="iconPrimary" viewBox="0 0 32 40">
    <path fill="currentColor" d="M16.857 15.304a.336.336 0 0 0 .246.104.363.363 0 0 0 .107-.018.336.336 0 0 0 .157-.103.318.318 0 0 0 .074-.169c.136-1.08.11-1.157.088-1.22a.768.768 0 0 0-.394-.428.81.81 0 0 0-.592-.039.78.78 0 0 0-.451.37.737.737 0 0 0-.055.571c.02.063.047.14.82.932Zm-.35-1.303a.295.295 0 0 1 .18-.15.32.32 0 0 1 .226.014c.072.032.128.09.157.16 0 .071-.015.304-.068.754-.32-.33-.477-.509-.518-.568a.286.286 0 0 1 .023-.21ZM7.644 13.83a.274.274 0 0 0 .085.01c.113 0 .38-.031 1.169-.175a.346.346 0 0 0 .168-.083.32.32 0 0 0-.015-.492c-.868-.694-.95-.714-1.015-.73a.809.809 0 0 0-.582.092.762.762 0 0 0-.351.46.738.738 0 0 0 .078.565.782.782 0 0 0 .463.353Zm-.1-.813a.299.299 0 0 1 .11-.162.316.316 0 0 1 .247-.056c.064.036.257.176.62.461-.46.08-.7.112-.774.115a.306.306 0 0 1-.175-.14.29.29 0 0 1-.029-.218ZM7.5 19.108c.125 0 .25-.03.36-.086.061-.03.137-.066.819-.934a.323.323 0 0 0-.101-.482.35.35 0 0 0-.184-.045c-1.125.046-1.2.083-1.26.113a.77.77 0 0 0-.352.361.737.737 0 0 0-.047.494c.042.166.14.312.278.417.139.105.31.162.486.162Zm-.297-.85a.301.301 0 0 1 .136-.166c.072-.014.312-.035.78-.057a8.048 8.048 0 0 1-.496.586.319.319 0 0 1-.331-.05.289.289 0 0 1-.089-.313ZM24.471 19.558a.772.772 0 0 0 .29.3.809.809 0 0 0 .77.023c.06-.03.137-.066.818-.933a.324.324 0 0 0 .03-.35.335.335 0 0 0-.13-.133.35.35 0 0 0-.184-.044c-1.125.044-1.2.082-1.26.113a.768.768 0 0 0-.386.446.738.738 0 0 0 .052.578Zm.539-.606c.072-.014.312-.035.78-.058a8.222 8.222 0 0 1-.496.586.318.318 0 0 1-.223.004.306.306 0 0 1-.168-.142.29.29 0 0 1-.024-.215.3.3 0 0 1 .131-.174v-.001ZM12.901 16.56a.32.32 0 0 0-.063.346c.431 1.006.494 1.061.546 1.105a.796.796 0 0 0 .528.198h.039a.803.803 0 0 0 .428-.148.763.763 0 0 0 .272-.353.736.736 0 0 0-.207-.817c-.05-.044-.113-.099-1.188-.421a.347.347 0 0 0-.355.09Zm1.231.682a.289.289 0 0 1 .066.317.3.3 0 0 1-.106.133.315.315 0 0 1-.373-.01 7.919 7.919 0 0 1-.324-.689c.445.138.671.218.737.25ZM12.49 12.766h.003a.345.345 0 0 0 .181-.05.328.328 0 0 0 .125-.138c.489-.98.49-1.062.49-1.127a.747.747 0 0 0-.225-.54.8.8 0 0 0-.553-.228h-.007a.8.8 0 0 0-.553.22.748.748 0 0 0-.233.532c0 .066 0 .147.466 1.137a.329.329 0 0 0 .123.14.343.343 0 0 0 .182.054Zm.014-1.62c.078.001.154.03.21.083.057.053.09.125.095.2a8.213 8.213 0 0 1-.316.693 7.839 7.839 0 0 1-.3-.698.295.295 0 0 1 .099-.198.315.315 0 0 1 .212-.08ZM23.808 14.934h.003a.345.345 0 0 0 .181-.05.33.33 0 0 0 .125-.135c.489-.98.49-1.063.49-1.128a.748.748 0 0 0-.224-.54.8.8 0 0 0-.553-.227h-.009a.8.8 0 0 0-.552.22.749.749 0 0 0-.233.531c0 .066 0 .148.466 1.138.027.057.07.105.124.14a.344.344 0 0 0 .182.052Zm.017-1.62c.078.002.154.031.21.084.057.053.091.124.095.2a8.19 8.19 0 0 1-.316.693 7.697 7.697 0 0 1-.3-.699.296.296 0 0 1 .099-.198.316.316 0 0 1 .212-.08ZM19.965 17.982a.349.349 0 0 0 .363-.018c.92-.629.961-.7.995-.757a.738.738 0 0 0 .074-.577.765.765 0 0 0-.37-.459.802.802 0 0 0-1.071.286c-.034.057-.075.128-.162 1.213a.316.316 0 0 0 .038.18c.03.056.076.101.133.131Zm.416-1.313a.318.318 0 0 1 .41-.094.301.301 0 0 1 .141.17.29.29 0 0 1-.016.218c-.053.05-.242.194-.623.458.04-.453.07-.684.088-.753v.002ZM17.778 10.95c.05.043.114.097 1.195.402a.352.352 0 0 0 .35-.098.324.324 0 0 0 .059-.348c-.448-.998-.512-1.054-.563-1.096a.803.803 0 0 0-1.109.066.756.756 0 0 0-.196.55.74.74 0 0 0 .264.524Zm.288-.767a.317.317 0 0 1 .421-.038c.04.06.146.269.336.684a9.437 9.437 0 0 1-.743-.237.295.295 0 0 1-.014-.41Z"/>
    <path fill="currentColor" d="M28.82 29.93h-.487c.509-.512.954-1.137.954-2.142 0-.19-.015-.378-.047-.564 1.106-.117 1.76-1.215 1.76-2.28 0-1.197-.805-2.033-1.957-2.033h-.42v-1.204a2.537 2.537 0 0 0 1.018-.694c.235-.266.407-.579.505-.916.097-.337.117-.69.06-1.036-.714-4.234-3.47-7.958-7.384-10l.437-1.162 4.46 1.614a.245.245 0 0 0 .26-.058.224.224 0 0 0 .041-.254l-.69-1.445 1.482-.659a.236.236 0 0 0 .103-.089.224.224 0 0 0-.01-.256.238.238 0 0 0-.111-.08l-4.702-1.658a.247.247 0 0 0-.258.062.226.226 0 0 0-.048.078l-.893 2.372-.498 1.322a14.804 14.804 0 0 0-6.491-1.446c-2.251.015-4.467.54-6.47 1.534a14.275 14.275 0 0 0-5.062 4.185A13.673 13.673 0 0 0 1.8 19.062a2.33 2.33 0 0 0 .06 1.035c.097.337.269.65.503.916.272.31.62.549 1.012.696v1.202h-.186c-.911 0-1.55.284-1.9.846C1 24.223 1 24.765 1 25.088c0 1.19.65 1.956 1.765 2.116a3.4 3.4 0 0 0-.051.584 3.094 3.094 0 0 0 .843 2.143h-.376a1.602 1.602 0 0 0-1.108.447c-.294.285-.459.67-.46 1.073v.49c.002.81.335 1.588.929 2.162A3.225 3.225 0 0 0 4.779 35h22.45c.839 0 1.643-.324 2.236-.897a3.012 3.012 0 0 0 .928-2.163v-.49c0-.402-.166-.789-.46-1.074a1.602 1.602 0 0 0-1.112-.445ZM24.154 5.528l3.934 1.384-1.173.527a.238.238 0 0 0-.124.13.226.226 0 0 0 .007.177l.545 1.144-3.917-1.423.728-1.939Zm5.693 19.418c0 .7-.413 1.17-.798 1.17-.069 0-.137-.004-.205-.014a3.566 3.566 0 0 0-1.805-1.548.594.594 0 0 0-.217-.04c-1.303 0-1.803.508-2.204.917-.377.383-.675.685-1.84.685-1.014 0-1.69-.25-2.33-.555l1.5-1.53h7.1c.695 0 .799.573.799.915Zm-12.573-.264-.664-.65h3.74l-1.268 1.293-.005.004-.558.572-1.245-1.219ZM4.535 21.873H27.47v1.038H4.535v-1.038Zm-1.286-1.585a1.251 1.251 0 0 1-.304-1.046 12.575 12.575 0 0 1 2.384-5.486 13.131 13.131 0 0 1 4.692-3.85 13.607 13.607 0 0 1 5.987-1.383c2.08 0 4.13.475 5.986 1.384l-.97 2.577a.224.224 0 0 0 .063.248.24.24 0 0 0 .161.06.244.244 0 0 0 .137-.04.231.231 0 0 0 .087-.11l.947-2.517a13.153 13.153 0 0 1 4.395 3.825 12.624 12.624 0 0 1 2.245 5.289 1.25 1.25 0 0 1-.3 1.049c-.13.147-.29.265-.471.346-.181.08-.378.122-.578.122H4.294c-.199 0-.395-.042-.576-.123-.18-.08-.34-.198-.469-.345Zm-1.09 4.804c0-.614 0-1.058 1.03-1.058H14.98l.663.65c-.629.172-1.09.447-1.513.702-.654.396-1.218.733-2.395.733-1.227 0-1.714-.373-2.229-.767-.502-.385-1.071-.82-2.16-.82-1.212 0-2.044.542-2.713.978-.432.282-.806.527-1.201.593a1.26 1.26 0 0 1-.21.018c-.747-.006-1.064-.313-1.064-1.032v.003Zm1.713 2.702c0-.226.033-.45.1-.667.487-.149.905-.42 1.311-.686.62-.404 1.207-.786 2.066-.786.681 0 1 .242 1.44.578.586.449 1.317 1.008 2.948 1.008 1.507 0 2.304-.479 3.006-.901.554-.333 1.04-.623 1.887-.687l1.481 1.45a.576.576 0 0 0 .41.167h.005a.595.595 0 0 0 .415-.176l.67-.684c.797.401 1.715.829 3.16.829 1.665 0 2.229-.574 2.682-1.034.32-.325.537-.545 1.25-.567.533.237.96.65 1.204 1.166.148.31.224.647.223.988 0 .631-.263 1.01-.717 1.45-.227.22-.498.395-.795.515-.298.119-.617.18-.939.179H6.321c-1.419-.005-2.449-.907-2.449-2.148v.006Zm25.363 4.151a1.91 1.91 0 0 1-.588 1.37 2.044 2.044 0 0 1-1.418.57H4.777a2.044 2.044 0 0 1-1.419-.572 1.91 1.91 0 0 1-.586-1.373v-.49c0-.104.043-.206.12-.28a.42.42 0 0 1 .29-.12H28.82c.11 0 .215.043.292.118a.393.393 0 0 1 .122.283v.494Z"/>
    <path fill="currentColor" d="M6.107 14.62a.24.24 0 0 0-.173-.061.245.245 0 0 0-.168.076c-.73.777-1.764 3.054-2.045 4.516a.224.224 0 0 0 .038.173.24.24 0 0 0 .197.1c.056 0 .11-.02.153-.054a.228.228 0 0 0 .08-.136c.26-1.345 1.27-3.592 1.933-4.293a.226.226 0 0 0-.015-.32ZM10.732 32.972H4.853c-.637 0-1.099-.52-1.099-.872a.227.227 0 0 0-.07-.163.243.243 0 0 0-.337 0 .227.227 0 0 0-.07.163c0 .616.689 1.333 1.576 1.333h5.879a.243.243 0 0 0 .168-.068.227.227 0 0 0 0-.326.243.243 0 0 0-.168-.067Z"/>
</svg>
