<svg xmlns="http://www.w3.org/2000/svg" width="32" height="40" fill="none" class="iconPrimary" viewBox="0 0 32 40">
    <path fill="currentColor" d="M31.702 22.266c-.472-3.432-1.474-6.168-2.978-8.13-1.325-1.726-3.018-2.872-5.172-3.503a3.149 3.149 0 0 0-.342-.387c-.556-.525-1.199-.631-1.826-.734-.428-.071-.834-.138-1.194-.334-.32-.174-.649-.507-.996-.858-.514-.521-1.098-1.112-1.78-1.277-.602-.144-1.199.1-1.775.337-.44.186-.858.353-1.263.353-.335 0-.696-.133-1.082-.274-.596-.219-1.21-.445-1.837-.205-.626.24-1.109.88-1.58 1.501-.307.404-.595.784-.894 1.011-.309.235-.685.351-1.083.476h-.01c-.575.178-1.176.362-1.679.937-.516.588-.842 1.48-1.129 2.265l-.004.012c-.203.559-.395 1.08-.628 1.453-.264.418-.614.739-.985 1.08-.499.458-1.014.93-1.359 1.693-.42.93-.544 2.022-.653 2.993-.064.566-.124 1.1-.233 1.504a16.8 16.8 0 0 1-.53 1.553l-.007.02c-.367.96-.741 1.95-.675 2.982.132 2.029 1.194 2.815 2.17 3.105.18.646.474 1.194.844 1.577.37.384.801.586 1.24.584h25.183c.03 0 .062 0 .093-.005h.033c1.235-.087 2.124-1.502 2.38-3.791.185-1.647-.215-5.689-.25-5.938ZM.979 26.568c-.032-.496.256-1.255.537-1.997l.006-.014c.222-.56.42-1.143.593-1.747.154-.573.23-1.223.3-1.856.095-.838.192-1.705.48-2.34.22-.488.624-.859 1.051-1.252.41-.372.832-.763 1.186-1.323.325-.513.56-1.155.787-1.777l.005-.01c.248-.682.505-1.386.85-1.778.33-.378.8-.523 1.299-.676h.01c.44-.137.894-.28 1.315-.598.407-.31.757-.77 1.095-1.219.403-.528.782-1.023 1.188-1.185.406-.162.883.021 1.396.21.418.153.85.312 1.294.312.528 0 1.025-.205 1.505-.402.505-.207.98-.403 1.389-.305.48.115.95.592 1.404 1.051.38.386.774.785 1.205 1.018.46.252.942.331 1.406.408h.006c.541.093 1.052.174 1.425.525.103.1.2.216.288.348.143.214.274.448.391.7.124.259.242.534.357.805l.006.012c.247.58.503 1.182.83 1.675.338.51.733.891 1.115 1.26.482.466.938.907 1.195 1.523.257.617.337 1.454.424 2.343.07.72.143 1.464.316 2.167.172.704.432 1.313.686 1.911.317.745.616 1.451.7 2.198l.012.13c.033.44-.005.922-.07 1.43a23.274 23.274 0 0 1-.08.57l-.022.157-.009.054a3.412 3.412 0 0 0-.02.168l-.002.034a2.947 2.947 0 0 0-.01.158V29.45c0 .052.003.103.005.153v.034l.012.148v.016l.015.135.004.027.02.139c0 .01.002.018.004.028l.021.132a1.285 1.285 0 0 1-.11-.074l-.032-.024a1.163 1.163 0 0 1-.08-.065l-.031-.028a2.036 2.036 0 0 1-.099-.098h-.003a1.8 1.8 0 0 1-.096-.115l-.027-.036a3.165 3.165 0 0 1-.067-.093c-.009-.013-.018-.025-.026-.04a2.523 2.523 0 0 1-.158-.287l-.021-.045a3.279 3.279 0 0 1-.052-.12l-.019-.048a3.35 3.35 0 0 1-.108-.348l-.014-.054a4.044 4.044 0 0 1-.03-.138l-.012-.056a3.86 3.86 0 0 1-.062-.546c0-.023 0-.046-.005-.068-.42-4.389-1.685-8.452-3.615-11.615-1.93-3.163-4.426-5.265-7.137-6.01a8.37 8.37 0 0 0-2.184-.293c-3.094 0-6.087 1.769-8.45 4.992-2.363 3.223-3.944 7.693-4.462 12.619a5.044 5.044 0 0 0-.019.227c0 .025 0 .049-.004.073 0 .051-.005.102-.007.154v.023c-.446-.21-.926-.64-.99-1.58Zm3.284 3.85a.923.923 0 0 1-.555-.199 1.638 1.638 0 0 1-.45-.557 2.755 2.755 0 0 1-.265-.811c-.05-.299-.06-.611-.028-.916.327-3.102 1.113-6.03 2.29-8.539 1.177-2.507 2.71-4.52 4.472-5.867 1.76-1.347 3.696-1.989 5.643-1.871 1.947.117 3.848.99 5.542 2.547.204.186.405.384.602.594.729.77 1.405 1.665 2.016 2.668 1.789 2.91 2.96 6.662 3.347 10.715a6.727 6.727 0 0 0 .081.755l.011.061c.01.052.019.103.03.153l.012.06a4.888 4.888 0 0 0 .1.393l.017.056.044.14.019.054a5.529 5.529 0 0 0 .138.356l.023.05c.018.042.038.084.057.125l.015.03-23.161.003Zm26.725-2.497c-.087.77-.335 1.992-1.053 2.376 0-.01-.004-.02-.005-.03l-.036-.193a4.473 4.473 0 0 1-.092-.642.984.984 0 0 1 .008-.17l.053-.365c.116-.794.21-1.609.144-2.434a7.025 7.025 0 0 0-.3-1.505 15.675 15.675 0 0 0-.576-1.495c-.115-.274-.23-.542-.331-.806a6.81 6.81 0 0 1-.253-.791c-.132-.54-.193-1.169-.258-1.832-.1-1.024-.204-2.077-.58-2.978-.376-.9-.95-1.462-1.505-1.996-.353-.343-.686-.666-.948-1.061a2.81 2.81 0 0 1-.091-.145l-.03-.05c-.019-.036-.039-.07-.057-.106l-.034-.066c-.018-.033-.035-.065-.052-.1l-.037-.074-.048-.1-.038-.08-.046-.1-.039-.087-.045-.102-.038-.088-.044-.113a3.42 3.42 0 0 1-.04-.094l-.033-.077a8.688 8.688 0 0 1 3.527 2.749c1.346 1.755 2.208 4.123 2.636 7.24.05.402.382 4.056.24 5.315Z"/>
    <path fill="currentColor" d="M7.554 22.376a.427.427 0 0 0-.068.223.467.467 0 0 0 .05.236c.07.132.114.298.122.473.008.175-.02.35-.079.497a.64.64 0 0 1-.247.32.323.323 0 0 1-.317.015.588.588 0 0 1-.26-.296 1.175 1.175 0 0 1-.096-.488c.001-.175.038-.345.105-.484a.566.566 0 0 1 .263-.284.182.182 0 0 0 .073-.055.32.32 0 0 0 .054-.096.52.52 0 0 0-.015-.368.27.27 0 0 0-.061-.083.154.154 0 0 0-.077-.039.13.13 0 0 0-.08.013c-.19.083-.357.264-.477.515-.12.25-.187.558-.19.875-.002.317.06.627.175.883.117.256.281.444.47.535.187.091.389.081.573-.028.184-.11.342-.314.448-.58.106-.268.155-.583.14-.9a2.008 2.008 0 0 0-.221-.855.252.252 0 0 0-.063-.077.132.132 0 0 0-.154-.016.209.209 0 0 0-.068.064ZM17.31 26.19c-.27-.124-.56-.073-.806.143-.247.217-.431.58-.514 1.013-.083.433-.057.901.071 1.304s.349.71.615.853c.019.009.038.014.058.015.048 0 .094-.029.13-.08a.41.41 0 0 0 .068-.199.496.496 0 0 0-.03-.222.248.248 0 0 0-.11-.137.764.764 0 0 1-.324-.351 1.504 1.504 0 0 1-.147-.583 1.664 1.664 0 0 1 .078-.616.99.99 0 0 1 .277-.442c.117-.1.25-.142.382-.12a.58.58 0 0 1 .359.244c.102.137.177.32.215.525.037.205.037.424-.003.629-.03.157-.081.302-.151.421a.393.393 0 0 0-.042.108.51.51 0 0 0-.013.125.436.436 0 0 0 .064.228c.039.059.09.09.144.088.053-.002.104-.04.14-.102.125-.215.214-.477.259-.762a2.775 2.775 0 0 0-.003-.869 2.185 2.185 0 0 0-.263-.757 1.155 1.155 0 0 0-.458-.457h.004ZM21.456 19.964a1.325 1.325 0 0 0-.415-.509.72.72 0 0 0-.515-.133.851.851 0 0 0-.493.275c-.148.156-.27.368-.355.618-.084.25-.13.529-.132.814-.002.285.04.566.12.82.082.252.2.469.346.63a.876.876 0 0 0 .489.293c.04.007.08.01.12.01.243 0 .48-.134.67-.38a.478.478 0 0 0 .031-.458c-.034-.068-.083-.111-.136-.12-.053-.01-.106.015-.148.069-.114.146-.253.229-.399.235-.145.007-.287-.063-.406-.198a1.198 1.198 0 0 1-.25-.554 1.718 1.718 0 0 1 .006-.685 1.16 1.16 0 0 1 .26-.541c.121-.13.265-.193.41-.18.145.014.283.103.394.255.11.151.188.357.22.586a.45.45 0 0 0 .031.118.295.295 0 0 0 .057.089c.023.023.048.04.074.047a.127.127 0 0 0 .08-.003.179.179 0 0 0 .072-.052.311.311 0 0 0 .054-.094.523.523 0 0 0 .025-.248 2.285 2.285 0 0 0-.21-.704ZM13.037 19.175a.981.981 0 0 0-.546.185 1.64 1.64 0 0 0-.458.511.373.373 0 0 0-.047.107.499.499 0 0 0 .044.363c.02.03.042.055.068.07a.135.135 0 0 0 .08.023.143.143 0 0 0 .078-.03.245.245 0 0 0 .065-.078c.155-.257.358-.426.578-.48.22-.055.444.007.64.177.196.17.353.439.446.765.093.326.118.692.07 1.044a2.025 2.025 0 0 1-.332.902c-.169.234-.38.374-.602.397-.222.023-.442-.07-.628-.267-.186-.198-.328-.487-.403-.825a.318.318 0 0 0-.104-.185.133.133 0 0 0-.154-.012.28.28 0 0 0-.114.167.514.514 0 0 0-.008.25c.1.447.282.834.523 1.107.24.274.527.42.822.421h.018c.379-.008.74-.258 1.004-.696.264-.438.41-1.027.405-1.639-.004-.611-.16-1.195-.43-1.622-.272-.426-.637-.662-1.015-.654v-.001ZM12.996 16.77c.023.02.049.033.075.037.026.004.053 0 .078-.012a.196.196 0 0 0 .07-.06.337.337 0 0 0 .05-.098c.08-.242.215-.422.377-.501.162-.08.337-.052.486.076.048.041.103.05.154.024.051-.025.094-.082.12-.158a.509.509 0 0 0 .014-.248.336.336 0 0 0-.098-.193.787.787 0 0 0-.389-.19.67.67 0 0 0-.405.065c-.13.064-.252.17-.358.31-.106.14-.193.313-.258.508a.482.482 0 0 0-.014.248c.007.04.02.079.037.112.017.033.037.06.06.08ZM9.271 17.37a1.345 1.345 0 0 0-.524-.397.933.933 0 0 0-.578-.041.16.16 0 0 0-.075.042.28.28 0 0 0-.06.085.522.522 0 0 0-.01.364.318.318 0 0 0 .054.095.181.181 0 0 0 .072.053c.026.01.053.012.08.005.283-.07.571.045.802.32.23.274.384.685.427 1.142a.41.41 0 0 0 .068.2c.037.051.083.08.132.08h.03a.162.162 0 0 0 .074-.044.284.284 0 0 0 .059-.086.522.522 0 0 0 .037-.243 3.425 3.425 0 0 0-.196-.882c-.101-.27-.234-.506-.392-.692ZM22.867 25.847a.173.173 0 0 0-.072.05.303.303 0 0 0-.055.09.523.523 0 0 0-.028.245c.017.133.018.27.003.403s-.047.26-.093.374a.969.969 0 0 1-.174.288.555.555 0 0 1-.229.158.173.173 0 0 0-.073.05.307.307 0 0 0-.056.09.525.525 0 0 0 .002.364.297.297 0 0 0 .057.089c.023.023.048.039.074.047a.127.127 0 0 0 .079-.003.902.902 0 0 0 .375-.257c.113-.125.21-.284.284-.47.075-.185.127-.392.152-.61.025-.217.024-.44-.005-.657a.446.446 0 0 0-.03-.118.297.297 0 0 0-.058-.089.168.168 0 0 0-.073-.047.127.127 0 0 0-.08.003ZM16.994 21.18a.524.524 0 0 0 .382-.188c.113-.121.202-.295.254-.498.052-.202.066-.425.04-.64a1.421 1.421 0 0 0-.189-.57.676.676 0 0 0-.352-.303.45.45 0 0 0-.397.063.895.895 0 0 0-.308.408 1.632 1.632 0 0 0-.116.617c0 .294.072.576.2.784.13.208.304.326.486.326Zm0-1.569c.056 0 .111.027.158.077s.084.122.105.206a.724.724 0 0 1 .016.265.587.587 0 0 1-.077.235.28.28 0 0 1-.146.126.186.186 0 0 1-.164-.026.37.37 0 0 1-.127-.17.675.675 0 0 1-.048-.255c0-.121.03-.238.083-.323.053-.086.125-.134.2-.135ZM10.82 25.922a.524.524 0 0 0-.383.186 1.155 1.155 0 0 0-.253.498 1.753 1.753 0 0 0-.04.642c.027.215.092.413.189.568a.676.676 0 0 0 .352.304.45.45 0 0 0 .397-.063.895.895 0 0 0 .308-.41c.076-.182.116-.397.116-.616a1.52 1.52 0 0 0-.202-.784c-.128-.208-.303-.325-.485-.325Zm0 1.567a.216.216 0 0 1-.159-.077.477.477 0 0 1-.105-.205.724.724 0 0 1-.016-.265c.01-.09.038-.171.078-.235a.279.279 0 0 1 .145-.126.186.186 0 0 1 .164.026.37.37 0 0 1 .128.169.674.674 0 0 1 .048.255c0 .121-.03.238-.083.324-.053.086-.126.134-.2.134Z"/>
</svg>
