<svg width="32" class="iconPrimary" height="40" viewBox="0 0 32 40" fill="none" xmlns="http://www.w3.org/2000/svg">
<path d="M31.7016 22.2658C31.2298 18.8335 30.228 16.098 28.7238 14.1367C27.3987 12.4098 25.7056 11.2635 23.5521 10.6327C23.4444 10.4895 23.33 10.3601 23.2099 10.2456C22.654 9.72086 22.0111 9.61479 21.3843 9.51152C20.9557 9.4408 20.5501 9.37381 20.19 9.17842C19.8691 9.00443 19.5413 8.67134 19.1939 8.31964C18.6795 7.7986 18.0959 7.20777 17.4132 7.04309C16.8118 6.89887 16.2155 7.14357 15.6394 7.3799C15.1981 7.56599 14.781 7.73347 14.376 7.73347C14.0407 7.73347 13.6801 7.60041 13.2941 7.45899C12.6984 7.24034 12.0843 7.01424 11.4575 7.2543C10.8307 7.49435 10.3485 8.13448 9.87612 8.75508C9.57021 9.15888 9.28159 9.53943 8.98317 9.76645C8.67438 10.0009 8.29818 10.1172 7.9001 10.2419H7.89088C7.31478 10.4196 6.71449 10.6038 6.21098 11.1788C5.69537 11.7669 5.3693 12.6582 5.0824 13.4444L5.07837 13.4556C4.87501 14.0148 4.68259 14.5368 4.44985 14.9089C4.18599 15.3267 3.83572 15.6477 3.46472 15.9892C2.96639 16.4469 2.45078 16.9196 2.10628 17.6816C1.6863 18.612 1.56244 19.7044 1.45298 20.6748C1.38903 21.2405 1.32854 21.7746 1.21966 22.1793C1.06524 22.7156 0.888546 23.2344 0.6908 23.7322L0.683311 23.7517C0.316336 24.7119 -0.0581281 25.7019 0.00754714 26.7337C0.14005 28.763 1.2018 29.5492 2.17714 29.8386C2.35886 30.4851 2.65236 31.033 3.02234 31.4164C3.39232 31.7999 3.82301 32.0025 4.26261 32H29.4445C29.4756 32 29.5067 32 29.5378 31.9953H29.5712C30.8064 31.9079 31.6953 30.4927 31.9517 28.2038C32.136 26.557 31.7362 22.5152 31.7016 22.2658ZM0.97885 26.5681C0.946588 26.0722 1.23464 25.313 1.51635 24.5714L1.52153 24.5575C1.74402 23.9978 1.94228 23.414 2.11492 22.8101C2.26931 22.237 2.34536 21.5875 2.41506 20.9539C2.50954 20.1165 2.6069 19.2494 2.89438 18.6148C3.11502 18.1264 3.51887 17.7551 3.94633 17.3625C4.35537 16.9903 4.77822 16.5986 5.13195 16.0394C5.45744 15.5258 5.69249 14.8838 5.91947 14.2623L5.92351 14.2511C6.17238 13.57 6.42932 12.8657 6.77383 12.474C7.10451 12.0962 7.5746 11.9511 8.07293 11.7976H8.08272C8.52229 11.6608 8.97741 11.5184 9.39796 11.2002C9.80526 10.8904 10.155 10.4298 10.4925 9.98138C10.8958 9.4529 11.2749 8.95791 11.681 8.79602C12.0872 8.63412 12.5636 8.81742 13.0769 9.00629C13.4946 9.15888 13.9267 9.31799 14.3714 9.31799C14.8991 9.31799 15.3957 9.11329 15.8762 8.91604C16.3809 8.70856 16.8556 8.51317 17.2646 8.61086C17.7445 8.72623 18.2146 9.20261 18.6685 9.66224C19.0493 10.0484 19.4428 10.4466 19.8737 10.6801C20.3346 10.9323 20.8162 11.0114 21.28 11.0877H21.2858C21.8273 11.1807 22.3383 11.2617 22.711 11.6134C22.8143 11.7128 22.9109 11.8294 22.9991 11.9613C23.1422 12.1751 23.2731 12.4093 23.3902 12.661C23.5141 12.9197 23.6316 13.1951 23.7474 13.4658L23.7526 13.4779C24.0003 14.0585 24.2561 14.6596 24.5833 15.1527C24.9209 15.6626 25.3156 16.0441 25.6981 16.4134C26.1803 16.8786 26.636 17.3197 26.8929 17.9365C27.1499 18.5534 27.2305 19.3899 27.3175 20.2794C27.3878 20.9986 27.4604 21.7429 27.6326 22.4463C27.8049 23.1497 28.0653 23.7592 28.3193 24.3574C28.6362 25.1018 28.9352 25.808 29.0182 26.5551C29.0233 26.5979 29.0274 26.6416 29.0308 26.6854C29.0637 27.1255 29.0256 27.6065 28.9611 28.1145C28.9473 28.2215 28.9329 28.3294 28.9173 28.4383C28.9058 28.5202 28.8937 28.603 28.8816 28.6858C28.8741 28.7379 28.8661 28.79 28.8586 28.8421C28.8557 28.8598 28.8534 28.8784 28.8505 28.8961C28.8424 28.9528 28.8361 29.0077 28.8309 29.0635L28.8275 29.098C28.8229 29.151 28.8194 29.204 28.8177 29.2561C28.8177 29.2654 28.8177 29.2757 28.8177 29.285C28.8177 29.3334 28.8177 29.3818 28.8177 29.4301V29.4506C28.8177 29.5018 28.8206 29.5529 28.8234 29.6032V29.6367C28.8269 29.686 28.8303 29.7353 28.835 29.7846V29.8014C28.8396 29.847 28.8447 29.8944 28.8505 29.9363L28.854 29.9633C28.8597 30.0098 28.8666 30.0563 28.8736 30.1019C28.8736 30.1112 28.8764 30.1205 28.8776 30.1298C28.8845 30.1745 28.892 30.2229 28.8995 30.2619C28.862 30.2396 28.8252 30.2154 28.7889 30.1884L28.7566 30.1642C28.7295 30.1438 28.7036 30.1224 28.6777 30.0991L28.646 30.0712C28.6126 30.0396 28.5792 30.007 28.5475 29.9726H28.544C28.5106 29.9363 28.4789 29.8981 28.4478 29.8581L28.4207 29.8218C28.3977 29.7911 28.3752 29.7595 28.3539 29.7288C28.3453 29.7158 28.3361 29.7037 28.328 29.6897C28.2998 29.646 28.2704 29.5967 28.2456 29.5529C28.2191 29.5046 28.1938 29.4543 28.1696 29.4022C28.1621 29.3873 28.1557 29.3724 28.1488 29.3566C28.131 29.3176 28.1143 29.2785 28.0975 29.2375L28.0785 29.1891C28.0578 29.1343 28.0376 29.0775 28.0209 29.0198C28.0025 28.9621 27.9858 28.9016 27.9702 28.8412C27.965 28.8235 27.961 28.8058 27.9564 28.7872C27.9455 28.7416 27.9351 28.6942 27.9259 28.6486L27.9143 28.5927C27.9028 28.5285 27.8919 28.4643 27.8827 28.3983C27.8672 28.2824 27.857 28.1649 27.8521 28.0466C27.8521 28.0243 27.8521 28.001 27.8475 27.9787C27.4267 23.5905 26.1619 19.5274 24.2323 16.3644C22.3026 13.2014 19.8057 11.0989 17.0952 10.3545C16.3733 10.1596 15.6426 10.0616 14.9106 10.0614C11.8174 10.0614 8.82405 11.8297 6.4608 15.053C4.09756 18.2762 2.51699 22.7464 1.99912 27.6716C1.99106 27.747 1.98472 27.8233 1.98011 27.8986C1.98011 27.9238 1.98011 27.948 1.97608 27.9721C1.97608 28.0233 1.97089 28.0745 1.96916 28.1257C1.96916 28.1331 1.96916 28.1406 1.96916 28.1489C1.52326 27.9396 1.0428 27.5097 0.97885 26.5681ZM4.26261 30.4182C4.07112 30.4177 3.882 30.3498 3.70841 30.2192C3.53481 30.0887 3.3809 29.8986 3.25738 29.6623C3.13386 29.426 3.04369 29.149 2.99314 28.8507C2.94259 28.5524 2.93287 28.2399 2.96466 27.9349C3.29218 24.8329 4.07773 21.9041 5.25479 19.3964C6.43184 16.8888 7.96574 14.8762 9.72658 13.5291C11.4874 12.182 13.4233 11.54 15.3704 11.6576C17.3174 11.7752 19.2182 12.6489 20.9119 14.2046C21.1158 14.3907 21.3165 14.5889 21.5139 14.7991C22.243 15.5697 22.9189 16.464 23.5302 17.4667C25.3187 20.3779 26.4902 24.1292 26.8768 28.1824C26.8859 28.3651 26.9022 28.5466 26.9258 28.7258C26.9356 28.7965 26.9465 28.8672 26.958 28.937C26.9615 28.9575 26.9655 28.9779 26.969 28.9984C26.9782 29.0496 26.988 29.1008 26.9984 29.151C27.0024 29.1705 27.0064 29.191 27.011 29.2106C27.0254 29.2785 27.041 29.3455 27.0577 29.4106C27.0744 29.4757 27.0923 29.5399 27.1107 29.6041L27.128 29.6599C27.1424 29.7074 27.1568 29.753 27.1723 29.7995C27.1787 29.8181 27.1844 29.8367 27.1908 29.8544C27.2121 29.9158 27.234 29.9763 27.257 30.0358C27.2801 30.0954 27.3043 30.1531 27.329 30.2098L27.3515 30.2601C27.3699 30.3019 27.3895 30.3438 27.4091 30.3848L27.4235 30.4155L4.26261 30.4182ZM30.9878 27.921C30.9014 28.6904 30.6525 29.913 29.9353 30.2973C29.9353 30.2871 29.9313 30.2768 29.9295 30.2666L29.8938 30.074C29.8482 29.8663 29.8172 29.6509 29.8017 29.432C29.7995 29.3752 29.8022 29.3182 29.8097 29.2627C29.8276 29.1408 29.846 29.0198 29.8633 28.897C29.9785 28.1033 30.0736 27.2883 30.0067 26.463C30.0016 26.3997 29.9958 26.3355 29.9883 26.2723C29.9343 25.8144 29.8397 25.3716 29.7072 24.9576C29.5364 24.4388 29.344 23.9396 29.1311 23.4633C29.0159 23.1888 28.9006 22.9209 28.7998 22.6566C28.7019 22.4051 28.6174 22.1405 28.5475 21.8657C28.415 21.3252 28.3539 20.6971 28.2888 20.0337C28.1891 19.0103 28.0855 17.957 27.7093 17.0564C27.3331 16.1557 26.7581 15.5937 26.2045 15.0597C25.8513 14.7173 25.5178 14.3944 25.2557 13.999C25.2251 13.9525 25.1946 13.9059 25.1646 13.8538C25.1548 13.838 25.1456 13.8203 25.1358 13.8036C25.1162 13.7682 25.0961 13.7347 25.0782 13.6984L25.0436 13.6324C25.0264 13.5989 25.0091 13.5673 24.9918 13.5328L24.9555 13.4584C24.9394 13.4258 24.9232 13.3933 24.9071 13.3588L24.8691 13.2779L24.823 13.1774L24.7844 13.0909L24.7389 12.9885L24.7009 12.9011L24.6565 12.7876C24.6433 12.7578 24.6306 12.7271 24.6173 12.6945L24.5845 12.6173C26.008 13.2314 27.1695 14.1385 28.1108 15.3658C29.4566 17.1206 30.319 19.4894 30.747 22.6054C30.7977 23.0083 31.129 26.6621 30.9878 27.921Z" fill="currentColor"/>
<path d="M7.55393 22.3756C7.51387 22.4328 7.48945 22.5132 7.48599 22.5993C7.48254 22.6854 7.50033 22.7703 7.53549 22.8353C7.60694 22.9672 7.64987 23.1332 7.65778 23.308C7.66569 23.4829 7.63816 23.6571 7.57934 23.8045C7.52053 23.9518 7.43363 24.0642 7.33176 24.1248C7.22989 24.1853 7.11859 24.1907 7.01467 24.1401C6.91074 24.0895 6.81984 23.9856 6.75568 23.8442C6.69153 23.7028 6.65761 23.5315 6.65904 23.3562C6.66048 23.1809 6.69719 23.0111 6.76364 22.8725C6.83008 22.7339 6.92266 22.6339 7.02737 22.5878C7.05367 22.5777 7.07844 22.5591 7.10021 22.5332C7.12198 22.5074 7.14031 22.4747 7.15411 22.4371C7.1679 22.3996 7.17688 22.358 7.18051 22.3147C7.18414 22.2714 7.18235 22.2274 7.17524 22.1853C7.16813 22.1432 7.15585 22.1038 7.13913 22.0695C7.12241 22.0352 7.10158 22.0067 7.0779 21.9856C7.05422 21.9646 7.02816 21.9515 7.00126 21.947C6.97437 21.9426 6.9472 21.9469 6.92137 21.9597C6.73182 22.043 6.56421 22.2238 6.44389 22.4746C6.32357 22.7254 6.25708 23.0326 6.25447 23.3498C6.25187 23.6671 6.31328 23.9771 6.42943 24.2329C6.54558 24.4888 6.71016 24.6767 6.89827 24.7681C7.08639 24.8595 7.28782 24.8495 7.47211 24.7396C7.6564 24.6297 7.81353 24.426 7.91974 24.1591C8.02596 23.8922 8.07548 23.5767 8.06082 23.2603C8.04617 22.9439 7.96814 22.6438 7.83852 22.4054C7.82109 22.3732 7.79988 22.3468 7.77612 22.3278C7.75236 22.3089 7.72651 22.2977 7.70006 22.2949C7.67361 22.2922 7.64708 22.2979 7.622 22.3117C7.59692 22.3256 7.57379 22.3473 7.55393 22.3756Z" fill="currentColor"/>
<path d="M17.3096 26.1895C17.0398 26.0657 16.7506 26.1174 16.504 26.3335C16.2574 26.5497 16.073 26.9131 15.9902 27.346C15.9074 27.7789 15.9328 28.247 16.061 28.65C16.1891 29.0531 16.4098 29.3592 16.6759 29.5028C16.6946 29.5119 16.714 29.5169 16.7335 29.5177C16.7818 29.5174 16.8285 29.4891 16.8649 29.4379C16.9014 29.3868 16.9253 29.3162 16.9323 29.2391C16.9392 29.1619 16.9288 29.0832 16.9029 29.0174C16.877 28.9515 16.8374 28.9029 16.7911 28.8803C16.6644 28.8172 16.5521 28.6947 16.4684 28.5285C16.3847 28.3622 16.3335 28.1596 16.3211 27.9463C16.3088 27.7329 16.3359 27.5185 16.399 27.3301C16.4621 27.1416 16.5584 26.9876 16.6758 26.8876C16.7931 26.7876 16.9261 26.7461 17.0581 26.7682C17.19 26.7903 17.315 26.8752 17.417 27.012C17.5191 27.1488 17.5938 27.3315 17.6316 27.5369C17.6694 27.7422 17.6686 27.9611 17.6294 28.1658C17.5998 28.3233 17.5479 28.4676 17.4779 28.5872C17.4597 28.6184 17.4455 28.655 17.4361 28.695C17.4267 28.735 17.4223 28.7776 17.4231 28.8204C17.4247 28.9068 17.4475 28.9886 17.4865 29.0478C17.5255 29.107 17.5774 29.1388 17.6309 29.1362C17.6843 29.1336 17.735 29.0968 17.7717 29.0338C17.8964 28.8194 17.9853 28.5572 18.03 28.2719C18.0747 27.9867 18.0737 27.6877 18.0272 27.4033C17.9806 27.1188 17.89 26.8581 17.7639 26.6458C17.6377 26.4335 17.4802 26.2764 17.3062 26.1895H17.3096Z" fill="currentColor"/>
<path d="M21.4561 19.964C21.3456 19.7418 21.203 19.567 21.0407 19.4551C20.8784 19.3432 20.7016 19.2976 20.5258 19.3224C20.3501 19.3471 20.1808 19.4415 20.033 19.5971C19.8852 19.7528 19.7635 19.9648 19.6785 20.2146C19.5936 20.4643 19.548 20.744 19.546 21.029C19.5439 21.3139 19.5854 21.5952 19.6667 21.8481C19.748 22.101 19.8667 22.3176 20.0122 22.4787C20.1577 22.6399 20.3256 22.7406 20.5009 22.772C20.5412 22.7785 20.581 22.7823 20.6207 22.7823C20.8642 22.7825 21.1005 22.6482 21.2902 22.4017C21.332 22.3477 21.3587 22.269 21.3646 22.1831C21.3705 22.0972 21.355 22.011 21.3216 21.9435C21.2881 21.876 21.2394 21.8327 21.1862 21.8232C21.133 21.8137 21.0796 21.8387 21.0378 21.8928C20.9244 22.0391 20.7845 22.1218 20.6394 22.1284C20.4943 22.1351 20.3518 22.0653 20.2334 21.9296C20.115 21.7939 20.0271 21.5997 19.9831 21.3762C19.9391 21.1528 19.9413 20.9123 19.9893 20.6911C20.0374 20.4698 20.1287 20.2798 20.2495 20.1498C20.3703 20.0197 20.5141 19.9567 20.659 19.9702C20.8039 19.9837 20.9422 20.073 21.053 20.2247C21.1637 20.3763 21.2409 20.582 21.2729 20.8107C21.2783 20.8529 21.289 20.893 21.3041 20.9286C21.3192 20.9641 21.3386 20.9945 21.3611 21.0179C21.3835 21.0412 21.4087 21.0572 21.435 21.0647C21.4613 21.0723 21.4883 21.0713 21.5143 21.0619C21.5404 21.0524 21.5651 21.0347 21.5869 21.0097C21.6087 20.9848 21.6272 20.9531 21.6413 20.9165C21.6555 20.8798 21.665 20.839 21.6693 20.7964C21.6736 20.7538 21.6726 20.7103 21.6664 20.6683C21.6308 20.4105 21.5588 20.1695 21.4561 19.964Z" fill="currentColor"/>
<path d="M13.0368 19.175C12.8492 19.178 12.6639 19.241 12.4915 19.3604C12.3191 19.4799 12.1632 19.6535 12.0326 19.871C12.0128 19.9011 11.997 19.9373 11.986 19.9776C11.9751 20.0178 11.9693 20.0612 11.9691 20.1051C11.9688 20.149 11.974 20.1926 11.9845 20.2331C11.9949 20.2737 12.0103 20.3105 12.0297 20.3412C12.0492 20.3719 12.0723 20.3959 12.0976 20.4119C12.1229 20.4278 12.15 20.4353 12.1772 20.4338C12.2044 20.4324 12.2311 20.4221 12.2558 20.4036C12.2804 20.3851 12.3025 20.3587 12.3207 20.326C12.4759 20.0687 12.6788 19.8999 12.8986 19.8453C13.1185 19.7906 13.3434 19.8531 13.5393 20.0231C13.7352 20.1932 13.8916 20.4617 13.9847 20.7879C14.0778 21.1142 14.1026 21.4805 14.0554 21.8316C14.0081 22.1826 13.8914 22.4993 13.7229 22.7338C13.5544 22.9682 13.3431 23.1077 13.1212 23.1311C12.8992 23.1545 12.6786 23.0606 12.4926 22.8636C12.3066 22.6665 12.1654 22.3771 12.0903 22.0389C12.0722 21.9575 12.0349 21.8909 11.9865 21.854C11.9381 21.817 11.8826 21.8125 11.8322 21.8417C11.7817 21.8708 11.7405 21.931 11.7176 22.0092C11.6947 22.0874 11.692 22.1771 11.71 22.2585C11.8095 22.7058 11.992 23.0926 12.2327 23.3662C12.4733 23.6398 12.7604 23.7868 13.0546 23.7872H13.0731C13.4517 23.7794 13.8129 23.529 14.0772 23.0912C14.3415 22.6533 14.4873 22.0638 14.4825 21.4523C14.4777 20.8408 14.3227 20.2574 14.0515 19.8305C13.7804 19.4037 13.4154 19.1682 13.0368 19.176V19.175Z" fill="currentColor"/>
<path d="M12.9959 16.7698C13.0192 16.7901 13.0447 16.8028 13.071 16.8071C13.0974 16.8114 13.124 16.8073 13.1493 16.7949C13.1746 16.7825 13.1982 16.7622 13.2186 16.735C13.2391 16.7079 13.256 16.6745 13.2684 16.6367C13.3482 16.3955 13.484 16.2152 13.6461 16.1357C13.8081 16.0561 13.9831 16.0837 14.1325 16.2124C14.1797 16.253 14.235 16.2617 14.2862 16.2365C14.3373 16.2112 14.3802 16.1542 14.4053 16.078C14.4305 16.0017 14.4358 15.9125 14.4202 15.8299C14.4046 15.7472 14.3693 15.678 14.3221 15.6374C14.2014 15.5333 14.0692 15.4687 13.933 15.4471C13.7968 15.4256 13.6593 15.4476 13.5284 15.5118C13.3975 15.5761 13.2757 15.6814 13.17 15.8218C13.0643 15.9621 12.9767 16.1347 12.9124 16.3297C12.8999 16.3674 12.8922 16.4087 12.8896 16.4513C12.8871 16.4939 12.8897 16.5369 12.8975 16.5778C12.9053 16.6186 12.918 16.6567 12.9348 16.6896C12.9517 16.7226 12.9725 16.7498 12.9959 16.7698Z" fill="currentColor"/>
<path d="M9.2711 17.3709C9.11443 17.1838 8.93639 17.0487 8.74724 16.9733C8.55809 16.898 8.36157 16.8838 8.16902 16.9317C8.14253 16.9375 8.11702 16.9518 8.09398 16.9737C8.07094 16.9956 8.05083 17.0247 8.03482 17.0593C8.0188 17.0939 8.0072 17.1332 8.00069 17.1751C7.99419 17.217 7.9929 17.2605 7.99691 17.3032C8.00092 17.3459 8.01015 17.3869 8.02406 17.4238C8.03796 17.4606 8.05627 17.4927 8.07791 17.518C8.09956 17.5434 8.12411 17.5615 8.15013 17.5714C8.17616 17.5813 8.20314 17.5827 8.22951 17.5756C8.5127 17.5062 8.80137 17.6213 9.03202 17.8955C9.26268 18.1698 9.41643 18.5808 9.45948 19.0382C9.4664 19.1156 9.49035 19.1865 9.52696 19.2377C9.56356 19.289 9.61036 19.3172 9.65881 19.3173C9.66898 19.3182 9.67917 19.3182 9.68934 19.3173C9.71558 19.3109 9.74076 19.2961 9.76346 19.2739C9.78615 19.2517 9.8059 19.2224 9.82158 19.1878C9.83727 19.1533 9.84857 19.114 9.85484 19.0724C9.86111 19.0307 9.86224 18.9875 9.85814 18.9452C9.82981 18.633 9.76332 18.333 9.66254 18.0628C9.56175 17.7925 9.42869 17.5573 9.2711 17.3709Z" fill="currentColor"/>
<path d="M22.8672 25.8471C22.8413 25.8558 22.8167 25.8727 22.7949 25.8968C22.773 25.9209 22.7543 25.9518 22.7399 25.9876C22.7254 26.0233 22.7155 26.0634 22.7106 26.1054C22.7058 26.1474 22.7061 26.1905 22.7116 26.2323C22.7291 26.3648 22.7302 26.5016 22.7149 26.6348C22.6996 26.768 22.6682 26.8951 22.6224 27.0087C22.5767 27.1222 22.5175 27.2201 22.4483 27.2967C22.379 27.3732 22.3011 27.427 22.219 27.4549C22.1929 27.4633 22.1681 27.4801 22.146 27.5041C22.124 27.5282 22.1051 27.559 22.0904 27.5949C22.0757 27.6309 22.0656 27.6711 22.0607 27.7134C22.0557 27.7556 22.056 27.799 22.0614 27.8411C22.0669 27.8832 22.0775 27.9231 22.0926 27.9586C22.1077 27.994 22.127 28.0243 22.1493 28.0476C22.1717 28.071 22.1967 28.0869 22.2229 28.0946C22.2491 28.1022 22.276 28.1014 22.302 28.0922C22.4361 28.047 22.5634 27.9596 22.6765 27.8349C22.7896 27.7102 22.8865 27.5507 22.9614 27.3655C23.0363 27.1803 23.0878 26.973 23.1131 26.7556C23.1384 26.5381 23.1368 26.3148 23.1085 26.0983C23.1031 26.0561 23.0925 26.016 23.0773 25.9804C23.0622 25.9449 23.0428 25.9145 23.0204 25.8911C22.9979 25.8678 22.9728 25.8518 22.9465 25.8443C22.9202 25.8367 22.8932 25.8377 22.8672 25.8471Z" fill="currentColor"/>
<path d="M16.9943 21.1791C17.1303 21.1793 17.2632 21.1143 17.3763 20.9925C17.4894 20.8706 17.5776 20.6973 17.6297 20.4945C17.6818 20.2917 17.6955 20.0685 17.6691 19.8531C17.6426 19.6377 17.5772 19.4399 17.4811 19.2845C17.385 19.1292 17.2625 19.0234 17.1292 18.9805C16.9959 18.9376 16.8576 18.9595 16.732 19.0435C16.6064 19.1275 16.499 19.2698 16.4235 19.4523C16.3479 19.6349 16.3076 19.8495 16.3076 20.0691C16.3078 20.3633 16.3802 20.6453 16.5089 20.8534C16.6376 21.0615 16.8122 21.1786 16.9943 21.1791ZM16.9943 19.6113C17.0505 19.6112 17.1055 19.6379 17.1523 19.6883C17.1991 19.7386 17.2356 19.8102 17.2572 19.8941C17.2788 19.9779 17.2844 20.0702 17.2735 20.1593C17.2625 20.2484 17.2355 20.3302 17.1957 20.3944C17.156 20.4586 17.1053 20.5023 17.0502 20.52C16.995 20.5376 16.9379 20.5285 16.8859 20.4936C16.834 20.4588 16.7897 20.3999 16.7585 20.3243C16.7273 20.2487 16.7108 20.1599 16.7109 20.0691C16.711 19.9478 16.741 19.8315 16.7941 19.7457C16.8472 19.6599 16.9192 19.6116 16.9943 19.6113Z" fill="currentColor"/>
<path d="M10.8192 25.9215C10.6832 25.9213 10.5503 25.9863 10.4372 26.1082C10.324 26.2301 10.2359 26.4034 10.1838 26.6063C10.1317 26.8092 10.118 27.0324 10.1445 27.2478C10.171 27.4632 10.2365 27.6611 10.3326 27.8164C10.4288 27.9717 10.5513 28.0774 10.6847 28.1202C10.8181 28.163 10.9563 28.141 11.0819 28.0568C11.2075 27.9727 11.3149 27.8303 11.3903 27.6476C11.4658 27.4649 11.506 27.2502 11.5059 27.0306C11.5056 26.7366 11.4332 26.4548 11.3044 26.2469C11.1757 26.039 11.0012 25.922 10.8192 25.9215ZM10.8192 27.4893C10.763 27.4895 10.708 27.4627 10.6613 27.4124C10.6145 27.3621 10.578 27.2906 10.5564 27.2068C10.5348 27.123 10.5291 27.0307 10.54 26.9417C10.5509 26.8526 10.5779 26.7708 10.6176 26.7066C10.6573 26.6423 10.7079 26.5985 10.763 26.5808C10.8181 26.563 10.8753 26.572 10.9272 26.6067C10.9791 26.6414 11.0235 26.7002 11.0547 26.7756C11.086 26.8511 11.1026 26.9398 11.1026 27.0306C11.1027 27.1521 11.0728 27.2686 11.0197 27.3546C10.9665 27.4406 10.8944 27.489 10.8192 27.4893Z" fill="currentColor"/>
</svg>
