<svg xmlns="http://www.w3.org/2000/svg" width="32" height="40" fill="none" class="iconPrimary" viewBox="0 0 32 40">
    <path fill="currentColor" d="M31.034 17.2a.678.678 0 0 0-.514-.23h-1.03l.48-10.108a.652.652 0 0 0-.177-.476.687.687 0 0 0-.47-.216l-7.158-.324a.69.69 0 0 0-.488.172.655.655 0 0 0-.221.458l-.08 1.626-.51-6.49a.656.656 0 0 0-.232-.45.69.69 0 0 0-.49-.16l-7.145.534a.686.686 0 0 0-.463.23.652.652 0 0 0-.161.48l.095 1.212-6.844.373a.693.693 0 0 0-.469.221.658.658 0 0 0-.17.48L5.191 8.1l-3.273.488a.683.683 0 0 0-.444.262.65.65 0 0 0-.124.492l1.197 7.625H1.48a.694.694 0 0 0-.516.23.657.657 0 0 0-.155.532l2.81 18.945a.654.654 0 0 0 .367.498l3.6 1.757a.69.69 0 0 0 .451.054 37.889 37.889 0 0 1 15.932 0 .688.688 0 0 0 .451-.054l3.597-1.757a.653.653 0 0 0 .368-.497l2.808-18.946a.648.648 0 0 0-.158-.53Zm-2.448-9.74-.454 9.509h-1.038a.69.69 0 0 0-.395.124.663.663 0 0 0-.247.326l-.012.034c-.036.103-.074.205-.113.311l-.041.105-.121.293c-.022.048-.043.097-.066.145a7.671 7.671 0 0 1-.215.45l-.044.085a10.75 10.75 0 0 1-1.38 2.039l1.155-8.182a.65.65 0 0 0-.174-.54.687.687 0 0 0-.405-.205l-2.467-.33.212-4.423 5.805.259Zm-4.2 27.017H7.614l-.878-6.106h18.534l-.882 6.106Zm.959-6.65H6.654L5.607 20.56a12.267 12.267 0 0 0 4.411 3.998l.07.038.144.077.112.057.03.015c.194.096.392.188.592.275l.011.004c.276.12.557.23.842.329l.018.007.192.064.055.018.18.057.057.017.166.05.043.012c.105.03.211.058.32.085l.103.027c.108.026.216.05.324.077l.114.025c.108.023.218.044.328.064l.114.02c.111.02.223.037.335.053l.107.016c.115.015.23.03.347.042l.095.01c.12.012.24.023.363.031l.076.006c.127.008.255.015.384.02h.05c.134.004.268.007.403.007h.502c.055 0 .11-.005.165-.008h.08c.06 0 .12-.008.18-.012l.059-.004.196-.017h.04a9.01 9.01 0 0 0 .212-.022h.019a12.657 12.657 0 0 0 2.258-.467l.045-.014.16-.05.093-.031.068-.023.05-.018.138-.048.108-.039.146-.054.16-.06.159-.065.114-.049.122-.052.113-.05.127-.057.102-.048.16-.078.068-.034a12.287 12.287 0 0 0 4.764-4.18l-1.056 7.245Zm-2.466-5.443a10.978 10.978 0 0 1-1.477.976l-.127.068c-.08.04-.155.081-.233.12l-.111.055c-.088.043-.176.085-.265.125l-.09.041-.08.033-.219-8.25a.626.626 0 0 0-.006-.067v-.009c0-.02-.006-.038-.01-.056a.658.658 0 0 0-.194-.328.685.685 0 0 0-.346-.17h-.01c-.017 0-.035-.006-.053-.007h-.075l-1.516.037.36-2.548.958.127 2.385.32h.006l2.408.324-1.305 9.21Zm-5.577-6.093h.004l1.635-.041.212 8.034-.108.033-.088.023c-.108.03-.217.057-.326.084l-.08.018c-.111.026-.223.05-.336.072l-.08.016c-.11.021-.222.04-.334.059l-.089.014c-.109.017-.218.031-.329.045l-.098.011c-.107.013-.215.023-.323.032l-.105.01c-.11.007-.221.014-.332.018l-.096.006c-.143.005-.286.008-.429.008-.143 0-.27 0-.405-.008l-.105-.005a10.17 10.17 0 0 1-.311-.018l-.1-.007a11.302 11.302 0 0 1-.815-.096l-.04-.006c-.123-.02-.246-.041-.367-.064l-.058-.011c-.131-.027-.262-.054-.391-.084l-.06-.016-.211-8.022 2.293-.058 1.872-.047Zm-5.542 7.618a9.723 9.723 0 0 1-.344-.146l-.037-.016a7.856 7.856 0 0 1-.35-.165l-.026-.013c-.121-.06-.241-.122-.36-.186l-.01-.005a10.612 10.612 0 0 1-1.255-.796l-1.568-9.053 5.572-.918.156-.025.224 1.293.203 1.172-1.544.039a.693.693 0 0 0-.475.205.66.66 0 0 0-.186.473l.216 8.225c-.057-.022-.115-.042-.17-.065l-.046-.019Zm7.811-21.536.701 8.939-2.333-.311a.69.69 0 0 0-.558.173.657.657 0 0 0-.207.392l-.483 3.419-.502.012-.854.022-.232-1.34-.34-1.964a.646.646 0 0 0-.291-.439l-.03-.018-.663-8.454 5.792-.431ZM6.378 5.115l5.8-.316.38 6.607-2.205.363-.578-3.683a.639.639 0 0 0-.354-.483l-.016-.009a.698.698 0 0 0-.087-.035h-.014a.846.846 0 0 0-.088-.02h-.01a.783.783 0 0 0-.095-.008h-.019c-.03 0-.06.002-.09.007l-.447.066-2.017.295-.16-2.784ZM2.796 9.794l3.21-.479 1.229-.183 1.301-.194.479 3.05-2.1.347a.69.69 0 0 0-.442.268.653.653 0 0 0-.117.495l1.393 8.021a10.724 10.724 0 0 1-1.394-1.916l-.054-.095a8.364 8.364 0 0 1-.234-.444l-.072-.15c-.032-.067-.063-.133-.093-.2a8.022 8.022 0 0 1-.185-.438l-.046-.116c-.038-.1-.08-.2-.111-.303l-.015-.038a.662.662 0 0 0-.245-.326.69.69 0 0 0-.393-.125H3.92L2.796 9.794Zm-.53 8.497h2.16c.129.33.272.653.429.967l2.614 18.136-2.558-1.25-2.646-17.853Zm13.737 18.518c-2.668 0-5.33.274-7.939.815l-.374-2.6h16.619l-.375 2.6a39.12 39.12 0 0 0-7.934-.81l.003-.005Zm11.09-.67-2.56 1.25.364-2.522a.271.271 0 0 0 .025-.173l2.22-15.434c.156-.314.3-.637.429-.967h2.163L27.092 36.14Z"/>
</svg>
