<svg xmlns="http://www.w3.org/2000/svg" width="32" height="40" fill="none" class="iconPrimary" viewBox="0 0 32 40">
    <path fill="currentColor" d="M31 26.203a4.782 4.782 0 0 0-1.409-3.402L13.2 6.405a4.818 4.818 0 0 0-6.413-.347 3.386 3.386 0 0 0-4.728 4.728 4.813 4.813 0 0 0 .35 6.413l16.393 16.393a4.816 4.816 0 0 0 6.412.352 3.387 3.387 0 0 0 4.727-4.73 4.772 4.772 0 0 0 1.06-3.01ZM12.395 7.211l16.393 16.394a3.676 3.676 0 0 1 .37 4.765L7.63 6.84a3.681 3.681 0 0 1 4.765.371Zm7.21 25.578L3.211 16.395a3.676 3.676 0 0 1-.371-4.765L24.369 33.16a3.682 3.682 0 0 1-4.765-.37Zm9.183 0a2.254 2.254 0 0 1-3.183 0L3.215 10.397a2.25 2.25 0 0 1 3.18-3.186l22.39 22.392a2.255 2.255 0 0 1 .003 3.186Z"/>
    <path fill="currentColor" d="M22.707 32.677a.234.234 0 0 0-.285-.167 1.567 1.567 0 0 1-1.505-.406l-2.319-2.319a.234.234 0 0 0-.332-.001.236.236 0 0 0-.002.332l2.319 2.32a2.04 2.04 0 0 0 1.952.527.236.236 0 0 0 .177-.194.233.233 0 0 0-.005-.092ZM8.808 7.14a.234.234 0 0 0 .284.17 2.503 2.503 0 0 1 1.946.308.234.234 0 0 0 .35-.253.234.234 0 0 0-.104-.146 2.966 2.966 0 0 0-2.306-.365.235.235 0 0 0-.17.286ZM26.046 30.181c.014-.083.03-.168.047-.254.02-.098.039-.2.055-.3.01-.061.017-.118.022-.167.041-.33.04-.71-.278-1.029-.359-.358-.806-.32-1.196-.255-.094.015-.189.034-.284.052a10.71 10.71 0 0 1-.271.049c-.426.067-.625.039-.79-.124-.163-.163-.194-.363-.123-.79.014-.089.032-.18.049-.27.017-.091.036-.19.052-.285.067-.39.102-.837-.256-1.195-.358-.359-.802-.32-1.196-.256l-.282.052c-.094.018-.183.035-.272.05-.427.067-.626.039-.79-.125-.162-.164-.194-.362-.123-.79.014-.088.032-.18.048-.27.017-.091.037-.19.053-.284.066-.39.102-.837-.256-1.195-.358-.359-.805-.32-1.196-.256a9.274 9.274 0 0 0-.284.052 8.551 8.551 0 0 1-.27.05c-.427.066-.627.037-.79-.126-.163-.163-.195-.363-.125-.79.015-.089.032-.18.05-.27.019-.091.037-.191.052-.284.067-.39.103-.837-.255-1.196-.359-.358-.806-.32-1.197-.255-.093.015-.188.033-.283.051-.095.018-.183.035-.271.05-.427.067-.626.039-.79-.124-.162-.163-.195-.363-.124-.793.015-.09.032-.18.05-.27.017-.092.036-.191.05-.284.068-.391.104-.838-.255-1.196-.358-.358-.805-.32-1.196-.255-.092.014-.186.032-.281.05-.095.018-.183.036-.274.05-.426.07-.625.04-.788-.124-.163-.164-.195-.363-.125-.79.014-.089.033-.18.05-.271.017-.092.036-.19.051-.284.067-.39.103-.836-.255-1.195-.358-.358-.805-.32-1.196-.256a11.41 11.41 0 0 0-.284.052l-.271.05c-.427.066-.626.038-.79-.125-.163-.163-.195-.363-.124-.79.015-.09.032-.18.049-.267.017-.087.037-.191.052-.285.067-.39.103-.837-.256-1.196-.359-.358-.802-.32-1.196-.255-.093.015-.187.033-.282.051-.095.018-.183.035-.273.05-.426.067-.626.038-.789-.125-.163-.163-.195-.363-.125-.79.015-.089.032-.18.05-.267.016-.087.036-.19.051-.285.067-.39.103-.838-.256-1.196a.236.236 0 0 0-.334.334c.164.164.195.363.125.79-.015.09-.032.18-.05.273-.017.091-.035.189-.05.282-.068.39-.104.837.255 1.196s.802.32 1.196.256c.093-.015.189-.034.284-.052l.267-.05c.427-.066.626-.038.79.125.163.164.195.363.125.79-.015.09-.032.181-.05.272-.017.09-.036.19-.051.283-.067.39-.103.837.255 1.196s.802.32 1.196.255c.093-.015.188-.033.283-.051.095-.018.182-.035.272-.05.426-.066.626-.038.79.125.163.164.194.363.124.788-.015.09-.032.181-.05.273-.017.091-.036.19-.051.283-.067.39-.103.838.255 1.196s.802.32 1.196.256c.094-.016.19-.034.285-.052.096-.018.18-.035.268-.05.427-.07.625-.039.789.125.164.164.195.362.125.789-.015.09-.032.18-.05.272-.018.091-.036.19-.052.283-.066.39-.103.837.256 1.196.36.36.802.32 1.195.256.094-.016.189-.034.284-.052.095-.018.182-.035.272-.05.426-.07.625-.038.79.125.163.163.194.362.123.789-.014.09-.032.18-.049.271-.017.09-.036.19-.051.284-.067.39-.104.837.255 1.196s.802.32 1.195.255c.093-.015.188-.033.284-.051.096-.018.182-.035.271-.05.427-.067.626-.039.79.124.163.164.194.363.124.79-.015.09-.032.18-.05.272-.017.092-.035.19-.05.283-.068.39-.104.837.254 1.196.359.358.803.319 1.196.255.094-.015.189-.034.284-.052l.27-.05c.427-.07.627-.038.79.125.163.163.195.363.124.789-.014.09-.032.181-.049.272-.017.09-.037.19-.052.283-.067.39-.103.837.255 1.196.358.36.802.32 1.196.256.094-.016.189-.034.283-.052.095-.018.183-.035.272-.05.427-.07.626-.038.79.125.145.146.184.319.143.644a2.825 2.825 0 0 1-.02.148c-.014.092-.033.19-.051.284-.018.094-.035.179-.049.268-.067.39-.104.838.255 1.197a.235.235 0 1 0 .331-.335c-.155-.167-.186-.367-.116-.794Z"/>
</svg>