<svg width="32" class="iconPrimary" height="40" viewBox="0 0 32 40" fill="none" xmlns="http://www.w3.org/2000/svg">
<g clip-path="url(#clip0_5716_4085)">
<path d="M15.9999 36C13.3687 36.0001 10.778 35.3512 8.45746 34.1109C6.13688 32.8706 4.15801 31.0771 2.69613 28.8893C1.23426 26.7015 0.334507 24.187 0.0765748 21.5684C-0.181357 18.9499 0.210495 16.3081 1.21742 13.8771C2.22434 11.4462 3.81526 9.30106 5.84924 7.63182C7.88323 5.96257 10.2975 4.82073 12.8782 4.30741C15.4589 3.7941 18.1263 3.92517 20.6443 4.68902C23.1622 5.45286 25.4529 6.82589 27.3134 8.6865C29.551 10.9241 31.0748 13.775 31.6921 16.8787C32.3094 19.9823 31.9926 23.1993 30.7816 26.1229C29.5706 29.0464 27.5199 31.5453 24.8888 33.3034C22.2577 35.0615 19.1644 35.9999 15.9999 36ZM15.9999 5C12.0217 5 8.20638 6.58035 5.39333 9.3934C2.58029 12.2064 0.999933 16.0218 0.999933 20C0.999933 23.9782 2.58029 27.7936 5.39333 30.6066C8.20638 33.4196 12.0217 35 15.9999 35C18.9667 35 21.8668 34.1203 24.3335 32.4721C26.8003 30.8239 28.7229 28.4812 29.8582 25.7403C30.9935 22.9995 31.2905 19.9834 30.7117 17.0737C30.1329 14.164 28.7042 11.4913 26.6064 9.39356C25.2168 7.99629 23.5638 6.88851 21.7432 6.13436C19.9226 5.3802 17.9705 4.99465 15.9999 5Z" fill="currentColor"/>
<path d="M25.0255 15.145C24.9385 15.1451 24.8531 15.1226 24.7776 15.0796C24.702 15.0366 24.639 14.9747 24.5948 14.8998C23.5865 13.1926 22.091 11.8255 20.3004 10.9741C20.1948 10.9288 20.108 10.8485 20.0547 10.7467C20.0014 10.6449 19.9847 10.5279 20.0076 10.4153C20.0305 10.3027 20.0915 10.2014 20.1803 10.1285C20.2691 10.0556 20.3803 10.0156 20.4952 10.0151C20.5709 10.0151 20.6457 10.0316 20.7144 10.0634C22.6915 10.9995 24.3427 12.5066 25.4551 14.3901C25.5001 14.466 25.5242 14.5524 25.525 14.6406C25.5257 14.7288 25.5032 14.8156 25.4595 14.8923C25.4159 14.969 25.3528 15.0327 25.2765 15.0771C25.2003 15.1215 25.1137 15.1449 25.0255 15.145ZM11.5147 29.9902C11.4409 29.9902 11.368 29.9739 11.3013 29.9424C8.70409 28.7066 6.68995 26.5082 5.68561 23.813C5.66291 23.7513 5.65257 23.6859 5.65518 23.6202C5.65779 23.5546 5.6733 23.4902 5.70082 23.4305C5.72835 23.3709 5.76734 23.3173 5.81559 23.2727C5.86384 23.2282 5.92038 23.1936 5.98201 23.1709C6.04363 23.1482 6.10912 23.1378 6.17474 23.1404C6.24036 23.143 6.30482 23.1586 6.36444 23.1861C6.42407 23.2136 6.47769 23.2526 6.52224 23.3008C6.5668 23.3491 6.60141 23.4056 6.62411 23.4673C7.53693 25.9172 9.36799 27.9153 11.7291 29.0381C11.8319 29.0866 11.915 29.1688 11.9648 29.2709C12.0147 29.373 12.0282 29.4891 12.0032 29.6C11.9783 29.7109 11.9163 29.8099 11.8275 29.8809C11.7387 29.9518 11.6284 29.9903 11.5147 29.9902ZM6.97516 15.1474C6.90962 15.1477 6.84466 15.1351 6.78402 15.1102C6.72337 15.0854 6.66824 15.0488 6.62178 15.0025C6.57532 14.9563 6.53845 14.9014 6.51329 14.8408C6.48813 14.7803 6.47517 14.7154 6.47516 14.6499V14.645C6.47535 14.5552 6.49944 14.467 6.54498 14.3896C7.6618 12.4986 9.32325 10.9886 11.3121 10.0571C11.3887 10.0226 11.4725 10.0074 11.5563 10.0129C11.6401 10.0184 11.7213 10.0444 11.7927 10.0887C11.8641 10.1329 11.9236 10.1939 11.9659 10.2665C12.0082 10.3391 12.032 10.4209 12.0352 10.5049C12.0353 10.6013 12.0074 10.6956 11.955 10.7766C11.9025 10.8575 11.8278 10.9215 11.7398 10.9609L11.7369 10.9624C9.93528 11.8064 8.42926 13.1729 7.41461 14.8842C7.37192 14.9637 7.30853 15.0301 7.23116 15.0764C7.1538 15.1227 7.06534 15.1473 6.97516 15.1474ZM20.4854 29.9902C20.3719 29.9903 20.2617 29.9517 20.173 29.8808C20.0843 29.8099 20.0224 29.7109 19.9975 29.6001C19.9725 29.4894 19.986 29.3734 20.0357 29.2713C20.0855 29.1693 20.1685 29.0872 20.2711 29.0385C22.6345 27.9124 24.4671 25.9108 25.3809 23.4575C25.4266 23.333 25.5199 23.2318 25.6402 23.1761C25.7606 23.1205 25.8981 23.1149 26.0225 23.1606C26.147 23.2063 26.2482 23.2996 26.3039 23.4199C26.3595 23.5402 26.3651 23.6777 26.3194 23.8022C25.3148 26.5013 23.2989 28.7033 20.6988 29.9418C20.6322 29.9736 20.5593 29.9902 20.4854 29.9902Z" fill="currentColor"/>
<path d="M21.9995 25.98C21.8704 25.9799 21.7464 25.9299 21.6533 25.8405C21.5603 25.7511 21.5054 25.6292 21.5002 25.5002C21.4949 25.3712 21.5398 25.2453 21.6253 25.1486C21.7108 25.0519 21.8303 24.992 21.959 24.9815C23.2536 24.8737 24.4681 24.3103 25.3867 23.3916C25.7394 23.043 26.0416 22.6467 26.2847 22.2144C26.8365 21.2407 27.0783 20.1218 26.9777 19.0071C26.8771 17.8923 26.4389 16.8348 25.7217 15.9756C25.6182 15.854 25.5024 15.729 25.3867 15.6133C24.4556 14.6755 23.215 14.1088 21.8965 14.0191C21.7648 14.0056 21.6324 13.9992 21.5 14C21.0173 13.9978 20.5365 14.062 20.0713 14.1909C19.4331 14.3585 18.8316 14.6431 18.2974 15.0303C17.8165 15.3705 17.3966 15.7897 17.0557 16.27C17.0183 16.3241 16.9706 16.3702 16.9153 16.4059C16.8601 16.4415 16.7984 16.4658 16.7337 16.4776C16.669 16.4893 16.6026 16.4881 16.5384 16.4742C16.4742 16.4603 16.4133 16.4338 16.3593 16.3963C16.3053 16.3588 16.2593 16.311 16.2238 16.2557C16.1882 16.2004 16.164 16.1386 16.1524 16.0739C16.1408 16.0092 16.142 15.9429 16.1561 15.8786C16.1702 15.8144 16.1968 15.7536 16.2344 15.6997C16.4327 15.4159 16.6559 15.1504 16.9014 14.9063C17.1518 14.6518 17.4249 14.4208 17.7173 14.2158C18.3472 13.7598 19.0561 13.4244 19.8081 13.2266C20.5133 13.0218 21.251 12.9527 21.9819 13.023C23.536 13.1316 24.9976 13.8012 26.0947 14.9072C26.228 15.0405 26.3623 15.186 26.4858 15.3306C27.335 16.346 27.854 17.5965 27.9735 18.9148C28.0929 20.2331 27.8071 21.5565 27.1543 22.708C26.8664 23.2195 26.5087 23.6884 26.0913 24.1011C25.0054 25.1858 23.5705 25.8509 22.041 25.9785C22.0273 25.9795 22.0132 25.98 21.9995 25.98Z" fill="currentColor"/>
<path d="M21.6541 23.9951C21.5232 23.9949 21.3977 23.9434 21.3044 23.8517C21.2111 23.7599 21.1575 23.6353 21.1551 23.5045C21.1527 23.3737 21.2016 23.2471 21.2914 23.152C21.3813 23.0569 21.5048 23.0007 21.6355 22.9956C22.1553 22.9751 22.664 22.8389 23.1245 22.5969C23.585 22.3549 23.9857 22.0132 24.2975 21.5968C24.6093 21.1804 24.8242 20.6996 24.9267 20.1896C25.0292 19.6796 25.0167 19.1531 24.89 18.6486C24.7633 18.144 24.5257 17.6741 24.1944 17.273C23.8631 16.8719 23.4466 16.5497 22.9751 16.3299C22.5036 16.1102 21.989 15.9983 21.4688 16.0026C20.9486 16.0068 20.4359 16.1271 19.968 16.3545C19.6175 16.5245 19.298 16.7523 19.0232 17.0284C18.8596 17.1964 18.7106 17.378 18.5779 17.5713C18.5033 17.6809 18.3882 17.7563 18.258 17.781C18.1278 17.8058 17.9931 17.7777 17.8835 17.7032C17.774 17.6286 17.6985 17.5135 17.6738 17.3833C17.6491 17.2531 17.6771 17.1184 17.7517 17.0088C17.9181 16.7655 18.1054 16.5371 18.3113 16.3262C18.6663 15.9689 19.0792 15.6743 19.5325 15.4546C20.2912 15.0901 21.136 14.9424 21.9734 15.0279C22.996 15.1387 23.9502 15.5949 24.6785 16.3213C25.2975 16.9394 25.7227 17.7247 25.9021 18.581C26.0814 19.4372 26.007 20.3271 25.688 21.1417C25.369 21.9563 24.8193 22.6601 24.1062 23.1668C23.3932 23.6736 22.5477 23.9613 21.6736 23.9947C21.6673 23.9951 21.6609 23.9951 21.6541 23.9951Z" fill="currentColor"/>
<path d="M21.4961 22.0015C21.0017 22.0015 20.5183 21.8549 20.1072 21.5802C19.6961 21.3054 19.3756 20.915 19.1864 20.4582C18.9972 20.0014 18.9477 19.4987 19.0442 19.0138C19.1406 18.5288 19.3787 18.0833 19.7284 17.7337C20.078 17.3841 20.5234 17.146 21.0084 17.0495C21.4934 16.9531 21.996 17.0026 22.4528 17.1918C22.9096 17.381 23.3001 17.7014 23.5748 18.1126C23.8495 18.5237 23.9961 19.007 23.9961 19.5015C23.9953 20.1643 23.7317 20.7997 23.263 21.2684C22.7944 21.7371 22.1589 22.0007 21.4961 22.0015ZM21.4961 18.0015C21.1995 18.0015 20.9094 18.0895 20.6628 18.2543C20.4161 18.4191 20.2238 18.6534 20.1103 18.9275C19.9968 19.2015 19.9671 19.5031 20.0249 19.7941C20.0828 20.0851 20.2257 20.3524 20.4355 20.5621C20.6452 20.7719 20.9125 20.9148 21.2035 20.9727C21.4945 21.0305 21.7961 21.0008 22.0701 20.8873C22.3442 20.7738 22.5785 20.5815 22.7433 20.3348C22.9082 20.0882 22.9961 19.7981 22.9961 19.5015C22.9957 19.1038 22.8375 18.7225 22.5563 18.4413C22.2751 18.1601 21.8938 18.0019 21.4961 18.0015ZM12.3658 16.6299C12.2731 16.63 12.1821 16.6044 12.1032 16.5558C12.0242 16.5073 11.9602 16.4378 11.9185 16.355C11.8748 16.2681 11.8365 16.1785 11.8037 16.0869C11.6088 15.5806 11.5091 15.0426 11.5098 14.5C11.5077 13.909 11.6229 13.3234 11.8487 12.7771C12.0745 12.2309 12.4064 11.7349 12.8252 11.3179C13.4012 10.7419 14.1225 10.3329 14.9125 10.1344C15.7025 9.93584 16.5315 9.95525 17.3113 10.1905C18.0911 10.4258 18.7925 10.8681 19.3409 11.4704C19.8893 12.0727 20.264 12.8124 20.4253 13.6109C20.4516 13.7409 20.4252 13.876 20.3518 13.9865C20.2785 14.0971 20.1642 14.1739 20.0342 14.2002C19.9042 14.2265 19.7691 14.2001 19.6585 14.1267C19.548 14.0534 19.4711 13.9391 19.4449 13.8091C19.2761 12.9551 18.7952 12.1946 18.0961 11.676C17.397 11.1574 16.5297 10.9179 15.6635 11.0042C14.7973 11.0905 13.9943 11.4964 13.4112 12.1428C12.8281 12.7891 12.5067 13.6295 12.5098 14.5C12.5098 14.924 12.5883 15.3443 12.7412 15.7398C12.7611 15.7963 12.7847 15.8514 12.812 15.9048C12.8505 15.981 12.8689 16.0658 12.8653 16.1511C12.8617 16.2364 12.8363 16.3194 12.7916 16.3921C12.7468 16.4648 12.6842 16.5248 12.6096 16.5665C12.5351 16.6081 12.4511 16.6299 12.3658 16.6299Z" fill="currentColor"/>
<path d="M14.2905 16.0151C14.2041 16.0153 14.1191 15.993 14.0439 15.9504C13.9687 15.9079 13.9058 15.8466 13.8613 15.7725C13.631 15.388 13.5095 14.9482 13.5098 14.5C13.5098 13.837 13.7732 13.2011 14.242 12.7322C14.7108 12.2634 15.3467 12 16.0098 12C16.6728 12 17.3087 12.2634 17.7775 12.7322C18.2464 13.2011 18.5098 13.837 18.5098 14.5C18.5105 14.562 18.5076 14.6239 18.501 14.6855C18.4938 14.751 18.4735 14.8143 18.4415 14.8719C18.4094 14.9294 18.3662 14.9799 18.3143 15.0205C18.2625 15.0611 18.203 15.0909 18.1395 15.1081C18.076 15.1254 18.0096 15.1298 17.9443 15.1211C17.8792 15.1132 17.8162 15.0925 17.7591 15.0602C17.7019 15.028 17.6517 14.9847 17.6112 14.933C17.5708 14.8813 17.5409 14.8222 17.5233 14.7589C17.5057 14.6957 17.5008 14.6296 17.5088 14.5645C17.5107 14.544 17.5098 14.5205 17.5098 14.5C17.5093 14.101 17.3508 13.7184 17.0689 13.436C16.7815 13.1653 16.4014 13.015 16.0066 13.0159C15.6118 13.0168 15.2324 13.1689 14.9463 13.4409C14.6669 13.7226 14.51 14.1032 14.5098 14.5C14.5084 14.767 14.5807 15.0292 14.7188 15.2578C14.7643 15.3336 14.7889 15.4202 14.79 15.5086C14.7912 15.5971 14.7688 15.6842 14.7253 15.7612C14.6818 15.8382 14.6186 15.9023 14.5422 15.9469C14.4658 15.9915 14.379 16.0151 14.2905 16.0151Z" fill="currentColor"/>
<path d="M10.6753 17.75C10.5833 17.7501 10.4931 17.7247 10.4145 17.6768C10.3359 17.6289 10.2721 17.5603 10.23 17.4785C9.92601 16.8906 9.71579 16.2588 9.60697 15.6059C9.5416 15.2409 9.50908 14.8708 9.5098 14.5C9.5087 14.1417 9.53794 13.784 9.5972 13.4307C9.84953 11.9113 10.6332 10.5308 11.8084 9.53539C12.9837 8.53993 14.4743 7.99413 16.0145 7.99524C17.5547 7.99635 19.0444 8.54432 20.2183 9.54147C21.3921 10.5386 22.1737 11.9202 22.4239 13.4399C22.4451 13.5709 22.4135 13.7049 22.3359 13.8125C22.2583 13.9201 22.1412 13.9924 22.0103 14.0137C21.8794 14.0349 21.7454 14.0033 21.6378 13.9257C21.5302 13.8481 21.4578 13.731 21.4366 13.6001C21.2242 12.3143 20.5622 11.1457 19.5686 10.3025C18.575 9.45924 17.3142 8.99619 16.011 8.99584C14.7078 8.99549 13.4469 9.45785 12.4528 10.3005C11.4587 11.1432 10.7961 12.3115 10.5831 13.5972C10.5332 13.8955 10.5087 14.1975 10.5098 14.5C10.5093 14.8137 10.5367 15.1267 10.5918 15.4355C10.6838 15.9885 10.8619 16.5237 11.1197 17.0215C11.1588 17.0977 11.1778 17.1827 11.1746 17.2683C11.1715 17.3539 11.1465 17.4373 11.1018 17.5104C11.0572 17.5835 10.9946 17.644 10.9199 17.6859C10.8452 17.7279 10.761 17.7499 10.6753 17.75Z" fill="currentColor"/>
<path d="M10.5 26C10.3145 26 10.1343 25.9946 9.9541 25.978C8.77342 25.8792 7.64224 25.4594 6.68299 24.7639C5.72375 24.0685 4.97298 23.1239 4.51194 22.0325C4.05091 20.9411 3.89717 19.7443 4.06737 18.5718C4.23757 17.3993 4.72522 16.2956 5.47754 15.3803C5.48864 15.3629 5.50087 15.3463 5.51417 15.3305C5.6377 15.186 5.77198 15.0405 5.90625 14.9062C7.01392 13.7928 8.48914 13.1209 10.0562 13.0161C10.1883 13.0075 10.3185 13.0516 10.4182 13.1389C10.5178 13.2261 10.5788 13.3493 10.5877 13.4815C10.5966 13.6136 10.5528 13.7439 10.4657 13.8438C10.3787 13.9436 10.2557 14.0049 10.1235 14.0141C8.79844 14.1027 7.55095 14.6708 6.61426 15.6123C6.50976 15.7168 6.40576 15.8281 6.30908 15.9399C6.2995 15.9545 6.28907 15.9685 6.27783 15.9819C5.63293 16.7543 5.21246 17.689 5.06226 18.6839C4.91206 19.6789 5.03789 20.696 5.42604 21.6244C5.81419 22.5527 6.44976 23.3567 7.26346 23.9487C8.07716 24.5407 9.03776 24.8979 10.0405 24.9814C10.6577 25.0363 11.2797 24.9838 11.8789 24.8261C12.83 24.5819 13.6978 24.0864 14.3916 23.3916C14.7305 23.0537 15.0228 22.6721 15.2607 22.2568C15.2933 22.1998 15.3368 22.1498 15.3887 22.1096C15.4406 22.0694 15.4999 22.0398 15.5633 22.0225C15.6266 22.0053 15.6927 22.0006 15.7579 22.0089C15.823 22.0172 15.8859 22.0382 15.9429 22.0708C15.9999 22.1034 16.0499 22.1468 16.0901 22.1988C16.1303 22.2507 16.1599 22.31 16.1772 22.3733C16.1944 22.4367 16.1991 22.5028 16.1908 22.5679C16.1825 22.633 16.1615 22.6959 16.1289 22.7529C15.847 23.2454 15.5005 23.6979 15.0986 24.0986C14.4948 24.7024 13.7778 25.1811 12.9887 25.5074C12.1996 25.8337 11.3539 26.0011 10.5 26Z" fill="currentColor"/>
<path d="M10.4999 24C10.4339 24 10.3622 23.999 10.2962 23.9927C9.16164 23.9411 8.08856 23.4621 7.29263 22.6519C6.4967 21.8416 6.0369 20.7602 6.00561 19.6248C5.97433 18.4895 6.37387 17.3844 7.12396 16.5315C7.87406 15.6787 8.91913 15.1413 10.0492 15.0273C10.1146 15.0205 10.1808 15.0267 10.2438 15.0455C10.3069 15.0643 10.3656 15.0954 10.4166 15.1369C10.4677 15.1784 10.51 15.2296 10.5412 15.2876C10.5724 15.3455 10.5919 15.409 10.5985 15.4745C10.6051 15.5399 10.5988 15.6061 10.5798 15.6691C10.5608 15.7321 10.5296 15.7907 10.4879 15.8416C10.4462 15.8925 10.3949 15.9347 10.3368 15.9657C10.2788 15.9968 10.2152 16.016 10.1498 16.0225C9.26929 16.1115 8.45533 16.5311 7.87199 17.1965C7.28866 17.862 6.97934 18.7239 7.0064 19.6085C7.03347 20.493 7.39491 21.3344 8.01785 21.963C8.64078 22.5916 9.47888 22.9606 10.3631 22.9956C10.4276 23.0005 10.4652 23 10.4999 23C10.7905 23.0001 11.0799 22.9642 11.3617 22.8931C11.9654 22.7151 12.5198 22.3997 12.9813 21.9717L12.9818 21.9712C13.4108 21.5521 13.7327 21.0359 13.9202 20.4663C14.1077 19.8966 14.1553 19.2902 14.059 18.6982C14.0485 18.6334 14.0509 18.5672 14.0661 18.5033C14.0812 18.4394 14.1088 18.3791 14.1473 18.3259C14.1857 18.2726 14.2343 18.2275 14.2902 18.193C14.3461 18.1586 14.4082 18.1354 14.473 18.125C14.5378 18.1145 14.6041 18.117 14.668 18.1321C14.7319 18.1473 14.7922 18.1748 14.8454 18.2133C14.8986 18.2517 14.9438 18.3003 14.9782 18.3562C15.0127 18.4121 15.0358 18.4742 15.0463 18.5391C15.1682 19.2892 15.1078 20.0577 14.8701 20.7796C14.6324 21.5015 14.2244 22.1556 13.6805 22.6865L13.6747 22.6919C13.088 23.24 12.3796 23.6411 11.6078 23.8623C11.2456 23.9539 10.8734 24.0002 10.4999 24Z" fill="currentColor"/>
<path d="M10.5 22C9.83696 22 9.20107 21.7366 8.73223 21.2677C8.26339 20.7989 8 20.163 8 19.5C8 18.8369 8.26339 18.201 8.73223 17.7322C9.20107 17.2633 9.83696 17 10.5 17C10.5809 16.998 10.6618 17.005 10.7412 17.021C10.8708 17.0492 10.9839 17.1278 11.0556 17.2394C11.1273 17.351 11.1518 17.4865 11.1235 17.6162C11.0953 17.7458 11.0167 17.8589 10.9051 17.9306C10.7935 18.0023 10.658 18.0267 10.5283 17.9985C10.3261 17.9966 10.1255 18.0348 9.93803 18.1107C9.75058 18.1866 9.57998 18.2988 9.43604 18.4409C9.26168 18.6156 9.13311 18.8307 9.06171 19.067C8.99031 19.3033 8.97829 19.5536 9.02671 19.7956C9.07513 20.0377 9.18249 20.2641 9.33929 20.4547C9.49609 20.6454 9.69749 20.7945 9.92565 20.8887C10.1538 20.983 10.4017 21.0195 10.6473 20.995C10.893 20.9706 11.1288 20.886 11.3339 20.7487C11.5391 20.6113 11.7072 20.4255 11.8233 20.2077C11.9395 19.9899 12.0002 19.7468 12 19.5V19.4668C11.9927 19.3655 12.0165 19.2644 12.0682 19.1771C12.1199 19.0897 12.197 19.0202 12.2892 18.9778C12.3814 18.9354 12.4844 18.9221 12.5844 18.9398C12.6843 18.9574 12.7765 19.0052 12.8486 19.0766L12.8535 19.0815C12.9 19.1279 12.9368 19.183 12.9619 19.2437C12.9871 19.3043 13 19.3693 13 19.435V19.5C13.0004 19.8284 12.9359 20.1536 12.8104 20.4571C12.6849 20.7606 12.5008 21.0363 12.2686 21.2685C12.0364 21.5007 11.7606 21.6849 11.4571 21.8104C11.1537 21.9359 10.8284 22.0003 10.5 22ZM16 29.9902C14.8076 29.9895 13.6641 29.5158 12.8205 28.6731C11.9769 27.8304 11.502 26.6875 11.5 25.4951C11.5 25.4218 11.5005 25.3427 11.5063 25.2695C11.5188 25.138 11.5821 25.0165 11.6828 24.931C11.7835 24.8454 11.9136 24.8026 12.0454 24.8115C12.1776 24.8223 12.3001 24.8852 12.386 24.9862C12.4718 25.0873 12.5141 25.2183 12.5034 25.3505C12.4995 25.3974 12.5 25.4482 12.5 25.4951C12.5017 26.4223 12.8712 27.3111 13.5273 27.9663C14.1835 28.6215 15.0727 28.9898 16 28.9902C16.758 28.992 17.4954 28.7431 18.0972 28.2822C18.2325 28.185 18.3598 28.0773 18.478 27.9599C19.1289 27.3046 19.4944 26.4187 19.4951 25.4951C19.4967 25.0351 19.407 24.5794 19.2314 24.1543C19.0557 23.7292 18.7975 23.3432 18.4717 23.0185C18.3272 22.8743 18.1702 22.7432 18.0024 22.6269C17.9483 22.5898 17.902 22.5424 17.8663 22.4874C17.8305 22.4323 17.8059 22.3708 17.7938 22.3063C17.7818 22.2418 17.7826 22.1755 17.7962 22.1113C17.8098 22.0471 17.8359 21.9862 17.873 21.9321C17.9102 21.878 17.9576 21.8317 18.0126 21.7959C18.0676 21.7601 18.1291 21.7355 18.1937 21.7235C18.2582 21.7115 18.3244 21.7123 18.3886 21.7259C18.4528 21.7395 18.5138 21.7656 18.5679 21.8027C18.7865 21.9534 18.9909 22.1237 19.1787 22.3115C19.5977 22.7288 19.9298 23.225 20.1557 23.7715C20.3817 24.3179 20.497 24.9038 20.4951 25.4951C20.4941 26.6869 20.0207 27.8298 19.1787 28.6733C19.0259 28.8249 18.8614 28.9642 18.6865 29.0898C17.9144 29.6772 16.9702 29.9937 16 29.9902Z" fill="currentColor"/>
<path d="M15.9951 27.9951C15.3752 27.9955 14.7773 27.7655 14.3174 27.3498C13.8575 26.9342 13.5684 26.3625 13.5063 25.7458C13.4441 25.129 13.6133 24.5112 13.9809 24.0121C14.3486 23.513 14.8886 23.1684 15.4961 23.045C15.5604 23.0319 15.6267 23.0317 15.6912 23.0443C15.7557 23.057 15.817 23.0821 15.8717 23.1185C15.9265 23.1548 15.9735 23.2015 16.0102 23.256C16.0468 23.3105 16.0724 23.3717 16.0854 23.4361C16.0984 23.5004 16.0986 23.5668 16.086 23.6312C16.0734 23.6957 16.0482 23.757 16.0119 23.8117C15.9756 23.8665 15.9288 23.9135 15.8744 23.9502C15.8199 23.9868 15.7587 24.0124 15.6943 24.0254C15.3677 24.0928 15.0728 24.2673 14.8566 24.5211C14.6403 24.775 14.5149 25.0938 14.5003 25.427C14.4857 25.7602 14.5826 26.0887 14.7759 26.3606C14.9691 26.6324 15.2475 26.832 15.5669 26.9277C15.8864 27.0234 16.2287 27.0098 16.5396 26.889C16.8504 26.7682 17.1121 26.5472 17.2831 26.2608C17.4541 25.9745 17.5247 25.6393 17.4837 25.3083C17.4427 24.9773 17.2924 24.6695 17.0566 24.4336C17.0009 24.3796 16.9415 24.3295 16.8789 24.2837C16.7732 24.2038 16.7036 24.0851 16.6854 23.9539C16.6671 23.8227 16.7017 23.6896 16.7816 23.5838C16.8614 23.4781 16.98 23.4084 17.1112 23.39C17.2424 23.3716 17.3756 23.4061 17.4814 23.4859C17.5809 23.5596 17.6752 23.64 17.7636 23.7266C18.1137 24.0762 18.3522 24.5218 18.4488 25.007C18.5455 25.4922 18.496 25.9952 18.3066 26.4522C18.1173 26.9093 17.7965 27.2999 17.385 27.5745C16.9735 27.8492 16.4898 27.9956 15.9951 27.9951Z" fill="currentColor"/>
<path d="M16 32C14.2767 31.998 12.6246 31.3126 11.406 30.094C10.1875 28.8755 9.50199 27.2233 9.5 25.5C9.49954 25.3663 9.55175 25.2378 9.64532 25.1423C9.7389 25.0468 9.86632 24.992 10 24.9898C10.0652 24.9886 10.1299 25.0005 10.1904 25.0246C10.2509 25.0487 10.3061 25.0846 10.3526 25.1302C10.3991 25.1759 10.4361 25.2303 10.4614 25.2903C10.4867 25.3504 10.4998 25.4149 10.5 25.48C10.4967 26.2036 10.6362 26.9206 10.9105 27.5902C11.1848 28.2597 11.5885 28.8686 12.0985 29.3818C12.6084 29.8951 13.2147 30.3027 13.8825 30.5813C14.5502 30.8598 15.2664 31.0039 15.99 31.0052C16.7135 31.0065 17.4302 30.8651 18.099 30.5889C18.7678 30.3128 19.3755 29.9074 19.8874 29.396C20.3992 28.8846 20.8051 28.2772 21.0819 27.6087C21.3586 26.9401 21.5007 26.2236 21.5 25.5C21.5012 24.5294 21.2453 23.5757 20.7584 22.736C20.2714 21.8964 19.5707 21.2007 18.7275 20.7197C18.6705 20.6872 18.6204 20.6438 18.5801 20.5919C18.5398 20.5401 18.5101 20.4807 18.4928 20.4174C18.4754 20.3541 18.4707 20.2879 18.4789 20.2228C18.4871 20.1576 18.508 20.0947 18.5405 20.0376C18.573 19.9805 18.6165 19.9304 18.6683 19.8902C18.7202 19.8499 18.7795 19.8202 18.8429 19.8028C18.9062 19.7855 18.9723 19.7807 19.0375 19.7889C19.1027 19.7971 19.1656 19.8181 19.2227 19.8506C19.7262 20.1378 20.189 20.4912 20.5987 20.9014C21.8101 22.1181 22.4932 23.7631 22.5 25.48C22.5037 26.3356 22.3383 27.1835 22.0132 27.9749C21.6881 28.7663 21.2098 29.4856 20.6057 30.0916C20.0017 30.6975 19.2838 31.178 18.4934 31.5055C17.7029 31.8331 16.8556 32.0011 16 32Z" fill="currentColor"/>
<path d="M18.8394 21.5H16.4536C16.321 21.5 16.1938 21.4473 16.1001 21.3536C16.0063 21.2598 15.9536 21.1326 15.9536 21C15.9536 20.8674 16.0063 20.7402 16.1001 20.6464C16.1938 20.5527 16.321 20.5 16.4536 20.5H18.8394C18.972 20.5 19.0991 20.5527 19.1929 20.6464C19.2867 20.7402 19.3394 20.8674 19.3394 21C19.3394 21.1326 19.2867 21.2598 19.1929 21.3536C19.0991 21.4473 18.972 21.5 18.8394 21.5Z" fill="currentColor"/>
<path d="M16.4152 25.5C16.3005 25.4999 16.1893 25.4604 16.1002 25.3881C15.6297 24.9995 15.2963 24.4701 15.1491 23.8779C15.1267 23.7864 15.1102 23.6936 15.0997 23.6001C15.0416 23.1777 15.0833 22.7476 15.2213 22.3442C15.2647 22.2069 15.3191 22.0733 15.3839 21.9448L15.8991 21.02C15.9326 20.9621 15.9601 20.9009 15.9811 20.8373C16.0439 20.6626 16.0682 20.4763 16.0525 20.2912C16.0367 20.1062 15.9812 19.9267 15.8898 19.7651C15.8375 19.6673 15.771 19.5778 15.6925 19.4994C15.6384 19.4424 15.579 19.3906 15.5153 19.3447C15.3352 19.2186 15.1264 19.1397 14.908 19.1149C14.6896 19.0902 14.4685 19.1205 14.2648 19.2031C14.1957 19.2293 14.1293 19.2622 14.0665 19.3012L12.922 20.0215C12.8261 20.08 12.7134 20.1047 12.6018 20.0915C12.4902 20.0783 12.3863 20.028 12.3068 19.9487L12.2467 19.8877C12.2184 19.8584 12.1906 19.8291 12.1588 19.7998C12.1451 19.7873 12.132 19.7741 12.1198 19.7602C12.0563 19.688 11.9889 19.6162 11.9215 19.5483L11.8073 19.4311C11.4855 19.1006 11.1671 18.7734 10.8444 18.4463C10.8301 18.4318 10.8168 18.4164 10.8043 18.4004L10.1466 17.7236C10.0947 17.6717 10.0548 17.6091 10.0298 17.5401C10.0049 17.471 9.99538 17.3974 10.0021 17.3243C10.0088 17.2512 10.0315 17.1805 10.0687 17.1172C10.1058 17.0539 10.1564 16.9995 10.2169 16.958L10.3917 16.8378L11.9127 15.8242C11.9645 15.7861 12.0387 15.7417 12.1129 15.6982C12.8281 15.2707 13.6402 15.032 14.4729 15.0043C15.3056 14.9766 16.1317 15.161 16.8737 15.54C17.1048 15.6575 17.325 15.7953 17.5319 15.9516C17.9334 16.2443 18.2855 16.5994 18.5749 17.0034C19.1482 17.7862 19.4693 18.7252 19.4953 19.6952C19.5068 19.9138 19.4987 20.133 19.4709 20.35C19.4475 20.6088 19.3991 20.8648 19.3263 21.1142C19.1951 21.5938 18.9904 22.0503 18.7194 22.4672C18.713 22.4765 18.7067 22.4857 18.6999 22.4945L18.6959 22.5004C18.4899 22.8129 18.2863 23.1254 18.0817 23.4399L17.591 24.1703L16.8273 25.2827C16.7883 25.3396 16.738 25.3879 16.6794 25.4244C16.6208 25.4609 16.5553 25.4848 16.4869 25.4946C16.4632 25.4981 16.4392 25.4999 16.4152 25.5ZM14.754 18.1084C15.238 18.1079 15.7102 18.2579 16.1051 18.5376C16.2151 18.6171 16.3176 18.7065 16.4113 18.8046C16.5495 18.9432 16.6671 19.1009 16.7604 19.2729C16.979 19.6451 17.0813 20.0741 17.0543 20.5048C17.0472 20.7254 17.0052 20.9434 16.9298 21.1508C16.8904 21.2746 16.8379 21.3937 16.7731 21.5063L16.2672 22.413C16.2295 22.4913 16.1977 22.5723 16.172 22.6552C16.0806 22.9146 16.0527 23.192 16.0905 23.4643C16.0963 23.5212 16.1058 23.5776 16.1188 23.6333C16.1672 23.8329 16.2491 24.0229 16.361 24.1953L17.2438 22.8945C17.4518 22.5751 17.6583 22.2573 17.8678 21.9394C17.8741 21.9301 17.8805 21.9213 17.8873 21.9121C18.0993 21.5838 18.2595 21.225 18.3624 20.8481L18.3639 20.8432C18.421 20.6472 18.459 20.446 18.4772 20.2426C18.4987 20.0746 18.5049 19.9049 18.4957 19.7358C18.4764 18.9611 18.2205 18.2109 17.7623 17.5859C17.6634 17.4483 17.5553 17.3176 17.4386 17.1948C17.2846 17.0328 17.1161 16.8852 16.9352 16.7539C16.7725 16.6306 16.5991 16.5223 16.4171 16.4301C15.7737 16.1002 15.051 15.9559 14.3302 16.0136C13.7266 16.056 13.1419 16.2424 12.6251 16.5571C12.5719 16.5883 12.526 16.6142 12.4835 16.645L11.275 17.4506L11.5485 17.7314C11.5607 17.7441 11.5724 17.7578 11.5836 17.7719C11.8986 18.0913 12.2096 18.4111 12.5241 18.7338L12.6334 18.8461C12.6681 18.8808 12.7037 18.9179 12.7394 18.9555L13.5236 18.4619C13.6375 18.3896 13.758 18.3281 13.8834 18.2783C14.1599 18.1657 14.4556 18.108 14.754 18.1084Z" fill="currentColor"/>
<path d="M14.0733 19.2408C13.9541 19.2406 13.8388 19.1978 13.7483 19.1202C13.6578 19.0426 13.598 18.9352 13.5796 18.8174L13.0953 15.7046C13.0852 15.6397 13.088 15.5735 13.1035 15.5097C13.1191 15.4459 13.147 15.3858 13.1858 15.3328C13.2246 15.2798 13.2734 15.2349 13.3295 15.2008C13.3856 15.1667 13.4479 15.1439 13.5127 15.1338C13.5776 15.1238 13.6439 15.1266 13.7077 15.1421C13.7715 15.1577 13.8316 15.1856 13.8846 15.2244C13.9376 15.2631 13.9825 15.312 14.0166 15.3681C14.0507 15.4242 14.0735 15.4864 14.0835 15.5513L14.5679 18.6641C14.5882 18.7952 14.5556 18.9289 14.4773 19.0359C14.399 19.143 14.2815 19.2145 14.1504 19.2349C14.1249 19.2388 14.0991 19.2407 14.0733 19.2408ZM15.8101 19.4527C15.7234 19.4527 15.6381 19.4301 15.5627 19.3871C15.4873 19.3442 15.4244 19.2823 15.3802 19.2077C15.3359 19.1331 15.3119 19.0482 15.3104 18.9615C15.3089 18.8747 15.33 18.7891 15.3716 18.7129L16.7911 16.1119C16.8225 16.0542 16.8651 16.0033 16.9162 15.9621C16.9674 15.9209 17.0261 15.8902 17.0891 15.8717C17.1522 15.8532 17.2182 15.8473 17.2835 15.8543C17.3488 15.8613 17.4121 15.8812 17.4698 15.9127C17.5274 15.9441 17.5783 15.9867 17.6195 16.0378C17.6607 16.089 17.6914 16.1477 17.7099 16.2107C17.7284 16.2738 17.7343 16.3398 17.7273 16.4051C17.7203 16.4704 17.7005 16.5337 17.669 16.5914L16.2496 19.1924C16.2064 19.2713 16.1429 19.3371 16.0656 19.3829C15.9882 19.4287 15.9 19.4528 15.8101 19.4527Z" fill="currentColor"/>
</g>
<defs>
<clipPath id="clip0_5716_4085">
<rect width="32" height="32" fill="white" transform="translate(0 4)"/>
</clipPath>
</defs>
</svg>
