<svg xmlns="http://www.w3.org/2000/svg" width="32" height="40" fill="none" class="iconPrimary" viewBox="0 0 32 40">
    <path fill="currentColor" d="M.8 23.642C.8 32.11 7.617 39 16 39a15.054 15.054 0 0 0 5.818-1.166 15.179 15.179 0 0 0 4.933-3.33 15.358 15.358 0 0 0 3.294-4.983 15.487 15.487 0 0 0 1.155-5.879.64.64 0 0 0-.185-.45.627.627 0 0 0-.445-.186H1.43a.627.627 0 0 0-.446.186.64.64 0 0 0-.184.45Zm29.126.637c-.042.955-.18 1.903-.413 2.83H2.488a14.125 14.125 0 0 1-.414-2.83h27.852ZM2.63 27.633h26.742a14.086 14.086 0 0 1-5.025 7.292A13.845 13.845 0 0 1 16 37.727c-6.316 0-11.664-4.265-13.37-10.094Z"/>
    <path fill="currentColor" d="M20.382 34.905a10.225 10.225 0 0 0 3.695-2.742.259.259 0 0 1 .456.152.264.264 0 0 1-.063.19 10.766 10.766 0 0 1-3.887 2.882.26.26 0 0 1-.332-.363.26.26 0 0 1 .128-.12h.003ZM28.839 9.247c1.219-1.3.907-3.219.893-3.294a.64.64 0 0 0-.408-.49.624.624 0 0 0-.623.116l-2.765 2.396.838-4.198a.642.642 0 0 0-.212-.613.627.627 0 0 0-.634-.106c-.083.032-2.048.824-2.594 2.717-.25.864-.164 1.792.254 2.77a3.537 3.537 0 0 0-1.613.119c-.91.3-1.606.991-2.07 2.054a8.626 8.626 0 0 0-.36 1.021c0 .008-.004.016-.006.024-.693 2.39-1.091 6.4-1.016 8.509.011.347.12.683.312.97.192.287.461.513.776.652a1.805 1.805 0 0 0 1.918-.28c.957-.819 2.27-2.196 3.428-3.593.897-1.084 1.635-2.097 2.132-2.928.185-.303.35-.618.496-.943.465-1.062.501-2.047.108-2.928a3.422 3.422 0 0 0-.675-.985c.747-.165 1.356-.494 1.82-.99Zm-4.195.973.019.01.022.011.02.01h.006l.014.005.025.01.014.005c.025.009 1.333.454 1.785 1.479.24.544.203 1.161-.114 1.886a6.378 6.378 0 0 1-.308.599l-1.049-.566a.258.258 0 0 0-.387.204.263.263 0 0 0 .143.258l1.023.552a24.908 24.908 0 0 1-1.803 2.442l-2.016-.938a.257.257 0 0 0-.345.129.265.265 0 0 0 .127.347l1.887.882c-1.037 1.226-2.162 2.391-2.99 3.1a.565.565 0 0 1-.936-.417c-.069-1.915.272-5.475.876-7.774l2.011.913a.254.254 0 0 0 .27-.035.263.263 0 0 0-.057-.443l-2.08-.944c.071-.24.157-.477.255-.708.317-.725.74-1.168 1.302-1.355 1.06-.357 2.273.327 2.286.335v.003Zm.598-5.203-.57 2.855c-.236-.63-.281-1.208-.133-1.729.132-.432.375-.822.703-1.13v.004Zm3.152 2.506c-.089.32-.252.612-.475.855-.297.316-.71.526-1.24.63l1.715-1.485ZM12.205 12.35c-.931-2.32-3.043-3.849-5.195-3.849h-.06a1.67 1.67 0 0 0-.022-.054c-.423-1.046-1.7-1.513-2.852-1.042-.53.212-.969.608-1.235 1.117a1.952 1.952 0 0 0-.094 1.636c.086.216.212.414.37.583-.925 1.536-1.058 3.607-.317 5.46.932 2.321 3.015 3.846 5.178 3.85.337.56.969.883 1.652.883.29 0 .576-.057.845-.168 1.058-.433 1.604-1.572 1.217-2.534l-.034-.078c1.135-1.563 1.357-3.783.547-5.804Zm-1.797 5.34a.638.638 0 0 0 .017.873.454.454 0 0 1 .098.15c.123.307-.116.708-.519.875-.403.167-.856.047-.98-.261a.53.53 0 0 1-.02-.071.636.636 0 0 0-.246-.377.624.624 0 0 0-.431-.117c-1.779.182-3.567-1.067-4.357-3.037-.666-1.659-.465-3.512.51-4.722a.638.638 0 0 0-.221-.979.656.656 0 0 1-.341-.343.704.704 0 0 1 .046-.574c.128-.24.337-.426.589-.524.5-.205 1.053-.05 1.21.34a.61.61 0 0 1 .04.24.641.641 0 0 0 .213.494.627.627 0 0 0 .51.152c.165-.026.33-.038.496-.038 1.646 0 3.281 1.216 4.02 3.055.696 1.748.448 3.657-.634 4.864Z"/>
    <path fill="currentColor" d="M9.617 16.859a.251.251 0 0 1-.274-.03.263.263 0 0 1 .047-.44c.35-.175.618-.484.744-.858s.1-.783-.072-1.138a.265.265 0 0 1 .12-.347.257.257 0 0 1 .346.118 2.032 2.032 0 0 1-.297 2.218c-.174.199-.384.36-.62.477h.006ZM15.406 20.819c0 .24.07.473.202.672a1.186 1.186 0 0 0 1.842.184 1.214 1.214 0 0 0 .258-1.318 1.206 1.206 0 0 0-.44-.543 1.188 1.188 0 0 0-1.51.151c-.225.227-.351.534-.352.854Zm.519 0a.69.69 0 0 1 .419-.633.672.672 0 0 1 .739.149.687.687 0 0 1-.48 1.17.675.675 0 0 1-.48-.202.689.689 0 0 1-.198-.484ZM10.572 5.417c0-.28-.082-.552-.236-.784a1.384 1.384 0 0 0-2.15-.215 1.417 1.417 0 0 0-.303 1.538c.105.258.284.479.514.634a1.387 1.387 0 0 0 1.764-.174 1.42 1.42 0 0 0 .41-.999Zm-.519 0a.895.895 0 0 1-.542.82.87.87 0 0 1-.957-.19.89.89 0 0 1-.192-.968.886.886 0 0 1 .81-.55c.234 0 .458.094.623.26a.893.893 0 0 1 .258.628ZM30.757 17.1c0-.3-.088-.595-.253-.846a1.51 1.51 0 0 0-.677-.561 1.492 1.492 0 0 0-1.643.33 1.528 1.528 0 0 0-.326 1.66c.115.28.308.517.556.684a1.496 1.496 0 0 0 1.902-.191c.282-.286.44-.672.441-1.075Zm-.518 0c0 .198-.058.391-.167.556a.99.99 0 0 1-1.015.424 1 1 0 0 1-.719-1.363.982.982 0 0 1 1.612-.321c.185.187.288.44.289.705ZM2.687 20.299a.854.854 0 0 0 .517.784.831.831 0 0 0 .915-.183.851.851 0 0 0-.593-1.449.836.836 0 0 0-.593.249.854.854 0 0 0-.246.599Zm.518 0a.327.327 0 0 1 .198-.3.317.317 0 0 1 .35.07.325.325 0 0 1-.227.554.32.32 0 0 1-.227-.095.326.326 0 0 1-.094-.23ZM21.797 3.456a.854.854 0 0 0-.518-.784.832.832 0 0 0-.915.184.85.85 0 0 0-.182.925.846.846 0 0 0 .776.523c.223 0 .436-.09.593-.25a.853.853 0 0 0 .246-.598Zm-.518 0a.326.326 0 0 1-.199.3.318.318 0 0 1-.35-.071.326.326 0 0 1 .228-.554.32.32 0 0 1 .227.096c.06.06.094.143.094.229ZM16.776 12.695c1.14-1.523 2.384-3.863 1.807-6.356-.479-2.084-2.14-3.857-4.934-5.272a.625.625 0 0 0-.852.3c-.815 1.752-1.534 3.483-1.334 5.404.227 2.2 1.651 4.22 4.354 6.18a.618.618 0 0 0 .169.086c-.09 1.39-.363 2.581-.797 3.472a.263.263 0 0 0 .233.378.257.257 0 0 0 .232-.146c.474-.973.767-2.263.856-3.763a.625.625 0 0 0 .172-.155c.031-.04.064-.083.096-.127l-.002-.001Zm-.277-1.866c-.116-1.818-.499-3.615-1.066-4.922a.263.263 0 0 0-.143-.142.257.257 0 0 0-.339.15.263.263 0 0 0 .007.203c.612 1.41 1 3.418 1.054 5.39-2.045-1.599-3.125-3.195-3.298-4.87-.143-1.392.333-2.751.946-4.126 2.095 1.173 3.338 2.555 3.698 4.117.348 1.508-.167 2.998-.859 4.2Z"/>
</svg>
