<svg xmlns="http://www.w3.org/2000/svg" width="32" height="40" fill="none" class="iconPrimary" viewBox="0 0 32 40">
    <path fill="currentColor" d="M12.775 4.692a6.066 6.066 0 0 0-2.129-.33 5.981 5.981 0 0 0-2.102.424 4.917 4.917 0 0 0-1.706 1.11 3.612 3.612 0 0 0-.927 1.582c-.047.172-.08.352-.112.534a.349.349 0 0 0 .017.172c.02.055.053.107.099.153a.545.545 0 0 0 .166.112.67.67 0 0 0 .274.052.654.654 0 0 0 .37-.109.422.422 0 0 0 .185-.273c.023-.155.055-.309.096-.456.12-.447.366-.867.72-1.23a3.818 3.818 0 0 1 1.326-.862 4.617 4.617 0 0 1 1.624-.33 4.683 4.683 0 0 1 1.829.323.702.702 0 0 0 .41.003.53.53 0 0 0 .303-.22.355.355 0 0 0 .03-.322.48.48 0 0 0-.259-.251 5.724 5.724 0 0 0-.214-.082ZM26.557 7.475a3.614 3.614 0 0 0-.928-1.58 4.919 4.919 0 0 0-1.706-1.108 5.956 5.956 0 0 0-1.886-.416 6.154 6.154 0 0 0-1.944.198C19.629 3.475 18.444 2 16.234 2c-1.206 0-2.249.439-3.017 1.27a.37.37 0 0 0-.1.328.44.44 0 0 0 .224.287.68.68 0 0 0 .416.078.597.597 0 0 0 .365-.176c.556-.602 1.267-.908 2.112-.908 2.307 0 2.913 2.278 2.937 2.374a.402.402 0 0 0 .103.182.55.55 0 0 0 .195.127.686.686 0 0 0 .494.002c.063-.023.124-.046.185-.067a4.682 4.682 0 0 1 1.645-.256c.565.013 1.12.126 1.623.33.518.205.971.5 1.325.86.355.362.601.781.722 1.228.04.149.073.304.096.46a.419.419 0 0 0 .183.277.653.653 0 0 0 .372.112.585.585 0 0 0 .44-.165.414.414 0 0 0 .099-.153.35.35 0 0 0 .017-.172 4.65 4.65 0 0 0-.113-.543ZM10.928 8.596a5.374 5.374 0 0 0-1.758.517.486.486 0 0 0-.231.216.352.352 0 0 0-.017.283.456.456 0 0 0 .206.231c.099.058.219.088.342.086a.662.662 0 0 0 .303-.073 4.07 4.07 0 0 1 1.329-.391.67.67 0 0 0 .211-.055.541.541 0 0 0 .168-.116.41.41 0 0 0 .097-.157.348.348 0 0 0 .01-.175.385.385 0 0 0-.076-.165.506.506 0 0 0-.153-.127.643.643 0 0 0-.204-.071.708.708 0 0 0-.222-.003h-.005ZM22.584 9.856c.125.06.275.079.418.053a.574.574 0 0 0 .345-.193.363.363 0 0 0 .074-.328.454.454 0 0 0-.24-.275 5.324 5.324 0 0 0-1.527-.49.709.709 0 0 0-.42.064.519.519 0 0 0-.156.12.396.396 0 0 0-.084.159.347.347 0 0 0-.002.171c.014.057.042.11.082.16.04.047.092.089.153.121.061.033.13.056.201.067.41.068.802.194 1.156.371ZM19.685 10.453a.451.451 0 0 0 .2.235.665.665 0 0 0 .488.075.628.628 0 0 0 .195-.077.489.489 0 0 0 .143-.13.377.377 0 0 0 .069-.163.348.348 0 0 0-.017-.171c-.267-.762-.839-1.436-1.63-1.924-.79-.487-1.759-.763-2.763-.785-1.005-.023-1.992.208-2.817.659-.826.45-1.445 1.098-1.768 1.846a.356.356 0 0 0 .015.345.466.466 0 0 0 .133.14c.056.04.122.07.194.09a.7.7 0 0 0 .437-.027.554.554 0 0 0 .174-.11.418.418 0 0 0 .105-.156c.246-.57.719-1.063 1.348-1.406a4.306 4.306 0 0 1 2.146-.502 4.22 4.22 0 0 1 2.106.599c.603.371 1.038.885 1.242 1.465v-.003ZM27 9.716h-.092c-3.725 0-7.296 1.682-9.797 4.616a.366.366 0 0 0-.084.331c.03.115.116.216.24.28a.688.688 0 0 0 .42.066.585.585 0 0 0 .358-.188c2.178-2.56 5.224-4.079 8.404-4.216V37.11c-3.193-.13-6.146-1.598-8.36-4.167a.495.495 0 0 0-.15-.135.635.635 0 0 0-.208-.076.71.71 0 0 0-.44.063.515.515 0 0 0-.16.129.389.389 0 0 0-.08.168.348.348 0 0 0 .011.18c.02.058.054.112.102.16a13.215 13.215 0 0 0 5.158 3.683H14.82a.645.645 0 0 0-.395.13.399.399 0 0 0-.164.31c0 .117.059.229.164.311a.644.644 0 0 0 .395.129h12.182c.148 0 .29-.046.395-.129a.399.399 0 0 0 .164-.31V10.157a.36.36 0 0 0-.042-.169.448.448 0 0 0-.12-.143.588.588 0 0 0-.183-.096.693.693 0 0 0-.214-.034Z"/>
    <path fill="currentColor" d="M5.092 10.158c0 .117.06.229.164.311a.645.645 0 0 0 .396.129c4.21 0 8.189 2.456 10.38 6.41a.487.487 0 0 0 .206.193.673.673 0 0 0 .53.034.58.58 0 0 0 .179-.097.445.445 0 0 0 .118-.144.357.357 0 0 0-.008-.337c-1.141-2.063-2.77-3.793-4.706-5.005a12.614 12.614 0 0 0-6.7-1.936.693.693 0 0 0-.214.034.587.587 0 0 0-.182.096.449.449 0 0 0-.121.143.36.36 0 0 0-.042.17ZM17.166 18.08a.62.62 0 0 0-.192.082.48.48 0 0 0-.137.134.351.351 0 0 0-.04.335c.041.104.082.21.12.315a.454.454 0 0 0 .201.23.664.664 0 0 0 .491.071.622.622 0 0 0 .194-.078.487.487 0 0 0 .141-.131.377.377 0 0 0 .066-.164.35.35 0 0 0-.018-.17 12.2 12.2 0 0 0-.127-.334.484.484 0 0 0-.273-.258.698.698 0 0 0-.426-.031ZM5 37.56c0 .117.059.229.164.311a.644.644 0 0 0 .395.129h.093c7.304 0 13.245-6.344 13.245-14.142 0-1.02-.101-2.037-.305-3.044a.39.39 0 0 0-.077-.161.504.504 0 0 0-.148-.126.706.706 0 0 0-.621-.018.53.53 0 0 0-.16.117.403.403 0 0 0-.091.156.35.35 0 0 0-.008.172c.196.96.293 1.932.292 2.904 0 7.142-5.187 12.984-11.66 13.253V11.84a.399.399 0 0 0-.163-.31.644.644 0 0 0-.396-.13.644.644 0 0 0-.395.13.399.399 0 0 0-.164.31L5 37.561Z"/>
    <path fill="currentColor" d="M10.023 16.724h.219c.148 0 .29-.046.395-.129a.399.399 0 0 0 .164-.31.399.399 0 0 0-.164-.312.644.644 0 0 0-.396-.128h-.218a.644.644 0 0 0-.396.128.399.399 0 0 0-.164.311c0 .117.06.229.164.311a.645.645 0 0 0 .396.13ZM14.135 17.955a.398.398 0 0 0-.164-.31.644.644 0 0 0-.395-.13h-.219a.644.644 0 0 0-.395.13.399.399 0 0 0-.164.31c0 .117.059.229.164.311a.644.644 0 0 0 .395.129h.219c.148 0 .29-.046.395-.129a.398.398 0 0 0 .164-.31ZM11.262 19.442a.398.398 0 0 0-.163-.31.643.643 0 0 0-.392-.13h-.224a.644.644 0 0 0-.395.13.398.398 0 0 0-.164.31c0 .117.06.229.164.311a.645.645 0 0 0 .396.13h.223a.642.642 0 0 0 .392-.13.398.398 0 0 0 .163-.31ZM12.862 26.988h-.219a.644.644 0 0 0-.395.129.399.399 0 0 0-.164.31c0 .117.059.23.164.312a.645.645 0 0 0 .395.128h.22c.147 0 .29-.046.395-.128a.399.399 0 0 0 .163-.311.399.399 0 0 0-.163-.311.644.644 0 0 0-.396-.13ZM9.921 30.204h.219c.148 0 .29-.046.395-.129a.398.398 0 0 0 .164-.31.398.398 0 0 0-.164-.312.644.644 0 0 0-.395-.128h-.219a.644.644 0 0 0-.395.128.398.398 0 0 0-.164.311c0 .117.059.229.164.311a.644.644 0 0 0 .395.129ZM20.722 15.752h-.22a.644.644 0 0 0-.396.128.398.398 0 0 0-.164.311c0 .117.06.229.164.311a.645.645 0 0 0 .396.129h.22c.148 0 .29-.046.395-.129a.399.399 0 0 0 .164-.31.398.398 0 0 0-.164-.312.644.644 0 0 0-.395-.128ZM23.428 13.73h-.22a.644.644 0 0 0-.395.13.399.399 0 0 0-.164.31c0 .117.06.229.164.311a.645.645 0 0 0 .396.13h.219c.148 0 .29-.047.395-.13a.399.399 0 0 0 .164-.31.399.399 0 0 0-.164-.311.644.644 0 0 0-.395-.13ZM22.255 30.683c0 .058.014.115.042.169a.447.447 0 0 0 .12.143.588.588 0 0 0 .182.096.694.694 0 0 0 .215.034h.219c.148 0 .29-.046.395-.129a.399.399 0 0 0 .164-.31.399.399 0 0 0-.163-.312.644.644 0 0 0-.396-.128h-.219a.645.645 0 0 0-.394.128.4.4 0 0 0-.165.309ZM20.53 28.203c0 .117.059.229.164.312a.645.645 0 0 0 .395.128h.22c.148 0 .29-.046.395-.128a.399.399 0 0 0 .164-.312.399.399 0 0 0-.164-.31.644.644 0 0 0-.395-.13h-.22a.645.645 0 0 0-.395.13.4.4 0 0 0-.164.31ZM23.468 26.742c0 .116.059.228.164.31a.644.644 0 0 0 .395.13h.219a.693.693 0 0 0 .214-.034.586.586 0 0 0 .181-.096.449.449 0 0 0 .122-.142.36.36 0 0 0 0-.337.449.449 0 0 0-.122-.142.585.585 0 0 0-.181-.096.693.693 0 0 0-.214-.033h-.219a.644.644 0 0 0-.395.129.398.398 0 0 0-.164.31ZM12.504 38c.148 0 .29-.046.395-.129a.399.399 0 0 0 .164-.31.399.399 0 0 0-.164-.312.644.644 0 0 0-.395-.128h-.408a.644.644 0 0 0-.396.128.399.399 0 0 0-.163.311c0 .117.058.229.163.311a.645.645 0 0 0 .396.13h.408Z"/>
</svg>
