<svg xmlns="http://www.w3.org/2000/svg" width="32" height="40" fill="none" class="iconPrimary" viewBox="0 0 32 40">
    <path fill="currentColor" d="M11.51 28.232c-6.081 0-10.875-2.63-11.237-6.107v-.382c0-3.478 4.712-6.234 11.238-6.489 11.439-.466 17.923.976 19.696 4.41 0 0 .04.043.04.086a4.15 4.15 0 0 1 .483 1.993c0 3.096-3.383 3.35-6.968 3.563-1.168.084-2.336.17-3.544.296-1.571.213-2.74.721-3.988 1.23-1.611.679-3.263 1.4-5.72 1.4ZM1.482 21.955c.282 2.757 4.753 4.962 10.03 4.962 2.215 0 3.705-.636 5.236-1.315 1.248-.55 2.537-1.102 4.27-1.314 1.248-.17 2.456-.255 3.624-.34 3.746-.254 5.84-.466 5.84-2.29 0-.509-.08-.933-.281-1.357l-.04-.042c-1.048-2.036-5.116-4.369-18.65-3.775-5.638.212-10.069 2.545-10.069 5.217 0 .084 0 .17.04.254ZM11.511 34C5.187 34 .233 31.158.233 27.511c0-.297-.04-.72-.08-1.188-.122-1.187-.323-2.841.12-4.453.08-.297.362-.466.644-.466a.657.657 0 0 1 .564.551c.242 2.757 4.753 4.962 10.03 4.962 2.215 0 3.705-.636 5.236-1.315 1.248-.55 2.537-1.102 4.27-1.314 1.248-.17 2.456-.255 3.624-.34 3.746-.254 5.84-.466 5.84-2.29 0-.509-.12-.975-.322-1.4-.12-.254-.08-.593.121-.763a.59.59 0 0 1 .725-.085c1.249.849 1.088 3.52.765 6.617-.04.593-.12 1.102-.12 1.4 0 3.095-3.384 3.35-6.968 3.562-1.168.085-2.337.17-3.545.297-1.57.212-2.739.72-3.988 1.23-1.53.763-3.182 1.484-5.638 1.484ZM1.199 24.415c0 .594.08 1.188.121 1.739.04.509.121.975.121 1.357 0 2.842 4.592 5.217 10.07 5.217 2.215 0 3.705-.636 5.236-1.315 1.248-.551 2.537-1.103 4.27-1.315 1.248-.17 2.456-.254 3.624-.34 3.746-.254 5.84-.466 5.84-2.29 0-.339.04-.848.121-1.526.04-.467.121-1.273.162-2.078-1.25 1.06-3.585 1.23-6.042 1.4-1.168.084-2.336.169-3.545.296-1.57.212-2.739.721-3.987 1.23-1.571.679-3.223 1.4-5.68 1.4-4.631.042-8.538-1.527-10.31-3.775Zm9.023 0c-2.699 0-4.713-1.188-4.713-2.714 0-1.527 2.014-2.715 4.713-2.715 2.698 0 4.712 1.188 4.712 2.715 0 1.526-2.054 2.714-4.712 2.714Zm0-4.199c-2.135 0-3.505.848-3.505 1.442s1.37 1.442 3.505 1.442c2.134 0 3.504-.848 3.504-1.442s-1.37-1.442-3.504-1.442Zm14.742 1.315a.682.682 0 0 0 .08-.89c-2.014-2.588-6.807-2.46-7.008-2.46a.578.578 0 0 0-.564.636c0 .339.282.636.604.593.04 0 4.43-.127 6.042 1.994.12.17.282.254.483.254.12.043.282 0 .363-.127Zm-18.61-9.076c.525-.806 1.169-2.672-.08-4.03-.886-.932.04-2.332.08-2.417a.648.648 0 0 0-.16-.89c-.282-.212-.645-.127-.846.17-.524.805-1.168 2.671.08 4.029.887.933-.04 2.332-.08 2.417a.648.648 0 0 0 .161.89c.12.085.242.128.363.128.16 0 .362-.127.483-.297Zm10.07 0c.524-.806 1.169-2.672-.08-4.03-.886-.932.04-2.332.08-2.417a.649.649 0 0 0-.16-.89c-.283-.212-.645-.127-.846.17-.524.805-1.168 2.671.08 4.029.886.933-.04 2.332-.08 2.417a.648.648 0 0 0 .16.89c.122.085.242.128.363.128.161 0 .363-.127.483-.297Zm10.473 0c.524-.806 1.168-2.672-.08-4.03-.887-.932.04-2.332.08-2.417a.649.649 0 0 0-.161-.89c-.282-.212-.645-.127-.846.17-.524.805-1.168 2.671.08 4.029.887.933-.04 2.332-.08 2.417a.648.648 0 0 0 .161.89c.12.085.242.128.363.128.16 0 .362-.127.483-.297Z"/>
</svg>