<svg xmlns="http://www.w3.org/2000/svg" width="52" height="52" fill="none" viewBox="0 0 52 52"><path stroke="#F2C247" stroke-linecap="round" stroke-linejoin="round" d="M45.617 20.426h-30.13c-2.182 0-3.952 1.755-3.952 3.92v15.54c0 2.166 1.77 3.921 3.952 3.921h30.13c2.182 0 3.952-1.755 3.952-3.92v-15.54c0-2.166-1.77-3.921-3.952-3.921Z"/><path stroke="#F2C247" stroke-linecap="round" stroke-linejoin="round" d="M7.999 30.714H6.446c-2.182 0-3.952-1.756-3.952-3.921v-15.54c0-2.164 1.77-3.92 3.952-3.92h30.13c2.182 0 3.952 1.756 3.952 3.92v5.765M40.492 25.414c-1.377 0-2.577.73-3.237 1.82a3.781 3.781 0 0 0-3.238-1.82c-2.085 0-3.777 1.675-3.777 3.741s1.692 3.741 3.777 3.741c1.377 0 2.577-.73 3.238-1.82a3.782 3.782 0 0 0 3.237 1.82c2.086 0 3.777-1.675 3.777-3.74 0-2.067-1.691-3.742-3.777-3.742ZM2.494 13.256h38.034M17.459 37.884h17.458"/></svg>
