<svg width="52" height="52" viewBox="0 0 52 52" fill="none" xmlns="http://www.w3.org/2000/svg">
<path d="M35.228 30.1494V37.6217H23.8571L17.9542 47.9789C17.5238 48.7335 16.6015 49.0538 15.7956 48.727L14.1771 48.071C13.3338 47.7288 12.899 46.7964 13.1779 45.932L14.4966 42.1518" stroke="#F2C247" stroke-linecap="round" stroke-linejoin="round"/>
<path d="M31.4872 30.2674H23.3486V26.0967H15.9467V30.2674H11.2052C9.15036 30.2674 7.48242 31.9149 7.48242 33.9494C7.48242 35.9839 9.14818 37.6315 11.2052 37.6315H17.1928" stroke="#F2C247" stroke-linecap="round" stroke-linejoin="round"/>
<path d="M40.5407 40.5256H36.5335C35.8129 40.5256 35.2285 39.9435 35.2285 39.2257V28.957C35.2285 28.2391 35.8129 27.657 36.5335 27.657M40.5407 34.6699V42.7623C40.5407 43.5458 41.1778 44.1783 41.9621 44.1783H44.8928M44.8928 23.9146H41.9621C41.1756 23.9146 40.5407 24.5492 40.5407 25.3305V29.6245" stroke="#F2C247" stroke-linecap="round" stroke-linejoin="round"/>
<path d="M16.5228 20.7968L14.6997 7.76385C14.2877 4.76463 16.6147 2.0918 19.6404 2.0918C22.666 2.0918 24.993 4.76463 24.581 7.76385L22.0556 26.0966" stroke="#F2C247" stroke-linecap="round" stroke-linejoin="round"/>
<path d="M19.9512 32.02C21.6658 32.02 22.9128 31.5524 23.3804 29.9937" stroke="#F2C247" stroke-linecap="round" stroke-linejoin="round"/>
</svg>
