<svg xmlns="http://www.w3.org/2000/svg" width="52" height="52" fill="none" viewBox="0 0 52 52">
    <path stroke="#F2C247" stroke-linecap="round" stroke-linejoin="round" d="M35.228 30.15v7.472h-11.37l-5.904 10.357a1.734 1.734 0 0 1-2.158.748l-1.619-.656a1.733 1.733 0 0 1-1-2.139l1.32-3.78M31.487 30.267H23.35v-4.17h-7.402v4.17h-4.742c-2.055 0-3.723 1.648-3.723 3.682 0 2.035 1.666 3.683 3.723 3.683h5.988M40.54 40.526h-4.007c-.72 0-1.305-.583-1.305-1.3V28.957c0-.718.585-1.3 1.305-1.3m4.008 7.013v8.092c0 .784.637 1.416 1.421 1.416h2.93m0-20.263h-2.93c-.786 0-1.421.634-1.421 1.416v4.294M16.523 20.797 14.7 7.764c-.412-3 1.915-5.672 4.94-5.672 3.026 0 5.353 2.673 4.941 5.672l-2.525 18.333"/>
    <path stroke="#F2C247" stroke-linecap="round" stroke-linejoin="round" d="M19.951 32.02c1.715 0 2.962-.468 3.43-2.026"/>
</svg>