<svg width="52" height="52" viewBox="0 0 52 52" fill="none" xmlns="http://www.w3.org/2000/svg">
<path d="M13.6076 14.7701V11.251H4.33163C3.31718 11.251 2.49414 12.0662 2.49414 13.0709V38.1121C2.49414 39.1168 3.31718 39.932 4.33163 39.932H47.4192C48.4337 39.932 49.2567 39.1168 49.2567 38.1121V13.0709C49.2567 12.0662 48.4337 11.251 47.4192 11.251H22.6945M22.6945 11.251L14.0191 20.4574H22.685L22.6945 11.251Z" stroke="#F2C247" stroke-linecap="round" stroke-linejoin="round"/>
<path d="M14.0293 24.3447V26.8387" stroke="#F2C247" stroke-linecap="round" stroke-linejoin="round"/>
<path d="M14.0293 30.5796V33.0736" stroke="#F2C247" stroke-linecap="round" stroke-linejoin="round"/>
<path d="M14.0293 37.1265V39.3087" stroke="#F2C247" stroke-linecap="round" stroke-linejoin="round"/>
<path d="M31.1749 23.4094C32.7245 23.4094 33.9807 22.1532 33.9807 20.6036C33.9807 19.054 32.7245 17.7979 31.1749 17.7979C29.6253 17.7979 28.3691 19.054 28.3691 20.6036C28.3691 22.1532 29.6253 23.4094 31.1749 23.4094Z" stroke="#F2C247" stroke-linecap="round" stroke-linejoin="round"/>
<path d="M40.839 33.3852C42.3885 33.3852 43.6447 32.1988 43.6447 30.7353C43.6447 29.2718 42.3885 28.0854 40.839 28.0854C39.2894 28.0854 38.0332 29.2718 38.0332 30.7353C38.0332 32.1988 39.2894 33.3852 40.839 33.3852Z" stroke="#F2C247" stroke-linecap="round" stroke-linejoin="round"/>
<path d="M41.4621 17.7979L30.5508 33.3854" stroke="#F2C247" stroke-linecap="round" stroke-linejoin="round"/>
</svg>
