<svg xmlns="http://www.w3.org/2000/svg" width="52" height="52" fill="none" viewBox="0 0 52 52">
    <path stroke="#F2C247" stroke-linecap="round" stroke-linejoin="round" d="M13.608 14.77v-3.519H4.332a1.83 1.83 0 0 0-1.838 1.82v25.041a1.83 1.83 0 0 0 1.838 1.82h43.087a1.83 1.83 0 0 0 1.838-1.82V13.071a1.83 1.83 0 0 0-1.838-1.82H22.695m0 0-8.676 9.206h8.666l.01-9.206ZM14.03 24.345v2.494M14.03 30.58v2.494M14.03 37.127v2.182"/>
    <path stroke="#F2C247" stroke-linecap="round" stroke-linejoin="round" d="M31.175 23.41a2.806 2.806 0 1 0 0-5.612 2.806 2.806 0 0 0 0 5.611ZM40.839 33.385c1.55 0 2.806-1.186 2.806-2.65 0-1.463-1.257-2.65-2.806-2.65-1.55 0-2.806 1.187-2.806 2.65 0 1.464 1.256 2.65 2.806 2.65ZM41.462 17.798 30.551 33.385"/>
</svg>