<svg xmlns="http://www.w3.org/2000/svg" width="52" height="52" fill="none" viewBox="0 0 52 52">
    <path stroke="#F2C247" stroke-linecap="round" stroke-linejoin="round" d="M22.759 23.273h-5.3M3.43 43.253v-19.45c0-3.58 3.506-6.525 7.768-6.525 2.49 0 4.834 1.005 6.295 2.699v19.449c-1.46-1.694-3.805-2.7-6.295-2.7-4.262 0-7.768 2.946-7.768 6.527Zm0 0c0 3.58 3.469 6.496 7.71 6.523h37.182V23.479h-8.077"/>
    <path stroke="#F2C247" stroke-linecap="round" stroke-linejoin="round" d="M43.957 12.357c0 5.647-10.132 22.905-10.132 22.905S23.693 18.004 23.693 12.358c0-5.647 4.537-10.225 10.132-10.225S43.957 6.71 43.957 12.357Z"/>
    <path stroke="#F2C247" stroke-linecap="round" stroke-linejoin="round" d="M33.982 16.962c2.41 0 4.364-1.978 4.364-4.417 0-2.44-1.954-4.418-4.364-4.418s-4.365 1.978-4.365 4.418c0 2.44 1.954 4.417 4.365 4.417Z"/>
</svg>
