<svg width="52" height="52" viewBox="0 0 52 52" fill="none" xmlns="http://www.w3.org/2000/svg">
<path d="M39.7485 40.4963C44.1389 40.4963 47.6981 32.3311 47.6981 22.2589C47.6981 12.1867 44.1389 4.02148 39.7485 4.02148C35.358 4.02148 31.7988 12.1867 31.7988 22.2589C31.7988 32.3311 35.358 40.4963 39.7485 40.4963Z" stroke="#F2C247" stroke-linecap="round" stroke-linejoin="round"/>
<path d="M38.6578 4.3335L32.6916 8.15963C27.2629 11.6418 20.7807 13.1528 14.3513 12.4388C8.8363 12.4388 4.36523 16.858 4.36523 22.309C4.36523 27.76 8.8363 32.1791 14.3513 32.1791C20.6031 31.6454 26.8646 33.0947 32.2236 36.3184L38.6578 40.1848" stroke="#F2C247" stroke-linecap="round" stroke-linejoin="round"/>
<path d="M21.1982 32.079C20.4054 29.5723 19.9512 26.0069 19.9512 22.274C19.9512 20.3875 20.0668 18.5223 20.2918 16.8032" stroke="#F2C247" stroke-linecap="round" stroke-linejoin="round"/>
<path d="M37.1365 13.686C39.9029 14.9341 41.7739 18.388 41.7739 22.2507C41.7739 26.1134 39.8835 29.6012 37.0977 30.8323" stroke="#F2C247" stroke-linecap="round" stroke-linejoin="round"/>
<path d="M13.4062 36.7554L17.4678 45.9304C17.8502 46.7961 18.7111 47.3549 19.6585 47.3549H24.0447C24.6291 47.3549 25.0571 46.8057 24.9128 46.2398L22.5418 37.0024" stroke="#F2C247" stroke-linecap="round" stroke-linejoin="round"/>
</svg>
