<svg xmlns="http://www.w3.org/2000/svg" width="52" height="52" fill="none" viewBox="0 0 52 52">
    <path stroke="#F2C247" stroke-linecap="round" stroke-linejoin="round" d="M39.748 40.496c4.39 0 7.95-8.165 7.95-18.237S44.138 4.02 39.748 4.02c-4.39 0-7.95 8.166-7.95 18.238s3.56 18.237 7.95 18.237Z"/>
    <path stroke="#F2C247" stroke-linecap="round" stroke-linejoin="round" d="M38.658 4.333 32.692 8.16a28.215 28.215 0 0 1-18.34 4.279c-5.516 0-9.987 4.419-9.987 9.87s4.471 9.87 9.986 9.87a29.773 29.773 0 0 1 17.873 4.14l6.434 3.866"/>
    <path stroke="#F2C247" stroke-linecap="round" stroke-linejoin="round" d="M21.198 32.079c-.793-2.507-1.247-6.072-1.247-9.805 0-1.887.116-3.752.34-5.47M37.136 13.686c2.767 1.248 4.638 4.702 4.638 8.565 0 3.862-1.89 7.35-4.676 8.581M13.406 36.755l4.062 9.175a2.396 2.396 0 0 0 2.19 1.425h4.387a.894.894 0 0 0 .868-1.115l-2.371-9.238"/>
</svg>
