<svg width="52" height="52" viewBox="0 0 52 52" fill="none" xmlns="http://www.w3.org/2000/svg">
<path d="M41.151 41.5563V46.0502C41.151 47.8783 39.6723 49.3595 37.8472 49.3595H11.4093C9.58424 49.3595 8.10547 47.8783 8.10547 46.0479L8.1123 20.9902" stroke="#F2C247" stroke-linecap="round" stroke-linejoin="round"/>
<path d="M16.5227 18.8081H10.1698C9.02827 18.8081 8.10547 19.7407 8.10547 20.8891C8.10547 22.0399 9.03055 22.9702 10.1698 22.9702H37.7287C39.6199 22.9702 41.151 24.516 41.151 26.4202L41.151 27.0695" stroke="#F2C247" stroke-linecap="round" stroke-linejoin="round"/>
<path d="M29.5392 30.9663H43.9573V41.5658H29.5392C27.6884 41.5658 26.1875 40.0813 26.1875 38.2507V34.2814C26.1875 32.4509 27.6884 30.9663 29.5392 30.9663Z" stroke="#F2C247" stroke-linecap="round" stroke-linejoin="round"/>
<path d="M30.8642 37.513C31.5529 37.513 32.1112 36.9547 32.1112 36.266C32.1112 35.5773 31.5529 35.019 30.8642 35.019C30.1755 35.019 29.6172 35.5773 29.6172 36.266C29.6172 36.9547 30.1755 37.513 30.8642 37.513Z" fill="#F2C247"/>
<path d="M21.8387 19.7434C20.4092 17.8495 19.6406 15.5838 19.6406 13.2629C19.6406 10.3246 20.8718 7.4987 23.0699 5.40283" stroke="#F2C247" stroke-linecap="round" stroke-linejoin="round"/>
<path d="M26.1875 3.24756C27.6396 2.61269 29.2164 2.28516 30.8093 2.28516C36.9963 2.28516 42.0868 7.2318 42.0868 13.2441C42.0868 15.7163 41.2257 18.1167 39.6443 20.0549" stroke="#F2C247" stroke-linecap="round" stroke-linejoin="round"/>
<path d="M30.5508 5.40283V14.3134L34.2918 17.5611" stroke="#F2C247" stroke-linecap="round" stroke-linejoin="round"/>
</svg>
