<svg xmlns="http://www.w3.org/2000/svg" width="52" height="52" fill="none" viewBox="0 0 52 52">
    <path stroke="#F2C247" stroke-linecap="round" stroke-linejoin="round" d="M41.151 41.556v4.494a3.306 3.306 0 0 1-3.304 3.31H11.41a3.307 3.307 0 0 1-3.304-3.312l.007-25.058"/>
    <path stroke="#F2C247" stroke-linecap="round" stroke-linejoin="round" d="M16.523 18.808H10.17a2.072 2.072 0 0 0-2.065 2.081c0 1.15.926 2.081 2.065 2.081h27.559c1.89 0 3.422 1.546 3.422 3.45v.65M29.54 30.966h14.417v10.6H29.54c-1.85 0-3.352-1.485-3.352-3.315v-3.97c0-1.83 1.501-3.315 3.352-3.315Z"/>
    <path fill="#F2C247" d="M30.864 37.513a1.247 1.247 0 1 0 0-2.494 1.247 1.247 0 0 0 0 2.494Z"/>
    <path stroke="#F2C247" stroke-linecap="round" stroke-linejoin="round" d="M21.839 19.743c-1.43-1.893-2.198-4.16-2.198-6.48 0-2.938 1.23-5.764 3.429-7.86M26.188 3.248a11.547 11.547 0 0 1 4.621-.963c6.187 0 11.278 4.947 11.278 10.96a10.77 10.77 0 0 1-2.443 6.81"/>
    <path stroke="#F2C247" stroke-linecap="round" stroke-linejoin="round" d="M30.55 5.403v8.91l3.742 3.248"/>
</svg>
