<svg xmlns="http://www.w3.org/2000/svg" width="52" height="52" fill="none" viewBox="0 0 52 52">
    <path stroke="#F2C247" stroke-miterlimit="10" d="M11.222 39.265a3.43 3.43 0 1 0 0-6.859 3.43 3.43 0 0 0 0 6.859ZM40.84 39.265a3.43 3.43 0 1 0 0-6.859 3.43 3.43 0 0 0 0 6.859Z"/>
    <path stroke="#F2C247" stroke-linecap="round" stroke-linejoin="round" d="M44.27 35.524h5.3v-3.43h-2.71M17.77 35.524h16.21M31.799 30.752V12.455H2.494v23.07H7.668M6.547 28.198H27.59"/>
    <path stroke="#F2C247" stroke-linecap="round" stroke-linejoin="round" d="M31.799 17.754h4.248l5.304 7.238 7.282 3.116v3.987M35.695 24.924h5.456"/>
</svg>