<svg width="70" height="47" viewBox="0 0 70 47" fill="none" xmlns="http://www.w3.org/2000/svg">
<g clip-path="url(#clip0_5_135)">
<path d="M50.1976 2.24501H52.2809L52.7792 4.34019L56.074 22.4772L55.3271 39.6433L53.867 43.5776C53.8382 43.9044 53.6557 44.2005 53.3747 44.3775L53.0986 44.5521C52.7239 44.788 52.2545 44.8199 51.8498 44.6382L51.5436 44.5014C51.4632 44.4648 51.4127 44.3834 51.4175 44.2961C51.4175 44.2961 52.5895 31.751 52.6783 28.023C52.7672 24.2951 52.6783 22.9915 52.6783 22.9915L50.6923 4.85572L50.1964 2.24618L50.1976 2.24501Z" fill="white"/>
<path d="M52.3961 44.9308C52.186 44.9308 51.9747 44.8871 51.7766 44.7975L51.4704 44.6606C51.3203 44.5934 51.2302 44.4459 51.2398 44.2843C51.2518 44.1533 52.4118 31.6967 52.4994 28.0183C52.5871 24.347 52.5006 23.0163 52.4994 23.0033L50.5146 4.8805L49.9803 2.06805H52.4238L52.9557 4.30008L56.2565 22.4654V22.4854L55.5084 39.6787L55.4988 39.7046L54.0459 43.6177C54.0051 43.987 53.7926 44.3256 53.4732 44.5273L53.197 44.7019C52.9533 44.8553 52.6747 44.9331 52.3961 44.9331V44.9308ZM50.4149 2.42078L50.8736 4.83449L52.8596 22.9703C52.8608 22.9904 52.9485 24.3317 52.8596 28.0242C52.772 31.7156 51.6097 44.1828 51.5989 44.3091C51.5989 44.3173 51.6073 44.3315 51.6205 44.3374L51.9267 44.4742C52.2761 44.6311 52.6783 44.604 53.0025 44.3999L53.2787 44.2253C53.5116 44.079 53.6653 43.8301 53.6893 43.5588L53.6917 43.5352L53.7001 43.5128L55.1506 39.6043L55.8951 22.4854L52.6039 4.3685L52.1392 2.4196H50.4149V2.42078Z" fill="#1D1D1B"/>
<path d="M52.2953 7.80384C51.9363 7.80384 51.6433 7.51599 51.6433 7.16325C51.6433 6.81052 51.9363 6.52267 52.2953 6.52267C52.6543 6.52267 52.9473 6.81052 52.9473 7.16325C52.9473 7.51599 52.6543 7.80384 52.2953 7.80384ZM52.2953 6.87658C52.1344 6.87658 52.0035 7.00517 52.0035 7.16325C52.0035 7.32134 52.1344 7.44993 52.2953 7.44993C52.4562 7.44993 52.5871 7.32134 52.5871 7.16325C52.5871 7.00517 52.4562 6.87658 52.2953 6.87658ZM53.2391 16.1303C52.88 16.1303 52.5871 15.8424 52.5871 15.4897C52.5871 15.137 52.88 14.8491 53.2391 14.8491C53.5981 14.8491 53.891 15.137 53.891 15.4897C53.891 15.8424 53.5981 16.1303 53.2391 16.1303ZM53.2391 15.203C53.0782 15.203 52.9473 15.3316 52.9473 15.4897C52.9473 15.6478 53.0782 15.7764 53.2391 15.7764C53.3999 15.7764 53.5308 15.6478 53.5308 15.4897C53.5308 15.3316 53.3999 15.203 53.2391 15.203ZM53.6125 33.668C53.2535 33.668 52.9605 33.3801 52.9605 33.0274C52.9605 32.6747 53.2535 32.3868 53.6125 32.3868C53.9715 32.3868 54.2645 32.6747 54.2645 33.0274C54.2645 33.3801 53.9715 33.668 53.6125 33.668ZM53.6125 32.7407C53.4516 32.7407 53.3207 32.8693 53.3207 33.0274C53.3207 33.1855 53.4516 33.3141 53.6125 33.3141C53.7734 33.3141 53.9043 33.1855 53.9043 33.0274C53.9043 32.8693 53.7734 32.7407 53.6125 32.7407ZM52.9665 41.8694C52.6075 41.8694 52.3145 41.5816 52.3145 41.2288C52.3145 40.8761 52.6075 40.5882 52.9665 40.5882C53.3255 40.5882 53.6185 40.8761 53.6185 41.2288C53.6185 41.5816 53.3255 41.8694 52.9665 41.8694ZM52.9665 40.9421C52.8056 40.9421 52.6747 41.0707 52.6747 41.2288C52.6747 41.3869 52.8056 41.5155 52.9665 41.5155C53.1274 41.5155 53.2583 41.3869 53.2583 41.2288C53.2583 41.0707 53.1274 40.9421 52.9665 40.9421Z" fill="#1D1D1B"/>
<path d="M19.4914 1.30005L21.8064 1.08888L19.4938 23.3537L20.8326 45.7389C20.8386 45.8344 20.7702 45.9182 20.6741 45.9335L20.476 45.9654C19.9585 46.048 19.4302 46.0244 18.9223 45.897L18.6089 45.8179C18.5308 45.7979 18.4744 45.733 18.4672 45.6539L16.3335 22.4772L19.4914 1.30005Z" fill="white"/>
<path d="M19.8636 46.1895C19.5322 46.1895 19.202 46.1482 18.8766 46.0668L18.5632 45.9878C18.412 45.9501 18.3015 45.8215 18.2871 45.6693L16.1534 22.4925C16.1522 22.4784 16.1534 22.4642 16.1534 22.4512L19.3125 1.27528C19.3245 1.19506 19.3917 1.13253 19.4746 1.12427L21.7896 0.913102C21.8424 0.908384 21.8965 0.927259 21.9337 0.96501C21.9709 1.00276 21.9901 1.05467 21.9853 1.10776L19.6739 23.3584L21.0115 45.7283C21.0223 45.9147 20.8903 46.0775 20.7017 46.1081L20.5036 46.14C20.2899 46.1742 20.0774 46.1907 19.8636 46.1907V46.1895ZM16.5136 22.4807L18.6449 45.6362L18.9655 45.7235C19.4518 45.8462 19.9501 45.8687 20.446 45.7896L20.6441 45.7578C20.6441 45.7578 20.6525 45.753 20.6513 45.7483L19.3125 23.3632C19.3125 23.3537 19.3125 23.3443 19.3125 23.3348L21.6047 1.28589L19.6499 1.46403L16.5148 22.4807H16.5136Z" fill="#1D1D1B"/>
<path d="M19.818 7.8062C19.4578 7.8062 19.1636 7.51835 19.1636 7.16325C19.1636 6.80816 19.4578 6.52031 19.818 6.52031C20.1782 6.52031 20.4724 6.80816 20.4724 7.16325C20.4724 7.51835 20.1794 7.8062 19.818 7.8062ZM19.818 6.87422C19.6559 6.87422 19.5238 7.00399 19.5238 7.16325C19.5238 7.32252 19.6559 7.45228 19.818 7.45228C19.9801 7.45228 20.1122 7.32252 20.1122 7.16325C20.1122 7.00399 19.9801 6.87422 19.818 6.87422ZM18.7241 15.7752C18.3603 15.7752 18.0649 15.485 18.0649 15.1275C18.0649 14.7701 18.3603 14.4799 18.7241 14.4799C19.088 14.4799 19.3833 14.7701 19.3833 15.1275C19.3833 15.485 19.088 15.7752 18.7241 15.7752ZM18.7241 14.8326C18.5596 14.8326 18.4252 14.9647 18.4252 15.1264C18.4252 15.288 18.5596 15.4201 18.7241 15.4201C18.8886 15.4201 19.0231 15.288 19.0231 15.1264C19.0231 14.9647 18.8886 14.8326 18.7241 14.8326ZM18.5692 34.7687C18.2054 34.7687 17.9088 34.4773 17.9088 34.1198C17.9088 33.7624 18.2054 33.471 18.5692 33.471C18.9331 33.471 19.2296 33.7624 19.2296 34.1198C19.2296 34.4773 18.9331 34.7687 18.5692 34.7687ZM18.5692 33.8249C18.4035 33.8249 18.2691 33.957 18.2691 34.1198C18.2691 34.2826 18.4035 34.4148 18.5692 34.4148C18.7349 34.4148 18.8694 34.2826 18.8694 34.1198C18.8694 33.957 18.7349 33.8249 18.5692 33.8249ZM19.2393 42.0157C18.8826 42.0157 18.5933 41.7302 18.5933 41.3798C18.5933 41.0294 18.8838 40.7451 19.2393 40.7451C19.5947 40.7451 19.8852 41.0306 19.8852 41.3798C19.8852 41.729 19.5947 42.0157 19.2393 42.0157ZM19.2393 41.099C19.0808 41.099 18.9535 41.2253 18.9535 41.3798C18.9535 41.5344 19.082 41.6618 19.2393 41.6618C19.3965 41.6618 19.525 41.5355 19.525 41.3798C19.525 41.2241 19.3965 41.099 19.2393 41.099Z" fill="#1D1D1B"/>
<path d="M15.9649 1.13961C12.2642 1.86867 7.9212 2.99531 3.27078 4.84039C1.90315 9.33276 0.285773 18.0709 0.254554 23.6935C0.222135 29.5295 0.565542 37.0762 2.68002 41.965C4.85934 43.3794 10.7561 44.4943 14.6909 45.1113C16.6049 45.4109 18.2919 43.8584 18.1166 41.9626L18.0625 41.3845L16.5496 23.8775L19.0339 3.92846C19.2477 2.21315 17.6891 0.802209 15.9637 1.14197L15.9649 1.13961ZM10.0177 38.1757C8.67405 37.8855 8.24179 37.3381 8.24179 37.3381L7.49134 31.8442H9.43772C9.87718 31.8442 10.217 32.165 10.3166 32.5862C10.6 33.786 10.8906 35.2123 10.8894 37.4655C10.8894 37.928 10.4775 38.2772 10.0177 38.1769V38.1757ZM11.7347 9.38349C11.6723 9.9238 11.581 10.667 11.4609 11.5766C11.3337 12.5392 11.1031 13.3615 10.899 13.9573C10.6853 14.579 10.1185 15.0178 9.45333 15.0803L7.82754 15.2314L9.09071 8.72284L10.8258 8.50341C11.3481 8.43735 11.7959 8.86913 11.7359 9.38467L11.7347 9.38349Z" fill="white"/>
<path d="M15.1664 45.3248C14.9995 45.3248 14.8314 45.3118 14.6633 45.2859C10.3383 44.6087 4.73087 43.508 2.58156 42.1124L2.53594 42.0829L2.51432 42.0334C0.826101 38.1297 0.0276167 32.1308 0.0744451 23.6923C0.104463 18.2243 1.66301 9.50381 3.09908 4.79084L3.12429 4.70944L3.20474 4.67759C7.25479 3.06963 11.4177 1.8557 15.9301 0.96619C16.8114 0.792771 17.6951 1.03697 18.3531 1.63627C19.0087 2.23321 19.3233 3.07553 19.214 3.94852L16.7321 23.8799L18.2439 41.3692L18.2979 41.9461C18.3867 42.9052 18.0265 43.8325 17.3109 44.4896C16.7201 45.0322 15.9589 45.3248 15.1676 45.3248H15.1664ZM2.82531 41.8458C5.06947 43.2638 11.2316 44.3893 14.7197 44.9355C15.5758 45.07 16.4308 44.8128 17.0635 44.2312C17.6975 43.6484 18.0169 42.8273 17.9377 41.9779L17.8836 41.3999L16.3683 23.8728L16.3707 23.8551L18.855 3.90605C18.9499 3.14749 18.6773 2.41488 18.107 1.89699C17.5342 1.37555 16.767 1.1632 15.9997 1.31421C11.539 2.1931 7.4217 3.39051 3.41847 4.97487C1.99681 9.68195 0.464681 18.2868 0.434663 23.6947C0.389036 32.0482 1.17071 37.9869 2.82531 41.8458ZM10.1738 38.3704C10.1089 38.3704 10.0441 38.3633 9.97925 38.3491C8.5876 38.0483 8.11932 37.4714 8.10011 37.4466L8.07009 37.4089L7.28481 31.6672H9.43652C9.94322 31.6672 10.3671 32.0199 10.4908 32.5461C10.7705 33.7305 11.0695 35.1851 11.0683 37.4643C11.0683 37.7463 10.9434 38.007 10.7249 38.1781C10.5664 38.3031 10.3719 38.3692 10.1726 38.3692L10.1738 38.3704ZM10.0561 38.0035C10.2158 38.0377 10.3743 38.0035 10.5004 37.9032C10.6324 37.7982 10.7093 37.6389 10.7093 37.4643C10.7093 35.2217 10.4163 33.7907 10.1401 32.6263C10.0549 32.2641 9.77152 32.0211 9.43652 32.0211H7.69666L8.4123 37.2602C8.52516 37.3735 8.98744 37.7722 10.0561 38.0035ZM7.60421 15.4295L8.93701 8.56358L10.8017 8.32763C11.1067 8.2887 11.4069 8.3878 11.6254 8.60015C11.844 8.81132 11.9496 9.10507 11.9148 9.40472C11.8356 10.0925 11.7431 10.831 11.6399 11.6002C11.5318 12.4165 11.3397 13.2294 11.0695 14.0139C10.8342 14.7005 10.2062 15.1877 9.47014 15.2561L7.60541 15.4295H7.60421ZM9.242 8.8821L8.04848 15.0332L9.43532 14.9046C10.0297 14.8491 10.5376 14.4551 10.7273 13.9018C10.9903 13.1385 11.1764 12.3481 11.282 11.5553C11.3841 10.7873 11.4766 10.05 11.5558 9.36461C11.5774 9.17349 11.5114 8.9871 11.3721 8.85261C11.2328 8.71812 11.0419 8.65442 10.8474 8.67919L9.242 8.88328V8.8821Z" fill="#1D1D1B"/>
<path d="M45.7825 34.1942L45.7213 38.519C45.7093 39.3955 44.9816 40.101 44.0895 40.101C43.1974 40.101 42.4613 39.3885 42.4577 38.5048L42.3833 24.0085C42.3833 24.0085 48.9765 22.9491 52.5006 23.1178C52.2737 17.0753 51.4019 9.89548 50.7547 5.19784C50.3585 2.32169 47.8598 0.175778 44.9048 0.175778H41.0156C37.9598 0.175778 35.4935 2.63195 35.5367 5.63434L35.7913 23.4705L35.8741 41.1887C35.9222 44.1734 38.6106 46.5446 41.6472 46.5281C42.6306 46.5234 43.6729 46.5151 44.7055 46.5033C48.5238 46.4597 51.6505 43.4892 51.8078 39.7412C51.9507 36.3153 51.6721 34.1918 51.6721 34.1918H45.7837L45.7825 34.1942ZM43.7617 6.61468C45.7825 6.61468 44.9432 9.54747 45.1305 13.6222H42.3941C42.3941 10.1291 41.7409 6.61468 43.7629 6.61468H43.7617Z" fill="white"/>
<path d="M41.6148 46.7074C38.4497 46.7074 35.7409 44.1887 35.6916 41.1934L35.6088 23.4729L35.3554 5.63788C35.3338 4.13845 35.9126 2.72397 36.9848 1.65515C38.0571 0.58632 39.4871 0 41.0144 0H44.9036C47.933 0 50.5242 2.22495 50.9313 5.17543C51.6049 10.0571 52.4538 17.1319 52.6783 23.1119L52.6855 23.3042L52.4898 23.2947C49.3199 23.1437 43.5684 24.0037 42.5622 24.1595L42.6366 38.5037C42.6402 39.287 43.2922 39.9229 44.0883 39.9229C44.8844 39.9229 45.5292 39.2917 45.54 38.5155L45.6036 34.016H51.827L51.8474 34.1706C51.8498 34.1918 52.1272 36.3483 51.9843 39.7495C51.8246 43.5918 48.6259 46.6367 44.7043 46.6815C43.7641 46.6921 42.7351 46.7004 41.6448 46.7063C41.634 46.7063 41.6232 46.7063 41.6124 46.7063L41.6148 46.7074ZM41.0144 0.353916C39.5844 0.353916 38.2444 0.904844 37.2406 1.90525C36.2368 2.90565 35.6952 4.22929 35.7156 5.63434L35.969 23.4705L36.0518 41.1911C36.0975 43.9953 38.6418 46.3547 41.6136 46.3547C41.6232 46.3547 41.634 46.3547 41.6436 46.3547C42.7327 46.3488 43.7617 46.3405 44.7007 46.3299C48.4313 46.2874 51.4728 43.3912 51.6253 39.7377C51.7442 36.8839 51.5676 34.9197 51.5088 34.3723H45.959L45.9002 38.5237C45.887 39.4923 45.0741 40.2803 44.0883 40.2803C43.1025 40.2803 42.2812 39.4852 42.2764 38.5084L42.2008 23.861L42.3521 23.8362C42.4169 23.8256 48.7663 22.8146 52.3109 22.9361C52.0756 17.0115 51.2386 10.0465 50.5734 5.22498C50.1904 2.4491 47.7529 0.356275 44.9024 0.356275H41.0133L41.0144 0.353916ZM45.3179 13.798H42.2128V13.621C42.2128 12.9108 42.1852 12.2007 42.1599 11.5141C42.0795 9.41298 42.0111 7.59739 42.7675 6.82585C43.0209 6.5675 43.3547 6.43655 43.7617 6.43655C44.194 6.43655 44.5242 6.55688 44.7703 6.8058C45.3875 7.42751 45.3539 8.7429 45.3083 10.5632C45.2854 11.4704 45.259 12.4991 45.3107 13.6116L45.3191 13.7968L45.3179 13.798ZM42.5718 13.4441H44.9408C44.9 12.3906 44.9252 11.4185 44.9468 10.5549C44.9889 8.88564 45.0225 7.5679 44.5122 7.05354C44.3369 6.87658 44.0907 6.79046 43.7617 6.79046C43.4519 6.79046 43.2118 6.88248 43.0269 7.07123C42.3761 7.73424 42.4469 9.56398 42.5202 11.5011C42.5442 12.1346 42.5694 12.787 42.573 13.4441H42.5718Z" fill="#1D1D1B"/>
<path d="M29.5307 38.6134C29.5067 39.4769 28.7694 40.1529 27.8905 40.1187C27.044 40.0857 26.3764 39.4014 26.3764 38.5697V24.537L35.3782 23.9908C35.3782 23.9908 36.6186 17.448 36.3688 10.2777C36.286 7.87816 36.1563 5.95404 36.0206 4.45462C35.8009 2.03266 33.738 0.174598 31.2633 0.174598H25.7436C23.6447 0.174598 21.8568 1.6693 21.5182 3.70432C20.775 8.17427 19.5502 16.1374 19.4938 23.1166C19.447 28.9196 19.9753 36.2905 20.4892 41.2394C20.8242 44.466 23.7672 46.8207 27.068 46.8207H30.2331C33.3478 46.8207 35.8717 44.3397 35.8717 41.2807V34.1918L29.652 34.3145L29.5307 38.6122V38.6134ZM28.4909 6.44952C30.5585 6.94854 29.455 10.2636 29.3614 13.6199C27.6804 13.4783 27.2265 13.4311 26.4592 13.3757C26.5313 11.8833 26.6718 5.87972 28.4909 6.44952Z" fill="white"/>
<path d="M30.2331 47H27.068C23.6123 47 20.6441 44.4789 20.3103 41.2595C19.7976 36.3247 19.2681 28.968 19.3137 23.1166C19.3749 15.5039 20.8542 6.60289 21.3405 3.67718C21.6947 1.54661 23.5463 0 25.7436 0H31.2633C33.8485 0 35.9714 1.90879 36.2007 4.44046C36.3592 6.18645 36.4757 8.1495 36.5501 10.273C36.7963 17.3796 35.5691 23.9589 35.5559 24.0238L35.5307 24.1595L26.5577 24.7033V38.5697C26.5577 39.3094 27.1472 39.9123 27.8989 39.9417C28.2783 39.9583 28.6337 39.8261 28.9087 39.5737C29.1837 39.3212 29.341 38.9791 29.3518 38.6087L29.4779 34.1422L36.053 34.0125V41.2819C36.053 44.4341 33.4427 46.9988 30.2343 46.9988L30.2331 47ZM25.7436 0.353916C23.724 0.353916 22.0213 1.77548 21.6959 3.73499C21.2108 6.65361 19.7352 15.5345 19.6739 23.1201C19.6271 28.9562 20.1566 36.2988 20.6681 41.2241C20.9839 44.2642 23.7948 46.6461 27.068 46.6461H30.2331C33.2433 46.6461 35.6916 44.2395 35.6916 41.2831V34.3746L29.8273 34.4903L29.7108 38.6193C29.6976 39.0841 29.4995 39.5159 29.1537 39.8332C28.8078 40.1506 28.3528 40.3145 27.8833 40.2968C26.9371 40.2591 26.1963 39.5017 26.1963 38.5721V24.373L35.2257 23.8256C35.3986 22.8512 36.4157 16.7909 36.1899 10.2871C36.1167 8.16955 35.999 6.21358 35.8417 4.47349C35.6292 2.12585 33.6612 0.355095 31.2633 0.355095H25.7436V0.353916ZM29.5379 13.8133L29.3482 13.7968C28.671 13.7402 28.1931 13.6977 27.8124 13.6647C27.2457 13.6151 26.9047 13.5856 26.4472 13.5526L26.2719 13.5396L26.2803 13.3674C26.2851 13.2766 26.2899 13.168 26.2947 13.0453C26.4124 10.3355 26.685 7.13022 27.756 6.39526C27.995 6.23128 28.2591 6.19234 28.5413 6.27964C30.2151 6.68901 29.999 8.71812 29.748 11.0669C29.6592 11.8975 29.5679 12.7551 29.5439 13.6246L29.5391 13.8121L29.5379 13.8133ZM26.6489 13.2129C27.0272 13.2412 27.3502 13.2695 27.8449 13.3131C28.1883 13.3426 28.6121 13.3804 29.1897 13.4287C29.2209 12.61 29.3062 11.8078 29.3902 11.0304C29.634 8.75351 29.8249 6.95444 28.45 6.62294L28.438 6.6194C28.2603 6.56396 28.1102 6.58519 27.9625 6.68665C26.8999 7.41571 26.7162 11.6651 26.6549 13.0618C26.6525 13.1149 26.6501 13.1657 26.6489 13.214V13.2129Z" fill="#1D1D1B"/>
<path d="M67.5265 26.6168L64.0684 26.3207L60.7268 20.3336L67.1231 21.0969C68.2986 21.2349 69.3528 20.1284 69.336 18.9663C69.3144 17.4174 69.2207 15.2396 68.9193 13.0748C68.7404 11.7889 68.2794 10.2164 67.9444 8.81368C67.1279 5.38424 65.0038 3.38579 59.0158 2.18012C57.1222 1.79907 56.5314 1.80379 54.6355 1.80379C53.2979 1.80379 52.491 2.89267 52.7191 4.02756C53.6797 8.7948 54.8492 17.5648 54.9573 24.3046C55.1122 34.0821 53.9931 42.0263 53.7446 44.9284C57.0406 44.7149 60.058 43.4007 60.058 43.4007L61.1771 30.629L62.5483 30.3624C63.665 30.2928 64.2557 30.629 64.0384 33.0427L63.1835 42.6964C63.1835 42.6964 66.62 41.9343 68.3922 41.3845C69.0839 38.4742 69.5786 32.5732 69.8151 29.2476C69.9112 27.9039 68.8929 26.7348 67.5277 26.618L67.5265 26.6168ZM59.9631 8.35477L61.0162 8.30876C62.1136 8.26039 63.0982 8.97648 63.3624 10.0229C63.4657 10.4323 63.5701 10.9148 63.6638 11.4704C63.8451 12.5357 63.8799 13.4512 63.8667 14.1118C63.8547 14.7512 63.306 15.2549 62.6552 15.2172C62.1076 15.1853 61.3812 15.1122 60.5227 14.9541C60.3978 10.8298 59.9631 8.35477 59.9631 8.35477Z" fill="white"/>
<path d="M53.5464 45.1184L53.5645 44.9131C53.6101 44.3763 53.6845 43.6862 53.7782 42.812C54.172 39.1289 54.9045 32.2724 54.7772 24.3069C54.6751 17.8515 53.55 9.05788 52.5426 4.06177C52.419 3.4495 52.5715 2.83133 52.9605 2.36534C53.3591 1.88873 53.9535 1.62565 54.6343 1.62565H54.7099C56.5471 1.62565 57.1666 1.62565 59.0518 2.00552C64.7612 3.15457 67.2191 4.98903 68.1197 8.77239C68.2145 9.17349 68.3238 9.59701 68.4283 10.0076C68.6936 11.0481 68.9686 12.1228 69.0971 13.0501C69.4044 15.2608 69.4945 17.4858 69.5149 18.964C69.5245 19.6164 69.2207 20.2805 68.7032 20.7371C68.2373 21.1488 67.6682 21.3388 67.1003 21.2727L61.0522 20.5507L64.1789 26.152L67.5409 26.4399C68.995 26.5649 70.0949 27.8284 69.9928 29.2582C69.7587 32.5437 69.2616 38.493 68.5651 41.4235L68.5423 41.5214L68.4451 41.5521C66.686 42.0983 63.2555 42.8604 63.2219 42.8686L62.9818 42.9217L63.8583 33.0274C63.9688 31.8029 63.8739 31.0856 63.5593 30.7682C63.3672 30.5748 63.0802 30.5075 62.5699 30.5382L61.344 30.7765L60.2273 43.5198L60.13 43.5623C60.1 43.5753 57.0466 44.8918 53.7566 45.1054L53.5476 45.1195L53.5464 45.1184ZM54.6343 1.98075C54.0628 1.98075 53.5681 2.19782 53.2379 2.59066C52.9173 2.97407 52.7924 3.48489 52.8944 3.99335C53.9043 9.00479 55.0317 17.8244 55.135 24.301C55.2623 32.2877 54.5286 39.1572 54.1336 42.8486C54.0519 43.6119 53.9859 44.2347 53.9391 44.7361C56.7596 44.512 59.3568 43.4962 59.8839 43.2792L61.0054 30.4816L62.5327 30.1855C62.9745 30.1583 63.4729 30.1772 63.8139 30.5217C64.2125 30.9228 64.335 31.7049 64.2137 33.0581L63.3804 42.4699C64.1741 42.2906 66.7436 41.6995 68.2361 41.2453C68.9145 38.3055 69.4008 32.4729 69.6326 29.2346C69.7202 27.9959 68.7681 26.9011 67.5085 26.7938L63.9543 26.4894L60.3978 20.1177L67.1423 20.9223C67.6046 20.9766 68.074 20.8185 68.4607 20.4752C68.9025 20.0847 69.1607 19.522 69.1535 18.9699C69.1331 17.5023 69.0442 15.2927 68.738 13.0996C68.612 12.1912 68.3394 11.1259 68.0764 10.0949C67.972 9.68313 67.8627 9.25843 67.7667 8.85497C67.0366 5.78652 65.3112 3.63 58.9773 2.35472C57.127 1.98193 56.517 1.98193 54.7075 1.98193H54.6319L54.6343 1.98075ZM62.726 15.3977C62.6996 15.3977 62.672 15.3977 62.6455 15.3953C61.9551 15.3552 61.2299 15.2656 60.4902 15.1287L60.3474 15.1028L60.3426 14.96C60.2201 10.8971 59.789 8.41022 59.7854 8.38544L59.7506 8.18725L61.0078 8.1318C62.1905 8.0799 63.2543 8.85733 63.5365 9.98042C63.6518 10.4382 63.7538 10.9301 63.8415 11.4421C63.994 12.3422 64.0636 13.2412 64.0468 14.1153C64.0408 14.4752 63.8883 14.8067 63.6205 15.0509C63.3732 15.275 63.0586 15.3965 62.726 15.3965V15.3977ZM60.698 14.8067C61.374 14.9258 62.0356 15.0048 62.666 15.0414C62.9301 15.0568 63.1811 14.9683 63.3756 14.7913C63.5713 14.6132 63.6818 14.3713 63.6866 14.1094C63.7022 13.2565 63.6349 12.3788 63.4861 11.4999C63.4008 10.9973 63.2999 10.5148 63.1871 10.0654C62.9457 9.10507 62.0356 8.44089 61.0234 8.48454L60.1721 8.52111C60.2741 9.17939 60.5899 11.4456 60.698 14.8043V14.8067Z" fill="#1D1D1B"/>
<path d="M36.4024 19.4465C50.5722 19.4465 60.4602 19.9656 69.2603 21.432C69.4777 23.4788 69.6026 26.29 69.6026 26.29C69.6026 26.29 53.6425 29.3455 36.4024 29.3455C19.1624 29.3455 6.96782 28.0018 0.253353 26.6263C0.0372226 24.701 0.374627 20.9129 0.374627 20.9129C0.374627 20.9129 12.4071 19.4465 36.4024 19.4465Z" fill="#4C4634"/>
<path d="M36.4025 29.5225C15.7451 29.5225 4.21456 27.6184 0.216136 26.7997L0.087658 26.7737L0.0732492 26.6463C-0.141681 24.7257 0.181315 21.0533 0.194523 20.8975L0.207731 20.7548L0.351818 20.7371C0.471891 20.7229 12.6701 19.2695 36.4025 19.2695C51.2867 19.2695 60.8156 19.8452 69.2904 21.2585L69.4249 21.2809L69.4393 21.4143C69.6554 23.4434 69.7815 26.2546 69.7827 26.283L69.7899 26.4351L69.6374 26.4646C69.4777 26.4953 53.4636 29.5236 36.4025 29.5236V29.5225ZM0.419059 26.48C4.52194 27.3105 15.9973 29.1697 36.4037 29.1697C52.5378 29.1697 67.7354 26.4564 69.4176 26.1461C69.3888 25.548 69.2748 23.316 69.0971 21.5853C60.6764 20.1932 51.1882 19.6246 36.4037 19.6246C14.0857 19.6246 1.98481 20.9105 0.542734 21.0733C0.486299 21.7635 0.256961 24.7788 0.419059 26.4811V26.48Z" fill="#1D1D1B"/>
<path d="M40.5894 17.2852H36.6558C36.5561 17.2852 36.4757 17.2062 36.4757 17.1083V16.3592C36.4757 16.2612 36.5561 16.1822 36.6558 16.1822H40.5894C40.689 16.1822 40.7695 16.2612 40.7695 16.3592V17.1083C40.7695 17.2062 40.689 17.2852 40.5894 17.2852ZM36.8359 16.9313H40.4093V16.5361H36.8359V16.9313Z" fill="#1D1D1B"/>
<path d="M39.5472 19.4465L41.3915 18.7776C41.9678 18.5688 42.579 18.9876 42.579 19.5904C42.579 20.1437 42.0579 20.5554 41.5079 20.4375L39.5315 20.0116" fill="white"/>
<path d="M41.6989 20.6345C41.622 20.6345 41.5452 20.6262 41.4695 20.6097L39.4931 20.1838L39.57 19.8382L41.5464 20.264C41.7553 20.3089 41.9702 20.2593 42.1371 20.1272C42.304 19.9951 42.3989 19.7992 42.3989 19.5892C42.3989 19.3604 42.2896 19.1539 42.0987 19.023C41.9078 18.892 41.6724 18.8625 41.4539 18.9416L39.6096 19.6105L39.4847 19.279L41.329 18.6101C41.6544 18.4921 42.0195 18.5381 42.304 18.7328C42.5886 18.9274 42.7591 19.2483 42.7591 19.5892C42.7591 19.9066 42.615 20.2039 42.3629 20.4032C42.1719 20.5542 41.9378 20.6345 41.6989 20.6345Z" fill="#1D1D1B"/>
<path d="M37.5095 19.4465L35.5151 19.0914C34.9748 18.9947 34.4777 19.4028 34.4777 19.9431C34.4777 20.5578 35.1105 20.9766 35.6904 20.7454L37.5251 20.0128" fill="white"/>
<path d="M35.359 20.9848C35.1513 20.9848 34.9448 20.9247 34.7671 20.8067C34.4741 20.6132 34.2988 20.29 34.2988 19.942C34.2988 19.6317 34.4381 19.3403 34.6794 19.1421C34.922 18.9439 35.2377 18.8613 35.5487 18.9168L37.5431 19.2719L37.4783 19.6199L35.4839 19.2648C35.2798 19.2282 35.0696 19.2825 34.9099 19.4135C34.7502 19.5444 34.659 19.7367 34.659 19.942C34.659 20.1744 34.7719 20.3832 34.9688 20.513C35.1657 20.6427 35.4034 20.6675 35.6244 20.579L37.4591 19.8464L37.5948 20.1744L35.7601 20.907C35.6316 20.9589 35.4959 20.9837 35.3602 20.9837L35.359 20.9848Z" fill="#1D1D1B"/>
<path d="M42.4637 27.8378H39.4763C38.3981 27.8378 37.6332 27.012 37.6332 25.9538L37.5239 17.113H39.5448V25.036C39.5448 25.4701 39.9014 25.8217 40.3432 25.824L40.5714 25.8488C41.1189 25.9078 41.6724 25.9113 42.2212 25.8571L42.4649 25.8335C42.7507 25.8347 42.9824 26.2523 42.9824 26.5331V27.3258C42.9824 27.6078 42.7495 27.8366 42.4625 27.8366L42.4637 27.8378Z" fill="white"/>
<path d="M42.4637 28.0148H39.4763C38.3236 28.0148 37.4531 27.1288 37.4531 25.9538L37.3426 16.936H39.7261V25.036C39.7261 25.371 40.0034 25.6459 40.3456 25.6471H40.3649L40.593 25.673C41.1273 25.7308 41.67 25.7332 42.2044 25.6813L42.4577 25.6565H42.4673C42.8864 25.6589 43.1637 26.185 43.1637 26.5331V27.3258C43.1637 27.7045 42.8504 28.0136 42.4637 28.0136V28.0148ZM37.7076 17.29L37.8145 25.9515C37.8145 26.9424 38.5133 27.6609 39.4775 27.6609H42.4649C42.6522 27.6609 42.8047 27.511 42.8047 27.327V26.5342C42.8047 26.3136 42.6186 26.0211 42.4745 26.0116L42.2428 26.034C41.6832 26.0883 41.1153 26.0859 40.5558 26.0258L40.3372 26.0022C39.8029 25.9951 39.3694 25.5633 39.3694 25.0372V17.2911H37.71L37.7076 17.29Z" fill="#1D1D1B"/>
<path d="M38.5602 20.6675C39.0966 20.6675 39.5315 20.2402 39.5315 19.7131C39.5315 19.186 39.0966 18.7587 38.5602 18.7587C38.0237 18.7587 37.5888 19.186 37.5888 19.7131C37.5888 20.2402 38.0237 20.6675 38.5602 20.6675Z" fill="white"/>
<path d="M38.5602 20.8456C37.925 20.8456 37.4087 20.3384 37.4087 19.7143C37.4087 19.0902 37.925 18.5829 38.5602 18.5829C39.1953 18.5829 39.7117 19.0902 39.7117 19.7143C39.7117 20.3384 39.1953 20.8456 38.5602 20.8456ZM38.5602 18.9357C38.1231 18.9357 37.7689 19.2849 37.7689 19.7131C37.7689 20.1413 38.1243 20.4905 38.5602 20.4905C38.996 20.4905 39.3514 20.1413 39.3514 19.7131C39.3514 19.2849 38.996 18.9357 38.5602 18.9357Z" fill="#1D1D1B"/>
<path d="M9.91801 25.4418L10.4223 26.1025C9.65385 26.6687 8.5792 26.9931 7.47573 26.9931C5.19915 26.9931 3.34763 25.6494 3.34763 23.999C3.34763 22.3486 5.19915 21.0037 7.47573 21.0037C8.39188 21.0037 9.29243 21.2267 10.0117 21.6301L10.223 21.7493V23.2192H9.38248V22.2377C8.82535 21.9734 8.15774 21.8295 7.47453 21.8295C5.69265 21.8295 4.18694 22.8228 4.18694 23.999C4.18694 25.1752 5.69265 26.1673 7.47453 26.1673C8.40029 26.1673 9.29123 25.9031 9.91681 25.4418H9.91801ZM15.0715 22.043H16.1438V25.9986H15.0715V26.8245H21.1832V24.8685H20.3427V25.9986H16.9855V24.3034H19.5346V23.4776H16.9855V22.0419H20.3427V23.1874H21.1832V21.2161H15.0715V22.0419V22.043ZM46.0767 21.9817H47.149V25.9373H46.0767V26.7631H52.1884V24.8071H51.3479V25.9373H47.9907V24.242H50.5398V23.4162H47.9907V21.9805H51.3479V23.126H52.1884V21.1547H46.0767V21.9805V21.9817ZM30.4192 22.043H31.3054V25.2295L28.1823 21.373C28.103 21.2751 27.9818 21.2172 27.8533 21.2172H26.2203V22.043H27.1605V25.9986H26.2203V26.8245H28.9411V25.9986H28.001V22.476L31.3954 26.6687C31.4771 26.769 31.5983 26.8245 31.7244 26.8245C31.7712 26.8245 31.8181 26.8174 31.8625 26.8009C32.0318 26.743 32.1447 26.5861 32.1447 26.4115V22.043H33.0932V21.2172H30.4192V22.043ZM63.4248 26.0399V26.8657H61.9575L60.1949 24.6962H58.3085V26.0399H59.4324V26.8657H56.5819V26.0399H57.468V21.9817H56.5819V21.1559H60.7772C61.7702 21.1559 62.5783 21.9499 62.5783 22.9255C62.5783 23.7501 62.002 24.4438 61.2239 24.6408L62.3598 26.0399H63.4224H63.4248ZM60.7784 23.8704C61.3079 23.8704 61.739 23.4469 61.739 22.9267C61.739 22.4064 61.3079 21.9829 60.7784 21.9829H58.3097V23.8716H60.7784V23.8704Z" fill="white"/>
</g>
<defs>
<clipPath id="clip0_5_135">
<rect width="70" height="47" fill="white"/>
</clipPath>
</defs>
</svg>
