<svg xmlns="http://www.w3.org/2000/svg" width="127" height="65" fill="none"><path fill="#FEFEFE" d="M12.208 55.995c-.377-3.134-2.749-4.934-5.89-4.934C2.736 51.06 0 53.59 0 58.028 0 62.453 2.69 65 6.318 65c3.48 0 5.579-2.313 5.89-4.81l-2.901-.013c-.27 1.45-1.412 2.286-2.942 2.286-2.058 0-3.458-1.533-3.458-4.434 0-2.824 1.378-4.431 3.48-4.431 1.57 0 2.702.908 2.92 2.397h2.9Zm2.061 8.819h9.17v-2.367h-6.3v-3.24h5.803v-2.363h-5.803V53.61h6.275v-2.366H14.27v13.57Zm22.777-13.57h-2.855v8.535h-.12l-5.856-8.535h-2.519v13.57h2.87v-8.539h.1l5.902 8.539h2.478v-13.57Zm1.85 2.366h4.154v11.203h2.836V53.61h4.154v-2.366H38.896v2.366Zm12.985 11.203h9.17v-2.366h-6.3v-3.24h5.802v-2.363h-5.802V53.61h6.275v-2.366H51.88v13.57Zm11.427 0h2.87v-4.81h2.093l2.572 4.81h3.165l-2.883-5.273c1.546-.663 2.4-2.009 2.4-3.862 0-2.696-1.78-4.434-4.862-4.434h-5.355v13.57Zm2.87-7.114v-4.107h1.934c1.658 0 2.46.733 2.46 2.086 0 1.343-.802 2.021-2.447 2.021h-1.947Zm10.974 7.285c.846 0 1.582-.709 1.589-1.588-.007-.868-.744-1.577-1.59-1.577-.873 0-1.598.71-1.591 1.577a1.589 1.589 0 0 0 1.592 1.588Zm3.955-.17h5.799c3.047 0 4.67-1.59 4.67-3.75 0-2.01-1.44-3.222-2.982-3.293v-.134c1.412-.317 2.45-1.318 2.45-2.914 0-2.033-1.507-3.479-4.505-3.479h-5.432v13.57Zm2.87-2.345v-3.604h2.403c1.378 0 2.233.793 2.233 1.912 0 1.023-.693 1.692-2.298 1.692h-2.338Zm0-5.547v-3.358h2.18c1.271 0 1.993.656 1.993 1.635 0 1.076-.874 1.723-2.046 1.723h-2.127Zm9.459 7.891h9.17v-2.366h-6.3v-3.24h5.802v-2.363h-5.802V53.61h6.275v-2.366h-9.145v13.57Zm11.427 0h9.17v-2.366h-6.3v-3.24h5.802v-2.363h-5.802V53.61h6.275v-2.366h-9.145v13.57Zm11.427 0h2.87v-4.81h2.093l2.572 4.81h3.165l-2.882-5.273c1.545-.663 2.4-2.009 2.4-3.862 0-2.696-1.782-4.434-4.863-4.434h-5.355v13.57Zm2.87-7.114v-4.108h1.934c1.658 0 2.46.734 2.46 2.087 0 1.343-.802 2.021-2.447 2.021h-1.947Z"/><path fill="#9D9E9E" fill-rule="evenodd" d="m59.754 30.746 10.844-6.26-4.083-2.358-6.761 3.903v4.715Z" clip-rule="evenodd"/><path fill="#9D9E9E" fill-rule="evenodd" d="m51.49 30.802-2.02 1.165V9.876c5.682 3.278 11.362 6.559 17.043 9.839l4.155-2.398c-7.228-4.174-14.455-8.348-21.684-12.52l-3.596 2.077v28.169l3.46 1.998 2.641-1.524v-4.715Z" clip-rule="evenodd"/><path fill="#F4C446" fill-rule="evenodd" d="M53.581 2.143v2.895l4.082 2.357V5.011l19.25 11.113c-2.77 1.599-5.538 3.199-8.308 4.797l8.165 4.715-19.107 11.031V17.02L53.58 14.66v25.112l3.434 1.983 24.594-14.2v-3.924l-4.767-2.751 4.767-2.753v-4.09C73.509 9.354 65.398 4.678 57.294 0L53.58 2.143Z" clip-rule="evenodd"/></svg>
