<svg width="56" height="65" viewBox="0 0 56 65" fill="none" xmlns="http://www.w3.org/2000/svg">
<path fill-rule="evenodd" clip-rule="evenodd" d="M22 48L39 37.8295L32.5993 34L22 40.3402V48Z" fill="#9D9E9E"/>
<path fill-rule="evenodd" clip-rule="evenodd" d="M9.41329 48.1312L6.29822 49.9743V15.0323C15.0631 20.2176 23.8266 25.4071 32.5909 30.5951L39 26.8017C27.8499 20.2007 16.7005 13.5987 5.54878 7L0.000785518 10.2839L0 54.8386L5.33886 58L9.4131 55.5891V48.1314L9.41329 48.1312Z" fill="#9D9E9E"/>
<path fill-rule="evenodd" clip-rule="evenodd" d="M13.002 3.33644L13.001 7.84204L19.2644 11.5115V7.80007L48.7983 25.0999C44.5487 27.5883 40.3001 30.0784 36.0505 32.5668C40.2277 35.013 44.4024 37.461 48.578 39.9056L19.2642 57.0782C19.2642 46.8826 19.2642 36.688 19.2642 26.4924L13 22.8228C13 35.8524 13 48.8828 13 61.9122L18.2688 65L56 42.896V36.7872C53.5626 35.3591 51.1241 33.9322 48.6865 32.5041L56 28.2194V21.8518C43.5755 14.5612 31.1303 7.283 18.6975 0C16.7993 1.11274 14.8999 2.2237 13.0018 3.33644H13.002Z" fill="#F4C446"/>
</svg>
