<svg width="119" height="119" viewBox="0 0 119 119" fill="none" xmlns="http://www.w3.org/2000/svg">
<rect width="119" height="119" rx="59.5" fill="#F2C247"/>
<g clip-path="url(#clip0_3279_20902)">
<path d="M23.7379 30.0898C24.2349 30.4362 24.6807 30.8508 25.0624 31.3215C25.4396 31.7854 25.6833 32.3434 25.7671 32.9355C25.8231 33.5141 25.7357 34.0977 25.5124 34.6344C25.286 35.1683 25.0013 35.6753 24.6633 36.1465L22.685 38.9497L21.836 38.3381L22.4048 37.4886L17.3105 33.8614L16.7416 34.6684L15.8926 34.0568L17.9813 31.0667C18.3399 30.5141 18.801 30.0354 19.3397 29.6566C19.9016 29.3004 20.5604 29.1282 21.2247 29.1639C21.5343 29.1697 21.8421 29.2125 22.1416 29.2913C22.4158 29.3775 22.6827 29.4855 22.9397 29.6141C23.2356 29.7486 23.5196 29.9078 23.7888 30.0898H23.7379ZM22.7869 31.4574L22.5067 31.279L22.1416 31.0837C21.8397 30.93 21.5204 30.8131 21.1907 30.7354C20.8537 30.6758 20.5088 30.6758 20.1718 30.7354C19.8589 30.7922 19.5662 30.9298 19.3228 31.1346C19.0607 31.3674 18.8295 31.6329 18.635 31.9246L18.1596 32.5872L23.2539 36.2229L23.4747 35.9086C23.8285 35.4633 24.1147 34.9681 24.3237 34.439C24.4399 33.8795 24.3397 33.2967 24.0435 32.8081C23.9919 32.7172 23.9352 32.6293 23.8737 32.5447C23.8184 32.4679 23.7589 32.3941 23.6954 32.3239C23.636 32.2559 23.5511 32.1795 23.4577 32.086C23.3643 31.9926 23.2624 31.8991 23.169 31.8227L22.7275 31.4574H22.7869ZM33.3916 26.9128L31.8548 28.3314L30.352 27.3545C29.8835 27.0086 29.3488 26.7629 28.7813 26.6325C28.6694 26.6237 28.5574 26.6473 28.4586 26.7004C28.3479 26.7643 28.2452 26.8413 28.153 26.9298L27.9747 27.0912L27.3888 27.6263L29.0869 29.4527L29.8001 28.7986L30.5133 29.5716L27.8813 32.0011L27.1511 31.2366L27.8982 30.557L23.653 25.9274L22.9143 26.6155L22.2011 25.8425L25.1813 23.0902C25.4743 22.7977 25.8056 22.5461 26.1662 22.3427C26.4138 22.2188 26.6809 22.1383 26.9558 22.1048C27.2872 22.0652 27.6231 22.1211 27.9237 22.2662C28.245 22.4184 28.5334 22.6319 28.7728 22.8948C29.1358 23.2673 29.3502 23.7598 29.3756 24.2795C29.3867 24.8002 29.1914 25.3041 28.8322 25.6811C29.0971 25.4489 29.4316 25.3115 29.7831 25.2903C30.1294 25.3623 30.4564 25.5071 30.7426 25.7151L32.1775 26.5645L32.6869 26.0888L33.4001 26.8703L33.3916 26.9128ZM27.5756 24.0161C27.4335 23.8715 27.2667 23.7536 27.0831 23.6678C26.9016 23.5882 26.7036 23.5533 26.5058 23.5659C26.3541 23.5821 26.2084 23.6346 26.0813 23.7188C25.9108 23.8404 25.7491 23.9738 25.5973 24.1181L24.8162 24.8316L26.6756 26.8533L27.2784 26.2927C27.4669 26.1236 27.6376 25.9358 27.7879 25.732C27.9143 25.5576 27.9906 25.3521 28.0086 25.1374C28.0284 24.9352 27.9993 24.7313 27.9237 24.5428C27.837 24.3495 27.7194 24.1717 27.5756 24.0161ZM41.2879 22.1728L38.3247 23.8717L37.8067 22.9543L38.6558 22.4616L37.4586 21.3998L34.7416 22.9203L35.0388 24.4409L35.8879 23.9397L36.4058 24.8656L33.6294 26.4286L33.1794 25.5367L33.7652 25.2139L32.5341 17.4583L34.2322 16.5154L40.1756 21.6122L40.7614 21.2809L41.2794 22.2068L41.2879 22.1728ZM36.5756 20.6438L33.9265 18.2313L34.5888 21.7735L36.5756 20.6438ZM46.3143 14.3068L45.0662 14.6975L44.5652 13.1345L41.8652 13.984L42.7143 16.5748L43.7671 16.2351L43.436 15.2072L44.4803 14.8674L45.4907 17.9849L44.4379 18.3247L44.0897 17.2374L43.0539 17.6452L43.8181 20.0322L44.9558 19.6669L45.2784 20.6692L41.6699 21.7905L41.3473 20.7797L42.2728 20.4824L40.3454 14.5361L39.4199 14.8334L39.1228 13.7971L45.4907 11.7414L46.3398 14.2898L46.3143 14.3068ZM54.8048 12.8202L53.4718 13.0496L53.1747 11.3506L51.8586 11.529L52.869 17.6452L53.9813 17.4583L54.1511 18.5031L50.3388 19.1402L50.1605 18.1378L51.2813 17.951L50.2539 11.7924L48.9633 12.0132L49.252 13.7122L47.9105 13.9415L47.435 11.1128L54.2954 10L54.7624 12.8202H54.8048ZM70.9624 16.7957C70.9114 17.2182 70.7579 17.6217 70.5151 17.9711C70.2724 18.3206 69.9479 18.6053 69.5699 18.8004C68.7785 19.1835 67.8811 19.2883 67.0228 19.0977C66.4647 19.0487 65.926 18.8696 65.4496 18.5745C64.9734 18.2794 64.5729 17.8768 64.2803 17.3988C63.7695 16.3766 63.6286 15.2089 63.8813 14.0944C63.9791 13.363 64.2215 12.6584 64.5945 12.0217C64.8432 11.595 65.1931 11.2362 65.6133 10.9769C65.9452 10.7506 66.3125 10.5812 66.7001 10.4757C67.1877 10.3771 67.69 10.3771 68.1775 10.4757C68.6163 10.5325 69.0434 10.6586 69.4426 10.8495C69.8418 11.0556 70.1657 11.3826 70.3681 11.7839L70.5379 11.0024L71.8284 11.2147L71.2935 14.2473L69.8926 14.0095C70.0314 13.4707 69.9585 12.8991 69.6888 12.4125C69.5435 12.179 69.3475 11.9813 69.1152 11.8342C68.8829 11.6871 68.6204 11.5944 68.3473 11.563C67.9874 11.4893 67.6138 11.5215 67.2718 11.6557C66.9298 11.7898 66.6339 12.0202 66.4199 12.319C65.9716 12.9268 65.6801 13.6358 65.5709 14.3832C65.4108 15.1079 65.4108 15.8587 65.5709 16.5833C65.6534 16.9527 65.849 17.2871 66.1307 17.5399C66.4122 17.7927 66.7657 17.9513 67.1416 17.9934C67.3869 18.045 67.6399 18.0475 67.8862 18.0008C68.1325 17.9542 68.3671 17.8593 68.5765 17.7216C68.7774 17.5787 68.9462 17.3952 69.072 17.1831C69.1977 16.9709 69.2777 16.7348 69.3067 16.4899L70.9624 16.7957ZM78.2728 22.4786L76.3115 21.7311C76.4049 20.992 76.4728 20.3974 76.5237 19.9472C76.6242 19.3834 76.6068 18.805 76.4728 18.2483C76.4326 18.1421 76.3616 18.0504 76.269 17.9849C76.163 17.9149 76.049 17.8578 75.9294 17.8151L75.7086 17.6452L74.9614 17.3563L74.1124 19.6754L75.0209 20.0237L74.6048 21.043L71.2596 19.7603L71.6331 18.7749L72.5756 19.1402L74.8256 13.2704L73.8832 12.9052L74.2567 11.9198L78.0435 13.3978C78.4368 13.5326 78.8107 13.7182 79.1558 13.95C79.3786 14.1143 79.5687 14.3188 79.7162 14.5531C79.9035 14.832 80.0039 15.1601 80.0048 15.496C80.0059 15.848 79.9396 16.1968 79.8096 16.5239C79.634 17.003 79.2899 17.4016 78.8416 17.6452C78.3757 17.8887 77.8322 17.9376 77.3303 17.7811C77.6562 17.9248 77.925 18.1728 78.0945 18.4861C78.1678 18.8334 78.1678 19.1922 78.0945 19.5395L77.9501 21.2384L78.5954 21.4847L78.2133 22.4701L78.2728 22.4786ZM78.2728 15.9717C78.3421 15.7844 78.3738 15.5852 78.3662 15.3856C78.3578 15.1847 78.2995 14.989 78.1964 14.8165C78.119 14.6845 78.0076 14.576 77.8737 14.5022C77.6992 14.4038 77.5175 14.3186 77.3303 14.2473L76.3454 13.8735L75.369 16.4219L76.1331 16.7192C76.3693 16.811 76.6139 16.8793 76.8633 16.9231C77.0719 16.9336 77.2796 16.8897 77.4662 16.7957C77.6577 16.7284 77.8277 16.6111 77.9586 16.4559C78.0938 16.3052 78.2028 16.1329 78.2813 15.9462L78.2728 15.9717ZM86.0926 27.3375L83.2143 25.5282L83.7747 24.6787L84.6237 25.2139L84.9718 23.5914L82.3398 21.8925L81.1001 22.9118L81.9492 23.447L81.3888 24.3474L78.6888 22.6485L79.2492 21.7481L79.8181 22.1048L86.0586 17.3648L87.6888 18.3927L86.0926 26.0378L86.6615 26.3946L86.1011 27.2866L86.0926 27.3375ZM85.2435 22.4956L86.0926 18.9958L83.2737 21.2299L85.235 22.4616L85.2435 22.4956ZM95.1605 28.204L94.3115 27.329L95.3982 26.1398L93.335 24.186L91.4671 26.1398L92.2652 26.8958L93.0039 26.1143L93.853 26.8703L91.603 29.2488L90.8048 28.4928L91.586 27.6433L90.7879 26.8873L89.0898 28.7137L89.9388 29.5631L89.2171 30.3361L86.4747 27.7368L87.1964 26.9723L87.9011 27.6433L92.2143 23.0732L91.5096 22.4022L92.2313 21.6376L97.0964 26.2417L95.1605 28.204ZM100.357 35.3989L99.5671 34.2946L101.002 33.2668L100.238 32.1964L95.1605 35.8237L95.8143 36.7411L94.9652 37.3527L92.7152 34.2012L93.5643 33.5896L94.2265 34.5155L99.3209 30.8968L98.5567 29.8265L97.1303 30.8458L96.3407 29.7415L98.6671 28.0426L102.7 33.7L100.374 35.3989H100.357Z" fill="black"/>
<path d="M71.2847 46.0599H63.7451V43.9787H65.9951V32.6724L65.8762 32.7828C65.6058 33.0353 65.3224 33.2734 65.0272 33.4963C64.8404 33.6323 64.6536 33.7682 64.4753 33.9126L62.3696 35.3737V32.5789C62.9866 32.1542 63.6319 31.687 64.3055 31.1773C64.9677 30.6761 65.5876 30.1664 66.1734 29.6483H69.1536V43.9787H71.2847V46.0429V46.0599ZM83.4177 41.5747C83.4296 42.1178 83.3726 42.6601 83.2479 43.1887C83.0964 43.6762 82.8416 44.1253 82.5008 44.5054C81.8901 45.2252 81.0762 45.7434 80.1658 45.9919C79.4437 46.2061 78.6945 46.3148 77.9413 46.3147C76.5417 46.3877 75.1614 45.9635 74.0442 45.117C73.5227 44.6607 73.1118 44.0915 72.8426 43.4528C72.5734 42.8141 72.4529 42.1225 72.4904 41.4303H75.6319C75.5902 42.1186 75.7883 42.8 76.1923 43.3586C76.4253 43.6252 76.7165 43.8343 77.0434 43.9698C77.3703 44.1054 77.724 44.1636 78.0772 44.1401C78.4156 44.124 78.7437 44.0185 79.0281 43.8343C79.3286 43.6751 79.5831 43.441 79.7668 43.1547C80.0832 42.6458 80.2426 42.0549 80.2253 41.4558C80.2272 41.0393 80.1701 40.6246 80.0555 40.2241C79.9365 39.8433 79.7367 39.4926 79.4696 39.1962C79.2834 38.9999 79.0447 38.8613 78.7819 38.797C78.5037 38.7305 78.2188 38.6962 77.9328 38.695H76.914V36.6393C77.7256 36.6914 78.5316 36.4734 79.2064 36.0192C79.5048 35.7551 79.737 35.4245 79.8845 35.0543C80.0319 34.6839 80.0905 34.2842 80.0555 33.8871C80.0795 33.2773 79.8936 32.6775 79.5291 32.1882C79.3429 31.9435 79.1008 31.7471 78.8231 31.6155C78.5453 31.484 78.2399 31.4211 77.9328 31.4321C77.5998 31.4099 77.267 31.4768 76.9685 31.6262C76.67 31.7755 76.4167 32.0017 76.2347 32.2816C75.8865 32.8593 75.718 33.5276 75.7508 34.2014H72.6517C72.6512 33.8011 72.6968 33.402 72.7876 33.0121C72.8732 32.4294 73.0857 31.8725 73.4099 31.3808C73.7341 30.8892 74.1622 30.4746 74.664 30.1664C75.6983 29.5809 76.8721 29.2873 78.0602 29.317C78.6997 29.3153 79.3374 29.3837 79.9621 29.5209C80.5878 29.6642 81.1701 29.9554 81.6602 30.3703C82.2087 30.8238 82.6251 31.4164 82.8659 32.0862C83.0588 32.5908 83.1595 33.126 83.163 33.6662C83.1961 34.3811 83.0714 35.0946 82.7979 35.7559C82.4563 36.3606 81.9498 36.8555 81.3376 37.183C81.1146 37.3084 80.8782 37.4081 80.6328 37.4803C80.3819 37.5616 80.1268 37.6297 79.8687 37.6842C80.573 37.7522 81.2554 37.9663 81.8725 38.3128C82.4231 38.6999 82.8434 39.2448 83.0781 39.8758C83.2932 40.4169 83.4083 40.9925 83.4177 41.5747Z" fill="black"/>
<path d="M32.4575 75.4087C30.7594 75.6918 29.0868 75.992 27.4396 76.3091C27.0066 74.16 26.6415 72.4186 26.3698 71.0849C25.8434 68.5365 25.334 66.8376 24.8075 66.1665C24.6406 65.9182 24.3956 65.7329 24.1113 65.6399C23.8187 65.5582 23.5149 65.5238 23.2113 65.5379H22.6509L20.7491 65.6059V74.177L23.067 73.7607V77.2435C20.1859 77.9401 17.3302 78.7074 14.5 79.5456V75.4767L16.9113 74.95V51.8021C16.0623 51.6322 15.2981 51.4539 14.5 51.267V47.2065C17.7264 48.1494 20.9528 49.0074 24.1877 49.7549C25.2077 49.9634 26.1955 50.3061 27.1255 50.7743C27.7965 51.1461 28.4064 51.6188 28.934 52.1759C29.6005 52.9059 30.0939 53.7771 30.3774 54.7243C30.6878 55.7197 30.8452 56.7565 30.8443 57.7993C30.8972 59.2763 30.4843 60.7325 29.6642 61.9617C29.2881 62.5026 28.8014 62.9572 28.2364 63.2954C27.6714 63.6338 27.0409 63.848 26.3868 63.924C27.2756 63.992 28.102 64.407 28.6877 65.0792C29.1947 65.9554 29.5371 66.917 29.6981 67.9164C30.0462 69.4879 30.4198 71.051 30.7934 72.5885C31.3368 72.512 31.8887 72.4526 32.4491 72.3846V75.4087H32.4575ZM26.8962 57.57C26.9021 56.9389 26.8075 56.311 26.616 55.7097C26.4367 55.1309 26.1485 54.5917 25.767 54.1212C25.5018 53.8027 25.16 53.5571 24.7736 53.4076C24.2847 53.2426 23.7816 53.1231 23.2708 53.0508L20.7236 52.5921V62.0212L22.6764 62.0721C23.2854 62.0934 23.8944 62.0275 24.4849 61.8768C25.0106 61.737 25.4814 61.4408 25.8349 61.0273C26.2096 60.5906 26.4849 60.0775 26.6415 59.5237C26.8178 58.8877 26.9034 58.2299 26.8962 57.57ZM52.8689 55.7861C52.1981 55.7861 51.5189 55.7861 50.8566 55.7351V65.9797C50.871 66.7096 50.8283 67.4395 50.7292 68.1628C50.6481 68.6424 50.5083 69.1103 50.3132 69.5559C49.7156 71.0172 48.6806 72.2576 47.35 73.1067C46.725 73.488 46.0469 73.7742 45.3377 73.9561C44.5872 74.1858 43.8169 74.345 43.0368 74.4318C42.3201 74.4849 41.5998 74.4593 40.8887 74.3554C40.202 74.2696 39.5322 74.0806 38.9019 73.7947C38.3419 73.5306 37.8398 73.1582 37.4245 72.6989C36.9571 72.1634 36.5657 71.566 36.2613 70.9235C35.9204 70.2241 35.7022 69.4713 35.616 68.6979C35.5195 67.6532 35.477 66.6041 35.4887 65.5549V54.7073L33.4764 54.4864V51.5048C36.2556 51.8956 39.0377 52.2382 41.8226 52.5327V55.2594L39.3264 55.0641V65.5804C39.3123 66.4566 39.3464 67.3329 39.4283 68.2053C39.5184 68.8088 39.7323 69.3873 40.0566 69.9042C40.3734 70.4704 40.8607 70.9223 41.4491 71.1954C42.0601 71.4635 42.7285 71.5746 43.3934 71.5182C43.7221 71.5048 44.0477 71.4477 44.3613 71.3483C44.5736 71.2718 44.8877 71.1189 45.2953 70.9235C45.7729 70.6582 46.1691 70.2676 46.4415 69.7937C46.7485 69.2842 46.9856 68.7357 47.1462 68.1628C47.2448 67.8284 47.3018 67.4832 47.316 67.1349C47.316 66.7527 47.316 66.2855 47.316 65.8692V55.5822L44.8538 55.4548V52.796C47.5198 52.9772 50.1802 53.1188 52.8349 53.2207V55.7691L52.8689 55.7861ZM69.5104 73.6758C64.3198 73.4832 59.1377 73.4238 53.9641 73.4974V70.949H56.3075V55.8711H53.9641V53.3227C57.032 53.3849 60.1028 53.3849 63.1764 53.3227V55.8711C62.166 55.8711 61.1642 55.8711 60.1538 55.8711V70.8896C62.1463 70.8896 64.1443 70.9178 66.1481 70.9745V66.3449H69.5443V73.6163L69.5104 73.6758ZM87.6632 75.6211C82.1274 74.7886 76.5972 74.1515 71.0726 73.7098V71.1614L73.3991 71.2803V55.4888L71.0726 55.5992V52.9914C76.6028 52.5667 82.133 51.9465 87.6632 51.1311V58.6148L84.5811 58.8017V54.5544C82.1274 54.8092 79.6821 55.0216 77.2368 55.217V61.8173H80.1745V58.9036L82.8406 58.7677V67.5512L80.1745 67.4322V64.6205H77.2368V71.5012C79.6821 71.6965 82.1274 71.9089 84.5811 72.1722V67.6361L87.6632 67.8145V75.6041V75.6211ZM104.356 70.7197C104.38 71.7979 104.281 72.8753 104.058 73.9306C103.861 74.7285 103.552 75.4948 103.142 76.2072C102.914 76.7175 102.579 77.1729 102.161 77.5423C101.741 77.9116 101.248 78.1864 100.713 78.3478C99.8124 78.5373 98.8786 78.4993 97.9962 78.2374C97.0239 77.9987 96.1089 77.5684 95.3047 76.9717C94.3961 76.2633 93.6975 75.3206 93.284 74.2449V76.6829L90.1509 76.0543V67.2708L93.4538 67.4747C93.3971 68.9868 93.6664 70.4933 94.2434 71.8919C94.4776 72.5114 94.8641 73.0619 95.3672 73.4924C95.8703 73.923 96.4737 74.2198 97.1217 74.3554C97.5233 74.4629 97.9458 74.4655 98.3487 74.3628C98.7515 74.2602 99.1213 74.0558 99.4226 73.7692C99.7835 73.3484 100.057 72.8595 100.226 72.3313C100.395 71.8032 100.457 71.2466 100.408 70.6942C100.432 69.7935 100.243 68.8999 99.8557 68.0863C99.2655 67.1473 98.4283 66.3891 97.4359 65.8947C96.5868 65.3935 95.7377 64.9093 94.8887 64.4591C94.0396 64.0089 93.4028 63.6861 93.0632 63.4653C92.131 62.8113 91.3781 61.9332 90.8737 60.912C90.3692 59.8908 90.1295 58.7591 90.1764 57.621C90.1801 56.5937 90.3317 55.5724 90.6264 54.5884C90.8232 53.9052 91.0848 53.2425 91.4075 52.6091C91.8555 51.727 92.4865 50.9509 93.2585 50.3326C94.0974 49.6674 95.0755 49.1999 96.1198 48.9649C97.009 48.7174 97.9461 48.6969 98.8453 48.9055C99.2825 49.0519 99.6799 49.2964 100.008 49.6203C100.336 49.9442 100.587 50.3389 100.739 50.7743V48.2259C101.783 47.9371 102.819 47.6313 103.872 47.3255V57.9098L100.628 58.2326C100.628 57.9098 100.628 57.587 100.628 57.2642C100.708 55.8644 100.397 54.4701 99.7283 53.2377C99.4625 52.8017 99.0613 52.4645 98.5862 52.2774C98.1111 52.0904 97.5879 52.0637 97.0962 52.2014C96.6122 52.2875 96.1468 52.4571 95.7208 52.7026C95.3013 52.9643 94.9632 53.3379 94.7443 53.7814C94.2729 54.6664 94.0389 55.6585 94.0651 56.6611C94.0483 57.1051 94.1276 57.5476 94.2976 57.958C94.4676 58.3686 94.7242 58.7375 95.05 59.0396C95.6621 59.5323 96.3429 59.9329 97.0708 60.2288C97.9198 60.6111 98.684 61.0783 99.5075 61.4605C100.331 61.8428 100.611 62.0042 100.679 62.0551C101.353 62.4854 101.959 63.012 102.479 63.6182C102.969 64.1813 103.346 64.8329 103.592 65.5379C103.863 66.3482 104.063 67.1811 104.186 68.0269C104.324 68.9119 104.39 69.8069 104.381 70.7027L104.356 70.7197Z" fill="black"/>
<path d="M27.0745 86.4516H24.7905V85.5002H27.0745V86.4516ZM59.7037 88.6347H58.0056L57.5047 88.0995L57.4198 88.1675C57.1645 88.3608 56.8771 88.5075 56.5707 88.6007C56.245 88.694 55.9076 88.7398 55.5688 88.7366C55.2834 88.7433 54.9983 88.7147 54.7198 88.6517C54.4774 88.5976 54.2489 88.4934 54.049 88.3459L53.8877 88.1505L53.7264 87.9976C53.5658 87.8225 53.4469 87.6135 53.3783 87.386C53.3042 87.1467 53.267 86.8975 53.2679 86.647C53.2584 86.2333 53.3902 85.8288 53.6415 85.5002C53.8919 85.172 54.2182 84.9097 54.5924 84.7357L54.4736 84.6252C54.2676 84.4422 54.1001 84.2198 53.9811 83.9712C53.8595 83.7255 53.7957 83.4553 53.7943 83.1812C53.7965 82.9596 53.8534 82.7421 53.9601 82.5479C54.0668 82.3537 54.2199 82.189 54.4056 82.0684C54.7762 81.8044 55.2248 81.6729 55.6792 81.6946C56.1157 81.6699 56.5482 81.7892 56.9103 82.0344C57.0859 82.1672 57.2258 82.3415 57.3177 82.5415C57.4096 82.7416 57.4504 82.9614 57.4368 83.1812C57.443 83.3766 57.4171 83.5717 57.3603 83.7588C57.2916 83.9472 57.191 84.1224 57.0632 84.277C56.957 84.4209 56.8345 84.552 56.6981 84.6677C56.5594 84.7866 56.4119 84.8944 56.2566 84.9905L57.5641 86.4516C57.7857 86.1228 57.904 85.7353 57.9037 85.3388H57.3264V84.5573H59.6018V85.3388H58.8632C58.8635 85.6593 58.8119 85.9778 58.7103 86.2817C58.6018 86.6008 58.4504 86.9038 58.2603 87.1821L58.7443 87.7598H59.7037V88.6092V88.6347ZM56.3075 83.2236C56.3127 83.0272 56.2497 82.8351 56.1292 82.68C56.0648 82.6074 55.9846 82.5506 55.8948 82.5138C55.805 82.477 55.7081 82.4612 55.6113 82.4676C55.4218 82.4639 55.2364 82.5237 55.0849 82.6375C55.0189 82.7008 54.9673 82.7776 54.9336 82.8626C54.8999 82.9476 54.8849 83.0389 54.8896 83.1302C54.8887 83.2871 54.9266 83.4418 55 83.5804C55.1362 83.83 55.3111 84.0564 55.5179 84.2515L55.5943 84.2005C55.7697 84.0855 55.932 83.9516 56.0783 83.8013C56.2214 83.6424 56.3028 83.4374 56.3075 83.2236ZM56.8085 87.3945L55.3141 85.6021C55.0905 85.7301 54.8988 85.9073 54.7537 86.1203C54.6119 86.3432 54.5409 86.6038 54.55 86.8678C54.5462 87.0812 54.6052 87.2909 54.7198 87.4709C54.8481 87.6499 55.0248 87.7884 55.2292 87.8702C55.3004 87.8982 55.3744 87.9182 55.45 87.9296H55.7132C55.9239 87.9231 56.1301 87.8678 56.316 87.7683C56.5154 87.6858 56.6927 87.5578 56.8339 87.3945H56.8085ZM94.0651 86.4516H91.7641V85.5002H94.0481V86.4516H94.0651ZM36.0575 86.8508C36.0595 87.1706 35.9745 87.4848 35.8113 87.7598C35.6532 88.0349 35.4167 88.2568 35.132 88.3969C34.9141 88.5137 34.674 88.5831 34.4273 88.6007C34.1556 88.6007 33.833 88.6007 33.4594 88.6007H30.4877V87.7513H31.2603V82.7394H30.4877V81.89H33.8839C34.198 81.8794 34.5121 81.9109 34.8179 81.9834C35.0243 82.0464 35.2172 82.1472 35.3868 82.2807C35.5672 82.4341 35.7072 82.6296 35.7943 82.8499C35.8878 83.0881 35.9367 83.3414 35.9386 83.5974C35.956 83.7854 35.9356 83.9749 35.8784 84.1548C35.8212 84.3347 35.7285 84.5013 35.6057 84.6447C35.483 84.7881 35.3328 84.9054 35.1639 84.9896C34.995 85.0738 34.8109 85.1232 34.6226 85.1349C34.8284 85.1296 35.0326 85.173 35.2186 85.2616C35.4044 85.3501 35.5668 85.4814 35.6924 85.6446C35.9511 85.9801 36.0888 86.3932 36.083 86.8169L36.0575 86.8508ZM34.6311 83.7503C34.6374 83.5602 34.5996 83.3712 34.5207 83.1981C34.442 83.0379 34.3055 82.9133 34.1386 82.8499C34.0351 82.811 33.9264 82.7881 33.816 82.7819H33.4H32.5509V84.7527H33.2981C33.4705 84.7644 33.6436 84.7644 33.816 84.7527C33.9849 84.7364 34.1462 84.6747 34.283 84.5743C34.508 84.3485 34.6359 84.0436 34.6396 83.7248L34.6311 83.7503ZM34.7669 86.6724C34.7742 86.5065 34.7391 86.3412 34.6648 86.1926C34.5905 86.044 34.4795 85.9168 34.3424 85.823C34.2283 85.753 34.1012 85.7067 33.9688 85.6871C33.8163 85.6733 33.6628 85.6733 33.5103 85.6871H32.5424V87.8532H33.3915C33.6082 87.8585 33.8247 87.8385 34.0368 87.7937C34.1743 87.753 34.3017 87.6836 34.4103 87.5899C34.5265 87.4914 34.6169 87.366 34.6735 87.2246C34.7341 87.0676 34.763 86.9001 34.7585 86.7319L34.7669 86.6724ZM43.6651 88.6347H40.9481V87.7852H41.7462L41.3302 86.5705H38.8424L38.4094 87.7852H39.216V88.6347H36.6688V87.7852H37.2037L39.4113 81.9155H40.9481L43.1302 87.7852H43.6651V88.6347ZM40.999 85.738L40.082 83.0028L39.1226 85.7126L40.999 85.738ZM50.0245 88.6347H48.3264C48.182 88.0571 48.0632 87.5984 47.9698 87.2501C47.8858 86.7944 47.7095 86.3609 47.4519 85.9759C47.3883 85.9074 47.3054 85.86 47.2141 85.84C47.1156 85.8249 47.0154 85.8249 46.9169 85.84H46.0679V87.8277H46.8405V88.6772H44.0132V87.8277H44.8622V82.7394H44.0132V81.89H47.2566C47.5874 81.88 47.9183 81.9115 48.2415 81.9834C48.4554 82.043 48.6567 82.1409 48.8358 82.2722C49.0505 82.429 49.2156 82.6442 49.3113 82.8923C49.4251 83.1607 49.4802 83.4503 49.4726 83.7418C49.4832 84.1573 49.3413 84.5623 49.0735 84.8801C48.938 85.0354 48.7727 85.1619 48.5875 85.2524C48.4024 85.3429 48.201 85.3954 47.9952 85.4067C48.2814 85.4191 48.5544 85.5302 48.7679 85.721C48.9329 85.9496 49.0486 86.2099 49.1075 86.4856L49.4726 87.7852H50.0245V88.6347ZM48.1651 83.7758C48.1635 83.6156 48.1319 83.4571 48.0717 83.3086C48.0077 83.162 47.9086 83.0337 47.783 82.9348C47.6842 82.8635 47.5713 82.8142 47.4519 82.7904C47.285 82.7794 47.1177 82.7794 46.9509 82.7904H46.1019V84.982H46.7641C46.9662 84.9845 47.1681 84.9675 47.3669 84.931C47.5329 84.8913 47.6872 84.8127 47.8169 84.7017C47.9401 84.594 48.0335 84.4565 48.0886 84.3024C48.1421 84.1409 48.1679 83.9714 48.1651 83.8013V83.7758ZM67.8292 86.7999C67.8377 87.0301 67.8061 87.26 67.7358 87.4794C67.6655 87.669 67.562 87.8444 67.4302 87.9976C67.2215 88.287 66.923 88.4991 66.5811 88.6007C66.288 88.6965 65.9809 88.7424 65.6726 88.7366C65.3664 88.743 65.0615 88.6941 64.7726 88.5922C64.4876 88.4855 64.2498 88.2807 64.1018 88.0146V88.6347H63.083V86.2817H64.1868C64.1652 86.6622 64.2567 87.0405 64.45 87.369C64.5543 87.5279 64.6988 87.6564 64.8688 87.7414C65.0388 87.8264 65.2282 87.865 65.4179 87.8532C65.6922 87.8633 65.9618 87.7794 66.182 87.6154C66.2931 87.5303 66.3815 87.4191 66.4392 87.2916C66.497 87.1642 66.5224 87.0245 66.5132 86.8848C66.5221 86.6787 66.4557 86.4764 66.3264 86.3157C66.1006 86.0951 65.8233 85.9345 65.5198 85.8485L64.6707 85.5172C64.382 85.4152 64.1783 85.3303 64.0679 85.2793C63.872 85.1755 63.6943 85.0407 63.5415 84.8801C63.3934 84.7293 63.2778 84.5497 63.2019 84.3525C63.126 84.1552 63.0913 83.9445 63.1 83.7333C63.0997 83.4626 63.1516 83.1944 63.2528 82.9433C63.3166 82.77 63.4053 82.6069 63.516 82.4591C63.6693 82.2406 63.8813 82.0698 64.1273 81.9664C64.431 81.84 64.7579 81.7792 65.0868 81.788C65.3986 81.7807 65.7092 81.8297 66.0037 81.9324C66.2729 82.0248 66.4992 82.212 66.6405 82.4591V81.8985H67.6934V84.1071H66.5896V83.9032C66.6061 83.5647 66.4974 83.232 66.2839 82.9688C66.176 82.8528 66.0442 82.7615 65.8976 82.7014C65.7511 82.6412 65.5931 82.6137 65.4349 82.6205C65.2776 82.6173 65.1207 82.6344 64.9679 82.6715C64.8419 82.7179 64.7305 82.797 64.6452 82.9008C64.4899 83.0958 64.4086 83.3397 64.416 83.5889C64.416 83.7104 64.4463 83.8299 64.5041 83.9367C64.562 84.0434 64.6455 84.1342 64.7471 84.2005C64.9557 84.3347 65.1813 84.4404 65.4179 84.5148L66.2669 84.8291L66.666 84.965C66.8781 85.0553 67.0779 85.1724 67.2603 85.3133C67.4167 85.4152 67.5474 85.5518 67.6424 85.7126C67.7261 85.8777 67.7916 86.0514 67.8377 86.2307C67.8817 86.4113 67.9016 86.597 67.8971 86.7829L67.8292 86.7999ZM75.1566 88.6347H72.2868V87.7852H73.1358V85.6021H70.4188V87.7428H71.2679V88.5922H68.3302V87.7428H69.0943V82.7394H68.3302V81.89H71.2V82.7394H70.3509V84.7527H73.0849V82.7394H72.2358V81.89H75.1056V82.7394H74.333V87.7683H75.1056V88.6177L75.1566 88.6347ZM82.2547 85.2369C82.2547 85.5087 82.2547 85.6956 82.2547 85.7805C82.2368 86.0709 82.1766 86.357 82.0764 86.63C81.9968 86.8413 81.9061 87.0483 81.8047 87.2501C81.6982 87.4425 81.57 87.6221 81.4226 87.7852C81.1287 88.102 80.7654 88.3462 80.3613 88.4988C79.9404 88.6554 79.4943 88.7332 79.0452 88.7281C78.5885 88.7344 78.1344 88.6597 77.7037 88.5073C77.2914 88.341 76.9224 88.0823 76.6254 87.7513C76.3516 87.4421 76.1487 87.0769 76.0311 86.6809C75.8992 86.2661 75.8306 85.8336 75.8273 85.3983C75.8189 84.917 75.8761 84.4369 75.9971 83.9712C76.1142 83.5469 76.3261 83.1547 76.617 82.8244C76.9099 82.4866 77.2797 82.2245 77.6952 82.0599C78.1159 81.8891 78.5659 81.8026 79.0198 81.805C79.4667 81.7806 79.9136 81.8546 80.3288 82.022C80.744 82.1893 81.1174 82.4459 81.4226 82.7734C82.0084 83.4533 82.3122 84.3316 82.2717 85.2284L82.2547 85.2369ZM80.8622 85.2369C80.862 84.9179 80.8335 84.5995 80.7773 84.2855C80.742 84.014 80.6556 83.7517 80.5226 83.5124C80.2846 83.1201 79.9019 82.837 79.4573 82.7241C79.0126 82.6113 78.5414 82.6779 78.1452 82.9093C77.8821 83.0796 77.6661 83.3132 77.5169 83.5889C77.3933 83.8194 77.31 84.0694 77.2707 84.3279C77.2202 84.631 77.1974 84.9381 77.2028 85.2454C77.1783 85.8517 77.3005 86.455 77.5594 87.0037C77.6931 87.2757 77.9034 87.5026 78.1644 87.6566C78.4254 87.8105 78.7257 87.8848 79.0283 87.8702C79.2639 87.8716 79.497 87.8214 79.7112 87.7231C79.9253 87.6248 80.1153 87.4807 80.2679 87.301C80.3975 87.1542 80.5036 86.9879 80.582 86.8084C80.6634 86.6284 80.726 86.4405 80.7688 86.2477C80.807 86.1116 80.8327 85.9723 80.8452 85.8315C80.8452 85.6616 80.8452 85.4407 80.8452 85.1604L80.8622 85.2369ZM88.2745 83.9966C88.2821 84.3184 88.2274 84.6387 88.1132 84.9395C87.9999 85.2293 87.8125 85.4841 87.5698 85.6786C87.3421 85.8612 87.0693 85.9786 86.7802 86.0184C86.4975 86.0394 86.2137 86.0394 85.9311 86.0184H85.082V87.7683H86.0669V88.6177H83.0103V87.7683H83.8V82.7394H83.0103V81.89H86.1773C86.4856 81.8843 86.7935 81.9157 87.0943 81.9834C87.3592 82.0701 87.5965 82.2254 87.782 82.4336C87.971 82.6301 88.1157 82.8646 88.2066 83.1217C88.302 83.3945 88.348 83.6822 88.3424 83.9712L88.2745 83.9966ZM86.9585 83.9966C86.9606 83.8154 86.9348 83.6349 86.882 83.4615C86.8325 83.3086 86.7449 83.1706 86.6276 83.0607C86.5103 82.9508 86.3671 82.8724 86.2113 82.8329C86.0298 82.7949 85.8447 82.7778 85.6594 82.7819H85.0141V85.1774H85.6594C85.8847 85.1897 86.1106 85.1697 86.3302 85.1179C86.4586 85.076 86.5732 84.9996 86.6613 84.8971C86.7692 84.7762 86.8451 84.6302 86.882 84.4723C86.9328 84.3043 86.9586 84.1297 86.9585 83.9542V83.9966Z" fill="black"/>
<path fill-rule="evenodd" clip-rule="evenodd" d="M44.7858 48.2256C42.5719 47.6591 40.5755 46.4484 39.0493 44.7469C37.5229 43.0453 36.5351 40.9291 36.2108 38.666C35.8864 36.4029 36.24 34.0943 37.2269 32.0321C38.2139 29.9701 39.7897 28.247 41.7554 27.0808C43.7209 25.9146 45.9881 25.3577 48.27 25.4806C50.552 25.6033 52.7463 26.4003 54.5755 27.7706C56.4048 29.1409 57.7868 31.0231 58.547 33.1792C59.3072 35.3354 59.4113 37.6686 58.8462 39.8839C58.4719 41.3561 57.811 42.7399 56.9014 43.9563C55.9917 45.1725 54.8513 46.1975 53.5453 46.9723C52.2393 47.7471 50.7933 48.2567 49.2903 48.4717C47.7873 48.6868 46.2566 48.6032 44.7858 48.2256ZM54.8981 28.2378C54.3826 30.7972 53.5736 33.2884 52.4868 35.6621L53.3358 36.2907C53.6755 36.5455 54.0066 36.8088 54.3292 37.0722C55.7132 34.5662 57.216 33.8357 58.5745 33.7847C58.6424 34.0056 58.7019 34.2265 58.7528 34.4558C57.5302 34.4558 56.1292 35.1184 54.8472 37.4884C56.1328 38.5562 57.2922 39.7674 58.3028 41.0986C58.2094 41.328 58.116 41.5573 58.0141 41.7782C57.021 40.4043 55.8569 39.1626 54.55 38.083C53.7796 39.9171 53.3178 41.866 53.183 43.8509C53.0825 45.0233 52.8722 46.1837 52.5547 47.3167C52.283 47.4441 52.0028 47.563 51.7056 47.6735C52.1757 46.4218 52.4617 45.1083 52.5547 43.7744C52.6963 41.661 53.2049 39.5885 54.0575 37.6498L52.9792 36.8003L52.2406 36.2567C50.1349 40.7079 46.9509 45.0911 42.7651 47.2997C42.5242 47.1898 42.289 47.0679 42.0604 46.9344C46.3056 44.8617 49.549 40.436 51.6717 35.9509V35.8744C51.0349 35.4412 50.3726 35.025 49.6849 34.6087C47.8 37.8027 41.6698 39.1109 37.2547 40.0453L36.7028 40.1642C36.6434 39.9518 36.5839 39.748 36.5415 39.5356L37.1189 39.4082C41.3641 38.5078 47.384 37.2336 49.133 34.3114C46.514 32.7699 43.6372 31.7166 40.6424 31.2024C39.7663 31.0663 38.8797 31.0095 37.9934 31.0325C38.1292 30.8116 38.2736 30.5908 38.4264 30.3869C39.1993 30.3888 39.971 30.4457 40.7358 30.5568C43.8064 31.085 46.7571 32.1611 49.4472 33.7338C50.2962 31.7885 49.6509 29.9027 48.5981 28.3142C47.9245 27.3796 47.1469 26.5246 46.2802 25.7658C46.5689 25.7318 46.8518 25.7064 47.1292 25.6894C47.8648 26.3817 48.5276 27.1473 49.1075 27.9744C50.2877 29.7073 51.0094 31.831 49.9906 34.0396C50.6698 34.436 51.3236 34.8523 51.9519 35.2883C53.0406 32.9096 53.8388 30.4083 54.3292 27.8385L54.8981 28.2802V28.2378Z" fill="black"/>
<path fill-rule="evenodd" clip-rule="evenodd" d="M59.0245 39.9353C59.5974 37.682 59.4896 35.3094 58.7147 33.1174C57.9399 30.9255 56.5328 29.0126 54.6714 27.6206C52.81 26.2286 50.5779 25.42 48.2571 25.2972C45.9365 25.1744 43.6316 25.7426 41.6337 26.9303C39.6358 28.1179 38.0348 29.8715 37.033 31.9695C36.0313 34.0674 35.6738 36.4154 36.0058 38.7166C36.3377 41.0178 37.3441 43.1688 38.8979 44.8978C40.4517 46.6267 42.483 47.8559 44.7349 48.4299C46.2307 48.8112 47.7869 48.8939 49.3146 48.6734C50.8424 48.4528 52.3117 47.9332 53.6387 47.1443C54.9657 46.3555 56.1243 45.3128 57.0485 44.0759C57.9726 42.8389 58.6441 41.432 59.0245 39.9353ZM36.6604 34.2184C37.2154 32.0454 38.4021 30.0859 40.0703 28.5875C41.7385 27.0892 43.8133 26.1195 46.0324 25.8009C48.2515 25.4823 50.515 25.8292 52.5371 26.7978C54.5591 27.7662 56.2486 29.3129 57.3921 31.2421C58.5355 33.1713 59.0814 35.3964 58.9609 37.636C58.8403 39.8757 58.0587 42.0292 56.7149 43.8244C55.371 45.6196 53.5252 46.9757 51.4109 47.7215C49.2967 48.4671 47.0089 48.5688 44.8368 48.0137C41.9252 47.2672 39.4287 45.3951 37.8957 42.8085C36.3627 40.222 35.9184 37.1325 36.6604 34.2184Z" fill="black" stroke="black" stroke-width="0.46" stroke-miterlimit="22.93"/>
</g>
<defs>
<clipPath id="clip0_3279_20902">
<rect width="90" height="79" fill="white" transform="translate(14.5 10)"/>
</clipPath>
</defs>
</svg>
