<svg xmlns="http://www.w3.org/2000/svg" width="119" height="119" fill="none" viewBox="0 0 119 119">
    <rect width="119" height="119" fill="#F2C247" rx="59.5"/>
    <g fill="#000" clip-path="url(#a)">
        <path d="M23.738 30.09c.497.346.943.76 1.324 1.232.378.463.621 1.021.705 1.613a3.536 3.536 0 0 1-.255 1.7 7.855 7.855 0 0 1-.849 1.512l-1.978 2.803-.849-.612.569-.85-5.095-3.627-.568.807-.85-.611 2.09-2.99a5.153 5.153 0 0 1 1.358-1.41 3.2 3.2 0 0 1 1.885-.493c.31.006.617.048.917.127.274.087.54.194.798.323.296.135.58.294.849.476h-.051Zm-.951 1.367-.28-.178-.365-.195a4.24 4.24 0 0 0-.951-.349 2.925 2.925 0 0 0-1.02 0 1.825 1.825 0 0 0-.848.4 4.096 4.096 0 0 0-.688.79l-.475.662 5.094 3.636.22-.314c.354-.446.64-.94.85-1.47a2.26 2.26 0 0 0-.28-1.63 2.792 2.792 0 0 0-.349-.485c-.059-.068-.144-.145-.237-.238a4.052 4.052 0 0 0-.289-.263l-.442-.366h.06Zm10.605-4.544-1.537 1.418-1.503-.976a4.245 4.245 0 0 0-1.57-.723.585.585 0 0 0-.323.068c-.111.064-.214.141-.306.23l-.178.161-.586.535 1.698 1.827.713-.654.713.773-2.632 2.43-.73-.765.747-.68-4.245-4.63-.739.689-.713-.773 2.98-2.753c.293-.292.625-.544.985-.747.248-.124.515-.205.79-.238.331-.04.667.016.968.161.321.152.61.366.849.629.363.372.577.865.603 1.384a1.97 1.97 0 0 1-.544 1.402c.265-.232.6-.37.951-.39.346.071.673.216.96.424l1.435.85.509-.476.713.781-.008.043Zm-5.816-2.897a1.699 1.699 0 0 0-.493-.348 1.241 1.241 0 0 0-.577-.102.952.952 0 0 0-.425.153c-.17.121-.332.255-.484.4l-.78.713 1.859 2.021.602-.56c.189-.17.36-.357.51-.561a1.266 1.266 0 0 0 .136-1.19 1.955 1.955 0 0 0-.348-.526Zm13.712-1.843-2.963 1.699-.518-.918.849-.492-1.197-1.062-2.717 1.52.297 1.52.849-.5.518.926-2.777 1.563-.45-.892.586-.323-1.23-7.756 1.697-.943 5.944 5.097.585-.331.518.926.009-.034Zm-4.712-1.53-2.65-2.412.663 3.542 1.987-1.13Zm9.738-6.336-1.248.39-.5-1.563-2.7.85.848 2.59 1.053-.339-.331-1.028 1.044-.34 1.01 3.118-1.052.34-.348-1.088-1.036.408.764 2.387 1.138-.365.322 1.002-3.608 1.122-.323-1.011.926-.298-1.928-5.946-.925.297-.297-1.036 6.368-2.056.849 2.549-.026.017Zm8.49-1.487-1.332.23-.297-1.7-1.316.179 1.01 6.116 1.112-.187.17 1.045-3.812.637-.178-1.002 1.12-.187-1.027-6.159-1.29.221.288 1.7-1.342.229-.475-2.83L54.295 10l.467 2.82h.043Zm16.158 3.976A2.607 2.607 0 0 1 69.57 18.8a3.903 3.903 0 0 1-2.547.298 3.582 3.582 0 0 1-2.743-1.7 4.946 4.946 0 0 1-.399-3.304c.098-.731.34-1.436.713-2.072a3.007 3.007 0 0 1 1.02-1.045c.331-.226.698-.396 1.086-.501.488-.099.99-.099 1.477 0 .44.056.866.183 1.266.373.399.207.723.534.925.935l.17-.782 1.29.213-.535 3.032-1.4-.238a2.175 2.175 0 0 0-.204-1.597 1.827 1.827 0 0 0-1.342-.849 1.9 1.9 0 0 0-1.927.756 4.597 4.597 0 0 0-.85 2.064 5.099 5.099 0 0 0 0 2.2 1.817 1.817 0 0 0 1.572 1.41 1.899 1.899 0 0 0 1.434-.271 1.767 1.767 0 0 0 .73-1.232l1.656.306Zm7.31 5.683-1.96-.748c.093-.739.16-1.334.212-1.784.1-.564.083-1.142-.051-1.699a.57.57 0 0 0-.204-.263 1.581 1.581 0 0 0-.34-.17l-.22-.17-.748-.289-.849 2.32.909.348-.416 1.019-3.345-1.283.373-.985.943.365 2.25-5.87-.943-.365.374-.985 3.786 1.478c.394.135.768.32 1.113.552.223.164.413.369.56.603a1.7 1.7 0 0 1 .289.943c0 .352-.065.7-.195 1.028-.176.479-.52.878-.968 1.121a1.986 1.986 0 0 1-1.512.136c.326.144.595.392.764.705a2.55 2.55 0 0 1 0 1.053l-.144 1.7.645.246-.382.985.06.009Zm0-6.507c.07-.188.102-.387.094-.586a1.208 1.208 0 0 0-.17-.57.85.85 0 0 0-.322-.314 4.018 4.018 0 0 0-.544-.255l-.985-.373-.976 2.548.764.297c.236.092.48.16.73.204.209.01.417-.033.603-.127.192-.068.362-.185.493-.34.135-.15.244-.323.322-.51l-.008.026Zm7.82 11.365-2.878-1.809.56-.85.85.536.348-1.623-2.632-1.699-1.24 1.02.85.535-.561.9-2.7-1.699.56-.9.57.357 6.24-4.74 1.63 1.028-1.596 7.645.569.357-.56.892-.01.05Zm-.849-4.841.85-3.5-2.82 2.234 1.962 1.232.008.034Zm9.918 5.708-.85-.875 1.087-1.19-2.063-1.953-1.868 1.954.798.756.739-.782.849.756-2.25 2.379-.798-.756.781-.85-.798-.756-1.698 1.827.849.85-.722.772-2.742-2.6.721-.764.705.671 4.313-4.57-.704-.67.721-.765 4.865 4.604-1.936 1.962Zm5.196 7.195-.79-1.104 1.435-1.028-.764-1.07-5.078 3.627.654.917-.849.612-2.25-3.152.85-.611.662.925 5.094-3.618-.764-1.07-1.427 1.019-.79-1.105 2.327-1.698L102.7 33.7l-2.326 1.699h-.017ZM71.285 46.06h-7.54v-2.081h2.25V32.672l-.119.11c-.27.253-.554.491-.849.714-.187.136-.373.272-.552.417l-2.105 1.46V32.58a53.358 53.358 0 0 0 1.935-1.402 31.602 31.602 0 0 0 1.868-1.529h2.98v14.33h2.132v2.082Zm12.133-4.485a6.417 6.417 0 0 1-.17 1.614 3.55 3.55 0 0 1-.747 1.316 4.677 4.677 0 0 1-2.335 1.487 7.818 7.818 0 0 1-2.225.323 5.94 5.94 0 0 1-3.897-1.198 4.57 4.57 0 0 1-1.554-3.687h3.142c-.042.689.156 1.37.56 1.929a2.3 2.3 0 0 0 1.885.781c.339-.016.667-.121.951-.306.3-.159.555-.393.739-.68a3.05 3.05 0 0 0 .458-1.698 4.404 4.404 0 0 0-.17-1.232 2.77 2.77 0 0 0-.585-1.028 1.41 1.41 0 0 0-.688-.399 3.72 3.72 0 0 0-.85-.102h-1.018v-2.056a3.683 3.683 0 0 0 2.292-.62 2.548 2.548 0 0 0 .85-2.132 2.669 2.669 0 0 0-.527-1.699 1.92 1.92 0 0 0-1.596-.756 1.875 1.875 0 0 0-1.698.85 3.399 3.399 0 0 0-.484 1.92h-3.1c0-.4.046-.8.137-1.19a4.027 4.027 0 0 1 1.876-2.846 6.561 6.561 0 0 1 3.396-.849 8.757 8.757 0 0 1 1.902.204 4.015 4.015 0 0 1 1.698.85 3.968 3.968 0 0 1 1.206 1.715c.193.505.293 1.04.297 1.58a4.878 4.878 0 0 1-.365 2.09 3.66 3.66 0 0 1-1.46 1.427 3.39 3.39 0 0 1-.705.297c-.251.082-.506.15-.764.204a5.092 5.092 0 0 1 2.004.629c.55.387.97.932 1.205 1.563a4.81 4.81 0 0 1 .34 1.699ZM32.458 75.409c-1.699.283-3.371.583-5.018.9-.433-2.149-.799-3.89-1.07-5.224-.527-2.548-1.036-4.247-1.563-4.918a1.341 1.341 0 0 0-.696-.527 2.854 2.854 0 0 0-.9-.102h-.56l-1.902.068v8.571l2.318-.416v3.483a174.95 174.95 0 0 0-8.567 2.302v-4.07l2.411-.526V51.802a73.608 73.608 0 0 1-2.411-.535v-4.06c3.226.942 6.453 1.8 9.688 2.548 1.02.208 2.008.551 2.938 1.02.67.371 1.28.844 1.808 1.4a6.576 6.576 0 0 1 1.443 2.55 10.3 10.3 0 0 1 .467 3.074 7.046 7.046 0 0 1-1.18 4.163 4.644 4.644 0 0 1-3.277 1.962 3.395 3.395 0 0 1 2.3 1.155c.508.876.85 1.838 1.011 2.837.348 1.572.722 3.135 1.095 4.672.544-.076 1.096-.135 1.656-.203v3.024h.009ZM26.896 57.57a5.947 5.947 0 0 0-.28-1.86 4.757 4.757 0 0 0-.849-1.589 2.437 2.437 0 0 0-.993-.713 8.367 8.367 0 0 0-1.503-.357l-2.547-.459v9.43l1.952.05a6.408 6.408 0 0 0 1.809-.195c.526-.14.996-.436 1.35-.85.375-.436.65-.95.806-1.503a7.027 7.027 0 0 0 .255-1.954Zm25.973-1.784c-.67 0-1.35 0-2.012-.05V65.98c.014.73-.029 1.46-.128 2.183-.08.48-.22.947-.416 1.393a7.644 7.644 0 0 1-2.963 3.55 7.388 7.388 0 0 1-2.012.85c-.75.23-1.521.389-2.301.476a9.833 9.833 0 0 1-2.148-.077 6.872 6.872 0 0 1-1.987-.56 4.687 4.687 0 0 1-1.477-1.096 7.738 7.738 0 0 1-1.164-1.775c-.34-.7-.559-1.453-.645-2.226a30.477 30.477 0 0 1-.127-3.143V54.707l-2.013-.22v-2.982c2.78.39 5.562.733 8.347 1.028v2.726l-2.497-.195V65.58c-.014.877.02 1.753.102 2.625.09.604.304 1.182.629 1.7a3.083 3.083 0 0 0 1.392 1.29c.611.269 1.28.38 1.944.323.33-.013.655-.07.968-.17.213-.076.527-.23.934-.424a3.006 3.006 0 0 0 1.146-1.13c.307-.51.545-1.058.705-1.631.099-.335.156-.68.17-1.028V55.582l-2.462-.127v-2.659c2.666.181 5.326.323 7.98.425v2.548l.035.017Zm16.641 17.89a302.97 302.97 0 0 0-15.546-.179V70.95h2.343V55.871h-2.343v-2.548c3.068.062 6.139.062 9.212 0v2.548h-3.022V70.89c1.992 0 3.99.028 5.994.085v-4.63h3.396v7.271l-.034.06Zm18.153 1.945a240.327 240.327 0 0 0-16.59-1.911V71.16l2.326.12V55.488l-2.326.11v-2.608c5.53-.424 11.06-1.044 16.59-1.86v7.484l-3.082.187v-4.248a310.36 310.36 0 0 1-7.344.663v6.6h2.938v-2.913l2.666-.136v8.783l-2.666-.119v-2.811h-2.938v6.88c2.445.195 4.89.408 7.344.671v-4.536l3.082.178v7.807Zm16.693-4.901a14.02 14.02 0 0 1-.298 3.21 8.789 8.789 0 0 1-.916 2.277 3.897 3.897 0 0 1-2.429 2.14 5.54 5.54 0 0 1-2.717-.11 7.53 7.53 0 0 1-2.691-1.265 6.344 6.344 0 0 1-2.021-2.727v2.438l-3.133-.629v-8.783l3.303.204a10.546 10.546 0 0 0 .79 4.417 3.94 3.94 0 0 0 2.878 2.463 2.427 2.427 0 0 0 2.3-.586 4.154 4.154 0 0 0 .986-3.075 5.713 5.713 0 0 0-.552-2.608 6.038 6.038 0 0 0-2.42-2.191 64.217 64.217 0 0 0-2.547-1.436c-.85-.45-1.486-.773-1.826-.994a6.795 6.795 0 0 1-2.887-5.844c.004-1.027.156-2.049.45-3.033.197-.683.459-1.346.781-1.979a6.946 6.946 0 0 1 1.852-2.276 7.122 7.122 0 0 1 2.86-1.368 5.516 5.516 0 0 1 2.726-.06 3.02 3.02 0 0 1 1.894 1.87v-2.55c1.044-.288 2.08-.594 3.133-.9V57.91l-3.244.323v-.969a7.54 7.54 0 0 0-.9-4.026 2.343 2.343 0 0 0-2.632-1.037c-.484.087-.95.256-1.375.502-.42.261-.758.635-.977 1.078a5.803 5.803 0 0 0-.679 2.88 3.084 3.084 0 0 0 .985 2.379 8.069 8.069 0 0 0 2.02 1.189c.85.382 1.614.85 2.438 1.232.823.382 1.103.543 1.171.594.674.43 1.28.957 1.8 1.563.49.563.867 1.215 1.113 1.92.271.81.471 1.643.594 2.489.138.885.204 1.78.195 2.676l-.025.017ZM27.075 86.452H24.79V85.5h2.284v.952Zm32.629 2.183h-1.698l-.501-.535-.085.068c-.256.193-.543.34-.85.433-.325.093-.662.139-1.001.136a3.478 3.478 0 0 1-.85-.085 1.785 1.785 0 0 1-.67-.306l-.161-.196-.162-.152a1.579 1.579 0 0 1-.348-.612 2.468 2.468 0 0 1-.11-.739c-.01-.414.122-.818.373-1.147.25-.328.577-.59.951-.764l-.118-.11a2.07 2.07 0 0 1-.493-.655 1.802 1.802 0 0 1-.187-.79 1.343 1.343 0 0 1 .612-1.113c.37-.264.819-.395 1.273-.373.437-.025.87.094 1.231.34a1.334 1.334 0 0 1 .527 1.146c.006.196-.02.39-.077.578a1.76 1.76 0 0 1-.297.518 2.315 2.315 0 0 1-.365.39 3.54 3.54 0 0 1-.441.323l1.307 1.462c.222-.33.34-.717.34-1.113h-.578v-.782h2.276v.782h-.739c0 .32-.051.639-.153.943a3.72 3.72 0 0 1-.45.9l.484.578h.96v.875Zm-3.397-5.411a.85.85 0 0 0-.178-.544.635.635 0 0 0-.518-.212.849.849 0 0 0-.526.17.637.637 0 0 0-.195.492.95.95 0 0 0 .11.45c.136.25.311.476.518.671l.076-.05c.176-.115.338-.25.484-.4a.893.893 0 0 0 .23-.577Zm.502 4.17-1.495-1.792a1.7 1.7 0 0 0-.56.518 1.309 1.309 0 0 0-.204.748c-.004.213.055.423.17.603.128.179.305.317.51.4.07.027.144.047.22.059h.263c.21-.007.417-.062.603-.162.2-.082.377-.21.518-.374h-.026Zm37.256-.942h-2.3V85.5h2.283v.952h.017Zm-58.008.399a1.76 1.76 0 0 1-.246.909 1.597 1.597 0 0 1-.679.637 1.756 1.756 0 0 1-.705.204h-3.939v-.85h.772V82.74h-.772v-.849h3.396c.314-.01.628.02.934.093.206.063.4.164.569.298.18.153.32.349.407.569.094.238.143.491.145.747a1.41 1.41 0 0 1-1.316 1.538 1.308 1.308 0 0 1 1.07.51c.258.335.396.748.39 1.172l-.026.034Zm-1.426-3.1c.006-.19-.031-.38-.11-.553a.705.705 0 0 0-.382-.348 1.09 1.09 0 0 0-.323-.068H32.55v1.97h.748c.172.012.346.012.518 0a.942.942 0 0 0 .467-.178c.225-.225.353-.53.357-.85l-.009.026Zm.136 2.921a.977.977 0 0 0-.425-.849.993.993 0 0 0-.373-.136 2.544 2.544 0 0 0-.459 0h-.968v2.166h.85c.216.006.433-.014.645-.06.137-.04.265-.11.373-.203a.934.934 0 0 0 .264-.365c.06-.157.089-.325.084-.493l.009-.06Zm8.898 1.963h-2.717v-.85h.798l-.416-1.215h-2.488l-.433 1.215h.807v.85h-2.547v-.85h.535l2.207-5.87h1.537l2.182 5.87h.535v.85ZM41 85.738l-.917-2.735-.96 2.71 1.877.025Zm9.026 2.897h-1.699a86.028 86.028 0 0 0-.356-1.385 3.4 3.4 0 0 0-.518-1.274.458.458 0 0 0-.238-.136.98.98 0 0 0-.297 0h-.85v1.988h.773v.85h-2.827v-.85h.85v-5.089h-.85v-.849h3.244c.33-.01.661.022.985.093.213.06.415.158.594.29.215.156.38.371.475.62.114.268.17.557.162.849a1.7 1.7 0 0 1-.4 1.138 1.545 1.545 0 0 1-1.078.527c.286.012.56.123.773.314.165.229.28.489.34.765l.365 1.3h.552v.849Zm-1.86-4.86a1.277 1.277 0 0 0-.093-.466.969.969 0 0 0-.289-.374.85.85 0 0 0-.331-.145 3.807 3.807 0 0 0-.501 0h-.85v2.192h.663c.202.002.404-.014.603-.051.166-.04.32-.118.45-.23a.959.959 0 0 0 .272-.399c.053-.161.079-.33.076-.5v-.026ZM67.83 86.8c.009.23-.023.46-.093.68-.07.189-.174.364-.306.518-.209.289-.507.501-.849.603-.293.096-.6.141-.908.136a2.546 2.546 0 0 1-.9-.145 1.282 1.282 0 0 1-.671-.577v.62h-1.019v-2.353h1.104c-.022.38.07.758.263 1.087a1.077 1.077 0 0 0 .968.484c.274.01.544-.074.764-.238a.849.849 0 0 0 .331-.73.85.85 0 0 0-.187-.57 1.893 1.893 0 0 0-.806-.466l-.85-.332a7.42 7.42 0 0 1-.602-.238 2.054 2.054 0 0 1-.526-.399 1.545 1.545 0 0 1-.442-1.147c0-.27.052-.539.153-.79.064-.173.152-.336.263-.484.153-.218.365-.39.611-.493.304-.126.63-.187.96-.178a2.6 2.6 0 0 1 .917.144c.269.093.495.28.636.527v-.56h1.053v2.208H66.59v-.204a1.377 1.377 0 0 0-.306-.934 1.095 1.095 0 0 0-.85-.348 1.822 1.822 0 0 0-.466.05.756.756 0 0 0-.323.23 1.055 1.055 0 0 0-.229.688.73.73 0 0 0 .331.612c.209.134.434.24.67.314l.85.314.399.136c.212.09.412.207.594.348.157.102.287.239.382.4.084.165.15.338.196.518.044.18.064.366.06.552l-.069.017Zm7.328 1.835h-2.87v-.85h.849v-2.183h-2.717v2.14h.849v.85H68.33v-.85h.764V82.74h-.764v-.849h2.87v.85h-.85v2.013h2.735v-2.014h-.85v-.849h2.87v.85h-.772v5.028h.773v.85l.05.017Zm7.098-3.398v.544c-.018.29-.078.576-.179.849a6.43 6.43 0 0 1-.271.62 2.874 2.874 0 0 1-.382.535 2.794 2.794 0 0 1-1.062.714c-.42.156-.867.234-1.316.23a3.861 3.861 0 0 1-1.341-.222 2.83 2.83 0 0 1-1.673-1.826 4.342 4.342 0 0 1-.204-1.283 5.307 5.307 0 0 1 .17-1.427c.117-.424.33-.816.62-1.147.293-.337.663-.6 1.078-.764.42-.17.87-.257 1.325-.255a3.055 3.055 0 0 1 2.403.968c.585.68.89 1.559.849 2.455l-.017.009Zm-1.393 0a5.42 5.42 0 0 0-.085-.951 2.166 2.166 0 0 0-.254-.774 1.75 1.75 0 0 0-2.378-.603 1.87 1.87 0 0 0-.628.68c-.124.23-.207.48-.246.739-.05.303-.074.61-.068.917-.025.607.097 1.21.356 1.759a1.554 1.554 0 0 0 1.47.866 1.614 1.614 0 0 0 1.239-.569c.13-.147.236-.313.314-.493a2.87 2.87 0 0 0 .187-.56 2.29 2.29 0 0 0 .076-.416v-.672l.017.077Zm7.413-1.24c.007.321-.048.642-.162.942-.113.29-.3.545-.543.74-.228.182-.5.3-.79.34a5.73 5.73 0 0 1-.849 0h-.849v1.75h.985v.849H83.01v-.85h.79V82.74h-.79v-.849h3.167c.309-.006.616.026.917.093.265.087.503.242.688.45.189.197.334.432.425.689.095.272.141.56.135.85l-.067.025Zm-1.317 0a1.767 1.767 0 0 0-.076-.535.95.95 0 0 0-.67-.63 2.43 2.43 0 0 0-.553-.05h-.645v2.395h.645c.226.013.452-.007.671-.06a.74.74 0 0 0 .331-.22.97.97 0 0 0 .221-.425c.05-.168.077-.342.076-.518v.043Z"/>
        <path fill-rule="evenodd" d="M44.786 48.226a11.554 11.554 0 0 1-8.575-9.56 11.566 11.566 0 0 1 5.544-11.585 11.55 11.55 0 0 1 12.82.69 11.56 11.56 0 0 1 4.271 12.113 11.554 11.554 0 0 1-9.556 8.588 11.54 11.54 0 0 1-4.504-.246Zm10.112-19.988a33.924 33.924 0 0 1-2.411 7.424l.849.629c.34.255.67.518.993.781 1.384-2.506 2.887-3.236 4.245-3.287.068.22.128.442.179.67-1.223 0-2.624.663-3.906 3.033a21.933 21.933 0 0 1 3.456 3.61c-.094.23-.187.46-.289.68a19.958 19.958 0 0 0-3.464-3.695 18.052 18.052 0 0 0-1.367 5.768c-.1 1.172-.31 2.333-.628 3.466a11.11 11.11 0 0 1-.85.356c.47-1.251.757-2.565.85-3.899.141-2.113.65-4.185 1.502-6.124l-1.078-.85-.738-.543c-2.106 4.45-5.29 8.834-9.476 11.043a7.896 7.896 0 0 1-.705-.366c4.246-2.072 7.489-6.498 9.612-10.983v-.077c-.637-.433-1.3-.849-1.987-1.265-1.885 3.194-8.015 4.502-12.43 5.436l-.552.12c-.06-.213-.12-.417-.162-.63l.578-.127c4.245-.9 10.265-2.174 12.014-5.097a25.118 25.118 0 0 0-8.49-3.109 14.762 14.762 0 0 0-2.65-.17c.136-.22.28-.441.433-.645.773.002 1.545.059 2.31.17a25.99 25.99 0 0 1 8.711 3.177c.85-1.946.204-3.831-.849-5.42a15.197 15.197 0 0 0-2.318-2.548c.289-.034.572-.06.85-.077a14.824 14.824 0 0 1 1.977 2.285c1.18 1.733 1.902 3.857.884 6.066.679.396 1.333.812 1.96 1.248a32.572 32.572 0 0 0 2.378-7.45l.57.442v-.042Z" clip-rule="evenodd"/>
        <path fill-rule="evenodd" stroke="#000" stroke-miterlimit="22.93" stroke-width=".46" d="M59.025 39.935a11.761 11.761 0 0 0-4.354-12.314 11.747 11.747 0 0 0-17.638 4.349 11.761 11.761 0 0 0 7.702 16.46 11.747 11.747 0 0 0 14.29-8.495ZM36.66 34.218a11.341 11.341 0 0 1 9.372-8.417 11.33 11.33 0 0 1 11.36 5.441 11.345 11.345 0 0 1-5.981 16.48 11.33 11.33 0 0 1-6.574.292 11.344 11.344 0 0 1-6.941-5.206 11.354 11.354 0 0 1-1.236-8.59Z" clip-rule="evenodd"/>
    </g>
    <defs>
        <clipPath id="a">
            <path fill="#fff" d="M14.5 10h90v79h-90z"/>
        </clipPath>
    </defs>
</svg>