<svg width="119" height="119" viewBox="0 0 119 119" fill="none" xmlns="http://www.w3.org/2000/svg">
<rect width="119" height="119" rx="59.5" fill="white"/>
<g clip-path="url(#clip0_3298_19762)">
<path fill-rule="evenodd" clip-rule="evenodd" d="M60.3921 9.00979C60.3431 9.03014 59.259 9.06484 57.9831 9.08706C55.8429 9.12418 54.895 9.18717 52.9867 9.4187C51.1443 9.64238 50.8764 9.68262 50.7321 9.75792C50.6472 9.80227 50.0958 9.92682 49.507 10.0348C48.0601 10.3001 47.834 10.3482 47.0209 10.5641C46.6349 10.6666 46.2904 10.7327 46.2553 10.7109C46.1641 10.6545 45.3774 10.8824 44.9566 11.0871C44.7603 11.1825 44.399 11.312 44.1536 11.3747C43.6658 11.4994 42.5607 11.8759 41.7892 12.1803C41.5193 12.2868 41.1727 12.4053 41.019 12.4437C40.8652 12.4821 40.6043 12.5853 40.439 12.6732C39.6929 13.07 39.1045 13.3399 38.9858 13.3399C38.7267 13.3399 37.6874 13.8468 35.8113 14.8881C34.7562 15.4738 33.6923 16.0609 33.4469 16.1929C32.5838 16.6572 31.8872 17.0774 31.5313 17.3486C30.3139 18.2765 29.1855 19.1124 28.7181 19.4328C27.3077 20.3996 26.9022 20.7317 25.154 22.3515C24.7569 22.7195 24.0914 23.3186 23.6752 23.6828C23.2591 24.047 22.8825 24.4084 22.8384 24.4858C22.7943 24.5633 22.5634 24.8351 22.3254 25.0897C22.0874 25.3444 21.8926 25.5977 21.8926 25.6526C21.8926 25.7076 21.8513 25.7269 21.8009 25.6958C21.6853 25.6243 21.4151 25.936 21.1418 26.4559C21.0256 26.6768 20.6953 27.1037 20.4078 27.4046C20.1203 27.7054 19.6442 28.2845 19.3497 28.6913C19.0553 29.098 18.6782 29.5745 18.5117 29.7501C18.3452 29.9256 18.0772 30.2733 17.9161 30.5229C17.755 30.7724 17.3982 31.2902 17.1231 31.6737C16.848 32.0571 16.4921 32.6364 16.3321 32.9611C16.1721 33.2858 15.8327 33.862 15.5777 34.2414C15.0744 34.9907 14.2712 36.5522 13.8531 37.5942C13.6012 38.2221 13.2559 38.9575 12.8678 39.6928C12.6621 40.0824 12.2868 41.0552 12.1486 41.5566C12.0979 41.7407 12.0244 41.8912 11.9852 41.8912C11.9008 41.8912 11.2538 43.8992 11.0508 44.7909C10.9727 45.1344 10.834 45.6363 10.7428 45.9062C10.3289 47.1296 9.66379 50.3456 9.39577 52.4195C9.29744 53.1801 9.16816 54.1437 9.10847 54.5608C8.93404 55.7792 8.98106 63.7661 9.17048 65.0891C9.25131 65.6534 9.37703 66.6371 9.44983 67.275C9.52264 67.913 9.66201 68.6659 9.75944 68.9483C9.85946 69.238 9.93672 69.6947 9.93672 69.9963C9.93672 70.2976 10.014 70.755 10.1138 71.0443C10.2827 71.534 10.4452 72.2292 10.5256 72.8058C10.5718 73.1371 10.6365 73.3558 10.7901 73.6991C11.0516 74.2835 11.3643 75.2031 11.3643 75.3876C11.3643 75.6038 11.7157 76.7069 11.8071 76.7773C11.8692 76.8251 12.2015 77.767 12.5165 78.788C12.6309 79.1588 12.7817 79.4604 12.8848 79.5248C12.9809 79.5848 13.0595 79.6741 13.0595 79.7233C13.0595 79.8084 13.804 81.4312 14.1026 81.9968C14.1803 82.144 14.3629 82.5012 14.5083 82.7906C14.6537 83.0799 14.9226 83.5617 15.1057 83.8613C15.2889 84.1608 15.5677 84.6378 15.7254 84.9213C16.1219 85.6346 16.3886 86.0605 17.1712 87.2307C17.5434 87.787 18.03 88.5241 18.2526 88.8686C18.4751 89.213 18.7267 89.5526 18.8117 89.6231C18.8968 89.6936 19.1086 89.974 19.2825 90.246C19.5751 90.7037 20.7601 92.1185 21.4143 92.7913C21.5683 92.9497 21.8161 93.2474 21.9649 93.4528C22.1137 93.6581 22.4393 93.9885 22.6885 94.1869C22.9378 94.3853 23.1417 94.5834 23.1417 94.6269C23.1417 94.7519 25.4663 97.0209 25.863 97.2832C26.0593 97.4129 26.3002 97.6048 26.3983 97.7094C26.4965 97.8141 26.8965 98.1337 27.2872 98.4198C27.678 98.7053 28.2 99.1461 28.4471 99.3986C28.6943 99.6511 29.1628 100.005 29.4883 100.186C29.8138 100.367 30.2554 100.665 30.4697 100.849C30.684 101.034 30.9773 101.237 31.1214 101.3C31.2655 101.362 31.5265 101.527 31.7014 101.664C31.8762 101.801 32.1799 101.996 32.3762 102.096C32.5725 102.196 32.9008 102.438 33.1056 102.633C33.3105 102.829 33.6718 103.061 33.9086 103.149C34.1454 103.238 34.6135 103.489 34.9489 103.708C35.4981 104.066 36.2681 104.443 36.7481 104.59C36.8463 104.621 37.2076 104.795 37.5511 104.978C38.4012 105.429 38.8321 105.646 39.2018 105.807C41.105 106.639 41.7325 106.882 42.4592 107.071C42.9265 107.192 43.5992 107.374 43.9542 107.475C44.3092 107.577 44.9001 107.74 45.2673 107.839C45.6345 107.937 46.2137 108.116 46.5543 108.235C46.895 108.354 47.3017 108.451 47.4581 108.451C47.6145 108.451 48.3071 108.611 48.9972 108.806C49.8168 109.037 50.5991 109.193 51.2532 109.255C51.8041 109.307 52.2882 109.37 52.3291 109.395C52.37 109.421 52.9162 109.499 53.5427 109.568C54.1692 109.639 54.983 109.747 55.3511 109.81C55.7466 109.877 56.458 109.909 57.0909 109.888C58.6849 109.835 59.6025 109.845 60.3386 109.923C60.7359 109.966 61.3931 109.954 61.9892 109.893C62.5339 109.837 63.7023 109.728 64.5856 109.651C65.4689 109.574 66.445 109.453 66.7548 109.383C67.0646 109.312 67.5062 109.253 67.7362 109.252C67.9662 109.251 68.4356 109.192 68.7791 109.118C69.1225 109.046 69.529 108.986 69.6824 108.986C69.8356 108.986 70.1369 108.924 70.3515 108.847C70.5663 108.771 71.0832 108.627 71.5004 108.528C71.9175 108.429 72.6 108.227 73.0171 108.08C73.4343 107.933 73.9562 107.778 74.177 107.736C74.9121 107.598 75.2743 107.484 75.5074 107.316C75.6345 107.225 76.1801 107.018 76.7199 106.858C77.784 106.54 79.3234 105.92 80.7349 105.239C81.9985 104.63 82.814 104.258 82.8864 104.258C82.9206 104.258 83.0924 104.148 83.2683 104.014C83.4441 103.88 83.8293 103.656 84.1243 103.517C84.688 103.251 85.4483 102.793 85.7041 102.564C85.7873 102.489 86.0483 102.33 86.2841 102.209C86.8159 101.936 88.9779 100.428 89.687 99.8358C89.8668 99.685 90.1546 99.4664 90.3263 99.3495C91.0238 98.8739 92.4558 97.6381 92.9584 97.0775C93.2528 96.7492 93.637 96.4065 93.8122 96.3159C94.3109 96.0583 94.8016 95.6107 95.6826 94.6102C96.1307 94.1013 96.6116 93.5939 96.7513 93.4827C96.8911 93.3715 97.0948 93.1306 97.204 92.9473C97.3133 92.7642 97.5333 92.4737 97.693 92.302C97.8526 92.1302 98.1734 91.7087 98.4055 91.3652C98.6375 91.0216 98.9596 90.6001 99.1211 90.4283C99.7662 89.7414 100.953 88.1111 101.614 87.0039C101.998 86.3601 102.606 85.3602 102.967 84.7819C103.326 84.2035 103.726 83.521 103.853 83.2651C103.982 83.0092 104.217 82.5789 104.378 82.3091C104.538 82.0392 104.719 81.6577 104.78 81.4614C104.842 81.2651 104.949 81.0395 105.018 80.9599C105.087 80.8804 105.278 80.499 105.442 80.1123C105.605 79.7257 105.832 79.2533 105.945 79.0626C106.058 78.8718 106.181 78.5506 106.219 78.3488C106.294 77.9439 106.814 76.4402 107.025 76.0189C107.215 75.6391 108.034 73.3717 108.249 72.6284C108.605 71.3973 108.955 69.6119 109.285 67.3446C109.4 66.5487 109.523 65.853 109.557 65.7988C109.59 65.7445 109.651 65.1712 109.692 64.5247C109.733 63.8782 109.805 62.9879 109.853 62.5462C110.008 61.0903 109.848 54.8925 109.648 54.5675C109.606 54.501 109.542 53.9747 109.506 53.3979C109.44 52.3658 109.246 51.2772 108.657 48.6207C108.493 47.8808 108.352 47.0778 108.344 46.8363C108.324 46.2767 108.19 45.7228 108.029 45.5431C107.96 45.4661 107.866 45.1973 107.818 44.9459C107.77 44.6945 107.547 44.0506 107.322 43.5151C107.098 42.9795 106.84 42.2445 106.748 41.8817C106.597 41.2823 105.797 39.3032 105.197 38.0461C105.066 37.7713 104.959 37.4988 104.959 37.4402C104.959 37.2838 104.607 36.6107 104.417 36.4025C104.207 36.1722 103.799 35.407 103.799 35.2429C103.799 35.1737 103.578 34.7928 103.308 34.3965C103.038 34.0002 102.818 33.6607 102.818 33.6423C102.818 33.6079 102.036 32.4049 101.597 31.7644C101.463 31.5681 101.246 31.1867 101.115 30.9168C100.985 30.6469 100.768 30.3257 100.633 30.203C100.499 30.0804 100.232 29.7507 100.041 29.4704C99.8491 29.1902 99.4824 28.7086 99.2255 28.4002C98.7285 27.8047 98.3565 27.2877 98.3565 27.1939C98.3565 27.1303 97.5137 26.2383 95.6356 24.3143C94.285 22.9306 92.588 21.3342 91.9323 20.8307C91.7115 20.6611 91.5108 20.5001 91.4862 20.4728C91.4617 20.4456 91.1003 20.1526 90.6832 19.8219C90.2661 19.4912 89.7843 19.1037 89.6125 18.9607C89.2033 18.6203 87.7692 17.6427 86.9805 17.1665C86.3089 16.7611 85.2463 16.089 84.8832 15.84C84.7603 15.7557 84.0175 15.3535 83.2326 14.9463C82.4477 14.5392 81.7372 14.1354 81.6537 14.049C81.5702 13.9626 81.3494 13.8441 81.163 13.7855C80.9766 13.727 80.6608 13.6028 80.4613 13.5096C80.2618 13.4162 80.0366 13.3399 79.9607 13.3399C79.8848 13.3399 79.5663 13.2249 79.2527 13.0843C78.9393 12.9437 78.462 12.7591 78.1921 12.6741C77.9222 12.589 77.6357 12.4442 77.5554 12.3524C77.4751 12.2605 77.2141 12.143 76.9754 12.0914C76.1675 11.9164 75.5607 11.7043 75.4013 11.5414C75.2263 11.3624 75.1207 11.3309 74.2494 11.1984C73.9211 11.1486 73.465 11.0273 73.2359 10.9291C73.0068 10.8309 72.3557 10.6675 71.7892 10.5661C71.2226 10.4647 70.6749 10.3294 70.5721 10.2655C70.406 10.1623 69.9515 10.0678 69.2675 9.99428C69.1435 9.9809 68.7821 9.90103 68.4645 9.81663C68.1467 9.73232 67.5255 9.63087 67.0838 9.59126C66.6422 9.55164 65.7589 9.45082 65.1209 9.36722C64.483 9.28371 63.8607 9.20608 63.738 9.19484C63.6153 9.1836 63.4748 9.16147 63.4257 9.14568C63.3766 9.12989 62.8748 9.11356 62.3104 9.10936C61.7461 9.10517 61.1037 9.07278 60.8829 9.03727C60.662 9.00185 60.4412 8.98945 60.3921 9.00979ZM63.2919 10.0387C63.3921 10.0923 63.5124 10.1124 63.5595 10.0834C63.6637 10.019 67.2486 10.4383 67.4016 10.5328C67.4657 10.5724 68.2175 10.6959 69.2698 10.8396C69.5888 10.8831 70.1107 11 70.4297 11.0994C70.7487 11.1988 71.3911 11.3638 71.8572 11.466C72.3234 11.5683 72.8454 11.7053 73.0171 11.7704C73.4756 11.9444 73.9075 12.066 74.3109 12.1346C74.5072 12.168 74.8083 12.2677 74.98 12.3562C75.1518 12.4446 75.473 12.5659 75.6938 12.6258C76.1706 12.7549 76.6728 12.9398 77.1758 13.1712C77.3774 13.264 77.6199 13.3399 77.7145 13.3399C77.8092 13.3399 78.0441 13.4202 78.2367 13.5184C78.4292 13.6165 78.6508 13.6968 78.7292 13.6968C78.8076 13.6968 78.9496 13.7558 79.0449 13.8278C79.1401 13.8999 79.2783 13.9603 79.3519 13.962C79.6077 13.9682 84.2877 16.3815 84.4017 16.566C84.4335 16.6175 84.6496 16.7476 84.882 16.8553C85.1145 16.963 85.5813 17.2343 85.9195 17.4583C86.2577 17.6822 86.8154 18.0416 87.1589 18.2568C87.5024 18.4721 88.0996 18.8892 88.4859 19.1838C88.8723 19.4784 89.334 19.8157 89.512 19.9334C89.69 20.0511 90.0966 20.3752 90.4156 20.6535C90.7345 20.9317 91.0933 21.2258 91.2128 21.307C91.7367 21.6628 96.2244 26.0378 96.9104 26.8615C97.1114 27.1026 97.5123 27.5949 97.779 27.9279C97.897 28.0751 98.2156 28.4562 98.4867 28.7749C98.7589 29.0935 98.981 29.4024 98.981 29.4612C98.981 29.5201 99.0542 29.6209 99.1434 29.6849C99.2326 29.7491 99.5734 30.203 99.9018 30.6938C100.229 31.1845 100.678 31.8395 100.899 32.1493C101.12 32.4592 101.301 32.7364 101.301 32.7655C101.301 32.7945 101.401 32.9498 101.524 33.1107C101.646 33.2716 101.747 33.4611 101.747 33.532C101.747 33.6029 101.81 33.7133 101.887 33.7774C101.965 33.8414 102.115 34.0538 102.222 34.2493C102.329 34.4448 102.516 34.7788 102.639 34.9916C102.761 35.2045 102.997 35.6294 103.162 35.936C103.327 36.2424 103.497 36.5313 103.541 36.578C103.585 36.6246 103.621 36.7132 103.621 36.7748C103.621 36.8364 103.721 37.0362 103.845 37.2188C103.969 37.4014 104.095 37.6542 104.126 37.7805C104.155 37.9067 104.227 38.0702 104.285 38.1439C104.489 38.4028 105.29 40.2458 105.468 40.8651C105.496 40.9633 105.57 41.1038 105.632 41.1774C105.693 41.251 105.804 41.5321 105.876 41.802C105.949 42.0719 106.097 42.5135 106.205 42.7834C106.313 43.0533 106.433 43.3946 106.471 43.5418C106.511 43.689 106.644 44.0705 106.769 44.3894C106.894 44.7084 107.024 45.1286 107.056 45.3232C107.089 45.5177 107.166 45.7787 107.229 45.9031C107.291 46.0275 107.411 46.4505 107.494 46.8431C107.577 47.2356 107.683 47.6801 107.729 47.8308C107.776 47.9815 107.814 48.1909 107.814 48.2961C107.814 48.4013 107.872 48.6595 107.943 48.8698C108.108 49.3568 108.756 53.4784 108.88 54.8285C109.218 58.5142 109.181 62.5846 108.784 65.2675C108.737 65.5865 108.663 66.0884 108.622 66.3828C108.444 67.6155 108.342 68.2152 108.166 69.0595C108.064 69.5502 107.982 70.032 107.984 70.1302C107.987 70.2283 107.912 70.5897 107.819 70.9332C107.726 71.2767 107.54 71.9904 107.407 72.5191C107.274 73.0479 107.131 73.502 107.088 73.5281C107.046 73.5544 107.011 73.6753 107.011 73.7971C107.011 73.9188 106.932 74.1737 106.834 74.3636C106.738 74.5535 106.631 74.883 106.598 75.0961C106.564 75.3092 106.322 76.0225 106.06 76.6812C105.798 77.34 105.583 77.9177 105.583 77.9652C105.583 78.0581 105.314 78.671 105.039 79.2039C104.946 79.3854 104.87 79.5754 104.87 79.6262C104.87 79.7328 104.175 81.2411 103.89 81.7514C103.843 81.8372 103.743 82.0481 103.67 82.2198C103.496 82.6238 103.022 83.4691 102.87 83.6446C102.805 83.7197 102.696 83.8865 102.628 84.0153C102.499 84.2612 101.927 85.2408 101.45 86.0358C100.88 86.9831 100.291 87.8607 100.041 88.1348C99.8991 88.2895 99.784 88.4593 99.784 88.5124C99.784 88.5655 99.6386 88.7672 99.4619 88.9605C99.2844 89.1538 99.0015 89.5131 98.832 89.7587C98.0996 90.8212 96.0555 93.1686 94.5613 94.6632C93.66 95.5646 92.4119 96.7302 92.0343 97.0228C91.8064 97.1995 91.4996 97.4525 91.3524 97.5851C90.1511 98.6669 88.9396 99.6181 88.7634 99.6181C88.7084 99.6181 88.5805 99.7082 88.4793 99.8188C88.2196 100.103 85.6048 101.849 85.4398 101.849C85.4038 101.849 85.1437 102.009 84.8615 102.205C84.5794 102.401 84.0173 102.734 83.6124 102.944C83.2075 103.154 82.7156 103.43 82.5193 103.555C82.3231 103.681 82.0144 103.833 81.8334 103.892C81.6525 103.952 81.4116 104.073 81.2981 104.162C81.1847 104.25 80.871 104.412 80.6011 104.519C80.3312 104.626 79.9096 104.811 79.6642 104.929C78.5383 105.471 75.4458 106.643 74.5823 106.857C74.388 106.905 74.107 106.996 73.9577 107.059C73.5641 107.227 73.0189 107.401 72.6603 107.474C72.4885 107.509 71.9465 107.639 71.4557 107.762C70.13 108.096 69.7269 108.186 69.136 108.28C68.8415 108.326 68.4802 108.403 68.333 108.45C68.1857 108.497 67.6839 108.579 67.2177 108.631C66.7515 108.684 66.2697 108.764 66.147 108.81C66.0243 108.854 65.3618 108.932 64.6748 108.981C63.9878 109.031 63.0844 109.102 62.6673 109.141C61.4912 109.248 56.6042 109.215 55.2618 109.091C53.5752 108.935 52.0181 108.732 51.336 108.58C51.0171 108.509 50.6184 108.451 50.4502 108.451C50.2819 108.451 50.0209 108.414 49.8702 108.367C49.7195 108.322 49.2549 108.216 48.8378 108.134C48.4207 108.052 47.8385 107.912 47.5441 107.824C47.2496 107.736 46.7879 107.614 46.518 107.556C46.2481 107.497 45.8065 107.374 45.5366 107.283C45.2667 107.191 44.6199 106.999 44.0994 106.855C43.5788 106.711 42.8962 106.493 42.5826 106.37C42.2689 106.248 41.9119 106.119 41.7892 106.083C41.6665 106.048 41.4056 105.936 41.2093 105.835C41.013 105.733 40.6717 105.582 40.4509 105.499C39.2135 105.031 36.3437 103.66 35.4544 103.11C35.2827 103.005 34.9351 102.82 34.6819 102.701C34.4288 102.581 34.1976 102.444 34.1682 102.396C34.1241 102.325 32.877 101.559 32.5508 101.403C32.3417 101.303 30.3822 99.9428 29.9672 99.61C29.7219 99.4128 29.4072 99.1907 29.268 99.1166C29.0312 98.9899 27.4771 97.7063 26.6581 96.9611C26.4576 96.7786 25.9389 96.3081 25.5055 95.9155C25.0721 95.5229 24.5336 95.0059 24.3088 94.7665C24.084 94.5271 23.4824 93.9048 22.972 93.3835C22.4616 92.8623 21.8274 92.1648 21.5628 91.8334C21.2982 91.5021 20.8426 90.9616 20.5503 90.6324C20.258 90.3031 20.0189 89.9834 20.0189 89.9221C20.0189 89.8607 19.7976 89.5625 19.5272 89.2595C19.2568 88.9564 18.8653 88.4387 18.6573 88.1092C18.4493 87.7796 18.0913 87.2274 17.8618 86.8818C17.6324 86.5363 17.3608 86.0989 17.2583 85.9096C17.1559 85.7205 16.8717 85.2645 16.6269 84.8965C16.3821 84.5285 16.1579 84.1671 16.1289 84.0935C16.0402 83.8692 16.0031 83.7976 15.7367 83.3351C15.5954 83.0898 15.3814 82.6833 15.261 82.432C15.1407 82.1807 15.0006 81.9492 14.9497 81.9177C14.8987 81.8862 14.8085 81.7105 14.7491 81.5271C14.6899 81.3438 14.3858 80.6613 14.0734 80.0105C13.7612 79.3596 13.5056 78.7563 13.5056 78.6697C13.5056 78.583 13.4442 78.4246 13.3692 78.3174C13.2942 78.2103 13.0957 77.7497 12.9282 77.2938C12.7606 76.8379 12.5371 76.2441 12.4314 75.9742C12.3257 75.7043 12.2088 75.343 12.1716 75.1712C12.1344 74.9995 11.9763 74.4575 11.8202 73.9667C11.3972 72.6358 11.2016 71.9503 11.1457 71.6023C11.1181 71.4306 11.0368 71.0893 10.9651 70.8439C10.8486 70.4456 10.5971 69.2446 10.3671 67.9888C10.3223 67.7435 10.2411 67.3018 10.187 67.0074C10.1328 66.7129 10.0786 66.2914 10.0665 66.0705C10.0544 65.8497 10.0232 65.5687 9.99721 65.446C9.93886 65.1707 9.77443 63.2127 9.70876 62.0109C9.64559 60.8552 9.6447 57.707 9.70724 57.1161C9.73401 56.8639 9.7755 56.3163 9.7995 55.8992C9.89113 54.3077 10.3749 50.5996 10.5607 50.0641C10.6101 49.9218 10.6499 49.6809 10.6493 49.5288C10.6485 49.3765 10.7326 48.971 10.836 48.6275C11.0233 48.0055 11.0916 47.7401 11.2611 46.9769C11.5448 45.698 12.3704 43.0784 12.6836 42.463C12.7812 42.2712 12.9029 41.9737 12.9541 41.802C13.1697 41.0779 13.5328 40.1414 13.6486 40.0105C13.7172 39.933 13.7733 39.8169 13.7733 39.7524C13.7733 39.6879 13.9194 39.3296 14.098 38.9564C14.2766 38.5831 14.493 38.1171 14.5788 37.9208C15.0456 36.8532 16.3506 34.4414 16.7052 33.9905C16.8102 33.8571 16.8961 33.698 16.8961 33.637C16.8961 33.576 16.9618 33.4716 17.0421 33.405C17.1224 33.3383 17.2582 33.1226 17.3437 32.9256C17.5259 32.5062 18.4965 31.1534 20.229 28.904C20.5336 28.5085 21.1429 27.7738 21.5831 27.2713C22.0232 26.7687 22.475 26.2291 22.5871 26.072C22.7902 25.7875 24.4508 24.142 25.9251 22.7642C27.0017 21.7581 28.236 20.723 29.0381 20.1535C29.7865 19.6221 31.6638 18.2595 32.0548 17.9639C32.2705 17.8007 32.6562 17.5468 32.9118 17.3996C33.1675 17.2524 33.5062 17.0516 33.6647 16.9535C35.3762 15.8937 38.6192 14.2265 39.6456 13.8789C39.9635 13.7713 40.3248 13.6292 40.4487 13.5633C40.7902 13.3815 41.8629 12.9831 42.0109 12.9831C42.0826 12.9831 42.313 12.908 42.5229 12.8164C42.7327 12.7248 43.2659 12.5399 43.7075 12.4056C44.1492 12.2713 44.744 12.0795 45.0293 11.9793C45.3147 11.8791 45.6961 11.7668 45.877 11.7297C46.0578 11.6926 46.547 11.577 46.9641 11.4726C47.3812 11.3683 47.9835 11.2217 48.3025 11.1468C48.6214 11.072 49.0229 10.9747 49.1947 10.9307C49.3665 10.8867 49.6877 10.8265 49.9085 10.7972C50.1293 10.7678 50.4859 10.6842 50.701 10.6113C51.0761 10.4843 52.4102 10.3129 54.5034 10.1227C55.0432 10.0737 55.8061 10.0015 56.1987 9.96224C57.2545 9.85678 63.069 9.91942 63.2919 10.0387ZM57.8956 10.9142C57.8803 10.9295 57.3719 10.9587 56.7656 10.979C54.7666 11.0461 52.8667 11.267 50.9904 11.6503C50.285 11.7944 49.5945 11.9124 49.4559 11.9124C49.3173 11.9124 48.8907 12.0086 48.5079 12.1262C48.125 12.2438 47.6422 12.3645 47.4351 12.3945C47.228 12.4244 46.7261 12.5501 46.3199 12.6734C45.9135 12.7969 45.3804 12.9562 45.1351 13.0274C44.8897 13.0985 44.167 13.3158 43.5291 13.51C42.8911 13.7043 42.2688 13.8913 42.1461 13.9255C42.0234 13.9598 41.6933 14.103 41.4126 14.2438C41.1318 14.3846 40.8441 14.4998 40.7733 14.4998C40.7025 14.4998 40.3426 14.6598 39.9736 14.8553C39.6046 15.0508 39.0322 15.3126 38.7017 15.4369C38.371 15.5614 38.0435 15.7106 37.9737 15.7685C37.9039 15.8264 37.2986 16.1595 36.6283 16.5086C34.2345 17.7558 30.7178 20.0425 29.335 21.2512C29.0448 21.5049 28.6188 21.8462 28.3883 22.0096C27.7323 22.4749 26.6787 23.3901 26.4628 23.682C26.355 23.8278 25.9908 24.1847 25.6535 24.4749C24.7796 25.227 21.9944 28.2891 21.0345 29.5529C20.9307 29.6897 20.7111 30.0023 20.5467 30.2477C20.3823 30.493 20.0858 30.8995 19.888 31.1509C19.6901 31.4025 19.207 32.1185 18.8144 32.7422C18.4218 33.3659 17.9971 34.0033 17.8707 34.1586C17.6588 34.4191 16.5644 36.374 16.1643 37.207C16.0701 37.4033 15.9381 37.6643 15.8711 37.787C15.6298 38.2289 14.9177 39.7138 14.7586 40.1068C14.3438 41.1308 14.0202 41.9552 13.9528 42.1589C13.9122 42.2816 13.8102 42.5827 13.7262 42.828C13.6421 43.0734 13.4768 43.5753 13.3588 43.9433C13.2408 44.3114 12.9636 45.1746 12.7429 45.8616C12.5221 46.5486 12.3168 47.2713 12.2866 47.4676C12.2564 47.6639 12.1948 47.8965 12.1497 47.9845C12.1046 48.0725 12.0103 48.494 11.94 48.9213C11.8698 49.3486 11.7727 49.8989 11.7243 50.1443C11.36 51.99 11.1755 53.1662 11.0875 54.2039C11.0314 54.8664 10.9649 55.6293 10.9399 55.8992C10.8425 56.9465 10.8847 62.647 10.9973 63.6615C11.1479 65.0183 11.2587 65.9083 11.3585 66.5613C11.4035 66.8557 11.5026 67.5241 11.5787 68.0466C11.6548 68.5691 11.781 69.185 11.8592 69.4152C11.9374 69.6454 12.0401 70.0812 12.0875 70.3835C12.135 70.6858 12.2519 71.1619 12.3472 71.4415C12.4426 71.7211 12.5841 72.2571 12.6618 72.6327C12.7393 73.0082 12.9233 73.6427 13.0707 74.0427C13.218 74.4426 13.4542 75.111 13.5956 75.5281C14.0502 76.8688 14.2279 77.3476 14.4401 77.8033C14.5544 78.0487 14.8161 78.6108 15.0216 79.0524C15.2271 79.4941 15.4475 80.0245 15.5113 80.2312C15.5751 80.4379 15.7465 80.8006 15.8922 81.0371C16.0377 81.2737 16.2444 81.6653 16.3514 81.9072C16.4584 82.1492 16.6002 82.4088 16.6664 82.4842C16.7327 82.5597 16.9002 82.8422 17.0387 83.1121C17.1771 83.382 17.4574 83.8638 17.6614 84.1827C17.8655 84.5017 18.0593 84.8493 18.0922 84.9551C18.1251 85.061 18.2906 85.322 18.46 85.5351C18.6294 85.7482 18.7684 85.9656 18.7689 86.018C18.7694 86.0706 18.9044 86.2713 19.069 86.4641C19.2335 86.657 19.4349 86.9444 19.5164 87.103C19.598 87.2614 19.8412 87.6077 20.0568 87.8725C20.2725 88.1373 20.5089 88.4693 20.5823 88.6104C20.6557 88.7515 20.8242 88.9673 20.9567 89.09C21.0893 89.2127 21.321 89.4937 21.4717 89.7145C21.784 90.1721 22.3697 90.8474 23.5878 92.1535C24.054 92.6535 24.6027 93.2427 24.8072 93.4629C25.8352 94.5702 29.1725 97.5661 29.3779 97.5661C29.4196 97.5661 29.6943 97.7568 29.9882 97.9899C30.2821 98.2226 30.7139 98.5545 30.9477 98.7258C31.1815 98.898 31.5986 99.2085 31.8745 99.4164C32.1505 99.6243 32.8179 100.061 33.3577 100.385C33.8975 100.711 34.5054 101.093 34.7084 101.233C34.9116 101.374 35.1838 101.529 35.3134 101.578C35.4429 101.627 35.9259 101.885 36.3864 102.151C36.8471 102.417 37.313 102.663 37.4219 102.698C37.5306 102.732 37.8488 102.895 38.1288 103.059C38.4088 103.224 38.8752 103.445 39.1652 103.552C39.4552 103.659 40.123 103.942 40.6491 104.181C41.1754 104.419 41.6545 104.615 41.714 104.615C41.7734 104.615 41.9957 104.698 42.2079 104.801C42.42 104.904 43.0048 105.121 43.5075 105.285C44.3272 105.551 44.6709 105.666 45.5812 105.973C45.7284 106.022 46.0697 106.114 46.3396 106.177C46.6095 106.239 47.1917 106.397 47.6333 106.527C48.3436 106.737 49.4184 106.955 50.9792 107.204C51.2491 107.247 51.8112 107.344 52.2283 107.421C52.6454 107.496 53.1547 107.559 53.3601 107.559C53.5654 107.559 53.8386 107.599 53.967 107.648C54.3464 107.792 56.9282 107.926 59.2769 107.922C61.3011 107.919 63.7333 107.773 65.344 107.558C65.712 107.509 66.3544 107.432 66.7716 107.388C67.1887 107.343 67.631 107.268 67.7546 107.22C67.8782 107.173 68.2797 107.087 68.6468 107.03C69.632 106.877 70.7891 106.608 71.9465 106.262C72.5108 106.093 73.1934 105.914 73.4633 105.863C73.7332 105.813 74.215 105.674 74.5339 105.557C74.8529 105.438 75.2945 105.282 75.5154 105.21C76.738 104.809 79.1174 103.815 79.9377 103.363C80.2901 103.168 80.6229 103.009 80.6773 103.009C80.7316 103.009 81.2802 102.737 81.8965 102.406C83.6816 101.447 84.1836 101.157 84.9621 100.636C85.1889 100.484 85.6754 100.19 86.0433 99.9812C86.4111 99.7724 86.913 99.4316 87.1586 99.2237C87.4041 99.0149 87.8291 98.7026 88.103 98.5286C88.3768 98.3547 88.8111 98.0255 89.068 97.7973C89.325 97.5691 89.6831 97.2885 89.8639 97.1735C90.0446 97.0587 90.2728 96.8735 90.3709 96.762C90.4691 96.6503 90.6625 96.4894 90.8009 96.4041C91.0457 96.2531 91.7194 95.6261 93.6173 93.7821C94.3989 93.0227 95.3542 91.9825 97.1479 89.9376C97.4965 89.5401 97.9424 88.9776 98.3788 88.3841C98.5385 88.1677 98.8338 87.7662 99.0363 87.4919C99.2389 87.2176 99.5101 86.7839 99.6386 86.5281C99.7671 86.2723 99.9865 85.931 100.125 85.7697C100.535 85.2931 100.918 84.6925 101.403 83.763C101.653 83.2823 101.928 82.7886 102.013 82.6659C102.167 82.4421 103.456 79.8582 103.906 78.8676C104.183 78.2578 104.719 76.8779 104.855 76.4204C104.906 76.2486 105.136 75.5861 105.366 74.9482C105.886 73.5034 106.204 72.4117 106.519 70.9778C106.655 70.3644 106.861 69.4867 106.978 69.0275C107.094 68.5681 107.189 68.0462 107.19 67.8676C107.191 67.6889 107.254 67.342 107.33 67.0966C107.407 66.8512 107.504 66.2691 107.546 65.8029C107.588 65.3367 107.692 64.2326 107.777 63.3492C108.1 60.0061 107.882 54.3654 107.32 51.5719C107.251 51.2284 107.134 50.6462 107.062 50.2781C106.989 49.9101 106.867 49.3279 106.792 48.9844C106.716 48.641 106.654 48.2711 106.654 48.1625C106.654 48.054 106.551 47.6525 106.425 47.2703C106.214 46.6296 105.953 45.7097 105.633 44.4787C105.563 44.2088 105.302 43.4861 105.054 42.8727C104.807 42.2592 104.604 41.6971 104.603 41.6235C104.602 41.5499 104.527 41.3688 104.437 41.221C104.347 41.0731 104.202 40.7318 104.115 40.4626C104.027 40.1933 103.865 39.7922 103.754 39.5714C103.643 39.3506 103.389 38.8286 103.19 38.4115C102.637 37.2566 101.373 34.9429 101.016 34.4361C100.842 34.1879 100.671 33.8963 100.637 33.788C100.602 33.6798 100.286 33.1637 99.9339 32.6413C99.5815 32.1188 99.1523 31.4804 98.981 31.2224C98.6348 30.7022 98.181 30.1094 97.5088 29.2983C97.2634 29.0023 96.9157 28.5728 96.7361 28.344C96.5565 28.1151 95.9442 27.4285 95.3754 26.8182C94.8067 26.2078 94.3413 25.6803 94.3413 25.6461C94.3413 25.5734 90.6792 22.2415 89.9103 21.6146C89.6238 21.3811 89.0482 20.9313 88.6311 20.6152C88.214 20.299 87.7523 19.9428 87.605 19.8236C87.4577 19.7044 87.1365 19.4962 86.8913 19.361C86.6459 19.2257 86.2645 18.9922 86.0436 18.8421C84.3542 17.6935 83.5989 17.2433 81.8948 16.369C81.355 16.092 80.7929 15.8008 80.6457 15.7217C80.0368 15.3949 78.3783 14.6541 77.8798 14.4864C77.5853 14.3872 77.224 14.2339 77.0768 14.1455C76.9296 14.0571 76.7087 13.957 76.586 13.9229C76.4634 13.8889 76.1622 13.7862 75.9169 13.6948C75.6715 13.6033 74.989 13.4029 74.4001 13.2493C73.8112 13.0957 73.1487 12.9182 72.9279 12.8547C72.7071 12.7911 72.2454 12.6582 71.9019 12.5591C71.5583 12.4599 71.0765 12.3359 70.8312 12.2835C70.5858 12.2311 69.9635 12.0892 69.4482 11.9683C68.933 11.8473 68.13 11.6867 67.6638 11.6111C65.0422 11.1862 64.6387 11.1376 63.0242 11.0517C61.7696 10.9849 57.9276 10.882 57.8956 10.9142ZM62.132 12.6709C62.4019 12.6889 63.1045 12.7268 63.6934 12.7551C64.2822 12.7834 65.1053 12.8644 65.5224 12.9352C65.9396 13.006 66.7626 13.1283 67.3515 13.2071C68.4191 13.3499 70.3109 13.7443 71.4111 14.0535C71.7301 14.143 72.3926 14.3222 72.8833 14.4515C73.374 14.5809 73.9473 14.765 74.1571 14.8609C74.367 14.9568 74.5924 15.0352 74.658 15.0352C74.8376 15.0352 76.8055 15.7998 78.1474 16.3909C78.9331 16.7371 81.9502 18.2344 82.0814 18.3431C82.1352 18.3878 82.4564 18.5685 82.7953 18.7448C83.1343 18.921 83.9737 19.4373 84.6607 19.8919C85.3477 20.3464 86.0346 20.7948 86.1872 20.888C86.5738 21.1246 87.1101 21.5124 87.8104 22.062C89.0024 22.9975 89.472 23.3889 90.1383 24.0022C90.5116 24.3459 91.3289 25.0838 91.9546 25.6421C92.5804 26.2003 93.0922 26.6841 93.0922 26.717C93.0922 26.7499 93.518 27.2366 94.0384 27.7985C95.3829 29.2501 96.9504 31.1595 97.5873 32.1213C97.7497 32.3667 98.1049 32.8762 98.377 33.2537C98.6482 33.6311 98.9632 34.1329 99.0756 34.3689C99.188 34.6049 99.4673 35.0791 99.6966 35.4226C99.9259 35.7661 100.255 36.3282 100.427 36.6717C100.6 37.0152 100.972 37.7167 101.254 38.2308C101.535 38.7448 101.844 39.3671 101.941 39.6137C102.037 39.8603 102.167 40.1424 102.23 40.2406C102.293 40.3387 102.395 40.5796 102.456 40.7759C102.518 40.9722 102.679 41.3938 102.815 41.7128C103.613 43.5825 103.872 44.3016 104.248 45.6832C104.354 46.0757 104.578 46.8276 104.745 47.354C104.912 47.8803 105.05 48.4223 105.053 48.5585C105.055 48.6946 105.136 49.1472 105.233 49.5644C105.39 50.2413 105.525 50.959 105.766 52.3749C105.807 52.6202 105.904 53.4032 105.981 54.1147C106.057 54.8263 106.14 55.4887 106.166 55.5869C106.264 55.9703 106.304 61.1688 106.216 62.234C106.045 64.3226 105.777 66.6499 105.68 66.9016C105.627 67.0398 105.583 67.2994 105.583 67.4786C105.583 67.6578 105.484 68.2072 105.364 68.6997C105.244 69.192 105.042 70.0566 104.916 70.6209C104.565 72.1928 104.441 72.6401 104.068 73.6545C103.879 74.1697 103.683 74.7318 103.632 74.9036C103.423 75.6152 102.58 77.8271 102.461 77.9818C102.422 78.0308 102.28 78.352 102.144 78.6955C101.916 79.2736 101.502 80.1028 101.122 80.7477C101.035 80.8949 100.935 81.1125 100.898 81.2313C100.863 81.3501 100.695 81.6622 100.527 81.9248C100.359 82.1874 100.149 82.5721 100.061 82.7795C99.8277 83.3225 99.1853 84.3512 98.8383 84.7377C98.6741 84.9203 98.4207 85.3058 98.2753 85.5943C98.1295 85.8829 97.9145 86.2355 97.7974 86.3777C97.6803 86.5199 97.4503 86.8371 97.2862 87.0825C97.1222 87.3278 96.8442 87.6957 96.6684 87.8999C96.4927 88.1041 96.1481 88.5168 95.9027 88.8169C94.766 90.2069 93.6402 91.4193 91.9001 93.1268C90.8628 94.1447 89.9822 94.9779 89.9433 94.9781C89.9044 94.9784 89.6836 95.1509 89.4526 95.3612C89.2216 95.5716 88.872 95.8606 88.6757 96.0034C88.4794 96.1462 88.098 96.4511 87.8281 96.6809C87.5582 96.9109 87.2169 97.1611 87.0697 97.2372C86.9225 97.3133 86.5215 97.601 86.1787 97.8764C85.8358 98.152 85.2938 98.5224 84.9742 98.6991C84.6545 98.8766 84.2324 99.1282 84.0361 99.2585C83.8398 99.3888 83.4934 99.6189 83.2662 99.7706C83.0391 99.9214 82.758 100.074 82.6417 100.11C82.5253 100.145 82.3097 100.263 82.1625 100.371C81.8097 100.632 80.4113 101.352 79.8212 101.577C79.5639 101.676 79.2026 101.85 79.0182 101.965C78.8336 102.079 78.4419 102.267 78.1474 102.382C77.853 102.497 77.5715 102.622 77.5219 102.66C77.4453 102.717 76.0592 103.249 74.98 103.635C74.8083 103.696 74.3586 103.861 73.9808 104.002C73.603 104.143 73.2139 104.258 73.1161 104.258C73.0183 104.258 72.4785 104.397 71.9166 104.567C70.7814 104.912 70.2031 105.048 68.5358 105.367C67.9112 105.485 67.3617 105.607 67.3146 105.636C67.2675 105.665 66.8551 105.728 66.3981 105.776C65.941 105.823 65.2659 105.903 64.8979 105.952C61.3996 106.421 55.3847 106.336 52.3621 105.775C52.0677 105.721 51.5973 105.641 51.3169 105.599C51.0365 105.556 50.7744 105.501 50.7344 105.476C50.6945 105.451 50.3217 105.387 49.906 105.333C49.0817 105.226 46.597 104.586 45.3135 104.151C45.1663 104.101 44.7447 103.961 44.3767 103.839C44.0086 103.718 43.5068 103.537 43.2614 103.439C43.016 103.34 42.501 103.144 42.1168 103.005C41.7327 102.866 41.3714 102.712 41.3138 102.665C41.2564 102.618 40.7919 102.411 40.2816 102.205C39.3402 101.825 36.9441 100.629 36.5113 100.322C36.3811 100.229 36.243 100.153 36.2045 100.153C36.0558 100.153 33.4149 98.5162 32.8223 98.056C32.4788 97.7896 32.0372 97.4617 31.8409 97.3275C31.6446 97.1933 31.2833 96.9169 31.0379 96.7133C30.7925 96.5098 30.4713 96.2789 30.3241 96.2003C30.1769 96.1216 29.8893 95.9049 29.6851 95.7188C29.4808 95.5326 29.0058 95.1192 28.6295 94.8002C27.3723 93.7345 24.4735 90.7947 23.7249 89.8261C23.4878 89.5194 23.2682 89.2684 23.2369 89.2684C23.2057 89.2684 22.9647 88.9673 22.7015 88.5992C22.4383 88.2312 22.1898 87.9301 22.1493 87.9301C22.1088 87.9301 22.0085 87.7996 21.9264 87.6401C21.8443 87.4806 21.6183 87.1695 21.4242 86.9486C21.2301 86.7278 20.9896 86.3865 20.8898 86.1902C20.7901 85.9939 20.61 85.7129 20.4896 85.5657C20.1692 85.1735 19.6867 84.4023 18.9036 83.0308C18.7564 82.7729 18.4998 82.3344 18.3333 82.0563C18.1668 81.7782 17.973 81.4302 17.9027 81.283C17.8323 81.1358 17.6958 80.8748 17.5992 80.703C17.4029 80.3538 17.2549 80.0405 16.7358 78.874C16.5391 78.4323 16.2137 77.706 16.0126 77.2598C15.8115 76.8137 15.6467 76.3921 15.6464 76.3229C15.6461 76.2539 15.5816 76.0769 15.5029 75.9296C15.4243 75.7824 15.2467 75.3207 15.1083 74.9036C14.9699 74.4865 14.7382 73.824 14.5935 73.4314C14.4489 73.0388 14.303 72.5369 14.2694 72.3161C14.2357 72.0953 14.1126 71.5934 13.9957 71.2008C13.8789 70.8083 13.7215 70.1859 13.6461 69.8179C13.5706 69.4498 13.4479 68.9291 13.3734 68.6608C13.2989 68.3926 13.238 67.9824 13.238 67.7494C13.238 67.5165 13.1817 67.1539 13.1128 66.9436C13.044 66.7333 12.9648 66.3204 12.937 66.0259C12.8522 65.1301 12.818 64.824 12.6619 63.5723C12.4704 62.0353 12.4322 58.4113 12.5873 56.4791C12.6502 55.6939 12.7404 54.5355 12.7875 53.9049C12.8347 53.2741 12.9124 52.6317 12.9602 52.4773C13.0081 52.3228 13.1109 51.8351 13.1888 51.3934C13.2667 50.9518 13.3689 50.4097 13.4161 50.1889C13.4633 49.9681 13.528 49.5666 13.5599 49.2967C13.5918 49.0268 13.6669 48.6849 13.727 48.5368C13.7869 48.3888 13.8646 48.0773 13.8995 47.8445C13.9343 47.6118 14.064 47.1307 14.1875 46.7753C14.3109 46.42 14.5444 45.6876 14.7061 45.1478C15.0723 43.9258 15.4076 42.9484 15.7773 42.025C15.9345 41.6325 16.1566 41.0704 16.2707 40.7759C16.3849 40.4815 16.6552 39.8993 16.8714 39.4822C17.0875 39.0651 17.3476 38.5632 17.4494 38.3669C17.5512 38.1706 17.6943 37.8896 17.7674 37.7424C18.2793 36.7125 18.9982 35.3934 19.129 35.2441C19.2151 35.146 19.4367 34.8248 19.6216 34.5303C20.5169 33.1043 21.5062 31.6858 22.134 30.9282C22.2712 30.7626 22.4671 30.4917 22.5694 30.326C22.7482 30.0367 23.4989 29.1551 24.6811 27.8461C25.3393 27.1173 26.5478 25.8905 27.2682 25.2196C27.5505 24.9568 27.7813 24.7097 27.7813 24.6704C27.7813 24.6311 28.0623 24.3905 28.4058 24.1359C28.7493 23.8813 29.0304 23.6376 29.0304 23.5944C29.0304 23.5512 29.1599 23.449 29.318 23.3672C29.4763 23.2853 29.928 22.9382 30.3218 22.5957C30.7156 22.2533 31.1784 21.8787 31.3502 21.7634C31.5219 21.648 32.084 21.2542 32.5993 20.8882C33.1146 20.5222 33.8172 20.052 34.1607 19.8432C36.1909 18.6093 36.9592 18.158 37.0297 18.158C37.0734 18.158 37.5499 17.9123 38.0885 17.6122C38.6272 17.3121 39.3782 16.9475 39.7573 16.8022C40.1364 16.6569 40.5899 16.4408 40.7649 16.3219C40.9401 16.2031 41.1428 16.1058 41.2154 16.1058C41.2881 16.1058 41.621 15.9681 41.9554 15.7998C42.2896 15.6315 42.8205 15.4273 43.1353 15.3462C43.45 15.265 43.9886 15.0875 44.3321 14.9517C44.6756 14.8159 45.1172 14.6615 45.3135 14.6088C45.5098 14.556 45.9515 14.4261 46.295 14.32C46.6385 14.2139 47.2407 14.0564 47.6333 13.97C48.0259 13.8837 48.588 13.7493 48.8824 13.6714C49.1769 13.5935 49.7189 13.4862 50.0869 13.4329C50.7525 13.3365 51.0963 13.2819 52.6298 13.0293C53.0714 12.9566 53.6777 12.8963 53.9771 12.8954C54.2765 12.8945 54.6378 12.8542 54.7801 12.8058C55.3755 12.6031 59.879 12.5204 62.132 12.6709ZM57.563 14.756C56.8621 14.8353 56.7751 14.9417 57.0218 15.4172C57.1986 15.758 57.2095 15.858 57.1371 16.4748C57.0932 16.8494 56.9915 17.3112 56.9112 17.5008C56.6055 18.2225 56.0714 20.0056 55.7923 21.2362C55.5484 22.311 55.2642 22.894 54.8034 23.2643C54.4403 23.5561 54.3456 23.8949 54.6 23.9925C54.8408 24.085 57.3152 24.0523 57.4983 23.9543C57.7421 23.8239 57.7179 23.7237 57.314 23.1887C57.1177 22.9287 56.9571 22.6591 56.9571 22.5896C56.9571 22.52 56.8988 22.298 56.8277 22.0963C56.7148 21.7766 56.7147 21.674 56.8268 21.2968C56.8975 21.0587 57.0259 20.8025 57.1123 20.7272C57.3287 20.539 59.4391 20.4242 59.6583 20.5889C59.8895 20.7624 60.0681 21.3883 60.1334 22.2535L60.193 23.0422L59.9097 23.2517C59.7243 23.3888 59.6354 23.5237 59.6524 23.6423C59.6776 23.8181 59.7302 23.823 61.3663 23.8042C62.2953 23.7935 63.0926 23.7463 63.1397 23.6992C63.2947 23.5442 63.1191 23.1726 62.7968 22.9732C62.3617 22.7044 62.2401 22.4896 61.8992 21.3875C61.5139 20.1421 60.8224 18.0767 60.564 17.3995C60.4088 16.993 60.3534 16.6413 60.3338 15.9395C60.3194 15.4277 60.2622 14.9526 60.2056 14.8751C60.1245 14.7643 59.892 14.7314 59.0878 14.7168C58.5293 14.7067 57.8431 14.7243 57.563 14.756ZM58.7314 16.7629C58.8551 16.9118 59.1375 17.7588 59.3192 18.5256C59.4503 19.0786 59.4488 19.0993 59.2664 19.251C59.1207 19.3721 58.9122 19.4071 58.3354 19.4071C57.9076 19.4071 57.5673 19.367 57.5336 19.3124C57.5014 19.2603 57.5581 19.0248 57.6595 18.7891C57.761 18.5532 57.8892 18.0639 57.9444 17.7015C58.0752 16.8444 58.439 16.4105 58.7314 16.7629ZM85.9096 24.2254C85.7694 24.3803 85.7616 24.45 85.8512 24.7488C86.0526 25.4211 85.9932 25.6537 85.3448 26.7339C85.0095 27.2924 84.5653 28.0903 84.3578 28.5069C84.1502 28.9235 83.9231 29.3278 83.8531 29.4051C83.783 29.4826 83.6075 29.8644 83.4631 30.2536C83.3186 30.6429 83.1006 31.2023 82.9787 31.4968C82.8567 31.7912 82.7289 32.223 82.6948 32.4564C82.6401 32.8308 82.6608 32.9175 82.8706 33.1925C83.1489 33.5574 83.2039 33.5649 83.7794 33.3166C84.5904 32.9667 85.1952 32.6897 85.4191 32.5655C85.5418 32.4975 85.883 32.3151 86.1775 32.1602C86.4719 32.0053 86.8406 31.7826 86.9968 31.6654C87.153 31.5481 87.3237 31.4522 87.376 31.4522C87.529 31.4522 87.4857 31.6791 87.3008 31.8464C87.207 31.9312 87.1042 32.1081 87.0723 32.2395C87.0404 32.3708 86.9236 32.6187 86.813 32.7905C86.5602 33.1828 85.6533 35.0528 85.5194 35.4582C85.3678 35.9167 85.3941 36.057 85.696 36.4009C85.9518 36.6924 86.0113 36.7163 86.4791 36.7163C86.9345 36.7163 87.0343 36.6792 87.4736 36.3466C87.7422 36.1433 88.1293 35.902 88.3338 35.8103C88.5383 35.7187 88.8796 35.4978 89.0922 35.3194C89.3048 35.1411 89.8401 34.7556 90.2817 34.463C90.7234 34.1703 91.27 33.7646 91.4965 33.5615C91.9304 33.1721 92.5573 32.6554 92.8596 32.438C92.9587 32.3669 93.3225 32.2866 93.6683 32.2595C94.2252 32.2162 94.2999 32.1887 94.3241 32.0186C94.3566 31.7905 94.0387 31.4092 93.1856 30.6528C92.812 30.3216 92.5249 30.1317 92.4446 30.1625C92.2621 30.2326 92.1108 30.5987 92.1108 30.9701C92.1108 31.1419 92.0516 31.3969 91.9794 31.5367C91.8664 31.7552 91.0771 32.3873 90.1356 33.0136C89.988 33.1117 89.6372 33.3776 89.356 33.6044C88.8169 34.0393 88.2745 34.3591 88.2738 34.2427C88.2715 33.8871 89.2468 31.7403 89.5821 31.3629C89.6911 31.2403 89.9954 30.7585 90.2583 30.2923C90.7162 29.4803 90.7502 29.4435 91.0667 29.417C91.3388 29.3941 91.3969 29.3548 91.3966 29.1939C91.3955 28.7558 90.599 27.851 89.8961 27.4892C89.4945 27.2825 89.3449 27.4133 89.3449 27.9713C89.3449 28.3579 89.3072 28.4326 88.9076 28.8386C88.2847 29.4713 85.3819 31.2722 85.2298 31.1202C85.1122 31.0025 85.3506 30.2909 85.6604 29.8354C85.8066 29.6204 85.9674 29.323 86.0179 29.1744C86.1677 28.7341 87.1961 26.96 87.4036 26.7843C87.5553 26.6557 87.6811 26.634 88.0108 26.6794C88.333 26.7236 88.4598 26.7035 88.5735 26.5897C88.6543 26.509 88.7201 26.4157 88.7197 26.3824C88.7184 26.2399 88.3714 25.813 88.0723 25.586C87.8943 25.451 87.5851 25.1527 87.3852 24.9233C87.0723 24.5642 86.3345 24.0467 86.1355 24.0467C86.1002 24.0467 85.9985 24.1271 85.9096 24.2254ZM29.2767 26.2163C28.9694 26.4772 28.5514 26.9089 28.3475 27.1754C28.1436 27.442 27.5915 28.0538 27.1207 28.5348C26.6497 29.0158 26.2645 29.462 26.2645 29.5261C26.2645 29.6776 27.4022 30.7384 27.5646 30.7384C27.7331 30.7384 27.8188 30.3508 27.6996 30.128C27.4691 29.6971 27.6397 29.3388 28.1717 29.1366C28.5598 28.989 29.0141 29.3047 30.3495 30.65C30.9822 31.2875 31.5454 31.809 31.601 31.809C31.7315 31.809 32.8568 33.3076 32.9242 33.5712C32.9933 33.8415 32.9095 34.1399 32.684 34.4267C32.5308 34.6213 32.4243 34.6642 32.0933 34.6642C31.8711 34.6642 31.5558 34.6007 31.3925 34.5233C30.7854 34.2352 30.3807 34.5943 30.8321 35.0206C31.3404 35.5008 32.0945 35.6708 32.954 35.4988C33.3436 35.421 34.2528 34.5702 34.3896 34.1555C34.5662 33.6206 34.5296 32.7975 34.3103 32.3718C34.1178 31.998 32.9494 30.7066 32.1101 29.9399C31.8656 29.7166 31.5645 29.4167 31.4409 29.2736C31.3174 29.1304 30.9453 28.7436 30.6141 28.4139C30.0751 27.8776 30.0118 27.778 30.0118 27.4653C30.0118 26.9248 30.3162 26.7597 30.8577 27.0065C31.1451 27.1374 31.3065 27.0061 31.2305 26.7034C31.1613 26.4278 30.316 25.7419 30.0454 25.7419C29.9212 25.7419 29.607 25.9358 29.2767 26.2163ZM58.117 26.4651C57.7489 26.5098 57.267 26.5257 57.0462 26.5007C56.8253 26.4759 56.5054 26.4953 56.3355 26.544C56.1656 26.5928 55.483 26.6774 54.8188 26.7321C54.1547 26.7868 53.4759 26.8875 53.3104 26.9559C53.1449 27.0243 52.924 27.0802 52.8196 27.08C52.4451 27.0795 50.1276 27.645 49.3731 27.921C46.1203 29.1108 44.7986 29.7006 42.8768 30.8206C42.2726 31.1726 41.6905 31.4957 41.583 31.5385C41.1946 31.6932 38.8149 33.4013 38.1905 33.9736C37.8389 34.296 37.0645 35.0029 36.4699 35.5447C35.8751 36.0866 35.2143 36.7424 35.0014 37.0022C34.7885 37.2621 34.2883 37.836 33.89 38.2777C33.4916 38.7193 32.988 39.3354 32.771 39.6468C30.9961 42.1924 30.8367 42.4617 29.4223 45.3046C28.8403 46.4744 28.5051 47.3194 27.8819 49.1879C27.4438 50.5014 27.0574 51.816 27.0231 52.1092C26.9889 52.4025 26.8644 53.0313 26.7466 53.5063C26.6286 53.9814 26.5322 54.5036 26.5322 54.6668C26.5322 54.83 26.4901 55.1037 26.4387 55.2752C26.3873 55.4466 26.3054 56.5374 26.2567 57.699C26.1459 60.341 26.2872 62.9059 26.6564 64.9553C26.9436 66.549 27.2872 68.0945 27.4499 68.5242C27.5242 68.7204 27.6542 69.1219 27.7387 69.4164C27.9089 70.0094 27.9788 70.2057 28.5492 71.6916C29.089 73.0976 30.2827 75.4747 31.0358 76.6434C31.1939 76.8888 31.4281 77.2745 31.5561 77.5007C31.6841 77.7268 31.964 78.1283 32.178 78.3929C32.3919 78.6574 32.5926 78.9429 32.6238 79.0272C32.7039 79.2428 33.3368 80.0785 33.4202 80.0785C33.4582 80.0785 33.5881 80.2349 33.7087 80.4261C34.1056 81.0549 35.8716 82.9074 37.1496 84.0355C38.7391 85.4385 41.2414 87.2624 42.5476 87.9697C42.793 88.1026 43.2346 88.3487 43.5291 88.5166C43.8235 88.6845 44.2049 88.8873 44.3767 88.9674C44.5484 89.0473 45.231 89.3648 45.8935 89.6729C46.5559 89.9809 47.4392 90.3431 47.8564 90.4778C48.2735 90.6125 48.7536 90.7802 48.9232 90.8505C49.225 90.9756 50.4935 91.3394 51.2022 91.5042C54.6363 92.3027 55.7563 92.4355 59.0538 92.4357C61.6198 92.4358 62.5092 92.3846 63.8272 92.1609C64.2443 92.0902 64.8466 91.989 65.1656 91.9361C67.4753 91.5533 70.5359 90.6236 72.3756 89.7458C73.0288 89.4342 73.6121 89.1792 73.6717 89.1792C73.7314 89.1792 74.0802 88.992 74.447 88.7633C74.8138 88.5346 75.3319 88.2473 75.5984 88.1248C76.4291 87.7432 77.3917 87.1075 78.9465 85.9138C79.7712 85.2807 80.5929 84.6422 80.7726 84.495C81.7237 83.7156 83.8113 81.6237 84.2896 80.9707C84.4873 80.7008 84.8575 80.2592 85.1123 79.9893C85.3671 79.7194 85.9921 78.8688 86.5011 78.0991C87.0101 77.3294 87.5159 76.5666 87.625 76.4038C87.7341 76.2412 87.907 75.9292 88.0089 75.7105C88.1109 75.4918 88.3278 75.0903 88.4909 74.8183C88.654 74.5462 88.8388 74.163 88.9015 73.9667C88.9643 73.7704 89.2503 73.1188 89.5372 72.5185C89.824 71.9183 90.0587 71.3653 90.0587 71.2897C90.0587 71.214 90.196 70.8018 90.3638 70.3736C90.6994 69.5173 91.0086 68.606 91.1278 68.1227C91.1701 67.9509 91.2704 67.5494 91.3506 67.2304C91.674 65.9446 91.928 64.5707 91.9301 64.0951C91.9314 63.8185 91.9969 63.2564 92.0758 62.846C92.3243 61.5541 92.2612 56.36 91.9824 55.1599C91.9115 54.855 91.7682 54.0835 91.6638 53.4455C91.4025 51.8485 91.1532 50.7712 90.807 49.7428C90.7326 49.522 90.6159 49.1606 90.5477 48.9398C90.3085 48.1657 90.0555 47.4644 89.8881 47.1107C89.7952 46.9144 89.4651 46.1917 89.1545 45.5047C88.8439 44.8177 88.4787 44.0771 88.3428 43.8589C88.2069 43.6408 88.0958 43.4148 88.0958 43.3567C88.0958 43.2311 86.0049 40.0956 85.4525 39.393C85.2404 39.1231 84.8508 38.6212 84.587 38.2777C83.6599 37.0709 80.5851 34.1303 79.2327 33.157C77.4079 31.8438 76.0158 30.931 75.469 30.6892C75.2125 30.5757 74.8068 30.364 74.5675 30.2187C74.3282 30.0734 73.7711 29.803 73.3294 29.6179C72.8878 29.4328 72.4606 29.2255 72.38 29.1573C72.2994 29.0889 71.6169 28.8184 70.8632 28.5559C70.1096 28.2935 69.2118 27.9781 68.8683 27.8552C68.5248 27.7323 68.043 27.6027 67.7976 27.5674C67.5523 27.5321 67.2511 27.4535 67.1284 27.3927C66.866 27.2628 65.7739 27.025 65.0763 26.9459C64.8064 26.9153 64.144 26.8153 63.6042 26.7239C63.0644 26.6324 61.9201 26.5329 61.0613 26.5027C60.2025 26.4726 59.3393 26.4336 59.143 26.4161C58.9467 26.3986 58.485 26.4206 58.117 26.4651ZM61.1059 27.7516C61.842 27.7791 62.9261 27.8771 63.5149 27.9694C66.0448 28.3661 66.4712 28.4448 66.6861 28.5552C66.8109 28.6193 67.1721 28.7186 67.4887 28.7761C67.8054 28.8335 68.493 29.0382 69.0168 29.231C69.5407 29.4237 70.309 29.6935 70.7242 29.8304C71.1394 29.9673 71.5813 30.1463 71.7061 30.2281C71.8309 30.3098 72.2874 30.5225 72.7205 30.7008C73.1536 30.879 73.7342 31.1613 74.0108 31.3281C74.2875 31.4948 74.6689 31.6943 74.8584 31.7714C75.1686 31.8975 76.1116 32.4871 77.0768 33.1585C77.2731 33.295 77.7119 33.5993 78.0521 33.8347C78.3922 34.07 79.0515 34.6039 79.5174 35.0211C79.9832 35.4382 80.6083 35.983 80.9065 36.2316C81.5725 36.787 83.4027 38.7294 83.7397 39.2384C83.8756 39.4437 84.0628 39.6729 84.1557 39.7477C84.3811 39.9292 86.8923 43.6591 86.9804 43.9433C87.0184 44.066 87.156 44.327 87.2862 44.5233C87.4162 44.7196 87.7552 45.4021 88.0394 46.0401C88.3235 46.678 88.6311 47.3605 88.723 47.5568C88.9225 47.9829 89.2304 48.8506 89.3518 49.3284C89.3999 49.5175 89.4983 49.7865 89.5705 49.9261C89.6427 50.0658 89.7018 50.2851 89.7018 50.4134C89.7018 50.5418 89.7472 50.7316 89.8026 50.8351C89.9761 51.1595 90.1485 51.9856 90.594 54.629C90.6872 55.1817 90.7861 55.6706 90.8138 55.7154C90.8956 55.8478 90.9859 58.398 90.9753 60.2734C90.9686 61.45 90.9196 62.257 90.8243 62.7591C90.7467 63.1681 90.6831 63.7092 90.6829 63.9613C90.6826 64.4947 90.3992 66.0239 90.1928 66.6059C90.1145 66.8267 90.0142 67.2282 89.9699 67.4981C89.888 67.9975 89.5888 68.9512 89.1862 69.9963C89.0634 70.3153 88.9246 70.7168 88.8777 70.8886C88.8309 71.0603 88.6411 71.522 88.456 71.9146C88.2707 72.3072 88.0312 72.8492 87.9235 73.1191C87.8157 73.389 87.6635 73.7303 87.5851 73.8775C87.5067 74.0247 87.2876 74.4401 87.0982 74.8004C86.9087 75.1608 86.6601 75.5824 86.5457 75.7373C86.4313 75.8922 86.3166 76.0797 86.2907 76.1541C86.2009 76.4125 84.5901 78.6979 84.2165 79.097C84.0097 79.3179 83.645 79.7595 83.406 80.0785C82.8334 80.8425 80.4555 83.1918 79.5679 83.8702C79.3756 84.0173 78.6761 84.5567 78.0136 85.0689C76.6637 86.1125 76.165 86.4339 74.7737 87.157C74.2431 87.4327 73.7057 87.7395 73.5794 87.8388C73.4533 87.9381 73.2948 88.0193 73.2273 88.0193C73.1599 88.0193 72.5731 88.2744 71.9234 88.5862C70.1379 89.4429 67.4273 90.2682 65.0317 90.6842C63.5649 90.9389 62.8058 91.0499 61.9089 91.1407C60.7803 91.2549 57.546 91.2502 56.4244 91.1328C56.0059 91.089 55.302 91.016 54.8603 90.9706C54.4187 90.9253 53.9369 90.8453 53.7897 90.793C53.5433 90.7055 52.6817 90.5174 51.6929 90.3353C51.1834 90.2416 49.7826 89.8468 49.3731 89.6818C49.2014 89.6125 48.7196 89.449 48.3025 89.3184C47.657 89.1162 45.55 88.1894 44.8228 87.7879C44.7001 87.7202 44.4191 87.5782 44.1982 87.4724C43.9774 87.3665 43.6964 87.2018 43.5737 87.1062C43.451 87.0106 43.2181 86.8771 43.0561 86.8093C42.0945 86.4075 37.8291 83.1684 36.9007 82.135C36.7883 82.0099 36.447 81.6437 36.1423 81.3212C35.1396 80.2601 34.8689 79.9484 34.6749 79.6324C34.5694 79.4606 34.4033 79.2713 34.3057 79.2116C34.2081 79.1519 33.9882 78.8643 33.8172 78.5725C33.6461 78.2806 33.3223 77.8161 33.0975 77.5401C32.8727 77.264 32.6038 76.8691 32.5 76.6624C32.3962 76.4557 32.2092 76.1505 32.0846 75.9844C31.9599 75.8183 31.77 75.5172 31.6625 75.3152C30.7248 73.553 30.2377 72.5472 29.8826 71.6398C29.6537 71.0549 29.3927 70.3956 29.3027 70.1748C29.2127 69.9539 29.0493 69.4521 28.9397 69.0595C28.8302 68.6669 28.6695 68.165 28.5826 67.9442C28.4958 67.7234 28.3954 67.3219 28.3596 67.052C28.3237 66.7821 28.2558 66.4609 28.2085 66.3382C28.1167 66.1002 27.8087 64.3541 27.689 63.3939C27.4008 61.0803 27.3779 56.895 27.6464 55.6083C27.7205 55.253 27.7812 54.8514 27.7812 54.7158C27.7813 54.5803 27.8603 54.1842 27.9569 53.8357C28.0534 53.4872 28.1756 52.8866 28.2285 52.5012C28.2812 52.1157 28.4066 51.5682 28.5072 51.2846C28.6077 51.0009 28.8433 50.2871 29.0307 49.6982C29.7404 47.4684 30.2293 46.2917 31.1434 44.6125C31.2237 44.4653 31.4677 44.0054 31.6857 43.5906C31.9038 43.1758 32.2318 42.6137 32.4144 42.3415C32.7395 41.8574 32.858 41.688 33.7566 40.4255C33.9986 40.0854 34.4927 39.4832 34.8546 39.0871C35.2165 38.691 35.6518 38.1862 35.8219 37.9654C36.173 37.5097 37.8004 35.9268 38.3858 35.4717C38.5995 35.3056 38.9634 34.9856 39.1943 34.7608C40.1457 33.8342 43.3724 31.8317 45.6929 30.7277C46.7232 30.2374 47.9276 29.7615 49.9621 29.0406C50.6439 28.7991 51.7917 28.5257 52.9779 28.3222C53.2676 28.2725 53.5687 28.1976 53.6471 28.1557C53.7255 28.1138 54.3317 28.0331 54.9942 27.9765C55.6567 27.9197 56.3285 27.8326 56.4872 27.7826C56.6459 27.7327 56.8467 27.7126 56.9333 27.7377C57.02 27.763 57.4121 27.7495 57.8047 27.7079C58.1973 27.6664 58.7995 27.6479 59.143 27.667C59.4865 27.6861 60.3698 27.7242 61.1059 27.7516ZM54.2377 29.9557C54.0376 30.1278 53.9872 30.2406 54.0035 30.479C54.015 30.6462 54.0357 32.4894 54.0493 34.5749C54.0725 38.1135 54.0865 38.4067 54.2583 38.9624C54.4983 39.7388 54.4875 39.7221 55.2779 40.5404C56.1381 41.4308 56.7556 41.7599 57.7365 41.8505C58.1175 41.8858 58.4494 41.9457 58.4739 41.9838C58.5274 42.0664 58.5013 49.6559 58.4474 49.7098C58.4268 49.7303 58.1333 49.7708 57.795 49.7997C56.7793 49.8865 55.2013 50.4798 53.7816 51.3086L53.5058 51.4695L53.0902 51.171C52.8615 51.0068 52.6744 50.8459 52.6744 50.8136C52.6744 50.7812 52.2633 50.3964 51.7609 49.9587C51.2585 49.521 50.5458 48.8777 50.1772 48.5292C49.8086 48.1807 49.2661 47.7045 48.9716 47.4709C48.6772 47.2374 48.1859 46.82 47.8798 46.5432C47.0723 45.8131 46.5976 45.4114 46.1055 45.0416C45.8662 44.8618 45.5274 44.5913 45.3527 44.4406C45.1779 44.2898 44.6411 43.8853 44.16 43.5418C43.6787 43.1983 43.0437 42.7266 42.7488 42.4935C42.4538 42.2603 42.1777 42.0696 42.135 42.0696C42.0923 42.0696 41.9067 41.9364 41.7226 41.7733C41.3782 41.4686 40.6498 41.0254 39.2464 40.2663C37.9108 39.5438 37.5235 39.3925 36.6132 39.2372C35.6321 39.0698 35.3531 39.1259 35.1701 39.5279C34.9839 39.9365 35.2522 40.2907 36.4025 41.1543C36.9749 41.5841 37.5881 42.0446 37.7649 42.1775C37.9418 42.3105 38.1326 42.4209 38.189 42.4229C38.2454 42.4249 38.5574 42.6674 38.8823 42.9619C39.2072 43.2563 39.5092 43.4972 39.5535 43.4972C39.6427 43.4972 40.605 44.3137 42.1545 45.7041C42.7142 46.2064 43.5657 46.9692 44.0467 47.3994C44.5278 47.8295 45.1141 48.3621 45.3497 48.5829C45.5853 48.8037 46.1676 49.3458 46.6438 49.7874C47.5743 50.6504 50.6842 53.7121 50.8666 53.945C50.9584 54.062 50.8855 54.2866 50.4396 55.2619C49.851 56.5494 49.5851 57.4595 49.4975 58.4866L49.4404 59.1558L40.663 59.1609L31.8855 59.166L31.8723 58.4471C31.865 58.0517 31.8695 57.2391 31.8823 56.6412C31.9051 55.5788 31.9004 55.549 31.6766 55.3252C31.3903 55.039 31.1362 55.0344 30.8602 55.3104L30.6459 55.5247L30.6464 59.7034C30.6468 63.4039 30.6633 63.9002 30.7893 64.0395C30.9873 64.2583 31.4601 64.242 31.6709 64.009C31.8235 63.8405 31.8441 63.6405 31.8724 62.0522C31.8991 60.5539 31.9251 60.2749 32.0426 60.2298C32.2608 60.1462 49.3842 60.1567 49.4637 60.2406C49.5029 60.282 49.6213 60.7551 49.727 61.2922C49.9487 62.4193 50.2351 63.138 50.8782 64.1811C51.13 64.5895 51.336 64.9514 51.336 64.9851C51.336 65.019 51.0449 65.3504 50.6892 65.7218C50.3334 66.0931 49.7412 66.7505 49.3731 67.1826C49.0051 67.6147 48.477 68.2137 48.1995 68.5139C47.922 68.8139 47.4282 69.3698 47.1021 69.749C46.776 70.1283 46.457 70.4696 46.3933 70.5074C46.3296 70.5453 46.0931 70.8283 45.8679 71.1364C45.6425 71.4445 45.2973 71.8793 45.1006 72.1027L44.7431 72.5088L44.0914 72.3687C43.2964 72.1977 41.3612 72.1545 40.4509 72.2875C39.7712 72.3867 38.6415 72.7538 38.2259 73.0104C37.2943 73.5857 36.977 74.4003 37.4607 74.975C37.7465 75.3148 38.244 75.4389 39.3193 75.4389C40.2427 75.4389 40.7459 75.5701 41.2254 75.936C41.583 76.2087 41.5935 76.3231 41.2864 76.6056C41.157 76.7245 40.9099 77.0427 40.7372 77.3126C40.5645 77.5825 40.285 77.9583 40.1161 78.1477C39.9472 78.3372 39.7494 78.6349 39.6765 78.8092C39.6036 78.9835 39.3666 79.3853 39.1498 79.702C38.933 80.0186 38.7557 80.3288 38.7557 80.3914C38.7557 80.4539 38.6762 80.6801 38.5792 80.8941C38.4792 81.1144 38.4018 81.4792 38.4007 81.7359C38.3982 82.3085 38.6389 82.5767 39.1551 82.5767C39.7852 82.5767 40.3254 82.1119 42.7261 79.5039C43.2168 78.9708 43.6584 78.4632 43.7075 78.3759C43.8007 78.2104 44.9928 76.9328 46.8504 75.0079C47.4503 74.3862 48.0325 73.7559 48.1441 73.6073C48.2557 73.4587 48.859 72.8163 49.4847 72.1797C50.1103 71.5432 50.9064 70.7213 51.2537 70.3532C51.6009 69.9852 52.3818 69.1739 52.9889 68.5504L54.0927 67.4168L54.7888 67.7774C55.4837 68.1375 57.6357 68.7472 58.2113 68.7472H58.4739L58.4846 70.6878C58.4905 71.7551 58.5081 73.8623 58.5236 75.3702C58.5423 77.185 58.5207 78.1312 58.4598 78.1689C58.4093 78.2001 58.196 78.0302 57.9858 77.7914L57.6036 77.3572L56.8302 77.3585L56.0568 77.36L55.5308 77.9284C55.0408 78.4578 54.9844 78.493 54.7095 78.4408C54.5142 78.4038 54.2933 78.2492 54.0573 77.9849C53.678 77.5597 53.2057 77.3126 52.7729 77.3126C52.1013 77.3126 52.0113 78.0971 52.6599 78.2966C52.8675 78.3605 53.1554 78.5818 53.449 78.9032L53.9113 79.4093H54.7295H55.5477L56.0255 78.8963C56.4307 78.4612 56.5505 78.3833 56.8143 78.3833C57.0749 78.3833 57.1993 78.4614 57.581 78.865C57.8316 79.13 58.1551 79.3958 58.2999 79.4558C58.5894 79.5757 58.6179 79.7432 58.5064 80.671L58.4513 81.1297L58.181 80.8219C57.8523 80.4475 57.3281 80.1677 56.9556 80.1677C56.3135 80.1677 55.9089 80.3507 55.455 80.8462C54.8646 81.4909 54.6765 81.4897 54.0793 80.8376C53.6197 80.3358 53.2764 80.1692 52.6998 80.1682C52.5072 80.1679 52.3826 80.2244 52.3206 80.3403C52.1101 80.7336 52.2947 81.0739 52.7849 81.1963C52.9194 81.2298 53.1573 81.4035 53.3136 81.5824C53.8759 82.2256 54.4764 82.45 55.2126 82.2921C55.6446 82.1995 55.8048 82.0769 56.3682 81.4079C56.5311 81.2145 57.0128 81.1837 57.2314 81.3528C57.3087 81.4125 57.4454 81.5741 57.535 81.712C57.6247 81.8497 57.8498 82.0399 58.0353 82.1344C58.2208 82.2291 58.4014 82.3532 58.4366 82.4102C58.5155 82.5378 58.54 84.5434 58.4633 84.5907C58.433 84.6095 58.4281 84.9032 58.4524 85.2434C58.5426 86.5046 58.3356 86.8594 57.5094 86.8594C56.8991 86.8594 56.6671 86.9957 56.6671 87.3546C56.6671 87.5402 56.7574 87.691 56.9877 87.8899C57.284 88.1461 57.3845 88.1745 58.3197 88.2662C58.961 88.329 59.4601 88.3353 59.6833 88.2837C59.8769 88.2387 60.1911 88.201 60.3816 88.1999C60.8238 88.1971 61.2868 87.9119 61.4065 87.5683C61.5708 87.0971 61.345 86.8595 60.7326 86.8592C60.1858 86.859 59.7879 86.6084 59.6706 86.1902C59.6155 85.9939 59.5634 85.0637 59.555 84.1217L59.5394 82.41L60.0943 81.8242C60.8113 81.0672 60.9712 81.0563 61.6702 81.7172C62.3077 82.32 62.6982 82.4597 63.3429 82.3154C63.7241 82.2301 63.9043 82.1196 64.2889 81.7359C64.5504 81.4749 64.9109 81.2144 65.0908 81.1565C65.5397 81.0119 65.6754 80.6011 65.3738 80.2995C65.2535 80.1792 65.1304 80.1627 64.728 80.2129C64.27 80.2702 64.1907 80.3166 63.7222 80.8014C63.3892 81.1459 63.1424 81.3274 63.0073 81.3272C62.8851 81.327 62.5833 81.1334 62.2658 80.8515C61.7045 80.3532 61.3166 80.1677 60.8358 80.1677C60.453 80.1677 59.9728 80.3784 59.8338 80.6074C59.6256 80.95 59.5445 80.8046 59.5445 80.0887C59.5445 79.4197 59.5566 79.3774 59.7899 79.2247C59.9249 79.1365 60.197 78.8858 60.3946 78.6677C60.7172 78.3118 60.7827 78.2774 61.0337 78.3326C61.2108 78.3715 61.3898 78.5061 61.5219 78.6997C61.6366 78.8679 61.9241 79.1312 62.1607 79.2849C62.5357 79.5284 62.6505 79.5592 63.0555 79.5257C63.5905 79.4813 64.0747 79.1951 64.3838 78.7407C64.5062 78.5606 64.7223 78.397 64.9331 78.3245C65.4023 78.1634 65.5224 78.0486 65.5224 77.7616C65.5224 77.5148 65.2862 77.2234 65.086 77.2234C65.0256 77.2234 64.7803 77.2874 64.5411 77.3657C64.2254 77.4689 63.9849 77.6402 63.6644 77.9902C63.0792 78.6292 62.9024 78.6286 62.2862 77.9865C61.6844 77.3596 61.1458 77.1539 60.5353 77.3178C60.3093 77.3784 60.0219 77.5225 59.8965 77.638C59.7711 77.7534 59.6407 77.8479 59.6065 77.8479C59.5724 77.8479 59.5445 75.8236 59.5445 73.3496V68.8513L60.3252 68.6695C60.7547 68.5696 61.3468 68.4489 61.6413 68.4013C62.2349 68.3055 63.0645 67.9674 63.5922 67.6063L63.937 67.3703L64.1585 67.635C64.2803 67.7805 65.3117 68.8632 66.4505 70.0409C67.5893 71.2187 68.9333 72.634 69.4372 73.186C69.9411 73.7382 70.3867 74.1898 70.4274 74.1898C70.4681 74.1898 70.5756 74.3063 70.6663 74.4486C70.757 74.591 71.7603 75.6852 72.8958 76.8799C74.0313 78.0748 75.2883 79.4339 75.6889 79.9C76.8128 81.2077 77.1266 81.5298 77.6567 81.9201C78.5925 82.6093 78.9025 82.7007 79.2845 82.4003C79.5696 82.1761 79.6266 81.8723 79.4918 81.2951C79.3284 80.5945 78.3938 78.7904 77.8863 78.1958C77.625 77.8896 77.4103 77.6081 76.7267 76.675L76.423 76.2606L76.6689 76.0249C77.0867 75.6248 77.7272 75.4389 78.6888 75.4389C79.7742 75.4389 80.2712 75.3156 80.5577 74.975C80.854 74.6229 80.843 74.2357 80.5225 73.7302C80.135 73.1192 79.4316 72.6832 78.5489 72.5069C76.7574 72.1489 76.6921 72.1444 75.2031 72.2716C74.4179 72.3386 73.6549 72.4193 73.5074 72.4509C73.278 72.5001 73.2096 72.4681 73.0329 72.2291C72.9194 72.0756 72.3841 71.4401 71.8433 70.817C70.461 69.224 70.1692 68.8934 69.3834 68.0288C69.0019 67.6092 68.5092 67.062 68.2883 66.8129C68.0675 66.5637 67.614 66.0788 67.2805 65.7353L66.6741 65.1109L66.9469 64.6482C67.6258 63.4969 68.2254 61.9386 68.4685 60.6949L68.5687 60.1818L69.343 60.1775C69.7689 60.1752 71.9643 60.1753 74.2216 60.178L78.3259 60.1828L78.3964 61.0968C78.4352 61.5996 78.4464 62.3797 78.4214 62.8306L78.376 63.6503L78.655 63.8851C78.8718 64.0675 78.9857 64.1052 79.1653 64.0542C79.2925 64.0181 81.0111 63.9852 82.9846 63.9812C86.3044 63.9743 86.5845 63.9618 86.7319 63.8145C86.8686 63.6778 86.8938 63.4685 86.9091 62.3423C86.919 61.6202 86.9485 60.6681 86.9749 60.2265C87.0012 59.7848 87.0407 58.6405 87.0627 57.6836C87.0846 56.7267 87.1429 55.5423 87.1921 55.0515C87.2672 54.3039 87.2601 54.1261 87.1488 53.9545C86.9989 53.7239 86.6446 53.5598 86.4541 53.6329C86.3845 53.6596 86.1897 53.6434 86.0212 53.5969C85.3878 53.422 84.8445 53.9436 85.0625 54.5172C85.1437 54.7306 85.1314 54.8127 84.9901 55.002C84.7531 55.3196 84.289 55.3726 82.2071 55.3201C80.1848 55.2692 80.1942 55.2733 80.289 54.4954C80.3407 54.0709 80.3249 54.0091 80.1153 53.8149C79.9123 53.6267 79.7985 53.6009 79.1605 53.5981C78.5067 53.5952 78.4146 53.6164 78.2154 53.8155C78.0445 53.9865 78.0083 54.0902 78.0547 54.2762C78.0878 54.4082 78.1282 54.8374 78.1448 55.23C78.1613 55.6226 78.2057 56.4256 78.2435 57.0144C78.3127 58.0909 78.3094 59.0236 78.2362 59.0967C78.1585 59.1745 68.6307 59.1599 68.5825 59.0819C68.5557 59.0385 68.4778 58.522 68.4095 57.9343C68.3045 57.0299 68.2154 56.6875 67.8293 55.705C67.5785 55.0665 67.2813 54.4375 67.1688 54.3072L66.9643 54.0701L67.2917 53.7184C67.4719 53.5249 67.8122 53.1837 68.0481 52.96C68.284 52.7363 69.0169 52.0314 69.6769 51.3934C71.8091 49.3323 72.7656 48.4409 74.2663 47.1167C75.076 46.4022 75.9191 45.6562 76.1399 45.4589C76.3608 45.2616 76.7969 44.8901 77.1091 44.6333C77.4212 44.3765 77.903 43.9607 78.1797 43.7094C78.4564 43.458 78.8138 43.1857 78.9737 43.1043C79.1338 43.0229 79.3145 42.8752 79.3752 42.7762C79.4361 42.6773 79.8672 42.3517 80.3334 42.0527C81.232 41.4766 82.4766 40.4847 82.6986 40.1678C82.8834 39.9039 82.8647 39.5398 82.6568 39.3517C82.3546 39.0782 81.767 39.0775 80.7757 39.3494C80.2806 39.4852 79.7277 39.6975 79.5468 39.8212C79.366 39.9448 78.9668 40.1606 78.6595 40.3007C78.3523 40.4409 77.9106 40.7013 77.678 40.8794C77.4455 41.0576 77.1348 41.2542 76.9875 41.3162C76.8403 41.3782 76.5638 41.5531 76.373 41.7047C76.1822 41.8563 75.9864 41.9804 75.9378 41.9804C75.8332 41.9804 74.8475 42.6963 73.9094 43.4537C73.5413 43.7508 72.839 44.2936 72.3485 44.66C71.858 45.0265 71.2703 45.4869 71.0422 45.6832C70.8142 45.8795 70.2524 46.3613 69.7938 46.7538C69.3351 47.1464 68.6783 47.7303 68.3341 48.0512C67.99 48.3722 67.5227 48.7823 67.2957 48.9625C67.0688 49.1429 66.3675 49.7901 65.7373 50.401L64.5913 51.5117L64.3654 51.3575C63.498 50.7652 61.3619 49.958 60.3051 49.823C59.9136 49.773 59.5814 49.7202 59.5667 49.7055C59.5251 49.6639 59.5119 41.9834 59.5534 41.9419C59.5736 41.9215 59.935 41.867 60.3565 41.8207C60.9305 41.7576 61.2326 41.6731 61.5604 41.4837C62.8588 40.7337 63.4098 40.1013 63.7793 38.9371C63.9883 38.2785 63.9949 38.1707 64.001 35.3236C64.0044 33.7096 64.0199 31.9273 64.0355 31.3629L64.0637 30.3369L63.7648 30.0357C63.4863 29.7552 63.4369 29.7383 63.0443 29.7887C62.4598 29.8638 55.5978 29.8705 54.9888 29.7966C54.5436 29.7426 54.4665 29.7589 54.2377 29.9557ZM62.4443 30.9057L62.9796 30.9168L62.9746 34.508C62.9698 38.0346 62.9659 38.1105 62.7601 38.7211C62.5197 39.4345 61.9576 40.072 61.1951 40.4959C60.7952 40.7184 60.6185 40.7524 59.4888 40.8241C57.4368 40.9544 56.8675 40.7752 55.9138 39.699C55.1383 38.8238 55.0729 38.5454 55.0875 36.181C55.094 35.1259 55.0982 33.4998 55.0968 32.5674L55.0943 30.8722L58.5016 30.8834C60.3756 30.8895 62.1498 30.8996 62.4443 30.9057ZM58.8815 38.4626C58.7079 38.6364 58.7057 38.7168 58.8711 38.8541C59.0467 38.9999 59.3661 38.8853 59.3661 38.6763C59.3661 38.4235 59.057 38.2872 58.8815 38.4626ZM58.7848 39.8434C58.7212 40.0436 58.8726 40.2852 59.0616 40.2852C59.2205 40.2852 59.3794 39.9775 59.3116 39.8009C59.2319 39.5933 58.8545 39.6237 58.7848 39.8434ZM38.3095 40.9504C39.936 41.808 40.8372 42.3361 40.9228 42.4818C40.9615 42.5476 41.1823 42.7107 41.4135 42.8442C41.6447 42.9776 42.0392 43.2494 42.2902 43.4481C42.5413 43.6469 43.1387 44.0905 43.618 44.434C44.5932 45.1331 45.6019 45.9352 46.0719 46.3856C46.2437 46.5502 46.5046 46.7604 46.6519 46.8528C46.7991 46.945 46.9911 47.109 47.0785 47.2172C47.166 47.3253 47.6076 47.7036 48.06 48.0578C48.5123 48.412 49.1445 48.9662 49.4647 49.2893C49.785 49.6124 50.3672 50.1461 50.7584 50.4754C51.1497 50.8047 51.8673 51.4572 52.3529 51.9253C52.8386 52.3934 53.2602 52.7765 53.2897 52.7765C53.3194 52.7765 54.0261 53.468 54.8603 54.313C55.6946 55.1581 56.869 56.3419 57.4701 56.9437L58.5631 58.0379V58.5746V59.1112H57.9935H57.424L55.9966 57.6613C55.2115 56.8639 54.2319 55.8501 53.8197 55.4084C53.4075 54.9668 52.333 53.8827 51.432 52.9994C50.5308 52.1161 49.3879 50.9899 48.8919 50.4969C48.396 50.0038 47.625 49.261 47.1786 48.8463C46.7322 48.4315 45.8545 47.6104 45.228 47.0215C44.6016 46.4326 43.963 45.8704 43.809 45.7721C43.655 45.6739 43.3834 45.4531 43.2055 45.2814C43.0275 45.1098 42.7465 44.8538 42.581 44.7123C42.4154 44.571 41.9107 44.1211 41.4593 43.7126C41.0078 43.3041 40.4859 42.8733 40.2994 42.7551C40.1128 42.6369 39.7594 42.3627 39.514 42.1455C39.2687 41.9284 38.8471 41.6183 38.5772 41.4565C38.3073 41.2947 37.9058 41.0038 37.685 40.8102C37.3359 40.5041 37.3184 40.4734 37.5511 40.5749C37.6984 40.6391 38.0396 40.8081 38.3095 40.9504ZM80.5908 40.629C80.4737 40.7199 80.0367 41.0156 79.6196 41.286C79.2025 41.5564 78.7433 41.9036 78.5992 42.0575C78.4551 42.2114 78.2945 42.3377 78.2423 42.338C78.1901 42.3384 77.8463 42.6021 77.4783 42.9241C77.1102 43.2461 76.6485 43.6477 76.4522 43.8165C75.8819 44.3071 73.2759 46.5902 72.869 46.9557C72.3637 47.4097 70.5861 49.0869 69.064 50.5458C67.4513 52.0914 62.909 56.6519 61.7992 57.8397C61.3292 58.3428 60.8994 58.7543 60.8441 58.7543C60.7887 58.7543 60.5128 58.5211 60.2308 58.2363L59.7182 57.7182L61.3652 56.0726C63.2404 54.199 64.806 52.6746 65.8388 51.7166C66.2292 51.3546 66.8506 50.7724 67.2199 50.4229C67.5892 50.0734 68.2115 49.5167 68.6028 49.1859C68.9942 48.855 69.7616 48.1926 70.3082 47.7137C71.8239 46.3858 72.3584 45.9416 72.9945 45.4809C73.3151 45.2486 73.9233 44.7751 74.3458 44.4287C75.2194 43.7121 76.3562 42.8727 76.4527 42.8727C76.4883 42.8727 76.709 42.7321 76.9429 42.5604C77.1769 42.3886 77.4031 42.246 77.4456 42.2433C77.4881 42.2406 77.7437 42.0826 78.0136 41.892C78.2835 41.7015 78.8255 41.3807 79.2181 41.1791C79.6107 40.9776 80.0724 40.7342 80.2442 40.6383C80.6442 40.4149 80.8743 40.4088 80.5908 40.629ZM21.9206 41.5299C21.7642 41.6252 21.589 41.7915 21.5313 41.8994C21.3903 42.163 21.4712 42.9212 21.6629 43.1331C22.0677 43.5803 22.7293 43.5854 23.2115 43.145C23.7319 42.6696 23.5634 41.8859 22.8639 41.5291C22.4385 41.3121 22.2775 41.3122 21.9206 41.5299ZM58.5023 51.0142C58.5286 51.1247 58.5349 51.8172 58.5163 52.5533C58.4978 53.2894 58.4805 54.4718 58.4782 55.1807L58.4739 56.4699L56.3878 54.3777C54.8231 52.8085 54.327 52.2599 54.4026 52.1824C54.5961 51.9842 55.7584 51.4296 56.5111 51.1762C57.374 50.8858 57.5679 50.8426 58.085 50.8256C58.3995 50.8153 58.4616 50.8434 58.5023 51.0142ZM61.427 51.1609C62.0911 51.3878 63.5907 52.064 63.7229 52.1962C63.7501 52.2235 63.5122 52.4956 63.194 52.801C62.8759 53.1064 62.0952 53.8552 61.4592 54.4648C60.8233 55.0745 60.2118 55.7059 60.1005 55.8678C59.9891 56.0299 59.8184 56.2049 59.7213 56.2569C59.5468 56.3503 59.5445 56.3149 59.5445 53.5702V50.7888L60.111 50.8468C60.4226 50.8788 61.0148 51.0201 61.427 51.1609ZM14.8619 53.8701C14.734 54.0242 14.6391 55.5869 14.7284 56.0684C14.84 56.6706 15.0191 56.7209 15.4937 56.2835C15.9842 55.8313 16.2423 55.7723 17.18 55.8976C19.0121 56.1425 20.6332 56.4349 20.6928 56.5315C20.8163 56.7312 18.5524 57.6076 17.3868 57.8112C17.1905 57.8455 16.7167 57.9713 16.3338 58.0909C15.951 58.2104 15.6178 58.3082 15.5935 58.3082C15.5692 58.3082 15.4518 58.2031 15.3328 58.0747C14.8579 57.5622 14.6065 58.1909 14.7243 59.5972C14.7977 60.4748 14.8044 60.4947 15.0318 60.5211C15.1889 60.5394 15.3987 60.4454 15.6794 60.2311C15.9078 60.0568 16.1939 59.9142 16.3152 59.9142C16.6964 59.9142 17.809 60.1035 18.4129 60.2711C18.7319 60.3597 19.3542 60.5314 19.7958 60.6529C20.2977 60.7911 20.5989 60.9187 20.5989 60.9934C20.5989 61.1686 19.9473 61.5061 19.4836 61.5712C19.2627 61.6022 18.6605 61.7787 18.1452 61.9635C16.9926 62.3769 16.1635 62.5456 15.9213 62.416C15.8263 62.3651 15.6628 62.203 15.5578 62.0557C15.4202 61.8623 15.2945 61.7878 15.1056 61.7878C14.9617 61.7878 14.8389 61.8179 14.8327 61.8548C14.8266 61.8916 14.8075 62.5239 14.7903 63.26C14.7564 64.7015 14.8544 65.3197 15.1304 65.4073C15.3525 65.4778 15.4152 65.4211 15.7284 64.866C15.9343 64.5014 16.0568 64.3749 16.2054 64.3737C16.3153 64.3728 16.8069 64.2324 17.2976 64.0615C18.3253 63.7039 19.352 63.4072 19.9297 63.3007C20.6121 63.1751 23.558 61.8929 23.7418 61.6415C23.8759 61.4582 23.8889 61.0844 23.772 60.7769C23.7056 60.6022 23.5364 60.5071 22.9467 60.3125C22.5386 60.178 22.0443 59.9871 21.848 59.8881C21.4286 59.6768 20.4193 59.394 19.8182 59.3194C19.4821 59.2778 19.3943 59.2323 19.3943 59.0998C19.3943 58.9933 19.4578 58.9327 19.5692 58.9327C19.8751 58.9327 21.5016 58.4918 21.9961 58.2749C22.2581 58.1599 22.616 58.0396 22.7913 58.0075C22.9667 57.9754 23.293 57.8331 23.5164 57.6915C23.869 57.4679 23.937 57.3736 24.0321 56.9773C24.1277 56.5789 24.1225 56.4914 23.9912 56.2909C23.763 55.9427 23.0538 55.6805 21.6249 55.4159C20.9134 55.2842 19.9096 55.0978 19.3943 55.0018C18.8791 54.9057 18.317 54.8279 18.1452 54.8288C17.9735 54.8297 17.3929 54.7598 16.855 54.6734C15.9095 54.5214 15.8643 54.5037 15.4863 54.137C15.0624 53.7259 15.0027 53.7004 14.8619 53.8701ZM79.389 54.8537C79.4586 55.3179 79.7071 55.7462 80.0292 55.9573C80.2419 56.0966 80.5271 56.1148 82.5541 56.1183C84.6132 56.1219 84.8724 56.1057 85.1755 55.9551C85.6121 55.7381 85.878 55.3556 85.9333 54.865C85.9667 54.5682 86.0156 54.4716 86.1323 54.4716C86.248 54.4716 86.3009 54.5725 86.3418 54.871C86.3719 55.0907 86.3764 55.3227 86.3519 55.3867C86.3275 55.4505 86.2781 55.8831 86.2424 56.3479L86.1775 57.1929H82.667C80.6012 57.1929 79.1354 57.1588 79.1052 57.11C79.032 56.9915 78.9612 54.7779 79.0252 54.6109C79.1322 54.3322 79.3306 54.4646 79.389 54.8537ZM66.9049 56.1927C67.2455 57.0665 67.3284 57.3987 67.3941 58.1544C67.4375 58.6546 67.4524 59.0847 67.4272 59.1099C67.3626 59.1744 64.0367 59.1808 62.9722 59.1184L62.0885 59.0666L62.6159 58.4866C62.9061 58.1676 63.6285 57.4194 64.2214 56.8239C64.8143 56.2283 65.4953 55.532 65.7349 55.2766C66.1572 54.8263 66.1753 54.8172 66.3326 54.9765C66.4218 55.0668 66.6793 55.6141 66.9049 56.1927ZM52.8457 55.9108C53.3649 56.4569 54.2615 57.3772 54.838 57.9559C55.4146 58.5346 55.8864 59.0438 55.8864 59.0874C55.8864 59.1799 52.6781 59.2166 51.403 59.1387L50.533 59.0857V58.7027C50.533 58.137 50.7542 57.1876 51.0512 56.4791C51.6139 55.1362 51.72 54.9177 51.8093 54.9177C51.8601 54.9177 52.3266 55.3645 52.8457 55.9108ZM97.3749 56.3413C97.2522 56.3827 96.8106 56.421 96.3935 56.4263C95.4386 56.4383 94.5614 56.5783 94.2359 56.7706C93.874 56.9843 93.8851 57.43 94.2611 57.7812C94.5364 58.0384 94.5373 58.0419 94.4277 58.4987C94.3574 58.7917 94.3336 59.3204 94.3618 59.9603C94.4047 60.9314 94.4166 60.98 94.7452 61.5123C95.0946 62.0783 95.6653 62.5713 96.2577 62.8188C96.5274 62.9315 96.6466 62.9375 96.9142 62.8516C97.6806 62.6055 98.3359 62.2817 98.6821 61.9786C98.8855 61.8001 99.2398 61.4981 99.4699 61.3074C99.6992 61.1167 99.9883 60.8067 100.113 60.6184C100.47 60.0788 101.266 59.4681 101.612 59.4681C101.996 59.4681 102.134 59.6543 102.142 60.18C102.151 60.7872 101.78 61.3012 101.167 61.5305C100.672 61.7159 100.498 61.8939 100.498 62.2164V62.4323L101.97 62.3807C102.78 62.3524 103.522 62.2862 103.621 62.2338C103.862 62.1046 103.845 61.8236 103.576 61.5039C103.386 61.2783 103.353 61.1502 103.355 60.6434C103.356 60.3159 103.392 59.8958 103.436 59.7097C103.548 59.2245 103.269 57.9317 102.985 57.6229C102.528 57.1253 101.43 56.8557 100.682 57.0572C100.379 57.1389 100.172 57.2904 99.7903 57.7083C97.8091 59.8786 97.4436 60.2248 96.7617 60.5775C96.3823 60.7737 95.8973 60.7563 95.6797 60.5387C95.4747 60.3337 95.4525 59.9717 95.6022 59.2737C95.6908 58.8604 95.7806 58.7286 96.3383 58.1929C96.9973 57.5599 97.4223 57.2897 98.0393 57.1117C98.4323 56.9982 98.5403 56.7767 98.3368 56.4987C98.2032 56.3155 97.6966 56.2326 97.3749 56.3413ZM83.7815 58.2281L86.2221 58.233L86.2175 58.739C86.2077 59.8301 86.0629 61.1855 85.9485 61.2562C85.8521 61.3158 79.2686 61.2881 79.2083 61.2279C79.1845 61.204 79.1549 59.4667 79.1658 58.735L79.1735 58.225L80.1326 58.1972C80.6602 58.1818 81.1478 58.1815 81.2163 58.1964C81.2849 58.2112 82.4392 58.2255 83.7815 58.2281ZM52.8528 60.1861C53.8097 60.1794 54.673 60.1686 54.7711 60.162C55.1941 60.1336 55.708 60.1881 55.708 60.2612C55.708 60.3322 54.9485 61.1748 54.5733 61.5202C54.4934 61.5938 54.3564 61.7343 54.2691 61.8325C54.1817 61.9306 53.6585 62.4831 53.1064 63.0602C52.3093 63.8933 52.0803 64.0862 51.9948 63.997C51.9354 63.9352 51.6822 63.4989 51.432 63.0275C50.991 62.1968 50.6292 60.9879 50.6242 60.3283C50.6224 60.0941 50.6423 60.0784 50.8676 60.1357C51.0026 60.1701 51.8959 60.1927 52.8528 60.1861ZM65.7758 60.1889L67.5015 60.1792L67.4387 60.5597C67.2819 61.51 66.1984 64.1969 65.9719 64.1969C65.9277 64.1969 65.5982 63.8657 65.2399 63.4608C64.8815 63.0559 64.0356 62.1658 63.3601 61.4828C62.6846 60.7997 62.132 60.2021 62.132 60.1545C62.132 60.1003 62.4878 60.0924 63.0911 60.1335C63.6187 60.1693 64.8268 60.1943 65.7758 60.1889ZM62.1147 61.6763C62.9218 62.4982 63.8212 63.4519 64.1134 63.7954C64.4057 64.1389 64.8431 64.6207 65.0855 64.866C65.3278 65.1114 66.0326 65.8742 66.6516 66.5613C67.2707 67.2483 68.0691 68.1316 68.4259 68.5242C69.5316 69.7405 70.0069 70.2811 70.6618 71.067C71.0095 71.4841 71.3644 71.8838 71.4506 71.9552C71.5368 72.0266 71.791 72.3277 72.0158 72.6244C72.2405 72.921 72.5476 73.2862 72.6984 73.436C72.8492 73.5857 73.2335 74.0365 73.5525 74.4378C73.8714 74.8392 74.1588 75.1683 74.1912 75.1694C74.2615 75.1716 75.0993 76.2212 75.4567 76.7549C75.5964 76.9635 75.7432 77.1341 75.783 77.1341C75.8227 77.1341 75.9607 77.3048 76.0895 77.5133C76.2184 77.7218 76.5229 78.1535 76.7661 78.4725C77.0094 78.7915 77.3163 79.213 77.4481 79.4093C77.6773 79.7506 78.2813 80.9135 78.2813 81.0136C78.2813 81.1843 77.7076 80.6094 76.2799 79.0078C75.3832 78.0018 74.2922 76.8174 73.8555 76.3757C73.4188 75.9341 72.7203 75.1954 72.3032 74.7342C71.8862 74.2731 71.2976 73.6508 70.9954 73.3513C70.6932 73.0518 70.2792 72.6061 70.0755 72.3607C69.7178 71.93 67.4895 69.591 65.8347 67.9091C65.3931 67.4604 64.5465 66.5719 63.9535 65.9349C63.3605 65.298 62.2686 64.1545 61.5271 63.3939C59.3355 61.1457 59.5445 61.417 59.5445 60.8213C59.5445 60.535 59.5713 60.274 59.604 60.2414C59.6367 60.2086 59.8848 60.1818 60.1553 60.1818H60.6472L62.1147 61.6763ZM57.7064 60.9414L58.2197 61.5225L57.1748 62.6589C56.6 63.2839 55.7377 64.1969 55.2584 64.6876C54.1603 65.8121 51.932 68.1081 51.3398 68.7253C51.0924 68.9832 50.8899 69.2274 50.8899 69.2679C50.8899 69.3084 50.7923 69.3938 50.6731 69.4577C50.5538 69.5215 50.2913 69.7792 50.0898 70.0304C49.7109 70.5026 47.7345 72.5948 46.2504 74.0947C45.7842 74.5659 44.9413 75.4625 44.3773 76.0874C43.8133 76.7121 43.3206 77.2234 43.2824 77.2234C43.2442 77.2234 43.1016 77.394 42.9655 77.6026C42.8296 77.8111 42.4993 78.2039 42.2315 78.4754C41.9637 78.7469 41.5431 79.2115 41.2966 79.5077C41.0503 79.8039 40.576 80.3015 40.2427 80.6132C39.682 81.1377 39.6412 81.1606 39.6962 80.9192C39.729 80.7758 39.8819 80.4778 40.036 80.2569C40.1901 80.0361 40.4168 79.6719 40.5397 79.4477C40.883 78.8212 42.0836 77.2176 43.0383 76.11C43.9432 75.0602 44.3522 74.571 44.6434 74.1898C44.8121 73.969 45.229 73.4872 45.5699 73.1191C45.9108 72.7511 46.4057 72.1588 46.6697 71.8031C46.9336 71.4474 47.1792 71.1562 47.2152 71.1562C47.2513 71.1562 47.5408 70.8464 47.8586 70.4676C48.1763 70.0889 48.6973 69.4945 49.0163 69.1467C49.3352 68.7988 49.817 68.262 50.0869 67.9538C50.3568 67.6455 51.086 66.8246 51.7073 66.1296C52.7054 65.0132 53.2948 64.3836 55.2618 62.3318C55.5317 62.0503 56.0537 61.4932 56.4217 61.0939C56.7898 60.6945 57.1139 60.3661 57.1419 60.364C57.17 60.362 57.4241 60.6218 57.7064 60.9414ZM84.2815 62.3208L86.0436 62.3232V62.6702C86.0436 62.9913 86.022 63.021 85.7537 63.0697C85.5941 63.0986 84.5603 63.1216 83.4562 63.1207C82.3521 63.1199 80.9568 63.1243 80.3557 63.1306L79.2627 63.142V62.7377V62.3334L79.6419 62.306C79.8504 62.2909 80.5832 62.2875 81.2702 62.2985C81.9572 62.3094 83.3124 62.3194 84.2815 62.3208ZM58.479 63.4608C58.482 63.792 58.492 64.8761 58.5013 65.8698L58.5185 67.6765L58.2508 67.6768C57.4253 67.6774 54.9049 66.8555 54.9049 66.5857C54.9049 66.5382 55.2965 66.1059 55.7749 65.6249C57.1293 64.2635 57.8848 63.4644 58.1164 63.1485C58.2333 62.989 58.3615 62.8585 58.4014 62.8585C58.4413 62.8585 58.4762 63.1296 58.479 63.4608ZM61.0975 64.4583C61.7401 65.1173 62.4585 65.854 62.6942 66.0953C62.9297 66.3367 63.1089 66.5804 63.0922 66.6369C63.0259 66.8622 61.8824 67.3073 60.9211 67.4821C60.3848 67.5796 59.8774 67.687 59.7936 67.7207C59.5111 67.8344 59.4984 67.6496 59.5346 63.9377L59.5445 62.9201L59.7369 63.0901C59.8426 63.1836 60.455 63.7992 61.0975 64.4583ZM43.8132 73.3728C43.892 73.4169 43.7353 73.6644 43.2947 74.1921C42.9474 74.608 42.6026 75.0386 42.5283 75.1489C42.352 75.411 42.253 75.4024 41.8256 75.0881C41.1523 74.593 40.6017 74.4342 39.3987 74.3883C38.6405 74.3594 38.3121 74.3154 38.335 74.2458C38.4257 73.9697 39.8342 73.397 40.6739 73.2947C41.2893 73.2198 43.6446 73.2785 43.8132 73.3728ZM77.6563 73.3946C78.2169 73.4969 78.8178 73.6533 78.9915 73.7419C79.3417 73.9206 79.6778 74.2505 79.5945 74.3338C79.565 74.3633 79.0869 74.398 78.5319 74.411C77.4047 74.4372 76.9203 74.5759 76.1827 75.0833L75.7515 75.3799L75.5219 75.1083C75.3956 74.9589 74.9983 74.512 74.639 74.115C73.8753 73.2715 73.8416 73.3123 75.3369 73.2715C75.8522 73.2575 76.3555 73.2375 76.4553 73.2272C76.5553 73.2168 77.0957 73.2921 77.6563 73.3946ZM96.1704 73.3414C96.1213 73.3578 95.9696 73.3958 95.8331 73.426C95.3521 73.5322 95.0761 74.3711 95.3352 74.9397C95.4771 75.2514 95.977 75.4704 96.4128 75.412C96.8599 75.352 97.0616 75.1668 97.2355 74.6565C97.3706 74.2598 97.3683 74.2389 97.1487 73.8641C96.8593 73.3703 96.5613 73.211 96.1704 73.3414ZM85.6805 82.6362C85.2027 83.1187 84.5152 83.7959 84.1526 84.141C83.5559 84.7088 83.4724 84.8317 83.274 85.4347C83.1181 85.9082 83.0553 86.2947 83.057 86.7702C83.0598 87.5908 83.2279 87.9766 83.8545 88.6005C84.2079 88.9524 84.4235 89.0832 84.8648 89.2134C85.3515 89.357 85.4791 89.3641 85.8282 89.2663C86.0494 89.2044 86.3329 89.0731 86.4581 88.9746C86.647 88.826 86.6992 88.8169 86.7653 88.9204C86.809 88.9892 86.8186 89.1056 86.7867 89.1792C86.5196 89.7943 86.8226 90.5874 87.4776 90.9879C88.0343 91.3283 88.4313 91.3769 89.1235 91.1896C89.8116 91.0033 90.0554 90.8023 91.6143 89.1354C92.5458 88.1396 92.7353 87.8906 92.7353 87.663C92.7353 87.3187 92.5807 87.2559 92.0576 87.3876C91.6945 87.4791 91.6184 87.4699 91.347 87.3022C91.1799 87.1989 90.912 86.9631 90.7516 86.7782C90.5913 86.5933 89.9984 86.0402 89.4341 85.5491C88.8698 85.0579 88.2416 84.4191 88.0382 84.1295C87.8349 83.8398 87.4999 83.4472 87.2939 83.257C86.9772 82.9646 86.9288 82.875 86.9808 82.677C87.0145 82.5483 87.0484 82.3024 87.056 82.1306C87.0684 81.848 87.0449 81.8155 86.8093 81.7886C86.5827 81.7628 86.4368 81.8724 85.6805 82.6362ZM30.7189 82.991C29.7065 83.9683 29.7629 84.1882 30.9816 84.0156C31.9133 83.8837 32.1829 83.9584 32.6869 84.4877C32.9372 84.7505 32.9959 84.8805 32.9887 85.1564C32.9812 85.4409 32.8795 85.62 32.3878 86.2143C32.0623 86.6077 31.7325 86.954 31.655 86.9838C31.0251 87.2255 30.3368 86.725 30.3192 86.0126C30.2943 85.008 30.0846 84.9925 29.1529 85.9263C28.2616 86.8195 28.2161 87.0063 28.8988 86.9691C29.265 86.9491 29.4173 86.9923 29.7687 87.2159C30.2772 87.5396 30.5719 87.9701 30.5017 88.287C30.4163 88.6723 29.2727 89.5361 28.848 89.5361C28.6273 89.5361 27.5899 88.8101 27.4013 88.5237C27.3641 88.4671 27.3595 88.0494 27.3912 87.5955C27.4465 86.8031 27.4415 86.7702 27.2651 86.7702C26.9192 86.7702 26.3368 87.3208 25.979 87.9859C25.7909 88.3356 25.6609 88.6769 25.69 88.7443C25.7192 88.8118 25.9306 89.0172 26.1598 89.2008C26.3891 89.3844 26.7374 89.6774 26.9337 89.852C28.9359 91.633 29.6988 92.2309 30.2017 92.4137C30.467 92.51 30.542 92.313 30.4087 91.8701C30.2619 91.3825 30.2742 91.3575 31.0491 90.5545C31.3374 90.2558 31.9145 89.6347 32.3316 89.1742C32.7487 88.7136 33.4706 87.9642 33.9358 87.5089C34.7031 86.758 34.8133 86.681 35.1209 86.681C35.5153 86.681 36.079 86.4686 36.079 86.3201C36.079 86.1288 35.7091 85.6973 35.4251 85.5575C35.2695 85.4808 34.9213 85.2003 34.6514 84.9341C34.3815 84.6678 34.0001 84.2937 33.8038 84.1029C33.6075 83.9119 33.3237 83.6209 33.173 83.4562C32.4551 82.6712 32.0533 82.3983 31.6151 82.3983C31.3882 82.3983 31.2124 82.5145 30.7189 82.991ZM86.991 85.4095C87.4985 85.9371 87.9146 86.4132 87.9155 86.4676C87.9188 86.6512 87.1846 87.4007 86.8186 87.5875C86.3346 87.8344 85.6754 87.8433 85.3516 87.6072C85.217 87.5089 85.0265 87.2657 84.9284 87.0667C84.8302 86.8677 84.6958 86.6404 84.6296 86.5617C84.4635 86.364 84.5764 85.5607 84.8218 85.1938C85.0058 84.9189 85.695 84.4656 85.9444 84.4555C86.0126 84.4527 86.4835 84.882 86.991 85.4095ZM89.9191 87.8773C90.4849 88.1137 90.4266 88.4352 89.6762 89.2184C89.1755 89.7408 88.8498 89.8239 88.5712 89.5C88.2929 89.1763 88.3094 88.8344 88.6248 88.399C89.0899 87.7571 89.3654 87.646 89.9191 87.8773ZM59.3687 94.6384C59.0161 94.7685 58.9535 95.2776 59.2775 95.3803C59.3654 95.4083 59.5417 95.5355 59.6693 95.6632C59.8671 95.8609 59.9014 95.9734 59.9014 96.4242C59.9014 96.7152 59.9434 97.0319 59.9948 97.1279C60.0515 97.2338 60.0642 97.515 60.0271 97.8427C59.9749 98.3038 59.9345 98.3948 59.7503 98.4653C59.3054 98.6339 58.301 97.7987 58.1118 97.1022C58.0544 96.8912 57.9569 96.5558 57.8952 96.3569C57.8334 96.158 57.802 95.7966 57.8253 95.5538C57.8612 95.1793 57.8376 95.0851 57.6696 94.934C57.4907 94.7729 57.3547 94.7567 56.2707 94.7668C55.5921 94.7732 55.0304 94.8175 54.9791 94.8688C54.8255 95.0224 55.0597 95.3235 55.4896 95.5256C55.7772 95.6608 55.9017 95.7784 55.9369 95.9481C56.0749 96.6134 56.2152 97.0629 56.5253 97.8338C56.841 98.6179 57.0343 98.89 57.4478 99.1309C57.5842 99.2103 57.5237 99.2656 57.0287 99.5092C56.3129 99.8616 56.1641 100.14 56.1371 101.179C56.1211 101.8 56.1506 101.957 56.3625 102.384C56.8273 103.319 57.4397 103.585 59.0538 103.551C61.9184 103.492 62.3255 103.465 62.5397 103.325C62.8714 103.108 62.8239 102.796 62.422 102.553C62.238 102.44 62.0633 102.314 62.0339 102.272C61.8149 101.954 61.5336 96.3024 61.71 95.7647C61.7533 95.6328 61.9262 95.4199 62.0942 95.2917C62.4054 95.0544 62.4891 94.778 62.2881 94.651C62.1512 94.5645 59.5989 94.5534 59.3687 94.6384ZM60.3191 101.137C60.503 101.501 60.2817 101.873 59.8065 101.998C59.2443 102.146 58.8 102.139 58.3881 101.974C58.1005 101.858 58.0136 101.767 57.9405 101.505C57.8651 101.234 57.8776 101.142 58.0148 100.956C58.158 100.763 58.2663 100.728 58.8398 100.689C59.6055 100.637 60.1502 100.802 60.3191 101.137Z" fill="#141414"/>
</g>
<defs>
<clipPath id="clip0_3298_19762">
<rect width="101" height="101" fill="white" transform="translate(9 9)"/>
</clipPath>
</defs>
</svg>
