<svg xmlns="http://www.w3.org/2000/svg" width="119" height="119" fill="none" viewBox="0 0 119 119">
    <rect width="119" height="119" fill="#fff" rx="59.5"/>
    <g clip-path="url(#a)">
        <path fill="#141414" fill-rule="evenodd" d="M60.392 9.01c-.049.02-1.133.055-2.409.077-2.14.037-3.088.1-4.996.332-1.843.223-2.11.264-2.255.339-.085.044-.636.169-1.225.277-1.447.265-1.673.313-2.486.53-.386.102-.73.168-.766.146-.09-.056-.878.171-1.298.376a5.127 5.127 0 0 1-.803.288c-.488.124-1.593.5-2.365.805-.27.107-.616.225-.77.264a3.107 3.107 0 0 0-.58.23c-.746.396-1.334.666-1.453.666-.26 0-1.299.507-3.175 1.548a377.578 377.578 0 0 1-2.364 1.305c-.863.464-1.56.884-1.916 1.156-1.217.927-2.345 1.763-2.813 2.084-1.41.967-1.816 1.299-3.564 2.919-.397.367-1.063.967-1.479 1.33-.416.365-.793.726-.837.804-.044.077-.275.35-.513.604s-.432.508-.432.563c0 .055-.042.074-.092.043-.116-.072-.386.24-.66.76-.115.22-.446.648-.733.949-.288.3-.764.88-1.058 1.286-.295.407-.672.884-.838 1.06a6.407 6.407 0 0 0-.596.772c-.161.25-.518.767-.793 1.15a11.28 11.28 0 0 0-.79 1.288c-.16.325-.5.901-.755 1.28-.504.75-1.307 2.311-1.725 3.353a23.032 23.032 0 0 1-.985 2.099c-.206.39-.581 1.362-.72 1.864-.05.184-.124.334-.163.334-.084 0-.731 2.008-.934 2.9a13.83 13.83 0 0 1-.308 1.115c-.414 1.224-1.08 4.44-1.347 6.514-.099.76-.228 1.724-.288 2.14-.174 1.22-.127 9.206.062 10.53.081.563.207 1.547.28 2.185.073.638.212 1.39.31 1.673.1.29.177.747.177 1.048 0 .302.077.759.177 1.048.169.49.331 1.185.412 1.762.046.331.11.55.264.893.262.585.574 1.504.574 1.689 0 .216.352 1.319.443 1.39.062.047.394.989.71 2.01.114.37.265.672.368.737.096.06.175.15.175.198 0 .085.744 1.708 1.043 2.274.077.147.26.504.405.794.146.289.415.77.598 1.07.183.3.462.777.62 1.06.396.714.663 1.14 1.445 2.31.372.556.859 1.293 1.082 1.638.222.344.474.684.559.754.085.07.297.351.47.623.293.458 1.478 1.873 2.132 2.545.154.159.402.456.55.662.15.205.475.535.725.734.249.198.453.396.453.44 0 .125 2.324 2.394 2.721 2.656.196.13.437.322.535.426.099.105.498.425.89.71.39.286.912.727 1.16.98.246.252.715.606 1.04.787.326.181.767.479.982.663.214.185.507.388.651.451.145.062.405.227.58.364.175.137.479.332.675.432.197.1.525.342.73.537.204.196.566.428.803.516.236.089.705.34 1.04.559.55.358 1.32.735 1.8.882.097.031.459.205.802.388.85.451 1.281.668 1.65.829 1.904.832 2.532 1.075 3.258 1.264.467.121 1.14.303 1.495.404.355.102.946.265 1.313.364.367.098.947.277 1.287.396.341.119.748.216.904.216.157 0 .85.16 1.54.355.819.231 1.601.387 2.255.449.551.052 1.035.115 1.076.14.041.026.587.104 1.214.173.626.071 1.44.179 1.808.242.396.067 1.107.099 1.74.078 1.594-.053 2.511-.043 3.248.035.397.043 1.054.031 1.65-.03.545-.056 1.713-.165 2.597-.242.883-.077 1.859-.198 2.169-.268.31-.071.751-.13.981-.131.23-.001.7-.06 1.043-.134.344-.072.75-.132.903-.132.154 0 .455-.062.67-.139.214-.076.731-.22 1.148-.319.418-.099 1.1-.301 1.517-.448.417-.147.94-.302 1.16-.344.735-.138 1.097-.252 1.33-.42.127-.091.673-.298 1.213-.458 1.064-.318 2.603-.938 4.015-1.619 1.264-.609 2.079-.981 2.151-.981.035 0 .206-.11.382-.244.176-.134.561-.358.856-.497.564-.266 1.324-.724 1.58-.953.083-.075.344-.234.58-.355.532-.273 2.694-1.781 3.403-2.373.18-.151.468-.37.64-.486.697-.476 2.129-1.712 2.631-2.272.295-.329.679-.672.854-.762.499-.258.99-.705 1.87-1.706.449-.509.93-1.016 1.07-1.127.14-.112.343-.352.452-.536.11-.183.33-.473.489-.645.16-.172.48-.593.713-.937.231-.343.554-.765.715-.937.645-.687 1.832-2.317 2.493-3.424.384-.644.992-1.644 1.353-2.222.359-.578.759-1.261.886-1.517.129-.256.364-.686.525-.956.16-.27.341-.651.402-.848.062-.196.169-.421.238-.501.069-.08.26-.461.424-.848.163-.386.39-.859.503-1.05.113-.19.236-.511.274-.713.075-.405.595-1.909.806-2.33.19-.38 1.009-2.647 1.224-3.39.356-1.232.706-3.017 1.036-5.284.115-.796.238-1.492.272-1.546.033-.055.094-.628.135-1.274a55.36 55.36 0 0 1 .161-1.979c.155-1.456-.005-7.654-.205-7.978-.042-.067-.106-.593-.142-1.17-.066-1.032-.26-2.12-.849-4.777-.164-.74-.305-1.543-.313-1.785-.02-.56-.154-1.113-.315-1.293-.069-.077-.163-.346-.211-.597-.048-.252-.271-.895-.496-1.43-.224-.536-.482-1.271-.574-1.634-.151-.6-.951-2.579-1.551-3.836-.131-.275-.238-.547-.238-.606 0-.156-.352-.83-.542-1.037-.21-.23-.618-.996-.618-1.16 0-.07-.221-.45-.491-.846-.27-.397-.49-.736-.49-.755 0-.034-.782-1.237-1.221-1.878a8.117 8.117 0 0 1-.482-.847c-.13-.27-.347-.591-.482-.714-.134-.123-.401-.452-.592-.733-.192-.28-.559-.761-.816-1.07-.496-.595-.868-1.112-.868-1.206 0-.064-.843-.956-2.721-2.88-1.351-1.383-3.048-2.98-3.704-3.483-.22-.17-.421-.33-.446-.358-.024-.027-.386-.32-.803-.651-.417-.33-.899-.718-1.07-.861-.41-.34-1.844-1.318-2.632-1.794a62.056 62.056 0 0 1-2.098-1.327c-.123-.084-.865-.486-1.65-.894-.785-.407-1.496-.81-1.58-.897-.083-.086-.304-.205-.49-.263a6.892 6.892 0 0 1-.702-.276c-.2-.094-.424-.17-.5-.17-.076 0-.395-.115-.708-.256-.314-.14-.791-.325-1.06-.41-.27-.085-.557-.23-.638-.322-.08-.091-.34-.209-.58-.26-.807-.176-1.414-.388-1.574-.55-.175-.18-.28-.211-1.152-.344a5.07 5.07 0 0 1-1.013-.269c-.23-.098-.88-.261-1.447-.363-.566-.101-1.114-.237-1.217-.3-.166-.104-.62-.198-1.305-.272a7.912 7.912 0 0 1-.802-.177 10.155 10.155 0 0 0-1.381-.226c-.442-.04-1.325-.14-1.963-.224a74.694 74.694 0 0 0-1.383-.172 2.032 2.032 0 0 1-.312-.05c-.05-.015-.551-.031-1.116-.036-.564-.004-1.206-.036-1.427-.072-.221-.035-.442-.048-.49-.027Zm2.9 1.029c.1.053.22.073.267.044.105-.064 3.69.355 3.843.45.064.04.816.163 1.868.307.319.043.84.16 1.16.26.319.099.961.264 1.427.366.466.102.988.24 1.16.304.459.174.89.296 1.294.365.196.033.497.133.669.221.172.089.493.21.714.27.477.129.979.314 1.482.545.201.093.444.169.538.169.095 0 .33.08.523.178.192.098.414.179.492.179.079 0 .22.059.316.13a.673.673 0 0 0 .307.135c.256.006 4.936 2.42 5.05 2.604.031.052.248.182.48.29.233.107.7.378 1.037.602.339.224.896.584 1.24.799.343.215.94.632 1.327.927.386.294.848.632 1.026.75.178.117.585.441.904.72.319.278.677.572.797.653.524.356 5.011 4.73 5.697 5.555.201.24.602.733.869 1.066.118.147.437.528.708.847.272.319.494.627.494.686 0 .06.073.16.162.224.09.064.43.518.759 1.009.327.49.776 1.146.997 1.455.221.31.402.587.402.617 0 .029.1.184.223.345.122.16.223.35.223.421 0 .07.063.181.14.245.078.064.228.277.335.472.107.196.294.53.417.743.122.213.358.637.523.944.165.306.335.595.379.642.044.047.08.135.08.197 0 .061.1.261.224.444.124.182.25.435.281.562.029.126.101.29.159.363.204.259 1.005 2.102 1.183 2.721.028.098.102.239.164.312.061.074.172.355.244.625.073.27.221.712.329.981.108.27.228.612.266.759.04.147.173.529.298.847.125.32.255.74.287.934.033.195.11.456.173.58.062.125.182.547.265.94.083.393.189.837.235.988.047.15.085.36.085.465 0 .105.058.364.129.574.165.487.813 4.608.937 5.959.338 3.685.301 7.756-.096 10.438-.047.32-.121.821-.162 1.116-.178 1.233-.28 1.832-.456 2.677-.102.49-.184.972-.182 1.07.003.098-.072.46-.165.803-.093.344-.279 1.057-.412 1.586-.133.529-.276.983-.319 1.01-.042.025-.077.146-.077.268 0 .122-.079.377-.177.567-.096.19-.203.519-.236.732-.034.213-.276.926-.538 1.585-.262.659-.477 1.237-.477 1.284 0 .093-.269.706-.544 1.239-.093.181-.169.371-.169.422 0 .107-.695 1.615-.98 2.125a6.763 6.763 0 0 0-.22.469c-.174.404-.648 1.25-.8 1.425a2.424 2.424 0 0 0-.242.37 72.472 72.472 0 0 1-1.178 2.02c-.57.948-1.159 1.826-1.409 2.1-.142.154-.257.324-.257.377 0 .053-.145.255-.322.448a8.91 8.91 0 0 0-.63.799c-.732 1.062-2.776 3.41-4.27 4.904-.902.902-2.15 2.067-2.528 2.36-.228.177-.534.43-.682.562-1.2 1.082-2.412 2.033-2.589 2.033-.055 0-.183.09-.284.2-.26.285-2.874 2.031-3.04 2.031-.035 0-.295.16-.577.356-.283.196-.845.529-1.25.739-.404.21-.896.486-1.093.611a3.647 3.647 0 0 1-.686.337c-.18.06-.421.181-.535.27-.113.088-.427.25-.697.357-.27.107-.691.292-.937.41-1.126.542-4.218 1.714-5.082 1.928a5.104 5.104 0 0 0-.624.202 7.754 7.754 0 0 1-1.298.415c-.171.035-.713.165-1.204.288-1.326.334-1.73.424-2.32.518a7.015 7.015 0 0 0-.803.17c-.147.047-.65.129-1.115.181-.467.053-.948.133-1.071.179-.123.044-.785.122-1.472.171-.687.05-1.59.121-2.008.16-1.176.107-6.063.074-7.405-.05-1.687-.156-3.244-.359-3.926-.511-.319-.071-.718-.129-.886-.129-.168 0-.43-.037-.58-.084-.15-.045-.615-.151-1.032-.233-.417-.082-1-.222-1.294-.31-.294-.088-.756-.21-1.026-.268-.27-.059-.712-.182-.981-.273-.27-.092-.917-.284-1.438-.428a19.467 19.467 0 0 1-1.516-.485c-.314-.122-.671-.251-.794-.287a4.131 4.131 0 0 1-.58-.248 8.406 8.406 0 0 0-.758-.336c-1.237-.468-4.107-1.839-4.997-2.389a9.846 9.846 0 0 0-.772-.409c-.253-.12-.484-.257-.514-.305-.044-.071-1.291-.837-1.617-.993-.21-.1-2.169-1.46-2.584-1.793a6.084 6.084 0 0 0-.699-.493c-.237-.127-1.79-1.41-2.61-2.156l-1.152-1.046c-.434-.392-.972-.91-1.197-1.149-.225-.239-.827-.861-1.337-1.383a26.676 26.676 0 0 1-1.41-1.55c-.264-.33-.72-.871-1.012-1.2-.292-.33-.531-.65-.531-.71 0-.062-.221-.36-.492-.663-.27-.304-.662-.821-.87-1.15a76.34 76.34 0 0 0-.795-1.228 16.87 16.87 0 0 1-.604-.972c-.102-.19-.386-.645-.631-1.013-.245-.369-.47-.73-.498-.803-.089-.225-.126-.296-.392-.759a16.318 16.318 0 0 1-.476-.903c-.12-.251-.26-.483-.311-.514-.051-.032-.141-.208-.2-.39-.06-.184-.364-.867-.677-1.518-.312-.65-.567-1.254-.567-1.34a.766.766 0 0 0-.137-.353c-.075-.107-.273-.567-.44-1.023a86.211 86.211 0 0 0-.498-1.32 6.725 6.725 0 0 1-.26-.803 20.315 20.315 0 0 0-.35-1.204c-.424-1.331-.62-2.017-.675-2.365a7.8 7.8 0 0 0-.18-.758c-.117-.398-.369-1.6-.599-2.855l-.18-.982a9.16 9.16 0 0 1-.12-.937 5.28 5.28 0 0 0-.07-.624c-.058-.275-.223-2.233-.288-3.435-.063-1.156-.064-4.304-.002-4.895.027-.252.068-.8.092-1.217.092-1.591.576-5.3.762-5.835.05-.142.089-.383.088-.535 0-.153.084-.558.187-.902.187-.622.256-.887.425-1.65.284-1.279 1.11-3.899 1.423-4.514.097-.192.219-.49.27-.661.216-.724.579-1.66.695-1.791a.493.493 0 0 0 .124-.259c0-.064.146-.422.325-.796.179-.373.395-.839.48-1.035.468-1.068 1.773-3.48 2.127-3.93.105-.134.191-.293.191-.354s.066-.165.146-.232c.08-.067.216-.282.302-.48.182-.419 1.152-1.772 2.885-4.021a41.44 41.44 0 0 1 1.354-1.633c.44-.502.892-1.042 1.004-1.199.203-.284 1.864-1.93 3.338-3.308 1.077-1.006 2.311-2.041 3.113-2.61.748-.532 2.626-1.895 3.017-2.19.215-.163.601-.417.857-.564.255-.148.594-.348.753-.447 1.711-1.06 4.954-2.726 5.98-3.074.319-.108.68-.25.804-.316.341-.181 1.414-.58 1.562-.58.072 0 .302-.075.512-.167.21-.091.743-.276 1.184-.41a41.038 41.038 0 0 0 1.322-.427c.286-.1.667-.212.848-.25.18-.036.67-.152 1.087-.256.417-.105 1.02-.251 1.339-.326.318-.075.72-.172.892-.216.172-.044.493-.104.713-.134.221-.03.578-.113.793-.186.375-.127 1.71-.298 3.802-.488.54-.05 1.303-.121 1.696-.16 1.056-.106 6.87-.044 7.093.076Zm-5.396.875c-.016.016-.524.045-1.13.065a34.384 34.384 0 0 0-5.776.671c-.705.144-1.396.262-1.534.262-.139 0-.565.097-.948.214a9.475 9.475 0 0 1-1.073.269c-.207.03-.709.155-1.115.278-.407.124-.94.283-1.185.354-.245.072-.968.289-1.606.483-.638.194-1.26.381-1.383.415a5.942 5.942 0 0 0-.733.319c-.281.14-.569.256-.64.256-.07 0-.43.16-.8.355a13.37 13.37 0 0 1-1.271.582c-.331.124-.658.274-.728.332-.07.057-.675.39-1.346.74-2.394 1.247-5.91 3.534-7.293 4.742-.29.254-.716.595-.947.759-.656.465-1.71 1.38-1.925 1.672-.108.146-.472.503-.81.793-.873.752-3.659 3.814-4.618 5.078-.104.137-.324.45-.488.695-.165.245-.461.651-.659.903s-.681.967-1.074 1.591c-.392.624-.817 1.261-.943 1.417-.212.26-1.307 2.215-1.707 3.048a15.64 15.64 0 0 1-.293.58 41.639 41.639 0 0 0-1.112 2.32 62.508 62.508 0 0 0-.806 2.052c-.04.123-.143.424-.227.669-.084.245-.25.747-.367 1.115l-.616 1.919c-.22.687-.426 1.41-.456 1.606-.03.196-.092.428-.137.516-.045.088-.14.51-.21.937-.07.428-.167.978-.216 1.223-.364 1.846-.549 3.022-.636 4.06a304.97 304.97 0 0 1-.148 1.695c-.098 1.047-.055 6.748.057 7.762a75.27 75.27 0 0 0 .361 2.9c.045.295.145.963.22 1.486.077.522.203 1.138.281 1.368.078.23.181.666.229.968.047.303.164.779.26 1.059.095.28.236.815.314 1.19.077.376.261 1.01.409 1.41.147.4.383 1.069.525 1.486.454 1.34.632 1.82.844 2.275l.582 1.25c.205.441.425.972.49 1.178.063.207.234.57.38.806.146.237.352.628.46.87.106.242.248.502.314.577.067.076.234.358.373.628.138.27.418.752.622 1.07.204.32.398.667.431.773.033.106.199.367.368.58.17.213.308.43.309.483 0 .053.135.253.3.446.165.193.366.48.447.639.082.158.325.505.54.77.216.264.453.596.526.737.074.141.242.357.375.48.132.123.364.404.515.624.312.458.898 1.133 2.116 2.44l1.22 1.309c1.027 1.107 4.364 4.103 4.57 4.103.042 0 .316.19.61.424.294.233.726.565.96.736.233.172.65.483.927.69.276.208.943.645 1.483.969.54.326 1.147.708 1.35.848.204.141.476.296.605.345.13.049.613.307 1.073.573.461.266.927.512 1.036.547.109.034.427.197.707.361.28.165.746.386 1.036.493.29.107.958.39 1.484.629.526.238 1.005.434 1.065.434.06 0 .282.083.494.186.212.103.797.32 1.3.484.82.266 1.163.381 2.073.688.147.049.489.141.759.204.27.062.852.22 1.293.35.71.21 1.785.428 3.346.677.27.043.832.14 1.25.217.416.075.926.138 1.131.138.205 0 .479.04.607.089.38.144 2.961.278 5.31.274 2.024-.003 4.456-.149 6.067-.364.368-.049 1.01-.126 1.428-.17.417-.045.859-.12.983-.168.123-.047.525-.133.892-.19a25.66 25.66 0 0 0 3.3-.768 20.44 20.44 0 0 1 1.516-.399c.27-.05.752-.189 1.07-.306.32-.119.761-.275.982-.347 1.223-.401 3.602-1.395 4.423-1.847.352-.195.685-.354.74-.354.054 0 .602-.272 1.219-.603 1.785-.959 2.287-1.249 3.065-1.77.227-.152.713-.446 1.081-.655.368-.209.87-.55 1.116-.757.245-.21.67-.521.944-.695.274-.174.708-.504.965-.732.257-.228.615-.508.796-.623.18-.115.409-.3.507-.412.098-.112.291-.273.43-.358.245-.15.918-.778 2.816-2.622.782-.76 1.737-1.8 3.53-3.844.35-.398.795-.96 1.232-1.554l.657-.892c.203-.274.474-.708.603-.964.128-.256.348-.597.486-.758.41-.477.793-1.078 1.278-2.007.25-.48.525-.974.61-1.097.154-.224 1.443-2.808 1.893-3.798.277-.61.813-1.99.949-2.448.051-.171.281-.834.511-1.472.52-1.445.838-2.536 1.153-3.97.136-.614.342-1.491.459-1.95.116-.46.211-.982.212-1.16a3.3 3.3 0 0 1 .14-.771c.077-.246.174-.828.216-1.294.042-.466.146-1.57.231-2.454.323-3.343.105-8.984-.457-11.777-.069-.344-.186-.926-.258-1.294-.073-.368-.195-.95-.27-1.294-.076-.343-.138-.713-.138-.822 0-.108-.103-.51-.229-.892-.211-.64-.472-1.56-.792-2.791-.07-.27-.331-.993-.579-1.606-.247-.614-.45-1.176-.451-1.25-.001-.073-.076-.254-.166-.402a4.475 4.475 0 0 1-.322-.758c-.088-.27-.25-.67-.361-.892a81.46 81.46 0 0 1-.564-1.16c-.553-1.154-1.817-3.468-2.174-3.975-.174-.248-.345-.54-.379-.648-.035-.108-.351-.624-.703-1.147-.352-.522-.782-1.16-.953-1.419-.346-.52-.8-1.113-1.472-1.924a56.602 56.602 0 0 1-.773-.954c-.18-.229-.792-.916-1.36-1.526-.57-.61-1.035-1.138-1.035-1.172 0-.073-3.662-3.405-4.43-4.031a57.071 57.071 0 0 0-1.28-1 61.096 61.096 0 0 1-1.026-.791 6.024 6.024 0 0 0-.714-.463 12.96 12.96 0 0 1-.847-.519c-1.69-1.148-2.445-1.599-4.15-2.473-.539-.277-1.101-.568-1.248-.647-.61-.327-2.268-1.068-2.766-1.236a5.26 5.26 0 0 1-.803-.34 2.46 2.46 0 0 0-.491-.223 11.075 11.075 0 0 1-.67-.228 21.784 21.784 0 0 0-1.516-.446 90.366 90.366 0 0 1-1.472-.394l-1.026-.296c-.344-.1-.826-.223-1.07-.275a96.32 96.32 0 0 1-1.384-.316 31.62 31.62 0 0 0-1.784-.357c-2.622-.425-3.025-.473-4.64-.56-1.254-.066-5.096-.169-5.128-.137Zm4.236 1.757c.27.018.973.056 1.561.084.59.028 1.412.11 1.83.18.417.071 1.24.193 1.829.272 1.067.143 2.959.537 4.06.846.318.09.98.27 1.471.398.491.13 1.064.314 1.274.41.21.096.435.174.501.174.18 0 2.147.765 3.49 1.356.785.346 3.802 1.843 3.933 1.952.054.045.375.226.714.402.34.176 1.179.692 1.866 1.147.687.454 1.374.903 1.526.996.387.237.923.624 1.623 1.174 1.192.935 1.662 1.327 2.328 1.94.374.344 1.19 1.082 1.817 1.64.625.558 1.137 1.042 1.137 1.075 0 .033.426.52.946 1.082 1.345 1.451 2.912 3.36 3.55 4.322.162.246.517.755.789 1.133.271.377.586.879.699 1.115.112.236.391.71.62 1.054.23.343.559.905.731 1.249.173.343.545 1.045.827 1.559.281.514.59 1.136.687 1.383.096.246.226.528.289.627.063.098.165.339.226.535.062.196.223.618.359.937.798 1.87 1.057 2.589 1.433 3.97.106.393.33 1.145.497 1.671.167.526.305 1.068.308 1.205.002.136.083.588.18 1.005.157.677.292 1.395.533 2.81.041.246.138 1.03.215 1.74.076.712.159 1.375.185 1.473.098.383.138 5.582.05 6.647-.171 2.089-.439 4.416-.536 4.668a1.94 1.94 0 0 0-.097.577c0 .179-.099.728-.219 1.22-.12.493-.322 1.358-.448 1.922-.351 1.572-.475 2.02-.848 3.034a32.582 32.582 0 0 0-.436 1.249c-.209.711-1.052 2.923-1.171 3.078-.039.049-.181.37-.317.713a16.476 16.476 0 0 1-1.022 2.053 2.826 2.826 0 0 0-.224.483c-.035.12-.203.431-.371.694a7.186 7.186 0 0 0-.466.855c-.233.543-.876 1.571-1.223 1.958a4.74 4.74 0 0 0-.563.856c-.146.289-.36.642-.478.784-.117.142-.347.46-.51.704-.165.246-.443.614-.619.818-.175.204-.52.617-.765.917-1.137 1.39-2.263 2.602-4.003 4.31-1.037 1.018-1.918 1.85-1.957 1.851-.039 0-.26.173-.49.383-.231.21-.581.5-.777.642-.197.143-.578.448-.848.678-.27.23-.611.48-.758.556-.147.076-.548.364-.891.64-.343.275-.885.645-1.205.822-.32.178-.742.43-.938.56l-.77.512c-.227.15-.508.303-.624.339a2.005 2.005 0 0 0-.48.261c-.352.261-1.75.981-2.34 1.206a5.743 5.743 0 0 0-.804.388 6.642 6.642 0 0 1-.87.417c-.295.115-.576.24-.626.278-.077.057-1.463.589-2.542.975a91.29 91.29 0 0 0-1 .367c-.377.141-.766.256-.864.256-.098 0-.638.139-1.2.309-1.135.345-1.713.481-3.38.8-.625.118-1.174.24-1.221.269-.047.029-.46.092-.917.14-.457.047-1.132.127-1.5.176-3.498.469-9.513.384-12.536-.177a39.379 39.379 0 0 0-1.045-.176c-.28-.043-.543-.098-.583-.123-.04-.025-.412-.089-.828-.143-.824-.107-3.309-.747-4.593-1.182a215.9 215.9 0 0 0-.936-.312c-.368-.121-.87-.302-1.116-.4-.245-.099-.76-.295-1.144-.434-.384-.139-.746-.293-.803-.34-.058-.047-.522-.254-1.032-.46-.942-.38-3.338-1.576-3.77-1.883-.13-.093-.269-.169-.307-.169-.15 0-2.79-1.637-3.383-2.097a26.65 26.65 0 0 0-.981-.728c-.196-.135-.558-.411-.803-.615a5.748 5.748 0 0 0-.714-.513 4.111 4.111 0 0 1-.639-.481c-.204-.186-.68-.6-1.055-.919-1.258-1.066-4.156-4.005-4.905-4.974-.237-.307-.457-.558-.488-.558-.031 0-.272-.3-.535-.669-.264-.368-.512-.669-.553-.669-.04 0-.14-.13-.223-.29a4.428 4.428 0 0 0-.502-.691 4.552 4.552 0 0 1-.534-.759 4.18 4.18 0 0 0-.4-.624c-.32-.392-.803-1.164-1.586-2.535a65.82 65.82 0 0 0-.57-.975c-.167-.278-.361-.626-.431-.773a12.08 12.08 0 0 0-.304-.58c-.196-.35-.344-.663-.863-1.829-.197-.442-.522-1.168-.723-1.614-.202-.446-.366-.868-.367-.937 0-.07-.064-.246-.143-.393-.079-.148-.256-.61-.395-1.026a57.77 57.77 0 0 0-.514-1.473c-.145-.392-.291-.894-.325-1.115-.033-.22-.156-.723-.273-1.115a19.87 19.87 0 0 1-.35-1.383 21.414 21.414 0 0 0-.273-1.157 4.137 4.137 0 0 1-.135-.912 3.11 3.11 0 0 0-.125-.805 5.179 5.179 0 0 1-.176-.918 64.345 64.345 0 0 0-.275-2.454c-.192-1.537-.23-5.16-.075-7.093.063-.785.153-1.944.2-2.574.048-.63.125-1.273.173-1.428.048-.154.15-.642.229-1.084.078-.441.18-.983.227-1.204.047-.22.112-.622.144-.892.032-.27.107-.612.167-.76.06-.148.138-.46.172-.693.035-.232.165-.713.289-1.069.123-.355.356-1.087.518-1.627a36.13 36.13 0 0 1 1.071-3.123c.158-.392.38-.955.494-1.25.114-.294.384-.876.6-1.293l.578-1.115c.102-.196.245-.477.318-.625.512-1.03 1.231-2.349 1.362-2.498.086-.098.308-.42.493-.714.895-1.426 1.884-2.844 2.512-3.602.137-.165.333-.436.435-.602.18-.29.93-1.17 2.112-2.48a53.351 53.351 0 0 1 2.587-2.626c.282-.263.513-.51.513-.55 0-.039.281-.28.625-.534.343-.255.624-.498.624-.542 0-.043.13-.145.288-.227.158-.082.61-.429 1.004-.771.394-.343.856-.717 1.028-.833.172-.115.734-.509 1.25-.875a33.26 33.26 0 0 1 1.56-1.045c2.03-1.234 2.8-1.685 2.87-1.685.043 0 .52-.246 1.059-.546.538-.3 1.29-.664 1.668-.81.38-.145.833-.361 1.008-.48.175-.119.378-.216.45-.216.073 0 .406-.138.74-.306a7.164 7.164 0 0 1 1.18-.454c.315-.081.854-.258 1.197-.394.344-.136.785-.29.981-.343.197-.053.639-.183.982-.289.343-.106.946-.264 1.338-.35.393-.086.955-.22 1.25-.299a13.07 13.07 0 0 1 1.204-.238c.665-.097 1.01-.151 2.543-.404a10.587 10.587 0 0 1 1.347-.134c.3 0 .66-.04.803-.09.596-.202 5.099-.285 7.352-.134Zm-4.569 2.085c-.7.08-.788.186-.541.661.177.341.188.441.115 1.058-.044.374-.145.836-.226 1.026-.306.721-.84 2.505-1.119 3.735-.244 1.075-.528 1.658-.989 2.028-.363.292-.457.63-.203.729.24.092 2.715.06 2.898-.039.244-.13.22-.23-.184-.765-.196-.26-.357-.53-.357-.6 0-.069-.058-.291-.13-.493-.112-.32-.112-.422 0-.8.07-.237.199-.494.285-.569.217-.188 2.327-.303 2.546-.138.231.173.41.8.475 1.665l.06.788-.283.21c-.186.137-.275.272-.258.39.026.176.078.181 1.714.162.93-.01 1.727-.058 1.774-.105.155-.155-.02-.526-.343-.726-.435-.269-.557-.483-.898-1.585-.385-1.246-1.077-3.311-1.335-3.989-.155-.406-.21-.758-.23-1.46-.015-.511-.072-.986-.128-1.064-.082-.11-.314-.144-1.118-.158-.559-.01-1.245.007-1.525.039Zm1.168 2.007c.124.149.407.996.588 1.763.131.553.13.573-.053.725-.145.121-.354.156-.93.156-.428 0-.769-.04-.802-.095-.033-.052.024-.287.126-.523.101-.236.23-.725.284-1.088.131-.857.495-1.29.787-.938Zm27.179 7.462c-.14.155-.148.225-.059.524.202.672.142.905-.506 1.985-.335.558-.78 1.356-.987 1.773-.208.416-.435.82-.505.898-.07.078-.245.46-.39.849-.144.389-.362.948-.484 1.243-.122.294-.25.726-.284.96-.055.374-.034.46.176.736.278.364.333.372.908.124.811-.35 1.416-.627 1.64-.752.123-.067.464-.25.758-.405.295-.155.664-.377.82-.495.156-.117.327-.213.379-.213.153 0 .11.227-.075.394a.91.91 0 0 0-.229.393c-.032.132-.148.38-.259.552-.253.392-1.16 2.262-1.294 2.667-.151.459-.125.599.177.943.256.291.315.315.783.315.456 0 .555-.037.995-.37.268-.203.655-.444.86-.536.204-.091.546-.312.758-.49.213-.179.748-.564 1.19-.857.441-.293.988-.698 1.215-.901.433-.39 1.06-.907 1.363-1.124.099-.071.463-.151.808-.178.557-.044.632-.071.656-.241.033-.228-.285-.61-1.138-1.366-.374-.331-.661-.521-.741-.49-.183.07-.334.436-.334.807 0 .172-.06.427-.132.567-.113.218-.902.85-1.843 1.477a14.29 14.29 0 0 0-.78.59c-.54.435-1.081.755-1.082.639-.002-.356.973-2.503 1.308-2.88.11-.123.413-.604.676-1.07.458-.813.492-.85.809-.876.272-.023.33-.062.33-.223-.002-.438-.798-1.343-1.5-1.705-.403-.207-.552-.076-.552.482 0 .387-.038.462-.437.868-.623.632-3.526 2.433-3.678 2.281-.118-.117.12-.83.43-1.285.147-.215.307-.512.358-.66.15-.44 1.178-2.215 1.386-2.39.151-.13.277-.151.607-.106.322.045.449.024.563-.09.08-.08.146-.173.146-.207-.002-.142-.349-.569-.648-.796a5.746 5.746 0 0 1-.687-.663c-.313-.359-1.05-.876-1.25-.876-.035 0-.136.08-.225.178Zm-56.633 1.991c-.308.261-.726.693-.93.96-.203.266-.756.878-1.226 1.359-.471.48-.856.927-.856.991 0 .152 1.137 1.212 1.3 1.212.168 0 .254-.387.135-.61-.23-.43-.06-.79.472-.991.388-.148.842.168 2.177 1.513.633.638 1.196 1.159 1.252 1.159.13 0 1.256 1.499 1.323 1.762.07.27-.014.569-.24.856-.153.194-.26.237-.59.237a1.96 1.96 0 0 1-.702-.14c-.607-.289-1.011.07-.56.497.508.48 1.262.65 2.122.478.39-.078 1.299-.929 1.436-1.343.176-.535.14-1.358-.08-1.784-.192-.374-1.36-1.665-2.2-2.432a10.313 10.313 0 0 1-.67-.666c-.123-.144-.495-.53-.826-.86-.539-.536-.602-.636-.602-.949 0-.54.304-.705.846-.459.287.131.448 0 .372-.303-.069-.275-.914-.961-1.185-.961-.124 0-.438.194-.768.474Zm28.84.25c-.368.044-.85.06-1.07.035a2.22 2.22 0 0 0-.711.043c-.17.049-.853.133-1.517.188-.664.055-1.343.155-1.509.224a1.647 1.647 0 0 1-.49.124c-.375 0-2.692.565-3.447.841-3.253 1.19-4.574 1.78-6.496 2.9-.604.352-1.187.675-1.294.717-.388.155-2.768 1.863-3.392 2.436l-1.721 1.57c-.595.543-1.256 1.198-1.469 1.458-.212.26-.713.834-1.111 1.276a17.812 17.812 0 0 0-1.119 1.369c-1.775 2.545-1.934 2.815-3.349 5.658-.582 1.17-.917 2.014-1.54 3.883-.438 1.313-.825 2.628-.859 2.921-.034.294-.159.922-.276 1.397-.118.475-.215.998-.215 1.16 0 .164-.042.438-.093.61-.052.17-.134 1.261-.182 2.423-.111 2.642.03 5.207.4 7.256.287 1.594.63 3.14.793 3.57.074.195.204.597.289.891.17.593.24.79.81 2.276.54 1.406 1.734 3.783 2.487 4.951.158.246.392.632.52.858.128.226.408.627.622.892.214.264.415.55.446.634.08.216.713 1.052.796 1.052.038 0 .168.156.289.347.397.629 2.163 2.481 3.44 3.61 1.59 1.403 4.092 3.226 5.399 3.934.245.133.687.379.981.547.294.168.676.37.848.45l1.517.706c.662.308 1.545.67 1.962.805.417.135.898.302 1.067.373.302.125 1.57.488 2.28.653 3.433.799 4.553.931 7.85.932 2.567 0 3.456-.051 4.774-.275l1.339-.225c2.31-.383 5.37-1.312 7.21-2.19.653-.312 1.236-.567 1.296-.567.06 0 .408-.187.775-.416.367-.228.885-.516 1.151-.638.831-.382 1.794-1.017 3.349-2.211.824-.633 1.646-1.272 1.826-1.419.95-.78 3.038-2.871 3.517-3.524.197-.27.567-.712.822-.982s.88-1.12 1.39-1.89c.508-.77 1.014-1.532 1.123-1.695.11-.163.282-.475.384-.694.102-.218.319-.62.482-.892a5.15 5.15 0 0 0 .41-.851c.063-.197.35-.848.636-1.448.287-.6.522-1.154.522-1.23 0-.075.137-.487.305-.915.335-.857.645-1.768.764-2.251.042-.172.142-.574.223-.893.323-1.285.577-2.66.58-3.135 0-.276.066-.839.145-1.249.248-1.292.185-6.486-.094-7.686a35.555 35.555 0 0 1-.318-1.714c-.261-1.597-.51-2.675-.857-3.703a40.23 40.23 0 0 1-.26-.803c-.239-.774-.492-1.476-.659-1.83a168.03 168.03 0 0 1-.734-1.605c-.31-.687-.675-1.428-.811-1.646-.136-.218-.247-.444-.247-.502 0-.126-2.091-3.261-2.644-3.964-.212-.27-.601-.772-.865-1.115-.927-1.207-4.002-4.148-5.354-5.121-1.825-1.313-3.217-2.226-3.764-2.468a9.542 9.542 0 0 1-.901-.47 11.88 11.88 0 0 0-1.239-.601c-.441-.185-.868-.392-.949-.46-.08-.07-.763-.34-1.517-.602-.753-.262-1.651-.578-1.995-.7a6.897 6.897 0 0 0-1.07-.289c-.246-.035-.547-.114-.67-.174-.262-.13-1.354-.368-2.052-.447-.27-.03-.932-.13-1.472-.222-.54-.092-1.684-.191-2.543-.221-.858-.03-1.722-.07-1.918-.087-.196-.017-.658.005-1.026.05Zm2.989 1.286c.736.027 1.82.125 2.409.217 2.53.397 2.956.476 3.171.586.125.064.486.164.803.221.316.058 1.004.262 1.528.455s1.292.462 1.707.6c.415.136.857.315.982.397.125.082.581.294 1.014.473.434.178 1.014.46 1.29.627.277.167.659.366.848.443.31.127 1.254.716 2.219 1.387l.975.677c.34.235 1 .769 1.465 1.186.466.417 1.091.962 1.39 1.21.666.556 2.496 2.498 2.833 3.007.136.206.323.435.416.51.225.181 2.736 3.911 2.824 4.195.038.123.176.384.306.58.13.197.47.88.753 1.517.284.638.592 1.32.684 1.517.2.426.507 1.294.629 1.771.048.19.146.458.218.598.073.14.132.36.132.487 0 .129.045.319.1.422.174.325.346 1.15.792 3.794.093.553.192 1.042.22 1.086.082.133.172 2.683.161 4.558-.006 1.177-.055 1.984-.15 2.486-.078.41-.142.95-.142 1.202 0 .534-.284 2.063-.49 2.645-.078.22-.179.622-.223.892-.082.5-.381 1.453-.784 2.498-.123.32-.261.72-.308.893-.047.171-.237.633-.422 1.026-.185.392-.425.934-.532 1.204a9.81 9.81 0 0 1-.339.758l-.487.923c-.19.36-.438.782-.552.937a2.31 2.31 0 0 0-.255.417c-.09.258-1.7 2.544-2.075 2.943-.206.22-.571.663-.81.982-.573.764-2.95 3.113-3.838 3.791l-1.554 1.199c-1.35 1.043-1.849 1.365-3.24 2.088-.53.276-1.068.583-1.195.682-.126.1-.284.18-.352.18-.067 0-.654.255-1.304.567-1.785.857-4.496 1.682-6.891 2.098-1.467.255-2.226.366-3.123.457-1.129.114-4.363.11-5.485-.008l-1.564-.162c-.441-.046-.923-.126-1.07-.178-.247-.088-1.108-.276-2.097-.458-.51-.093-1.91-.488-2.32-.653-.172-.07-.653-.233-1.07-.364-.646-.202-2.753-1.129-3.48-1.53-.123-.068-.404-.21-.625-.316a4.26 4.26 0 0 1-.624-.366 2.724 2.724 0 0 0-.518-.297c-.962-.401-5.227-3.64-6.155-4.674a65.288 65.288 0 0 0-.759-.814c-1.002-1.06-1.273-1.373-1.467-1.689-.106-.171-.272-.36-.37-.42-.097-.06-.317-.348-.488-.64a9.943 9.943 0 0 0-.72-1.032 6.127 6.127 0 0 1-.597-.878 5.416 5.416 0 0 0-.415-.678 6.196 6.196 0 0 1-.422-.669c-.938-1.762-1.425-2.768-1.78-3.675-.23-.585-.49-1.244-.58-1.465-.09-.221-.254-.723-.363-1.115a14.64 14.64 0 0 0-.357-1.116 4.6 4.6 0 0 1-.223-.892 4.18 4.18 0 0 0-.151-.714c-.092-.238-.4-1.984-.52-2.944-.288-2.314-.311-6.499-.043-7.786.075-.355.135-.757.135-.892 0-.136.08-.532.176-.88.096-.349.219-.95.271-1.335a7.47 7.47 0 0 1 .28-1.216c.1-.284.335-.998.523-1.587.71-2.23 1.198-3.406 2.112-5.086.08-.147.325-.607.543-1.021.218-.415.546-.977.728-1.25.325-.484.444-.653 1.343-1.916.242-.34.736-.942 1.098-1.338.362-.396.797-.9.967-1.122.351-.455 1.978-2.038 2.564-2.493.213-.166.577-.486.808-.711.952-.927 4.178-2.93 6.499-4.033 1.03-.49 2.235-.966 4.27-1.687.68-.242 1.829-.515 3.015-.719.29-.05.59-.124.67-.166.077-.042.684-.123 1.346-.18.663-.056 1.334-.143 1.493-.193.159-.05.36-.07.446-.045.087.025.48.012.872-.03.392-.042.995-.06 1.338-.041.343.02 1.227.057 1.963.085Zm-6.868 2.204c-.2.172-.25.285-.234.523.011.167.032 2.01.045 4.096.023 3.538.038 3.832.21 4.387.24.777.228.76 1.019 1.578.86.89 1.478 1.22 2.459 1.31.38.036.712.096.737.134.053.082.027 7.672-.027 7.726-.02.02-.314.06-.652.09-1.016.087-2.594.68-4.013 1.509l-.276.16-.416-.298c-.229-.164-.416-.325-.416-.357 0-.033-.41-.418-.913-.855a64.537 64.537 0 0 1-1.584-1.43 22.816 22.816 0 0 0-1.205-1.058 26.91 26.91 0 0 1-1.092-.928c-.808-.73-1.282-1.132-1.775-1.501-.239-.18-.578-.45-.752-.601-.175-.151-.712-.556-1.193-.9a45.341 45.341 0 0 1-1.411-1.047c-.295-.234-.571-.424-.614-.424-.043 0-.228-.134-.412-.297-.345-.304-1.073-.748-2.477-1.507-1.335-.722-1.723-.873-2.633-1.029-.98-.167-1.26-.111-1.443.29-.186.41.082.764 1.233 1.627l1.362 1.023c.177.133.368.244.424.246.056.002.368.244.693.539.325.294.627.535.672.535.089 0 1.051.817 2.6 2.207l1.893 1.695c.48.43 1.067.963 1.303 1.184.235.22.818.763 1.294 1.204.93.863 4.04 3.925 4.223 4.158.091.117.019.342-.427 1.317-.589 1.287-.855 2.197-.942 3.225l-.058.669-8.777.005-8.777.005-.014-.719a56.88 56.88 0 0 1 .01-1.806c.023-1.062.018-1.092-.205-1.316-.287-.286-.54-.29-.817-.015l-.214.215v4.178c0 3.7.017 4.197.143 4.337.198.218.671.202.882-.031.152-.169.173-.368.201-1.957.027-1.498.053-1.777.17-1.822.219-.084 17.342-.073 17.422.01.039.042.157.515.263 1.052.222 1.127.508 1.846 1.151 2.89.252.407.458.77.458.803 0 .034-.291.365-.647.737a40.824 40.824 0 0 0-1.316 1.46 54.059 54.059 0 0 1-1.173 1.332c-.278.3-.772.856-1.098 1.235-.326.38-.645.72-.709.758-.063.038-.3.321-.525.63-.226.308-.57.742-.767.966l-.358.406-.652-.14c-.795-.171-2.73-.215-3.64-.082-.68.1-1.81.467-2.225.723-.932.576-1.249 1.39-.765 1.965.285.34.783.464 1.858.464.924 0 1.427.131 1.906.497.358.273.368.387.061.67-.129.119-.376.437-.549.707-.172.27-.452.645-.62.835-.17.19-.368.487-.44.661-.073.175-.31.576-.527.893-.217.317-.394.627-.394.69 0 .062-.08.288-.177.502-.1.22-.177.585-.178.842-.003.572.238.84.754.84.63 0 1.17-.464 3.571-3.072.49-.533.932-1.04.982-1.128.093-.166 1.285-1.443 3.142-3.368.6-.622 1.182-1.252 1.294-1.4.112-.15.715-.792 1.34-1.428.626-.637 1.422-1.459 1.77-1.827.347-.368 1.128-1.18 1.735-1.803l1.104-1.133.696.36c.695.36 2.847.97 3.422.97h.263l.01 1.94c.006 1.068.024 3.175.04 4.683.018 1.815-.003 2.761-.064 2.799-.05.031-.264-.139-.474-.378l-.382-.434-.774.002-.773.001-.526.568c-.49.53-.547.565-.822.513-.195-.037-.416-.192-.652-.456-.379-.425-.851-.672-1.284-.672-.672 0-.762.784-.113.984.208.064.495.285.789.606l.462.506h1.637l.477-.513c.406-.435.526-.513.79-.513.26 0 .384.078.766.482.25.265.574.53.719.59.29.12.318.288.206 1.216l-.055.459-.27-.308c-.329-.374-.853-.654-1.225-.654-.643 0-1.047.183-1.501.678-.59.645-.779.644-1.376-.008-.46-.502-.803-.669-1.38-.67-.192 0-.316.056-.378.172-.21.394-.026.734.464.856.134.034.372.207.529.386.562.644 1.162.868 1.899.71.432-.093.592-.215 1.155-.884.163-.194.645-.224.863-.055.078.06.214.221.304.359.09.138.315.328.5.422.186.095.366.22.402.276.079.128.103 2.133.026 2.18-.03.02-.035.313-.01.653.09 1.262-.117 1.616-.944 1.616-.61 0-.842.137-.842.496 0 .185.09.336.32.535.297.256.398.284 1.333.376.641.063 1.14.07 1.363.018.194-.045.508-.083.699-.084.442-.003.905-.288 1.025-.632.164-.47-.062-.709-.674-.709-.547 0-.945-.25-1.062-.669-.056-.196-.108-1.126-.116-2.068l-.016-1.712.555-.586c.717-.757.877-.768 1.576-.107.638.603 1.028.743 1.673.598.381-.085.561-.195.946-.58.261-.26.622-.52.802-.579.449-.144.584-.555.283-.857-.12-.12-.244-.136-.646-.086-.458.057-.537.104-1.006.588-.333.345-.58.526-.715.526-.122 0-.424-.194-.741-.475-.561-.499-.95-.684-1.43-.684-.383 0-.863.21-1.002.44-.208.342-.29.197-.29-.52 0-.668.013-.71.246-.863.135-.088.407-.34.605-.557.322-.356.388-.39.639-.335.177.038.356.173.488.367.115.168.402.431.639.585.375.243.49.274.895.24a1.784 1.784 0 0 0 1.328-.784c.122-.18.338-.344.55-.416.468-.162.588-.276.588-.563 0-.247-.236-.539-.436-.539-.06 0-.306.064-.545.143-.316.103-.556.274-.877.624-.585.64-.762.639-1.378-.003-.602-.627-1.14-.833-1.75-.67-.227.061-.514.206-.64.321-.125.115-.255.21-.29.21-.034 0-.062-2.024-.062-4.498V68.85l.781-.181c.43-.1 1.022-.221 1.316-.269.594-.096 1.424-.434 1.951-.795l.345-.236.222.265c.121.145 1.153 1.228 2.291 2.406a207.855 207.855 0 0 1 2.987 3.145c.504.552.95 1.004.99 1.004.041 0 .149.116.24.259.09.142 1.093 1.236 2.229 2.43 1.135 1.196 2.392 2.555 2.793 3.021 1.124 1.308 1.438 1.63 1.968 2.02.936.69 1.246.78 1.627.48.286-.224.343-.528.208-1.105-.164-.7-1.098-2.505-1.606-3.1-.261-.305-.476-.587-1.16-1.52l-.303-.414.246-.236c.418-.4 1.058-.586 2.02-.586 1.085 0 1.582-.123 1.869-.464.296-.352.285-.74-.036-1.245-.387-.61-1.09-1.047-1.973-1.223-1.792-.358-1.857-.363-3.346-.235-.785.067-1.548.147-1.696.179-.229.05-.297.017-.474-.222a43.775 43.775 0 0 0-1.19-1.412c-1.382-1.593-1.674-1.924-2.46-2.788-.381-.42-.874-.967-1.095-1.216-.22-.25-.674-.734-1.007-1.078l-.607-.624.273-.463c.679-1.151 1.278-2.71 1.522-3.953l.1-.513.774-.005c.426-.002 2.621-.002 4.879.001l4.104.005.07.914a15.9 15.9 0 0 1 .025 1.734l-.045.82.279.234c.217.182.33.22.51.17.127-.037 1.846-.07 3.82-.074 3.32-.007 3.6-.02 3.747-.166.137-.137.162-.346.177-1.473.01-.722.04-1.674.066-2.115a95.51 95.51 0 0 0 .088-2.543c.022-.957.08-2.142.13-2.633.074-.747.067-.925-.044-1.096-.15-.231-.504-.395-.695-.322-.07.027-.264.01-.433-.036-.633-.175-1.177.347-.959.92.082.214.07.296-.072.485-.237.318-.701.37-2.783.318-2.022-.05-2.013-.047-1.918-.825.052-.424.036-.486-.174-.68-.203-.188-.316-.214-.954-.217-.654-.003-.746.018-.946.218-.17.17-.207.274-.16.46.033.132.073.561.09.954.016.393.06 1.196.099 1.784.069 1.077.065 2.01-.008 2.083-.078.078-9.605.063-9.654-.015-.026-.044-.104-.56-.172-1.148-.105-.904-.195-1.246-.58-2.229-.251-.639-.549-1.267-.661-1.398l-.205-.237.328-.352c.18-.193.52-.534.756-.758.236-.224.969-.929 1.629-1.567 2.132-2.06 3.089-2.952 4.59-4.276.809-.715 1.652-1.46 1.873-1.658.22-.197.657-.569.97-.826.311-.257.793-.672 1.07-.924.276-.251.634-.523.794-.605.16-.081.34-.229.401-.328s.492-.424.958-.723c.899-.576 2.144-1.568 2.366-1.885.184-.264.166-.628-.042-.816-.302-.274-.89-.274-1.881-.003-.495.136-1.048.349-1.23.472-.18.124-.58.34-.887.48-.307.14-.748.4-.981.578-.233.179-.543.375-.69.437a3.344 3.344 0 0 0-.615.389c-.19.151-.387.275-.435.275-.105 0-1.09.716-2.029 1.474-.368.297-1.07.84-1.56 1.206-.491.367-1.079.827-1.307 1.023-.228.197-.79.678-1.248 1.07-.459.393-1.116.977-1.46 1.298-.344.321-.811.731-1.038.911-.227.18-.928.828-1.559 1.439l-1.146 1.11-.226-.154c-.867-.592-3.003-1.399-4.06-1.534-.391-.05-.724-.103-.738-.117-.042-.042-.055-7.723-.014-7.764.02-.02.382-.075.803-.121.575-.063.877-.148 1.204-.337 1.299-.75 1.85-1.383 2.22-2.547.208-.658.215-.766.221-3.613.003-1.614.019-3.397.034-3.961l.029-1.026-.3-.301c-.278-.28-.327-.298-.72-.247-.584.075-7.446.081-8.055.008-.445-.054-.522-.038-.751.159Zm8.206.95.536.01-.005 3.592c-.005 3.527-.01 3.602-.215 4.213-.24.714-.802 1.351-1.565 1.775-.4.222-.577.256-1.706.328-2.052.13-2.621-.049-3.575-1.125-.776-.875-.841-1.154-.827-3.518.007-1.055.011-2.681.01-3.614l-.003-1.695 3.408.011c1.874.007 3.648.017 3.942.023Zm-3.563 7.557c-.173.173-.175.254-.01.391.176.146.495.031.495-.178 0-.253-.309-.389-.484-.213Zm-.096 1.38c-.064.2.088.442.277.442.159 0 .317-.307.25-.484-.08-.208-.457-.177-.527.042ZM38.31 40.95c1.626.858 2.527 1.386 2.613 1.532.038.066.26.229.49.362.232.134.626.405.877.604.251.199.849.642 1.328.986.975.7 1.984 1.501 2.454 1.952.172.164.433.374.58.467.147.092.34.256.426.364.088.108.53.487.982.84.452.355 1.084.91 1.405 1.232.32.323.902.857 1.293 1.186.392.33 1.11.982 1.595 1.45.486.468.907.852.937.852.03 0 .736.691 1.57 1.536a785.78 785.78 0 0 0 2.61 2.63l1.093 1.095v1.073H57.424l-1.427-1.45a153.435 153.435 0 0 1-2.177-2.253A103.625 103.625 0 0 0 51.432 53a658.98 658.98 0 0 1-2.54-2.502 85.237 85.237 0 0 0-1.713-1.65 577.113 577.113 0 0 1-1.951-1.825c-.626-.59-1.265-1.152-1.419-1.25a4.796 4.796 0 0 1-.603-.49 17.199 17.199 0 0 0-.625-.57c-.166-.141-.67-.59-1.122-1-.451-.408-.973-.839-1.16-.957a7.773 7.773 0 0 1-.785-.61 7.635 7.635 0 0 0-.937-.689 7.424 7.424 0 0 1-.892-.646c-.35-.306-.367-.337-.134-.235.147.064.489.233.758.375Zm42.28-.321c-.116.09-.553.387-.97.657-.418.27-.877.618-1.02.771-.145.154-.305.28-.358.281-.052 0-.396.264-.764.586a556.51 556.51 0 0 0-4.61 4.032c-.504.454-2.282 2.13-3.804 3.59-1.613 1.545-6.155 6.106-7.265 7.294-.47.503-.9.914-.955.914-.055 0-.331-.233-.613-.518l-.513-.518 1.647-1.645c1.875-1.874 3.441-3.398 4.474-4.356.39-.362 1.012-.945 1.38-1.294.37-.35.993-.906 1.384-1.237.391-.331 1.159-.993 1.705-1.472 1.516-1.328 2.05-1.772 2.686-2.233.321-.232.93-.706 1.352-1.052.873-.717 2.01-1.556 2.107-1.556.035 0 .256-.14.49-.313.234-.171.46-.314.503-.317.042-.002.298-.16.568-.351a12.3 12.3 0 0 1 1.204-.713c.393-.201.854-.445 1.026-.54.4-.224.63-.23.347-.01Zm-58.67.9c-.156.096-.331.262-.389.37-.14.264-.06 1.022.132 1.234.405.447 1.066.452 1.549.012.52-.475.351-1.26-.348-1.616-.425-.217-.587-.217-.943 0Zm36.582 9.485c.027.11.033.803.014 1.54-.018.735-.035 1.918-.038 2.627l-.004 1.289-2.086-2.092c-1.565-1.57-2.061-2.118-1.985-2.196.193-.198 1.355-.752 2.108-1.006.863-.29 1.057-.333 1.574-.35.315-.01.377.017.417.188Zm2.925.147c.664.227 2.164.903 2.296 1.035.027.028-.21.3-.529.605l-1.735 1.664c-.636.61-1.247 1.24-1.359 1.403-.11.162-.282.337-.379.389-.174.093-.176.058-.176-2.687V50.79l.566.058c.312.032.904.173 1.316.314Zm-46.565 2.71c-.128.153-.223 1.716-.134 2.197.112.603.291.653.766.215.49-.452.748-.51 1.686-.385 1.832.244 3.453.537 3.513.633.123.2-2.14 1.077-3.306 1.28-.197.035-.67.16-1.053.28-.383.12-.716.217-.74.217-.025 0-.142-.105-.261-.233-.475-.513-.726.116-.609 1.522.074.878.08.898.308.924.157.018.367-.076.647-.29.229-.174.515-.317.636-.317.381 0 1.494.19 2.098.357l1.383.382c.502.138.803.266.803.34 0 .176-.652.513-1.115.578-.221.031-.824.208-1.339.393-1.152.413-1.982.582-2.224.452-.095-.05-.258-.213-.363-.36-.138-.194-.264-.268-.452-.268-.144 0-.267.03-.273.067-.006.037-.026.669-.043 1.405-.034 1.441.064 2.06.34 2.147.222.07.285.014.598-.541.206-.365.329-.491.477-.492.11-.001.602-.142 1.093-.313 1.027-.357 2.054-.654 2.632-.76.682-.126 3.628-1.408 3.812-1.66.134-.183.147-.557.03-.864-.066-.175-.236-.27-.825-.465a10.52 10.52 0 0 1-1.099-.424c-.42-.211-1.429-.494-2.03-.569-.336-.041-.424-.087-.424-.22 0-.106.064-.166.175-.166.306 0 1.933-.441 2.427-.658.262-.115.62-.235.795-.267.176-.033.502-.175.725-.317.353-.223.421-.317.516-.714.096-.398.09-.486-.04-.686-.229-.348-.938-.61-2.367-.875l-2.23-.414c-.516-.096-1.078-.174-1.25-.173-.171 0-.752-.07-1.29-.156-.946-.152-.99-.17-1.369-.536-.424-.411-.483-.437-.624-.267Zm64.527.983c.07.464.318.892.64 1.103.213.14.498.158 2.525.161 2.06.004 2.318-.012 2.621-.163.437-.217.703-.6.758-1.09.034-.297.083-.393.2-.393.115 0 .168.1.209.399.03.22.034.452.01.516-.025.063-.074.496-.11.96l-.065.846h-3.51c-2.066 0-3.532-.034-3.562-.083-.073-.118-.144-2.332-.08-2.5.107-.278.306-.145.364.244Zm-12.484 1.339c.34.873.423 1.206.49 1.961.043.5.057.93.032.956-.064.064-3.39.07-4.455.008l-.883-.051.527-.58a68.098 68.098 0 0 1 1.605-1.663c.593-.596 1.274-1.292 1.514-1.547.422-.45.44-.46.598-.3.089.09.346.637.572 1.216Zm-14.06-.282c.52.546 1.416 1.466 1.993 2.045.577.579 1.048 1.088 1.048 1.131 0 .093-3.208.13-4.483.052l-.87-.053v-.383c0-.566.221-1.515.518-2.224.563-1.343.669-1.561.758-1.561.051 0 .518.447 1.037.993Zm44.53.43c-.123.042-.564.08-.981.085-.955.012-1.833.152-2.158.345-.362.213-.35.659.025 1.01.275.257.276.26.167.718-.07.293-.094.821-.066 1.461.043.971.055 1.02.383 1.552.35.566.92 1.06 1.513 1.307.27.112.389.118.656.033.767-.246 1.422-.57 1.768-.873.203-.179.558-.48.788-.672.23-.19.518-.5.643-.689.357-.54 1.153-1.15 1.499-1.15.384 0 .522.186.53.712.009.607-.362 1.121-.975 1.35-.495.186-.669.364-.669.686v.216l1.472-.051c.81-.029 1.552-.095 1.651-.147.241-.13.224-.41-.045-.73-.19-.226-.223-.354-.221-.86.001-.328.037-.748.081-.934.112-.486-.167-1.778-.451-2.087-.457-.498-1.555-.767-2.303-.566-.303.082-.51.233-.892.651-1.98 2.17-2.346 2.517-3.028 2.87-.38.196-.865.178-1.082-.04-.205-.204-.228-.566-.078-1.264.089-.414.179-.545.736-1.081.66-.633 1.084-.903 1.701-1.081.393-.114.501-.335.298-.613-.134-.184-.64-.266-.962-.158ZM83.78 58.228l2.441.005-.004.506c-.01 1.091-.155 2.447-.27 2.517-.096.06-6.68.032-6.74-.028-.023-.024-.053-1.761-.042-2.493l.008-.51.959-.028c.527-.015 1.015-.016 1.083 0 .069.014 1.223.028 2.566.031Zm-30.928 1.958c.957-.007 1.82-.017 1.918-.024.423-.028.937.026.937.1 0 .07-.76.913-1.135 1.258-.08.074-.217.214-.304.313-.087.098-.61.65-1.163 1.227-.797.833-1.026 1.026-1.111.937-.06-.062-.313-.498-.563-.97-.441-.83-.803-2.04-.808-2.699-.002-.234.018-.25.244-.192.135.034 1.028.057 1.985.05Zm12.923.003 1.725-.01-.062.38c-.157.951-1.24 3.638-1.467 3.638-.044 0-.374-.331-.732-.736a63.986 63.986 0 0 0-1.88-1.978c-.675-.683-1.228-1.28-1.228-1.328 0-.055.356-.063.96-.022.527.036 1.735.061 2.684.056Zm-3.661 1.487c.807.822 1.706 1.776 1.998 2.12.293.343.73.825.972 1.07a74.4 74.4 0 0 1 1.567 1.695c.619.687 1.417 1.57 1.774 1.963 1.106 1.216 1.58 1.757 2.236 2.543.347.417.702.817.789.888.086.072.34.373.565.67.224.296.532.661.682.811.151.15.536.6.855 1.002.318.401.606.73.638.731.07.003.908 1.052 1.266 1.586.14.209.286.38.326.38.04 0 .178.17.306.378.13.209.434.64.677.96.243.319.55.74.682.936.23.342.833 1.504.833 1.605 0 .17-.573-.405-2.001-2.006-.897-1.006-1.988-2.19-2.424-2.632a61.41 61.41 0 0 1-1.553-1.642 43.454 43.454 0 0 0-1.308-1.383c-.302-.3-.716-.745-.92-.99-.357-.431-2.585-2.77-4.24-4.452a121.624 121.624 0 0 1-1.881-1.974 186.97 186.97 0 0 0-2.427-2.541c-2.191-2.248-1.983-1.977-1.983-2.573 0-.286.027-.547.06-.58.033-.032.28-.06.551-.06h.492l1.468 1.495Zm-4.409-.735.514.581-1.045 1.137c-.575.625-1.437 1.538-1.917 2.029-1.098 1.124-3.326 3.42-3.918 4.037-.248.258-.45.502-.45.543 0 .04-.098.126-.217.19-.12.064-.382.321-.583.572-.38.473-2.356 2.565-3.84 4.065a73.137 73.137 0 0 0-1.873 1.992c-.564.625-1.056 1.136-1.095 1.136-.038 0-.18.171-.316.38a7.134 7.134 0 0 1-.735.872c-.267.272-.688.737-.934 1.033-.247.296-.721.794-1.054 1.105-.561.525-.602.548-.547.306.033-.143.186-.441.34-.662.154-.22.38-.585.504-.81.343-.626 1.544-2.23 2.498-3.337.905-1.05 1.314-1.539 1.605-1.92.17-.221.586-.703.927-1.07.34-.369.836-.961 1.1-1.317.264-.356.51-.647.545-.647.036 0 .326-.31.644-.688.317-.38.838-.974 1.157-1.321.32-.348.801-.885 1.07-1.193.27-.308 1-1.13 1.621-1.824.998-1.117 1.588-1.746 3.555-3.798.27-.282.792-.839 1.16-1.238.368-.4.692-.728.72-.73.028-.002.282.258.564.577Zm26.575 1.38 1.763.002v.347c0 .321-.022.351-.29.4-.16.029-1.194.052-2.298.05-1.104 0-2.5.004-3.1.01l-1.093.012v-.809l.379-.027c.208-.015.941-.018 1.628-.008.687.011 2.042.021 3.011.023ZM58.48 63.46l.022 2.409.018 1.806h-.268c-.826.001-3.346-.82-3.346-1.09 0-.048.392-.48.87-.961 1.354-1.362 2.11-2.16 2.341-2.477.117-.159.245-.29.285-.29.04 0 .075.272.078.603Zm2.618.997 1.597 1.637c.236.242.415.485.398.542-.066.225-1.21.67-2.17.845-.537.098-1.045.205-1.128.239-.283.113-.296-.071-.26-3.783l.01-1.018.193.17c.106.094.718.71 1.36 1.368Zm-17.284 8.915c.079.044-.078.291-.518.82-.348.415-.692.846-.767.956-.176.262-.275.253-.702-.06-.674-.496-1.224-.655-2.427-.7-.758-.03-1.087-.074-1.064-.143.09-.276 1.5-.849 2.339-.951.615-.075 2.97-.017 3.14.078Zm33.843.022c.56.102 1.162.258 1.335.347.35.179.687.508.603.592-.029.03-.507.064-1.062.077-1.127.026-1.612.165-2.35.672l-.43.297-.23-.272c-.126-.15-.524-.596-.883-.993-.764-.843-.797-.803.698-.843a30.223 30.223 0 0 0 1.118-.045c.1-.01.64.065 1.201.168Zm18.514-.054c-.049.017-.2.055-.337.085-.48.106-.757.945-.498 1.514.142.311.642.53 1.078.472.447-.06.649-.245.823-.756.135-.396.132-.417-.087-.792-.29-.494-.588-.653-.979-.523Zm-10.49 9.295a89.522 89.522 0 0 1-1.527 1.505c-.597.568-.68.69-.879 1.294-.156.473-.219.86-.217 1.335.003.82.17 1.207.797 1.83.354.352.57.483 1.01.613.487.144.615.151.964.053.221-.062.505-.193.63-.291.189-.149.241-.158.307-.055a.311.311 0 0 1 .022.26c-.267.614.036 1.407.69 1.808.557.34.954.389 1.647.202.688-.187.931-.388 2.49-2.055.932-.995 1.121-1.244 1.121-1.472 0-.344-.154-.407-.677-.275-.364.091-.44.082-.711-.086a3.198 3.198 0 0 1-.595-.524c-.16-.185-.754-.738-1.318-1.229-.564-.491-1.192-1.13-1.396-1.42a6.577 6.577 0 0 0-.744-.872c-.317-.292-.365-.382-.313-.58.034-.129.067-.375.075-.546.012-.283-.011-.316-.247-.342-.226-.026-.372.083-1.129.847Zm-54.961.355c-1.013.977-.956 1.197.263 1.025.931-.132 1.2-.058 1.705.472.25.263.309.392.302.668-.008.285-.11.464-.601 1.058-.326.394-.655.74-.733.77-.63.242-1.318-.259-1.336-.971-.025-1.005-.234-1.02-1.166-.087-.891.894-.937 1.08-.254 1.043.366-.02.518.023.87.247.508.324.803.754.733 1.071-.086.385-1.23 1.25-1.654 1.25-.22 0-1.258-.727-1.447-1.013-.037-.057-.041-.475-.01-.928.056-.793.05-.826-.126-.826-.346 0-.928.55-1.286 1.216-.188.35-.318.69-.289.758.03.068.24.273.47.457.23.183.577.476.774.651 2.002 1.781 2.765 2.379 3.268 2.562.265.096.34-.101.207-.544-.147-.488-.135-.513.64-1.316.288-.298.866-.92 1.283-1.38.417-.46 1.139-1.21 1.604-1.665.767-.751.877-.828 1.185-.828.394 0 .958-.212.958-.36 0-.192-.37-.624-.654-.763-.155-.077-.504-.358-.774-.624s-.65-.64-.847-.831c-.197-.191-.48-.482-.631-.647-.718-.785-1.12-1.058-1.558-1.058-.227 0-.403.117-.896.593Zm56.272 2.418c.508.528.924 1.004.924 1.059.004.183-.73.933-1.096 1.12-.484.246-1.144.255-1.467.02-.135-.1-.326-.342-.424-.541a3.33 3.33 0 0 0-.298-.505c-.166-.198-.054-1.001.192-1.368.184-.275.873-.728 1.122-.739.069-.002.54.427 1.047.954Zm2.928 2.468c.566.237.508.558-.243 1.341-.5.523-.826.606-1.105.282-.278-.324-.262-.666.054-1.101.465-.642.74-.753 1.294-.522Zm-30.55 6.761c-.353.13-.416.64-.091.742.087.028.264.156.391.283.198.198.232.31.232.761 0 .291.042.608.094.704.056.106.07.387.032.715-.052.46-.093.552-.277.622-.445.169-1.449-.666-1.638-1.363a26.75 26.75 0 0 0-.217-.745 2.46 2.46 0 0 1-.07-.803c.036-.375.013-.469-.155-.62-.18-.161-.315-.177-1.4-.167-.678.006-1.24.05-1.29.102-.154.153.08.454.51.657.287.135.412.252.447.422.138.665.278 1.115.588 1.886.316.784.51 1.056.923 1.297.136.08.076.135-.42.378-.715.353-.864.631-.89 1.67-.017.621.013.778.224 1.205.465.935 1.078 1.201 2.692 1.167 2.864-.059 3.271-.086 3.486-.226.331-.217.284-.529-.118-.772-.184-.113-.359-.239-.388-.281-.22-.318-.5-5.97-.324-6.507.043-.132.216-.345.384-.473.311-.238.395-.514.194-.641-.137-.087-2.69-.098-2.92-.013Zm.95 6.499c.184.364-.037.736-.513.861-.562.148-1.006.141-1.418-.024-.288-.116-.374-.207-.447-.469-.076-.271-.063-.363.074-.549.143-.193.251-.228.825-.267.765-.052 1.31.113 1.48.448Z" clip-rule="evenodd"/>
    </g>
    <defs>
        <clipPath id="a">
            <path fill="#fff" d="M9 9h101v101H9z"/>
        </clipPath>
    </defs>
</svg>
