<svg xmlns="http://www.w3.org/2000/svg" width="151" height="45" fill="none" viewBox="0 0 151 45">
    <path fill="url(#a)" d="M118.991 6H97.814c1.233 7.239 8.018 14.052 15.42 14.052h16.86c.205-.64.205-1.704.205-2.342 0-6.387-5.14-11.71-11.308-11.71Z"/>
    <path fill="#4FAD50" d="M99.664 21.33V39h10.28v-9.368h9.047c4.935 0 9.253-3.619 10.692-8.303H99.664ZM63.477 6v32.787h9.047s2.262 0 3.496-2.342c6.168-12.561 8.018-16.393 8.018-16.393h1.234v18.735h10.28V6h-9.046s-2.262.213-3.496 2.342c-5.14 10.858-8.018 16.393-8.018 16.393h-1.234V6h-10.28ZM20.3 39V6.213h10.28s2.879 0 4.524 4.684c4.112 12.348 4.523 14.051 4.523 14.051s.822-2.98 4.523-14.051c1.645-4.684 4.524-4.684 4.524-4.684h10.28V39h-10.28V21.33H47.44L41.683 39H37.16l-5.757-17.67h-1.234V39h-9.87Z"/>
    <defs>
        <linearGradient id="a" x1="97.777" x2="130.227" y1="13.127" y2="13.127" gradientUnits="userSpaceOnUse">
            <stop stop-color="#27B1E6"/>
            <stop offset="1" stop-color="#148ACA"/>
        </linearGradient>
    </defs>
</svg>