<svg xmlns="http://www.w3.org/2000/svg" width="96" height="45" fill="none" viewBox="0 0 96 45">
    <g clip-path="url(#a)">
        <path fill="url(#b)" d="M23.33 44.73h49.212a22.762 22.762 0 0 0 16-6.55 22.235 22.235 0 0 0 6.627-15.815c0-5.932-2.384-11.62-6.627-15.814a22.762 22.762 0 0 0-16-6.551H23.33a22.762 22.762 0 0 0-16 6.55A22.234 22.234 0 0 0 .703 22.366c0 5.932 2.384 11.62 6.627 15.814a22.762 22.762 0 0 0 16 6.551Z"/>
        <path fill="#fff" d="M46.497 24.53v4.687h-2.731V14.172h5.068c4.805 0 6.848 1.698 6.848 5.1 0 3.504-2.392 5.265-6.848 5.265l-2.337-.006Zm0-7.886v5.415h2.544c2.522 0 3.827-.816 3.827-2.86 0-1.847-1.132-2.555-3.785-2.555h-2.586ZM57.129 19.224c.716-.54 2.021-.97 3.894-.97 3.175 0 4.741 1.075 4.741 3.87v7.093h-2.395v-1.935c-.522 1.248-1.848 2.1-3.587 2.1-2.195 0-3.5-1.227-3.5-3.333 0-2.451 1.803-3.138 4.48-3.138h2.465v-.465c0-1.524-.738-1.998-2.195-1.998-2.003 0-3.153.774-3.894 1.914l-.009-3.138Zm6.098 6.21v-.882h-2.152c-1.503 0-2.219.282-2.219 1.248 0 .816.607 1.332 1.74 1.332 1.72 0 2.512-.966 2.63-1.698ZM67.023 18.471h2.847l2.98 7.371 2.429-7.37h2.698l-4.343 11.885c-.956 2.58-1.936 3.16-3.372 3.16-.674 0-1.411-.193-1.74-.472v-2.343c.351.336.818.528 1.306.537.783 0 1.369-.516 1.785-1.977l-4.59-10.79ZM18.887 19.233v3.3l4.428 2.745 10.596-7.72a11.35 11.35 0 0 0-1.394-2.285l-9.202 6.705-4.428-2.745Z"/>
        <path fill="#fff" d="M32.268 22.065v.237a8.78 8.78 0 0 1-1.895 5.451 8.958 8.958 0 0 1-4.89 3.14 9.046 9.046 0 0 1-5.81-.506 8.906 8.906 0 0 1-4.26-3.937 8.754 8.754 0 0 1-.9-5.695 8.818 8.818 0 0 1 2.84-5.034A9.026 9.026 0 0 1 28.356 15l2.261-1.648a11.716 11.716 0 0 0-7.245-2.55 11.717 11.717 0 0 0-7.271 2.475 11.481 11.481 0 0 0-4.119 6.42 11.375 11.375 0 0 0 .835 7.557 11.562 11.562 0 0 0 5.424 5.39 11.753 11.753 0 0 0 7.64.865c2.573-.576 4.871-2 6.518-4.037a11.413 11.413 0 0 0 2.358-9.235l-2.489 1.827Z"/>
    </g>
    <defs>
        <linearGradient id="b" x1="119.984" x2="28.623" y1="-6.3" y2="97.035" gradientUnits="userSpaceOnUse">
            <stop offset=".068" stop-color="#00ADED"/>
            <stop offset=".302" stop-color="#42E3B4"/>
            <stop offset=".565" stop-color="#00D900"/>
            <stop offset=".854" stop-color="#FAED00"/>
        </linearGradient>
        <clipPath id="a">
            <path fill="#fff" d="M.4 0h95v45H.4z"/>
        </clipPath>
    </defs>
</svg>
