<svg width="89" height="45" viewBox="0 0 89 45" fill="none" xmlns="http://www.w3.org/2000/svg">
<path d="M76.9588 12.845V23.8467H73.0577V16.1292H69.3015V23.8467H65.4004V12.8442H76.9588V12.845Z" fill="#EFEFEF"/>
<path fill-rule="evenodd" clip-rule="evenodd" d="M57.3889 24.2403C60.8811 24.2403 63.4744 22.0841 63.4744 18.8152C63.4744 15.6513 61.5611 13.5971 58.3634 13.5971C56.8877 13.5971 55.67 14.1202 54.7528 15.0228C54.9718 13.1572 56.5384 11.7952 58.2633 11.7952C58.6614 11.7952 61.6583 11.7888 61.6583 11.7888L63.353 8.52295C63.353 8.52295 59.5905 8.6092 57.8414 8.6092C53.8449 8.67932 51.1455 12.3374 51.1455 16.7804C51.1455 21.9566 53.7783 24.2403 57.3889 24.2403ZM57.4101 16.4898C58.7068 16.4898 59.6057 17.3478 59.6057 18.8148C59.6057 20.1352 58.807 21.2231 57.4101 21.2261C56.074 21.2261 55.1751 20.2181 55.1751 18.8373C55.1751 17.3699 56.074 16.4898 57.4101 16.4898Z" fill="#EFEFEF"/>
<path d="M47.9697 20.1636C47.9697 20.1636 47.0484 20.6984 45.6725 20.7996C44.0906 20.8469 42.6811 19.8407 42.6811 18.0531C42.6811 16.3094 43.9249 15.31 45.6326 15.31C46.6798 15.31 48.0651 16.0409 48.0651 16.0409C48.0651 16.0409 49.0787 14.1677 49.6037 13.231C48.6422 12.4971 47.3616 12.0947 45.8721 12.0947C42.1129 12.0947 39.2012 14.563 39.2012 18.031C39.2012 21.5432 41.9378 23.9541 45.8721 23.8814C46.9717 23.8401 48.4888 23.4512 49.4135 22.8531L47.9697 20.1636Z" fill="#EFEFEF"/>
<path d="M0 9.79492L5.4115 19.5355V25.477L0.00633054 35.1985L0 9.79492Z" fill="#5B57A2"/>
<path d="M20.7783 15.9911L25.8491 12.8613L36.2267 12.8516L20.7783 22.3818V15.9911Z" fill="#D90751"/>
<path d="M20.749 9.73763L20.7777 22.6339L15.3535 19.2776V0L20.749 9.73763Z" fill="#FAB718"/>
<path d="M36.2261 12.8516L25.8481 12.8614L20.749 9.73763L15.3535 0L36.2261 12.8516Z" fill="#ED6F26"/>
<path d="M20.7777 35.2525V28.9956L15.3535 25.7031L15.3565 44.9999L20.7777 35.2525Z" fill="#63B22F"/>
<path d="M25.8361 32.1513L5.41113 19.5355L0 9.79492L36.2044 32.1385L25.8361 32.1513Z" fill="#1487C9"/>
<path d="M15.3574 45L20.7779 35.2527L25.836 32.1514L36.2043 32.1387L15.3574 45Z" fill="#017F36"/>
<path d="M0.00585938 35.1986L15.3976 25.7036L10.223 22.5063L5.41103 25.4771L0.00585938 35.1986Z" fill="#984995"/>
<path d="M42.6818 31.2514C42.5626 31.4044 42.4059 31.5199 42.2178 31.5979C42.0249 31.677 41.8184 31.7172 41.6101 31.7164C41.4029 31.7192 41.1969 31.6844 41.002 31.6136C40.8269 31.5496 40.6669 31.4497 40.532 31.3204C40.3989 31.1908 40.2943 31.0344 40.2252 30.8614C40.1504 30.6719 40.113 30.4694 40.1153 30.2655C40.1153 30.063 40.15 29.8755 40.2218 29.6977C40.2907 29.5196 40.3909 29.367 40.5164 29.2387C40.6419 29.1079 40.7923 29.0081 40.9614 28.9301C41.1338 28.8551 41.3219 28.8146 41.5285 28.8146C41.7512 28.8146 41.9579 28.8427 42.1459 28.8986C42.334 28.9549 42.4938 29.0486 42.6252 29.1799L42.3966 29.5699C42.286 29.4689 42.1557 29.3923 42.0141 29.3449C41.8795 29.3012 41.7389 29.2792 41.5974 29.2796C41.4723 29.2796 41.3531 29.3044 41.2373 29.3512C41.1232 29.3975 41.0189 29.4654 40.9301 29.5511C40.8393 29.6393 40.7678 29.7456 40.7201 29.8631C40.6668 29.9846 40.6419 30.1189 40.6419 30.2685C40.6419 30.4215 40.6698 30.5587 40.7231 30.6772C40.7767 30.7991 40.8486 30.9022 40.9394 30.9892C41.0303 31.077 41.1368 31.1422 41.2589 31.1861C41.3814 31.233 41.5099 31.2547 41.6477 31.2547C41.8168 31.2547 41.9706 31.2202 42.102 31.1546C42.2323 31.0913 42.3493 31.0034 42.4468 30.8959L42.6818 31.2514ZM43.3272 31.6507V28.8739H43.8224V30.9427L45.433 28.8739H45.9283V31.6511H45.433V29.5822L43.8224 31.6511L43.3272 31.6507ZM49.209 31.2514C49.0871 31.4057 48.9273 31.5251 48.7454 31.5979C48.5523 31.6769 48.3457 31.7172 48.1372 31.7164C47.9302 31.7192 47.7243 31.6844 47.5295 31.6136C47.3543 31.5496 47.1942 31.4498 47.0592 31.3204C46.926 31.1908 46.8215 31.0344 46.7523 30.8614C46.6775 30.6719 46.6402 30.4694 46.6425 30.2655C46.6425 30.063 46.6771 29.8755 46.749 29.6977C46.8183 29.5196 46.9184 29.367 47.0436 29.2387C47.169 29.1079 47.3195 29.0081 47.4886 28.9301C47.6671 28.8509 47.8606 28.8115 48.0557 28.8146C48.2784 28.8146 48.4851 28.8427 48.6731 28.8986C48.8612 28.9549 49.0209 29.0486 49.1527 29.1799L48.9237 29.5699C48.8133 29.4689 48.6832 29.3922 48.5417 29.3449C48.407 29.3012 48.2664 29.2792 48.125 29.2796C47.876 29.2804 47.637 29.3776 47.4573 29.5511C47.3673 29.64 47.2959 29.7461 47.2472 29.8631C47.194 29.9846 47.169 30.1189 47.169 30.2685C47.169 30.4215 47.1973 30.5587 47.2506 30.6772C47.3039 30.7991 47.3757 30.9022 47.4666 30.9892C47.5574 31.077 47.6643 31.1422 47.7865 31.1861C47.9086 31.2296 48.0371 31.2547 48.1749 31.2547C48.3443 31.2547 48.4947 31.2202 48.6292 31.1546C48.7594 31.0913 48.8765 31.0034 48.974 30.8959L49.209 31.2514ZM49.4629 28.8739H52.0041V29.367H50.9826V31.6507H50.4874V29.367H49.4659V28.8739H49.4629Z" fill="#EFEFEF"/>
<path fill-rule="evenodd" clip-rule="evenodd" d="M54.3174 31.6229C54.5054 31.5637 54.6652 31.4729 54.803 31.3484L54.6525 30.9614C54.5617 31.0428 54.4395 31.1114 54.2924 31.1677C54.145 31.2239 53.9789 31.2517 53.7971 31.2517C53.5246 31.2517 53.2989 31.18 53.1201 31.0334C52.9418 30.8864 52.8446 30.6809 52.8226 30.4184H54.9661C54.988 30.3217 54.9973 30.2125 54.9973 30.0847C54.9973 29.8942 54.9627 29.7228 54.8938 29.5668C54.8297 29.4153 54.736 29.2783 54.6183 29.164C54.4989 29.0508 54.3582 28.9628 54.2045 28.9053C54.0437 28.8424 53.8725 28.8106 53.7 28.8115C53.468 28.8115 53.2643 28.852 53.0859 28.927C52.9173 28.9985 52.7647 29.1036 52.6375 29.236C52.5141 29.3678 52.4192 29.524 52.359 29.6947C52.2928 29.8764 52.2599 30.0688 52.2618 30.2624C52.2618 30.481 52.2994 30.6805 52.3683 30.8587C52.4353 31.0312 52.5379 31.1875 52.6692 31.3173C52.7977 31.4448 52.9541 31.5419 53.1391 31.6105C53.3373 31.6813 53.5463 31.7161 53.7566 31.7133C53.9469 31.7121 54.136 31.6814 54.3174 31.6229ZM53.0639 29.4854C53.2173 29.3452 53.421 29.2765 53.678 29.2765C53.9193 29.2765 54.1137 29.3422 54.2548 29.4734C54.3959 29.6043 54.4708 29.7854 54.4834 30.016H52.7913C52.8153 29.8118 52.9122 29.623 53.0639 29.4854Z" fill="#EFEFEF"/>
<path d="M55.6709 28.8735H56.1222L57.194 30.2498L58.2091 28.8735H58.6477V31.6508H58.1528V29.6258L57.1876 30.9143H57.1686L56.1662 29.6254V31.6504H55.6709V28.8735Z" fill="#EFEFEF"/>
<path fill-rule="evenodd" clip-rule="evenodd" d="M59.995 28.8833C59.8447 28.9229 59.7011 28.9848 59.569 29.0671L59.7004 29.4608C59.8132 29.4046 59.9261 29.3577 60.0389 29.3172C60.1517 29.2763 60.2959 29.2576 60.4683 29.2576C60.606 29.2576 60.7159 29.2797 60.8004 29.3232C60.885 29.3637 60.9475 29.4263 60.9915 29.5013C61.0354 29.5763 61.0637 29.6697 61.0793 29.7788C61.095 29.888 61.1013 30.0065 61.1013 30.1347C61 30.0636 60.8845 30.0156 60.7628 29.9941C60.6452 29.9705 60.5256 29.958 60.4057 29.9566C60.2582 29.9566 60.1205 29.9787 59.9886 30.0158C59.8572 30.0533 59.7443 30.1096 59.6535 30.1846C59.5607 30.2595 59.4858 30.3543 59.4341 30.4621C59.379 30.5801 59.3511 30.7092 59.3526 30.8397C59.3526 31.1112 59.4312 31.3235 59.5876 31.4735C59.7443 31.6231 59.951 31.6977 60.208 31.6977C60.44 31.6977 60.625 31.6572 60.7658 31.5762C60.9069 31.4948 61.0198 31.4015 61.1013 31.2953V31.6542H61.5649V29.9506C61.5649 29.5883 61.4867 29.3078 61.327 29.111C61.1702 28.9145 60.8913 28.8147 60.4966 28.8147C60.3208 28.8147 60.1547 28.8395 59.995 28.8833ZM60.8228 31.1333C60.7099 31.2143 60.5625 31.2515 60.3808 31.2515C60.221 31.2515 60.0955 31.211 60.008 31.133C59.9201 31.052 59.8762 30.9458 59.8762 30.8146C59.8762 30.737 59.8918 30.6713 59.9264 30.6121C59.9611 30.5528 60.008 30.506 60.0612 30.4685C60.1195 30.4292 60.1842 30.4007 60.2523 30.3841C60.3245 30.3653 60.3964 30.356 60.4716 30.356C60.7163 30.356 60.9259 30.4152 61.0983 30.5401V30.8926C61.0171 30.9843 60.9245 31.0654 60.8228 31.1333ZM65.9367 27.8971C66.0369 27.8506 66.1308 27.7726 66.2186 27.6571L65.949 27.2671C65.8801 27.3608 65.8019 27.4261 65.714 27.4606C65.6209 27.4972 65.5244 27.5244 65.4258 27.5416L65.332 27.5585C65.2504 27.5727 65.1629 27.5885 65.0687 27.6042C64.9176 27.6324 64.7704 27.6784 64.63 27.7415C64.4074 27.8382 64.229 27.9691 64.0942 28.1345C63.9594 28.2998 63.8529 28.487 63.7806 28.6932C63.7075 28.9022 63.6581 29.1188 63.6335 29.339C63.6082 29.564 63.5959 29.7788 63.5959 29.9847C63.5959 30.2502 63.6302 30.4902 63.6991 30.7055C63.7683 30.9211 63.8652 31.1018 63.9936 31.2485C64.1221 31.3985 64.2759 31.511 64.4576 31.592C64.6393 31.673 64.843 31.7135 65.0717 31.7135C65.2817 31.7135 65.4761 31.673 65.6515 31.598C65.8206 31.5259 65.9739 31.421 66.1028 31.2893C66.2279 31.1611 66.3285 31.0081 66.3974 30.8367C66.4692 30.665 66.5039 30.4808 66.5039 30.2873C66.5039 30.0785 66.4726 29.8883 66.413 29.7196C66.3581 29.5587 66.2706 29.4111 66.1561 29.2861C66.0413 29.1632 65.901 29.0672 65.7453 29.0048C65.5738 28.9368 65.3908 28.9029 65.2065 28.9051C65.0873 28.9051 64.9715 28.9208 64.8587 28.952C64.7489 28.9831 64.6436 29.0282 64.5451 29.0862C64.4496 29.1413 64.3621 29.2094 64.2852 29.2887C64.21 29.3671 64.1474 29.4545 64.1035 29.5542H64.0908C64.1005 29.4263 64.1161 29.2955 64.1441 29.1612C64.1724 29.027 64.213 28.8987 64.2666 28.7772C64.3198 28.6557 64.3887 28.5462 64.4733 28.4465C64.5639 28.3458 64.675 28.266 64.7991 28.2125C64.9355 28.147 65.0799 28.0999 65.2285 28.0722L65.3268 28.0542C65.4247 28.0362 65.5182 28.019 65.6075 28.0002C65.7267 27.9755 65.8362 27.9436 65.9367 27.8971ZM64.1943 30.5652C64.1459 30.4077 64.1226 30.2434 64.1255 30.0785C64.1465 29.9838 64.1847 29.8939 64.2383 29.8133C64.2915 29.729 64.3604 29.6543 64.442 29.5883C64.626 29.4431 64.8535 29.3651 65.0873 29.3671C65.3789 29.3671 65.5982 29.4575 65.7517 29.6356C65.9055 29.8163 65.9807 30.041 65.9807 30.3125C65.9807 30.4467 65.9554 30.5686 65.9118 30.6807C65.8694 30.7913 65.8055 30.8922 65.7236 30.9775C65.6418 31.0627 65.5438 31.1305 65.4355 31.1768C65.3227 31.2267 65.2002 31.2518 65.0624 31.2518C64.9246 31.2518 64.7991 31.2237 64.6833 31.1675C64.5682 31.1123 64.4665 31.0325 64.3854 30.9335C64.3005 30.8231 64.2358 30.6984 64.1943 30.5652ZM70.3018 28.874H69.8066V31.6512H70.3018V28.874ZM67.2181 28.874H67.7134V29.7072H68.171C68.387 29.7072 68.5624 29.7353 68.7036 29.7882C68.8447 29.8415 68.9575 29.9131 69.0421 30.0005C69.1266 30.0878 69.1862 30.191 69.2208 30.3061C69.2551 30.4216 69.2741 30.5401 69.2741 30.665C69.2741 30.7898 69.2551 30.9087 69.2145 31.0272C69.1769 31.1457 69.1109 31.2485 69.0231 31.3422C68.9356 31.436 68.8164 31.511 68.6659 31.5672C68.5155 31.6231 68.3338 31.6542 68.1144 31.6542H67.2151V28.874H67.2181ZM67.7134 30.1718V31.1892H68.0739C68.3215 31.1892 68.4969 31.1457 68.5971 31.058C68.6976 30.9706 68.7475 30.8461 68.7475 30.6807C68.7475 30.512 68.6942 30.3845 68.5941 30.2967C68.4906 30.2093 68.3181 30.1655 68.0802 30.1655H67.7134V30.1718Z" fill="#EFEFEF"/>
<path d="M73.5763 31.2514C73.4572 31.4044 73.3004 31.5199 73.1123 31.5979C72.9194 31.6769 72.7129 31.7172 72.5046 31.7164C72.2974 31.7192 72.0914 31.6844 71.8965 31.6136C71.7214 31.5497 71.5614 31.4498 71.4266 31.3204C71.2934 31.1907 71.1887 31.0343 71.1193 30.8614C71.0448 30.6718 71.0076 30.4694 71.0099 30.2655C71.0099 30.063 71.0441 29.8755 71.1164 29.6978C71.1853 29.5196 71.2854 29.367 71.4109 29.2387C71.5364 29.1079 71.6865 29.0081 71.8559 28.9301C72.0345 28.8509 72.228 28.8115 72.4231 28.8146C72.6454 28.8146 72.8524 28.8428 73.0405 28.8986C73.2285 28.9549 73.3883 29.0486 73.5197 29.1799L73.2911 29.5699C73.1805 29.4689 73.0503 29.3923 72.9087 29.3449C72.774 29.3012 72.6334 29.2792 72.492 29.2796C72.3668 29.2796 72.2477 29.3044 72.1315 29.3513C72.0175 29.3976 71.9133 29.4654 71.8246 29.5511C71.7345 29.6399 71.6631 29.746 71.6146 29.8631C71.5614 29.9846 71.5364 30.1189 71.5364 30.2685C71.5364 30.4215 71.5643 30.5588 71.6176 30.6773C71.6708 30.7991 71.7431 30.9023 71.834 30.9893C71.9248 31.077 72.0313 31.1422 72.1535 31.1861C72.276 31.2296 72.4044 31.2548 72.5422 31.2548C72.7113 31.2548 72.8617 31.2202 72.9965 31.1546C73.1268 31.0913 73.2438 31.0035 73.3414 30.8959L73.5763 31.2514ZM73.8299 28.8739H76.3715V29.367H75.3496V31.6508H74.8547V29.367H73.8333V28.8739H73.8299Z" fill="#EFEFEF"/>
<path fill-rule="evenodd" clip-rule="evenodd" d="M77.4064 28.8743H76.9111V32.8869H77.4064V31.5234C77.5066 31.589 77.6257 31.6359 77.7635 31.667C77.9013 31.6981 78.0454 31.7135 78.1929 31.7135C78.4122 31.7135 78.6096 31.673 78.7883 31.5983C78.9598 31.5245 79.1151 31.4175 79.2456 31.2834C79.3741 31.1487 79.4713 30.9927 79.5402 30.8086C79.6091 30.6249 79.6437 30.428 79.6437 30.2191C79.6437 30.0129 79.6124 29.8227 79.5528 29.651C79.4967 29.4879 79.4094 29.3374 79.2959 29.2081C79.1845 29.082 79.0462 28.9828 78.8915 28.9179C78.7223 28.8447 78.5397 28.8085 78.3556 28.8117C78.1616 28.8117 77.9799 28.8492 77.8075 28.9242C77.6351 28.9992 77.5002 29.0892 77.4064 29.2017V28.8743ZM77.7512 29.3892C77.8924 29.3142 78.0458 29.2767 78.2119 29.2767C78.356 29.2767 78.4845 29.2985 78.6006 29.3454C78.7135 29.3922 78.8073 29.4578 78.8859 29.5452C78.9641 29.6326 79.0237 29.7327 79.0613 29.8509C79.1019 29.9694 79.1209 30.0976 79.1209 30.2378C79.1209 30.3878 79.0955 30.5217 79.052 30.6466C79.0109 30.765 78.9457 30.8734 78.8606 30.965C78.775 31.0554 78.6715 31.1266 78.5567 31.1739C78.4287 31.2278 78.291 31.2544 78.1523 31.2519C78.0179 31.2519 77.8924 31.2365 77.7732 31.2054C77.6427 31.1696 77.519 31.1126 77.4068 31.0366V29.6603C77.4943 29.5546 77.6105 29.4642 77.7512 29.3892ZM83.4416 28.874H82.9464V31.6512H83.4416V28.874ZM80.3549 28.874H80.8502V29.7072H81.3075C81.5239 29.7072 81.6993 29.7354 81.8404 29.7882C81.9815 29.8415 82.0944 29.9131 82.1789 30.0005C82.2634 30.0879 82.323 30.191 82.3573 30.3061C82.3919 30.4216 82.4105 30.5401 82.4105 30.665C82.4105 30.7898 82.3919 30.9087 82.3513 31.0272C82.3137 31.1457 82.2478 31.2485 82.1599 31.3422C82.0724 31.436 81.9532 31.511 81.8028 31.5672C81.6523 31.6231 81.4706 31.6542 81.2513 31.6542H80.352V28.874H80.3549ZM80.8536 30.1719V31.1892H81.214C81.4613 31.1892 81.6371 31.1457 81.7372 31.058C81.8374 30.9706 81.8877 30.8461 81.8877 30.6807C81.8877 30.512 81.8344 30.3845 81.7343 30.2967C81.6307 30.2094 81.4583 30.1655 81.2204 30.1655H80.8536V30.1719Z" fill="#EFEFEF"/>
<path d="M85.8166 30.2123L86.8757 31.6508H86.268L85.4498 30.5273L84.6194 31.6508H84.043L85.0957 30.237L84.1055 28.8735H84.7136L85.4688 29.922L86.2363 28.8735H86.8132L85.8166 30.2123ZM42.3158 35.0832H40.7961V37.3984H40.3008V34.6215H42.8107V37.3984H42.3158V35.0832ZM45.6214 35.1143H44.6439L44.6123 35.5823C44.578 35.9787 44.5311 36.297 44.4652 36.54C44.3992 36.7838 44.3177 36.9709 44.2239 37.1018C44.13 37.233 44.0202 37.3234 43.8947 37.3673C43.7652 37.4146 43.6283 37.4378 43.4906 37.4359L43.453 36.9552C43.5063 36.9582 43.5688 36.9458 43.6377 36.9147C43.707 36.8835 43.7759 36.8149 43.8414 36.7122C43.9073 36.6057 43.9669 36.456 44.0202 36.2625C44.0734 36.066 44.108 35.8103 44.1267 35.4885L44.1769 34.6242H46.1167V37.4014H45.6214V35.1143Z" fill="#EFEFEF"/>
<path fill-rule="evenodd" clip-rule="evenodd" d="M47.452 34.6282C47.2919 34.6717 47.1478 34.7339 47.0256 34.8119L47.1574 35.2053C47.2703 35.1491 47.3831 35.1022 47.4956 35.0617C47.6084 35.0212 47.7529 35.0024 47.9249 35.0024C48.0631 35.0024 48.1726 35.0242 48.2571 35.0677C48.342 35.1086 48.4046 35.1708 48.4485 35.2458C48.4921 35.3208 48.5204 35.4146 48.536 35.5233C48.5517 35.6328 48.558 35.7513 48.558 35.8792C48.4566 35.8082 48.3411 35.7603 48.2195 35.7389C48.1019 35.7154 47.9823 35.7028 47.8624 35.7014C47.7153 35.7014 47.5771 35.7232 47.4457 35.7607C47.3138 35.7982 47.201 35.8544 47.1102 35.9294C47.0174 36.0043 46.9425 36.0991 46.8908 36.2069C46.8357 36.325 46.808 36.4541 46.8096 36.5846C46.8096 36.8557 46.8878 37.0683 47.0446 37.2179C47.201 37.3676 47.4081 37.4426 47.665 37.4426C47.897 37.4426 48.0817 37.4021 48.2228 37.3207C48.3636 37.2397 48.4764 37.1459 48.558 37.0398V37.3987H49.022V35.6951C49.022 35.3332 48.9434 35.0523 48.7837 34.8558C48.6269 34.6589 48.348 34.5596 47.9532 34.5596C47.7839 34.5597 47.6153 34.583 47.452 34.6282ZM48.2824 36.8774C48.17 36.9588 48.0225 36.9963 47.8408 36.9963C47.6777 36.9963 47.5555 36.9558 47.468 36.8774C47.3801 36.7964 47.3362 36.6903 47.3362 36.5594C47.3362 36.4814 47.3518 36.4158 47.3865 36.3566C47.4207 36.2973 47.468 36.2504 47.5213 36.2129C47.5745 36.1754 47.6401 36.1473 47.7123 36.1286C47.7839 36.1099 47.8576 36.1006 47.9316 36.1008C48.1759 36.1008 48.3859 36.1601 48.5584 36.2846V36.6371C48.477 36.7288 48.3842 36.8095 48.2824 36.8774Z" fill="#EFEFEF"/>
<path d="M49.5068 34.6216H52.0484V35.1143H51.0265V37.3985H50.5316V35.1147H49.5102V34.6216H49.5068Z" fill="#EFEFEF"/>
<path fill-rule="evenodd" clip-rule="evenodd" d="M54.3617 37.3707C54.5497 37.3114 54.7095 37.2206 54.8473 37.0961L54.6968 36.7092C54.606 36.7905 54.4838 36.8591 54.3363 36.9154C54.1893 36.9716 54.0232 36.9994 53.8414 36.9994C53.5689 36.9994 53.3432 36.9278 53.1645 36.7812C52.9857 36.6345 52.8889 36.4287 52.8669 36.1662H55.0104C55.032 36.0698 55.0416 35.9603 55.0416 35.8324C55.0416 35.6423 55.007 35.4705 54.9381 35.3145C54.874 35.1631 54.7801 35.0262 54.6622 34.9122C54.5431 34.7987 54.4025 34.7106 54.2488 34.653C54.088 34.5902 53.9168 34.5584 53.7443 34.5593C53.5123 34.5593 53.3086 34.5998 53.1302 34.6748C52.9615 34.746 52.8089 34.8512 52.6818 34.9838C52.5584 35.1156 52.4634 35.2717 52.4029 35.4424C52.3369 35.6242 52.304 35.8166 52.3057 36.0102C52.3057 36.2288 52.3433 36.4283 52.4122 36.6064C52.4815 36.7841 52.5847 36.9371 52.7131 37.065C52.8416 37.1929 52.9984 37.2896 53.1834 37.3583C53.3814 37.4292 53.5904 37.4641 53.8005 37.4614C53.9856 37.4614 54.1736 37.4299 54.3617 37.3707ZM53.1052 35.2302C53.2587 35.0899 53.4624 35.0213 53.7193 35.0213C53.964 35.0213 54.155 35.0899 54.2961 35.2178C54.4369 35.349 54.5121 35.5298 54.5248 35.7608H52.8327C52.8565 35.5564 52.9534 35.3678 53.1052 35.2302ZM55.283 34.6219H55.9097L56.8652 35.9606L55.8438 37.3988H55.236L56.3074 35.9603L55.283 34.6219ZM56.9874 34.6219H57.4826V37.3988H56.9874V34.6219ZM59.2529 37.3988L58.1626 35.9603L59.1811 34.6215H58.5666L57.6048 35.9603L58.6389 37.3988H59.2529ZM61.5156 37.3707C61.7036 37.3114 61.8634 37.2206 62.0011 37.0961L61.8507 36.7092C61.7598 36.7905 61.6377 36.8591 61.4906 36.9154C61.3431 36.9716 61.1771 36.9994 60.9953 36.9994C60.7227 36.9994 60.4971 36.9278 60.3183 36.7812C60.14 36.6345 60.0428 36.4287 60.0208 36.1662H62.1642C62.1862 36.0698 62.1955 35.9603 62.1955 35.8324C62.1955 35.6423 62.1613 35.4705 62.092 35.3145C62.0278 35.1632 61.9341 35.0263 61.8164 34.9122C61.6972 34.7987 61.5565 34.7106 61.4027 34.653C61.2419 34.5902 61.0707 34.5584 60.8981 34.5593C60.6665 34.5593 60.4628 34.5998 60.2841 34.6748C60.1155 34.7461 59.9631 34.8513 59.8361 34.9838C59.7124 35.1154 59.6174 35.2716 59.5572 35.4424C59.491 35.6242 59.4581 35.8165 59.46 36.0102C59.46 36.2288 59.4976 36.4283 59.5665 36.6064C59.6354 36.7841 59.7389 36.9371 59.8674 37.065C59.9959 37.1929 60.1523 37.2896 60.3373 37.3583C60.5355 37.4292 60.7445 37.4641 60.9547 37.4614C61.1452 37.46 61.3343 37.4294 61.5156 37.3707ZM60.2591 35.2302C60.4129 35.0899 60.6166 35.0213 60.8736 35.0213C61.1149 35.0213 61.3089 35.0899 61.45 35.2178C61.5911 35.349 61.6664 35.5298 61.6787 35.7608H59.9865C60.0104 35.5564 60.1073 35.3678 60.2591 35.2302ZM64.2045 33.6889C63.913 33.6889 63.7532 33.5265 63.7283 33.2021H63.2613C63.2613 33.3266 63.2833 33.4391 63.3239 33.5453C63.3648 33.6514 63.4244 33.7418 63.5026 33.8168C63.5808 33.8918 63.6813 33.951 63.7972 33.9975C63.913 34.0444 64.0478 34.0661 64.2012 34.0661C64.3423 34.0661 64.4678 34.0444 64.5807 33.9975C64.6935 33.954 64.7873 33.8918 64.8689 33.8168C64.9471 33.7418 65.01 33.6514 65.0536 33.5453C65.0975 33.4391 65.1195 33.3266 65.1195 33.2021H64.6559C64.6339 33.5265 64.4801 33.6889 64.2045 33.6889ZM62.8662 34.6215V37.3988H63.3615L64.972 35.3299V37.3988H65.4673V34.6215H64.972L63.3615 36.6904V34.6215H62.8662Z" fill="#EFEFEF"/>
</svg>
