<svg xmlns="http://www.w3.org/2000/svg" width="89" height="45" fill="none" viewBox="0 0 89 45">
    <path fill="#EFEFEF" d="M76.959 12.845v11.002h-3.901v-7.718H69.3v7.718h-3.9V12.844h11.558v.001Z"/>
    <path fill="#EFEFEF" fill-rule="evenodd" d="M57.389 24.24c3.492 0 6.085-2.156 6.085-5.425 0-3.164-1.913-5.218-5.11-5.218-1.476 0-2.694.523-3.611 1.426.219-1.866 1.785-3.228 3.51-3.228l3.395-.006 1.695-3.266s-3.763.086-5.512.086c-3.996.07-6.696 3.728-6.696 8.171 0 5.177 2.633 7.46 6.244 7.46Zm.021-7.75c1.297 0 2.196.858 2.196 2.325 0 1.32-.799 2.408-2.196 2.411-1.336 0-2.235-1.008-2.235-2.389 0-1.467.899-2.347 2.235-2.347Z" clip-rule="evenodd"/>
    <path fill="#EFEFEF" d="M47.97 20.164s-.922.534-2.297.636c-1.582.047-2.992-.96-2.992-2.747 0-1.744 1.244-2.743 2.952-2.743 1.047 0 2.432.73 2.432.73s1.014-1.872 1.539-2.809c-.962-.734-2.242-1.136-3.732-1.136-3.76 0-6.67 2.468-6.67 5.936 0 3.512 2.736 5.923 6.67 5.85 1.1-.04 2.617-.43 3.541-1.028l-1.443-2.69Z"/>
    <path fill="#5B57A2" d="m0 9.795 5.412 9.74v5.942L.006 35.199 0 9.795Z"/>
    <path fill="#D90751" d="m20.778 15.991 5.071-3.13 10.378-.01-15.449 9.53v-6.39Z"/>
    <path fill="#FAB718" d="m20.749 9.738.029 12.896-5.424-3.356V0l5.395 9.738Z"/>
    <path fill="#ED6F26" d="m36.226 12.852-10.378.01-5.099-3.124L15.354 0l20.872 12.852Z"/>
    <path fill="#63B22F" d="M20.778 35.252v-6.256l-5.424-3.293L15.357 45l5.42-9.748Z"/>
    <path fill="#1487C9" d="M25.836 32.151 5.411 19.535 0 9.795l36.204 22.344-10.368.012Z"/>
    <path fill="#017F36" d="m15.357 45 5.42-9.747 5.059-3.102 10.368-.012L15.357 45Z"/>
    <path fill="#984995" d="m.006 35.199 15.392-9.495-5.175-3.198-4.812 2.971L.006 35.2Z"/>
    <path fill="#EFEFEF" d="M42.682 31.251c-.12.153-.276.269-.464.347-.193.079-.4.12-.608.118a1.713 1.713 0 0 1-.608-.102 1.328 1.328 0 0 1-.777-.752 1.575 1.575 0 0 1-.11-.597c0-.202.035-.39.107-.567.069-.178.169-.331.294-.46a1.404 1.404 0 0 1 1.012-.424c.223 0 .43.029.618.085.188.056.348.15.48.28l-.23.39a1.072 1.072 0 0 0-.382-.224 1.337 1.337 0 0 0-.417-.065.965.965 0 0 0-.667.272.995.995 0 0 0-.288.717.99.99 0 0 0 .297.72c.091.088.198.153.32.197.122.047.25.069.389.069.169 0 .323-.035.454-.1.13-.064.247-.152.345-.26l.235.356Zm.645.4v-2.777h.495v2.069l1.611-2.07h.495v2.778h-.495v-2.069l-1.61 2.07-.496-.001Zm5.882-.4a1.122 1.122 0 0 1-.464.347c-.193.079-.4.12-.608.118a1.711 1.711 0 0 1-.608-.102 1.329 1.329 0 0 1-.777-.752 1.575 1.575 0 0 1-.11-.597c0-.202.035-.39.107-.567.07-.178.17-.331.295-.46.125-.13.276-.23.445-.308.178-.08.372-.119.567-.115.222 0 .43.028.617.084.188.056.348.15.48.28l-.23.39a1.067 1.067 0 0 0-.381-.224 1.338 1.338 0 0 0-.417-.065.966.966 0 0 0-.668.271.997.997 0 0 0-.288.717.99.99 0 0 0 .298.721c.09.088.197.153.32.197.122.044.25.069.388.069.17 0 .32-.035.454-.1.13-.064.248-.152.345-.26l.235.356Zm.254-2.377h2.541v.493h-1.021v2.284h-.496v-2.284h-1.021v-.493h-.003Z"/>
    <path fill="#EFEFEF" fill-rule="evenodd" d="M54.317 31.623c.188-.06.348-.15.486-.275l-.15-.387c-.091.082-.213.15-.36.207a1.385 1.385 0 0 1-.496.084c-.272 0-.498-.072-.677-.219-.178-.147-.275-.352-.297-.615h2.143c.022-.096.031-.206.031-.333a1.264 1.264 0 0 0-.379-.921 1.226 1.226 0 0 0-.413-.259 1.365 1.365 0 0 0-.505-.094c-.232 0-.436.041-.614.116a1.356 1.356 0 0 0-.448.309 1.307 1.307 0 0 0-.279.459c-.066.181-.1.374-.097.567 0 .219.037.418.106.597a1.294 1.294 0 0 0 .77.752 1.866 1.866 0 0 0 1.178.012Zm-1.253-2.138c.153-.14.357-.209.614-.209.241 0 .436.066.577.197.14.131.216.312.228.543h-1.692a.85.85 0 0 1 .273-.53Z" clip-rule="evenodd"/>
    <path fill="#EFEFEF" d="M55.67 28.873h.452l1.072 1.377 1.015-1.377h.439v2.778h-.495v-2.025l-.965 1.288h-.02l-1.002-1.289v2.025h-.495v-2.776Z"/>
    <path fill="#EFEFEF" fill-rule="evenodd" d="M59.995 28.883c-.15.04-.294.102-.426.184l.131.394a3.12 3.12 0 0 1 .339-.144c.113-.04.257-.06.43-.06.137 0 .247.023.331.066a.44.44 0 0 1 .192.178.762.762 0 0 1 .087.278c.016.109.022.227.022.356a.845.845 0 0 0-.338-.14 1.93 1.93 0 0 0-.357-.038c-.148 0-.285.022-.417.059a.915.915 0 0 0-.335.169.802.802 0 0 0-.22.277.869.869 0 0 0-.081.378c0 .271.078.483.235.634.156.15.363.224.62.224.232 0 .417-.04.558-.122.14-.081.254-.175.335-.28v.358h.464v-1.703c0-.363-.078-.643-.238-.84-.157-.197-.436-.296-.83-.296-.176 0-.342.024-.502.068Zm.828 2.25a.74.74 0 0 1-.442.119.544.544 0 0 1-.373-.119.413.413 0 0 1-.132-.318c0-.078.016-.144.05-.203a.46.46 0 0 1 .135-.143.593.593 0 0 1 .191-.085.86.86 0 0 1 .22-.028c.244 0 .454.06.626.184v.353a1.426 1.426 0 0 1-.275.24Zm5.114-3.236a.762.762 0 0 0 .282-.24l-.27-.39a.544.544 0 0 1-.235.194c-.093.036-.19.063-.288.08l-.094.017-.263.046a1.936 1.936 0 0 0-.439.137 1.39 1.39 0 0 0-.536.393 1.85 1.85 0 0 0-.313.56 2.947 2.947 0 0 0-.148.645c-.025.225-.037.44-.037.646 0 .265.034.505.103.72.07.216.166.397.295.544.128.15.282.262.464.343.181.081.385.122.614.122.21 0 .404-.041.58-.116a1.4 1.4 0 0 0 .852-1.31 1.7 1.7 0 0 0-.091-.568 1.23 1.23 0 0 0-.257-.434 1.145 1.145 0 0 0-.41-.281 1.416 1.416 0 0 0-.887-.053 1.335 1.335 0 0 0-.574.337.918.918 0 0 0-.181.265h-.013c.01-.128.025-.258.053-.393.028-.134.069-.262.123-.384.053-.121.122-.23.206-.33.09-.101.202-.181.326-.235a1.72 1.72 0 0 1 .43-.14l.098-.018c.098-.018.191-.035.28-.054.12-.024.23-.056.33-.103Zm-1.743 2.668a1.564 1.564 0 0 1-.069-.487.786.786 0 0 1 .113-.265.927.927 0 0 1 .204-.225c.184-.145.412-.223.645-.22.292 0 .511.09.665.268.154.18.229.405.229.677 0 .134-.026.256-.07.368a.886.886 0 0 1-.849.57.854.854 0 0 1-.677-.318 1.18 1.18 0 0 1-.19-.368Zm6.108-1.691h-.495v2.777h.495v-2.777Zm-3.084 0h.495v.833h.458c.216 0 .391.028.533.081a.912.912 0 0 1 .338.212c.085.088.144.191.179.306.034.116.053.234.053.359a1.1 1.1 0 0 1-.06.362.822.822 0 0 1-.19.315.918.918 0 0 1-.358.225c-.15.056-.332.087-.552.087h-.899v-2.78h.003Zm.495 1.298v1.017h.36c.249 0 .424-.043.524-.131.1-.087.15-.212.15-.377 0-.169-.053-.297-.153-.384-.103-.088-.276-.131-.514-.131h-.367v.006Z" clip-rule="evenodd"/>
    <path fill="#EFEFEF" d="M73.576 31.251c-.119.153-.276.269-.464.347-.193.079-.4.12-.607.118a1.713 1.713 0 0 1-.608-.102 1.344 1.344 0 0 1-.47-.294 1.334 1.334 0 0 1-.308-.459 1.58 1.58 0 0 1-.11-.596 1.484 1.484 0 0 1 .402-1.026c.125-.131.275-.23.445-.309.178-.08.372-.119.567-.115.222 0 .43.028.617.084.188.056.348.15.48.28l-.229.39a1.071 1.071 0 0 0-.382-.224 1.338 1.338 0 0 0-.417-.065.963.963 0 0 0-.667.272.997.997 0 0 0-.288.717.99.99 0 0 0 .297.72c.09.088.197.153.32.197.122.044.25.069.388.069.17 0 .32-.035.454-.1.13-.064.248-.152.345-.26l.235.356Zm.254-2.377h2.541v.493H75.35v2.284h-.495v-2.284h-1.022v-.493h-.003Z"/>
    <path fill="#EFEFEF" fill-rule="evenodd" d="M77.406 28.874h-.495v4.013h.495v-1.364c.1.066.22.113.357.144.138.031.282.046.43.046.22 0 .417-.04.595-.115a1.371 1.371 0 0 0 .752-.79c.07-.183.104-.38.104-.589 0-.206-.032-.396-.091-.568a1.324 1.324 0 0 0-.257-.443 1.116 1.116 0 0 0-.405-.29 1.293 1.293 0 0 0-.535-.106c-.194 0-.376.037-.548.112a1.06 1.06 0 0 0-.402.278v-.328Zm.345.515a.966.966 0 0 1 .46-.112c.145 0 .273.021.39.068a.774.774 0 0 1 .285.2.829.829 0 0 1 .175.306c.04.118.06.247.06.387 0 .15-.025.284-.069.409a.88.88 0 0 1-.495.527.996.996 0 0 1-.405.078c-.134 0-.26-.015-.379-.047a1.236 1.236 0 0 1-.366-.168V29.66c.087-.105.204-.196.344-.27Zm5.69-.515h-.495v2.777h.496v-2.777Zm-3.086 0h.495v.833h.458c.216 0 .391.028.532.081a.91.91 0 0 1 .339.212c.084.088.144.191.178.306.035.116.053.234.053.359a1.1 1.1 0 0 1-.059.362.821.821 0 0 1-.191.315.918.918 0 0 1-.357.225c-.15.056-.332.087-.552.087h-.899v-2.78h.003Zm.499 1.298v1.017h.36c.247 0 .423-.043.523-.131.1-.087.15-.212.15-.377 0-.169-.053-.297-.153-.384-.103-.088-.276-.131-.514-.131h-.366v.006Z" clip-rule="evenodd"/>
    <path fill="#EFEFEF" d="m85.817 30.212 1.059 1.439h-.608l-.818-1.124-.83 1.124h-.577l1.053-1.414-.99-1.363h.608l.755 1.048.767-1.049h.577l-.996 1.34Zm-43.501 4.871h-1.52v2.315h-.495v-2.777h2.51v2.777h-.495v-2.315Zm3.305.031h-.977l-.032.468a5.676 5.676 0 0 1-.147.958c-.066.244-.147.43-.241.562a.694.694 0 0 1-.33.265c-.129.048-.266.07-.403.069l-.038-.48a.4.4 0 0 0 .185-.041c.069-.032.138-.1.203-.203.066-.106.126-.256.18-.45.052-.196.087-.452.106-.773l.05-.865h1.94v2.777h-.496v-2.287Z"/>
    <path fill="#EFEFEF" fill-rule="evenodd" d="M47.452 34.628c-.16.044-.304.106-.426.184l.131.393a3.15 3.15 0 0 1 .339-.143c.112-.04.257-.06.429-.06.138 0 .248.022.332.066a.44.44 0 0 1 .192.178.77.77 0 0 1 .087.277c.016.11.022.228.022.356a.846.846 0 0 0-.339-.14 1.938 1.938 0 0 0-.357-.038c-.147 0-.285.022-.416.06a.913.913 0 0 0-.336.168.802.802 0 0 0-.22.278.868.868 0 0 0-.08.378c0 .27.078.483.235.633.156.15.363.225.62.225.232 0 .417-.04.558-.122.14-.081.253-.175.335-.281v.359h.464v-1.704c0-.362-.079-.643-.238-.84-.157-.196-.436-.295-.83-.295-.17 0-.339.023-.502.068Zm.83 2.25c-.112.08-.26.118-.441.118-.163 0-.285-.04-.373-.119a.412.412 0 0 1-.132-.318c0-.078.016-.143.05-.202a.454.454 0 0 1 .135-.144.588.588 0 0 1 .191-.084.859.859 0 0 1 .22-.028c.244 0 .454.06.626.184v.352a1.43 1.43 0 0 1-.276.24Z" clip-rule="evenodd"/>
    <path fill="#EFEFEF" d="M49.507 34.622h2.541v.492h-1.022V37.4h-.494v-2.284H49.51v-.493h-.003Z"/>
    <path fill="#EFEFEF" fill-rule="evenodd" d="M54.362 37.37c.188-.059.347-.15.485-.274l-.15-.387c-.091.081-.213.15-.36.206a1.381 1.381 0 0 1-.496.084c-.272 0-.498-.071-.677-.218-.178-.146-.275-.352-.297-.615h2.143c.022-.096.032-.206.032-.334a1.265 1.265 0 0 0-.38-.92 1.22 1.22 0 0 0-.413-.259 1.569 1.569 0 0 0-1.119.022 1.347 1.347 0 0 0-.448.309 1.312 1.312 0 0 0-.28.458 1.623 1.623 0 0 0-.096.568c0 .219.037.418.106.596a1.292 1.292 0 0 0 .771.752c.198.071.407.106.617.103.186 0 .374-.031.562-.09Zm-1.257-2.14c.154-.14.357-.209.614-.209.245 0 .436.069.577.197.14.131.216.312.229.543h-1.692a.849.849 0 0 1 .272-.53Zm2.178-.608h.627l.955 1.339-1.021 1.438h-.608l1.071-1.439-1.024-1.338Zm1.704 0h.496v2.777h-.496v-2.777Zm2.266 2.777-1.09-1.439 1.018-1.339h-.614l-.962 1.34 1.034 1.438h.614Zm2.263-.028c.188-.06.347-.15.485-.275l-.15-.387c-.091.081-.213.15-.36.206a1.386 1.386 0 0 1-.496.084c-.272 0-.498-.071-.677-.218-.178-.146-.275-.352-.297-.615h2.143c.022-.096.032-.206.032-.334a1.259 1.259 0 0 0-.38-.92 1.22 1.22 0 0 0-.413-.259 1.367 1.367 0 0 0-.505-.094c-.232 0-.435.04-.614.116a1.3 1.3 0 0 0-.727.768c-.066.181-.099.373-.097.567 0 .219.038.418.106.596a1.29 1.29 0 0 0 .77.752 1.865 1.865 0 0 0 1.178.012Zm-1.257-2.14c.154-.141.358-.21.615-.21.24 0 .435.069.576.197.141.131.216.312.229.543h-1.693a.85.85 0 0 1 .273-.53Zm3.945-1.542c-.291 0-.45-.163-.476-.487h-.467c0 .125.022.237.063.343.04.106.1.197.179.272a.912.912 0 0 0 .294.18c.116.047.25.07.404.07a.977.977 0 0 0 .38-.07.9.9 0 0 0 .288-.18.788.788 0 0 0 .185-.272.883.883 0 0 0 .066-.343h-.464c-.022.325-.176.487-.452.487Zm-1.338.932V37.4h.495l1.611-2.07v2.07h.495V34.62h-.495l-1.61 2.07v-2.07h-.496Z" clip-rule="evenodd"/>
</svg>
