<svg xmlns="http://www.w3.org/2000/svg" width="203" height="45" fill="none" viewBox="0 0 203 45">
    <path fill="#fff" d="M177.568 22.63c0-5.52-4.166-9.985-10.051-9.985-5.768 0-9.875 4.293-9.875 10.192 0 5.93 4.223 10.252 10.283 10.252 3.845 0 7.079-1.724 9.089-5.228l-4.078-1.899c-.961 1.752-3.059 2.892-5.011 2.892-2.476 0-5.33-1.87-5.506-4.468h15.003c.096-.58.145-1.168.146-1.757Zm-15.062-1.688c.351-2.628 2.157-4.351 5.041-4.351 2.854 0 4.602 1.688 4.835 4.35h-9.876ZM121.41 12.64c-5.914 0-10.108 4.266-10.108 10.282 0 5.957 4.194 10.163 10.167 10.163 6.001 0 10.195-4.206 10.195-10.076 0-6.046-4.31-10.368-10.254-10.368Zm.059 15.976c-2.972 0-4.807-2.22-4.807-5.666 0-3.505 1.864-5.9 4.807-5.9 2.971 0 4.835 2.366 4.835 5.9 0 3.476-1.834 5.666-4.835 5.666ZM100.352 12.646c-2.423 0-4.248.83-6.073 2.887h-.599c-1.226-1.857-3.226-2.887-5.47-2.887a7.063 7.063 0 0 0-5.767 2.887h-.6l-.029-.028v-2.458h-5.013v19.609h5.417V22.565c0-3.259 1.37-5.174 3.736-5.174 2.195 0 3.62 1.63 3.62 4.116v11.149h5.446V22.565c0-3.235 1.37-5.174 3.765-5.174 2.166 0 3.563 1.63 3.563 4.146v11.119h5.447V20.879c0-5.116-2.738-8.233-7.443-8.233ZM189.615 25.855h-.387c0-.348-2.363-6.558-3.911-10.406l-.968-2.406h-5.458l7.743 19.678-3.051 7.498h5.42l11.151-27.169h-5.461l-.891 2.057-3.02 7.491c-.852 2.093-1.201 3.063-1.167 3.257ZM146.69 12.646c-2.424 0-4.506 1.058-5.903 2.945h-.571l-.056-.028v-2.516h-5.016v19.609h5.417V22.622c0-3.2 1.543-5.203 4.078-5.203 2.366 0 4.106 1.772 4.106 4.573v10.663h5.417V20.822c0-4.802-3.136-8.175-7.472-8.175Z"/>
    <path fill="#8B3FFD" d="M40.007 1.406c-11.705 0-21.11 9.492-21.11 21.094 0 11.697 9.498 21.094 21.107 21.094 11.61 0 21.116-9.492 21.116-21.094S51.616 1.406 40.007 1.406Zm0 28.956c-4.318 0-7.867-3.548-7.867-7.862s3.55-7.862 7.867-7.862c4.318 0 7.868 3.548 7.868 7.862-.097 4.314-3.55 7.862-7.868 7.862ZM18.897 7.535v30.681h-7.48L1.822 7.535h17.075Z"/>
</svg>
