<?xml version="1.0" encoding="UTF-8"?> <svg xmlns="http://www.w3.org/2000/svg" width="106" height="93" viewBox="0 0 106 93" fill="none"> <path d="M10.88 23.65C11.4654 24.0578 11.9905 24.5459 12.44 25.1C12.8843 25.6461 13.1713 26.303 13.27 27C13.336 27.6812 13.233 28.3682 12.97 29C12.7034 29.6285 12.3681 30.2254 11.97 30.78L9.64 34.08L8.64 33.36L9.31 32.36L3.31 28.09L2.64 29.04L1.64 28.32L4.1 24.8C4.52238 24.1495 5.06551 23.586 5.7 23.14C6.36176 22.7207 7.13771 22.518 7.92 22.56C8.28468 22.5669 8.64724 22.6173 9 22.71C9.32292 22.8115 9.63724 22.9386 9.94 23.09C10.2884 23.2484 10.6229 23.4358 10.94 23.65H10.88ZM9.76 25.26L9.43 25.05L9 24.82C8.64436 24.6391 8.26835 24.5015 7.88 24.41C7.48307 24.3399 7.07693 24.3399 6.68 24.41C6.31141 24.4769 5.9667 24.6389 5.68 24.88C5.37129 25.154 5.09906 25.4666 4.87 25.81L4.31 26.59L10.31 30.87L10.57 30.5C10.9868 29.9758 11.3238 29.3928 11.57 28.77C11.7068 28.1113 11.5888 27.4252 11.24 26.85C11.1792 26.743 11.1124 26.6395 11.04 26.54C10.9749 26.4495 10.9048 26.3627 10.83 26.28C10.76 26.2 10.66 26.11 10.55 26C10.44 25.89 10.32 25.78 10.21 25.69L9.69 25.26H9.76ZM22.25 19.91L20.44 21.58L18.67 20.43C18.1182 20.0228 17.4884 19.7335 16.82 19.58C16.6883 19.5697 16.5564 19.5975 16.44 19.66C16.3096 19.7352 16.1887 19.8258 16.08 19.93L15.87 20.12L15.18 20.75L17.18 22.9L18.02 22.13L18.86 23.04L15.76 25.9L14.9 25L15.78 24.2L10.78 18.75L9.91 19.56L9.07 18.65L12.58 15.41C12.9251 15.0656 13.3153 14.7695 13.74 14.53C14.0317 14.3841 14.3463 14.2894 14.67 14.25C15.0603 14.2033 15.4559 14.2692 15.81 14.44C16.1884 14.6191 16.5281 14.8705 16.81 15.18C17.2376 15.6185 17.4901 16.1982 17.52 16.81C17.5331 17.423 17.303 18.0162 16.88 18.46C17.192 18.1867 17.586 18.0249 18 18C18.4078 18.0847 18.793 18.2552 19.13 18.5L20.82 19.5L21.42 18.94L22.26 19.86L22.25 19.91ZM15.4 16.5C15.2327 16.3298 15.0362 16.191 14.82 16.09C14.6062 15.9962 14.373 15.9551 14.14 15.97C13.9613 15.989 13.7898 16.0508 13.64 16.15C13.4392 16.2931 13.2488 16.4502 13.07 16.62L12.15 17.46L14.34 19.84L15.05 19.18C15.272 18.981 15.473 18.7599 15.65 18.52C15.7989 18.3147 15.8888 18.0727 15.91 17.82C15.9333 17.582 15.899 17.3419 15.81 17.12C15.7079 16.8925 15.5694 16.6831 15.4 16.5ZM31.55 14.33L28.06 16.33L27.45 15.25L28.45 14.67L27.04 13.42L23.84 15.21L24.19 17L25.19 16.41L25.8 17.5L22.53 19.34L22 18.29L22.69 17.91L21.24 8.78L23.24 7.67L30.24 13.67L30.93 13.28L31.54 14.37L31.55 14.33ZM26 12.53L22.88 9.69L23.66 13.86L26 12.53ZM37.47 5.07L36 5.53L35.41 3.69L32.23 4.69L33.23 7.74L34.47 7.34L34.08 6.13L35.31 5.73L36.5 9.4L35.26 9.8L34.85 8.52L33.63 9L34.53 11.81L35.87 11.38L36.25 12.56L32 13.88L31.62 12.69L32.71 12.34L30.44 5.34L29.35 5.69L29 4.47L36.5 2.05L37.5 5.05L37.47 5.07ZM47.47 3.32L45.9 3.59L45.55 1.59L44 1.8L45.19 9L46.5 8.78L46.7 10.01L42.21 10.76L42 9.58L43.32 9.36L42.11 2.11L40.59 2.37L40.93 4.37L39.35 4.64L38.79 1.31L46.87 0L47.42 3.32H47.47ZM66.5 8C66.4399 8.49732 66.2591 8.97239 65.9732 9.38375C65.6873 9.79512 65.3052 10.1303 64.86 10.36C63.9279 10.811 62.8709 10.9343 61.86 10.71C61.2027 10.6523 60.5682 10.4414 60.0072 10.094C59.4463 9.74669 58.9746 9.27266 58.63 8.71C58.0284 7.50663 57.8624 6.13202 58.16 4.82C58.2752 3.95895 58.5607 3.12947 59 2.38C59.2929 1.87766 59.705 1.45522 60.2 1.15C60.5909 0.883626 61.0235 0.684231 61.48 0.56C62.0542 0.443906 62.6458 0.443906 63.22 0.56C63.7368 0.626829 64.2398 0.775347 64.71 1C65.1802 1.24262 65.5617 1.62761 65.8 2.1L66 1.18L67.52 1.43L66.89 5L65.24 4.72C65.4035 4.08571 65.3176 3.41289 65 2.84C64.8289 2.5651 64.598 2.3324 64.3244 2.15924C64.0508 1.98609 63.7417 1.87696 63.42 1.84C62.9961 1.75326 62.5561 1.79114 62.1533 1.94908C61.7505 2.10702 61.402 2.37826 61.15 2.73C60.622 3.44551 60.2786 4.28013 60.15 5.16C59.9614 6.01304 59.9614 6.89696 60.15 7.75C60.2472 8.18486 60.4776 8.57854 60.8093 8.87612C61.1409 9.1737 61.5572 9.36034 62 9.41C62.2889 9.47064 62.5869 9.47359 62.8769 9.41868C63.167 9.36376 63.4433 9.25206 63.69 9.09C63.9266 8.92172 64.1254 8.70577 64.2735 8.45603C64.4216 8.2063 64.5158 7.92833 64.55 7.64L66.5 8ZM75.11 14.69L72.8 13.81C72.91 12.94 72.99 12.24 73.05 11.71C73.1684 11.0463 73.1479 10.3654 72.99 9.71C72.9427 9.58505 72.8591 9.47709 72.75 9.4C72.6252 9.31749 72.4909 9.25034 72.35 9.2L72.09 9L71.21 8.66L70.21 11.39L71.28 11.8L70.79 13L66.85 11.49L67.29 10.33L68.4 10.76L71.05 3.85L69.94 3.42L70.38 2.26L74.84 4C75.3032 4.15858 75.7436 4.3771 76.15 4.65C76.4124 4.84338 76.6363 5.0842 76.81 5.36C77.0306 5.68825 77.1489 6.07452 77.15 6.47C77.1512 6.88431 77.0731 7.29501 76.92 7.68C76.7132 8.24399 76.3079 8.71327 75.78 9C75.2312 9.28674 74.5911 9.34427 74 9.16C74.3838 9.32915 74.7004 9.62114 74.9 9.99C74.9864 10.3988 74.9864 10.8212 74.9 11.23L74.73 13.23L75.49 13.52L75.04 14.68L75.11 14.69ZM75.11 7.03C75.1916 6.80946 75.229 6.57499 75.22 6.34C75.2102 6.10349 75.1415 5.87317 75.02 5.67C74.9289 5.51471 74.7977 5.38688 74.64 5.3C74.4344 5.18421 74.2205 5.08393 74 5L72.84 4.56L71.69 7.56L72.59 7.91C72.8681 8.018 73.1562 8.09839 73.45 8.15C73.6957 8.16234 73.9403 8.11065 74.16 8C74.3856 7.92079 74.5858 7.78268 74.74 7.6C74.8992 7.42256 75.0276 7.21977 75.12 7L75.11 7.03ZM84.32 20.41L80.93 18.28L81.59 17.28L82.59 17.91L83 16L79.9 14L78.44 15.2L79.44 15.83L78.78 16.89L75.6 14.89L76.26 13.83L76.93 14.25L84.28 8.67L86.2 9.88L84.32 18.88L84.99 19.3L84.33 20.35L84.32 20.41ZM83.32 14.71L84.32 10.59L81 13.22L83.31 14.67L83.32 14.71ZM95 21.43L94 20.4L95.28 19L92.85 16.7L90.65 19L91.59 19.89L92.46 18.97L93.46 19.86L90.81 22.66L89.87 21.77L90.79 20.77L89.85 19.88L87.85 22.03L88.85 23.03L88 23.94L84.77 20.88L85.62 19.98L86.45 20.77L91.53 15.39L90.7 14.6L91.55 13.7L97.28 19.12L95 21.43ZM101.12 29.9L100.19 28.6L101.88 27.39L100.98 26.13L95 30.4L95.77 31.48L94.77 32.2L92.12 28.49L93.12 27.77L93.9 28.86L99.9 24.6L99 23.34L97.32 24.54L96.39 23.24L99.13 21.24L103.88 27.9L101.14 29.9H101.12Z" fill="black"></path> <path d="M66.88 42.45H58V40H60.65V26.69L60.51 26.82C60.1915 27.1172 59.8577 27.3976 59.51 27.66C59.29 27.82 59.07 27.98 58.86 28.15L56.38 29.87V26.58C57.1067 26.08 57.8667 25.53 58.66 24.93C59.44 24.34 60.17 23.74 60.86 23.13H64.37V40H66.88V42.43V42.45ZM81.17 37.17C81.184 37.8093 81.1168 38.4477 80.97 39.07C80.7915 39.6439 80.4914 40.1726 80.09 40.62C79.3708 41.4674 78.4122 42.0774 77.34 42.37C76.4895 42.6221 75.6071 42.7501 74.72 42.75C73.0716 42.8359 71.4459 42.3365 70.13 41.34C69.5158 40.8028 69.0319 40.1328 68.7148 39.3809C68.3978 38.629 68.2559 37.8148 68.3 37H72C71.9509 37.8102 72.1842 38.6124 72.66 39.27C72.9344 39.5838 73.2774 39.83 73.6625 39.9895C74.0475 40.1491 74.4641 40.2177 74.88 40.19C75.2786 40.171 75.665 40.0468 76 39.83C76.3539 39.6426 76.6536 39.367 76.87 39.03C77.2426 38.4309 77.4304 37.7353 77.41 37.03C77.4123 36.5397 77.345 36.0515 77.21 35.58C77.0699 35.1317 76.8345 34.7189 76.52 34.37C76.3007 34.1389 76.0195 33.9757 75.71 33.9C75.3824 33.8217 75.0468 33.7814 74.71 33.78H73.51V31.36C74.4659 31.4213 75.4152 31.1646 76.21 30.63C76.5614 30.319 76.8349 29.9299 77.0086 29.494C77.1822 29.058 77.2512 28.5875 77.21 28.12C77.2383 27.4021 77.0194 26.6961 76.59 26.12C76.3708 25.832 76.0856 25.6008 75.7585 25.4459C75.4313 25.291 75.0717 25.217 74.71 25.23C74.3178 25.2038 73.9258 25.2826 73.5742 25.4584C73.2226 25.6342 72.9243 25.9005 72.71 26.23C72.2999 26.9101 72.1014 27.6968 72.14 28.49H68.49C68.4894 28.0188 68.5431 27.549 68.65 27.09C68.7509 26.404 69.0011 25.7484 69.383 25.1696C69.7648 24.5908 70.269 24.1028 70.86 23.74C72.0782 23.0507 73.4607 22.7051 74.86 22.74C75.6132 22.738 76.3643 22.8185 77.1 22.98C77.837 23.1487 78.5228 23.4916 79.1 23.98C79.746 24.5138 80.2365 25.2115 80.52 26C80.7473 26.594 80.8659 27.224 80.87 27.86C80.909 28.7016 80.7621 29.5415 80.44 30.32C80.0376 31.0318 79.4411 31.6145 78.72 32C78.4574 32.1476 78.179 32.265 77.89 32.35C77.5944 32.4457 77.294 32.5258 76.99 32.59C77.8195 32.6701 78.6233 32.9221 79.35 33.33C79.9985 33.7857 80.4936 34.4272 80.77 35.17C81.0233 35.807 81.1589 36.4846 81.17 37.17Z" fill="black"></path> <path d="M21.15 77C19.15 77.3333 17.18 77.6867 15.24 78.06C14.73 75.53 14.3 73.48 13.98 71.91C13.36 68.91 12.76 66.91 12.14 66.12C11.9434 65.8277 11.6548 65.6095 11.32 65.5C10.9753 65.4038 10.6175 65.3633 10.26 65.38H9.6L7.36 65.46V75.55L10.09 75.06V79.16C6.69667 79.98 3.33333 80.8833 0 81.87V77.08L2.84 76.46V49.21C1.84 49.01 0.94 48.8 0 48.58V43.8C3.8 44.91 7.6 45.92 11.41 46.8C12.6113 47.0454 13.7747 47.4489 14.87 48C15.6603 48.4377 16.3787 48.9942 17 49.65C17.785 50.5094 18.3661 51.5349 18.7 52.65C19.0656 53.8218 19.251 55.0424 19.25 56.27C19.3123 58.0087 18.826 59.723 17.86 61.17C17.4171 61.8067 16.8439 62.3419 16.1784 62.7401C15.513 63.1384 14.7704 63.3906 14 63.48C15.0468 63.5601 16.0201 64.0486 16.71 64.84C17.3071 65.8714 17.7104 67.0034 17.9 68.18C18.31 70.03 18.75 71.87 19.19 73.68C19.83 73.59 20.48 73.52 21.14 73.44V77H21.15ZM14.6 56C14.6069 55.2571 14.4955 54.5179 14.27 53.81C14.0588 53.1287 13.7194 52.4939 13.27 51.94C12.9577 51.5651 12.5551 51.276 12.1 51.1C11.5242 50.9057 10.9317 50.7651 10.33 50.68L7.33 50.14V61.24L9.63 61.3C10.3473 61.325 11.0645 61.2475 11.76 61.07C12.3791 60.9055 12.9336 60.5568 13.35 60.07C13.7913 59.5559 14.1155 58.9519 14.3 58.3C14.5076 57.5512 14.6085 56.7769 14.6 56V56ZM45.19 53.9C44.4 53.9 43.6 53.9 42.82 53.84V65.9C42.8369 66.7593 42.7867 67.6185 42.67 68.47C42.5744 69.0346 42.4098 69.5854 42.18 70.11C41.4762 71.8303 40.2571 73.2905 38.69 74.29C37.9539 74.7389 37.1552 75.0759 36.32 75.29C35.436 75.5604 34.5288 75.7478 33.61 75.85C32.7659 75.9125 31.9175 75.8823 31.08 75.76C30.2712 75.659 29.4824 75.4365 28.74 75.1C28.0805 74.7891 27.4891 74.3507 27 73.81C26.4495 73.1796 25.9885 72.4763 25.63 71.72C25.2285 70.8966 24.9715 70.0104 24.87 69.1C24.7563 67.8701 24.7063 66.6351 24.72 65.4V52.63L22.35 52.37V48.86C25.6233 49.32 28.9 49.7233 32.18 50.07V53.28L29.24 53.05V65.43C29.2234 66.4614 29.2635 67.493 29.36 68.52C29.4661 69.2305 29.7181 69.9115 30.1 70.52C30.4731 71.1866 31.047 71.7185 31.74 72.04C32.4597 72.3557 33.2469 72.4864 34.03 72.42C34.4172 72.4043 34.8006 72.337 35.17 72.22C35.42 72.13 35.79 71.95 36.27 71.72C36.8325 71.4076 37.2992 70.9478 37.62 70.39C37.9816 69.7902 38.2608 69.1444 38.45 68.47C38.5661 68.0764 38.6332 67.67 38.65 67.26C38.65 66.81 38.65 66.26 38.65 65.77V53.66L35.75 53.51V50.38C38.89 50.5933 42.0233 50.76 45.15 50.88V53.88L45.19 53.9ZM64.79 74.96C58.6767 74.7333 52.5733 74.6633 46.48 74.75V71.75H49.24V54H46.48V51C50.0933 51.0733 53.71 51.0733 57.33 51V54C56.14 54 54.96 54 53.77 54V71.68C56.1167 71.68 58.47 71.7133 60.83 71.78V66.33H64.83V74.89L64.79 74.96ZM86.17 77.25C79.65 76.27 73.1367 75.52 66.63 75V72L69.37 72.14V53.55L66.63 53.68V50.61C73.1433 50.11 79.6567 49.38 86.17 48.42V57.23L82.54 57.45V52.45C79.65 52.75 76.77 53 73.89 53.23V61H77.35V57.57L80.49 57.41V67.75L77.35 67.61V64.3H73.89V72.4C76.77 72.63 79.65 72.88 82.54 73.19V67.85L86.17 68.06V77.23V77.25ZM105.83 71.48C105.859 72.7493 105.742 74.0176 105.48 75.26C105.247 76.1993 104.883 77.1014 104.4 77.94C104.132 78.5408 103.738 79.0768 103.245 79.5117C102.751 79.9465 102.17 80.27 101.54 80.46C100.479 80.683 99.3793 80.6383 98.34 80.33C97.1948 80.049 96.1171 79.5424 95.17 78.84C94.0999 78.006 93.2771 76.8963 92.79 75.63V78.5L89.1 77.76V67.42L92.99 67.66C92.9232 69.44 93.2404 71.2135 93.92 72.86C94.1959 73.5893 94.6511 74.2373 95.2436 74.7441C95.8361 75.251 96.5468 75.6004 97.31 75.76C97.783 75.8866 98.2806 75.8896 98.7551 75.7688C99.2296 75.648 99.6651 75.4074 100.02 75.07C100.445 74.5746 100.767 73.999 100.966 73.3773C101.165 72.7556 101.238 72.1003 101.18 71.45C101.209 70.3897 100.986 69.3377 100.53 68.38C99.8349 67.2746 98.8489 66.382 97.68 65.8C96.68 65.21 95.68 64.64 94.68 64.11C93.68 63.58 92.93 63.2 92.53 62.94C91.4321 62.1701 90.5453 61.1365 89.9512 59.9343C89.3571 58.7321 89.0747 57.3998 89.13 56.06C89.1344 54.8507 89.3129 53.6484 89.66 52.49C89.8918 51.6858 90.1999 50.9056 90.58 50.16C91.1076 49.1216 91.8508 48.2079 92.76 47.48C93.7481 46.6969 94.9 46.1466 96.13 45.87C97.1773 45.5786 98.281 45.5545 99.34 45.8C99.8549 45.9724 100.323 46.2602 100.71 46.6415C101.096 47.0228 101.391 47.4875 101.57 48V45C102.8 44.66 104.02 44.3 105.26 43.94V56.4L101.44 56.78C101.44 56.4 101.44 56.02 101.44 55.64C101.534 53.9922 101.167 52.3508 100.38 50.9C100.067 50.3867 99.5944 49.9897 99.0348 49.7695C98.4753 49.5493 97.8591 49.5179 97.28 49.68C96.7099 49.7814 96.1618 49.981 95.66 50.27C95.166 50.5781 94.7678 51.0179 94.51 51.54C93.9548 52.5819 93.6792 53.7498 93.71 54.93C93.6902 55.4527 93.7836 55.9736 93.9838 56.4568C94.184 56.9401 94.4863 57.3744 94.87 57.73C95.5909 58.3101 96.3927 58.7817 97.25 59.13C98.25 59.58 99.15 60.13 100.12 60.58C101.09 61.03 101.42 61.22 101.5 61.28C102.293 61.7865 103.007 62.4064 103.62 63.12C104.197 63.7829 104.641 64.55 104.93 65.38C105.25 66.3338 105.485 67.3144 105.63 68.31C105.793 69.3519 105.87 70.4055 105.86 71.46L105.83 71.48Z" fill="black"></path> <path d="M14.81 90H12.12V88.88H14.81V90V90ZM53.24 92.57H51.24L50.65 91.94L50.55 92.02C50.2493 92.2476 49.9108 92.4203 49.55 92.53C49.1664 92.6398 48.769 92.6937 48.37 92.69C48.0338 92.6978 47.698 92.6642 47.37 92.59C47.0845 92.5263 46.8154 92.4037 46.58 92.23L46.39 92L46.2 91.82C46.0109 91.6139 45.8708 91.3678 45.79 91.1C45.7028 90.8183 45.659 90.5249 45.66 90.23C45.6488 89.743 45.804 89.2668 46.1 88.88C46.3949 88.4937 46.7793 88.1849 47.22 87.98L47.08 87.85C46.8374 87.6345 46.6402 87.3727 46.5 87.08C46.3568 86.7908 46.2816 86.4727 46.28 86.15C46.2826 85.8892 46.3496 85.6331 46.4753 85.4045C46.6009 85.1759 46.7812 84.982 47 84.84C47.4365 84.5293 47.9648 84.3744 48.5 84.4C49.0141 84.3709 49.5235 84.5114 49.95 84.8C50.1568 84.9564 50.3216 85.1615 50.4298 85.397C50.538 85.6326 50.5861 85.8913 50.57 86.15C50.5773 86.3801 50.5469 86.6098 50.48 86.83C50.399 87.0518 50.2806 87.2581 50.13 87.44C50.005 87.6095 49.8607 87.7638 49.7 87.9C49.5367 88.0399 49.3629 88.1669 49.18 88.28L50.72 90C50.981 89.613 51.1203 89.1568 51.12 88.69H50.44V87.77H53.12V88.69H52.25C52.2504 89.0673 52.1896 89.4422 52.07 89.8C51.9422 90.1757 51.7639 90.5323 51.54 90.86L52.11 91.54H53.24V92.54V92.57ZM49.24 86.2C49.2461 85.9688 49.1719 85.7426 49.03 85.56C48.9541 85.4746 48.8597 85.4077 48.7539 85.3644C48.6482 85.3211 48.534 85.3025 48.42 85.31C48.1968 85.3056 47.9785 85.376 47.8 85.51C47.7223 85.5845 47.6615 85.6749 47.6218 85.775C47.5821 85.875 47.5645 85.9825 47.57 86.09C47.569 86.2747 47.6136 86.4568 47.7 86.62C47.8605 86.9138 48.0664 87.1804 48.31 87.41L48.4 87.35C48.6066 87.2146 48.7977 87.057 48.97 86.88C49.1386 86.693 49.2344 86.4517 49.24 86.2V86.2ZM49.83 91.11L48.07 89C47.8066 89.1506 47.5809 89.3592 47.41 89.61C47.243 89.8724 47.1593 90.1792 47.17 90.49C47.1656 90.7412 47.2351 90.9881 47.37 91.2C47.5211 91.4107 47.7293 91.5737 47.97 91.67C48.0538 91.703 48.141 91.7265 48.23 91.74H48.54C48.7882 91.7323 49.0311 91.6672 49.25 91.55C49.4849 91.4529 49.6937 91.3022 49.86 91.11H49.83ZM93.71 90H91V88.88H93.69V90H93.71ZM25.39 90.47C25.3924 90.8464 25.2922 91.2163 25.1 91.54C24.9138 91.8639 24.6353 92.1251 24.3 92.29C24.0433 92.4275 23.7605 92.5093 23.47 92.53C23.15 92.53 22.77 92.53 22.33 92.53H18.83V91.53H19.74V85.63H18.83V84.63H22.83C23.1999 84.6176 23.5699 84.6546 23.93 84.74C24.1731 84.8141 24.4003 84.9328 24.6 85.09C24.8125 85.2706 24.9774 85.5007 25.08 85.76C25.1901 86.0405 25.2477 86.3387 25.25 86.64C25.2705 86.8613 25.2464 87.0844 25.179 87.2962C25.1117 87.508 25.0025 87.7041 24.8579 87.8729C24.7134 88.0417 24.5364 88.1798 24.3375 88.2789C24.1386 88.378 23.9218 88.4362 23.7 88.45C23.9424 88.4437 24.1829 88.4948 24.4019 88.5991C24.6208 88.7033 24.8121 88.8579 24.96 89.05C25.2647 89.4449 25.4268 89.9313 25.42 90.43L25.39 90.47ZM23.71 86.82C23.7174 86.5962 23.6729 86.3737 23.58 86.17C23.4873 85.9813 23.3265 85.8347 23.13 85.76C23.0081 85.7143 22.88 85.6873 22.75 85.68H22.26H21.26V88H22.14C22.3431 88.0138 22.5469 88.0138 22.75 88C22.9489 87.9808 23.1389 87.9082 23.3 87.79C23.565 87.5242 23.7157 87.1653 23.72 86.79L23.71 86.82ZM23.87 90.26C23.8786 90.0646 23.8372 89.8701 23.7497 89.6951C23.6622 89.5202 23.5315 89.3704 23.37 89.26C23.2356 89.1776 23.0859 89.1231 22.93 89.1C22.7504 89.0838 22.5696 89.0838 22.39 89.1H21.25V91.65H22.25C22.5052 91.6562 22.7602 91.6327 23.01 91.58C23.172 91.5321 23.322 91.4503 23.45 91.34C23.5868 91.2241 23.6933 91.0765 23.76 90.91C23.8313 90.7252 23.8653 90.528 23.86 90.33L23.87 90.26ZM34.35 92.57H31.15V91.57H32.09L31.6 90.14H28.67L28.16 91.57H29.11V92.57H26.11V91.57H26.74L29.34 84.66H31.15L33.72 91.57H34.35V92.57ZM31.21 89.16L30.13 85.94L29 89.13L31.21 89.16ZM41.84 92.57H39.84C39.67 91.89 39.53 91.35 39.42 90.94C39.3211 90.4036 39.1135 89.8932 38.81 89.44C38.7351 89.3594 38.6375 89.3036 38.53 89.28C38.414 89.2623 38.296 89.2623 38.18 89.28H37.18V91.62H38.09V92.62H34.76V91.62H35.76V85.63H34.76V84.63H38.58C38.9697 84.6183 39.3594 84.6553 39.74 84.74C39.9919 84.8102 40.2291 84.9254 40.44 85.08C40.6929 85.2645 40.8873 85.5179 41 85.81C41.1341 86.1259 41.1989 86.4669 41.19 86.81C41.2025 87.2991 41.0353 87.7759 40.72 88.15C40.5603 88.3328 40.3657 88.4818 40.1476 88.5883C39.9295 88.6948 39.6923 88.7566 39.45 88.77C39.787 88.7845 40.1085 88.9153 40.36 89.14C40.5544 89.409 40.6906 89.7155 40.76 90.04L41.19 91.57H41.84V92.57V92.57ZM39.65 86.85C39.6482 86.6614 39.6109 86.4748 39.54 86.3C39.4647 86.1275 39.3479 85.9764 39.2 85.86C39.0837 85.776 38.9507 85.718 38.81 85.69C38.6135 85.677 38.4165 85.677 38.22 85.69H37.22V88.27H38C38.238 88.2729 38.4758 88.2529 38.71 88.21C38.9055 88.1632 39.0872 88.0707 39.24 87.94C39.385 87.8132 39.4951 87.6514 39.56 87.47C39.623 87.2798 39.6534 87.0803 39.65 86.88V86.85ZM62.81 90.41C62.82 90.681 62.7828 90.9517 62.7 91.21C62.6172 91.4331 62.4953 91.6397 62.34 91.82C62.0943 92.1607 61.7427 92.4104 61.34 92.53C60.9948 92.6427 60.6331 92.6968 60.27 92.69C59.9093 92.6975 59.5502 92.6399 59.21 92.52C58.8743 92.3943 58.5943 92.1533 58.42 91.84V92.57H57.22V89.8H58.52C58.4946 90.2479 58.6024 90.6933 58.83 91.08C58.9529 91.267 59.1231 91.4183 59.3233 91.5184C59.5235 91.6185 59.7466 91.6639 59.97 91.65C60.2931 91.6619 60.6106 91.5631 60.87 91.37C61.0008 91.2699 61.1049 91.139 61.1729 90.9889C61.2409 90.8389 61.2709 90.6744 61.26 90.51C61.2705 90.2674 61.1923 90.0292 61.04 89.84C60.7741 89.5804 60.4475 89.3913 60.09 89.29L59.09 88.9C58.75 88.78 58.51 88.68 58.38 88.62C58.1493 88.4978 57.94 88.3391 57.76 88.15C57.5856 87.9725 57.4495 87.7611 57.3601 87.5289C57.2707 87.2967 57.2298 87.0486 57.24 86.8C57.2397 86.4813 57.3008 86.1656 57.42 85.87C57.4951 85.666 57.5996 85.474 57.73 85.3C57.9106 85.0428 58.1602 84.8417 58.45 84.72C58.8077 84.5712 59.1927 84.4996 59.58 84.51C59.9473 84.5014 60.3131 84.559 60.66 84.68C60.977 84.7887 61.2436 85.0091 61.41 85.3V84.64H62.65V87.24H61.35V87C61.3695 86.6015 61.2414 86.2098 60.99 85.9C60.8629 85.7634 60.7077 85.656 60.535 85.5852C60.3624 85.5144 60.1764 85.482 59.99 85.49C59.8048 85.4862 59.62 85.5064 59.44 85.55C59.2916 85.6046 59.1604 85.6978 59.06 85.82C58.877 86.0495 58.7813 86.3366 58.79 86.63C58.79 86.773 58.8257 86.9137 58.8938 87.0394C58.9619 87.1651 59.0603 87.2719 59.18 87.35C59.4257 87.508 59.6914 87.6324 59.97 87.72L60.97 88.09L61.44 88.25C61.6898 88.3563 61.9251 88.4941 62.14 88.66C62.3241 88.78 62.4781 88.9408 62.59 89.13C62.6886 89.3244 62.7657 89.5289 62.82 89.74C62.8718 89.9526 62.8953 90.1712 62.89 90.39L62.81 90.41ZM71.44 92.57H68.06V91.57H69.06V89H65.86V91.52H66.86V92.52H63.4V91.52H64.3V85.63H63.4V84.63H66.78V85.63H65.78V88H69V85.63H68V84.63H71.38V85.63H70.47V91.55H71.38V92.55L71.44 92.57ZM79.8 88.57C79.8 88.89 79.8 89.11 79.8 89.21C79.7789 89.5518 79.7081 89.8886 79.59 90.21C79.4963 90.4588 79.3895 90.7025 79.27 90.94C79.1446 91.1665 78.9936 91.3779 78.82 91.57C78.4739 91.9429 78.046 92.2304 77.57 92.41C77.0743 92.5943 76.5489 92.6859 76.02 92.68C75.4821 92.6874 74.9472 92.5994 74.44 92.42C73.9543 92.2242 73.5198 91.9197 73.17 91.53C72.8475 91.1661 72.6085 90.7361 72.47 90.27C72.3147 89.7816 72.2338 89.2725 72.23 88.76C72.2201 88.1935 72.2874 87.6283 72.43 87.08C72.5679 86.5805 72.8175 86.1189 73.16 85.73C73.505 85.3324 73.9406 85.0238 74.43 84.83C74.9254 84.629 75.4554 84.5271 75.99 84.53C76.5164 84.5012 77.0427 84.5884 77.5317 84.7854C78.0207 84.9824 78.4605 85.2844 78.82 85.67C79.5099 86.4704 79.8677 87.5043 79.82 88.56L79.8 88.57ZM78.16 88.57C78.1597 88.1945 78.1262 87.8197 78.06 87.45C78.0184 87.1304 77.9166 86.8217 77.76 86.54C77.4797 86.0781 77.029 85.7448 76.5053 85.612C75.9815 85.4792 75.4266 85.5575 74.96 85.83C74.6501 86.0304 74.3957 86.3055 74.22 86.63C74.0744 86.9013 73.9763 87.1956 73.93 87.5C73.8705 87.8568 73.8437 88.2183 73.85 88.58C73.8211 89.2938 73.9651 90.004 74.27 90.65C74.4275 90.9702 74.6752 91.2373 74.9826 91.4185C75.29 91.5997 75.6436 91.6872 76 91.67C76.2775 91.6717 76.5521 91.6126 76.8043 91.4969C77.0565 91.3811 77.2803 91.2115 77.46 91C77.6127 90.8271 77.7376 90.6314 77.83 90.42C77.9258 90.2081 77.9995 89.987 78.05 89.76C78.095 89.5998 78.1252 89.4358 78.14 89.27C78.14 89.07 78.14 88.81 78.14 88.48L78.16 88.57ZM86.89 87.11C86.899 87.4888 86.8345 87.8658 86.7 88.22C86.5666 88.5611 86.3459 88.8611 86.06 89.09C85.7919 89.305 85.4705 89.4432 85.13 89.49C84.7971 89.5148 84.4629 89.5148 84.13 89.49H83.13V91.55H84.29V92.55H80.69V91.55H81.62V85.63H80.69V84.63H84.42C84.7831 84.6233 85.1457 84.6603 85.5 84.74C85.812 84.8421 86.0915 85.0249 86.31 85.27C86.5325 85.5013 86.703 85.7774 86.81 86.08C86.9224 86.4012 86.9766 86.7398 86.97 87.08L86.89 87.11ZM85.34 87.11C85.3425 86.8966 85.3121 86.6841 85.25 86.48C85.1916 86.3 85.0885 86.1376 84.9503 86.0082C84.8122 85.8788 84.6435 85.7865 84.46 85.74C84.2463 85.6953 84.0282 85.6752 83.81 85.68H83.05V88.5H83.81C84.0753 88.5145 84.3414 88.491 84.6 88.43C84.7513 88.3806 84.8862 88.2907 84.99 88.17C85.1171 88.0277 85.2065 87.8558 85.25 87.67C85.3098 87.4722 85.3402 87.2667 85.34 87.06V87.11Z" fill="black"></path> <path fill-rule="evenodd" clip-rule="evenodd" d="M35.67 45C33.0625 44.3331 30.7112 42.9079 28.9136 40.9048C27.1159 38.9017 25.9525 36.4105 25.5705 33.7463C25.1884 31.0821 25.6049 28.3644 26.7673 25.9368C27.9297 23.5093 29.7857 21.4809 32.1008 20.108C34.4158 18.7352 37.086 18.0796 39.7736 18.2242C42.4612 18.3687 45.0456 19.3069 47.2 20.9201C49.3545 22.5332 50.9823 24.749 51.8776 27.2872C52.7729 29.8254 52.8956 32.5721 52.23 35.18C51.7891 36.9131 51.0107 38.5422 49.9394 39.9741C48.868 41.4059 47.5249 42.6125 45.9867 43.5246C44.4485 44.4367 42.7455 45.0366 40.9753 45.2897C39.205 45.5429 37.4022 45.4445 35.67 45V45ZM47.58 21.47C46.9729 24.483 46.02 27.4157 44.74 30.21L45.74 30.95C46.14 31.25 46.53 31.56 46.91 31.87C48.54 28.92 50.31 28.06 51.91 28C51.99 28.26 52.06 28.52 52.12 28.79C50.68 28.79 49.03 29.57 47.52 32.36C49.0342 33.617 50.3997 35.0429 51.59 36.61C51.48 36.88 51.37 37.15 51.25 37.41C50.0803 35.7926 48.7092 34.3309 47.17 33.06C46.2627 35.2191 45.7187 37.5134 45.56 39.85C45.4416 41.2302 45.1939 42.5962 44.82 43.93C44.5 44.08 44.17 44.22 43.82 44.35C44.3736 42.8765 44.7105 41.3303 44.82 39.76C44.9868 37.2721 45.5858 34.8323 46.59 32.55L45.32 31.55L44.45 30.91C41.97 36.15 38.22 41.31 33.29 43.91C33.0063 43.7806 32.7293 43.6371 32.46 43.48C37.46 41.04 41.28 35.83 43.78 30.55V30.46C43.03 29.95 42.25 29.46 41.44 28.97C39.22 32.73 32 34.27 26.8 35.37L26.15 35.51C26.08 35.26 26.01 35.02 25.96 34.77L26.64 34.62C31.64 33.56 38.73 32.06 40.79 28.62C37.7054 26.8053 34.3172 25.5653 30.79 24.96C29.7581 24.7998 28.7139 24.7329 27.67 24.76C27.83 24.5 28 24.24 28.18 24C29.0903 24.0023 29.9992 24.0692 30.9 24.2C34.5165 24.8218 37.9917 26.0886 41.16 27.94C42.16 25.65 41.4 23.43 40.16 21.56C39.3667 20.4598 38.4508 19.4533 37.43 18.56C37.77 18.52 38.1033 18.49 38.43 18.47C39.2963 19.285 40.077 20.1863 40.76 21.16C42.15 23.2 43 25.7 41.8 28.3C42.6 28.7667 43.37 29.2567 44.11 29.77C45.3923 26.9698 46.3324 24.0252 46.91 21L47.58 21.52V21.47Z" fill="black"></path> <path fill-rule="evenodd" clip-rule="evenodd" d="M52.44 35.24C53.1147 32.5874 52.9877 29.7943 52.0751 27.2139C51.1625 24.6335 49.5053 22.3816 47.313 20.7429C45.1206 19.1043 42.4917 18.1524 39.7584 18.0078C37.0252 17.8632 34.3105 18.5322 31.9574 19.9303C29.6044 21.3284 27.7188 23.3928 26.5389 25.8625C25.3591 28.3322 24.938 31.0963 25.329 33.8053C25.7199 36.5143 26.9053 39.0465 28.7353 41.0819C30.5653 43.1172 32.9577 44.5642 35.61 45.24C37.3717 45.6889 39.2046 45.7862 41.0039 45.5266C42.8032 45.2669 44.5338 44.6553 46.0967 43.7266C47.6596 42.798 49.0242 41.5705 50.1126 40.1144C51.201 38.6582 51.9919 37.0019 52.44 35.24V35.24ZM26.1 28.51C26.7537 25.9519 28.1513 23.6451 30.1161 21.8812C32.0809 20.1174 34.5245 18.9758 37.1381 18.6008C39.7517 18.2257 42.4177 18.6341 44.7992 19.7743C47.1807 20.9144 49.1706 22.7352 50.5173 25.0062C51.864 27.2773 52.507 29.8967 52.365 32.5332C52.223 35.1698 51.3025 37.705 49.7197 39.8183C48.1369 41.9316 45.963 43.5281 43.4728 44.406C40.9827 45.2838 38.2882 45.4035 35.73 44.75C32.3008 43.8712 29.3605 41.6674 27.5549 38.6224C25.7494 35.5775 25.2261 31.9405 26.1 28.51V28.51Z" fill="black" stroke="black" stroke-width="0.46" stroke-miterlimit="22.93"></path> </svg>