<svg xmlns="http://www.w3.org/2000/svg" width="26" height="26" fill="none" class="iconPrimary" viewBox="0 0 26 26">
    <path fill="#EFEFEF" d="M14.219 3.25H11.78a.812.812 0 0 1-.789-1.01l.127-.505A1.219 1.219 0 0 1 12.3.813h1.397a1.219 1.219 0 0 1 1.183.923l.126.505a.812.812 0 0 1-.788 1.01ZM12.3 1.625a.406.406 0 0 0-.394.308l-.126.504h2.439l-.127-.504a.406.406 0 0 0-.395-.308h-1.397Z"/>
    <path fill="currentColor" fill-rule="evenodd" d="m16.25 11.375-.066-.065c-.326-.323-.352-.349-.543-1.495-.082-.486-.191-.665-.296-1.69H10.62c-.123 1.157-.236 1.427-.26 1.69v.014c-.055.602-.093 1.03-.609 1.546-.198.198-.378.306-.55.407-.234.14-.45.268-.669.609-.376.587-.405 1.13-.406 1.828v1.219h2.885a2.844 2.844 0 0 1 3.98 0h2.885v-1.219c-.001-.697-.03-1.24-.406-1.828-.218-.34-.435-.47-.67-.61-.17-.1-.351-.208-.549-.406Zm-5.412-5.281h4.307v-.01c-.066-.675-.113-1.973-.123-2.021a.406.406 0 0 0-.397-.318h-3.25a.406.406 0 0 0-.396.318c-.01.046-.067 1.35-.141 2.031ZM8.125 23.157V19.5h2.885a2.845 2.845 0 0 0 3.98 0h2.885v3.657a2.034 2.034 0 0 1-2.031 2.03h-5.688a2.033 2.033 0 0 1-2.031-2.03Z" clip-rule="evenodd"/>
    <path fill="#EFEFEF" fill-rule="evenodd" d="M13 14.93a2.53 2.53 0 0 0-1.777.725.305.305 0 0 1-.213.087H8.734v1.727a.305.305 0 0 1-.609 0v-2.032c0-.168.136-.304.305-.304h2.459A3.138 3.138 0 0 1 13 14.32c.812 0 1.553.308 2.111.813h2.46a.305.305 0 1 1 0 .61h-2.58a.305.305 0 0 1-.214-.088A2.53 2.53 0 0 0 13 14.93Zm4.57 2.234c.169 0 .305.136.305.305V19.5a.305.305 0 0 1-.305.305h-2.459a3.138 3.138 0 0 1-2.111.812 3.138 3.138 0 0 1-2.111-.812h-2.46a.305.305 0 1 1 0-.61h2.58c.08 0 .157.032.214.087a2.53 2.53 0 0 0 1.777.726 2.53 2.53 0 0 0 1.777-.726.305.305 0 0 1 .213-.087h2.276V17.47c0-.169.136-.305.304-.305Z" clip-rule="evenodd"/>
</svg>