<svg xmlns="http://www.w3.org/2000/svg" width="119" height="119" fill="none" viewBox="0 0 119 119">
    <rect width="116" height="116" x="1.5" y="1.5" fill="#272727" rx="58"/>
    <rect width="116" height="116" x="1.5" y="1.5" stroke="#F2C247" stroke-width="3" rx="58"/>
    <g opacity=".9">
        <path fill="#F2C247" fill-rule="evenodd" d="M39.648 62.607a21.662 21.662 0 0 0 8.555 1.561c1.86 5.152 6.367 5.988 8.054 5.95.241-.006.45-.004.628-.002.348.004.585.006.744-.05.24-.085.414-.279.585-.469.214-.236.42-.466.737-.466h1.53c.317 0 .523.23.737.466.171.19.346.384.585.469.159.056.397.053.744.05.179-.002.387-.004.628.002 1.687.038 6.193-.798 8.053-5.946a21.609 21.609 0 0 0 8.565-1.748c-.507 11.68-4.463 24.042-20.077 24.042-15.532 0-19.529-12.234-20.069-23.859Z" clip-rule="evenodd"/>
        <path fill="#F2C247" d="M50.664 62.277c8.042-.998 9.52-5.992 8.592-8.517-.928-2.526-3.43-2.926-6.914-1.99-3.948 1.062-7.595 3.79-11.256 4.515-3.572.707-5.46 1.188-9.967-1.575 2.947 3.298 9.492 8.815 19.545 7.567Z"/>
        <path fill="#F2C247" d="M68.337 62.277c-8.043-.998-9.52-5.992-8.593-8.517.928-2.526 3.431-2.926 6.914-1.99 3.948 1.062 7.595 3.79 11.257 4.515 3.572.707 5.46 1.188 9.966-1.575-2.947 3.298-9.492 8.815-19.544 7.567Z"/>
        <path stroke="#EFEFEF" stroke-width="1.8" d="M59.155 39.427c1.761-.143 2.146 1.053 2.572 2.377.065.203.132.409.204.613 1.805 5.105 4.903 8.828 12.386 8.223 2.086-.172 5.015-1.048 6.197-2.136 1.393-1.282 1.82-3.586 2.216-5.724l.027-.148c.048-.258.084-.527.121-.798.073-.536.147-1.078.308-1.553m-24.031-.854 24.03.854m-24.03-.854c-1.352.11-1.631 1.043-2.06 2.479m2.06-2.48-2.06 2.48m26.09-1.625-.852-.288m.853.288-.853-.288m0 0a7.528 7.528 0 0 0-.29 1.312l-.06.435c-.035.257-.067.49-.11.728m.46-2.475c.15-.445.405-.825.603-1.114l.071-.104c.184-.267.326-.474.436-.702m-1.57 4.395-.024.127c-.197 1.062-.388 2.094-.687 3.023-.311.965-.709 1.72-1.257 2.224m1.967-5.374v.002l.885.162-.885-.164Zm-1.967 5.374c-.447.41-1.326.853-2.433 1.219-1.08.357-2.264.603-3.227.682m5.66-1.9.61.661-.61-.662Zm-5.66 1.9c-3.576.29-5.983-.46-7.7-1.785-1.74-1.342-2.89-3.362-3.766-5.84a21.068 21.068 0 0 1-.184-.553l-.012-.039c-.057-.177-.117-.363-.18-.544-.134-.385-.301-.807-.547-1.187a2.712 2.712 0 0 0-1.093-.996c-.49-.239-1.053-.32-1.68-.27h-.001c-.531.044-1.004.191-1.408.476-.4.283-.667.654-.862 1.035-.19.372-.33.79-.455 1.196-.045.144-.087.287-.13.43-.085.285-.171.574-.277.893-.673 2.03-1.612 3.75-2.965 5.007-1.338 1.243-3.14 2.088-5.647 2.28-1.502.116-3.175.02-4.655-.283-1.51-.31-2.685-.808-3.312-1.396-.582-.549-1.034-1.44-1.406-2.603-.347-1.084-.593-2.296-.84-3.517l-.05-.239c-.22-1.078-.494-1.583-.98-2.335l-.003-.004a6.614 6.614 0 0 1-.468-.845m38.62 11.12.073.895-.072-.896Zm-38.62-11.12-.188-.41c-.482-1.04-.865-1.867-.667-2.903m.855 3.313-.001-.003-.817.377.82-.371-.002-.003Zm-.855-3.313c6.594-1.005 12.493-.954 18.449.19.592.114 1.159.245 1.744.38.4.091.808.185 1.237.276 1.018.218 2.08.403 3.149.429 1.258.03 2.612-.196 3.884-.47.612-.133 1.22-.28 1.797-.419l.08-.019a54.573 54.573 0 0 1 1.705-.392m-32.045.025c-.189.029-.378.058-.569.089l-.142-.889m.711.8c.031-.161.076-.328.137-.5l-.848-.3m32.756.775c5.496-1.132 11.446-1.629 17.388-.427m-17.388.427-.182-.881.182.881Zm17.388-.427c.258 1.04-.126 1.895-.759 3.214m.758-3.214c.167.033.334.069.5.105l.193-.88-.836.335c.06.152.108.297.143.44Zm-.758 3.214.81.39-.81-.389v-.001ZM34.058 34.51c-.581 1.647.006 2.9.559 4.08.064.136.128.272.189.407.154.334.332.656.533.963m-1.281-5.45c6.915-1.11 13.088-1.093 19.33.107L35.339 39.96m0 0c.446.69.664 1.09.855 2.027l.05.251c.508 2.5 1.059 5.216 2.511 6.584L35.34 39.96Zm21.756 1.945c-.088.292-.181.605-.291.937l.29-.937Z"/>
    </g>
</svg>
