<svg xmlns="http://www.w3.org/2000/svg" width="26" height="26" fill="none" viewBox="0 0 26 26">
    <path fill="#EFEFEF" d="M23.36 13a.182.182 0 0 1-.144-.08.323.323 0 0 1-.06-.19v-1.084c0-.072.022-.14.06-.192.038-.05.09-.079.143-.079.054 0 .106.028.144.08.038.05.06.119.06.19v1.084c0 .072-.022.14-.06.192a.182.182 0 0 1-.144.079Z"/>
    <path fill="#EFEFEF" d="M24.037 11.781h-1.355a.313.313 0 0 1-.24-.119.45.45 0 0 1-.098-.287.45.45 0 0 1 .099-.287.313.313 0 0 1 .24-.12h1.354c.09 0 .175.044.239.12.063.076.099.18.099.287a.451.451 0 0 1-.1.287.313.313 0 0 1-.238.12ZM24.815 15.844h-1.49a.378.378 0 0 1-.263-.106.356.356 0 0 1-.109-.255v-.723h-1.862a.378.378 0 0 1-.263-.105.356.356 0 0 1 0-.511.378.378 0 0 1 .263-.106h2.235c.098 0 .193.038.263.106s.109.16.109.255v.723h.745v-1.084a.711.711 0 0 0-.218-.51.757.757 0 0 0-.527-.212H21.09a.379.379 0 0 1-.263-.106.356.356 0 0 1 0-.51.379.379 0 0 1 .263-.106h2.607c.395 0 .774.152 1.053.423.28.27.436.638.436 1.021v1.445c0 .095-.039.187-.109.255a.378.378 0 0 1-.263.106Z"/>
    <path fill="#F2C247" d="M16.656 4.17a21.489 21.489 0 0 0-9.343 0v14.814c1.53.346 3.098.52 4.671.516 1.574.003 3.142-.17 4.672-.517V4.17ZM3.356 5.77c-.28.158-.512.385-.673.657-.16.272-.246.58-.245.894v8.515c0 .313.084.621.245.893.161.272.393.5.673.658a14.67 14.67 0 0 0 1.925.894V4.875c-.663.252-1.307.55-1.925.894ZM20.613 5.769a14.684 14.684 0 0 0-1.925-.894v13.406c.663-.252 1.307-.55 1.925-.894.28-.159.512-.386.673-.658.16-.272.245-.58.245-.893V7.32c0-.313-.084-.621-.245-.894a1.831 1.831 0 0 0-.673-.657Z"/>
    <path fill="#141414" d="M11.983 15.031a48.49 48.49 0 0 1-4.347-.19.379.379 0 0 1-.242-.112.285.285 0 0 1-.08-.229.303.303 0 0 1 .13-.21.399.399 0 0 1 .264-.07c2.842.247 5.705.247 8.547 0a.411.411 0 0 1 .267.067.328.328 0 0 1 .09.094.282.282 0 0 1 .03.239.303.303 0 0 1-.067.108.355.355 0 0 1-.11.078.402.402 0 0 1-.135.035 48.49 48.49 0 0 1-4.347.19ZM16.277 8.935a32.921 32.921 0 0 0-8.564-.003.279.279 0 0 1-.14-.015.339.339 0 0 1-.126-.085.46.46 0 0 1-.09-.14.574.574 0 0 1-.03-.359.527.527 0 0 1 .067-.162.398.398 0 0 1 .109-.116.3.3 0 0 1 .135-.053 33.367 33.367 0 0 1 8.677 0 .334.334 0 0 1 .248.153.56.56 0 0 1 .093.338.536.536 0 0 1-.118.324.313.313 0 0 1-.259.12l-.002-.002ZM18.606 14.625a.33.33 0 0 1-.22-.084.31.31 0 0 1-.037-.426.326.326 0 0 1 .203-.118c.364-.06.683-.12.962-.178a.332.332 0 0 1 .245.045.316.316 0 0 1 .14.2.308.308 0 0 1-.045.237.325.325 0 0 1-.206.137c-.285.059-.614.12-.987.183a.37.37 0 0 1-.055.004ZM19.582 9.344a.355.355 0 0 1-.068-.007 24.441 24.441 0 0 0-.962-.178.326.326 0 0 1-.21-.129.31.31 0 0 1 .076-.44.332.332 0 0 1 .243-.054c.373.063.702.124.988.182.078.017.148.06.195.124a.31.31 0 0 1-.045.42.33.33 0 0 1-.217.082ZM5.363 14.625a.37.37 0 0 1-.055-.004 28.957 28.957 0 0 1-.988-.183.325.325 0 0 1-.205-.137.309.309 0 0 1 .095-.437.333.333 0 0 1 .245-.045c.278.058.598.118.962.178.08.014.152.056.202.118a.31.31 0 0 1-.036.426.33.33 0 0 1-.22.084ZM4.384 9.344a.326.326 0 0 1-.215-.082.313.313 0 0 1-.045-.419.323.323 0 0 1 .194-.123c.283-.058.609-.12.98-.182a.33.33 0 0 1 .338.138.31.31 0 0 1-.109.443.327.327 0 0 1-.123.04c-.36.06-.676.12-.953.177a.35.35 0 0 1-.067.008Z"/>
    <path fill="#EFEFEF" d="M16.25 19.5a.434.434 0 0 1-.287-.105.34.34 0 0 1-.12-.255V4.016a.34.34 0 0 1 .12-.254.434.434 0 0 1 .287-.106c.108 0 .211.038.287.106a.34.34 0 0 1 .12.254V19.14a.34.34 0 0 1-.12.255.434.434 0 0 1-.287.105ZM7.719 19.5a.434.434 0 0 1-.288-.105.34.34 0 0 1-.119-.255V4.016a.34.34 0 0 1 .12-.254.434.434 0 0 1 .287-.106c.107 0 .21.038.287.106a.34.34 0 0 1 .119.254V19.14a.34.34 0 0 1-.119.255.434.434 0 0 1-.287.105ZM18.688 18.688a.43.43 0 0 1-.288-.108.349.349 0 0 1-.119-.258V4.428c0-.097.043-.19.12-.258a.43.43 0 0 1 .287-.107.43.43 0 0 1 .287.107.348.348 0 0 1 .119.258v13.894c0 .097-.043.19-.12.258a.43.43 0 0 1-.287.108ZM5.281 18.688a.43.43 0 0 1-.287-.108.348.348 0 0 1-.119-.258V4.428c0-.097.043-.19.119-.258a.43.43 0 0 1 .287-.107.43.43 0 0 1 .288.107.348.348 0 0 1 .119.258v13.894c0 .097-.043.19-.12.258a.43.43 0 0 1-.287.108Z"/>
    <path fill="#EFEFEF" d="M19.95 22.344h-3.62a.36.36 0 0 1-.363-.366c0-.29-.114-.57-.318-.776a1.081 1.081 0 0 0-.768-.32H9.088c-.288 0-.565.115-.768.32a1.102 1.102 0 0 0-.319.776c0 .097-.038.19-.106.259a.36.36 0 0 1-.256.107H4.02a.36.36 0 0 1-.257-.107.368.368 0 0 1-.106-.259v-2.925c0-.097.038-.19.106-.258a.36.36 0 0 1 .618.258v2.56h2.933c.084-.413.307-.784.63-1.05a1.803 1.803 0 0 1 1.145-.413h5.793c.417 0 .822.146 1.145.413.323.266.545.637.63 1.05h2.932v-2.56c0-.097.038-.19.106-.258a.36.36 0 0 1 .619.258v2.925c0 .097-.039.19-.107.259a.36.36 0 0 1-.256.107Z"/>
</svg>
