<svg xmlns="http://www.w3.org/2000/svg" width="119" height="119" fill="none" viewBox="0 0 119 119">
    <path fill="#F2C247" fill-rule="evenodd" d="M29.87 54.638c.805 17.35 6.77 35.61 29.952 35.61 23.305 0 29.21-18.452 29.966-35.884-3.607 1.546-7.87 2.605-12.784 2.61-2.776 7.683-9.502 8.93-12.019 8.873a27.34 27.34 0 0 0-.938-.002c-.895.01-1.303.013-1.455-.43-.186-.539-.542-1.04-1.112-1.04h-3.315c-.57 0-.927.501-1.112 1.04-.152.443-.56.44-1.456.43a27.34 27.34 0 0 0-.937.002c-2.518.058-9.246-1.19-12.021-8.88-4.887.088-9.145-.869-12.77-2.33Z" clip-rule="evenodd"/>
    <path fill="#F2C247" d="M46.311 54.145c12.004-1.49 14.209-8.944 12.825-12.713-1.385-3.77-5.121-4.366-10.32-2.969-5.893 1.585-11.336 5.657-16.8 6.738-5.332 1.055-8.15 1.774-14.875-2.35 4.397 4.922 14.166 13.156 29.17 11.294Z"/>
    <path fill="#F2C247" d="M72.689 54.145c-12.004-1.49-14.21-8.944-12.825-12.713 1.385-3.77 5.12-4.366 10.319-2.969 5.893 1.585 11.336 5.657 16.801 6.738 5.332 1.055 8.149 1.774 14.875-2.35-4.398 4.922-14.166 13.156-29.17 11.294Z"/>
    <path stroke="#EFEFEF" stroke-width="1.8" d="M63.977 24.203c1.32 3.736 3.074 6.843 5.766 8.92 2.67 2.06 6.38 3.194 11.799 2.757 1.477-.122 3.278-.498 4.92-1.04 1.67-.551 3.055-1.235 3.793-1.914.9-.828 1.523-2.037 1.998-3.51.455-1.414.745-2.98 1.037-4.556l.037-.2c.067-.366.117-.731.17-1.121.028-.203.056-.412.088-.631.09-.611.206-1.267.414-1.88v-.001l.852.288c.177-.522.504-.997.841-1.487.268-.388.542-.786.754-1.226l-32.47 5.601Zm0 0a31.329 31.329 0 0 1-.28-.837l-.017-.056a36.572 36.572 0 0 0-.266-.803c-.196-.565-.432-1.156-.77-1.677-.344-.533-.805-1.013-1.453-1.328-.645-.314-1.4-.43-2.279-.36-.732.06-1.357.26-1.882.631-.522.368-.878.857-1.147 1.384-.265.517-.465 1.11-.65 1.714a76.32 76.32 0 0 0-.19.629c-.129.429-.261.872-.422 1.354v.001c-1.017 3.072-2.45 5.714-4.543 7.657-2.078 1.93-4.864 3.227-8.697 3.522-2.28.175-4.82.03-7.07-.431-2.282-.468-4.132-1.233-5.157-2.195-.952-.897-1.656-2.313-2.219-4.074-.525-1.64-.896-3.473-1.265-5.288l-.074-.363v-.001c-.314-1.538-.696-2.242-1.402-3.333l-.002-.004c-.275-.421-.52-.862-.73-1.319-.095-.209-.19-.413-.284-.614-.76-1.636-1.424-3.064-.956-4.908 10.006-1.554 18.95-1.495 27.985.242.887.17 1.75.369 2.633.572.596.136 1.2.275 1.826.409 1.51.322 3.064.591 4.618.63 1.824.043 3.802-.285 5.692-.693.909-.196 1.81-.413 2.674-.622l.117-.028c.903-.218 1.76-.423 2.56-.589 8.318-1.712 17.36-2.462 26.395-.583.572 1.856-.098 3.308-1.088 5.37l-31.657 5.991Z"/>
</svg>
