<svg xmlns="http://www.w3.org/2000/svg" width="101" height="100" fill="none" viewBox="0 0 101 100">
    <path fill="#EFEFEF" d="M84.354 90.625H16.646a6.817 6.817 0 0 1-4.786-1.964 6.668 6.668 0 0 1-1.985-4.732V35.714c0-.355.143-.696.397-.947a1.362 1.362 0 0 1 1.915 0c.254.251.396.592.396.947V83.93c0 1.065.428 2.087 1.19 2.84a4.086 4.086 0 0 0 2.873 1.177h67.708c1.078 0 2.11-.423 2.873-1.176a3.996 3.996 0 0 0 1.19-2.841V35.714c0-.355.142-.696.396-.947a1.362 1.362 0 0 1 1.915 0c.254.251.397.592.397.947V83.93a6.668 6.668 0 0 1-1.986 4.732 6.817 6.817 0 0 1-4.785 1.964Z"/>
    <path fill="#F2C247" d="M84.354 14.063h-9.479v7.161a2.95 2.95 0 0 1-.793 2.026 2.635 2.635 0 0 1-1.915.838 2.636 2.636 0 0 1-1.915-.838 2.95 2.95 0 0 1-.794-2.026v-7.162H31.542v7.162a2.95 2.95 0 0 1-.794 2.026 2.636 2.636 0 0 1-1.915.838 2.635 2.635 0 0 1-1.915-.838 2.95 2.95 0 0 1-.793-2.026v-7.162h-9.48c-1.794.003-3.515.758-4.784 2.1-1.27 1.343-1.984 3.163-1.986 5.062v8.594c0 .38.143.744.397 1.012.254.27.598.42.957.42h78.542c.359 0 .703-.15.957-.42.254-.268.397-.632.397-1.012v-8.594c-.002-1.899-.716-3.719-1.986-5.061-1.269-1.343-2.99-2.098-4.785-2.1Z"/>
    <path fill="#EFEFEF" d="M29.406 25a3.906 3.906 0 0 1-3.906-3.906V13.28a3.906 3.906 0 1 1 7.813 0v7.813A3.906 3.906 0 0 1 29.405 25Zm0-13.02a1.302 1.302 0 0 0-1.302 1.301v7.813a1.302 1.302 0 0 0 2.604 0V13.28a1.302 1.302 0 0 0-1.302-1.302ZM71.594 25a3.906 3.906 0 0 1-3.906-3.906V13.28a3.906 3.906 0 0 1 7.812 0v7.813A3.906 3.906 0 0 1 71.594 25Zm0-13.02a1.302 1.302 0 0 0-1.302 1.301v7.813a1.302 1.302 0 1 0 2.604 0V13.28a1.302 1.302 0 0 0-1.302-1.302ZM68.469 76.563h-5.625c-.373 0-.73-.14-.995-.39a1.292 1.292 0 0 1-.411-.939c0-.352.148-.69.411-.939a1.45 1.45 0 0 1 .995-.389h5.625c1.119 0 2.192-.42 2.983-1.167a3.876 3.876 0 0 0 1.236-2.817V56.64c0-1.057-.445-2.07-1.236-2.818a4.348 4.348 0 0 0-2.983-1.167h-5.625c-.373 0-.73-.14-.995-.389a1.292 1.292 0 0 1-.411-.939c0-.352.148-.69.411-.939a1.45 1.45 0 0 1 .995-.389h5.625c1.864.002 3.651.702 4.97 1.947 1.317 1.245 2.059 2.933 2.061 4.694v13.28c-.002 1.761-.744 3.45-2.062 4.694-1.318 1.245-3.105 1.945-4.97 1.948Z"/>
    <path fill="#EFEFEF" d="M67.948 71.875H62.74c-.346 0-.677-.15-.921-.42a1.508 1.508 0 0 1-.382-1.012c0-.38.138-.745.382-1.013.244-.269.575-.42.92-.42h3.907V57.552H62.74c-.346 0-.677-.15-.921-.42a1.508 1.508 0 0 1-.382-1.012c0-.38.138-.744.382-1.013.244-.269.575-.42.92-.42h5.209c.345 0 .676.151.92.42.245.269.382.633.382 1.013v14.323c0 .38-.137.744-.381 1.013-.245.268-.576.419-.921.419Z"/>
    <path fill="#EFEFEF" d="M63 54.688a1.563 1.563 0 0 1-1.563-1.563v-4.688a1.563 1.563 0 0 1 3.126 0v4.688A1.563 1.563 0 0 1 63 54.688ZM35.656 54.688c-.207 0-.406-.165-.552-.458-.147-.293-.229-.69-.229-1.105v-4.688c0-.414.082-.811.229-1.104.146-.293.345-.458.552-.458.208 0 .406.165.553.458.146.293.228.69.228 1.105v4.687c0 .414-.082.812-.228 1.105-.147.293-.346.458-.553.458Z"/>
    <path fill="#F2C247" d="M57.815 53.125c0 .725-.284 1.42-.79 1.934-.506.512-1.193.8-1.908.8a2.681 2.681 0 0 1-1.909-.8 2.753 2.753 0 0 1-.79-1.934H34.875v28.71a4.13 4.13 0 0 0 1.186 2.901 4.022 4.022 0 0 0 2.862 1.201h21.591a4.022 4.022 0 0 0 2.863-1.2 4.13 4.13 0 0 0 1.185-2.901V53.125h-6.747Z"/>
    <path fill="#EFEFEF" d="M55.117 56.25c-1.074 0-2.104-.384-2.863-1.068-.76-.684-1.186-1.61-1.186-2.578v-3.646c0-.322-.142-.631-.395-.859a1.428 1.428 0 0 0-.954-.356H38.923c-.358 0-.7.128-.954.356a1.157 1.157 0 0 0-.395.86c0 .322-.142.63-.395.859a1.429 1.429 0 0 1-.955.356c-.357 0-.7-.128-.954-.356a1.158 1.158 0 0 1-.395-.86c0-.967.426-1.894 1.186-2.578.759-.683 1.789-1.068 2.862-1.068H49.72c1.073 0 2.103.385 2.862 1.068.76.684 1.186 1.611 1.186 2.578v3.646c0 .322.142.632.395.86.253.227.597.355.955.355.357 0 .7-.128.954-.355.253-.228.395-.538.395-.86v-3.646c0-.967.426-1.894 1.186-2.578.759-.683 1.788-1.068 2.862-1.068s2.104.385 2.863 1.068c.759.684 1.185 1.611 1.185 2.578 0 .323-.142.632-.395.86a1.429 1.429 0 0 1-.954.356c-.358 0-.701-.128-.954-.356a1.157 1.157 0 0 1-.395-.86c0-.322-.142-.631-.396-.859a1.429 1.429 0 0 0-.954-.356c-.358 0-.7.128-.954.356a1.157 1.157 0 0 0-.395.86v3.645c0 .967-.427 1.894-1.186 2.578-.76.684-1.789 1.068-2.862 1.068ZM37.825 42.188a1.3 1.3 0 0 1-.556-.124 1.436 1.436 0 0 1-.736-.81 1.548 1.548 0 0 1 .021-1.125 5.976 5.976 0 0 1 2.587-2.928 5.49 5.49 0 0 1 3.747-.598 6.877 6.877 0 0 1 2.06-2.51 6.391 6.391 0 0 1 2.924-1.218 6.257 6.257 0 0 1 3.126.353 6.582 6.582 0 0 1 2.615 1.843 5.442 5.442 0 0 1 2.737-.381c.928.11 1.816.46 2.587 1.016a5.961 5.961 0 0 1 1.839 2.178c.435.874.662 1.847.661 2.834 0 .39-.146.764-.406 1.04-.26.275-.614.43-.983.43-.368 0-.721-.155-.982-.43a1.513 1.513 0 0 1-.406-1.04c-.001-.829-.313-1.623-.867-2.21a2.88 2.88 0 0 0-2.09-.916c-.605 0-1.195.2-1.688.57a1.35 1.35 0 0 1-.52.237c-.186.041-.378.04-.564 0a1.353 1.353 0 0 1-.519-.24 1.44 1.44 0 0 1-.385-.438 3.903 3.903 0 0 0-1.64-1.577 3.631 3.631 0 0 0-2.193-.347 3.731 3.731 0 0 0-2.006 1 4.086 4.086 0 0 0-1.14 2.011c-.051.213-.146.41-.278.578a1.401 1.401 0 0 1-.485.396 1.325 1.325 0 0 1-1.196-.014 2.784 2.784 0 0 0-2.308-.136 2.91 2.91 0 0 0-1.004.654c-.29.288-.52.635-.68 1.02a1.451 1.451 0 0 1-.512.641c-.226.157-.49.24-.76.24Z"/>
    <path fill="#EFEFEF" d="M55.117 56.25c-1.074 0-2.104-.384-2.863-1.068-.76-.684-1.186-1.61-1.186-2.578v-3.646c0-.322-.142-.631-.395-.859a1.428 1.428 0 0 0-.954-.356H38.923c-.358 0-.7.128-.954.356a1.157 1.157 0 0 0-.395.86c0 .322-.142.63-.395.859a1.429 1.429 0 0 1-.955.356c-.357 0-.7-.128-.954-.356a1.158 1.158 0 0 1-.395-.86c0-.967.426-1.894 1.186-2.578.759-.683 1.789-1.068 2.862-1.068H49.72c1.073 0 2.103.385 2.862 1.068.76.684 1.186 1.611 1.186 2.578v3.646c0 .322.142.632.395.86.253.227.597.355.955.355.357 0 .7-.128.954-.355.253-.228.395-.538.395-.86v-3.646c0-.967.426-1.894 1.186-2.578.759-.683 1.788-1.068 2.862-1.068s2.104.385 2.863 1.068c.759.684 1.185 1.611 1.185 2.578 0 .323-.142.632-.395.86a1.429 1.429 0 0 1-.954.356c-.358 0-.701-.128-.954-.356a1.157 1.157 0 0 1-.395-.86c0-.322-.142-.631-.396-.859a1.429 1.429 0 0 0-.954-.356c-.358 0-.7.128-.954.356a1.157 1.157 0 0 0-.395.86v3.645c0 .967-.427 1.894-1.186 2.578-.76.684-1.789 1.068-2.862 1.068Z"/>
    <path fill="#141414" d="M56.75 78.125c-.414 0-.812-.141-1.105-.392a1.25 1.25 0 0 1-.458-.947V60.714c0-.355.165-.696.458-.947.293-.25.69-.392 1.105-.392.414 0 .812.141 1.105.392.293.251.458.592.458.947v16.072c0 .355-.165.696-.458.947-.293.25-.69.392-1.105.392ZM48.938 78.125c-.415 0-.812-.141-1.105-.392a1.25 1.25 0 0 1-.458-.947V60.714c0-.355.165-.696.458-.947.293-.25.69-.392 1.105-.392.414 0 .811.141 1.104.392.293.251.458.592.458.947v16.072c0 .355-.165.696-.458.947-.293.25-.69.392-1.105.392ZM41.125 78.125c-.414 0-.812-.141-1.105-.392a1.25 1.25 0 0 1-.458-.947V60.714c0-.355.165-.696.458-.947.293-.25.69-.392 1.105-.392.414 0 .812.141 1.105.392.293.251.458.592.458.947v16.072c0 .355-.165.696-.458.947-.293.25-.69.392-1.105.392Z"/>
</svg>