<svg xmlns="http://www.w3.org/2000/svg" width="119" height="119" fill="none" viewBox="0 0 119 119">
    <path fill="#EFEFEF" d="M25.125 84.5h-6.25a7.822 7.822 0 0 1-7.813-7.813V61.063a7.822 7.822 0 0 1 7.813-7.813h6.25a1.563 1.563 0 0 1 0 3.125h-6.25a4.688 4.688 0 0 0-4.688 4.688v15.624a4.688 4.688 0 0 0 4.688 4.688h6.25a1.563 1.563 0 0 1 0 3.125Z"/>
    <path fill="#EFEFEF" d="M25.125 78.25h-6.25a1.563 1.563 0 0 1-1.563-1.563V61.063a1.563 1.563 0 0 1 1.563-1.563h6.25a1.563 1.563 0 0 1 0 3.125h-4.688v12.5h4.688a1.563 1.563 0 0 1 0 3.125ZM56.375 57.938a1.563 1.563 0 0 1-1.563-1.563v-4.688a1.563 1.563 0 0 1 3.126 0v4.688a1.563 1.563 0 0 1-1.563 1.563ZM25.125 57.938a1.563 1.563 0 0 1-1.563-1.563v-4.688a1.563 1.563 0 0 1 3.125 0v4.688a1.563 1.563 0 0 1-1.562 1.563Z"/>
    <path fill="#F2C247" d="M50.125 56.375a3.125 3.125 0 1 1-6.25 0H23.562v32.813a4.688 4.688 0 0 0 4.688 4.687h25a4.688 4.688 0 0 0 4.688-4.688V56.376h-7.813Z"/>
    <path fill="#141414" d="M50.125 86.063a1.563 1.563 0 0 1-1.563-1.563V65.75a1.563 1.563 0 0 1 3.126 0V84.5a1.563 1.563 0 0 1-1.563 1.563ZM40.75 86.063a1.563 1.563 0 0 1-1.563-1.563V65.75a1.563 1.563 0 0 1 3.126 0V84.5a1.563 1.563 0 0 1-1.563 1.563ZM31.375 86.063a1.563 1.563 0 0 1-1.563-1.563V65.75a1.563 1.563 0 0 1 3.125 0V84.5a1.563 1.563 0 0 1-1.562 1.563Z"/>
    <path fill="#EFEFEF" d="M100.125 93.875h-6.25a1.563 1.563 0 0 1 0-3.125h6.25a4.687 4.687 0 0 0 4.687-4.688V70.439a4.687 4.687 0 0 0-4.687-4.688h-6.25a1.563 1.563 0 0 1 0-3.125h6.25a7.824 7.824 0 0 1 7.813 7.813v15.624a7.824 7.824 0 0 1-7.813 7.813Z"/>
    <path fill="#EFEFEF" d="M100.125 87.625h-6.25a1.563 1.563 0 0 1 0-3.125h4.688V72h-4.688a1.563 1.563 0 0 1 0-3.125h6.25a1.564 1.564 0 0 1 1.563 1.563v15.624a1.563 1.563 0 0 1-1.563 1.563ZM93.875 67.313a1.563 1.563 0 0 1-1.563-1.563v-4.688a1.563 1.563 0 0 1 3.126 0v4.688a1.563 1.563 0 0 1-1.563 1.563ZM62.625 67.313a1.563 1.563 0 0 1-1.563-1.563v-4.688a1.563 1.563 0 0 1 3.126 0v4.688a1.563 1.563 0 0 1-1.563 1.563Z"/>
    <path fill="#F2C247" d="M87.625 65.75a3.125 3.125 0 1 1-6.25 0H61.062v32.813a4.688 4.688 0 0 0 4.688 4.687h25a4.688 4.688 0 0 0 4.688-4.688V65.75h-7.813Z"/>
    <path fill="#EFEFEF" d="M84.5 70.438a4.688 4.688 0 0 1-4.688-4.688v-4.688A1.563 1.563 0 0 0 78.25 59.5h-12.5a1.563 1.563 0 0 0-1.563 1.563 1.563 1.563 0 0 1-3.124 0 4.688 4.688 0 0 1 4.687-4.688h12.5a4.688 4.688 0 0 1 4.688 4.688v4.687a1.563 1.563 0 0 0 3.124 0v-4.688a4.688 4.688 0 0 1 9.376 0 1.563 1.563 0 0 1-3.126 0 1.563 1.563 0 0 0-3.124 0v4.688a4.688 4.688 0 0 1-4.688 4.688ZM53.25 43.875a1.563 1.563 0 0 1-1.431-.937 3.299 3.299 0 0 0-4.496-1.643 1.562 1.562 0 0 1-2.198-1.014 4.294 4.294 0 0 0-7.847-1.154 1.562 1.562 0 0 1-2.236.468 3.289 3.289 0 0 0-1.9-.606 3.328 3.328 0 0 0-3.33 3.324 1.562 1.562 0 1 1-3.125 0 6.447 6.447 0 0 1 8.804-6.004 7.42 7.42 0 0 1 12.065 1.629 6.487 6.487 0 0 1 7.125 3.75 1.563 1.563 0 0 1-1.431 2.187ZM47 61.063a4.688 4.688 0 0 1-4.688-4.688v-4.688a1.563 1.563 0 0 0-1.562-1.562h-12.5a1.563 1.563 0 0 0-1.563 1.563 1.563 1.563 0 0 1-3.125 0A4.688 4.688 0 0 1 28.25 47h12.5a4.688 4.688 0 0 1 4.688 4.688v4.687a1.563 1.563 0 0 0 3.124 0v-4.688a4.688 4.688 0 0 1 9.376 0 1.563 1.563 0 0 1-3.126 0 1.563 1.563 0 0 0-3.124 0v4.688A4.688 4.688 0 0 1 47 61.063ZM65.75 53.25a1.563 1.563 0 0 1-1.43-2.189 6.483 6.483 0 0 1 7.126-3.75 7.418 7.418 0 0 1 12.065-1.63 6.446 6.446 0 0 1 8.802 6.006 1.563 1.563 0 1 1-3.125 0 3.328 3.328 0 0 0-3.325-3.325 3.29 3.29 0 0 0-1.9.607 1.553 1.553 0 0 1-1.22.25 1.563 1.563 0 0 1-1.016-.722 4.294 4.294 0 0 0-7.852 1.16 1.561 1.561 0 0 1-2.203 1.02 3.298 3.298 0 0 0-4.49 1.635 1.562 1.562 0 0 1-1.432.938Z"/>
    <path fill="#EFEFEF" d="M84.5 70.438a4.688 4.688 0 0 1-4.688-4.688v-4.688A1.563 1.563 0 0 0 78.25 59.5h-12.5a1.563 1.563 0 0 0-1.563 1.563 1.563 1.563 0 0 1-3.124 0 4.688 4.688 0 0 1 4.687-4.688h12.5a4.688 4.688 0 0 1 4.688 4.688v4.687a1.563 1.563 0 0 0 3.124 0v-4.688a4.688 4.688 0 0 1 9.376 0 1.563 1.563 0 0 1-3.126 0 1.563 1.563 0 0 0-3.124 0v4.688a4.688 4.688 0 0 1-4.688 4.688Z"/>
    <path fill="#141414" d="M87.625 95.438a1.563 1.563 0 0 1-1.563-1.563v-18.75a1.563 1.563 0 0 1 3.126 0v18.75a1.563 1.563 0 0 1-1.563 1.563ZM78.25 95.438a1.563 1.563 0 0 1-1.563-1.563v-18.75a1.563 1.563 0 0 1 3.126 0v18.75a1.563 1.563 0 0 1-1.563 1.563ZM68.875 95.438a1.563 1.563 0 0 1-1.563-1.563v-18.75a1.563 1.563 0 0 1 3.126 0v18.75a1.563 1.563 0 0 1-1.563 1.563Z"/>
    <path fill="#EFEFEF" d="M65.75 40.75a4.687 4.687 0 1 1 0-9.374 4.687 4.687 0 0 1 0 9.374Zm0-6.25a1.563 1.563 0 1 0 0 3.125 1.563 1.563 0 0 0 0-3.125ZM75.125 25.125a4.687 4.687 0 1 1 0-9.374 4.687 4.687 0 0 1 0 9.374Zm0-6.25a1.563 1.563 0 1 0 0 3.125 1.563 1.563 0 0 0 0-3.125ZM52.469 29.813a5.469 5.469 0 1 1 0-10.938 5.469 5.469 0 0 1 0 10.938Zm0-7.813a2.344 2.344 0 1 0 0 4.689 2.344 2.344 0 0 0 0-4.689Z"/>
</svg>
