<svg xmlns="http://www.w3.org/2000/svg" width="26" height="26" fill="none" class="iconPrimary" viewBox="0 0 26 26">
    <path fill="currentColor" d="M2.824 21.938a54.641 54.641 0 0 0-.282 2.843h8.372c.27-.846.551-1.808.818-2.843H2.824ZM21.531.813h-2.437a2.033 2.033 0 0 0-2.032 2.03v21.938a.406.406 0 0 0 .407.407h5.687a.406.406 0 0 0 .407-.407V2.844A2.034 2.034 0 0 0 21.53.813ZM9.75 1.219a1.445 1.445 0 0 0-1.435 1.614l.622 5.292h1.625l.623-5.292A1.446 1.446 0 0 0 9.75 1.219Z"/>
    <path fill="#EFEFEF" d="M15.844 13h-9.75a1.219 1.219 0 0 1-1.219-1.219v-1.219a1.219 1.219 0 0 1 1.219-1.218h2.031a.406.406 0 1 1 0 .812H6.094a.407.407 0 0 0-.407.406v1.22a.406.406 0 0 0 .407.405h9.75a.406.406 0 0 1 0 .813Z"/>
    <path fill="#EFEFEF" d="M15.844 10.156H9.75a.407.407 0 0 1 0-.812h6.094a.406.406 0 0 1 0 .812Z"/>
    <path fill="#EFEFEF" d="M11.375 10.156a.407.407 0 0 1-.406-.406v-.813a.407.407 0 0 0-.406-.406H8.937a.406.406 0 0 0-.406.406v.813a.406.406 0 0 1-.812 0v-.813A1.219 1.219 0 0 1 8.937 7.72h1.626a1.219 1.219 0 0 1 1.218 1.218v.813a.407.407 0 0 1-.406.406ZM10.563 17.469H8.938a.406.406 0 0 1-.407-.37l-.406-4.469a.408.408 0 1 1 .813-.073l.37 4.1h.884l.37-4.1a.407.407 0 0 1 .596-.324.407.407 0 0 1 .217.397l-.406 4.47a.406.406 0 0 1-.406.369ZM10.914 25.188a.406.406 0 0 1-.387-.528 50.394 50.394 0 0 0 1.119-4.081.409.409 0 0 0-.313-.494L4.19 18.592a.395.395 0 0 0-.306.06.41.41 0 0 0-.178.267 52.5 52.5 0 0 0-.76 5.89.406.406 0 1 1-.81-.058c.144-2.007.402-4.004.772-5.982a1.222 1.222 0 0 1 1.45-.97l7.14 1.492a1.223 1.223 0 0 1 .938 1.469 51.649 51.649 0 0 1-1.137 4.143.406.406 0 0 1-.386.285Z"/>
</svg>
