<svg xmlns="http://www.w3.org/2000/svg" width="64" height="64" fill="none" viewBox="0 0 64 64">
    <path fill="#EFEFEF" d="M14.047 22a1.03 1.03 0 0 1-.655-.228.794.794 0 0 1-.297-.56A60.477 60.477 0 0 1 13 17.833c0-.22.1-.433.279-.589.178-.156.42-.244.673-.244.252 0 .494.088.673.244a.785.785 0 0 1 .278.59c0 1.127.034 2.233.095 3.286a.772.772 0 0 1-.24.602 1.01 1.01 0 0 1-.711.277ZM40.953 22a1.062 1.062 0 0 1-.412-.08.952.952 0 0 1-.298-.196.82.82 0 0 1-.189-.28.74.74 0 0 1-.053-.322c.066-1.054.096-2.16.096-3.288 0-.222.1-.434.278-.59.179-.156.42-.244.673-.244.253 0 .495.088.673.244a.785.785 0 0 1 .279.59c0 1.158-.034 2.295-.1 3.38a.794.794 0 0 1-.296.557 1.028 1.028 0 0 1-.65.228Z"/>
    <path fill="#F2C247" d="M41.994 25.002a.893.893 0 0 0-.525-.923.903.903 0 0 0-.37-.079h-3.196c-.045.309-.13.61-.252.897a1.792 1.792 0 0 1-1.851.874 1.755 1.755 0 0 1-1.228-.874 3.387 3.387 0 0 1-.27-.897H14.9a.903.903 0 0 0-.859.628.893.893 0 0 0-.035.374 51.1 51.1 0 0 0 2.782 11.562c.35 0 .659-.008.944-.026l.005.026h4.411c.597 0 1.17.236 1.592.657a2.24 2.24 0 0 1 0 3.173c-.422.42-.995.657-1.592.657.597 0 1.17.237 1.592.657a2.24 2.24 0 0 1 0 3.173c-.422.421-.995.657-1.592.657.597 0 1.17.237 1.592.658a2.24 2.24 0 0 1 0 3.172c-.422.421-.995.658-1.592.658h-1.08a1.938 1.938 0 0 0-1.364 0h-.034v.009a5.558 5.558 0 0 1-.927.18 44.976 44.976 0 0 1-.921 5.473 2.684 2.684 0 0 0 1.45 3.042c.366.178.768.27 1.176.27h15.104a2.707 2.707 0 0 0 2.117-1.02 2.69 2.69 0 0 0 .512-2.287 44.912 44.912 0 0 1-1.178-10.154c0-2.716.829-5.063 1.79-7.78a.876.876 0 0 0 .044-.29 8.204 8.204 0 0 1-.894-.008h-4.541a2.705 2.705 0 0 1-1.91-.788 2.688 2.688 0 0 1 0-3.808 2.705 2.705 0 0 1 1.91-.788h6.29l.016-.063c.276.032.575.05.915.056a48.503 48.503 0 0 0 1.37-7.068Z"/>
    <path fill="#EFEFEF" d="M15.905 13a.905.905 0 0 1-.843-.565.873.873 0 0 1 .014-.68 5.363 5.363 0 0 1 2.004-2.327 5.517 5.517 0 0 1 2.976-.872c.485 0 .967.066 1.433.197a6.232 6.232 0 0 1 1.98-2.484 6.405 6.405 0 0 1 2.97-1.21 6.453 6.453 0 0 1 3.194.375 6.332 6.332 0 0 1 2.594 1.864 5.5 5.5 0 0 1 6.178 1.044A5.287 5.287 0 0 1 40 12.111a.88.88 0 0 1-.266.628.916.916 0 0 1-1.282 0 .88.88 0 0 1-.265-.629 3.495 3.495 0 0 0-.523-1.845 3.59 3.59 0 0 0-1.426-1.31 3.678 3.678 0 0 0-3.753.248.915.915 0 0 1-.707.142.916.916 0 0 1-.59-.41 4.494 4.494 0 0 0-1.944-1.729 4.605 4.605 0 0 0-2.596-.38 4.563 4.563 0 0 0-2.375 1.099 4.421 4.421 0 0 0-1.353 2.206.884.884 0 0 1-.498.588.923.923 0 0 1-.78-.009 3.679 3.679 0 0 0-4.068.597 3.55 3.55 0 0 0-.838 1.159.894.894 0 0 1-.334.388.919.919 0 0 1-.497.145ZM41.167 18a.883.883 0 0 1-.59-.22.714.714 0 0 1-.244-.53.714.714 0 0 0-.244-.53.883.883 0 0 0-.589-.22h-.142a.733.733 0 0 0-.488.183.593.593 0 0 0-.203.44c0 .198-.088.39-.244.53a.883.883 0 0 1-.59.22.882.882 0 0 1-.589-.22.714.714 0 0 1-.244-.53c0-.563.25-1.103.692-1.5A2.501 2.501 0 0 1 39.358 15h.142c.663 0 1.299.237 1.768.659.469.422.732.994.732 1.591 0 .199-.088.39-.244.53a.882.882 0 0 1-.59.22ZM27.667 21h-.197a3.853 3.853 0 0 1-2.498-1.14A3.376 3.376 0 0 1 24 17.426a.69.69 0 0 0-.223-.503.789.789 0 0 0-.538-.209H15.75a.95.95 0 0 0-.648.251.83.83 0 0 0-.269.606.83.83 0 0 1-.268.606.95.95 0 0 1-.648.252.95.95 0 0 1-.649-.252.83.83 0 0 1-.268-.606c0-.682.29-1.336.806-1.818A2.85 2.85 0 0 1 15.75 15h7.49c.687 0 1.346.257 1.832.711.487.455.76 1.072.761 1.715-.014.457.156.902.477 1.247.322.345.77.564 1.257.613a1.95 1.95 0 0 0 .732-.103c.234-.08.448-.205.63-.365.18-.16.324-.354.423-.568.098-.215.148-.445.148-.679 0-.682.29-1.336.805-1.818A2.85 2.85 0 0 1 32.25 15c.73 0 1.429.27 1.944.753A2.49 2.49 0 0 1 35 17.571a.83.83 0 0 1-.269.606.95.95 0 0 1-.648.252.95.95 0 0 1-.648-.252.83.83 0 0 1-.268-.606.83.83 0 0 0-.269-.606.95.95 0 0 0-.648-.25.95.95 0 0 0-.648.25.83.83 0 0 0-.269.606 3.252 3.252 0 0 1-.299 1.353 3.45 3.45 0 0 1-.843 1.133 3.776 3.776 0 0 1-2.524.943ZM21.792 42h-4.584c-.85 0-1.667-.316-2.268-.879A2.905 2.905 0 0 1 14 39c0-.796.338-1.559.94-2.121A3.325 3.325 0 0 1 17.208 36h4.584c.85 0 1.667.316 2.268.879.602.562.94 1.325.94 2.121s-.338 1.559-.94 2.121a3.325 3.325 0 0 1-2.268.879Zm-4.584-4.286c-.364 0-.714.136-.972.377a1.245 1.245 0 0 0-.403.909c0 .341.145.668.403.91.258.24.608.376.972.376h4.584c.364 0 .714-.136.972-.377s.403-.568.403-.909c0-.341-.145-.668-.403-.91a1.424 1.424 0 0 0-.972-.376h-4.584Z"/>
    <path fill="#EFEFEF" d="M21.792 46h-4.584c-.85 0-1.667-.316-2.268-.879A2.905 2.905 0 0 1 14 43c0-.796.338-1.559.94-2.121A3.325 3.325 0 0 1 17.208 40h4.584c.85 0 1.667.316 2.268.879.602.562.94 1.325.94 2.121s-.338 1.559-.94 2.121a3.325 3.325 0 0 1-2.268.879Zm-4.584-4.286c-.364 0-.714.136-.972.377a1.245 1.245 0 0 0-.403.909c0 .341.145.668.403.91.258.24.608.376.972.376h4.584c.364 0 .714-.136.972-.377s.403-.568.403-.909c0-.341-.145-.668-.403-.91a1.424 1.424 0 0 0-.972-.376h-4.584Z"/>
    <path fill="#EFEFEF" d="M21.792 51h-4.584c-.85 0-1.667-.316-2.268-.879A2.905 2.905 0 0 1 14 48c0-.796.338-1.559.94-2.121A3.325 3.325 0 0 1 17.208 45h4.584c.85 0 1.667.316 2.268.879.602.562.94 1.325.94 2.121s-.338 1.559-.94 2.121a3.325 3.325 0 0 1-2.268.879Zm-4.584-4.286c-.364 0-.714.136-.972.377a1.245 1.245 0 0 0-.403.909c0 .341.145.668.403.91.258.24.608.376.972.376h4.584c.364 0 .714-.136.972-.377s.403-.568.403-.909c0-.341-.145-.668-.403-.91a1.424 1.424 0 0 0-.972-.376h-4.584ZM39.154 38h-6.462c-.979 0-1.918-.369-2.61-1.025A3.41 3.41 0 0 1 29 34.5a3.41 3.41 0 0 1 1.081-2.475A3.797 3.797 0 0 1 32.692 31h7.385a.95.95 0 0 1 .653.256c.173.164.27.387.27.619a.853.853 0 0 1-.27.619.95.95 0 0 1-.653.256h-7.385c-.49 0-.959.184-1.305.513-.346.328-.54.773-.54 1.237 0 .464.194.91.54 1.237.346.329.816.513 1.305.513h6.462a.95.95 0 0 1 .653.256c.173.164.27.387.27.619a.852.852 0 0 1-.27.619.95.95 0 0 1-.653.256Z"/>
    <path fill="#EFEFEF" d="M51.071 36h-6.5a.985.985 0 0 1-.656-.244.792.792 0 0 1-.272-.59c0-.662-.294-1.298-.816-1.767a2.955 2.955 0 0 0-1.97-.732h-.928a.985.985 0 0 1-.657-.244.792.792 0 0 1-.272-.59c0-.22.098-.433.272-.589a.985.985 0 0 1 .657-.244h.928a4.989 4.989 0 0 1 2.936.94c.829.608 1.399 1.453 1.614 2.393h5.664c.247 0 .483.088.657.244a.792.792 0 0 1 .272.59.792.792 0 0 1-.272.589.985.985 0 0 1-.657.244ZM40.857 53h-.928a.896.896 0 0 1-.657-.293A1.04 1.04 0 0 1 39 52c0-.265.098-.52.272-.707a.896.896 0 0 1 .657-.293h.928c.739 0 1.447-.316 1.97-.879A3.12 3.12 0 0 0 43.643 48c0-.265.098-.52.272-.707A.897.897 0 0 1 44.57 47h6.5c.247 0 .483.105.657.293.174.187.272.442.272.707 0 .265-.098.52-.272.707a.896.896 0 0 1-.657.293h-5.664a5.086 5.086 0 0 1-1.614 2.871A4.45 4.45 0 0 1 40.857 53ZM35.5 27a2.45 2.45 0 0 1-.41-.036A2.543 2.543 0 0 1 33.58 26a2.892 2.892 0 0 1-.58-1.78v-6.172a.93.93 0 0 1 .244-.633.805.805 0 0 1 .59-.262c.22 0 .432.095.589.262a.93.93 0 0 1 .244.633v6.171c-.008.224.056.443.182.62a.9.9 0 0 0 .505.358c.12.023.243.017.361-.016a.815.815 0 0 0 .32-.18.89.89 0 0 0 .22-.307.952.952 0 0 0 .078-.379v-6.419a.93.93 0 0 1 .245-.633.805.805 0 0 1 .589-.262c.22 0 .433.094.589.262a.93.93 0 0 1 .244.633v6.42a2.79 2.79 0 0 1-.732 1.898A2.416 2.416 0 0 1 35.5 27Z"/>
</svg>
