<svg width="119" height="119" viewBox="0 0 119 119" fill="none" xmlns="http://www.w3.org/2000/svg">
<path d="M25.125 84.5H18.875C16.8038 84.4975 14.8181 83.6736 13.3535 82.209C11.8889 80.7444 11.065 78.7587 11.0625 76.6875V61.0625C11.065 58.9913 11.8889 57.0056 13.3535 55.541C14.8181 54.0764 16.8038 53.2525 18.875 53.25H25.125C25.5394 53.25 25.9368 53.4146 26.2299 53.7076C26.5229 54.0007 26.6875 54.3981 26.6875 54.8125C26.6875 55.2269 26.5229 55.6243 26.2299 55.9174C25.9368 56.2104 25.5394 56.375 25.125 56.375H18.875C17.6318 56.375 16.4395 56.8689 15.5604 57.7479C14.6814 58.627 14.1875 59.8193 14.1875 61.0625V76.6875C14.1875 77.9307 14.6814 79.123 15.5604 80.0021C16.4395 80.8811 17.6318 81.375 18.875 81.375H25.125C25.5394 81.375 25.9368 81.5396 26.2299 81.8326C26.5229 82.1257 26.6875 82.5231 26.6875 82.9375C26.6875 83.3519 26.5229 83.7493 26.2299 84.0424C25.9368 84.3354 25.5394 84.5 25.125 84.5Z" fill="#EFEFEF"/>
<path d="M25.125 78.25H18.875C18.4606 78.25 18.0632 78.0854 17.7701 77.7924C17.4771 77.4993 17.3125 77.1019 17.3125 76.6875V61.0625C17.3125 60.6481 17.4771 60.2507 17.7701 59.9576C18.0632 59.6646 18.4606 59.5 18.875 59.5H25.125C25.5394 59.5 25.9368 59.6646 26.2299 59.9576C26.5229 60.2507 26.6875 60.6481 26.6875 61.0625C26.6875 61.4769 26.5229 61.8743 26.2299 62.1674C25.9368 62.4604 25.5394 62.625 25.125 62.625H20.4375V75.125H25.125C25.5394 75.125 25.9368 75.2896 26.2299 75.5826C26.5229 75.8757 26.6875 76.2731 26.6875 76.6875C26.6875 77.1019 26.5229 77.4993 26.2299 77.7924C25.9368 78.0854 25.5394 78.25 25.125 78.25Z" fill="#EFEFEF"/>
<path d="M56.375 57.9375C55.9606 57.9375 55.5632 57.7729 55.2701 57.4799C54.9771 57.1868 54.8125 56.7894 54.8125 56.375V51.6875C54.8125 51.2731 54.9771 50.8757 55.2701 50.5826C55.5632 50.2896 55.9606 50.125 56.375 50.125C56.7894 50.125 57.1868 50.2896 57.4799 50.5826C57.7729 50.8757 57.9375 51.2731 57.9375 51.6875V56.375C57.9375 56.7894 57.7729 57.1868 57.4799 57.4799C57.1868 57.7729 56.7894 57.9375 56.375 57.9375Z" fill="#EFEFEF"/>
<path d="M25.125 57.9375C24.7106 57.9375 24.3132 57.7729 24.0201 57.4799C23.7271 57.1868 23.5625 56.7894 23.5625 56.375V51.6875C23.5625 51.2731 23.7271 50.8757 24.0201 50.5826C24.3132 50.2896 24.7106 50.125 25.125 50.125C25.5394 50.125 25.9368 50.2896 26.2299 50.5826C26.5229 50.8757 26.6875 51.2731 26.6875 51.6875V56.375C26.6875 56.7894 26.5229 57.1868 26.2299 57.4799C25.9368 57.7729 25.5394 57.9375 25.125 57.9375Z" fill="#EFEFEF"/>
<path d="M50.125 56.375C50.125 57.2038 49.7958 57.9987 49.2097 58.5847C48.6237 59.1708 47.8288 59.5 47 59.5C46.1712 59.5 45.3763 59.1708 44.7903 58.5847C44.2042 57.9987 43.875 57.2038 43.875 56.375H23.5625V89.1875C23.5625 90.4307 24.0564 91.623 24.9354 92.5021C25.8145 93.3811 27.0068 93.875 28.25 93.875H53.25C54.4932 93.875 55.6855 93.3811 56.5646 92.5021C57.4436 91.623 57.9375 90.4307 57.9375 89.1875V56.375H50.125Z" fill="#F2C247"/>
<path d="M50.125 86.0625C49.7106 86.0625 49.3132 85.8979 49.0201 85.6049C48.7271 85.3118 48.5625 84.9144 48.5625 84.5V65.75C48.5625 65.3356 48.7271 64.9382 49.0201 64.6451C49.3132 64.3521 49.7106 64.1875 50.125 64.1875C50.5394 64.1875 50.9368 64.3521 51.2299 64.6451C51.5229 64.9382 51.6875 65.3356 51.6875 65.75V84.5C51.6875 84.9144 51.5229 85.3118 51.2299 85.6049C50.9368 85.8979 50.5394 86.0625 50.125 86.0625Z" fill="#141414"/>
<path d="M40.75 86.0625C40.3356 86.0625 39.9382 85.8979 39.6451 85.6049C39.3521 85.3118 39.1875 84.9144 39.1875 84.5V65.75C39.1875 65.3356 39.3521 64.9382 39.6451 64.6451C39.9382 64.3521 40.3356 64.1875 40.75 64.1875C41.1644 64.1875 41.5618 64.3521 41.8549 64.6451C42.1479 64.9382 42.3125 65.3356 42.3125 65.75V84.5C42.3125 84.9144 42.1479 85.3118 41.8549 85.6049C41.5618 85.8979 41.1644 86.0625 40.75 86.0625Z" fill="#141414"/>
<path d="M31.375 86.0625C30.9606 86.0625 30.5632 85.8979 30.2701 85.6049C29.9771 85.3118 29.8125 84.9144 29.8125 84.5V65.75C29.8125 65.3356 29.9771 64.9382 30.2701 64.6451C30.5632 64.3521 30.9606 64.1875 31.375 64.1875C31.7894 64.1875 32.1868 64.3521 32.4799 64.6451C32.7729 64.9382 32.9375 65.3356 32.9375 65.75V84.5C32.9375 84.9144 32.7729 85.3118 32.4799 85.6049C32.1868 85.8979 31.7894 86.0625 31.375 86.0625Z" fill="#141414"/>
<path d="M100.125 93.875H93.875C93.4606 93.875 93.0632 93.7104 92.7701 93.4174C92.4771 93.1243 92.3125 92.7269 92.3125 92.3125C92.3125 91.8981 92.4771 91.5007 92.7701 91.2076C93.0632 90.9146 93.4606 90.75 93.875 90.75H100.125C101.368 90.75 102.56 90.2561 103.44 89.3771C104.319 88.498 104.812 87.3057 104.812 86.0625V70.4375C104.812 69.1943 104.319 68.002 103.44 67.1229C102.56 66.2439 101.368 65.75 100.125 65.75H93.875C93.4606 65.75 93.0632 65.5854 92.7701 65.2924C92.4771 64.9993 92.3125 64.6019 92.3125 64.1875C92.3125 63.7731 92.4771 63.3757 92.7701 63.0826C93.0632 62.7896 93.4606 62.625 93.875 62.625H100.125C102.196 62.6275 104.182 63.4514 105.647 64.916C107.111 66.3806 107.935 68.3663 107.938 70.4375V86.0625C107.935 88.1337 107.111 90.1194 105.647 91.584C104.182 93.0486 102.196 93.8725 100.125 93.875Z" fill="#EFEFEF"/>
<path d="M100.125 87.625H93.875C93.4606 87.625 93.0632 87.4604 92.7701 87.1674C92.4771 86.8743 92.3125 86.4769 92.3125 86.0625C92.3125 85.6481 92.4771 85.2507 92.7701 84.9576C93.0632 84.6646 93.4606 84.5 93.875 84.5H98.5625V72H93.875C93.4606 72 93.0632 71.8354 92.7701 71.5424C92.4771 71.2493 92.3125 70.8519 92.3125 70.4375C92.3125 70.0231 92.4771 69.6257 92.7701 69.3326C93.0632 69.0396 93.4606 68.875 93.875 68.875H100.125C100.539 68.875 100.937 69.0396 101.23 69.3326C101.523 69.6257 101.688 70.0231 101.688 70.4375V86.0625C101.688 86.4769 101.523 86.8743 101.23 87.1674C100.937 87.4604 100.539 87.625 100.125 87.625Z" fill="#EFEFEF"/>
<path d="M93.875 67.3125C93.4606 67.3125 93.0632 67.1479 92.7701 66.8549C92.4771 66.5618 92.3125 66.1644 92.3125 65.75V61.0625C92.3125 60.6481 92.4771 60.2507 92.7701 59.9576C93.0632 59.6646 93.4606 59.5 93.875 59.5C94.2894 59.5 94.6868 59.6646 94.9799 59.9576C95.2729 60.2507 95.4375 60.6481 95.4375 61.0625V65.75C95.4375 66.1644 95.2729 66.5618 94.9799 66.8549C94.6868 67.1479 94.2894 67.3125 93.875 67.3125Z" fill="#EFEFEF"/>
<path d="M62.625 67.3125C62.2106 67.3125 61.8132 67.1479 61.5201 66.8549C61.2271 66.5618 61.0625 66.1644 61.0625 65.75V61.0625C61.0625 60.6481 61.2271 60.2507 61.5201 59.9576C61.8132 59.6646 62.2106 59.5 62.625 59.5C63.0394 59.5 63.4368 59.6646 63.7299 59.9576C64.0229 60.2507 64.1875 60.6481 64.1875 61.0625V65.75C64.1875 66.1644 64.0229 66.5618 63.7299 66.8549C63.4368 67.1479 63.0394 67.3125 62.625 67.3125Z" fill="#EFEFEF"/>
<path d="M87.625 65.75C87.625 66.5788 87.2958 67.3737 86.7097 67.9597C86.1237 68.5458 85.3288 68.875 84.5 68.875C83.6712 68.875 82.8763 68.5458 82.2903 67.9597C81.7042 67.3737 81.375 66.5788 81.375 65.75H61.0625V98.5625C61.0625 99.8057 61.5564 100.998 62.4354 101.877C63.3145 102.756 64.5068 103.25 65.75 103.25H90.75C91.9932 103.25 93.1855 102.756 94.0646 101.877C94.9436 100.998 95.4375 99.8057 95.4375 98.5625V65.75H87.625Z" fill="#F2C247"/>
<path d="M84.5 70.4375C83.2568 70.4375 82.0645 69.9436 81.1854 69.0646C80.3064 68.1855 79.8125 66.9932 79.8125 65.75V61.0625C79.8125 60.6481 79.6479 60.2507 79.3549 59.9576C79.0618 59.6646 78.6644 59.5 78.25 59.5H65.75C65.3356 59.5 64.9382 59.6646 64.6451 59.9576C64.3521 60.2507 64.1875 60.6481 64.1875 61.0625C64.1875 61.4769 64.0229 61.8743 63.7299 62.1674C63.4368 62.4604 63.0394 62.625 62.625 62.625C62.2106 62.625 61.8132 62.4604 61.5201 62.1674C61.2271 61.8743 61.0625 61.4769 61.0625 61.0625C61.0625 59.8193 61.5564 58.627 62.4354 57.7479C63.3145 56.8689 64.5068 56.375 65.75 56.375H78.25C79.4932 56.375 80.6855 56.8689 81.5646 57.7479C82.4436 58.627 82.9375 59.8193 82.9375 61.0625V65.75C82.9375 66.1644 83.1021 66.5618 83.3951 66.8549C83.6882 67.1479 84.0856 67.3125 84.5 67.3125C84.9144 67.3125 85.3118 67.1479 85.6049 66.8549C85.8979 66.5618 86.0625 66.1644 86.0625 65.75V61.0625C86.0625 59.8193 86.5564 58.627 87.4354 57.7479C88.3145 56.8689 89.5068 56.375 90.75 56.375C91.9932 56.375 93.1855 56.8689 94.0646 57.7479C94.9436 58.627 95.4375 59.8193 95.4375 61.0625C95.4375 61.4769 95.2729 61.8743 94.9799 62.1674C94.6868 62.4604 94.2894 62.625 93.875 62.625C93.4606 62.625 93.0632 62.4604 92.7701 62.1674C92.4771 61.8743 92.3125 61.4769 92.3125 61.0625C92.3125 60.6481 92.1479 60.2507 91.8549 59.9576C91.5618 59.6646 91.1644 59.5 90.75 59.5C90.3356 59.5 89.9382 59.6646 89.6451 59.9576C89.3521 60.2507 89.1875 60.6481 89.1875 61.0625V65.75C89.1875 66.9932 88.6936 68.1855 87.8146 69.0646C86.9355 69.9436 85.7432 70.4375 84.5 70.4375Z" fill="#EFEFEF"/>
<path d="M53.25 43.8751C52.9461 43.8749 52.6489 43.7861 52.3947 43.6196C52.1404 43.4531 51.9403 43.2161 51.8188 42.9376C51.6408 42.5267 51.381 42.1564 51.0552 41.8491C50.7294 41.5419 50.3445 41.3042 49.9239 41.1506C49.5033 40.997 49.0559 40.9306 48.6088 40.9554C48.1617 40.9803 47.7244 41.096 47.3234 41.2954C47.1152 41.397 46.8869 41.4511 46.6552 41.4536C46.4234 41.4562 46.194 41.4071 45.9836 41.3101C45.7731 41.213 45.5869 41.0703 45.4384 40.8924C45.2899 40.7145 45.1829 40.5057 45.125 40.2813C44.9172 39.4585 44.4703 38.7156 43.8406 38.1467C43.2109 37.5777 42.4267 37.2081 41.587 37.0845C40.7474 36.961 39.89 37.089 39.123 37.4525C38.3561 37.8159 37.7141 38.3985 37.2781 39.1266C37.1672 39.3099 37.0197 39.4684 36.8449 39.5923C36.6701 39.7162 36.4717 39.8028 36.262 39.8468C36.0523 39.8908 35.8358 39.8911 35.626 39.8479C35.4161 39.8046 35.2174 39.7187 35.0422 39.5954C34.4869 39.2015 33.823 38.9897 33.1422 38.9891C32.2601 38.9887 31.4138 39.3385 30.7895 39.9617C30.1651 40.5849 29.8137 41.4304 29.8125 42.3126C29.8125 42.727 29.6479 43.1244 29.3549 43.4174C29.0618 43.7104 28.6644 43.8751 28.25 43.8751C27.8356 43.8751 27.4382 43.7104 27.1451 43.4174C26.8521 43.1244 26.6875 42.727 26.6875 42.3126C26.6868 41.2622 26.9428 40.2275 27.4332 39.2986C27.9236 38.3697 28.6337 37.5748 29.5015 36.983C30.3694 36.3912 31.3687 36.0205 32.4125 35.9031C33.4563 35.7857 34.513 35.9252 35.4906 36.3094C36.2991 35.4285 37.3086 34.756 38.433 34.3493C39.5574 33.9426 40.7635 33.8137 41.9485 33.9736C43.1335 34.1335 44.2622 34.5775 45.2386 35.2677C46.215 35.9579 47.0102 36.8738 47.5563 37.9376C48.9927 37.6688 50.4777 37.8929 51.7709 38.5735C53.0641 39.2541 54.0896 40.3514 54.6813 41.6876C54.8474 42.0672 54.856 42.4972 54.7051 42.8831C54.5542 43.269 54.2561 43.5792 53.8766 43.7454C53.6791 43.8322 53.4657 43.8763 53.25 43.8751Z" fill="#EFEFEF"/>
<path d="M47 61.0625C45.7568 61.0625 44.5645 60.5686 43.6854 59.6896C42.8064 58.8105 42.3125 57.6182 42.3125 56.375V51.6875C42.3125 51.2731 42.1479 50.8757 41.8549 50.5826C41.5618 50.2896 41.1644 50.125 40.75 50.125H28.25C27.8356 50.125 27.4382 50.2896 27.1451 50.5826C26.8521 50.8757 26.6875 51.2731 26.6875 51.6875C26.6875 52.1019 26.5229 52.4993 26.2299 52.7924C25.9368 53.0854 25.5394 53.25 25.125 53.25C24.7106 53.25 24.3132 53.0854 24.0201 52.7924C23.7271 52.4993 23.5625 52.1019 23.5625 51.6875C23.5625 50.4443 24.0564 49.252 24.9354 48.3729C25.8145 47.4939 27.0068 47 28.25 47H40.75C41.9932 47 43.1855 47.4939 44.0646 48.3729C44.9436 49.252 45.4375 50.4443 45.4375 51.6875V56.375C45.4375 56.7894 45.6021 57.1868 45.8951 57.4799C46.1882 57.7729 46.5856 57.9375 47 57.9375C47.4144 57.9375 47.8118 57.7729 48.1049 57.4799C48.3979 57.1868 48.5625 56.7894 48.5625 56.375V51.6875C48.5625 50.4443 49.0564 49.252 49.9354 48.3729C50.8145 47.4939 52.0068 47 53.25 47C54.4932 47 55.6855 47.4939 56.5646 48.3729C57.4436 49.252 57.9375 50.4443 57.9375 51.6875C57.9375 52.1019 57.7729 52.4993 57.4799 52.7924C57.1868 53.0854 56.7894 53.25 56.375 53.25C55.9606 53.25 55.5632 53.0854 55.2701 52.7924C54.9771 52.4993 54.8125 52.1019 54.8125 51.6875C54.8125 51.2731 54.6479 50.8757 54.3549 50.5826C54.0618 50.2896 53.6644 50.125 53.25 50.125C52.8356 50.125 52.4382 50.2896 52.1451 50.5826C51.8521 50.8757 51.6875 51.2731 51.6875 51.6875V56.375C51.6875 57.6182 51.1936 58.8105 50.3146 59.6896C49.4355 60.5686 48.2432 61.0625 47 61.0625Z" fill="#EFEFEF"/>
<path d="M65.7502 53.2499C65.535 53.2505 65.3221 53.2058 65.1252 53.1187C64.7457 52.9525 64.4477 52.6423 64.2968 52.2564C64.1459 51.8705 64.1544 51.4405 64.3206 51.0609C64.9116 49.7242 65.937 48.6264 67.2303 47.9457C68.5237 47.265 70.0091 47.0413 71.4456 47.3109C71.9915 46.247 72.7865 45.3309 73.7628 44.6406C74.7392 43.9502 75.8679 43.5061 77.0529 43.3461C78.2379 43.186 79.444 43.3148 80.5685 43.7213C81.693 44.1279 82.7026 44.8003 83.5112 45.6812C84.489 45.2972 85.5458 45.1579 86.5896 45.2756C87.6335 45.3933 88.6328 45.7644 89.5005 46.3565C90.3682 46.9487 91.078 47.7439 91.5681 48.673C92.0583 49.6021 92.3139 50.637 92.3127 51.6874C92.3127 52.1018 92.1481 52.4993 91.8551 52.7923C91.5621 53.0853 91.1646 53.2499 90.7502 53.2499C90.3358 53.2499 89.9384 53.0853 89.6454 52.7923C89.3524 52.4993 89.1877 52.1018 89.1877 51.6874C89.1869 50.8058 88.8363 49.9606 88.213 49.3372C87.5896 48.7138 86.7443 48.3633 85.8628 48.3624C85.1819 48.363 84.5181 48.5748 83.9627 48.9687C83.7876 49.0923 83.5888 49.1784 83.3788 49.2214C83.1687 49.2644 82.9521 49.2635 82.7424 49.2187C82.5327 49.1745 82.3343 49.0876 82.1595 48.9634C81.9848 48.8392 81.8375 48.6804 81.7268 48.4968C81.291 47.7672 80.6485 47.1833 79.8806 46.8191C79.1128 46.4549 78.2541 46.3267 77.4133 46.4509C76.5726 46.575 75.7876 46.9459 75.1577 47.5165C74.5279 48.0871 74.0816 48.8317 73.8752 49.6562C73.8183 49.8818 73.7117 50.0918 73.5632 50.2709C73.4147 50.4501 73.228 50.5938 73.0169 50.6915C72.8058 50.7893 72.5755 50.8387 72.3428 50.8361C72.1102 50.8335 71.881 50.779 71.6721 50.6765C71.2718 50.4777 70.8352 50.3623 70.389 50.3374C69.9427 50.3125 69.496 50.3785 69.076 50.5315C68.656 50.6845 68.2715 50.9213 67.9459 51.2274C67.6202 51.5336 67.3601 51.9027 67.1815 52.3124C67.0599 52.591 66.8598 52.828 66.6056 52.9945C66.3514 53.161 66.0541 53.2498 65.7502 53.2499Z" fill="#EFEFEF"/>
<path d="M84.5 70.4375C83.2568 70.4375 82.0645 69.9436 81.1854 69.0646C80.3064 68.1855 79.8125 66.9932 79.8125 65.75V61.0625C79.8125 60.6481 79.6479 60.2507 79.3549 59.9576C79.0618 59.6646 78.6644 59.5 78.25 59.5H65.75C65.3356 59.5 64.9382 59.6646 64.6451 59.9576C64.3521 60.2507 64.1875 60.6481 64.1875 61.0625C64.1875 61.4769 64.0229 61.8743 63.7299 62.1674C63.4368 62.4604 63.0394 62.625 62.625 62.625C62.2106 62.625 61.8132 62.4604 61.5201 62.1674C61.2271 61.8743 61.0625 61.4769 61.0625 61.0625C61.0625 59.8193 61.5564 58.627 62.4354 57.7479C63.3145 56.8689 64.5068 56.375 65.75 56.375H78.25C79.4932 56.375 80.6855 56.8689 81.5646 57.7479C82.4436 58.627 82.9375 59.8193 82.9375 61.0625V65.75C82.9375 66.1644 83.1021 66.5618 83.3951 66.8549C83.6882 67.1479 84.0856 67.3125 84.5 67.3125C84.9144 67.3125 85.3118 67.1479 85.6049 66.8549C85.8979 66.5618 86.0625 66.1644 86.0625 65.75V61.0625C86.0625 59.8193 86.5564 58.627 87.4354 57.7479C88.3145 56.8689 89.5068 56.375 90.75 56.375C91.9932 56.375 93.1855 56.8689 94.0646 57.7479C94.9436 58.627 95.4375 59.8193 95.4375 61.0625C95.4375 61.4769 95.2729 61.8743 94.9799 62.1674C94.6868 62.4604 94.2894 62.625 93.875 62.625C93.4606 62.625 93.0632 62.4604 92.7701 62.1674C92.4771 61.8743 92.3125 61.4769 92.3125 61.0625C92.3125 60.6481 92.1479 60.2507 91.8549 59.9576C91.5618 59.6646 91.1644 59.5 90.75 59.5C90.3356 59.5 89.9382 59.6646 89.6451 59.9576C89.3521 60.2507 89.1875 60.6481 89.1875 61.0625V65.75C89.1875 66.9932 88.6936 68.1855 87.8146 69.0646C86.9355 69.9436 85.7432 70.4375 84.5 70.4375Z" fill="#EFEFEF"/>
<path d="M87.625 95.4375C87.2106 95.4375 86.8132 95.2729 86.5201 94.9799C86.2271 94.6868 86.0625 94.2894 86.0625 93.875V75.125C86.0625 74.7106 86.2271 74.3132 86.5201 74.0201C86.8132 73.7271 87.2106 73.5625 87.625 73.5625C88.0394 73.5625 88.4368 73.7271 88.7299 74.0201C89.0229 74.3132 89.1875 74.7106 89.1875 75.125V93.875C89.1875 94.2894 89.0229 94.6868 88.7299 94.9799C88.4368 95.2729 88.0394 95.4375 87.625 95.4375Z" fill="#141414"/>
<path d="M78.25 95.4375C77.8356 95.4375 77.4382 95.2729 77.1451 94.9799C76.8521 94.6868 76.6875 94.2894 76.6875 93.875V75.125C76.6875 74.7106 76.8521 74.3132 77.1451 74.0201C77.4382 73.7271 77.8356 73.5625 78.25 73.5625C78.6644 73.5625 79.0618 73.7271 79.3549 74.0201C79.6479 74.3132 79.8125 74.7106 79.8125 75.125V93.875C79.8125 94.2894 79.6479 94.6868 79.3549 94.9799C79.0618 95.2729 78.6644 95.4375 78.25 95.4375Z" fill="#141414"/>
<path d="M68.875 95.4375C68.4606 95.4375 68.0632 95.2729 67.7701 94.9799C67.4771 94.6868 67.3125 94.2894 67.3125 93.875V75.125C67.3125 74.7106 67.4771 74.3132 67.7701 74.0201C68.0632 73.7271 68.4606 73.5625 68.875 73.5625C69.2894 73.5625 69.6868 73.7271 69.9799 74.0201C70.2729 74.3132 70.4375 74.7106 70.4375 75.125V93.875C70.4375 94.2894 70.2729 94.6868 69.9799 94.9799C69.6868 95.2729 69.2894 95.4375 68.875 95.4375Z" fill="#141414"/>
<path d="M65.75 40.75C64.8229 40.75 63.9166 40.4751 63.1458 39.96C62.3749 39.4449 61.7741 38.7129 61.4193 37.8563C61.0645 36.9998 60.9717 36.0573 61.1526 35.148C61.3334 34.2387 61.7799 33.4035 62.4354 32.7479C63.091 32.0924 63.9262 31.6459 64.8355 31.4651C65.7448 31.2842 66.6873 31.377 67.5438 31.7318C68.4004 32.0866 69.1324 32.6874 69.6475 33.4583C70.1626 34.2291 70.4375 35.1354 70.4375 36.0625C70.4375 37.3057 69.9436 38.498 69.0646 39.3771C68.1855 40.2561 66.9932 40.75 65.75 40.75ZM65.75 34.5C65.441 34.5 65.1389 34.5916 64.8819 34.7633C64.625 34.935 64.4247 35.179 64.3064 35.4646C64.1882 35.7501 64.1572 36.0642 64.2175 36.3673C64.2778 36.6704 64.4266 36.9488 64.6451 37.1674C64.8637 37.3859 65.1421 37.5347 65.4452 37.595C65.7483 37.6553 66.0624 37.6243 66.3479 37.5061C66.6335 37.3878 66.8775 37.1875 67.0492 36.9306C67.2209 36.6736 67.3125 36.3715 67.3125 36.0625C67.3125 35.6481 67.1479 35.2507 66.8549 34.9576C66.5618 34.6646 66.1644 34.5 65.75 34.5Z" fill="#EFEFEF"/>
<path d="M75.125 25.125C74.1979 25.125 73.2916 24.8501 72.5208 24.335C71.7499 23.8199 71.1491 23.0879 70.7943 22.2313C70.4395 21.3748 70.3467 20.4323 70.5276 19.523C70.7084 18.6137 71.1549 17.7785 71.8104 17.1229C72.466 16.4674 73.3012 16.0209 74.2105 15.8401C75.1198 15.6592 76.0623 15.752 76.9188 16.1068C77.7754 16.4616 78.5074 17.0624 79.0225 17.8333C79.5376 18.6041 79.8125 19.5104 79.8125 20.4375C79.8125 21.6807 79.3186 22.873 78.4396 23.7521C77.5605 24.6311 76.3682 25.125 75.125 25.125ZM75.125 18.875C74.816 18.875 74.5139 18.9666 74.2569 19.1383C74 19.31 73.7997 19.554 73.6814 19.8396C73.5632 20.1251 73.5322 20.4392 73.5925 20.7423C73.6528 21.0454 73.8016 21.3238 74.0201 21.5424C74.2387 21.7609 74.5171 21.9097 74.8202 21.97C75.1233 22.0303 75.4374 21.9993 75.7229 21.8811C76.0085 21.7628 76.2525 21.5625 76.4242 21.3056C76.5959 21.0486 76.6875 20.7465 76.6875 20.4375C76.6875 20.0231 76.5229 19.6257 76.2299 19.3326C75.9368 19.0396 75.5394 18.875 75.125 18.875Z" fill="#EFEFEF"/>
<path d="M52.4688 29.8125C51.3871 29.8125 50.3298 29.4918 49.4305 28.8909C48.5311 28.2899 47.8302 27.4358 47.4163 26.4366C47.0024 25.4373 46.8941 24.3377 47.1051 23.2769C47.3161 22.216 47.8369 21.2416 48.6018 20.4768C49.3666 19.7119 50.341 19.1911 51.4019 18.9801C52.4627 18.7691 53.5623 18.8774 54.5616 19.2913C55.5608 19.7052 56.4149 20.4061 57.0159 21.3055C57.6168 22.2048 57.9375 23.2621 57.9375 24.3438C57.9375 25.7942 57.3613 27.1852 56.3357 28.2107C55.3102 29.2363 53.9192 29.8125 52.4688 29.8125ZM52.4688 22C52.0052 22 51.5521 22.1375 51.1666 22.395C50.7812 22.6525 50.4808 23.0186 50.3034 23.4468C50.126 23.8751 50.0796 24.3464 50.17 24.801C50.2605 25.2556 50.4837 25.6733 50.8115 26.001C51.1393 26.3288 51.5569 26.552 52.0115 26.6425C52.4662 26.7329 52.9374 26.6865 53.3657 26.5091C53.7939 26.3317 54.16 26.0313 54.4175 25.6459C54.675 25.2604 54.8125 24.8073 54.8125 24.3438C54.8125 23.7222 54.5656 23.126 54.126 22.6865C53.6865 22.2469 53.0904 22 52.4688 22Z" fill="#EFEFEF"/>
</svg>
