<svg xmlns="http://www.w3.org/2000/svg" width="26" height="26" fill="none" class="iconPrimary" viewBox="0 0 26 26">
    <path fill="currentColor" d="M22.834 12.594H3.166a.742.742 0 0 0-.728.754v3.772c0 .417.326.755.728.755h19.668a.742.742 0 0 0 .729-.755v-3.772a.742.742 0 0 0-.729-.754Z"/>
    <path fill="#141414" d="M5.078 16.25a1.016 1.016 0 1 1 0-2.031 1.016 1.016 0 0 1 0 2.031Zm0-1.354a.339.339 0 1 0 0 .677.339.339 0 0 0 0-.677ZM20.922 16.25a1.016 1.016 0 1 1 0-2.031 1.016 1.016 0 0 1 0 2.031Zm0-1.354a.339.339 0 1 0 0 .677.339.339 0 0 0 0-.677Z"/>
    <path fill="currentColor" d="M22.834 18.281H3.166a.742.742 0 0 0-.728.755v3.772c0 .417.326.755.728.755h19.668a.742.742 0 0 0 .729-.755v-3.772a.742.742 0 0 0-.729-.755Z"/>
    <path fill="#141414" d="M5.078 21.938a1.016 1.016 0 1 1 0-2.032 1.016 1.016 0 0 1 0 2.032Zm0-1.355a.339.339 0 1 0 0 .677.339.339 0 0 0 0-.677ZM20.922 21.938a1.016 1.016 0 1 1 0-2.032 1.016 1.016 0 0 1 0 2.032Zm0-1.355a.339.339 0 1 0 0 .677.339.339 0 0 0 0-.677Z"/>
    <path fill="#EFEFEF" d="M3.192 11.781a.34.34 0 0 1-.246-.107.375.375 0 0 1-.102-.259 2.468 2.468 0 0 1 .357-1.294c.235-.387.572-.693.97-.883a8.639 8.639 0 0 1-.05-.97c.1-1.178.256-2.349.47-3.509a.367.367 0 0 1 .148-.228.335.335 0 0 1 .257-.056c.09.017.17.07.222.149a.38.38 0 0 1 .059.269c-.005.026-.459 2.612-.459 3.374-.008.374.018.749.078 1.118a.382.382 0 0 1-.035.257.354.354 0 0 1-.189.168c-.326.107-.612.32-.815.609a1.749 1.749 0 0 0-.316.996c0 .097-.037.19-.102.259a.34.34 0 0 1-.247.107ZM8.995 11.781a.34.34 0 0 1-.246-.107.375.375 0 0 1-.102-.259 1.749 1.749 0 0 0-.316-.996 1.614 1.614 0 0 0-.815-.609.354.354 0 0 1-.19-.168.382.382 0 0 1-.034-.259c.06-.368.086-.742.077-1.116 0-.762-.453-3.348-.458-3.374a.38.38 0 0 1 .059-.27.347.347 0 0 1 .221-.148.335.335 0 0 1 .258.056.367.367 0 0 1 .147.228c.214 1.16.371 2.331.47 3.508.002.324-.014.649-.049.97.398.19.734.497.97.884.235.386.359.836.357 1.294 0 .097-.037.19-.102.259a.34.34 0 0 1-.247.107ZM17.005 11.781a.34.34 0 0 1-.247-.107.376.376 0 0 1-.102-.259 2.468 2.468 0 0 1 .358-1.294c.235-.387.571-.693.969-.883a8.646 8.646 0 0 1-.049-.97c.099-1.178.256-2.349.47-3.509a.367.367 0 0 1 .147-.228.335.335 0 0 1 .258-.056c.09.017.169.07.221.149a.38.38 0 0 1 .06.269c-.005.026-.46 2.612-.46 3.374-.008.374.018.749.079 1.118a.382.382 0 0 1-.035.257.354.354 0 0 1-.19.168c-.326.107-.611.32-.815.609a1.75 1.75 0 0 0-.316.996c0 .097-.037.19-.102.259a.34.34 0 0 1-.246.107ZM22.808 11.781a.34.34 0 0 1-.247-.107.376.376 0 0 1-.102-.259 1.75 1.75 0 0 0-.316-.996 1.614 1.614 0 0 0-.815-.609.354.354 0 0 1-.19-.168.383.383 0 0 1-.034-.259c.06-.368.086-.742.078-1.116 0-.762-.453-3.348-.459-3.374a.38.38 0 0 1 .06-.27.347.347 0 0 1 .22-.148.335.335 0 0 1 .258.056.367.367 0 0 1 .147.228c.215 1.16.372 2.331.47 3.508.003.324-.014.649-.048.97.397.19.734.497.969.884.235.386.36.836.357 1.294 0 .097-.037.19-.102.259a.34.34 0 0 1-.246.107ZM10.098 11.781a.34.34 0 0 1-.246-.107.375.375 0 0 1-.102-.258 2.46 2.46 0 0 1 .357-1.291c.235-.386.571-.692.968-.881a8.605 8.605 0 0 1-.049-.969 35.46 35.46 0 0 1 .47-3.499.377.377 0 0 1 .143-.24.34.34 0 0 1 .264-.061.338.338 0 0 1 .226.156.373.373 0 0 1 .051.278c-.005.026-.458 2.606-.458 3.366-.008.374.018.747.078 1.115a.382.382 0 0 1-.035.257.353.353 0 0 1-.19.168 1.612 1.612 0 0 0-.813.607 1.743 1.743 0 0 0-.316.994c0 .097-.037.19-.102.258a.34.34 0 0 1-.246.107ZM15.902 11.781a.34.34 0 0 1-.246-.107.375.375 0 0 1-.102-.258 1.743 1.743 0 0 0-.316-.994 1.612 1.612 0 0 0-.814-.607.353.353 0 0 1-.19-.168.38.38 0 0 1-.033-.258c.06-.368.085-.74.077-1.114 0-.76-.453-3.34-.458-3.366a.38.38 0 0 1 .051-.278.356.356 0 0 1 .226-.156.332.332 0 0 1 .264.06.36.36 0 0 1 .143.241 35.46 35.46 0 0 1 .47 3.5c.002.323-.014.646-.049.968.397.19.733.495.968.88.235.386.36.835.357 1.292 0 .097-.037.19-.102.258a.34.34 0 0 1-.246.107Z"/>
    <path fill="currentColor" d="M6.906 2.031H5.281a.812.812 0 1 0 0 1.625h1.625a.812.812 0 1 0 0-1.625ZM13.813 2.031h-1.626a.812.812 0 1 0 0 1.625h1.626a.812.812 0 1 0 0-1.625ZM20.719 2.031h-1.625a.813.813 0 0 0 0 1.625h1.625a.813.813 0 0 0 0-1.625Z"/>
</svg>
