<svg width="50" height="50" viewBox="0 0 50 50" fill="none" xmlns="http://www.w3.org/2000/svg">
<path d="M23.1219 2.47686L24.9813 0L26.85 2.4706C27.2026 2.93535 27.3686 3.51531 27.3154 4.09639C27.2622 4.67746 26.9936 5.21758 26.5625 5.61046V12.4719H34.375C36.0326 12.4719 37.6223 13.1308 38.7944 14.3038C39.9665 15.4768 40.625 17.0677 40.625 18.7265V28.1086H43.75C45.4076 28.1086 46.9973 28.7676 48.1694 29.9405C49.3415 31.1135 50 32.7044 50 34.3633V46.8727C50 47.7021 49.6708 48.4975 49.0847 49.084C48.4987 49.6705 47.7038 50 46.875 50H3.125C2.2962 50 1.50134 49.6705 0.915291 49.084C0.32924 48.4975 0 47.7021 0 46.8727V34.3633C0 32.7044 0.65848 31.1135 1.83058 29.9405C3.00269 28.7676 4.5924 28.1086 6.25 28.1086H9.375V18.7265C9.375 17.0677 10.0335 15.4768 11.2056 14.3038C12.3777 13.1308 13.9674 12.4719 15.625 12.4719H23.4375V5.63235C22.997 5.24245 22.7198 4.70053 22.6613 4.11493C22.6028 3.52933 22.7672 2.9432 23.1219 2.47373V2.47686ZM37.5 20.0213C37.1246 20.0234 36.7527 19.9504 36.4059 19.8065C36.0592 19.6625 35.7448 19.4506 35.4813 19.1831C34.9258 18.6268 34.2662 18.1854 33.5401 17.8842C32.8141 17.5831 32.0359 17.4281 31.25 17.4281C30.4641 17.4281 29.6859 17.5831 28.9599 17.8842C28.2338 18.1854 27.5742 18.6268 27.0187 19.1831C26.4832 19.7186 25.7571 20.0194 25 20.0194C24.2429 20.0194 23.5168 19.7186 22.9813 19.1831C22.4258 18.6268 21.7662 18.1854 21.0401 17.8842C20.3141 17.5831 19.5359 17.4281 18.75 17.4281C17.9641 17.4281 17.1859 17.5831 16.4599 17.8842C15.7338 18.1854 15.0742 18.6268 14.5187 19.1831C14.2552 19.4506 13.9408 19.6625 13.5941 19.8065C13.2473 19.9504 12.8754 20.0234 12.5 20.0213V23.1486C14.0312 23.1486 15.5625 22.5638 16.7313 21.3973C17.2668 20.8618 17.9929 20.561 18.75 20.561C19.5071 20.561 20.2332 20.8618 20.7687 21.3973C23.1062 23.7334 26.8938 23.7334 29.2313 21.3973C29.7668 20.8618 30.4929 20.561 31.25 20.561C32.0071 20.561 32.7332 20.8618 33.2687 21.3973C34.4375 22.5638 35.9688 23.1486 37.5 23.1486V20.0213ZM45.7687 37.9472C45.5035 38.2128 45.1886 38.4235 44.8419 38.5673C44.4952 38.7111 44.1237 38.7851 43.7484 38.7851C43.3732 38.7851 43.0016 38.7111 42.655 38.5673C42.3083 38.4235 41.9934 38.2128 41.7281 37.9472C41.1727 37.3913 40.5133 36.9503 39.7876 36.6494C39.0618 36.3486 38.284 36.1937 37.4984 36.1937C36.7129 36.1937 35.935 36.3486 35.2093 36.6494C34.4836 36.9503 33.8242 37.3913 33.2687 37.9472C32.7332 38.4827 32.0071 38.7835 31.25 38.7835C30.4929 38.7835 29.7668 38.4827 29.2313 37.9472C28.6758 37.3908 28.0162 36.9494 27.2901 36.6483C26.5641 36.3472 25.7859 36.1922 25 36.1922C24.2141 36.1922 23.4359 36.3472 22.7099 36.6483C21.9838 36.9494 21.3242 37.3908 20.7687 37.9472C20.2332 38.4827 19.5071 38.7835 18.75 38.7835C17.9929 38.7835 17.2668 38.4827 16.7313 37.9472C16.1758 37.3908 15.5162 36.9494 14.7901 36.6483C14.0641 36.3472 13.2859 36.1922 12.5 36.1922C11.7141 36.1922 10.9359 36.3472 10.2099 36.6483C9.48383 36.9494 8.82423 37.3908 8.26875 37.9472C7.73317 38.4827 7.00707 38.7835 6.25 38.7835C5.49293 38.7835 4.76683 38.4827 4.23125 37.9472L3.125 36.8433V41.0339C5.42812 42.4475 8.48438 42.1597 10.4813 40.1582C11.0168 39.6228 11.7429 39.322 12.5 39.322C13.2571 39.322 13.9832 39.6228 14.5187 40.1582C16.8562 42.4975 20.6438 42.4975 22.9813 40.1582C23.5168 39.6228 24.2429 39.322 25 39.322C25.7571 39.322 26.4832 39.6228 27.0187 40.1582C29.3562 42.4975 33.1437 42.4975 35.4781 40.1582C35.7434 39.8926 36.0583 39.6819 36.405 39.5382C36.7516 39.3944 37.1232 39.3204 37.4984 39.3204C37.8737 39.3204 38.2452 39.3944 38.5919 39.5382C38.9386 39.6819 39.2535 39.8926 39.5187 40.1582C40.4686 41.1096 41.7108 41.7133 43.0452 41.8721C44.3796 42.031 45.7287 41.7357 46.875 41.0339V36.8433L45.7687 37.9472Z" fill="#F2C247"/>
</svg>
