<svg width="9" height="19" viewBox="0 0 9 19" fill="none" xmlns="http://www.w3.org/2000/svg">
<path d="M1.97906 19C0.895288 19 0.0235602 18.251 0 17.3641V9.61826C0 8.92842 0.235602 8.2583 0.706806 7.66701L1.60209 6.54357C1.86126 6.22822 2.02618 5.87344 2.0733 5.49896L2.85079 1.00519H2.5445C2.21466 1.00519 1.9555 0.788382 1.9555 0.512448C1.9555 0.236514 2.21466 0 2.5445 0H3.51047H6.43194C6.76178 0 7.02094 0.216805 7.02094 0.492739C7.02094 0.768672 6.76178 0.985477 6.43194 0.985477H6.12565L6.90314 5.47925C6.97382 5.85373 7.13874 6.20851 7.37435 6.52386L8.26963 7.6473C8.74084 8.21888 8.97644 8.889 8.97644 9.59855V17.3444C8.97644 18.251 8.08115 18.9803 7.02094 19H1.97906ZM7.82199 11.2541V9.59855C7.82199 9.10581 7.65707 8.61307 7.32722 8.19917L6.43194 7.07573C6.07853 6.64212 5.86649 6.14938 5.77225 5.61722L4.9712 0.985477H4.0288L3.22775 5.61722C3.13351 6.12967 2.92147 6.64212 2.56806 7.07573L1.67277 8.19917C1.34293 8.61307 1.17801 9.10581 1.17801 9.59855V11.2541C1.17801 11.5695 1.48429 11.8454 1.88482 11.8454H7.13874C7.51571 11.8454 7.84555 11.5892 7.84555 11.2541H7.82199Z" fill="#F2C247"/>
</svg>
