<svg width="27" height="27" viewBox="0 0 27 27" fill="none" xmlns="http://www.w3.org/2000/svg">
<path d="M11.5625 6.67488C11.4788 6.67482 11.3953 6.6661 11.3134 6.64888L9.72176 6.31454C9.5651 6.28178 9.41642 6.21849 9.28422 6.12827C9.15202 6.03806 9.03888 5.92269 8.95127 5.78875C8.86366 5.65481 8.80328 5.50493 8.77359 5.34766C8.7439 5.19039 8.74548 5.02881 8.77824 4.87215C8.811 4.71549 8.87429 4.56681 8.9645 4.43461C9.05472 4.30241 9.17009 4.18927 9.30403 4.10166C9.43797 4.01405 9.58785 3.95367 9.74512 3.92398C9.90239 3.8943 10.064 3.89587 10.2206 3.92863L11.8115 4.26094C12.1068 4.32244 12.3689 4.49128 12.5469 4.73479C12.7249 4.97831 12.8063 5.27921 12.7754 5.57927C12.7444 5.87934 12.6032 6.15725 12.3792 6.35925C12.1551 6.56126 11.8641 6.67299 11.5625 6.67285V6.67488ZM11.4792 5.85385C11.5846 5.87506 11.6941 5.85391 11.7841 5.79499C11.874 5.73607 11.9371 5.64411 11.9598 5.53901C11.9707 5.48678 11.9713 5.4329 11.9614 5.38046C11.9515 5.32801 11.9314 5.27803 11.9022 5.23336C11.873 5.18869 11.8353 5.15022 11.7912 5.12013C11.7472 5.09004 11.6976 5.06893 11.6453 5.05801L10.0545 4.72488C10.0022 4.714 9.94833 4.71353 9.89589 4.72348C9.84345 4.73344 9.79348 4.75364 9.74885 4.78291C9.70422 4.81219 9.66579 4.84998 9.63577 4.89411C9.60575 4.93825 9.58472 4.98786 9.57388 5.04013C9.55189 5.14555 9.57265 5.2554 9.63162 5.34552C9.69058 5.43564 9.78291 5.49866 9.88832 5.52072L11.4792 5.85304V5.85385Z" fill="#EFEFEF"/>
<path d="M15.0983 4.23322C14.7994 4.23303 14.5109 4.12297 14.2878 3.92397C14.0648 3.72497 13.9226 3.45092 13.8884 3.15393C13.8542 2.85694 13.9303 2.55774 14.1023 2.31324C14.2743 2.06873 14.5302 1.89597 14.8213 1.82782L16.4032 1.45569C16.5598 1.41661 16.7227 1.40903 16.8823 1.4334C17.0418 1.45777 17.195 1.51359 17.3328 1.59764C17.4706 1.68169 17.5904 1.79228 17.6851 1.92299C17.7798 2.0537 17.8477 2.20193 17.8846 2.35906C17.9216 2.5162 17.927 2.67912 17.9005 2.83836C17.874 2.99759 17.8161 3.14998 17.7302 3.28666C17.6443 3.42334 17.5321 3.54159 17.4001 3.63456C17.2682 3.72752 17.119 3.79334 16.9614 3.82819L15.3795 4.20032C15.2873 4.22207 15.193 4.23311 15.0983 4.23322ZM16.6827 2.23528C16.6507 2.23516 16.6188 2.23898 16.5877 2.24666L15.0057 2.61878C14.9275 2.63709 14.8565 2.67817 14.8016 2.73684C14.7467 2.7955 14.7105 2.86912 14.6974 2.94838C14.6844 3.02764 14.6951 3.10899 14.7283 3.18214C14.7615 3.2553 14.8156 3.31697 14.8838 3.35938C14.929 3.38787 14.9794 3.40698 15.0321 3.41556C15.0848 3.42414 15.1387 3.42203 15.1906 3.40935L16.7725 3.03722C16.8696 3.01463 16.9551 2.95708 17.0125 2.87555C17.07 2.79403 17.0954 2.69421 17.0841 2.59512C17.0727 2.49604 17.0252 2.40461 16.9507 2.33825C16.8763 2.27189 16.78 2.23524 16.6803 2.23528H16.6827Z" fill="#EFEFEF"/>
<path d="M11.3337 12.9003C11.4463 12.5575 11.5385 12.2083 11.61 11.8546C11.7643 10.5526 11.8505 9.24333 11.8683 7.93227C11.8702 7.83723 11.8388 7.74453 11.7794 7.6703C11.72 7.59607 11.6365 7.54502 11.5433 7.52602L9.15702 7.02755C9.06413 7.00824 8.96742 7.02204 8.88365 7.06656C8.79987 7.11108 8.73432 7.18351 8.69836 7.2713C8.19019 8.47958 7.74542 9.71355 7.36586 10.9682C7.29057 11.3211 7.23631 11.6781 7.20336 12.0374C6.70184 12.1691 6.24688 12.4378 5.88942 12.8134C5.53196 13.189 5.28612 13.6567 5.17942 14.1641L4.69802 16.4704C4.67602 16.5759 4.69679 16.6857 4.75575 16.7758C4.81471 16.8659 4.90705 16.929 5.01245 16.951L6.60333 17.2829C6.6555 17.2941 6.70939 17.2949 6.76184 17.285C6.8143 17.2752 6.86426 17.255 6.90883 17.2256C6.99897 17.1664 7.06205 17.074 7.08433 16.9685C7.13399 16.6651 7.28595 16.3879 7.51495 16.1828C7.66099 16.0826 7.82761 16.0164 8.00257 15.989C8.17754 15.9616 8.35643 15.9736 8.52611 16.0244C8.69176 16.0381 8.8521 16.0894 8.99493 16.1744C9.13776 16.2594 9.25932 16.3758 9.35035 16.5149C9.44139 16.654 9.49951 16.812 9.52028 16.9769C9.54106 17.1418 9.52394 17.3093 9.47024 17.4666C9.44836 17.5719 9.46919 17.6817 9.52814 17.7717C9.58709 17.8617 9.67935 17.9247 9.78467 17.9467L11.3755 18.2791C11.4278 18.2899 11.4816 18.2904 11.5341 18.2805C11.5865 18.2706 11.6364 18.2504 11.6811 18.2212C11.7257 18.1919 11.7641 18.1542 11.7942 18.1101C11.8242 18.066 11.8453 18.0164 11.8561 17.9642L12.3375 15.6575C12.4424 15.1501 12.404 14.6234 12.2267 14.1365C12.0495 13.6496 11.7403 13.2216 11.3337 12.9003Z" fill="#F2C247"/>
<path d="M10.8772 20.6669L9.28634 20.3346C9.23411 20.3237 9.18025 20.3232 9.12783 20.3331C9.07541 20.3431 9.02546 20.3632 8.98083 20.3925C8.93621 20.4217 8.89777 20.4594 8.86773 20.5035C8.83769 20.5476 8.81663 20.5972 8.80575 20.6494C8.75554 20.9526 8.60351 21.2296 8.37471 21.4347C8.22887 21.5352 8.06232 21.6015 7.88737 21.629C7.71242 21.6564 7.53355 21.6442 7.36396 21.5931C7.18808 21.5721 7.01919 21.5117 6.86976 21.4166C6.72034 21.3214 6.5942 21.1939 6.50068 21.0435C6.37241 20.7636 6.34374 20.4482 6.41943 20.1497C6.43032 20.0975 6.43081 20.0436 6.42088 19.9912C6.41095 19.9388 6.39079 19.8889 6.36155 19.8442C6.33231 19.7996 6.29457 19.7612 6.25048 19.7311C6.20639 19.7011 6.15682 19.68 6.10459 19.6691L4.51412 19.3372C4.46186 19.3263 4.40796 19.3258 4.35549 19.3357C4.30303 19.3456 4.25303 19.3657 4.20836 19.395C4.16368 19.4242 4.12521 19.462 4.09515 19.5061C4.06508 19.5502 4.044 19.5998 4.03312 19.6521L3.36931 22.8346C3.30348 23.151 3.366 23.4806 3.54313 23.7509C3.72025 24.0212 3.99748 24.2101 4.31384 24.276L9.08606 25.2726C9.16863 25.2898 9.25276 25.2985 9.33712 25.2986C9.61677 25.298 9.88772 25.2013 10.1045 25.0247C10.3213 24.848 10.4708 24.6022 10.5278 24.3284L11.1921 21.1471C11.2139 21.0417 11.193 20.9319 11.134 20.8418C11.075 20.7518 10.9826 20.6889 10.8772 20.6669Z" fill="#F2C247"/>
<path d="M23.7293 20.1822L22.9851 17.0183C22.9604 16.9136 22.8953 16.8229 22.8039 16.7662C22.7125 16.7094 22.6024 16.6913 22.4976 16.7156L20.9156 17.0878C20.8109 17.1124 20.7203 17.1776 20.6635 17.2689C20.6068 17.3603 20.5886 17.4705 20.613 17.5753C20.6707 17.7312 20.6921 17.8981 20.6755 18.0635C20.6589 18.2289 20.6048 18.3883 20.5174 18.5297C20.4299 18.671 20.3113 18.7905 20.1707 18.8791C20.0301 18.9678 19.8711 19.0231 19.7058 19.041C19.5374 19.0965 19.3587 19.1133 19.1829 19.0903C19.0071 19.0673 18.8387 19.0051 18.6902 18.9082C18.4562 18.7088 18.2972 18.4355 18.2397 18.1335C18.215 18.0288 18.1498 17.9383 18.0584 17.8816C17.967 17.8249 17.8569 17.8068 17.7522 17.8312L16.1706 18.2033C16.0659 18.228 15.9753 18.2931 15.9185 18.3845C15.8618 18.4759 15.8436 18.5861 15.868 18.6908L16.6122 21.8543C16.6748 22.1216 16.8258 22.3599 17.0407 22.5307C17.2557 22.7014 17.522 22.7946 17.7965 22.7952C17.8911 22.7949 17.9854 22.7838 18.0776 22.7623L22.823 21.6459C23.1371 21.5716 23.4089 21.3758 23.5788 21.1014C23.7487 20.827 23.8029 20.4964 23.7293 20.1822Z" fill="#F2C247"/>
<path d="M17.4955 14.9711C17.4378 14.8152 17.4164 14.6482 17.433 14.4829C17.4495 14.3175 17.5036 14.1581 17.5911 14.0168C17.6786 13.8755 17.7972 13.756 17.9378 13.6674C18.0784 13.5789 18.2374 13.5236 18.4026 13.5057C18.5585 13.4481 18.7254 13.4268 18.8908 13.4434C19.0561 13.46 19.2155 13.5141 19.3568 13.6016C19.498 13.689 19.6175 13.8076 19.7061 13.9482C19.7947 14.0887 19.85 14.2477 19.868 14.4129C19.8926 14.5176 19.9578 14.6083 20.0491 14.665C20.1405 14.7217 20.2507 14.7399 20.3555 14.7155L21.9374 14.3434C22.0421 14.3188 22.1328 14.2536 22.1895 14.1622C22.2463 14.0708 22.2644 13.9607 22.2401 13.8559L21.7002 11.5626C21.5807 11.0581 21.3232 10.5967 20.9564 10.2302C20.5896 9.86375 20.1281 9.60658 19.6234 9.48751C19.5806 9.12881 19.5164 8.77298 19.4313 8.42191C19.0212 7.17686 18.5466 5.95401 18.0094 4.75835C17.9712 4.6715 17.9038 4.60076 17.8189 4.55839C17.734 4.51602 17.637 4.50469 17.5446 4.52638L15.1717 5.08457C15.0793 5.1063 14.9974 5.15973 14.9402 5.23558C14.8831 5.31143 14.8543 5.4049 14.8589 5.49976C14.9097 6.80984 15.0291 8.11636 15.2164 9.41398C15.2967 9.7659 15.3978 10.1128 15.5191 10.4528C15.1205 10.7843 14.8221 11.2202 14.6571 11.7116C14.4921 12.203 14.467 12.7307 14.5847 13.2356L15.1242 15.5289C15.1488 15.6336 15.214 15.7242 15.3054 15.781C15.3968 15.8377 15.5069 15.8559 15.6117 15.8315L17.1932 15.4594C17.298 15.4347 17.3887 15.3694 17.4454 15.2778C17.5021 15.1862 17.5201 15.0759 17.4955 14.9711Z" fill="#F2C247"/>
<path d="M11.0948 20.0304C11.0675 20.0302 11.0403 20.0274 11.0136 20.0219C10.9613 20.011 10.9118 19.9899 10.8677 19.9599C10.8236 19.9298 10.7859 19.8914 10.7566 19.8468C10.7274 19.8021 10.7072 19.7522 10.6973 19.6998C10.6874 19.6474 10.6878 19.5935 10.6987 19.5413L10.9795 18.197L9.7863 17.9475C9.68097 17.9255 9.58871 17.8625 9.52976 17.7725C9.47081 17.6825 9.44999 17.5727 9.47186 17.4674C9.52556 17.3101 9.54268 17.1426 9.5219 16.9777C9.50113 16.8128 9.44301 16.6548 9.35198 16.5157C9.26094 16.3766 9.13938 16.2602 8.99655 16.1752C8.85372 16.0902 8.69338 16.0389 8.52773 16.0252C8.35808 15.9742 8.17915 15.962 8.00414 15.9894C7.82913 16.0168 7.66252 16.0832 7.51658 16.1836C7.28773 16.3888 7.1358 16.666 7.08595 16.9693C7.07503 17.0215 7.05392 17.0711 7.02383 17.1152C6.99374 17.1592 6.95526 17.197 6.9106 17.2262C6.86593 17.2554 6.81595 17.2755 6.7635 17.2854C6.71106 17.2952 6.65718 17.2947 6.60495 17.2837L5.01205 16.953C4.95865 16.9434 4.90773 16.9231 4.8623 16.8934C4.81687 16.8637 4.77784 16.8253 4.74753 16.7803C4.71721 16.7352 4.69622 16.6846 4.68579 16.6314C4.67537 16.5781 4.67571 16.5233 4.68681 16.4702C4.69792 16.4171 4.71955 16.3667 4.75043 16.3221C4.78131 16.2775 4.82082 16.2395 4.86663 16.2104C4.91243 16.1813 4.9636 16.1617 5.01711 16.1527C5.07063 16.1437 5.1254 16.1455 5.1782 16.158L6.40102 16.4131C6.52145 16.0747 6.73218 15.7756 7.01039 15.5482C7.24822 15.3709 7.52338 15.2502 7.8149 15.1953C8.10642 15.1404 8.40663 15.1527 8.69267 15.2314C9.17093 15.2864 9.60867 15.5264 9.91233 15.9C10.216 16.2736 10.3615 16.7511 10.3177 17.2305L11.5417 17.486C11.647 17.5081 11.7393 17.5711 11.7982 17.6611C11.8572 17.7511 11.878 17.8609 11.8561 17.9662L11.4925 19.7082C11.4733 19.7994 11.4232 19.8812 11.3508 19.9398C11.2784 19.9985 11.188 20.0304 11.0948 20.0304Z" fill="#EFEFEF"/>
<path d="M7.74676 22.4483C7.5621 22.4472 7.37804 22.4271 7.19751 22.3882C6.90375 22.346 6.62349 22.2374 6.37807 22.0705C6.13265 21.9037 5.92855 21.683 5.78132 21.4254C5.61769 21.1056 5.54437 20.7473 5.56926 20.389L4.34685 20.1335C4.24191 20.1109 4.15014 20.0478 4.0916 19.9578C4.03307 19.8678 4.01252 19.7584 4.03445 19.6533L4.33304 18.2233C4.35502 18.1178 4.418 18.0254 4.50813 17.9663C4.59826 17.9073 4.70815 17.8865 4.81363 17.9084C4.91912 17.9304 5.01155 17.9934 5.07059 18.0835C5.12964 18.1737 5.15046 18.2836 5.12848 18.389L4.91276 19.4213L6.10592 19.6704C6.15815 19.6812 6.20772 19.7023 6.25181 19.7323C6.2959 19.7624 6.33364 19.8008 6.36288 19.8454C6.39211 19.8901 6.41227 19.94 6.4222 19.9924C6.43214 20.0449 6.43164 20.0987 6.42076 20.1509C6.34506 20.4494 6.37373 20.7648 6.50201 21.0447C6.5957 21.195 6.72196 21.3223 6.87145 21.4172C7.02094 21.5121 7.18985 21.5722 7.3657 21.5931C7.52296 21.6471 7.69047 21.6644 7.85544 21.6438C8.02042 21.6231 8.17849 21.5651 8.31762 21.474C8.45674 21.383 8.57323 21.2614 8.65819 21.1185C8.74316 20.9756 8.79436 20.8151 8.80789 20.6494C8.81877 20.5972 8.83983 20.5476 8.86987 20.5035C8.89991 20.4594 8.93834 20.4217 8.98297 20.3925C9.0276 20.3632 9.07755 20.3431 9.12997 20.3331C9.18239 20.3232 9.23625 20.3237 9.28848 20.3346L10.8794 20.6669C10.9329 20.6764 10.984 20.6965 11.0296 20.7261C11.0753 20.7557 11.1145 20.7942 11.145 20.8392C11.1755 20.8842 11.1966 20.9349 11.2071 20.9883C11.2176 21.0417 11.2174 21.0966 11.2063 21.1498C11.1952 21.2031 11.1735 21.2535 11.1425 21.2983C11.1115 21.343 11.0719 21.381 11.026 21.4101C10.98 21.4392 10.9287 21.4588 10.875 21.4677C10.8214 21.4766 10.7665 21.4746 10.7136 21.4619L9.48957 21.2064C9.37109 21.5732 9.13759 21.892 8.82368 22.1157C8.50977 22.3394 8.13214 22.456 7.74676 22.4483Z" fill="#EFEFEF"/>
<path d="M22.228 15.9833C22.1366 15.9831 22.0478 15.9522 21.9762 15.8953C21.9045 15.8385 21.8541 15.7591 21.8332 15.6701L21.5435 14.4363L20.3573 14.7154C20.2525 14.7397 20.1423 14.7216 20.0509 14.6648C19.9596 14.6081 19.8944 14.5174 19.8698 14.4127C19.8518 14.2475 19.7965 14.0886 19.7079 13.948C19.6193 13.8074 19.4998 13.6889 19.3586 13.6014C19.2173 13.5139 19.0579 13.4599 18.8926 13.4432C18.7272 13.4266 18.5603 13.4479 18.4044 13.5056C18.2392 13.5234 18.0803 13.5787 17.9397 13.6673C17.7991 13.7558 17.6806 13.8753 17.5931 14.0165C17.5056 14.1578 17.4515 14.3171 17.4349 14.4824C17.4183 14.6477 17.4396 14.8147 17.4973 14.9705C17.5217 15.0752 17.5035 15.1853 17.4469 15.2767C17.3902 15.3681 17.2997 15.4333 17.195 15.458L15.6131 15.8301C15.5611 15.8423 15.5073 15.8442 15.4547 15.8356C15.402 15.827 15.3515 15.8082 15.3062 15.7801C15.2608 15.752 15.2214 15.7152 15.1903 15.6719C15.1591 15.6286 15.1368 15.5796 15.1246 15.5277C15.1123 15.4757 15.1105 15.4219 15.1191 15.3692C15.1277 15.3166 15.1465 15.2661 15.1746 15.2208C15.2027 15.1754 15.2394 15.136 15.2828 15.1049C15.3261 15.0737 15.3751 15.0514 15.427 15.0392L16.6458 14.7548C16.5899 14.2765 16.7233 13.7954 17.0175 13.4142C17.3116 13.0329 17.7432 12.7819 18.22 12.7146C18.6768 12.5625 19.175 12.595 19.6082 12.8051C20.0414 13.0152 20.3754 13.3862 20.5389 13.8391L21.7576 13.5527C21.8624 13.5283 21.9725 13.5465 22.0639 13.6032C22.1553 13.66 22.2205 13.7506 22.2451 13.8553L22.6282 15.4848C22.6526 15.5896 22.6344 15.6997 22.5777 15.7911C22.5209 15.8825 22.4303 15.9477 22.3255 15.9723C22.2936 15.9796 22.2609 15.9833 22.228 15.9833Z" fill="#EFEFEF"/>
<path d="M19.2969 19.906C18.9029 19.9144 18.5172 19.7922 18.2 19.5582C17.9165 19.3379 17.6985 19.0443 17.5695 18.7092L16.354 18.9935C16.2491 19.0178 16.1388 18.9998 16.0469 18.9436C16.0015 18.9155 15.9621 18.8787 15.931 18.8353C15.8998 18.7919 15.8775 18.7429 15.8653 18.6909L15.5151 17.2024C15.4905 17.0974 15.5086 16.987 15.5654 16.8954C15.6222 16.8038 15.7131 16.7385 15.818 16.7139C15.9229 16.6892 16.0334 16.7073 16.125 16.7641C16.2166 16.8209 16.2819 16.9118 16.3065 17.0167L16.5633 18.1099L17.7495 17.8304C17.8542 17.8061 17.9643 17.8242 18.0557 17.8808C18.1471 17.9375 18.2123 18.0281 18.237 18.1327C18.2946 18.4347 18.4535 18.708 18.6875 18.9074C18.8361 19.0041 19.0045 19.0662 19.1803 19.0891C19.356 19.1121 19.5347 19.0954 19.7032 19.0403C19.8685 19.0224 20.0275 18.9671 20.1682 18.8785C20.3088 18.7899 20.4274 18.6704 20.5149 18.5291C20.6024 18.3877 20.6565 18.2282 20.673 18.0628C20.6895 17.8974 20.6681 17.7304 20.6103 17.5745C20.586 17.4697 20.6041 17.3596 20.6609 17.2682C20.7176 17.1768 20.8083 17.1116 20.913 17.087L22.4949 16.7149C22.5998 16.6902 22.7102 16.7082 22.8018 16.7649C22.8934 16.8217 22.9588 16.9124 22.9834 17.0173C23.0081 17.1222 22.9901 17.2326 22.9334 17.3242C22.8767 17.4159 22.7859 17.4812 22.681 17.5059L21.4622 17.7902C21.518 18.2685 21.3845 18.7497 21.0902 19.1309C20.796 19.5121 20.3644 19.7631 19.8876 19.8304C19.6943 19.8782 19.4961 19.9036 19.2969 19.906Z" fill="#EFEFEF"/>
</svg>
