<svg xmlns="http://www.w3.org/2000/svg" width="27" height="27" fill="none" class="iconPrimary" viewBox="0 0 27 27">
    <path fill="#EFEFEF" d="M11.563 6.675c-.084 0-.168-.009-.25-.026l-1.591-.334a1.219 1.219 0 0 1 .499-2.386l1.59.332a1.219 1.219 0 0 1-.248 2.412v.002Zm-.084-.821a.41.41 0 0 0 .482-.474.407.407 0 0 0-.316-.322l-1.59-.333a.407.407 0 0 0-.167.796l1.591.332ZM15.098 4.233a1.219 1.219 0 0 1-.277-2.405l1.582-.372a1.219 1.219 0 1 1 .558 2.372L15.38 4.2a1.23 1.23 0 0 1-.282.033Zm1.585-1.998a.39.39 0 0 0-.095.012l-1.582.372a.406.406 0 0 0 .185.79l1.582-.372a.406.406 0 0 0-.093-.802h.003Z"/>
    <path fill="currentColor" d="M11.334 12.9c.112-.343.205-.692.276-1.045.154-1.302.24-2.612.258-3.923a.406.406 0 0 0-.325-.406l-2.386-.498a.406.406 0 0 0-.459.243 37.678 37.678 0 0 0-1.332 3.697c-.075.353-.13.71-.163 1.07a2.793 2.793 0 0 0-2.024 2.126l-.481 2.306a.406.406 0 0 0 .314.481l1.591.332a.4.4 0 0 0 .306-.057.409.409 0 0 0 .175-.258c.05-.303.202-.58.431-.785a1.186 1.186 0 0 1 1.011-.159 1.093 1.093 0 0 1 .944 1.443.406.406 0 0 0 .315.48l1.59.332a.409.409 0 0 0 .42-.169.406.406 0 0 0 .061-.146l.482-2.306a2.793 2.793 0 0 0-1.004-2.758ZM10.877 20.667l-1.59-.332a.407.407 0 0 0-.481.314c-.05.304-.202.58-.431.786a1.182 1.182 0 0 1-1.011.158 1.181 1.181 0 0 1-.863-.55 1.35 1.35 0 0 1-.082-.893.406.406 0 0 0-.314-.48l-1.59-.333a.407.407 0 0 0-.482.315l-.664 3.183a1.219 1.219 0 0 0 .945 1.441l4.772.997a1.22 1.22 0 0 0 1.442-.944l.664-3.182a.407.407 0 0 0-.315-.48ZM23.73 20.182l-.745-3.164a.406.406 0 0 0-.487-.302l-1.582.372a.407.407 0 0 0-.303.487 1.092 1.092 0 0 1-.907 1.466 1.181 1.181 0 0 1-1.016-.133 1.35 1.35 0 0 1-.45-.774.406.406 0 0 0-.488-.303l-1.581.372a.407.407 0 0 0-.303.488l.744 3.163a1.22 1.22 0 0 0 1.466.908l4.745-1.116a1.219 1.219 0 0 0 .906-1.464ZM17.495 14.971a1.092 1.092 0 0 1 .908-1.465 1.093 1.093 0 0 1 1.465.907.406.406 0 0 0 .488.303l1.581-.373a.406.406 0 0 0 .303-.487l-.54-2.293a2.794 2.794 0 0 0-2.077-2.075 9.1 9.1 0 0 0-.192-1.066 37.778 37.778 0 0 0-1.422-3.664.406.406 0 0 0-.464-.232l-2.373.559a.407.407 0 0 0-.313.415c.05 1.31.17 2.616.357 3.914.08.352.182.699.303 1.039a2.794 2.794 0 0 0-.934 2.783l.54 2.293a.406.406 0 0 0 .487.303l1.581-.373a.406.406 0 0 0 .302-.488Z"/>
    <path fill="#EFEFEF" d="M11.095 20.03a.418.418 0 0 1-.227-.07.408.408 0 0 1-.17-.419l.281-1.344-1.193-.25a.406.406 0 0 1-.314-.48 1.093 1.093 0 0 0-.944-1.442 1.183 1.183 0 0 0-1.011.159 1.35 1.35 0 0 0-.431.785.407.407 0 0 1-.481.315l-1.593-.331a.405.405 0 0 1-.325-.483.406.406 0 0 1 .491-.312l1.223.255a1.97 1.97 0 0 1 .61-.865 1.95 1.95 0 0 1 1.682-.317 1.843 1.843 0 0 1 1.625 2l1.224.255a.406.406 0 0 1 .314.48l-.364 1.742a.406.406 0 0 1-.397.322ZM7.747 22.448a2.683 2.683 0 0 1-.55-.06 1.95 1.95 0 0 1-1.416-.963 1.975 1.975 0 0 1-.212-1.036l-1.222-.255a.407.407 0 0 1-.313-.48l.299-1.43a.406.406 0 0 1 .795.165l-.215 1.032 1.193.25a.405.405 0 0 1 .315.48 1.35 1.35 0 0 0 .081.894 1.182 1.182 0 0 0 .864.548 1.092 1.092 0 0 0 1.442-.944.407.407 0 0 1 .48-.314l1.591.332a.406.406 0 1 1-.165.795l-1.224-.256a1.793 1.793 0 0 1-1.743 1.242ZM22.228 15.983a.406.406 0 0 1-.395-.313l-.29-1.234-1.186.28a.406.406 0 0 1-.487-.303 1.094 1.094 0 0 0-1.466-.907 1.09 1.09 0 0 0-.907 1.464.406.406 0 0 1-.302.488l-1.582.372a.406.406 0 0 1-.186-.79l1.219-.285a1.844 1.844 0 0 1 1.574-2.04 1.845 1.845 0 0 1 2.319 1.124l1.219-.286a.406.406 0 0 1 .487.302l.383 1.63a.406.406 0 0 1-.4.498ZM19.297 19.906a1.784 1.784 0 0 1-1.097-.348 1.973 1.973 0 0 1-.63-.849l-1.216.285a.411.411 0 0 1-.423-.159.406.406 0 0 1-.066-.144l-.35-1.489a.407.407 0 0 1 .791-.185l.257 1.093 1.187-.28a.407.407 0 0 1 .487.303c.058.302.216.575.45.774a1.184 1.184 0 0 0 1.016.133 1.093 1.093 0 0 0 .907-1.465.406.406 0 0 1 .303-.488l1.582-.372a.406.406 0 1 1 .186.79l-1.219.285a1.844 1.844 0 0 1-1.574 2.04 2.59 2.59 0 0 1-.591.076Z"/>
</svg>
