<svg width="9" height="19" viewBox="0 0 9 19" fill="none" xmlns="http://www.w3.org/2000/svg">
<g clip-path="url(#clip0_5107_9757)">
<path d="M1.98425 19C0.897638 19 0.023622 18.251 0 17.3641V9.61826C0 8.92842 0.236221 8.2583 0.708661 7.66701L1.6063 6.54357C1.86614 6.22822 2.0315 5.87344 2.07874 5.49896L2.85827 1.00519H2.55118C2.22047 1.00519 1.96063 0.788382 1.96063 0.512448C1.96063 0.236514 2.22047 0 2.55118 0H3.51969H6.44882C6.77953 0 7.03937 0.216805 7.03937 0.492739C7.03937 0.768672 6.77953 0.985477 6.44882 0.985477H6.14173L6.92126 5.47925C6.99213 5.85373 7.15748 6.20851 7.3937 6.52386L8.29134 7.6473C8.76378 8.21888 9 8.889 9 9.59855V17.3444C9 18.251 8.10236 18.9803 7.03937 19H1.98425ZM5.7874 5.61722L4.98425 0.985477H4.03937L3.23622 5.61722H5.76378H5.7874Z" fill="#F2C247"/>
</g>
<defs>
<clipPath id="clip0_5107_9757">
<rect width="9" height="19" fill="white"/>
</clipPath>
</defs>
</svg>
