<svg xmlns="http://www.w3.org/2000/svg" width="9" height="19" fill="none" viewBox="0 0 9 19">
    <g clip-path="url(#a)">
        <path fill="#F2C247" d="M1.984 19C.898 19 .024 18.251 0 17.364V9.618c0-.69.236-1.36.709-1.951l.897-1.123c.26-.316.425-.67.473-1.045l.78-4.494H2.55c-.33 0-.59-.217-.59-.493 0-.275.26-.512.59-.512H6.45c.33 0 .59.217.59.493s-.26.492-.59.492h-.307l.78 4.494c.07.375.235.73.472 1.045l.897 1.123C8.764 8.22 9 8.89 9 9.6v7.745c0 .907-.898 1.636-1.96 1.656H1.983ZM5.787 5.617 4.984.985H4.04l-.803 4.632h2.551Z"/>
    </g>
    <defs>
        <clipPath id="a">
            <path fill="#fff" d="M0 0h9v19H0z"/>
        </clipPath>
    </defs>
</svg>
