<svg xmlns="http://www.w3.org/2000/svg" width="9" height="19" fill="none" viewBox="0 0 9 19">
    <path fill="#F2C247" d="M1.98 19C.894 19 .023 18.251 0 17.364V9.618c0-.69.236-1.36.707-1.951l.895-1.123c.26-.316.424-.67.471-1.045l.778-4.494h-.306c-.33 0-.59-.217-.59-.493 0-.275.26-.512.59-.512h3.887c.33 0 .589.217.589.493s-.26.492-.59.492h-.305l.777 4.494c.07.375.236.73.471 1.045l.896 1.123c.47.572.706 1.242.706 1.952v7.745c0 .907-.895 1.636-1.955 1.656H1.979Zm5.842-7.746V9.6a2.24 2.24 0 0 0-.495-1.4l-.895-1.123a3.138 3.138 0 0 1-.66-1.459l-.8-4.632h-.943l-.801 4.632a3.23 3.23 0 0 1-.66 1.459l-.895 1.123a2.24 2.24 0 0 0-.495 1.4v1.655c0 .316.306.591.707.591h5.254c.377 0 .707-.256.707-.59h-.024Z"/>
</svg>
