<svg xmlns="http://www.w3.org/2000/svg" width="16" height="16" fill="none" viewBox="0 0 16 16">
    <g clip-path="url(#a)">
        <path fill="#F2C247" d="M.429 6H15.57c.236 0 .429.169.429.375V14.5c0 .828-.768 1.5-1.714 1.5H1.714C.768 16 0 15.328 0 14.5V6.375C0 6.169.193 6 .429 6ZM16 4.625V3.5c0-.828-.768-1.5-1.714-1.5H12.57V.375c0-.206-.192-.375-.428-.375h-1.429c-.235 0-.428.169-.428.375V2H5.714V.375C5.714.169 5.521 0 5.286 0H3.857c-.236 0-.428.169-.428.375V2H1.714C.768 2 0 2.672 0 3.5v1.125C0 4.831.193 5 .429 5H15.57c.236 0 .429-.169.429-.375Z"/>
    </g>
    <defs>
        <clipPath id="a">
            <path fill="#fff" d="M0 0h16v16H0z"/>
        </clipPath>
    </defs>
</svg>