<svg xmlns="http://www.w3.org/2000/svg" width="70" height="47" fill="none" viewBox="0 0 70 47">
    <g clip-path="url(#a)">
        <path fill="#fff" d="M50.198 2.245h2.083l.498 2.095 3.295 18.137-.747 17.166-1.46 3.935a1.058 1.058 0 0 1-.492.8l-.276.174a1.326 1.326 0 0 1-1.25.086l-.305-.137a.214.214 0 0 1-.127-.205s1.172-12.545 1.261-16.273c.09-3.728 0-5.032 0-5.032L50.692 4.856l-.496-2.61.002-.001Z"/>
        <path fill="#1D1D1B" d="M52.396 44.93c-.21 0-.421-.043-.62-.133l-.306-.136a.385.385 0 0 1-.23-.377c.012-.13 1.172-12.587 1.26-16.266.087-3.671 0-5.002 0-5.015L50.514 4.881l-.535-2.813h2.444l.532 2.232 3.3 18.165v.02l-.748 17.194-.01.026-1.452 3.913c-.04.369-.253.708-.573.91l-.276.174a1.504 1.504 0 0 1-.8.231v-.002ZM50.415 2.42l.459 2.414L52.86 22.97c0 .02.089 1.362 0 5.054-.088 3.692-1.25 16.159-1.261 16.285 0 .008.008.023.022.028l.306.137c.35.157.751.13 1.075-.074l.277-.175a.885.885 0 0 0 .41-.666l.003-.024.008-.022 1.45-3.909.745-17.119L52.604 4.37l-.465-1.95h-1.724v.002Z"/>
        <path fill="#1D1D1B" d="M52.295 7.804a.648.648 0 0 1-.652-.64c0-.353.293-.641.652-.641.36 0 .652.288.652.64 0 .353-.293.64-.652.64Zm0-.927a.29.29 0 0 0-.291.286c0 .158.13.287.291.287a.29.29 0 0 0 .292-.287.29.29 0 0 0-.292-.286Zm.944 9.253a.648.648 0 0 1-.652-.64c0-.353.293-.64.652-.64.36 0 .652.287.652.64 0 .352-.293.64-.652.64Zm0-.927a.29.29 0 0 0-.292.287c0 .158.131.286.292.286a.29.29 0 0 0 .292-.286.29.29 0 0 0-.292-.287Zm.373 18.465a.648.648 0 0 1-.651-.64c0-.353.293-.641.651-.641.36 0 .652.288.652.64 0 .353-.293.641-.652.641Zm0-.927a.29.29 0 0 0-.291.286c0 .158.13.287.291.287a.29.29 0 0 0 .292-.287.29.29 0 0 0-.292-.286Zm-.645 9.128a.648.648 0 0 1-.652-.64c0-.353.293-.64.652-.64.358 0 .651.287.651.64 0 .353-.293.64-.651.64Zm0-.927a.29.29 0 0 0-.292.287c0 .158.13.287.292.287a.29.29 0 0 0 .291-.287.29.29 0 0 0-.291-.287Z"/>
        <path fill="#fff" d="m19.491 1.3 2.315-.211-2.312 22.265 1.339 22.385a.186.186 0 0 1-.159.195l-.198.031a3.875 3.875 0 0 1-1.554-.068l-.313-.08a.187.187 0 0 1-.142-.163l-2.133-23.177L19.49 1.3Z"/>
        <path fill="#1D1D1B" d="M19.864 46.19a4.06 4.06 0 0 1-.987-.123l-.314-.08a.365.365 0 0 1-.276-.318l-2.134-23.176v-.042l3.16-21.176a.18.18 0 0 1 .162-.15L21.79.912a.18.18 0 0 1 .196.195l-2.312 22.25 1.338 22.37a.364.364 0 0 1-.31.38l-.198.032c-.214.034-.427.05-.64.05Zm-3.35-23.71 2.13 23.156.322.087c.486.123.984.146 1.48.067l.198-.032s.009-.005.007-.01l-1.338-22.385v-.028l2.292-22.05-1.955.179-3.135 21.017h-.001Z"/>
        <path fill="#1D1D1B" d="M19.818 7.806a.65.65 0 0 1-.654-.643.65.65 0 0 1 .654-.643.65.65 0 0 1 .654.643.649.649 0 0 1-.654.643Zm0-.932a.292.292 0 0 0-.294.29c0 .159.132.288.294.288.162 0 .294-.13.294-.289a.292.292 0 0 0-.294-.289Zm-1.094 8.901a.654.654 0 0 1-.66-.648c0-.357.296-.647.66-.647.364 0 .66.29.66.647a.654.654 0 0 1-.66.648Zm0-.942a.297.297 0 0 0-.299.293c0 .162.135.294.3.294a.297.297 0 0 0 .298-.294.297.297 0 0 0-.299-.293Zm-.155 19.936a.656.656 0 0 1-.66-.65c0-.357.296-.648.66-.648.364 0 .66.291.66.649a.656.656 0 0 1-.66.649Zm0-.944c-.165 0-.3.132-.3.295 0 .163.135.295.3.295.166 0 .3-.132.3-.295a.298.298 0 0 0-.3-.295Zm.67 8.19a.642.642 0 0 1-.646-.635c0-.35.29-.635.646-.635.356 0 .646.286.646.635 0 .349-.29.636-.646.636Zm0-.916a.283.283 0 0 0-.286.28c0 .155.129.283.286.283a.284.284 0 0 0 .286-.282.283.283 0 0 0-.286-.281Z"/>
        <path fill="#fff" d="M15.965 1.14c-3.7.729-8.044 1.855-12.694 3.7C1.903 9.333.286 18.07.255 23.694c-.033 5.835.31 13.382 2.425 18.271 2.18 1.414 8.076 2.53 12.01 3.146 1.915.3 3.602-1.253 3.427-3.148l-.055-.578-1.512-17.507 2.484-19.95c.214-1.715-1.345-3.126-3.07-2.786V1.14Zm-5.947 37.036c-1.344-.29-1.776-.838-1.776-.838l-.75-5.494h1.946c.44 0 .779.321.879.742.283 1.2.574 2.626.572 4.88a.717.717 0 0 1-.871.71Zm1.717-28.793c-.063.54-.154 1.284-.274 2.194a12.43 12.43 0 0 1-.562 2.38 1.69 1.69 0 0 1-1.446 1.123l-1.625.151L9.09 8.723l1.735-.22a.804.804 0 0 1 .91.882l-.001-.002Z"/>
        <path fill="#1D1D1B" d="M15.166 45.325c-.167 0-.335-.013-.503-.04-4.325-.676-9.932-1.777-12.081-3.173l-.046-.03-.022-.049C.826 38.13.028 32.131.074 23.693.104 18.223 1.663 9.502 3.1 4.79l.025-.082.08-.031C7.255 3.07 11.419 1.856 15.93.966a2.77 2.77 0 0 1 2.423.67c.656.597.97 1.44.861 2.313l-2.482 19.93 1.512 17.49.054.577a3.049 3.049 0 0 1-.987 2.544 3.158 3.158 0 0 1-2.143.835h-.002Zm-12.34-3.48c2.243 1.419 8.406 2.544 11.894 3.09a2.802 2.802 0 0 0 2.344-.704 2.7 2.7 0 0 0 .874-2.253l-.054-.578-1.516-17.527.003-.018 2.484-19.949a2.298 2.298 0 0 0-.748-2.009A2.408 2.408 0 0 0 16 1.314c-4.461.88-8.578 2.077-12.582 3.66C1.997 9.683.465 18.288.435 23.695c-.046 8.354.736 14.293 2.39 18.152Zm7.348-3.475a.907.907 0 0 1-.195-.02c-1.391-.302-1.86-.879-1.879-.903l-.03-.038-.785-5.742h2.152c.506 0 .93.353 1.054.88.28 1.184.579 2.638.577 4.917a.9.9 0 0 1-.895.905v.001Zm-.118-.366c.16.034.318 0 .444-.1a.556.556 0 0 0 .21-.44c0-2.242-.294-3.673-.57-4.838-.085-.362-.368-.605-.703-.605h-1.74l.715 5.24c.113.112.575.511 1.644.742ZM7.604 15.43l1.333-6.866 1.865-.236a.994.994 0 0 1 .823.272.958.958 0 0 1 .29.805c-.08.688-.172 1.426-.275 2.195-.108.816-.3 1.63-.57 2.414a1.868 1.868 0 0 1-1.6 1.242l-1.865.174Zm1.638-6.548-1.194 6.151 1.387-.128a1.51 1.51 0 0 0 1.292-1.003c.263-.763.45-1.554.555-2.347.102-.768.195-1.505.274-2.19a.61.61 0 0 0-.184-.512.636.636 0 0 0-.525-.174l-1.605.204Z"/>
        <path fill="#fff" d="m45.782 34.194-.06 4.325c-.013.877-.74 1.582-1.633 1.582-.892 0-1.628-.712-1.631-1.596l-.075-14.497s6.593-1.059 10.118-.89c-.227-6.043-1.1-13.223-1.746-17.92-.397-2.876-2.895-5.022-5.85-5.022h-3.89c-3.055 0-5.522 2.456-5.478 5.458l.254 17.837.083 17.718c.048 2.984 2.737 5.356 5.773 5.34a465.24 465.24 0 0 0 3.059-.026c3.818-.043 6.944-3.014 7.102-6.762.143-3.426-.136-5.55-.136-5.55h-5.888l-.002.003Zm-2.02-27.58c2.02 0 1.181 2.933 1.368 7.008h-2.736c0-3.493-.653-7.007 1.369-7.007h-.001Z"/>
        <path fill="#1D1D1B" d="M41.615 46.707c-3.165 0-5.874-2.518-5.923-5.514l-.083-17.72-.254-17.835a5.472 5.472 0 0 1 1.63-3.983A5.664 5.664 0 0 1 41.015 0h3.889c3.029 0 5.62 2.225 6.027 5.175.674 4.882 1.523 11.957 1.747 17.937l.008.192-.196-.01c-3.17-.15-8.922.71-9.928.866l.075 14.344c.003.783.655 1.419 1.451 1.419s1.441-.631 1.452-1.407l.064-4.5h6.223l.02.155c.003.02.28 2.177.137 5.578-.16 3.843-3.358 6.888-7.28 6.932-.94.011-1.969.02-3.06.025h-.032l.003.001Zm-.6-46.353c-1.43 0-2.77.55-3.774 1.551a5.12 5.12 0 0 0-1.525 3.73l.253 17.835.083 17.721c.045 2.804 2.59 5.164 5.562 5.164h.03a525.78 525.78 0 0 0 3.057-.025c3.73-.043 6.772-2.939 6.924-6.592.12-2.854-.057-4.818-.116-5.366h-5.55l-.059 4.152c-.013.968-.826 1.756-1.812 1.756-.986 0-1.807-.795-1.812-1.772l-.075-14.647.151-.025c.065-.01 6.414-1.021 9.959-.9-.235-5.924-1.072-12.89-1.738-17.711-.383-2.776-2.82-4.869-5.67-4.869h-3.89l.001-.002Zm4.303 13.444h-3.105v-.177c0-.71-.028-1.42-.053-2.107-.08-2.101-.149-3.917.608-4.688.253-.258.587-.39.994-.39.432 0 .762.12 1.008.37.617.622.584 1.937.538 3.757-.023.907-.049 1.936.003 3.049l.008.185-.001.001Zm-2.746-.354h2.369c-.041-1.053-.016-2.026.006-2.89.042-1.668.075-2.986-.435-3.5-.175-.177-.421-.264-.75-.264-.31 0-.55.092-.735.281-.65.663-.58 2.493-.507 4.43.024.634.05 1.286.053 1.943h-.001Z"/>
        <path fill="#fff" d="M29.53 38.613c-.023.864-.76 1.54-1.64 1.506a1.562 1.562 0 0 1-1.514-1.55V24.538l9.002-.546s1.24-6.543.99-13.713c-.082-2.4-.212-4.324-.347-5.823-.22-2.422-2.283-4.28-4.758-4.28h-5.52c-2.098 0-3.886 1.494-4.225 3.53-.743 4.47-1.968 12.432-2.024 19.412-.047 5.803.481 13.174.995 18.122.335 3.227 3.278 5.582 6.579 5.582h3.165c3.115 0 5.639-2.481 5.639-5.54v-7.09l-6.22.123-.121 4.298v.001ZM28.49 6.45c2.069.499.965 3.814.871 7.17-1.68-.142-2.134-.189-2.902-.244.072-1.493.213-7.496 2.032-6.926Z"/>
        <path fill="#1D1D1B" d="M30.233 47h-3.165c-3.456 0-6.424-2.521-6.758-5.74-.512-4.935-1.042-12.292-.996-18.143.06-7.613 1.54-16.514 2.026-19.44C21.695 1.547 23.546 0 25.744 0h5.52c2.585 0 4.707 1.909 4.937 4.44.158 1.746.275 3.71.35 5.833.245 7.107-.982 13.686-.995 13.75l-.025.137-8.973.543V38.57c0 .74.59 1.342 1.34 1.372a1.389 1.389 0 0 0 1.454-1.333l.126-4.467 6.575-.13v7.27c0 3.152-2.61 5.717-5.819 5.717V47ZM25.743.354c-2.019 0-3.722 1.421-4.047 3.381-.485 2.919-1.96 11.8-2.022 19.385-.047 5.836.483 13.179.994 18.104.316 3.04 3.127 5.422 6.4 5.422h3.165c3.01 0 5.459-2.407 5.459-5.363v-6.908l-5.865.115-.116 4.13a1.703 1.703 0 0 1-.557 1.213c-.346.318-.801.482-1.27.464a1.736 1.736 0 0 1-1.688-1.725V24.373l9.03-.547c.173-.975 1.19-7.035.964-13.539-.073-2.117-.191-4.073-.348-5.814-.213-2.347-2.18-4.118-4.579-4.118h-5.52V.354Zm3.795 13.46-.19-.017c-.677-.057-1.155-.1-1.536-.132-.566-.05-.907-.08-1.365-.112l-.175-.013.008-.173.015-.322c.117-2.71.39-5.915 1.461-6.65a.872.872 0 0 1 .785-.115c1.674.409 1.458 2.438 1.207 4.787-.089.83-.18 1.688-.204 2.558l-.005.187-.001.001Zm-2.89-.601c.38.028.702.057 1.197.1l1.345.116c.03-.819.116-1.621.2-2.399.244-2.276.435-4.076-.94-4.407l-.012-.004a.512.512 0 0 0-.476.068c-1.062.729-1.246 4.978-1.307 6.375l-.006.152v-.001Z"/>
        <path fill="#fff" d="m67.526 26.617-3.458-.296-3.341-5.987 6.396.763c1.176.138 2.23-.969 2.213-2.13-.022-1.55-.115-3.727-.417-5.892-.179-1.286-.64-2.859-.975-4.261-.816-3.43-2.94-5.428-8.928-6.634-1.894-.38-2.485-.376-4.38-.376-1.338 0-2.145 1.089-1.917 2.224.96 4.767 2.13 13.537 2.238 20.277.155 9.777-.964 17.721-1.212 20.623 3.296-.213 6.313-1.527 6.313-1.527l1.12-12.772 1.37-.267c1.117-.07 1.708.267 1.49 2.68l-.854 9.654s3.436-.762 5.208-1.311c.692-2.91 1.187-8.812 1.423-12.137.096-1.344-.922-2.513-2.287-2.63l-.002-.001ZM59.963 8.355l1.053-.046c1.098-.049 2.082.667 2.346 1.714.104.41.208.892.302 1.447.181 1.066.216 1.981.203 2.642a1.138 1.138 0 0 1-1.212 1.105 17.443 17.443 0 0 1-2.132-.263c-.125-4.124-.56-6.6-.56-6.6Z"/>
        <path fill="#1D1D1B" d="m53.546 45.118.019-.205c.045-.537.12-1.227.213-2.101.394-3.683 1.127-10.54 1-18.505-.103-6.455-1.228-15.25-2.235-20.245a2.01 2.01 0 0 1 .418-1.697c.398-.476.992-.74 1.673-.74h.076c1.837 0 2.457 0 4.342.38 5.71 1.15 8.167 2.984 9.068 6.767.094.401.204.825.308 1.236.266 1.04.54 2.115.67 3.042.306 2.21.397 4.436.417 5.914.01.652-.294 1.317-.812 1.773-.466.412-1.035.602-1.603.536l-6.048-.722 3.127 5.601 3.362.288c1.454.125 2.554 1.388 2.452 2.818-.234 3.286-.731 9.235-1.428 12.165l-.023.098-.097.031c-1.759.546-5.19 1.308-5.223 1.317l-.24.053.876-9.895c.11-1.224.016-1.941-.299-2.259-.192-.193-.479-.26-.99-.23l-1.225.238-1.117 12.744-.097.042c-.03.013-3.083 1.33-6.373 1.543l-.21.015v-.002Zm1.088-43.137c-.571 0-1.066.217-1.396.61-.32.383-.446.894-.344 1.402 1.01 5.012 2.138 13.831 2.241 20.308.127 7.987-.606 14.856-1.001 18.548-.082.763-.148 1.386-.195 1.887 2.82-.224 5.418-1.24 5.945-1.457l1.121-12.797 1.528-.296c.441-.028.94-.009 1.28.336.4.4.522 1.183.4 2.536l-.833 9.412c.794-.18 3.364-.77 4.856-1.225.678-2.94 1.165-8.772 1.397-12.01.087-1.24-.865-2.334-2.124-2.441l-3.555-.305-3.556-6.371 6.744.804c.463.055.932-.104 1.319-.447.442-.39.7-.953.692-1.505-.02-1.468-.109-3.677-.415-5.87-.126-.909-.399-1.974-.662-3.005-.104-.412-.213-.837-.31-1.24-.73-3.068-2.455-5.225-8.789-6.5-1.85-.373-2.46-.373-4.27-.373h-.075l.002-.001Zm8.092 13.417c-.026 0-.054 0-.08-.003-.69-.04-1.416-.13-2.156-.266l-.143-.026-.004-.143c-.123-4.063-.554-6.55-.558-6.575l-.034-.198 1.257-.055c1.182-.052 2.246.725 2.528 1.848.116.458.218.95.306 1.462.152.9.222 1.8.205 2.673-.006.36-.159.692-.426.936a1.323 1.323 0 0 1-.895.345v.002Zm-2.028-.591c.676.119 1.338.198 1.968.234a.96.96 0 0 0 1.02-.932 14.13 14.13 0 0 0-.2-2.61 18.943 18.943 0 0 0-.299-1.434c-.241-.96-1.151-1.624-2.164-1.58l-.85.036c.101.658.417 2.925.525 6.283v.003Z"/>
        <path fill="#4C4634" d="M36.402 19.447c14.17 0 24.058.519 32.858 1.985.218 2.047.343 4.858.343 4.858s-15.96 3.056-33.2 3.056c-17.24 0-29.435-1.344-36.15-2.72-.216-1.925.122-5.713.122-5.713s12.032-1.466 36.027-1.466Z"/>
        <path fill="#1D1D1B" d="M36.403 29.523c-20.658 0-32.188-1.905-36.187-2.723l-.128-.026-.015-.128c-.215-1.92.108-5.593.122-5.748l.013-.143.144-.018c.12-.014 12.318-1.467 36.05-1.467 14.885 0 24.414.575 32.888 1.989l.135.022.014.133c.216 2.03.343 4.84.344 4.869l.007.152-.153.03c-.16.03-16.173 3.059-33.234 3.059v-.002ZM.419 26.48c4.103.83 15.578 2.69 35.985 2.69 16.134 0 31.331-2.714 33.014-3.024-.03-.598-.143-2.83-.32-4.56-8.422-1.393-17.91-1.961-32.694-1.961-22.318 0-34.42 1.285-35.861 1.448-.057.69-.286 3.706-.124 5.408v-.001ZM40.59 17.285h-3.934c-.1 0-.18-.079-.18-.177v-.749c0-.098.08-.177.18-.177h3.933c.1 0 .18.08.18.177v.75c0 .097-.08.176-.18.176Zm-3.754-.354h3.573v-.395h-3.573v.395Z"/>
        <path fill="#fff" d="m39.547 19.447 1.845-.67c.576-.208 1.187.21 1.187.813a.88.88 0 0 1-1.071.848l-1.977-.426"/>
        <path fill="#1D1D1B" d="M41.699 20.634c-.077 0-.154-.008-.23-.024l-1.976-.426.077-.346 1.976.426a.708.708 0 0 0 .591-.137.682.682 0 0 0-.038-1.104.704.704 0 0 0-.645-.081l-1.844.668-.125-.331 1.844-.669a1.08 1.08 0 0 1 .975.123 1.034 1.034 0 0 1 .059 1.67 1.07 1.07 0 0 1-.664.232Z"/>
        <path fill="#fff" d="m37.51 19.447-1.995-.356a.876.876 0 0 0-1.037.852c0 .615.633 1.034 1.212.802l1.835-.732"/>
        <path fill="#1D1D1B" d="M35.359 20.985a1.07 1.07 0 0 1-.592-.178 1.033 1.033 0 0 1-.088-1.665c.243-.198.559-.28.87-.225l1.994.355-.065.348-1.994-.355a.708.708 0 0 0-.574.148.68.68 0 0 0 .059 1.1.7.7 0 0 0 .655.066l1.835-.733.136.328-1.835.733a1.066 1.066 0 0 1-.4.077h-.001Z"/>
        <path fill="#fff" d="M42.464 27.838h-2.988c-1.078 0-1.843-.826-1.843-1.884l-.11-8.841h2.022v7.923c0 .434.356.786.798.788l.228.025a8.036 8.036 0 0 0 1.65.008l.244-.023c.286 0 .517.418.517.7v.792c0 .282-.233.51-.52.51l.002.002Z"/>
        <path fill="#1D1D1B" d="M42.464 28.015h-2.988c-1.152 0-2.023-.886-2.023-2.061l-.11-9.018h2.383v8.1c0 .335.277.61.62.611h.019l.228.026a7.91 7.91 0 0 0 1.611.008l.254-.024h.01c.418.002.696.528.696.876v.793a.695.695 0 0 1-.7.688ZM37.708 17.29l.107 8.662c0 .99.698 1.709 1.663 1.709h2.987c.187 0 .34-.15.34-.334v-.793c0-.22-.186-.513-.33-.522l-.232.022a8.314 8.314 0 0 1-1.687-.008l-.219-.024a.976.976 0 0 1-.968-.965v-7.746H37.71l-.002-.001Z"/>
        <path fill="#fff" d="M38.56 20.668a.963.963 0 0 0 .971-.955.963.963 0 0 0-.97-.954.963.963 0 0 0-.972.954c0 .527.435.954.971.954Z"/>
        <path fill="#1D1D1B" d="M38.56 20.846a1.142 1.142 0 0 1-1.151-1.132c0-.624.516-1.131 1.151-1.131s1.152.507 1.152 1.131-.517 1.132-1.152 1.132Zm0-1.91a.785.785 0 0 0-.791.777c0 .428.355.777.791.777.436 0 .791-.349.791-.777a.786.786 0 0 0-.79-.777Z"/>
        <path fill="#fff" d="m9.918 25.442.504.66c-.768.567-1.843.891-2.946.891-2.277 0-4.128-1.344-4.128-2.994 0-1.65 1.851-2.995 4.128-2.995.916 0 1.816.223 2.536.626l.211.12v1.47h-.84v-.982a4.506 4.506 0 0 0-1.908-.409c-1.782 0-3.288.994-3.288 2.17s1.506 2.168 3.288 2.168c.925 0 1.816-.264 2.442-.725h.001Zm5.154-3.399h1.072v3.956h-1.072v.826h6.111v-1.956h-.84v1.13h-3.358v-1.696h2.55v-.825h-2.55v-1.436h3.358v1.145h.84v-1.97h-6.111v.826Zm31.005-.061h1.072v3.955h-1.072v.826h6.111v-1.956h-.84v1.13H47.99v-1.695h2.549v-.826h-2.55V21.98h3.358v1.146h.84v-1.971h-6.111v.827Zm-15.658.061h.886v3.187l-3.123-3.857a.424.424 0 0 0-.329-.156H26.22v.826h.94v3.956h-.94v.826h2.721v-.826h-.94v-3.523l3.394 4.193a.423.423 0 0 0 .75-.258v-4.368h.948v-.826H30.42v.826Zm33.006 3.997v.826h-1.467l-1.763-2.17h-1.886v1.344h1.123v.826h-2.85v-.826h.886v-4.058h-.886v-.826h4.195c.993 0 1.801.794 1.801 1.77a1.78 1.78 0 0 1-1.354 1.715l1.136 1.399h1.065Zm-2.647-2.17c.53 0 .961-.423.961-.943a.954.954 0 0 0-.96-.944h-2.47v1.889h2.47v-.002Z"/>
    </g>
    <defs>
        <clipPath id="a">
            <path fill="#fff" d="M0 0h70v47H0z"/>
        </clipPath>
    </defs>
</svg>
