<svg xmlns="http://www.w3.org/2000/svg" width="26" height="26" fill="none" class="iconPrimary" viewBox="0 0 26 26">
    <path fill="#EFEFEF" fill-rule="evenodd" d="M12.594 24.781V16.25h.812v8.531h-.812ZM3.684 7.166a.406.406 0 0 1 .379-.26h17.875a.406.406 0 0 1 .273.707l-2.235 2.031a.406.406 0 1 1-.546-.6l1.457-1.325H5.113L6.57 9.043a.406.406 0 1 1-.546.601l-2.235-2.03a.406.406 0 0 1-.105-.448Z" clip-rule="evenodd"/>
    <path fill="currentColor" stroke="currentColor" stroke-linejoin="round" stroke-width="2" d="m13 16.25-4.875-4.875h9.75L13 16.25Z"/>
    <path fill="#EFEFEF" fill-rule="evenodd" d="M8.531 24.781c0-.224.182-.406.406-.406h8.126a.406.406 0 1 1 0 .813H8.938a.406.406 0 0 1-.407-.407ZM20.212 4.33l-2.844 3.25-.611-.535 2.844-3.25.611.535Z" clip-rule="evenodd"/>
    <circle cx="20.313" cy="3.25" r="2.031" fill="#EFEFEF"/>
</svg>
