<svg width="24" height="24" viewBox="0 0 24 24" fill="none" xmlns="http://www.w3.org/2000/svg">
<path d="M19 14L22 14L22 4L19 4L19 14Z" fill="currentColor"/>
<path d="M5 15L10 15L10 20C10 20.2652 10.1054 20.5196 10.2929 20.7071C10.4804 20.8946 10.7348 21 11 21L12 21L16.3353 15.6242C16.7654 15.0908 17 14.4262 17 13.741L17 6C17 5.46957 16.7893 4.96086 16.4142 4.58579C16.0391 4.21071 15.5304 4 15 4L8.56519 4C8.00534 4 7.45665 4.15666 6.9812 4.45227C6.50575 4.74788 6.12251 5.17064 5.87482 5.67273L3 11.5L3 13C3 13.5304 3.21071 14.0391 3.58579 14.4142C3.96086 14.7893 4.46957 15 5 15Z" fill="currentColor"/>
</svg>
