<svg xmlns="http://www.w3.org/2000/svg" width="174" height="43" fill="none" viewBox="0 0 174 43">
    <path fill="#fff" d="m170.666 25.45-3.071 7.85h-.092l-3.205-7.85H161.4l4.801 10.977-2.743 6.104h2.816l7.404-17.081h-3.012Zm-21.707-6.515h-2.684v18.11h2.684v-18.11Zm-10.096 0h-6.45v18.11h2.703V30.19h3.757c3.159.109 5.808-2.373 5.916-5.546v-.076c-.065-3.179-2.687-5.701-5.853-5.633h-.076.003Zm.07 8.724h-3.82v-6.166h3.831a3.077 3.077 0 0 1 3.072 3.083 3.077 3.077 0 0 1-3.072 3.083h-.011Zm16.638-2.601a5.054 5.054 0 0 0-4.801 2.775l2.396 1.029a2.537 2.537 0 0 1 2.457-1.314 2.585 2.585 0 0 1 2.825 2.318v.199a5.875 5.875 0 0 0-2.796-.71c-2.57 0-5.191 1.417-5.191 4.112 0 2.424 2.098 3.986 4.473 3.986a3.74 3.74 0 0 0 3.419-1.769h.103v1.4h2.621v-6.97c0-3.217-2.396-5.005-5.487-5.005l-.022-.051h.003Zm-.317 9.927c-.881 0-2.109-.452-2.109-1.543 0-1.399 1.526-1.932 2.857-1.932a4.776 4.776 0 0 1 2.456.607 3.27 3.27 0 0 1-3.204 2.868ZM58.167 37.43c-5.303.017-9.633-4.248-9.717-9.568.084-5.32 4.414-9.587 9.717-9.568a9.105 9.105 0 0 1 6.563 2.643l-1.854 1.84a6.648 6.648 0 0 0-4.71-1.911c-3.827 0-6.931 3.116-6.931 6.958 0 3.843 3.104 6.959 6.932 6.959A6.396 6.396 0 0 0 63 32.862a5.415 5.415 0 0 0 1.423-3.29h-6.257v-2.539h8.805c.095.54.141 1.086.133 1.636a8.62 8.62 0 0 1-2.264 6.166 8.762 8.762 0 0 1-6.674 2.602v-.006Zm22.556-6.166c.138 3.369-2.472 6.213-5.826 6.351-3.356.14-6.19-2.481-6.328-5.848a5.164 5.164 0 0 1 0-.5c-.138-3.37 2.473-6.213 5.826-6.352 3.357-.139 6.19 2.482 6.328 5.848.008.166.008.335 0 .5Zm-2.662 0a3.438 3.438 0 0 0-3.09-3.753 3.432 3.432 0 0 0-3.74 3.753 3.438 3.438 0 0 0 3.091 3.753 3.432 3.432 0 0 0 3.739-3.753Zm16.28 0c0 3.366-2.72 6.096-6.073 6.096-3.354 0-6.073-2.73-6.073-6.096s2.72-6.096 6.073-6.096c3.354 0 6.073 2.73 6.073 6.096Zm-2.651 0a3.438 3.438 0 0 0-3.091-3.753 3.432 3.432 0 0 0-3.739 3.753 3.438 3.438 0 0 0 3.09 3.753 3.432 3.432 0 0 0 3.74-3.753Zm15.941-5.786v11.07c0 4.543-2.692 6.415-5.867 6.415a5.889 5.889 0 0 1-5.468-3.598l2.323-1.028a3.411 3.411 0 0 0 3.072 2.188c2.047 0 3.296-1.266 3.296-3.617v-.884h-.103a4.21 4.21 0 0 1-3.193 1.406c-3.395 0-6.144-2.762-6.144-6.166 0-3.404 2.752-6.166 6.144-6.166a4.266 4.266 0 0 1 3.234 1.376h.103v-1.028h2.6v.03l.003.002Zm-2.386 5.819a3.482 3.482 0 0 0-3.18-3.756l-.109-.008a3.572 3.572 0 0 0-3.44 3.76 3.538 3.538 0 0 0 3.364 3.707c.025 0 .052 0 .076.003a3.436 3.436 0 0 0 3.294-3.573c0-.046-.005-.09-.008-.136l.003.003Zm7.127-12.344v18.1h-2.703v-18.1h2.703Zm10.65 14.346 2.109 1.4a6.137 6.137 0 0 1-5.119 2.734c-3.286.046-5.986-2.588-6.032-5.886v-.28c-.268-3.122 2.033-5.873 5.143-6.142a5.65 5.65 0 0 1 5.864 3.902l.277.71-8.191 3.402a3.143 3.143 0 0 0 2.991 1.87 3.516 3.516 0 0 0 2.958-1.707v-.002Zm-6.461-2.22 5.509-2.28a2.396 2.396 0 0 0-2.294-1.307 3.376 3.376 0 0 0-3.215 3.587Z"/>
    <path fill="#EA4335" d="M17.598 19.928.16 38.268c.71 2.522 3.324 3.991 5.837 3.278a4.756 4.756 0 0 0 1.09-.462L26.71 29.866l-9.11-9.938h-.002Z"/>
    <path fill="#FBBC04" d="m35.23 16.81-8.485-4.88-9.551 8.414 9.589 9.495 8.42-4.825a4.638 4.638 0 0 0 0-8.204h.028Z"/>
    <path fill="#4285F4" d="M.157 3.467A4.6 4.6 0 0 0 0 4.667v32.4c0 .405.054.808.157 1.2l18.037-17.87L.157 3.463v.003Z"/>
    <path fill="#34A853" d="m17.728 20.867 9.017-8.934L7.15.664A4.801 4.801 0 0 0 4.72 0 4.73 4.73 0 0 0 .16 3.456L17.728 20.87v-.003Z"/>
    <path fill="#fff" d="M53.008 12.098c-2.78 0-4.558-2.035-4.558-5.21 0-3.177 1.773-5.109 4.557-5.109 2.15 0 3.785 1.28 4.157 3.266H55.86c-.415-1.35-1.456-2.117-2.855-2.117-2.047 0-3.28 1.48-3.28 3.951s1.255 4.068 3.28 4.068c1.765 0 2.98-1.148 2.98-2.824v-.18h-2.807V6.849h4.048v.947c0 2.7-1.564 4.297-4.218 4.297v.005ZM64.977 11.932h-6.162V1.945h6.162v1.121h-4.923V6.27h4.668v1.108h-4.668v3.432h4.923v1.123ZM69.13 11.932V3.066h-3.136v-1.12h7.515v1.12h-3.137v8.866H69.13ZM77.714 11.932V1.945h1.242v9.987h-1.242ZM80.886 11.932V1.945h1.206l5.447 7.84h.062v-7.84h1.228v9.987h-1.206L82.176 4.12h-.062v7.812h-1.228ZM102.439 6.942c0 3.17-1.765 5.156-4.584 5.156-2.82 0-4.585-1.986-4.585-5.156s1.765-5.163 4.585-5.163c2.819 0 4.584 1.992 4.584 5.163Zm-7.895 0c0 2.457 1.274 4.005 3.31 4.005 2.037 0 3.311-1.55 3.311-4.005s-1.275-4.014-3.31-4.014c-2.037 0-3.31 1.55-3.31 4.014ZM103.981 11.932V1.945h1.207l5.446 7.84h.063v-7.84h1.228v9.987h-1.206l-5.447-7.812h-.062v7.812h-1.229Z"/>
</svg>
