<svg xmlns="http://www.w3.org/2000/svg" width="170" height="46" fill="none" viewBox="0 0 170 46">
    <path fill="#fff" d="M16.157 9.14c-.282-2.255.843-4.647 2.096-6.117C19.677 1.358 22.154.082 24.125 0c.255 2.351-.676 4.662-2.042 6.357-1.42 1.665-3.704 2.953-5.926 2.787V9.14ZM32.436 29.088c-.027.139-.816 2.87-2.773 5.628-1.648 2.438-3.353 4.816-6.085 4.857-2.647.054-3.534-1.554-6.578-1.554-3.044 0-4.013 1.513-6.548 1.608-2.606.098-4.574-2.601-6.28-5.01C.778 29.69-1.855 20.732 1.68 14.638 3.384 11.645 6.524 9.724 9.86 9.67c2.59-.041 5.012 1.75 6.605 1.75 1.593 0 4.547-2.158 7.618-1.835 1.284.044 4.944.517 7.31 3.935-.184.112-4.353 2.55-4.31 7.56.055 5.992 5.281 7.982 5.352 8.009ZM55.26 18.602h-4.138l-6.69 20.68h3.451l1.843-6.077h6.758l1.944 6.077h3.548l-6.718-20.68h.003Zm-4.943 12.053 1.733-5.388c.449-1.709.772-3.01.985-3.892h.069c.509 2.044.86 3.331 1.043 3.892l1.76 5.388h-5.59ZM77.371 26.148c-1.183-1.385-2.647-2.084-4.42-2.084-2.254 0-3.946.895-5.057 2.672h-.057l-.184-2.367h-2.929c.085 1.679.126 3.303.126 4.9v16.06h3.337v-7.827c.873 1.415 2.294 2.114 4.281 2.114 1.832 0 3.381-.645 4.621-1.96 1.396-1.469 2.083-3.471 2.083-6.005 0-2.28-.591-4.104-1.801-5.503Zm-2.647 9.422c-.704.952-1.675 1.442-2.93 1.442-1.07 0-1.943-.378-2.605-1.118-.663-.743-1-1.669-1-2.744v-2.492c0-.267.055-.602.157-1.007a3.742 3.742 0 0 1 1.308-2.128c.676-.53 1.424-.811 2.24-.811 1.212 0 2.181.49 2.901 1.47.662.938.986 2.127.986 3.583 0 1.581-.354 2.841-1.057 3.807v-.002ZM94.609 26.148c-1.183-1.385-2.648-2.084-4.421-2.084-2.253 0-3.942.895-5.056 2.672h-.055l-.184-2.367h-2.929c.085 1.679.126 3.303.126 4.9v16.06h3.337v-7.827c.873 1.415 2.297 2.114 4.281 2.114 1.832 0 3.381-.645 4.618-1.96 1.397-1.469 2.086-3.471 2.086-6.005 0-2.28-.59-4.104-1.803-5.503ZM91.96 35.57c-.69.952-1.678 1.442-2.929 1.442-1.07 0-1.943-.378-2.606-1.118-.662-.743-1.002-1.669-1.002-2.744v-2.492c0-.267.058-.602.156-1.007.211-.885.65-1.584 1.312-2.128.676-.53 1.42-.811 2.239-.811 1.21 0 2.182.49 2.899 1.47.662.938.985 2.127.985 3.583 0 1.581-.336 2.841-1.054 3.807v-.002ZM114.422 29.888c.859.966 1.281 2.169 1.281 3.597 0 1.764-.619 3.192-1.845 4.297-1.352 1.203-3.238 1.807-5.661 1.807-2.242 0-4.027-.435-5.379-1.287l.775-2.76c1.464.855 3.071 1.288 4.815 1.288 1.253 0 2.239-.28 2.929-.838.703-.561 1.056-1.317 1.056-2.254 0-.84-.295-1.54-.859-2.114-.578-.574-1.536-1.108-2.874-1.598-3.677-1.357-5.492-3.333-5.492-5.921 0-1.693.649-3.08 1.93-4.172 1.284-1.077 2.987-1.624 5.114-1.624 1.886 0 3.462.323 4.716.98l-.843 2.688c-1.182-.629-2.507-.953-3.999-.953-1.169 0-2.1.294-2.76.855-.55.517-.832 1.135-.832 1.878 0 .81.326 1.5.958 2.016.551.49 1.563 1.02 3.028 1.595 1.79.716 3.099 1.554 3.945 2.52h-.003ZM123.069 24.37h3.677v2.492h-3.677V34.1c0 1.835.649 2.757 1.944 2.757.591 0 1.084-.054 1.478-.155l.099 2.52c-.663.237-1.52.365-2.59.365-1.325 0-2.338-.406-3.085-1.206-.745-.797-1.114-2.142-1.114-4.017v-7.518h-2.182v-2.48h2.182v-2.73l3.268-.979V24.37ZM141.364 26.26c-1.336-1.456-3.113-2.185-5.308-2.185-2.196 0-4.098.743-5.45 2.213-1.339 1.47-2.015 3.36-2.015 5.668 0 2.308.649 4.047 1.957 5.489 1.311 1.442 3.071 2.169 5.267 2.169 2.195 0 4.111-.757 5.491-2.27 1.309-1.47 1.971-3.344 1.971-5.641s-.635-4.047-1.916-5.445l.003.002Zm-2.45 9.07c-.731 1.206-1.733 1.807-3.001 1.807-1.267 0-2.31-.587-3.027-1.78-.591-.965-.887-2.141-.887-3.512 0-1.372.282-2.602.887-3.584.69-1.19 1.719-1.78 3.058-1.78 1.338 0 2.293.588 3 1.78.591.98.887 2.141.887 3.513 0 1.371-.31 2.547-.915 3.554l-.002.002ZM154.109 24.119l.014 3.162a6.361 6.361 0 0 0-1.054-.084c-1.169 0-2.083.435-2.718 1.317-.551.767-.833 1.763-.833 2.939v7.826h-3.336V29.06c0-1.722-.028-3.29-.099-4.691h2.902l.126 2.857h.098c.351-.98.901-1.78 1.662-2.367.747-.53 1.549-.798 2.409-.798.309 0 .591.028.832.055l-.003.003ZM169.022 31.118c0-1.862-.449-3.416-1.336-4.705-1.1-1.595-2.745-2.393-4.902-2.393s-3.942.798-5.24 2.393c-1.24 1.499-1.858 3.374-1.858 5.616 0 2.243.662 4.115 1.984 5.473 1.325 1.358 3.154 2.043 5.478 2.043 1.93 0 3.605-.307 5.028-.925l-.52-2.294c-1.212.463-2.565.7-4.043.7-1.336 0-2.422-.351-3.266-1.037-.93-.77-1.407-1.905-1.45-3.375h9.997c.084-.405.126-.908.126-1.5l.002.004Zm-10.112-.868c.099-.996.438-1.862.986-2.578.676-.895 1.563-1.344 2.647-1.344 1.182 0 2.072.463 2.647 1.388.449.713.676 1.567.649 2.547l-6.932-.013h.003ZM51.697 1.146c3.454 0 5.499 2.111 5.499 5.755 0 3.644-2.037 5.794-5.5 5.794H47.6V1.145h4.098Zm-2.294 9.995h2.124c2.463 0 3.824-1.497 3.824-4.226 0-2.73-1.369-4.227-3.824-4.227h-2.124v8.453ZM58.321 8.485c0-2.705 1.602-4.362 4.019-4.362s4.018 1.657 4.018 4.362-1.593 4.37-4.018 4.37c-2.426 0-4.019-1.657-4.019-4.37Zm6.264 0c0-1.864-.887-2.936-2.248-2.936-1.36 0-2.247 1.072-2.247 2.936 0 1.864.887 2.944 2.247 2.944 1.36 0 2.248-1.072 2.248-2.944ZM76.525 12.695h-1.812l-1.78-6.308h-.04l-1.764 6.308h-1.795l-2.327-8.42h1.738l1.547 6.626h.033l1.763-6.626h1.675l1.77 6.626h.042l1.547-6.626h1.721l-2.318 8.42ZM79.906 4.275h1.659v1.41h.04c.46-.96 1.361-1.554 2.664-1.554 1.867 0 2.938 1.184 2.938 3.113v5.45H85.46V7.582c0-1.265-.597-1.962-1.804-1.962s-2.012.866-2.012 2.17v4.906h-1.738v-8.42ZM88.947 1.146h1.739v11.549h-1.739V1.145ZM92.095 8.485c0-2.705 1.602-4.362 4.019-4.362s4.018 1.657 4.018 4.362-1.593 4.37-4.018 4.37c-2.426 0-4.019-1.657-4.019-4.37Zm6.263 0c0-1.864-.886-2.936-2.247-2.936-1.36 0-2.247 1.072-2.247 2.936 0 1.864.886 2.944 2.247 2.944 1.36 0 2.247-1.072 2.247-2.944ZM101.135 10.3c0-1.472 1.136-2.376 3.148-2.49l2.318-.136v-.648c0-.936-.635-1.496-1.7-1.496-1.007 0-1.634.479-1.787 1.232h-1.643c.096-1.52 1.402-2.642 3.493-2.642 2.092 0 3.365 1.08 3.365 2.77v5.802h-1.668v-1.385h-.041c-.49.936-1.563 1.53-2.671 1.53-1.659 0-2.817-1.024-2.817-2.537h.003Zm5.466-.76v-.663l-2.086.128c-1.037.07-1.626.528-1.626 1.249 0 .721.613 1.216 1.547 1.216 1.215 0 2.165-.832 2.165-1.93ZM109.637 8.485c0-2.656 1.418-4.346 3.542-4.346 1.215 0 2.182.61 2.658 1.537h.033v-4.53h1.746v11.549h-1.691v-1.432h-.033c-.498.96-1.465 1.576-2.697 1.576-2.14 0-3.558-1.695-3.558-4.354Zm1.779 0c0 1.777.862 2.89 2.239 2.89 1.377 0 2.231-1.13 2.231-2.89 0-1.76-.892-2.89-2.231-2.89-1.338 0-2.239 1.121-2.239 2.89ZM122.357 8.485c0-2.705 1.602-4.362 4.019-4.362s4.018 1.657 4.018 4.362-1.593 4.37-4.018 4.37-4.019-1.657-4.019-4.37Zm6.264 0c0-1.864-.887-2.936-2.248-2.936-1.36 0-2.247 1.072-2.247 2.936 0 1.864.887 2.944 2.247 2.944 1.361 0 2.248-1.072 2.248-2.944ZM131.736 4.275h1.659v1.41h.041c.46-.96 1.36-1.554 2.663-1.554 1.867 0 2.938 1.184 2.938 3.113v5.45h-1.747V7.582c0-1.265-.597-1.962-1.804-1.962s-2.012.866-2.012 2.17v4.906h-1.738v-8.42ZM146.307 2.28v1.992h1.61v1.37h-1.61v4.642c0 .729.323 1.055 1.029 1.055.178 0 .46-.016.573-.04v1.369c-.195.049-.581.078-.967.078-1.713 0-2.384-.647-2.384-2.272V5.641h-1.232V4.272h1.232V2.28H146.307ZM149.409 1.146h1.722v4.539h.041c.468-.985 1.393-1.554 2.68-1.554 1.858 0 2.97 1.233 2.97 3.137v5.427h-1.747v-5.09c0-1.24-.627-1.983-1.85-1.983-1.29 0-2.078.882-2.078 2.21v4.865h-1.738V1.146ZM165.759 10.221c-.241 1.537-1.705 2.634-3.646 2.634-2.488 0-3.994-1.673-3.994-4.33 0-2.655 1.53-4.402 3.92-4.402 2.39 0 3.816 1.649 3.816 4.201v.593h-5.981v.104c0 1.464.887 2.433 2.277 2.433.991 0 1.722-.495 1.958-1.233h1.65Zm-5.877-2.512h4.235c-.041-1.29-.862-2.193-2.078-2.193-1.215 0-2.069.92-2.157 2.193Z"/>
</svg>
