<svg width="50" height="50" viewBox="0 0 50 50" fill="none" xmlns="http://www.w3.org/2000/svg">
<path d="M25 0C11.1942 0 0 11.1942 0 25C0 38.8058 11.1942 50 25 50C38.8058 50 50 38.8058 50 25C50 11.1942 38.8058 0 25 0ZM23.2143 12.9464C23.2143 12.7009 23.4152 12.5 23.6607 12.5H26.3393C26.5848 12.5 26.7857 12.7009 26.7857 12.9464V28.125C26.7857 28.3705 26.5848 28.5714 26.3393 28.5714H23.6607C23.4152 28.5714 23.2143 28.3705 23.2143 28.125V12.9464ZM25 37.5C24.2991 37.4857 23.6317 37.1972 23.141 36.6964C22.6504 36.1957 22.3755 35.5225 22.3755 34.8214C22.3755 34.1203 22.6504 33.4472 23.141 32.9464C23.6317 32.4457 24.2991 32.1572 25 32.1429C25.7009 32.1572 26.3683 32.4457 26.859 32.9464C27.3496 33.4472 27.6245 34.1203 27.6245 34.8214C27.6245 35.5225 27.3496 36.1957 26.859 36.6964C26.3683 37.1972 25.7009 37.4857 25 37.5Z" fill="currentColor"/>
</svg>
