<svg xmlns="http://www.w3.org/2000/svg" width="16" height="16" fill="none" viewBox="0 0 16 16"><path stroke="currentColor" stroke-width="1.5" d="M13.996 2.528c.397.403.712.882.928 1.41a4.414 4.414 0 0 1 0 3.334 4.35 4.35 0 0 1-.928 1.41l-5.957 6.052-.002.002a.049.049 0 0 1-.016.01.039.039 0 0 1-.03 0 .049.049 0 0 1-.016-.01l-.003-.002-5.957-6.052-.001-.002a4.382 4.382 0 0 1-1.26-2.916 4.394 4.394 0 0 1 1.032-3.009 4.206 4.206 0 0 1 5.767-.65l.451.34.452-.339a4.207 4.207 0 0 1 2.846-.834 4.23 4.23 0 0 1 2.694 1.256Z"/></svg>
