<svg xmlns="http://www.w3.org/2000/svg" width="26" height="26" fill="none" viewBox="0 0 26 26">
    <path fill="#F2C247" d="m6.202 4.497-.11.14-3.167-.785-.032-.176a.406.406 0 0 0-.8.137c.279 1.622.594 3.262.934 4.875a.406.406 0 0 0 .71.176 129.804 129.804 0 0 0 3.105-3.87.406.406 0 0 0-.643-.497h.003ZM17.98 6.254a.405.405 0 0 0-.557.14l-.093.152-3.231-.412-.052-.17a.406.406 0 0 0-.78.229c.464 1.573.968 3.165 1.496 4.732a.407.407 0 0 0 .725.092c.9-1.381 1.788-2.795 2.633-4.207a.406.406 0 0 0-.14-.556ZM11.785 5.61l-.102.146-3.201-.596c-.014-.058-.03-.117-.04-.174a.406.406 0 0 0-.792.184c.372 1.602.782 3.22 1.219 4.81a.406.406 0 0 0 .716.137c.981-1.327 1.95-2.688 2.873-4.046a.406.406 0 0 0-.671-.457l-.002-.004ZM23.65 6.676a.406.406 0 0 0-.549.171c-.027.053-.056.106-.084.158l-3.253-.22a9.45 9.45 0 0 0-.062-.168.407.407 0 0 0-.764.275 130.853 130.853 0 0 0 1.77 4.636.407.407 0 0 0 .35.253h.027a.405.405 0 0 0 .352-.203 126.799 126.799 0 0 0 2.385-4.353.405.405 0 0 0-.172-.549Z"/>
    <path fill="#EFEFEF" d="M24.689 7.491h-.014A98.18 98.18 0 0 1 1.2 3.807a.406.406 0 0 1 .222-.782 97.354 97.354 0 0 0 23.28 3.656.406.406 0 1 1-.013.813V7.49Z"/>
    <path fill="#F2C247" d="M23.574 14.553a.404.404 0 0 0-.469.331l-.032.177-3.164.785-.11-.14a.406.406 0 1 0-.644.495c1.002 1.3 2.046 2.602 3.105 3.872a.406.406 0 0 0 .71-.176c.341-1.613.656-3.253.934-4.875a.407.407 0 0 0-.33-.469ZM12.457 16.9a.406.406 0 0 0-.504.274l-.052.172-3.231.41c-.03-.05-.063-.101-.093-.152a.406.406 0 1 0-.696.416 129.583 129.583 0 0 0 2.633 4.207.406.406 0 0 0 .725-.093 127.858 127.858 0 0 0 1.495-4.731.406.406 0 0 0-.277-.503ZM18.048 15.888a.406.406 0 0 0-.487.304c-.014.058-.029.116-.041.174l-3.201.599-.102-.147a.406.406 0 0 0-.672.457 128.909 128.909 0 0 0 2.873 4.047.406.406 0 0 0 .717-.135c.435-1.591.845-3.21 1.218-4.81a.404.404 0 0 0-.305-.489ZM6.817 17.58a.406.406 0 0 0-.52.244l-.061.168-3.254.221-.084-.158a.406.406 0 1 0-.72.377 130.664 130.664 0 0 0 2.384 4.353.407.407 0 0 0 .353.203h.028a.406.406 0 0 0 .349-.253 129.637 129.637 0 0 0 1.77-4.636.406.406 0 0 0-.245-.519Z"/>
    <path fill="#EFEFEF" d="M1.311 18.7a.406.406 0 1 1-.014-.812 97.312 97.312 0 0 0 23.28-3.656.406.406 0 1 1 .223.781 98.14 98.14 0 0 1-23.475 3.685l-.014.003Z"/>
</svg>
