<svg xmlns="http://www.w3.org/2000/svg" width="25" height="25" fill="none" viewBox="0 0 25 25">
    <path fill="#F2C247" d="M18.353 6.055A7.084 7.084 0 0 0 12.5 4.396a7.084 7.084 0 0 0-5.853 1.659c-1.553 1.468-2.707 4.04-2.249 5.98.289.083.585.136.884.156a6.055 6.055 0 0 0 .739 4.888c.362-.05.718-.134 1.064-.252a7.128 7.128 0 0 0 2.17 3.968c.237-.155.464-.327.677-.515a6.004 6.004 0 0 0 2.568 3.548 6.004 6.004 0 0 0 2.568-3.549l.004-.009c.216.192.447.366.69.523a7.126 7.126 0 0 0 2.157-3.965c.344.117.7.2 1.06.25a6.056 6.056 0 0 0 .739-4.887c.3-.021.595-.073.884-.157.458-1.938-.696-4.51-2.25-5.98Z"/>
    <path fill="#141414" d="M12.5 24.219a.39.39 0 0 1-.208-.06 6.363 6.363 0 0 1-2.738-3.779.391.391 0 0 1 .755-.202 5.605 5.605 0 0 0 2.191 3.181 5.5 5.5 0 0 0 1.614-1.778.388.388 0 0 1 .389-.193.393.393 0 0 1 .338.437.392.392 0 0 1-.049.144 6.254 6.254 0 0 1-2.084 2.188.39.39 0 0 1-.208.062Z"/>
    <path fill="#141414" d="M9.254 21.184a.39.39 0 0 1-.257-.096 7.52 7.52 0 0 1-2.294-4.184.39.39 0 0 1 .765-.156 6.875 6.875 0 0 0 1.822 3.545 5.79 5.79 0 0 0 .385-.309 6.85 6.85 0 0 0 1.62-2.185.39.39 0 1 1 .704.337 7.635 7.635 0 0 1-1.81 2.436c-.228.2-.47.384-.725.549a.39.39 0 0 1-.21.063Z"/>
    <path fill="#141414" d="M6.02 17.468a.391.391 0 0 1-.325-.175 6.433 6.433 0 0 1-.79-5.203.39.39 0 1 1 .754.2 5.68 5.68 0 0 0 .555 4.361c.253-.047.502-.112.746-.195a5.791 5.791 0 0 0 3.047-2.468.392.392 0 0 1 .727.263.39.39 0 0 1-.063.146 6.57 6.57 0 0 1-3.462 2.798 6.035 6.035 0 0 1-1.188.273ZM15.761 21.183a.39.39 0 0 1-.21-.062 6.228 6.228 0 0 1-.738-.558 8.141 8.141 0 0 1-2.395-4.023.392.392 0 1 1 .755-.201 7.36 7.36 0 0 0 2.155 3.636c.131.115.264.221.396.318a6.876 6.876 0 0 0 1.811-3.543.39.39 0 1 1 .767.156 7.52 7.52 0 0 1-2.283 4.18.39.39 0 0 1-.258.097Z"/>
    <path fill="#141414" d="M18.98 17.469a.394.394 0 0 1-.053-.004 6.036 6.036 0 0 1-1.133-.267 6.569 6.569 0 0 1-3.466-2.8.39.39 0 1 1 .665-.409 5.79 5.79 0 0 0 3.051 2.469c.242.083.49.148.742.195a5.68 5.68 0 0 0 .555-4.36.39.39 0 1 1 .755-.201 6.434 6.434 0 0 1-.79 5.201.391.391 0 0 1-.327.176Z"/>
    <path fill="#141414" d="M12.5 17.031a.39.39 0 0 1-.208-.06 6.344 6.344 0 0 1-2.305-2.607 6.745 6.745 0 0 1-.648-3.447.392.392 0 0 1 .78.056 5.97 5.97 0 0 0 .572 3.05 5.552 5.552 0 0 0 1.744 2.101l.065.048.067-.048a5.559 5.559 0 0 0 1.74-2.1 5.94 5.94 0 0 0 .505-1.59.388.388 0 0 1 .45-.32.391.391 0 0 1 .32.45 6.739 6.739 0 0 1-.57 1.798 6.34 6.34 0 0 1-1.988 2.396c-.104.075-.21.146-.317.213a.391.391 0 0 1-.207.06Z"/>
    <path fill="#141414" d="M5.68 12.596c-.144 0-.288-.005-.429-.016a4.673 4.673 0 0 1-.964-.17.39.39 0 0 1-.269-.284c-.518-2.188.83-4.909 2.36-6.355a7.438 7.438 0 0 1 6.203-1.758.39.39 0 0 1-.163.764A6.696 6.696 0 0 0 6.915 6.34C5.581 7.6 4.441 9.912 4.734 11.719c.19.04.384.068.578.082a7.117 7.117 0 0 0 4.204-1.184c.295-.191.573-.408.83-.647.31-.294.595-.614.85-.956a.39.39 0 0 1 .624.468 8.21 8.21 0 0 1-.937 1.057 6.772 6.772 0 0 1-.94.733 8.138 8.138 0 0 1-4.262 1.324Z"/>
    <path fill="#141414" d="M19.32 12.596a8.137 8.137 0 0 1-4.264-1.325 6.8 6.8 0 0 1-.937-.733 8.403 8.403 0 0 1-1.979-2.89 6.373 6.373 0 0 1-.449-1.75.39.39 0 1 1 .777-.078c.058.527.191 1.043.395 1.533a7.604 7.604 0 0 0 1.79 2.617c.258.24.536.456.831.647a7.115 7.115 0 0 0 4.204 1.184c.194-.014.388-.042.578-.082.293-1.807-.847-4.12-2.182-5.38a6.692 6.692 0 0 0-5.503-1.562.39.39 0 1 1-.162-.764A7.436 7.436 0 0 1 18.62 5.77c1.53 1.445 2.878 4.165 2.36 6.354a.391.391 0 0 1-.269.285c-.314.09-.637.147-.964.17-.139.01-.284.016-.429.016Z"/>
    <path fill="#EFEFEF" d="M12.5 4.687a.39.39 0 0 1-.379-.295 9.031 9.031 0 0 1-.195-1.02c-.865-.253-1.77-.882-1.77-2.2a.39.39 0 0 1 .781 0 1.395 1.395 0 0 0 .94 1.357c-.01-.452.12-.897.375-1.271a1.254 1.254 0 0 1 1.03-.477 1.204 1.204 0 0 1 1.225 1.262c0 .377-.148.74-.41 1.01a1.673 1.673 0 0 1-1.363.458c.036.218.084.449.145.69a.39.39 0 0 1-.379.486Zm.156-1.967c.13.014.219.014.235.014a.887.887 0 0 0 .648-.228.664.664 0 0 0 .187-.463.442.442 0 0 0-.445-.48.466.466 0 0 0-.413.176c-.173.296-.247.64-.212.98Z"/>
</svg>
