<svg width="1125" height="903" viewBox="0 0 1125 903" fill="none" xmlns="http://www.w3.org/2000/svg">
<g clip-path="url(#clip0_6282_10215)">
<path d="M883.31 494.955H561.799C543.885 494.955 529.363 509.515 529.363 527.476V628.465C529.363 646.426 543.885 660.987 561.799 660.987H883.31C901.224 660.987 915.746 646.426 915.746 628.465V527.476C915.746 509.515 901.224 494.955 883.31 494.955Z" fill="#272727"/>
<path d="M1125 263V903.35H590.164V893.97H639.805V746.229C639.805 738.472 646.101 732.159 653.838 732.159H1110.39C1112.25 732.159 1114.03 732.524 1115.64 733.19V464.912H691.194V327.021C691.194 316.656 699.568 308.26 709.905 308.26H728.616C738.954 308.26 747.327 316.656 747.327 327.021V408.63H1115.64V272.38H630.477V405.225H591.184V395.845H621.122V273.9H359.167V395.845H553.762V405.225H349.812V272.38H288.421V406.632H9.35551V438.75H344.489V522.236H335.133V448.131H9.56133V634.8H335.133V559.757H344.489V644.18H9.35551V697.92H217.983V707.301H9.35551V893.97H255.405V697.92H484.615V893.97H534.031V903.35H0V263H464.033V148.091H396.627L668.451 0.350098L940.275 148.091H885.031V263H1125Z" fill="#272727"/>
<path d="M625.753 117.995C626.351 118.408 626.885 118.915 627.343 119.477C627.792 120.031 628.082 120.706 628.185 121.419C628.26 122.123 628.148 122.817 627.886 123.464C627.614 124.102 627.268 124.712 626.857 125.284L624.48 128.661L623.46 127.92L624.143 126.897L618.025 122.526L617.342 123.502L616.322 122.761L618.83 119.159C619.26 118.493 619.812 117.92 620.457 117.461C621.131 117.029 621.926 116.832 622.721 116.86C623.105 116.86 623.47 116.926 623.825 117.01C624.162 117.114 624.48 117.245 624.789 117.404C625.144 117.573 625.491 117.761 625.809 117.977H625.753V117.995ZM624.611 119.646L624.274 119.431L623.835 119.196C623.479 119.008 623.096 118.868 622.693 118.774C622.291 118.699 621.879 118.699 621.468 118.774C621.094 118.84 620.747 119.008 620.448 119.252C620.139 119.534 619.859 119.853 619.625 120.2L619.054 120.997L625.173 125.368L625.435 124.993C625.865 124.458 626.202 123.858 626.454 123.22C626.595 122.554 626.482 121.841 626.117 121.25C626.061 121.138 625.987 121.035 625.912 120.931C625.846 120.838 625.781 120.753 625.696 120.669C625.622 120.584 625.528 120.5 625.416 120.378C625.304 120.265 625.182 120.153 625.07 120.059L624.536 119.618H624.611V119.646ZM637.344 114.168L635.501 115.875L633.695 114.703C633.134 114.29 632.489 113.99 631.815 113.84C631.675 113.84 631.544 113.859 631.422 113.924C631.291 113.999 631.169 114.093 631.057 114.206L630.842 114.403L630.131 115.05L632.17 117.254L633.031 116.466L633.883 117.395L630.73 120.322L629.85 119.402L630.748 118.577L625.65 113.005L624.77 113.83L623.91 112.902L627.493 109.591C627.848 109.234 628.241 108.934 628.681 108.69C628.98 108.54 629.289 108.446 629.626 108.399C630.019 108.352 630.421 108.418 630.786 108.596C631.169 108.774 631.525 109.028 631.806 109.356C632.245 109.806 632.498 110.397 632.526 111.016C632.545 111.645 632.311 112.255 631.871 112.705C632.189 112.423 632.591 112.264 633.012 112.236C633.424 112.33 633.826 112.498 634.173 112.752L635.894 113.774L636.511 113.202L637.372 114.14V114.196L637.344 114.178V114.168ZM630.356 110.679C630.187 110.5 629.991 110.36 629.766 110.257C629.551 110.163 629.308 110.125 629.074 110.135C628.896 110.153 628.718 110.219 628.569 110.313C628.363 110.454 628.166 110.622 627.989 110.791L627.044 111.654L629.28 114.084L630 113.408C630.225 113.202 630.421 112.977 630.617 112.733C630.767 112.527 630.851 112.273 630.879 112.02C630.898 111.776 630.87 111.532 630.767 111.307C630.664 111.073 630.524 110.866 630.346 110.679H630.356ZM646.821 108.456L643.266 110.5L642.639 109.394L643.668 108.803L642.228 107.518L638.963 109.347L639.318 111.176L640.338 110.576L640.965 111.692L637.634 113.577L637.091 112.498L637.793 112.105L636.315 102.762L638.354 101.627L645.493 107.761L646.204 107.367L646.821 108.484V108.446V108.456ZM641.161 106.608L637.98 103.7L638.775 107.958L641.161 106.598V106.608ZM652.856 98.9814L651.359 99.4504L650.76 97.565L647.514 98.5874L648.533 101.702L649.796 101.298L649.394 100.06L650.648 99.6568L651.864 103.418L650.61 103.822L650.189 102.508L648.945 102.996L649.852 105.876L651.218 105.435L651.611 106.636L647.28 107.987L646.896 106.767L648 106.401L645.689 99.2347L644.576 99.5911L644.22 98.3435L651.864 95.8671L652.893 98.9439L652.856 98.972V98.9814ZM663.053 97.1897L661.453 97.4711L661.088 95.4168L659.507 95.6326L660.723 102.996L662.061 102.771L662.258 104.028L657.683 104.797L657.468 103.587L658.806 103.362L657.58 95.9421L656.036 96.2048L656.383 98.2497L654.764 98.5311L654.193 95.1261L662.436 93.7847L662.997 97.1804H663.053V97.1897ZM682.447 101.983C682.391 102.499 682.204 102.977 681.914 103.4C681.614 103.822 681.231 104.159 680.782 104.403C679.827 104.863 678.752 104.994 677.713 104.769C677.049 104.713 676.403 104.497 675.823 104.141C675.253 103.784 674.775 103.296 674.42 102.724C673.802 101.495 673.643 100.088 673.943 98.7469C674.064 97.8651 674.345 97.0115 674.794 96.2517C675.094 95.7358 675.515 95.3043 676.02 94.9947C676.413 94.7227 676.862 94.5163 677.33 94.3944C677.91 94.2724 678.508 94.2724 679.098 94.3944C679.622 94.46 680.136 94.6101 680.613 94.8446C681.09 95.0885 681.483 95.4825 681.727 95.9703L681.923 95.0322L683.476 95.2855L682.831 98.9345L681.147 98.6437C681.306 97.9964 681.231 97.3023 680.894 96.7207C680.726 96.4393 680.482 96.1954 680.211 96.0266C679.93 95.8483 679.612 95.7358 679.285 95.6983C678.845 95.6045 678.405 95.642 677.994 95.8108C677.582 95.9703 677.227 96.2517 676.974 96.6082C676.431 97.3398 676.085 98.1934 675.954 99.0939C675.758 99.9663 675.758 100.876 675.954 101.749C676.048 102.189 676.291 102.602 676.628 102.902C676.965 103.203 677.395 103.4 677.844 103.456C678.134 103.512 678.443 103.521 678.733 103.456C679.032 103.4 679.313 103.287 679.565 103.118C679.799 102.949 680.005 102.724 680.155 102.471C680.305 102.218 680.398 101.927 680.436 101.636L682.428 102.002L682.447 101.974V101.983ZM691.232 108.831L688.874 107.93C688.986 107.039 689.071 106.326 689.127 105.782C689.248 105.107 689.23 104.403 689.071 103.737C689.024 103.606 688.94 103.493 688.827 103.418C688.696 103.334 688.556 103.268 688.416 103.212L688.154 103.006L687.256 102.658L686.236 105.454L687.321 105.876L686.816 107.105L682.803 105.557L683.252 104.366L684.384 104.807L687.087 97.7338L685.955 97.2929L686.404 96.1016L690.951 97.8745C691.428 98.0433 691.877 98.2591 692.289 98.5405C692.56 98.7375 692.785 98.9814 692.963 99.2628C693.187 99.6005 693.309 99.9945 693.309 100.398C693.309 100.801 693.234 101.242 693.075 101.636C692.869 102.218 692.457 102.687 691.915 102.987C691.353 103.278 690.699 103.343 690.1 103.156C690.493 103.324 690.811 103.634 691.017 104.009C691.101 104.431 691.101 104.863 691.017 105.276L690.839 107.33L691.615 107.621L691.157 108.812H691.232V108.831ZM691.232 100.989C691.316 100.764 691.353 100.52 691.344 100.285C691.335 100.041 691.26 99.8069 691.138 99.6005C691.054 99.441 690.914 99.3097 690.755 99.2253C690.54 99.1033 690.324 99.0095 690.1 98.9157L688.912 98.4655L687.742 101.542L688.659 101.908C688.94 102.021 689.239 102.105 689.538 102.152C689.782 102.171 690.034 102.114 690.259 102.002C690.493 101.917 690.689 101.777 690.848 101.598C691.017 101.42 691.138 101.205 691.241 100.979V101.008H691.232V100.989ZM700.625 114.684L697.163 112.508L697.837 111.485L698.857 112.133L699.278 110.182L696.115 108.137L694.628 109.365L695.657 110.013L694.974 111.101L691.737 109.056L692.411 107.968L693.094 108.399L700.587 102.687L702.543 103.925L700.625 113.136L701.308 113.568L700.634 114.647V114.703H700.625V114.684ZM699.596 108.85L700.625 104.628L697.238 107.321L699.596 108.803V108.84V108.85ZM711.515 115.725L710.485 114.675L711.795 113.24L709.316 110.894L707.071 113.24L708.034 114.149L708.923 113.211L709.943 114.121L707.239 116.982L706.275 116.072L707.22 115.05L706.257 114.14L704.217 116.335L705.237 117.358L704.376 118.296L701.083 115.162L701.944 114.243L702.786 115.05L707.969 109.544L707.117 108.737L707.988 107.818L713.825 113.361L711.496 115.725H711.515ZM717.745 124.393L716.8 123.061L718.531 121.823L717.614 120.537L711.515 124.909L712.31 126.016L711.29 126.757L708.586 122.958L709.606 122.217L710.401 123.333L716.52 118.971L715.603 117.686L713.891 118.915L712.946 117.583L715.734 115.538L720.58 122.357L717.783 124.402H717.745V124.393Z" fill="#F2C247"/>
<path d="M682.839 137.235H673.793V134.73H676.487V121.11L676.347 121.251C676.029 121.551 675.682 121.842 675.327 122.104C675.102 122.273 674.878 122.433 674.663 122.611L672.137 124.374V121.007C672.885 120.491 673.652 119.928 674.466 119.318C675.261 118.718 676.001 118.099 676.712 117.47H680.285V134.73H682.849V137.235H682.839ZM697.406 131.832C697.425 132.488 697.359 133.145 697.209 133.773C697.022 134.364 696.714 134.908 696.302 135.368C695.572 136.231 694.59 136.86 693.495 137.16C692.625 137.413 691.736 137.554 690.829 137.554C689.145 137.647 687.489 137.132 686.142 136.109C685.515 135.556 685.029 134.871 684.701 134.102C684.383 133.333 684.233 132.498 684.28 131.672H688.06C688.004 132.498 688.247 133.323 688.733 133.989C689.014 134.317 689.36 134.561 689.753 134.73C690.146 134.899 690.567 134.965 690.988 134.937C691.4 134.918 691.793 134.796 692.129 134.571C692.494 134.383 692.803 134.092 693.018 133.745C693.402 133.136 693.589 132.423 693.561 131.7C693.561 131.194 693.495 130.697 693.364 130.218C693.224 129.759 692.981 129.336 692.653 128.98C692.429 128.746 692.148 128.577 691.83 128.502C691.493 128.417 691.156 128.38 690.81 128.38H689.585V125.903C690.567 125.96 691.531 125.697 692.345 125.162C692.7 124.843 692.981 124.449 693.149 123.999C693.336 123.558 693.402 123.07 693.355 122.592C693.383 121.851 693.159 121.138 692.728 120.547C692.504 120.256 692.204 120.012 691.877 119.853C691.549 119.693 691.175 119.618 690.81 119.637C690.417 119.609 690.006 119.693 689.66 119.872C689.295 120.05 688.995 120.322 688.78 120.66C688.359 121.354 688.153 122.161 688.2 122.967H684.477C684.477 122.489 684.533 122.001 684.645 121.541C684.748 120.838 685.001 120.172 685.393 119.572C685.786 118.981 686.292 118.483 686.9 118.108C688.135 117.395 689.547 117.048 690.979 117.086C691.746 117.086 692.504 117.17 693.261 117.33C694.01 117.498 694.702 117.846 695.301 118.352C695.956 118.906 696.452 119.609 696.751 120.416C696.976 121.026 697.097 121.663 697.107 122.32C697.144 123.174 696.994 124.037 696.676 124.834C696.255 125.566 695.647 126.157 694.917 126.551C694.646 126.701 694.365 126.823 694.066 126.907C693.767 127.001 693.458 127.085 693.149 127.151C694.001 127.235 694.814 127.489 695.563 127.911C696.218 128.38 696.723 129.036 697.013 129.796C697.266 130.453 697.406 131.147 697.415 131.841V131.822L697.406 131.832Z" fill="#F2C247"/>
<path d="M636.221 172.58C634.181 172.917 632.17 173.283 630.196 173.668C629.672 171.079 629.232 168.987 628.905 167.383C628.278 164.306 627.66 162.271 627.034 161.454C626.828 161.154 626.538 160.939 626.201 160.826C625.845 160.732 625.49 160.685 625.116 160.704H624.442L622.159 160.788V171.116L624.947 170.61V174.803C621.486 175.638 618.052 176.566 614.656 177.579V172.673L617.556 172.035V144.148C616.537 143.941 615.62 143.726 614.656 143.5V138.613C618.529 139.748 622.403 140.78 626.285 141.69C627.511 141.934 628.699 142.356 629.812 142.919C630.617 143.36 631.356 143.932 631.983 144.607C632.787 145.489 633.386 146.54 633.723 147.684C634.097 148.885 634.284 150.132 634.284 151.389C634.34 153.162 633.844 154.926 632.862 156.408C632.413 157.055 631.824 157.608 631.15 158.012C630.476 158.415 629.719 158.678 628.933 158.772C629.999 158.856 630.991 159.353 631.693 160.169C632.301 161.22 632.712 162.383 632.909 163.593C633.33 165.488 633.77 167.364 634.219 169.221C634.873 169.128 635.538 169.053 636.211 168.977V172.626H636.221V172.608V172.58ZM629.541 151.089C629.541 150.329 629.438 149.579 629.204 148.857C628.98 148.153 628.643 147.506 628.184 146.943C627.866 146.558 627.455 146.268 626.987 146.08C626.397 145.883 625.789 145.742 625.191 145.649L622.122 145.095V156.455L624.461 156.52C625.191 156.539 625.93 156.464 626.631 156.286C627.267 156.117 627.829 155.761 628.259 155.263C628.708 154.738 629.036 154.119 629.223 153.453C629.438 152.684 629.541 151.896 629.532 151.108V151.089H629.541ZM660.723 148.941C659.918 148.941 659.104 148.941 658.309 148.885V161.22C658.318 162.102 658.272 162.974 658.159 163.846C658.056 164.428 657.897 164.991 657.654 165.526C656.934 167.289 655.689 168.781 654.099 169.803C653.341 170.263 652.537 170.61 651.676 170.825C650.778 171.107 649.852 171.294 648.916 171.398C648.055 171.454 647.195 171.426 646.334 171.304C645.511 171.201 644.706 170.975 643.948 170.628C643.275 170.309 642.676 169.859 642.18 169.315C641.619 168.668 641.151 167.955 640.786 167.176C640.365 166.332 640.113 165.432 640.01 164.494C639.897 163.237 639.841 161.97 639.86 160.704V147.637L637.446 147.375V143.782C640.786 144.251 644.117 144.664 647.457 145.02V148.303L644.463 148.069V160.742C644.454 161.792 644.491 162.852 644.585 163.903C644.687 164.634 644.959 165.329 645.342 165.948C645.726 166.632 646.315 167.176 647.017 167.495C647.756 167.824 648.561 167.955 649.356 167.889C649.749 167.871 650.142 167.805 650.516 167.683C650.769 167.589 651.143 167.402 651.639 167.167C652.2 166.848 652.686 166.379 653.004 165.807C653.379 165.197 653.659 164.531 653.856 163.837C653.977 163.434 654.043 163.012 654.062 162.599V148.688L651.105 148.538V145.339C654.305 145.555 657.495 145.733 660.685 145.855V148.932L660.723 148.95V148.932V148.941ZM680.706 170.488C674.475 170.253 668.254 170.188 662.042 170.272V167.195H664.858V149.035H662.042V145.958C665.728 146.033 669.414 146.033 673.109 145.958V149.035H669.47V167.13C671.865 167.13 674.26 167.167 676.674 167.233V161.661H680.744V170.422L680.706 170.497V170.488ZM702.505 172.833C695.853 171.829 689.22 171.06 682.587 170.525V167.448L685.375 167.589V148.575L682.587 148.716V145.574C689.229 145.058 695.871 144.317 702.505 143.332V152.346L698.8 152.571V147.459C695.853 147.769 692.915 148.022 689.987 148.256V156.201H693.514V152.693L696.713 152.524V163.105L693.514 162.965V159.578H689.987V167.861C692.915 168.096 695.853 168.349 698.8 168.668V163.209L702.505 163.424V172.823V172.833ZM722.553 166.933C722.581 168.227 722.46 169.531 722.188 170.797C721.945 171.763 721.58 172.683 721.085 173.536C720.813 174.155 720.411 174.7 719.906 175.15C719.401 175.591 718.811 175.928 718.166 176.125C717.09 176.35 715.958 176.304 714.901 175.994C713.731 175.713 712.636 175.187 711.664 174.474C710.578 173.621 709.736 172.486 709.24 171.191V174.127L705.48 173.368V162.786L709.446 163.03C709.381 164.85 709.699 166.67 710.391 168.349C710.672 169.09 711.13 169.756 711.738 170.281C712.346 170.807 713.067 171.154 713.853 171.323C714.33 171.454 714.844 171.463 715.322 171.323C715.799 171.201 716.257 170.957 716.613 170.61C717.052 170.103 717.37 169.522 717.586 168.874C717.782 168.246 717.857 167.57 717.801 166.904C717.829 165.816 717.604 164.747 717.136 163.762C716.435 162.636 715.424 161.717 714.236 161.126C713.217 160.526 712.197 159.935 711.168 159.391C710.148 158.847 709.39 158.453 708.979 158.19C707.865 157.402 706.958 156.342 706.35 155.113C705.742 153.884 705.461 152.524 705.517 151.155C705.517 149.917 705.704 148.688 706.05 147.506C706.284 146.68 706.602 145.883 706.995 145.114C707.528 144.054 708.286 143.116 709.212 142.375C710.223 141.577 711.402 141.015 712.646 140.724C713.712 140.424 714.844 140.396 715.92 140.649C716.444 140.818 716.931 141.118 717.314 141.502C717.707 141.896 718.016 142.365 718.194 142.9V139.823C719.447 139.476 720.692 139.11 721.955 138.735V151.493L718.063 151.886V150.723C718.156 149.035 717.782 147.356 716.977 145.874C716.659 145.348 716.182 144.945 715.612 144.711C715.041 144.485 714.405 144.457 713.825 144.617C713.245 144.72 712.683 144.926 712.169 145.217C711.664 145.536 711.261 145.986 710.999 146.521C710.438 147.59 710.148 148.782 710.185 149.992C710.157 150.526 710.26 151.061 710.457 151.549C710.663 152.046 710.971 152.487 711.364 152.853C712.094 153.444 712.917 153.931 713.787 154.288C714.807 154.747 715.724 155.31 716.706 155.77C717.698 156.23 718.035 156.427 718.119 156.483C718.923 156.999 719.653 157.637 720.28 158.368C720.86 159.044 721.318 159.832 721.608 160.676C721.936 161.651 722.179 162.655 722.329 163.678C722.488 164.747 722.572 165.826 722.553 166.904L722.525 166.923H722.553V166.933Z" fill="#F2C247"/>
<path d="M629.757 185.881H627.016V184.737H629.757V185.881ZM668.938 188.508H666.889L666.29 187.861L666.187 187.945C665.878 188.179 665.532 188.348 665.167 188.461C664.774 188.573 664.372 188.63 663.97 188.63C663.624 188.63 663.287 188.602 662.941 188.527C662.651 188.461 662.379 188.339 662.146 188.161L661.949 187.926L661.753 187.748C661.556 187.542 661.416 187.288 661.332 187.007C661.238 186.726 661.201 186.416 661.201 186.116C661.182 185.619 661.35 185.131 661.65 184.737C661.949 184.343 662.342 184.033 662.791 183.818L662.641 183.686C662.398 183.471 662.192 183.199 662.052 182.898C661.912 182.608 661.827 182.279 661.827 181.951C661.827 181.688 661.893 181.426 662.033 181.191C662.155 180.957 662.342 180.76 662.567 180.61C663.006 180.291 663.549 180.131 664.092 180.159C664.615 180.131 665.139 180.272 665.57 180.563C665.785 180.722 665.944 180.928 666.056 181.172C666.168 181.416 666.215 181.679 666.206 181.942C666.206 182.176 666.178 182.411 666.112 182.636C666.028 182.861 665.906 183.077 665.757 183.264C665.626 183.433 665.476 183.592 665.317 183.733C665.149 183.874 664.971 184.005 664.784 184.127L666.356 185.891C666.617 185.487 666.758 185.028 666.758 184.549H666.066V183.611H668.797V184.549H667.918C667.918 184.934 667.852 185.318 667.731 185.684C667.609 186.069 667.422 186.425 667.197 186.772L667.768 187.467H668.928V188.517H668.938V188.508ZM664.859 181.998C664.859 181.763 664.793 181.529 664.643 181.341C664.569 181.247 664.466 181.182 664.353 181.135C664.251 181.088 664.129 181.079 664.017 181.079C663.792 181.079 663.568 181.144 663.39 181.285C663.306 181.36 663.25 181.454 663.212 181.557C663.175 181.66 663.147 181.773 663.156 181.885C663.156 182.073 663.203 182.26 663.287 182.429C663.455 182.73 663.661 183.002 663.914 183.236L664.007 183.18C664.213 183.048 664.41 182.88 664.578 182.701C664.756 182.514 664.849 182.27 664.859 182.007V181.998ZM665.457 187.016L663.661 184.859C663.399 185.009 663.175 185.225 662.988 185.487C662.819 185.759 662.735 186.069 662.744 186.388C662.744 186.641 662.81 186.904 662.941 187.11C663.1 187.326 663.315 187.495 663.558 187.589C663.642 187.617 663.736 187.645 663.82 187.664H664.138C664.391 187.664 664.643 187.589 664.859 187.467C665.102 187.373 665.308 187.213 665.485 187.016H665.448H665.457ZM710.195 185.881H707.436V184.737H710.177V185.881H710.195ZM640.544 186.36C640.544 186.744 640.441 187.12 640.254 187.448C640.067 187.776 639.777 188.039 639.43 188.217C639.168 188.358 638.888 188.442 638.579 188.461H633.855V187.438H634.79V181.407H633.855V180.384H637.933C638.308 180.366 638.691 180.403 639.047 180.497C639.299 180.572 639.533 180.694 639.73 180.853C639.954 181.041 640.113 181.276 640.216 181.538C640.329 181.82 640.394 182.129 640.394 182.439C640.413 182.664 640.394 182.889 640.319 183.105C640.254 183.32 640.141 183.517 639.992 183.696C639.833 183.865 639.655 184.015 639.458 184.108C639.253 184.202 639.037 184.268 638.804 184.277C639.047 184.277 639.299 184.324 639.515 184.427C639.739 184.531 639.936 184.69 640.085 184.887C640.394 185.29 640.553 185.788 640.553 186.294L640.516 186.332H640.544V186.36ZM638.832 182.626C638.841 182.401 638.794 182.167 638.701 181.96C638.598 181.763 638.439 181.613 638.242 181.538C638.111 181.491 637.98 181.463 637.849 181.454H636.334V183.827H637.232C637.447 183.846 637.643 183.846 637.859 183.827C638.055 183.808 638.252 183.733 638.42 183.611C638.691 183.339 638.841 182.973 638.85 182.589V182.617H638.832V182.626ZM639 186.144C639 185.938 638.963 185.741 638.878 185.562C638.785 185.384 638.654 185.234 638.485 185.122C638.354 185.037 638.195 184.981 638.036 184.953C637.859 184.934 637.672 184.934 637.484 184.953H636.324V187.56H637.344C637.606 187.56 637.859 187.542 638.121 187.485C638.28 187.429 638.429 187.354 638.57 187.241C638.71 187.12 638.813 186.969 638.888 186.81C638.963 186.622 638.991 186.416 638.991 186.21V186.135V186.153L639 186.144ZM649.684 188.508H646.419V187.485H647.383L646.877 186.022H643.893L643.369 187.485H644.342V188.508H641.273V187.485H641.919L644.576 180.413H646.419L649.038 187.485H649.684V188.508ZM646.475 185.018L645.38 181.726L644.22 184.99L646.475 185.018ZM657.318 188.508H655.279C655.101 187.814 654.961 187.26 654.848 186.847C654.745 186.294 654.53 185.778 654.221 185.309C654.147 185.225 654.053 185.168 653.941 185.14C653.819 185.121 653.697 185.121 653.576 185.14H652.556V187.532H653.492V188.555H650.096V187.532H651.115V181.398H650.096V180.375H653.988C654.39 180.356 654.783 180.394 655.176 180.488C655.428 180.563 655.672 180.675 655.887 180.835C656.149 181.022 656.345 181.276 656.457 181.576C656.598 181.904 656.663 182.242 656.654 182.598C656.673 183.095 656.495 183.583 656.177 183.968C656.008 184.155 655.812 184.305 655.587 184.418C655.363 184.521 655.129 184.587 654.876 184.606C655.222 184.624 655.541 184.756 655.812 184.981C655.999 185.262 656.149 185.572 656.214 185.9L656.645 187.467H657.309V188.489H657.318V188.508ZM655.091 182.654C655.091 182.457 655.054 182.27 654.979 182.092C654.904 181.913 654.783 181.763 654.633 181.641C654.511 181.557 654.371 181.501 654.231 181.473C654.025 181.454 653.838 181.454 653.632 181.473H652.612V184.108H653.407C653.651 184.108 653.894 184.09 654.128 184.052C654.334 184.005 654.511 183.911 654.671 183.771C654.82 183.639 654.932 183.48 654.989 183.292C655.054 183.095 655.092 182.889 655.082 182.692V182.664H655.091V182.654ZM678.695 186.303C678.705 186.585 678.667 186.857 678.583 187.129C678.499 187.354 678.377 187.57 678.218 187.757C677.975 188.104 677.61 188.358 677.199 188.48C676.843 188.592 676.478 188.649 676.113 188.649C675.739 188.649 675.374 188.592 675.028 188.48C674.682 188.348 674.401 188.104 674.223 187.786V188.536H672.998V185.703H674.326C674.308 186.163 674.411 186.613 674.645 187.016C674.775 187.204 674.944 187.363 675.15 187.467C675.356 187.57 675.58 187.617 675.805 187.598C676.141 187.617 676.46 187.504 676.721 187.317C676.862 187.213 676.965 187.082 677.03 186.923C677.096 186.772 677.133 186.594 677.124 186.435C677.133 186.191 677.058 185.947 676.899 185.75C676.628 185.487 676.3 185.29 675.926 185.187L674.906 184.793C674.56 184.671 674.317 184.568 674.186 184.502C673.952 184.371 673.737 184.212 673.559 184.024C673.382 183.846 673.241 183.621 673.148 183.386C673.063 183.152 673.017 182.898 673.035 182.645C673.035 182.317 673.092 181.998 673.213 181.698C673.288 181.491 673.391 181.294 673.531 181.116C673.718 180.853 673.962 180.647 674.261 180.525C674.635 180.375 675.019 180.3 675.421 180.309C675.795 180.309 676.169 180.366 676.525 180.478C676.843 180.591 677.114 180.816 677.292 181.116V180.441H678.546V183.105H677.217V182.861C677.245 182.457 677.105 182.054 676.852 181.735C676.721 181.594 676.562 181.491 676.385 181.407C676.216 181.332 676.02 181.304 675.833 181.313C675.646 181.313 675.458 181.332 675.271 181.369C675.122 181.426 674.981 181.519 674.878 181.651C674.691 181.885 674.598 182.176 674.598 182.476C674.598 182.617 674.635 182.767 674.71 182.898C674.775 183.03 674.878 183.142 675 183.217C675.243 183.377 675.515 183.508 675.805 183.593L676.824 183.968L677.301 184.137C677.554 184.24 677.797 184.38 678.012 184.559C678.2 184.681 678.359 184.84 678.471 185.037C678.574 185.234 678.658 185.44 678.705 185.666C678.761 185.881 678.78 186.106 678.78 186.332L678.695 186.35V186.303ZM687.499 188.508H684.047V187.485H685.067V184.859H681.801V187.438H682.831V188.461H679.304V187.438H680.211V181.416H679.304V180.394H682.746V181.416H681.727V183.846H685.001V181.416H683.981V180.394H687.424V181.416H686.498V187.476H687.424V188.498L687.49 188.517H687.499V188.508ZM696.022 184.418V185.075C695.994 185.422 695.928 185.769 695.807 186.097C695.704 186.35 695.601 186.604 695.479 186.838C695.348 187.073 695.199 187.279 695.021 187.485C694.665 187.87 694.235 188.161 693.748 188.348C693.243 188.536 692.701 188.63 692.158 188.63C691.615 188.63 691.063 188.545 690.549 188.367C690.053 188.161 689.613 187.851 689.248 187.457C688.921 187.091 688.678 186.641 688.537 186.172C688.378 185.675 688.294 185.15 688.294 184.624C688.285 184.043 688.35 183.461 688.491 182.908C688.631 182.392 688.893 181.923 689.239 181.529C689.585 181.125 690.034 180.807 690.53 180.61C691.035 180.403 691.578 180.3 692.121 180.3C692.663 180.272 693.196 180.356 693.692 180.563C694.188 180.769 694.637 181.079 695.011 181.463C695.713 182.289 696.069 183.339 696.031 184.427H696.003H696.022V184.418ZM694.347 184.418C694.347 184.033 694.31 183.649 694.244 183.274C694.198 182.945 694.095 182.636 693.936 182.336C693.646 181.857 693.187 181.519 692.654 181.388C692.121 181.257 691.559 181.332 691.082 181.613C690.764 181.82 690.502 182.101 690.324 182.439C690.175 182.72 690.072 183.02 690.034 183.33C689.969 183.696 689.941 184.071 689.95 184.437C689.922 185.168 690.072 185.891 690.38 186.557C690.53 186.885 690.792 187.157 691.101 187.335C691.419 187.523 691.784 187.617 692.139 187.589C692.429 187.589 692.701 187.532 692.963 187.41C693.215 187.288 693.449 187.12 693.627 186.894C693.786 186.726 693.908 186.519 694.001 186.303C694.095 186.088 694.169 185.863 694.226 185.628C694.272 185.459 694.3 185.3 694.319 185.122V184.315L694.338 184.409V184.427L694.347 184.418ZM703.244 182.926C703.254 183.311 703.188 183.705 703.057 184.062C702.917 184.409 702.692 184.718 702.402 184.953C702.131 185.168 701.804 185.318 701.457 185.356C701.121 185.375 700.774 185.375 700.438 185.356H699.409V187.467H700.597V188.489H696.929V187.467H697.874V181.407H696.929V180.384H700.737C701.102 180.384 701.476 180.413 701.841 180.497C702.15 180.6 702.44 180.788 702.664 181.041C702.889 181.276 703.057 181.557 703.169 181.867C703.282 182.195 703.347 182.542 703.338 182.889L703.254 182.917H703.244V182.926ZM701.663 182.926C701.663 182.711 701.635 182.495 701.57 182.279C701.514 182.101 701.411 181.923 701.27 181.801C701.121 181.66 700.952 181.576 700.765 181.529C700.55 181.482 700.325 181.463 700.101 181.463H699.334V184.352H700.101C700.372 184.371 700.643 184.352 700.905 184.277C701.064 184.221 701.195 184.137 701.308 184.015C701.429 183.874 701.523 183.686 701.57 183.499C701.626 183.292 701.654 183.086 701.654 182.87V182.926H701.663Z" fill="#F2C247"/>
<path fill-rule="evenodd" clip-rule="evenodd" d="M651.032 139.852C648.375 139.167 645.97 137.713 644.137 135.668C642.303 133.623 641.124 131.062 640.731 128.351C640.338 125.622 640.769 122.845 641.957 120.359C643.136 117.874 645.035 115.8 647.393 114.393C649.75 112.996 652.473 112.311 655.214 112.47C657.955 112.621 660.593 113.577 662.792 115.228C664.99 116.879 666.646 119.149 667.554 121.748C668.47 124.346 668.592 127.151 667.919 129.824C667.46 131.597 666.665 133.267 665.58 134.73C664.485 136.193 663.119 137.432 661.547 138.36C659.985 139.298 658.245 139.908 656.439 140.171C654.634 140.424 652.8 140.33 651.032 139.88V139.852ZM663.175 115.782C662.558 118.858 661.575 121.87 660.275 124.721L661.295 125.481C661.697 125.791 662.099 126.109 662.492 126.419C664.148 123.399 665.954 122.517 667.582 122.461C667.666 122.723 667.731 122.995 667.797 123.267C666.328 123.267 664.653 124.065 663.11 126.916C664.653 128.201 666.047 129.655 667.264 131.259C667.151 131.541 667.039 131.813 666.917 132.085C665.72 130.424 664.326 128.933 662.754 127.629C661.837 129.833 661.276 132.188 661.117 134.571C660.995 135.978 660.743 137.375 660.359 138.745C660.032 138.895 659.695 139.036 659.34 139.176C659.901 137.666 660.247 136.09 660.359 134.477C660.528 131.935 661.136 129.44 662.156 127.104L660.855 126.081L659.976 125.425C657.44 130.79 653.623 136.071 648.599 138.726C648.3 138.585 648.029 138.445 647.748 138.285C652.847 135.79 656.739 130.462 659.293 125.059V124.965C658.526 124.449 657.73 123.943 656.907 123.445C654.634 127.291 647.28 128.867 641.976 129.993L641.311 130.134C641.237 129.88 641.171 129.627 641.124 129.374L641.807 129.224C646.906 128.136 654.138 126.607 656.233 123.089C653.09 121.232 649.638 119.965 646.045 119.346C644.998 119.177 643.931 119.112 642.864 119.14C643.024 118.877 643.201 118.605 643.379 118.361C644.315 118.361 645.231 118.427 646.148 118.568C649.834 119.206 653.38 120.5 656.608 122.395C657.627 120.05 656.86 117.78 655.588 115.866C654.783 114.74 653.848 113.709 652.809 112.789C653.156 112.752 653.492 112.714 653.829 112.696C654.709 113.53 655.504 114.45 656.205 115.444C657.627 117.526 658.488 120.087 657.263 122.751C658.086 123.23 658.862 123.727 659.62 124.262C660.93 121.401 661.884 118.389 662.474 115.294L663.157 115.829V115.772H663.175V115.782Z" fill="#F2C247"/>
<path d="M503.027 215.054H512.888V218.562H510.53L510.493 233.102L521.851 215.054H529.316V218.562H525.78V234.753H529.232V238.261H519.493V234.753H521.813V220.373L510.493 238.261H503.027V234.753H506.526V218.562H503.027V215.054ZM532.422 215.054H542.32V218.562H539.963L539.925 224.707H550.376V218.562H548.055V215.054H557.879V218.562H554.427L554.342 234.753H557.841V238.261H548.055V234.753H550.376V228.215H539.925V234.753H542.246V238.261H532.422V234.753H535.921V218.562H532.422V215.054ZM568.273 239.837V236.413H572.005V234.443H571.341C569.901 234.443 568.535 234.284 567.253 233.974C565.971 233.665 564.83 233.158 563.838 232.473C562.865 231.761 562.107 230.832 561.555 229.678C561.003 228.524 560.732 227.08 560.732 225.344C560.732 223.609 561.003 222.193 561.555 221.086C562.107 219.979 562.865 219.125 563.838 218.525C564.802 217.896 565.915 217.465 567.178 217.221C568.46 216.958 569.826 216.827 571.266 216.827H572.005V215.129L567.964 213.947L569.021 210.477L575.982 212.681V216.855H576.721C578.161 216.883 579.518 217.024 580.772 217.287C582.053 217.521 583.185 217.943 584.149 218.544C585.122 219.144 585.88 219.998 586.432 221.105C586.984 222.211 587.255 223.628 587.255 225.363C587.255 227.099 586.984 228.506 586.432 229.659C585.88 230.813 585.122 231.751 584.149 232.455C583.185 233.139 582.053 233.637 580.772 233.956C579.518 234.275 578.161 234.425 576.721 234.425H575.982V236.394H579.714V239.818H568.273V239.837ZM571.023 231.404H572.005V219.707H571.07C570.228 219.707 569.451 219.782 568.75 219.941C568.067 220.073 567.468 220.345 566.944 220.767C566.42 221.161 566.009 221.724 565.719 222.465C565.438 223.196 565.288 224.162 565.288 225.344C565.288 226.892 565.541 228.112 566.037 229.012C566.533 229.875 567.216 230.494 568.076 230.86C568.974 231.226 569.957 231.414 571.023 231.414V231.404ZM575.982 231.404H576.842C577.918 231.404 578.901 231.217 579.789 230.851C580.678 230.457 581.389 229.828 581.913 228.956C582.437 228.083 582.699 226.883 582.699 225.335C582.699 224.153 582.549 223.196 582.269 222.455C581.979 221.724 581.567 221.151 581.043 220.757C580.519 220.363 579.911 220.091 579.2 219.932C578.489 219.772 577.703 219.697 576.842 219.697H575.982V231.395V231.404ZM600.428 215.054C603.365 215.054 605.601 215.701 607.145 216.987C608.717 218.243 609.502 220.082 609.502 222.502C609.502 224.922 608.717 226.864 607.145 228.177C605.601 229.462 603.365 230.11 600.428 230.11H597.555V234.762H601.803V238.271H590.136V234.762H593.551V218.572H590.136V215.064H600.428V215.054ZM600.39 226.836C603.665 226.836 605.302 225.419 605.302 222.577C605.302 219.894 603.665 218.562 600.39 218.562H597.602V226.836H600.39ZM608.483 238.261V234.753H612.29L618.465 218.562H614.891V215.054H623.339L630.524 234.753H634.145V238.261H624.2V234.753H626.436L625.22 231.282H617.127L615.873 234.753H618.231V238.261H608.483ZM618.184 228.337H624.2L621.29 219.35L618.184 228.337ZM650.442 218.525C650.311 218.45 650.04 218.356 649.619 218.253C649.198 218.122 648.702 218 648.122 217.896C647.551 217.793 646.915 217.737 646.242 217.737C643.856 217.737 642.022 218.525 640.74 220.101C639.477 221.649 638.851 223.834 638.851 226.639C638.851 229.444 639.506 231.686 640.815 233.261C642.125 234.809 643.931 235.588 646.242 235.588C646.896 235.588 647.504 235.522 648.085 235.391C648.665 235.259 649.16 235.128 649.581 234.997C649.993 234.837 650.283 234.734 650.442 234.678L651.265 231.367L654.643 232.155L653.548 237.351C653.548 237.351 653.249 237.483 652.641 237.745C652.042 238.008 651.172 238.271 650.049 238.533C648.945 238.824 647.682 238.965 646.242 238.965C643.931 238.965 641.901 238.496 640.151 237.548C638.42 236.601 637.073 235.213 636.1 233.374C635.155 231.535 634.669 229.294 634.65 226.639C634.65 224.087 635.118 221.902 636.063 220.063C637.008 218.225 638.336 216.808 640.067 215.805C641.826 214.81 643.865 214.322 646.195 214.351C647.879 214.351 649.263 214.51 650.367 214.82C651.49 215.139 652.313 215.467 652.837 215.805C653.389 216.124 653.66 216.292 653.66 216.321L654.689 221.48L651.265 222.23L650.442 218.525ZM657.58 215.054H678.256V222.38H674.635V218.562H669.958L669.92 234.753H673.382V238.261H662.38V234.753H665.879V218.562H661.238V222.38H657.58V215.054ZM691.56 215.054C694.497 215.054 696.733 215.701 698.277 216.987C699.849 218.243 700.634 220.082 700.634 222.502C700.634 224.922 699.849 226.864 698.277 228.177C696.733 229.462 694.497 230.11 691.56 230.11H688.697V234.762H692.935V238.271H681.269V234.762H684.683V218.572H681.269V215.064H691.56V215.054ZM691.522 226.836C694.797 226.836 696.434 225.419 696.434 222.577C696.434 219.894 694.797 218.562 691.522 218.562H688.734V226.836H691.522ZM710.607 239.012C709.924 239.012 709.232 238.946 708.521 238.815C707.848 238.711 707.015 238.524 706.051 238.261L707.071 234.837C707.651 235.072 708.24 235.259 708.839 235.391C709.466 235.522 710.009 235.588 710.448 235.588C711.159 235.588 711.683 235.4 712.02 235.034C712.366 234.668 712.703 234.021 713.04 233.102L705.031 218.562H701.57V215.054H711.711V218.562H709.429L714.771 228.768L718.625 218.562H716.183V215.054H726.399V218.562H722.517L716.267 234.162C715.613 235.766 714.892 236.976 714.106 237.783C713.32 238.599 712.151 239.002 710.607 239.002V239.012ZM728.083 215.054H737.86V218.562H735.502V224.941H738.73L743.408 218.562H741.088V215.054H751.07V218.562H747.449L741.836 225.888L748.076 234.753H752.006V238.261H740.807V234.753H743.717L739.282 228.327H735.502L735.549 234.753H737.86V238.261H728.083V234.753H731.536V218.562H728.083V215.054ZM753.25 215.054H773.916V222.38H770.296V218.562H765.627L765.58 234.753H769.042V238.261H758.04V234.753H761.539V218.562H756.898V222.38H753.25V215.054ZM784.553 239.012C783.87 239.012 783.178 238.946 782.467 238.815C781.784 238.711 780.961 238.524 779.997 238.261L781.017 234.837C781.588 235.072 782.177 235.259 782.785 235.391C783.412 235.522 783.945 235.588 784.394 235.588C785.105 235.588 785.629 235.4 785.966 235.034C786.303 234.668 786.649 234.021 786.986 233.102L778.968 218.562H775.516V215.054H785.648V218.562H783.375L788.717 228.768L792.571 218.562H790.129V215.054H800.345V218.562H796.454L790.213 234.162C789.559 235.766 788.838 236.976 788.052 237.783C787.266 238.599 786.097 239.002 784.553 239.002V239.012ZM812.321 215.054C815.249 215.054 817.494 215.701 819.038 216.987C820.609 218.243 821.395 220.082 821.395 222.502C821.395 224.922 820.609 226.864 819.038 228.177C817.494 229.462 815.249 230.11 812.321 230.11H809.448V234.762H813.696V238.271H802.02V234.762H805.444V218.572H802.02V215.064H812.321V215.054ZM812.283 226.836C815.557 226.836 817.195 225.419 817.195 222.577C817.195 219.894 815.557 218.562 812.283 218.562H809.486V226.836H812.283ZM820.376 238.261V234.753H824.183L830.358 218.562H826.775V215.054H835.223L842.417 234.753H846.028V238.261H836.093V234.753H838.329L837.113 231.282H829.02L827.757 234.753H830.115V238.261H820.376ZM830.077 228.337H836.093L833.183 219.35L830.077 228.337Z" fill="white"/>
<path d="M1071.96 385.767H1006.47C998.738 385.767 992.441 379.454 992.441 371.696V306.034C992.441 298.276 998.738 291.963 1006.47 291.963H1071.96C1079.7 291.963 1086 298.276 1086 306.034V371.696C1086 379.454 1079.7 385.767 1071.96 385.767ZM1006.47 296.654C1001.32 296.654 997.119 300.865 997.119 306.034V371.696C997.119 376.865 1001.32 381.077 1006.47 381.077H1071.96C1077.12 381.077 1081.32 376.865 1081.32 371.696V306.034C1081.32 300.865 1077.12 296.654 1071.96 296.654H1006.47Z" fill="#F2C247"/>
<path d="M955.02 385.767H889.531C881.794 385.767 875.498 379.454 875.498 371.696V306.034C875.498 298.276 881.794 291.963 889.531 291.963H955.02C962.757 291.963 969.053 298.276 969.053 306.034V371.696C969.053 379.454 962.757 385.767 955.02 385.767ZM889.531 296.654C884.376 296.654 880.176 300.865 880.176 306.034V371.696C880.176 376.865 884.376 381.077 889.531 381.077H955.02C960.175 381.077 964.375 376.865 964.375 371.696V306.034C964.375 300.865 960.175 296.654 955.02 296.654H889.531Z" fill="#F2C247"/>
<path d="M838.077 385.767H772.588C764.851 385.767 758.555 379.454 758.555 371.696V306.034C758.555 298.276 764.851 291.963 772.588 291.963H838.077C845.814 291.963 852.11 298.276 852.11 306.034V371.696C852.11 379.454 845.814 385.767 838.077 385.767ZM772.588 296.654C767.433 296.654 763.232 300.865 763.232 306.034V371.696C763.232 376.865 767.433 381.077 772.588 381.077H838.077C843.231 381.077 847.432 376.865 847.432 371.696V306.034C847.432 300.865 843.231 296.654 838.077 296.654H772.588Z" fill="#F2C247"/>
<path d="M95.4264 324.532H97.9804L97.943 344.625H103.959V348.133H87.6145V344.625H93.9763V330.479L88.9898 334.616L86.707 331.821L95.4264 324.532ZM115.803 324.213C117.187 324.213 118.478 324.41 119.657 324.804C120.836 325.198 121.856 325.864 122.726 326.812C123.615 327.759 124.297 329.035 124.765 330.629C125.261 332.205 125.514 334.175 125.514 336.539C125.514 338.903 125.261 340.845 124.765 342.449C124.297 344.025 123.615 345.281 122.726 346.229C121.865 347.148 120.836 347.805 119.657 348.199C118.478 348.621 117.197 348.827 115.803 348.827C114.409 348.827 113.127 348.621 111.948 348.199C110.769 347.805 109.731 347.148 108.842 346.229C107.981 345.281 107.299 344.025 106.803 342.449C106.335 340.845 106.092 338.875 106.092 336.539C106.092 334.203 106.326 332.205 106.803 330.629C107.299 329.025 107.981 327.75 108.842 326.812C109.731 325.864 110.769 325.198 111.948 324.804C113.127 324.41 114.409 324.213 115.803 324.213ZM115.803 327.759C115.073 327.759 114.371 327.881 113.716 328.115C113.062 328.35 112.481 328.772 111.986 329.372C111.49 329.973 111.097 330.854 110.807 332.008C110.517 333.162 110.376 334.672 110.376 336.539C110.376 338.406 110.517 339.878 110.807 341.032C111.097 342.158 111.49 343.04 111.986 343.668C112.481 344.268 113.062 344.691 113.716 344.925C114.371 345.16 115.064 345.281 115.803 345.281C116.542 345.281 117.234 345.16 117.889 344.925C118.544 344.691 119.124 344.268 119.62 343.668C120.144 343.04 120.537 342.158 120.799 341.032C121.089 339.878 121.229 338.378 121.229 336.539C121.229 334.7 121.089 333.162 120.799 332.008C120.537 330.854 120.144 329.973 119.62 329.372C119.124 328.772 118.544 328.35 117.889 328.115C117.234 327.881 116.542 327.759 115.803 327.759ZM139.435 324.213C140.819 324.213 142.11 324.41 143.289 324.804C144.468 325.198 145.488 325.864 146.358 326.812C147.247 327.759 147.929 329.035 148.397 330.629C148.893 332.205 149.146 334.175 149.146 336.539C149.146 338.903 148.893 340.845 148.397 342.449C147.929 344.025 147.247 345.281 146.358 346.229C145.497 347.148 144.468 347.805 143.289 348.199C142.11 348.621 140.829 348.827 139.435 348.827C138.041 348.827 136.759 348.621 135.58 348.199C134.401 347.805 133.363 347.148 132.474 346.229C131.613 345.281 130.931 344.025 130.435 342.449C129.967 340.845 129.724 338.875 129.724 336.539C129.724 334.203 129.958 332.205 130.435 330.629C130.931 329.025 131.613 327.75 132.474 326.812C133.363 325.864 134.401 325.198 135.58 324.804C136.759 324.41 138.041 324.213 139.435 324.213ZM139.435 327.759C138.705 327.759 138.003 327.881 137.348 328.115C136.694 328.35 136.113 328.772 135.618 329.372C135.122 329.973 134.729 330.854 134.439 332.008C134.149 333.162 134.008 334.672 134.008 336.539C134.008 338.406 134.149 339.878 134.439 341.032C134.729 342.158 135.122 343.04 135.618 343.668C136.113 344.268 136.694 344.691 137.348 344.925C138.003 345.16 138.696 345.281 139.435 345.281C140.174 345.281 140.866 345.16 141.521 344.925C142.176 344.691 142.756 344.268 143.252 343.668C143.776 343.04 144.169 342.158 144.431 341.032C144.721 339.878 144.861 338.378 144.861 336.539C144.861 334.7 144.721 333.162 144.431 332.008C144.169 330.854 143.776 329.973 143.252 329.372C142.756 328.772 142.176 328.35 141.521 328.115C140.866 327.881 140.174 327.759 139.435 327.759ZM162.412 324.926H172.16L177.933 340.254L183.359 324.926H193.023V328.434H189.562V344.625H193.023V348.133H183.041V344.625H185.557V327.956L183.911 333.2L179.514 345.338H176.174L171.262 332.852L169.616 328.125L169.541 344.634H172.132V348.142H162.346V344.634H165.845L165.883 328.444H162.421V324.935L162.412 324.926ZM196.653 339.541L195.596 336.426C196.644 335.798 197.654 335.188 198.618 334.616C199.609 334.034 200.479 333.472 201.209 332.918C202.201 332.205 202.94 331.53 203.408 330.873C203.904 330.217 204.156 329.598 204.156 329.025C204.156 328.397 203.922 327.937 203.445 327.646C202.996 327.356 202.435 327.215 201.752 327.215C201.069 327.215 200.367 327.356 199.553 327.646C198.767 327.937 198.047 328.378 197.392 328.988L195.39 326.746C196.363 325.93 197.345 325.301 198.337 324.851C199.329 324.401 200.405 324.185 201.555 324.185C202.706 324.185 203.782 324.373 204.699 324.738C205.616 325.104 206.336 325.63 206.86 326.314C207.412 326.971 207.683 327.768 207.683 328.716C207.683 329.794 207.346 330.779 206.663 331.671C205.98 332.534 205.12 333.322 204.072 334.034C203.389 334.56 202.631 335.047 201.789 335.488C200.947 335.939 200.096 336.38 199.235 336.83H205.363L206.897 334.7L209.33 336.239L207.094 339.55H196.644L196.653 339.541Z" fill="#F2C247"/>
<path d="M396.879 332.383C397.609 331.914 398.357 331.567 399.115 331.361C399.901 331.155 400.687 331.042 401.472 331.042C402.885 331.042 404.167 331.342 405.327 331.952C406.478 332.552 407.394 333.434 408.077 334.588C408.788 335.741 409.135 337.158 409.135 338.846C409.135 341.632 408.311 343.762 406.655 345.225C405.028 346.67 402.763 347.392 399.854 347.392C398.385 347.392 396.935 347.129 395.494 346.604C394.082 346.051 392.847 345.234 391.799 344.165L394.428 341.679C395.214 342.439 396.093 343.021 397.057 343.415C398.03 343.809 399.021 344.006 400.041 344.006C401.688 344.006 402.951 343.583 403.811 342.749C404.672 341.886 405.112 340.676 405.112 339.128C405.112 338.105 404.887 337.233 404.447 336.529C403.998 335.817 403.4 335.282 402.642 334.916C401.912 334.55 401.126 334.363 400.284 334.363C399.442 334.363 398.591 334.55 397.73 334.916C396.87 335.282 396.084 335.845 395.373 336.614L393.015 335.507V323.528H407.32V327.037H396.869V332.393L396.879 332.383ZM422.167 322.806C423.551 322.806 424.842 323.003 426.021 323.397C427.2 323.791 428.22 324.457 429.09 325.404C429.979 326.352 430.662 327.627 431.129 329.222C431.625 330.798 431.878 332.768 431.878 335.132C431.878 337.496 431.625 339.437 431.129 341.041C430.662 342.617 429.979 343.874 429.09 344.822C428.229 345.741 427.2 346.398 426.021 346.792C424.842 347.214 423.561 347.42 422.167 347.42C420.773 347.42 419.491 347.214 418.312 346.792C417.134 346.398 416.095 345.741 415.206 344.822C414.346 343.874 413.663 342.617 413.167 341.041C412.699 339.437 412.456 337.467 412.456 335.132C412.456 332.796 412.69 330.798 413.167 329.222C413.663 327.618 414.346 326.342 415.206 325.404C416.095 324.457 417.134 323.791 418.312 323.397C419.491 323.003 420.773 322.806 422.167 322.806ZM422.167 326.352C421.437 326.352 420.735 326.474 420.081 326.708C419.426 326.943 418.846 327.365 418.35 327.965C417.854 328.566 417.461 329.447 417.171 330.601C416.881 331.755 416.741 333.265 416.741 335.132C416.741 336.998 416.881 338.471 417.171 339.625C417.461 340.751 417.854 341.632 418.35 342.261C418.846 342.861 419.426 343.283 420.081 343.518C420.735 343.752 421.428 343.874 422.167 343.874C422.906 343.874 423.598 343.752 424.253 343.518C424.908 343.283 425.488 342.861 425.984 342.261C426.508 341.632 426.901 340.751 427.163 339.625C427.453 338.471 427.593 336.97 427.593 335.132C427.593 333.293 427.453 331.755 427.163 330.601C426.901 329.447 426.508 328.566 425.984 327.965C425.488 327.365 424.908 326.943 424.253 326.708C423.598 326.474 422.906 326.352 422.167 326.352ZM445.462 323.519H462.433L464.126 329.982L460.749 330.967L459.608 327.027H453.162L453.124 343.218H457.446V346.726H445.425V343.218H449.157L449.195 327.027H445.462V323.519ZM477.261 322.806C479.488 322.806 481.443 323.303 483.118 324.307C484.821 325.282 486.14 326.68 487.085 328.519C488.03 330.329 488.497 332.524 488.497 335.094C488.497 337.664 488.03 339.831 487.085 341.67C486.14 343.508 484.83 344.925 483.155 345.929C481.481 346.932 479.525 347.429 477.299 347.429C475.072 347.429 473.145 346.932 471.442 345.929C469.768 344.934 468.458 343.508 467.513 341.67C466.568 339.831 466.1 337.636 466.1 335.094C466.1 332.552 466.568 330.329 467.513 328.519C468.458 326.68 469.768 325.273 471.442 324.307C473.117 323.313 475.054 322.806 477.261 322.806ZM477.299 326.23C475.044 326.23 473.313 327.008 472.116 328.556C470.909 330.076 470.31 332.261 470.31 335.094C470.31 337.927 470.909 340.16 472.116 341.717C473.323 343.236 475.053 344.006 477.299 344.006C479.544 344.006 481.284 343.246 482.482 341.717C483.689 340.169 484.287 337.965 484.287 335.094C484.287 332.224 483.689 330.076 482.482 328.556C481.275 327.008 479.544 326.23 477.299 326.23ZM507.685 326.98C507.555 326.905 507.283 326.811 506.862 326.708C506.441 326.577 505.945 326.455 505.365 326.352C504.785 326.249 504.158 326.192 503.476 326.192C501.09 326.192 499.256 326.98 497.975 328.556C496.721 330.104 496.085 332.29 496.085 335.094C496.085 337.899 496.74 340.141 498.049 341.717C499.359 343.265 501.165 344.043 503.476 344.043C504.13 344.043 504.748 343.977 505.319 343.846C505.899 343.715 506.394 343.583 506.815 343.452C507.236 343.293 507.526 343.189 507.676 343.133L508.499 339.822L511.877 340.61L510.773 345.807C510.773 345.807 510.473 345.938 509.865 346.201C509.267 346.463 508.397 346.726 507.274 346.989C506.17 347.279 504.907 347.42 503.466 347.42C501.165 347.42 499.135 346.951 497.376 346.004C495.645 345.056 494.298 343.668 493.325 341.829C492.38 339.991 491.893 337.749 491.875 335.094C491.875 332.543 492.343 330.357 493.287 328.519C494.232 326.68 495.57 325.264 497.292 324.26C499.05 323.266 501.09 322.778 503.419 322.806C505.094 322.806 506.488 322.965 507.583 323.275C508.705 323.594 509.538 323.922 510.062 324.26C510.614 324.579 510.885 324.748 510.885 324.776L511.905 329.935L508.49 330.685L507.667 326.98H507.685ZM514.824 323.51H535.49V330.836H531.879V327.018H527.201L527.164 343.208H530.625V346.717H519.623V343.208H523.122V327.018H518.482V330.836H514.824V323.51ZM538.549 323.51H556.231L558.43 330.132L555.127 331.276L553.593 327.018H546.052V333.087H552.966V336.558H546.052V343.218H554.538L555.988 339.156L559.291 340.3L557.092 346.726H538.503V343.218H542.002L542.039 327.027H538.54V323.519L538.549 323.51ZM562.107 323.51H571.967V327.018H569.61L569.572 341.557L580.93 323.51H588.395V327.018H584.859V343.208H588.321V346.717H578.572V343.208H580.892V328.828L569.572 346.717H562.107V343.208H565.605V327.018H562.107V323.51ZM575.7 321.38C573.792 321.38 572.22 320.996 570.985 320.236C569.778 319.448 568.964 318.322 568.552 316.849L571.855 316.418C572.276 318.069 573.558 318.904 575.709 318.904C577.861 318.904 579.143 318.078 579.564 316.418L582.829 316.849C582.408 318.322 581.585 319.448 580.35 320.236C579.115 320.996 577.571 321.38 575.709 321.38H575.7Z" fill="#EFEFEF"/>
<path d="M46.4599 865.957C49.0046 865.929 50.9411 866.473 52.279 867.571C53.6168 868.677 54.2811 870.3 54.2811 872.458C54.2811 874.746 53.6542 876.501 52.3912 877.739C51.1376 878.949 49.3039 879.549 46.8902 879.549H34.3164V876.041H37.7779V859.85H34.3164V856.342H51.6802L53.2894 862.252L49.8278 863.237L48.8829 859.85H41.7727V866.032L46.4505 865.957H46.4599ZM45.9921 876.041C47.3019 876.041 48.3122 875.769 49.0139 875.216C49.7249 874.634 50.0711 873.762 50.0711 872.58C50.0711 871.473 49.7436 870.675 49.0888 870.178C48.4339 869.653 47.489 869.418 46.2634 869.465L41.7821 869.54L41.7447 876.041H45.9921ZM64.5815 880.3C63.8985 880.3 63.2062 880.234 62.4952 880.103C61.8122 879.999 60.989 879.812 60.016 879.549L61.0357 876.125C61.6158 876.36 62.2052 876.548 62.8039 876.679C63.4307 876.81 63.9734 876.876 64.4131 876.876C65.1241 876.876 65.648 876.688 65.9848 876.322C66.3216 875.957 66.6678 875.309 67.0046 874.39L58.9869 859.85H55.5253V856.342H65.6667V859.85H63.384L68.726 870.056L72.5804 859.85H70.148V856.342H80.3642V859.85H76.4723L70.2228 875.45C69.568 877.054 68.8476 878.264 68.0617 879.071C67.2759 879.887 66.1064 880.29 64.5628 880.29L64.5815 880.3ZM92.3486 856.342C95.2863 856.342 97.5222 856.989 99.0659 858.275C100.638 859.532 101.423 861.37 101.423 863.79C101.423 866.21 100.638 868.152 99.0659 869.465C97.5222 870.75 95.2769 871.398 92.3486 871.398H89.4765V876.05H93.7239V879.559H82.0576V876.05H85.4723V859.86H82.0576V856.352H92.3486V856.342ZM92.3112 868.124C95.5856 868.124 97.2228 866.708 97.2228 863.865C97.2228 861.182 95.5856 859.85 92.3112 859.85H89.5233V868.124H92.3112ZM103.781 856.342H120.752L122.445 862.805L119.068 863.79L117.927 859.85H111.481L111.443 876.041H115.765V879.549H103.744V876.041H107.476L107.514 859.85H103.781V856.342ZM124.532 856.342H142.213L144.412 862.965L141.11 864.109L139.575 859.85H132.035V865.92H138.948V869.39H132.035V876.05H140.52L141.97 871.989L145.273 873.133L143.074 879.559H124.485V876.05H127.984L128.021 859.86H124.522V856.352L124.532 856.342ZM158.389 856.342C161.327 856.342 163.563 856.989 165.106 858.275C166.678 859.532 167.464 861.37 167.464 863.79C167.464 866.21 166.678 868.152 165.106 869.465C163.563 870.75 161.317 871.398 158.389 871.398H155.517V876.05H159.764V879.559H148.098V876.05H151.513V859.86H148.098V856.352H158.389V856.342ZM158.352 868.124C161.626 868.124 163.263 866.708 163.263 863.865C163.263 861.182 161.626 859.85 158.352 859.85H155.564V868.124H158.352ZM169.784 879.512V876.041H173.199V859.813H169.859V856.305H179.561V859.813H177.166V864.813H181.217C183.078 864.813 184.622 865.075 185.857 865.601C187.092 866.098 188.009 866.886 188.607 867.964C189.206 869.043 189.515 870.403 189.515 872.064C189.515 873.611 189.197 874.953 188.57 876.078C187.943 877.185 187.036 878.039 185.857 878.639C184.678 879.24 183.275 879.549 181.656 879.549L169.794 879.512H169.784ZM177.175 876.041H180.833C181.385 876.041 181.918 875.985 182.442 875.881C182.966 875.778 183.453 875.591 183.892 875.328C184.341 875.037 184.678 874.634 184.912 874.109C185.174 873.555 185.305 872.861 185.305 872.017C185.305 870.994 185.137 870.216 184.79 869.69C184.454 869.165 183.939 868.809 183.256 868.63C182.601 868.424 181.815 868.312 180.899 868.312H177.166V876.032L177.175 876.041ZM191.124 879.549V876.041H193.444L193.482 859.85H191.087V856.38H200.91V859.85H197.448L197.411 876.041H200.91V879.549H191.124Z" fill="#EFEFEF"/>
<path d="M50.2288 724.736C50.0978 724.661 49.8265 724.567 49.4055 724.464C48.9845 724.332 48.4887 724.21 47.9086 724.107C47.3286 724.004 46.7018 723.948 46.0188 723.948C43.6331 723.948 41.7995 724.736 40.5178 726.312C39.2641 727.859 38.6279 730.045 38.6279 732.85C38.6279 735.654 39.2828 737.896 40.5926 739.472C41.9024 741.02 43.708 741.799 46.0188 741.799C46.6737 741.799 47.2911 741.733 47.8618 741.602C48.4419 741.47 48.9377 741.339 49.3587 741.208C49.7797 741.048 50.0697 740.945 50.2194 740.889L51.0427 737.577L54.42 738.365L53.3161 743.562C53.3161 743.562 53.0167 743.693 52.4086 743.956C51.8099 744.219 50.9398 744.481 49.8171 744.744C48.7132 745.035 47.4502 745.176 46.0094 745.176C43.708 745.176 41.6778 744.707 39.919 743.759C38.1882 742.812 36.841 741.423 35.8681 739.585C34.9232 737.746 34.4367 735.504 34.418 732.85C34.418 730.298 34.8857 728.113 35.8306 726.274C36.7756 724.436 38.1134 723.019 39.8348 722.015C41.5936 721.021 43.6331 720.533 45.9627 720.561C47.6373 720.561 49.0313 720.721 50.1259 721.03C51.2485 721.349 52.0812 721.678 52.6051 722.015C53.1571 722.334 53.4284 722.503 53.4284 722.531L54.4481 727.691L51.0334 728.441L50.2101 724.736H50.2288ZM57.4887 721.265H67.3868V724.773H65.0292L64.9918 730.917H75.4419V724.773H73.1217V721.265H82.945V724.773H79.4835L79.4086 740.964H82.9076V744.472H73.1217V740.964H75.4419V734.426H64.9918V740.964H67.3119V744.472H57.4887V740.964H60.9876V724.773H57.4887V721.265ZM95.1539 745.176C93.5541 745.176 92.1789 745.035 91.0282 744.744C89.8774 744.481 88.9887 744.219 88.3525 743.956C87.7257 743.693 87.4076 743.562 87.4076 743.562L86.3878 738.797L89.7652 737.971L90.4762 740.851C90.6633 740.907 90.972 741.011 91.4211 741.17C91.8702 741.33 92.4034 741.47 93.0302 741.602C93.6851 741.733 94.3961 741.799 95.1539 741.799C97.3244 741.799 99.0271 741.151 100.262 739.866C101.497 738.581 102.217 736.78 102.423 734.473L96.997 734.745H92.8338V731.236H97.0344L102.461 731.555C102.273 729.135 101.581 727.278 100.374 725.965C99.1674 724.623 97.4273 723.957 95.1446 723.957C94.3868 723.957 93.6758 724.013 93.0209 724.117C92.3941 724.22 91.8514 724.342 91.4117 724.473C90.972 724.604 90.6539 724.726 90.4668 724.83L89.7558 728.141L86.2943 727.353L87.2392 722.55C87.604 722.316 88.1279 722.053 88.8109 721.762C89.4939 721.443 90.3546 721.171 91.4024 720.937C92.4502 720.702 93.7038 720.58 95.1727 720.58C97.5022 720.552 99.5323 721.04 101.263 722.034C102.994 723.028 104.341 724.454 105.314 726.293C106.287 728.131 106.755 730.326 106.727 732.869C106.727 735.523 106.231 737.765 105.23 739.604C104.257 741.442 102.91 742.83 101.179 743.778C99.4481 744.725 97.4367 745.194 95.1259 745.194L95.1539 745.176ZM110.02 721.265H119.806V724.773H117.448V731.152H120.666L125.344 724.773H123.024V721.265H133.006V724.773H129.395L123.772 732.099L130.022 740.964H133.951V744.472H122.753V740.964H125.662L121.218 734.538H117.448L117.486 740.964H119.806V744.472H110.02V740.964H113.481V724.773H110.02V721.265ZM136.88 721.265H146.74V724.773H144.383L144.345 739.313L155.703 721.265H163.168V724.773H159.632V740.964H163.094V744.472H153.345V740.964H155.665V726.584L144.345 744.472H136.88V740.964H140.378V724.773H136.88V721.265Z" fill="#EFEFEF"/>
<path d="M32.1458 789.986C33.3527 789.357 34.625 788.879 35.9535 788.569C37.2914 788.25 38.5731 788.1 39.808 788.1C41.4358 788.1 42.8579 788.363 44.0928 788.888C45.3465 789.385 46.3288 790.136 47.0398 791.13C47.7695 792.124 48.1437 793.363 48.1437 794.835C48.1437 796.073 47.8163 797.133 47.1614 798.025C46.5346 798.888 45.5242 799.544 44.1396 799.994C45.7862 800.417 47.0117 801.111 47.7976 802.086C48.5835 803.034 48.9764 804.187 48.9764 805.557C48.9764 807.058 48.5741 808.343 47.7602 809.422C46.9462 810.5 45.8329 811.326 44.4203 811.907C43.0356 812.461 41.4452 812.733 39.6677 812.733C38.1988 812.733 36.7862 812.508 35.4203 812.067C34.0824 811.645 32.8288 810.96 31.65 810.022L30.7051 805.96L34.0824 805.097L34.8309 807.818C35.5138 808.399 36.2342 808.803 36.992 809.037C37.7778 809.272 38.6947 809.394 39.7425 809.394C41.3704 809.394 42.6146 809.065 43.4754 808.409C44.3641 807.752 44.8132 806.805 44.8132 805.576C44.8132 804.422 44.4296 803.531 43.6718 802.893C42.9421 802.236 41.8943 801.908 40.5284 801.908H36.9546V798.597H40.4535C41.6323 798.597 42.5117 798.268 43.0824 797.612C43.6812 796.927 43.9899 796.045 43.9899 794.976C43.9899 793.794 43.5689 792.931 42.7363 792.378C41.8943 791.796 40.8371 791.515 39.5554 791.515C38.8444 791.515 38.124 791.59 37.3943 791.749C36.6833 791.88 36.0284 792.087 35.4296 792.378L34.6437 795.332L31.229 794.582L32.1739 790.014L32.1458 789.986ZM50.651 812.011V808.502H54.4587L60.624 792.312H57.0502V788.804H65.4982L72.6926 808.502H76.3038V812.011H66.3589V808.502H68.5949L67.3787 805.032H59.2862L58.0325 808.502H60.3901V812.011H50.6417H50.651ZM60.3527 802.086H66.3683L63.4587 793.1L60.3527 802.086ZM78.1936 788.813H87.9795V792.321H85.6219V798.7H88.8402L93.518 792.321H91.1978V788.813H101.18V792.321H97.5689L91.9462 799.647L98.1957 808.512H102.125V812.02H90.9265V808.512H93.8361L89.3922 802.086H85.6219L85.6593 808.512H87.9795V812.02H78.1936V808.512H81.6552V792.321H78.1936V788.813ZM111.527 812.77C110.844 812.77 110.152 812.705 109.441 812.573C108.758 812.47 107.935 812.283 106.962 812.02L107.982 808.596C108.562 808.831 109.151 809.018 109.75 809.15C110.377 809.281 110.919 809.347 111.359 809.347C112.07 809.347 112.594 809.159 112.931 808.793C113.267 808.427 113.614 807.78 113.95 806.861L105.933 792.321H102.471V788.813H112.613V792.321H110.33L115.672 802.527L119.526 792.321H117.094V788.813H127.31V792.321H123.418L117.169 807.921C116.514 809.525 115.793 810.735 115.008 811.542C114.222 812.358 113.052 812.761 111.509 812.761L111.527 812.77ZM143.037 792.284C142.906 792.209 142.634 792.115 142.213 792.012C141.792 791.88 141.297 791.758 140.717 791.655C140.136 791.552 139.51 791.496 138.827 791.496C136.441 791.496 134.607 792.284 133.326 793.86C132.072 795.407 131.436 797.593 131.436 800.398C131.436 803.203 132.091 805.444 133.401 807.02C134.71 808.568 136.516 809.347 138.827 809.347C139.482 809.347 140.099 809.281 140.67 809.15C141.25 809.018 141.746 808.887 142.167 808.756C142.588 808.596 142.878 808.493 143.027 808.437L143.851 805.125L147.228 805.913L146.124 811.11C146.124 811.11 145.825 811.241 145.217 811.504C144.618 811.767 143.748 812.029 142.625 812.292C141.521 812.583 140.258 812.724 138.817 812.724C136.516 812.724 134.486 812.255 132.727 811.307C130.996 810.36 129.649 808.971 128.676 807.133C127.731 805.294 127.245 803.052 127.226 800.398C127.226 797.846 127.694 795.661 128.639 793.822C129.583 791.984 130.921 790.567 132.643 789.563C134.402 788.569 136.441 788.081 138.771 788.109C140.445 788.109 141.839 788.269 142.934 788.579C144.056 788.897 144.889 789.226 145.413 789.563C145.965 789.882 146.236 790.051 146.236 790.079L147.256 795.239L143.841 795.989L143.018 792.284H143.037ZM150.297 788.813H160.082V792.321H157.725V798.7H160.943L165.621 792.321H163.301V788.813H173.283V792.321H169.672L164.049 799.647L170.299 808.512H174.228V812.02H163.029V808.512H165.939L161.495 802.086H157.725L157.762 808.512H160.082V812.02H150.297V808.512H153.758V792.321H150.297V788.813ZM177.156 788.813H187.017V792.321H184.659L184.622 806.861L195.98 788.813H203.445V792.321H199.909V808.512H203.37V812.02H193.622V808.512H195.942V794.132L184.622 812.02H177.156V808.512H180.655V792.321H177.156V788.813Z" fill="#EFEFEF"/>
<path d="M67.323 531.923C65.4145 534.39 63.8615 536.875 62.6827 539.371C61.5039 541.838 60.6432 544.23 60.0912 546.537C59.5673 548.826 59.3054 550.927 59.3054 552.841H55.217C55.348 550.815 55.6661 548.77 56.1619 546.697C56.6858 544.595 57.4436 542.429 58.4447 540.196C59.4644 537.935 60.7742 535.59 62.374 533.142H53.0652L52.4758 535.778L48.9395 534.99L49.9218 529.634H67.3324V531.923H67.323ZM94.8657 533.105C94.7347 533.03 94.4634 532.936 94.0424 532.833C93.6214 532.701 93.1255 532.579 92.5455 532.476C91.9654 532.373 91.3386 532.317 90.6557 532.317C88.27 532.317 86.4363 533.105 85.1546 534.68C83.901 536.228 83.2648 538.414 83.2648 541.219C83.2648 544.023 83.9197 546.265 85.2295 547.841C86.5392 549.389 88.3449 550.167 90.6557 550.167C91.3106 550.167 91.928 550.102 92.4987 549.97C93.0788 549.839 93.5746 549.708 93.9956 549.576C94.4166 549.417 94.7066 549.314 94.8563 549.258L95.6796 545.946L99.0569 546.734L97.953 551.931C97.953 551.931 97.6536 552.062 97.0455 552.325C96.4467 552.588 95.5767 552.85 94.454 553.113C93.3501 553.404 92.0871 553.544 90.6463 553.544C88.3449 553.544 86.3147 553.075 84.5559 552.128C82.8251 551.18 81.4779 549.792 80.5049 547.954C79.56 546.115 79.0735 543.873 79.0548 541.219C79.0548 538.667 79.5226 536.481 80.4675 534.643C81.4124 532.804 82.7503 531.388 84.4717 530.384C86.2305 529.39 88.27 528.902 90.5995 528.93C92.2742 528.93 93.6681 529.09 94.7627 529.399C95.8854 529.718 96.718 530.047 97.242 530.384C97.7939 530.703 98.0652 530.872 98.0652 530.9L99.085 536.059L95.6702 536.81L94.8469 533.105H94.8657ZM102.004 529.634H122.67V536.96H119.059V533.142H114.381L114.344 549.333H117.805V552.841H106.803V549.333H110.302V533.142H105.662V536.96H102.004V529.634ZM136.039 528.921C138.266 528.921 140.221 529.418 141.896 530.422C143.599 531.397 144.918 532.795 145.863 534.634C146.807 536.444 147.275 538.639 147.275 541.209C147.275 543.779 146.807 545.946 145.863 547.785C144.918 549.623 143.608 551.04 141.933 552.043C140.259 553.038 138.303 553.544 136.077 553.544C133.85 553.544 131.923 553.047 130.22 552.043C128.545 551.049 127.236 549.623 126.291 547.785C125.346 545.946 124.878 543.751 124.878 541.209C124.878 538.667 125.346 536.444 126.291 534.634C127.236 532.795 128.545 531.388 130.22 530.422C131.895 529.427 133.831 528.921 136.039 528.921ZM136.077 532.345C133.822 532.345 132.091 533.123 130.894 534.671C129.687 536.191 129.088 538.376 129.088 541.209C129.088 544.042 129.687 546.275 130.894 547.832C132.101 549.351 133.831 550.121 136.077 550.121C138.322 550.121 140.062 549.361 141.26 547.832C142.466 546.284 143.065 544.08 143.065 541.209C143.065 538.339 142.466 536.191 141.26 534.671C140.053 533.123 138.322 532.345 136.077 532.345ZM150.269 553.385H149.717C149.558 553.385 149.268 553.376 148.856 553.347V549.605C150.325 549.605 151.438 549.351 152.196 548.854C152.982 548.329 153.534 547.485 153.843 546.331C154.18 545.149 154.423 543.573 154.554 541.603L155.181 533.095H151.682V529.587H172.703V533.095H168.971L168.933 549.323H172.666V552.831H162.132V549.323H164.92L164.957 533.095H158.708L157.959 542.626C157.828 544.699 157.501 546.556 156.977 548.179C156.481 549.783 155.695 551.059 154.619 551.997C153.571 552.916 152.121 553.375 150.26 553.375L150.269 553.385ZM187.457 528.921C189.684 528.921 191.639 529.418 193.314 530.422C195.016 531.397 196.336 532.795 197.28 534.634C198.225 536.444 198.693 538.639 198.693 541.209C198.693 543.779 198.225 545.946 197.28 547.785C196.336 549.623 195.026 551.04 193.351 552.043C191.676 553.038 189.721 553.544 187.495 553.544C185.268 553.544 183.341 553.047 181.638 552.043C179.963 551.049 178.654 549.623 177.709 547.785C176.764 545.946 176.296 543.751 176.296 541.209C176.296 538.667 176.764 536.444 177.709 534.634C178.654 532.795 179.963 531.388 181.638 530.422C183.313 529.427 185.249 528.921 187.457 528.921ZM187.495 532.345C185.24 532.345 183.509 533.123 182.312 534.671C181.105 536.191 180.506 538.376 180.506 541.209C180.506 544.042 181.105 546.275 182.312 547.832C183.518 549.351 185.249 550.121 187.495 550.121C189.74 550.121 191.48 549.361 192.678 547.832C193.884 546.284 194.483 544.08 194.483 541.209C194.483 538.339 193.884 536.191 192.678 534.671C191.471 533.123 189.74 532.345 187.495 532.345ZM201.968 552.831V549.323H205.429V533.133H201.968V529.624H212.146C215.103 529.624 217.357 530.159 218.901 531.238C220.473 532.288 221.259 533.808 221.259 535.806C221.259 536.913 220.987 537.917 220.435 538.836C219.883 539.727 219.116 540.421 218.115 540.928C219.266 541.294 220.201 541.969 220.903 542.935C221.614 543.883 221.96 545.065 221.96 546.481C221.96 548.395 221.305 549.933 219.996 551.087C218.714 552.24 216.759 552.822 214.139 552.822H201.958L201.968 552.831ZM209.433 549.323H213.681C214.99 549.323 216.001 549.051 216.702 548.498C217.413 547.916 217.76 547.063 217.76 545.937C217.76 544.886 217.423 544.089 216.74 543.536C216.085 542.982 215.14 542.71 213.915 542.71H209.471L209.433 549.333V549.323ZM209.471 539.596H213.952C214.944 539.596 215.711 539.305 216.235 538.733C216.759 538.151 217.021 537.363 217.021 536.369C217.021 534.211 215.542 533.142 212.577 533.142H209.471V539.605V539.596Z" fill="#EFEFEF"/>
<path d="M79.7268 470.059C79.7268 465.528 69.2486 461.851 56.338 461.851C43.4274 461.851 32.9492 465.528 32.9492 470.059C32.9492 474.308 42.1925 477.826 53.9991 478.22V487.647H50.1446C48.2268 487.647 46.5147 488.82 45.7943 490.602L42.3141 499.372H46.9918L49.7985 492.337H62.8962L65.7029 499.372H70.3806L66.8723 490.602C66.1706 488.82 64.4399 487.647 62.5501 487.647H58.6956V478.22C70.5022 477.826 79.7455 474.308 79.7455 470.059H79.7268Z" fill="#F2C247"/>
<path d="M159.25 470.059C159.25 465.528 148.772 461.851 135.861 461.851C122.951 461.851 112.473 465.528 112.473 470.059C112.473 474.308 121.716 477.826 133.523 478.22V487.647H129.668C127.75 487.647 126.038 488.82 125.318 490.602L121.828 499.372H126.506L129.313 492.337H142.41L145.217 499.372H149.895L146.386 490.602C145.685 488.82 143.954 487.647 142.064 487.647H138.21V478.22C150.016 477.826 159.26 474.308 159.26 470.059H159.25Z" fill="#F2C247"/>
<path d="M79.7268 591.066C79.7268 586.535 69.2486 582.858 56.338 582.858C43.4274 582.858 32.9492 586.535 32.9492 591.066C32.9492 595.315 42.1925 598.833 53.9991 599.227V608.654H50.1446C48.2268 608.654 46.5147 609.826 45.7943 611.609L42.3141 620.379H46.9918L49.7985 613.344H62.8962L65.7029 620.379H70.3806L66.8723 611.609C66.1706 609.826 64.4399 608.654 62.5501 608.654H58.6956V599.227C70.5022 598.833 79.7455 595.315 79.7455 591.066H79.7268Z" fill="#F2C247"/>
<path d="M159.25 591.066C159.25 586.535 148.772 582.858 135.861 582.858C122.951 582.858 112.473 586.535 112.473 591.066C112.473 595.315 121.716 598.833 133.523 599.227V608.654H129.668C127.75 608.654 126.038 609.826 125.318 611.609L121.828 620.379H126.506L129.313 613.344H142.41L145.217 620.379H149.895L146.386 611.609C145.685 609.826 143.954 608.654 142.064 608.654H138.21V599.227C150.016 598.833 159.26 595.315 159.26 591.066H159.25Z" fill="#F2C247"/>
<path d="M238.772 591.066C238.772 586.535 228.294 582.858 215.383 582.858C202.472 582.858 191.994 586.535 191.994 591.066C191.994 595.315 201.237 598.833 213.044 599.227V608.654H209.19C207.272 608.654 205.56 609.826 204.839 611.609L201.35 620.379H206.027L208.834 613.344H221.932L224.738 620.379H229.416L225.908 611.609C225.206 609.826 223.475 608.654 221.586 608.654H217.731V599.227C229.538 598.833 238.781 595.315 238.781 591.066H238.772Z" fill="#F2C247"/>
<path d="M303.324 530.093C303.324 525.563 292.846 521.885 279.936 521.885C267.025 521.885 256.547 525.563 256.547 530.093C256.547 534.343 265.79 537.86 277.597 538.254V547.681H273.742C271.824 547.681 270.112 548.854 269.392 550.636L265.902 559.407H270.58L273.387 552.372H286.485L289.291 559.407H293.969L290.461 550.636C289.759 548.854 288.028 547.681 286.138 547.681H282.284V538.254C294.091 537.86 303.334 534.343 303.334 530.093H303.324Z" fill="#F2C247"/>
<path d="M238.772 470.059C238.772 465.528 228.294 461.851 215.383 461.851C202.472 461.851 191.994 465.528 191.994 470.059C191.994 474.308 201.237 477.826 213.044 478.22V487.647H209.19C207.272 487.647 205.56 488.82 204.839 490.602L201.35 499.372H206.027L208.834 492.337H221.932L224.738 499.372H229.416L225.908 490.602C225.206 488.82 223.475 487.647 221.586 487.647H217.731V478.22C229.538 477.826 238.781 474.308 238.781 470.059H238.772Z" fill="#F2C247"/>
<path d="M1039.22 322.919C1040.06 322.919 1040.74 323.603 1040.74 324.457V327.412L1042.19 325.939C1042.78 325.339 1043.74 325.339 1044.33 325.939C1044.92 326.539 1044.92 327.515 1044.33 328.115L1040.73 331.774V336.68L1044.91 334.231L1046.23 329.241C1046.44 328.415 1047.27 327.937 1048.08 328.153C1048.89 328.369 1049.37 329.213 1049.16 330.038L1048.62 332.046L1050.97 330.676C1051.69 330.254 1052.62 330.507 1053.04 331.239C1053.46 331.98 1053.21 332.918 1052.49 333.34L1050.14 334.71L1052.13 335.254C1052.94 335.469 1053.41 336.314 1053.21 337.139C1052.99 337.965 1052.16 338.443 1051.34 338.227L1046.43 336.886L1042.25 339.344L1046.43 341.792L1051.34 340.45C1052.15 340.235 1052.98 340.722 1053.2 341.539C1053.41 342.364 1052.94 343.208 1052.12 343.424L1050.14 343.968L1052.49 345.338C1053.21 345.76 1053.46 346.707 1053.04 347.439C1052.62 348.18 1051.69 348.424 1050.97 348.002L1048.62 346.632L1049.16 348.649C1049.37 349.474 1048.89 350.319 1048.08 350.534C1047.27 350.75 1046.44 350.262 1046.23 349.446L1044.91 344.456L1040.74 341.998V346.904L1044.34 350.562C1044.93 351.163 1044.93 352.138 1044.34 352.739C1043.74 353.339 1042.78 353.339 1042.19 352.739L1040.74 351.266V354.211C1040.74 355.065 1040.06 355.75 1039.23 355.75C1038.4 355.75 1037.71 355.065 1037.71 354.211V351.257L1036.26 352.729C1035.66 353.33 1034.71 353.33 1034.12 352.729C1033.53 352.129 1033.52 351.153 1034.12 350.553L1037.71 346.895V341.998L1033.54 344.446L1032.22 349.437C1032.01 350.262 1031.17 350.741 1030.36 350.525C1029.56 350.309 1029.08 349.456 1029.29 348.64L1029.82 346.623L1027.47 347.992C1026.75 348.414 1025.82 348.161 1025.4 347.429C1024.98 346.688 1025.23 345.75 1025.95 345.328L1028.3 343.959L1026.31 343.415C1025.5 343.199 1025.03 342.355 1025.23 341.529C1025.45 340.704 1026.28 340.225 1027.1 340.441L1032.01 341.782L1036.19 339.325L1032.01 336.877L1027.1 338.209C1026.28 338.424 1025.45 337.937 1025.23 337.12C1025.03 336.295 1025.5 335.451 1026.31 335.235L1028.3 334.691L1025.95 333.321C1025.23 332.899 1024.98 331.952 1025.4 331.22C1025.82 330.479 1026.75 330.235 1027.47 330.657L1029.82 332.027L1029.28 330.01C1029.07 329.185 1029.55 328.34 1030.36 328.125C1031.16 327.909 1032 328.397 1032.21 329.213L1033.53 334.203L1037.7 336.661V331.755L1034.1 328.106C1033.51 327.506 1033.51 326.53 1034.1 325.93C1034.7 325.329 1035.66 325.329 1036.24 325.93L1037.69 327.402V324.448C1037.69 323.594 1038.38 322.909 1039.21 322.909H1039.22V322.919Z" fill="#F2C247"/>
<path d="M403.223 845.78H398.545C396.478 845.78 394.803 844.101 394.803 842.028V827.957C394.803 825.884 396.478 824.205 398.545 824.205C398.873 824.205 399.181 824.243 399.481 824.327V817.639H379.834C377.776 817.639 376.101 815.969 376.092 813.915C375.97 794.582 377.739 776.797 400.641 754.894C401.726 753.862 403.317 753.571 404.692 754.162C406.067 754.753 406.965 756.113 406.965 757.614V842.037C406.965 844.11 405.291 845.789 403.223 845.789V845.78ZM383.586 810.135H399.481V766.891C385.85 782.416 383.745 795.539 383.586 810.135ZM351.768 845.78C349.7 845.78 348.025 844.101 348.025 842.028V793.794C344.704 793.081 341.654 791.43 339.194 788.963C335.835 785.596 333.992 781.121 333.992 776.365V762.295C333.992 760.222 335.667 758.543 337.734 758.543C339.802 758.543 341.477 760.222 341.477 762.295V776.365C341.477 779.086 342.571 781.74 344.489 783.663C345.509 784.686 346.716 785.474 348.025 785.989V762.304C348.025 760.231 349.7 758.552 351.768 758.552C353.835 758.552 355.51 760.231 355.51 762.304V785.989C356.82 785.474 358.017 784.695 359.046 783.663C360.964 781.74 362.059 779.086 362.059 776.365V762.295C362.059 760.222 363.733 758.543 365.801 758.543C367.868 758.543 369.543 760.222 369.543 762.295V776.365C369.543 781.131 367.691 785.605 364.341 788.972C361.881 791.44 358.831 793.09 355.51 793.803V842.037C355.51 844.11 353.835 845.789 351.768 845.789V845.78Z" fill="#F2C247"/>
<path d="M653.249 550.918C653.249 551.396 653.062 551.856 652.725 552.193C652.388 552.531 651.93 552.719 651.462 552.719C650.994 552.719 650.526 552.531 650.199 552.193C649.862 551.856 649.675 551.396 649.675 550.918C649.675 550.439 649.862 549.98 650.199 549.642C650.536 549.304 650.994 549.117 651.462 549.117C651.93 549.117 652.397 549.304 652.725 549.642C653.062 549.98 653.249 550.439 653.249 550.918ZM648.768 562.606C648.768 561.893 649.048 561.208 649.553 560.701C650.059 560.195 650.742 559.913 651.453 559.913C652.164 559.913 652.847 560.195 653.352 560.701C653.857 561.208 654.138 561.893 654.138 562.606C654.138 563.319 653.857 564.003 653.352 564.51C652.847 565.016 652.164 565.298 651.453 565.298C650.742 565.298 650.059 565.016 649.553 564.51C649.048 564.003 648.768 563.319 648.768 562.606Z" fill="#F2C247"/>
<path d="M644.286 543.732C643.332 543.732 642.425 544.108 641.751 544.783C641.077 545.458 640.703 546.368 640.703 547.325V568.9C640.703 569.857 641.077 570.767 641.751 571.442C642.425 572.117 643.332 572.493 644.286 572.493H658.628C659.583 572.493 660.49 572.117 661.164 571.442C661.837 570.767 662.211 569.857 662.211 568.9V547.325C662.211 546.368 661.837 545.458 661.164 544.783C660.49 544.108 659.583 543.732 658.628 543.732H644.286ZM655.045 550.927C655.045 551.884 654.671 552.794 653.997 553.469C653.324 554.145 652.416 554.52 651.462 554.52C650.508 554.52 649.6 554.145 648.927 553.469C648.253 552.794 647.879 551.884 647.879 550.927C647.879 549.97 648.253 549.06 648.927 548.385C649.6 547.71 650.508 547.334 651.462 547.334C652.416 547.334 653.324 547.71 653.997 548.385C654.671 549.06 655.045 549.97 655.045 550.927ZM651.462 556.321C653.127 556.321 654.718 556.987 655.896 558.159C657.075 559.341 657.73 560.936 657.73 562.606C657.73 564.275 657.066 565.87 655.896 567.052C654.718 568.234 653.118 568.89 651.462 568.89C649.806 568.89 648.206 568.225 647.027 567.052C645.849 565.87 645.194 564.275 645.194 562.606C645.194 560.936 645.858 559.341 647.027 558.159C648.206 556.977 649.806 556.321 651.462 556.321Z" fill="#F2C247"/>
<path d="M796.387 550.918C796.387 551.396 796.191 551.856 795.863 552.193C795.526 552.531 795.068 552.719 794.591 552.719C794.114 552.719 793.655 552.531 793.318 552.193C792.991 551.856 792.795 551.396 792.795 550.918C792.795 550.439 792.991 549.98 793.318 549.642C793.655 549.304 794.114 549.117 794.591 549.117C795.068 549.117 795.526 549.304 795.863 549.642C796.191 549.98 796.387 550.439 796.387 550.918ZM791.896 562.606C791.896 561.893 792.186 561.208 792.692 560.701C793.197 560.195 793.88 559.913 794.591 559.913C795.302 559.913 795.985 560.195 796.49 560.701C796.995 561.208 797.285 561.893 797.285 562.606C797.285 563.319 796.995 564.003 796.49 564.51C795.985 565.016 795.302 565.298 794.591 565.298C793.88 565.298 793.197 565.016 792.692 564.51C792.186 564.003 791.896 563.319 791.896 562.606Z" fill="#F2C247"/>
<path d="M787.415 543.732C786.47 543.732 785.553 544.108 784.88 544.783C784.206 545.458 783.832 546.368 783.832 547.325V568.9C783.832 569.857 784.206 570.767 784.88 571.442C785.553 572.117 786.47 572.493 787.415 572.493H801.767C802.711 572.493 803.628 572.117 804.302 571.442C804.975 570.767 805.35 569.857 805.35 568.9V547.325C805.35 546.368 804.975 545.458 804.302 544.783C803.628 544.108 802.711 543.732 801.767 543.732H787.415ZM798.174 550.927C798.174 551.884 797.8 552.794 797.126 553.469C796.453 554.145 795.545 554.52 794.591 554.52C793.637 554.52 792.729 554.145 792.056 553.469C791.382 552.794 791.008 551.884 791.008 550.927C791.008 549.97 791.382 549.06 792.056 548.385C792.729 547.71 793.637 547.334 794.591 547.334C795.545 547.334 796.453 547.71 797.126 548.385C797.8 549.06 798.174 549.97 798.174 550.927ZM794.591 556.321C796.256 556.321 797.856 556.987 799.025 558.159C800.204 559.341 800.868 560.936 800.868 562.606C800.868 564.275 800.204 565.87 799.025 567.052C797.856 568.234 796.256 568.89 794.591 568.89C792.926 568.89 791.326 568.225 790.156 567.052C788.978 565.87 788.313 564.275 788.313 562.606C788.313 560.936 788.978 559.341 790.156 558.159C791.326 556.977 792.926 556.321 794.591 556.321Z" fill="#F2C247"/>
<path fill-rule="evenodd" clip-rule="evenodd" d="M719.906 562.624H694.955C689.791 562.624 685.6 558.488 685.6 553.375V537.963C685.6 532.86 689.791 528.714 694.955 528.714H751.088C756.252 528.714 760.444 532.851 760.444 537.963V553.375C760.444 558.478 756.252 562.624 751.088 562.624H726.137V565.71H732.377C734.099 565.71 735.493 567.089 735.493 568.797C735.493 570.504 734.099 571.883 732.377 571.883H713.666C711.945 571.883 710.551 570.504 710.551 568.797C710.551 567.089 711.945 565.71 713.666 565.71H719.906V562.624ZM694.955 534.887H751.088C752.81 534.887 754.204 536.266 754.204 537.973V553.385C754.204 555.083 752.81 556.471 751.088 556.471H694.955C693.234 556.471 691.84 555.092 691.84 553.385V537.973C691.84 536.275 693.234 534.887 694.955 534.887Z" fill="#F2C247"/>
<path d="M575.888 605.887H585.636L591.409 621.214L596.835 605.887H606.499V609.395H603.037V625.585H606.499V629.094H596.517V625.585H599.033V608.917L597.387 614.16L592.99 626.298H589.65L584.738 613.813L583.092 609.085L583.017 625.595H585.608V629.103H575.822V625.595H579.321L579.359 609.404H575.897V605.896L575.888 605.887ZM617.277 629.844C616.594 629.844 615.901 629.778 615.19 629.647C614.507 629.544 613.684 629.356 612.711 629.094L613.731 625.67C614.311 625.904 614.9 626.092 615.499 626.223C616.126 626.355 616.668 626.42 617.108 626.42C617.819 626.42 618.343 626.233 618.68 625.867C619.017 625.501 619.363 624.854 619.7 623.934L611.682 609.395H608.22V605.887H618.362V609.395H616.079L621.421 619.601L625.275 609.395H622.843V605.887H633.059V609.395H629.167L622.918 624.994C622.263 626.599 621.543 627.809 620.757 628.615C619.971 629.431 618.802 629.835 617.258 629.835L617.277 629.844ZM634.014 629.647H633.462C633.303 629.647 633.012 629.638 632.601 629.61V625.867C634.07 625.867 635.183 625.614 635.941 625.116C636.727 624.591 637.279 623.747 637.587 622.593C637.924 621.411 638.167 619.835 638.298 617.865L638.925 609.357H635.426V605.849H656.448V609.357H652.715L652.678 625.585H656.411V629.094H645.876V625.585H648.664L648.702 609.357H642.452L641.704 618.888C641.573 620.961 641.245 622.818 640.721 624.441C640.226 626.045 639.44 627.321 638.364 628.259C637.316 629.178 635.866 629.638 634.004 629.638L634.014 629.647ZM671.632 614.357C673.522 614.357 675.066 614.62 676.272 615.145C677.507 615.642 678.424 616.43 679.023 617.509C679.65 618.588 679.968 619.948 679.968 621.608C679.968 623.156 679.64 624.497 678.985 625.623C678.359 626.73 677.451 627.583 676.272 628.184C675.122 628.784 673.718 629.094 672.072 629.094L660.246 629.056V625.585H663.661V609.357H660.321V605.849H670.023V609.357H667.628V614.357H671.632ZM671.239 625.585C671.791 625.585 672.324 625.529 672.848 625.426C673.4 625.323 673.887 625.135 674.298 624.873C674.747 624.582 675.094 624.178 675.356 623.653C675.618 623.1 675.748 622.405 675.748 621.561C675.748 620.539 675.561 619.76 675.197 619.235C674.86 618.71 674.354 618.353 673.7 618.175C673.045 617.969 672.249 617.856 671.305 617.856H667.609V625.576H671.22L671.239 625.585ZM679.987 605.887H700.653V613.213H697.042V609.395H692.364L692.326 625.585H695.788V629.094H684.786V625.585H688.285V609.395H683.645V613.213H679.987V605.887ZM703.665 605.887H713.526V609.395H711.168L711.131 623.934L722.489 605.887H729.954V609.395H726.418V625.585H729.879V629.094H720.131V625.585H722.451V611.205L711.131 629.094H703.665V625.585H707.164V609.395H703.665V605.887ZM733.098 605.887H742.846L748.619 621.214L754.045 605.887H763.709V609.395H760.257V625.585H763.709V629.094H753.727V625.585H756.243V608.917L754.597 614.16L750.19 626.298H746.85L741.939 613.813L740.292 609.085L740.217 625.595H742.809V629.103H733.023V625.595H736.522L736.559 609.404H733.098V605.896V605.887ZM766.909 605.887H784.59L786.789 612.509L783.487 613.654L781.952 609.395H774.412V615.464H781.325V618.935H774.412V625.595H782.897L784.357 621.533L787.65 622.677L785.451 629.103H766.871V625.595H770.361L770.408 609.404H766.909V605.896V605.887ZM793.413 625.585C794.124 624.638 794.694 623.512 795.143 622.199C795.611 620.858 795.929 619.122 796.088 617.002L796.715 609.395H792.627V605.887H814.201V609.395H810.43V625.585H814.116V634.328H810.739V629.084H793.843V634.328H790.503V625.585H793.413ZM796.949 625.585H806.454V609.395H800.326L799.541 617.509C799.382 619.404 799.082 620.989 798.642 622.274C798.193 623.531 797.632 624.638 796.949 625.585ZM817.672 605.887H827.532V609.395H825.175L825.137 623.934L836.495 605.887H843.961V609.395H840.424V625.585H843.876V629.094H834.137V625.585H836.457V611.205L825.137 629.094H817.672V625.585H821.171V609.395H817.672V605.887ZM845.804 629.094V625.585H849.621L855.786 609.395H852.212V605.887H860.66L867.855 625.585H871.466V629.094H861.521V625.585H863.766L862.55 622.115H854.448L853.194 625.585H855.552V629.094H845.804ZM855.515 619.169H861.521L858.621 610.183L855.515 619.169Z" fill="white"/>
<path d="M915.792 362.316C913.191 362.316 911.105 360.469 911.049 358.283V339.166C911.049 337.459 911.61 335.808 912.742 334.344L914.885 331.568C915.511 330.789 915.904 329.917 916.017 328.988L917.878 317.891H917.149C916.353 317.891 915.736 317.356 915.736 316.672C915.736 315.987 916.353 315.405 917.149 315.405H926.467C927.262 315.405 927.879 315.94 927.879 316.625C927.879 317.31 927.262 317.844 926.467 317.844H925.737L927.599 328.941C927.767 329.87 928.16 330.742 928.731 331.521L930.873 334.297C932.005 335.714 932.566 337.365 932.566 339.119V358.236C932.566 360.478 930.424 362.27 927.879 362.326H915.792V362.316ZM924.886 329.279L922.968 317.844H920.704L918.786 329.279H924.886Z" fill="#F2C247"/>
<path fill-rule="evenodd" clip-rule="evenodd" d="M804.602 360.121V344.728H806.061V360.121H804.602Z" fill="#F2C247"/>
<path fill-rule="evenodd" clip-rule="evenodd" d="M788.567 328.341C788.679 328.059 788.95 327.872 789.25 327.872H821.414C821.713 327.872 821.985 328.059 822.097 328.341C822.2 328.622 822.125 328.941 821.901 329.147L817.887 332.815C817.588 333.087 817.12 333.068 816.849 332.768C816.577 332.468 816.605 332.008 816.905 331.736L819.524 329.344H791.14L793.759 331.736C794.059 332.008 794.087 332.468 793.815 332.768C793.544 333.068 793.076 333.087 792.777 332.815L788.763 329.147C788.539 328.941 788.464 328.622 788.567 328.341Z" fill="#F2C247"/>
<path d="M805.332 344.728L796.557 335.929H814.108L805.332 344.728Z" fill="#F2C247"/>
<path d="M805.332 345.666C805.089 345.666 804.855 345.572 804.668 345.394L795.892 336.605C795.621 336.332 795.546 335.929 795.686 335.582C795.827 335.235 796.173 335 796.547 335H814.098C814.472 335 814.818 335.226 814.959 335.582C815.109 335.929 815.024 336.332 814.753 336.605L805.978 345.394C805.79 345.582 805.557 345.666 805.313 345.666H805.332ZM798.821 336.867L805.332 343.396L811.843 336.867H798.811H798.821Z" fill="#F2C247"/>
<path fill-rule="evenodd" clip-rule="evenodd" d="M797.295 360.121C797.295 359.718 797.622 359.39 798.025 359.39H812.638C813.04 359.39 813.368 359.718 813.368 360.121C813.368 360.525 813.04 360.853 812.638 360.853H798.025C797.622 360.853 797.295 360.525 797.295 360.121Z" fill="#F2C247"/>
<path fill-rule="evenodd" clip-rule="evenodd" d="M818.307 323.228L813.19 329.091L812.086 328.125L817.203 322.262L818.307 323.228Z" fill="#F2C247"/>
<path d="M818.486 324.945C820.506 324.945 822.144 323.303 822.144 321.277C822.144 319.251 820.506 317.609 818.486 317.609C816.466 317.609 814.828 319.251 814.828 321.277C814.828 323.303 816.466 324.945 818.486 324.945Z" fill="#F2C247"/>
<path d="M882.665 435.023C885.2 434.995 887.146 435.539 888.475 436.637C889.813 437.744 890.486 439.366 890.486 441.524C890.486 443.813 889.85 445.567 888.596 446.805C887.343 448.015 885.509 448.615 883.095 448.615H870.521V445.107H873.983V428.917H870.521V425.408H887.885L889.504 431.318L886.042 432.303L885.097 428.917H877.987V435.098L882.665 435.023ZM882.188 445.107C883.498 445.107 884.508 444.835 885.219 444.282C885.921 443.7 886.276 442.828 886.276 441.646C886.276 440.539 885.949 439.742 885.294 439.244C884.639 438.719 883.694 438.485 882.468 438.532L877.987 438.607L877.95 445.107H882.188ZM891.908 448.615V445.107H895.716L901.881 428.917H898.307V425.408H906.755L913.95 445.107H917.561V448.615H907.625V445.107H909.861L908.645 441.636H900.553L899.29 445.107H901.647V448.615H891.908ZM901.61 438.691H907.625L904.716 429.705L901.61 438.691ZM929.742 425.418C932.67 425.418 934.915 426.065 936.459 427.35C938.031 428.607 938.817 430.446 938.817 432.866C938.817 435.286 938.031 437.228 936.459 438.541C934.915 439.826 932.67 440.473 929.742 440.473H926.87V445.126H931.117V448.634H919.441V445.126H922.866V428.935H919.441V425.427H929.742V425.418ZM929.704 437.2C932.979 437.2 934.616 435.783 934.616 432.941C934.616 430.258 932.979 428.926 929.704 428.926H926.907V437.2H929.704Z" fill="#F2C247"/>
<path d="M756.748 800.96C752.425 800.726 748.14 801.852 744.492 804.178C743.612 803.174 742.705 802.161 741.751 801.204L741.04 800.538L741.376 800.247C742.574 799.216 743.435 797.837 743.828 796.308C744.221 794.779 744.136 793.156 743.584 791.674C742.789 789.995 741.526 788.588 739.945 787.622C738.364 786.655 736.54 786.168 734.687 786.215V791.13C735.557 791.12 736.418 791.336 737.176 791.768C737.934 792.199 738.57 792.828 739 793.587C739.421 794.572 739 795.651 737.849 796.805L737.288 797.321C734.725 795.182 731.918 793.372 728.924 791.918C722.722 789.113 719.541 790.417 717.969 791.918C717.492 792.396 717.108 792.968 716.846 793.587L716.407 794.891L712.87 805.547C715.667 812.526 722.431 824.927 737.138 830.283L749.394 826.203C749.806 826.053 750.171 825.781 750.451 825.443L750.966 825.002C754.465 821.466 752.21 814.656 747.504 808.052C750.302 806.42 753.52 805.66 756.748 805.866V800.951V800.96ZM747.458 821.522H747.308C745.624 822.432 738.607 820.124 730.664 812.161C729.832 811.326 729.046 810.519 728.335 809.703C728.092 809.431 727.876 809.14 727.624 808.84L726.333 807.264L725.64 806.307C725.304 805.838 724.958 805.379 724.658 804.928C724.368 804.487 724.275 804.29 724.078 803.972C723.882 803.653 723.535 803.137 723.311 802.724C723.096 802.302 722.993 802.133 722.853 801.814C722.703 801.495 722.431 801.129 722.282 800.782C722.141 800.435 722.067 800.219 721.945 799.947C721.823 799.675 721.674 799.281 721.571 798.962C721.477 798.643 721.449 798.493 721.402 798.249C721.356 798.006 721.253 797.659 721.206 797.415C721.197 797.218 721.197 797.021 721.206 796.824C721.178 796.608 721.178 796.402 721.206 796.186L721.477 795.426C721.889 794.985 723.704 794.863 726.941 796.336C729.102 797.377 731.151 798.643 733.041 800.116C732.012 800.576 730.908 800.857 729.785 800.951V805.866C732.386 805.716 734.912 804.928 737.138 803.559L738.336 804.694C739.421 805.754 740.375 806.804 741.255 807.817C739.777 810.341 739.187 813.296 739.589 816.194L744.492 815.237C744.323 814.309 744.323 813.361 744.492 812.433C747.654 817.273 748.243 820.762 747.458 821.522ZM711.158 810.791L705.695 827.254C705.292 828.464 705.189 829.749 705.386 831.006C705.582 832.263 706.078 833.454 706.817 834.486C707.566 835.518 708.539 836.352 709.671 836.934C710.793 837.516 712.047 837.816 713.31 837.825C714.152 837.825 714.975 837.675 715.761 837.403L731.75 832.075C722.731 827.46 715.49 819.974 711.158 810.8V810.791Z" fill="#F2C247"/>
<path d="M790.68 776.612H801.264V780.35H798.744L798.702 786.902H809.874V780.35H807.396V776.612H817.896V780.35H814.2L814.116 797.612H817.854V801.35H807.396V797.612H809.874V790.64H798.702V797.612H801.18V801.35H790.68V797.612H794.418V780.35H790.68V776.612ZM819.893 801.35V797.612H823.967L830.561 780.35H826.739V776.612H835.769L843.455 797.612H847.319V801.35H836.693V797.612H839.087L837.785 793.916H829.133L827.789 797.612H830.309V801.35H819.893ZM830.267 790.766H836.693L833.585 781.19L830.267 790.766ZM864.743 780.308C864.603 780.224 864.309 780.126 863.861 780.014C863.413 779.874 862.881 779.748 862.265 779.636C861.649 779.524 860.977 779.468 860.249 779.468C857.701 779.468 855.741 780.308 854.369 781.988C853.025 783.64 852.353 785.964 852.353 788.96C852.353 791.984 853.053 794.336 854.453 796.016C855.853 797.668 857.785 798.494 860.249 798.494C860.949 798.494 861.607 798.424 862.223 798.284C862.839 798.144 863.371 798.004 863.819 797.864C864.267 797.696 864.575 797.584 864.743 797.528L865.625 794L869.237 794.84L868.061 800.384C868.061 800.384 867.739 800.524 867.095 800.804C866.451 801.084 865.527 801.364 864.323 801.644C863.147 801.952 861.789 802.106 860.249 802.106C857.785 802.106 855.615 801.602 853.739 800.594C851.891 799.586 850.449 798.102 849.413 796.142C848.405 794.182 847.887 791.788 847.859 788.96C847.859 786.244 848.363 783.906 849.371 781.946C850.379 779.986 851.807 778.474 853.655 777.41C855.531 776.346 857.715 775.828 860.207 775.856C861.999 775.856 863.483 776.024 864.659 776.36C865.863 776.696 866.745 777.046 867.305 777.41C867.893 777.746 868.187 777.928 868.187 777.956L869.279 783.458L865.625 784.256L864.743 780.308ZM872.375 776.612H894.467V784.424H890.603V780.35H885.605L885.563 797.612H889.259V801.35H877.499V797.612H881.237V780.35H876.281V784.424H872.375V776.612ZM908.759 775.856C911.139 775.856 913.225 776.388 915.017 777.452C916.837 778.488 918.251 779.986 919.259 781.946C920.267 783.878 920.771 786.216 920.771 788.96C920.771 791.676 920.267 794.014 919.259 795.974C918.251 797.934 916.851 799.446 915.059 800.51C913.267 801.574 911.181 802.106 908.801 802.106C906.449 802.106 904.363 801.574 902.543 800.51C900.751 799.446 899.351 797.934 898.343 795.974C897.335 794.014 896.831 791.676 896.831 788.96C896.831 786.216 897.335 783.878 898.343 781.946C899.351 779.986 900.751 778.488 902.543 777.452C904.335 776.388 906.407 775.856 908.759 775.856ZM908.801 779.51C906.393 779.51 904.545 780.336 903.257 781.988C901.969 783.612 901.325 785.936 901.325 788.96C901.325 792.012 901.969 794.364 903.257 796.016C904.545 797.64 906.393 798.452 908.801 798.452C911.209 798.452 913.057 797.64 914.345 796.016C915.633 794.364 916.277 792.012 916.277 788.96C916.277 785.936 915.633 783.612 914.345 781.988C913.057 780.336 911.209 779.51 908.801 779.51ZM923.975 801.938C923.779 801.938 923.583 801.938 923.387 801.938C923.219 801.938 922.911 801.924 922.463 801.896V797.906C924.031 797.906 925.221 797.64 926.033 797.108C926.873 796.548 927.461 795.652 927.797 794.42C928.161 793.16 928.413 791.48 928.553 789.38L929.225 780.308H925.487V776.57H947.957V780.308H943.967L943.925 797.612H947.915V801.35H936.659V797.612H939.641L939.683 780.308H933.005L932.207 790.472C932.067 792.684 931.717 794.658 931.157 796.394C930.625 798.102 929.785 799.46 928.637 800.468C927.517 801.448 925.963 801.938 923.975 801.938ZM964.182 785.642C966.198 785.642 967.85 785.922 969.138 786.482C970.454 787.014 971.434 787.854 972.078 789.002C972.75 790.15 973.086 791.606 973.086 793.37C973.086 795.022 972.736 796.45 972.036 797.654C971.364 798.83 970.398 799.74 969.138 800.384C967.906 801.028 966.408 801.35 964.644 801.35L952.002 801.308V797.612H955.656V780.308H952.086V776.57H962.46V780.308H959.898V785.642H964.182ZM963.762 797.612C964.35 797.612 964.924 797.556 965.484 797.444C966.072 797.332 966.59 797.136 967.038 796.856C967.514 796.548 967.892 796.114 968.172 795.554C968.452 794.966 968.592 794.224 968.592 793.328C968.592 792.236 968.396 791.41 968.004 790.85C967.64 790.29 967.108 789.912 966.408 789.716C965.708 789.492 964.854 789.38 963.846 789.38H959.898V797.612H963.762ZM975.907 776.612H986.491V780.35H983.971L983.929 786.902H995.101V780.35H992.623V776.612H1003.12V780.35H999.427L999.343 797.612H1003.08V801.35H992.623V797.612H995.101V790.64H983.929V797.612H986.407V801.35H975.907V797.612H979.645V780.35H975.907V776.612ZM1006.8 801.308V797.612H1010.45V780.308H1006.88V776.57H1017.26V780.308H1014.7V785.642H1019.02C1021.01 785.642 1022.66 785.922 1023.98 786.482C1025.29 787.014 1026.27 787.854 1026.92 789.002C1027.56 790.15 1027.88 791.606 1027.88 793.37C1027.88 795.022 1027.55 796.45 1026.88 797.654C1026.2 798.83 1025.24 799.74 1023.98 800.384C1022.72 801.028 1021.22 801.35 1019.48 801.35L1006.8 801.308ZM1014.7 797.612H1018.6C1019.19 797.612 1019.76 797.556 1020.32 797.444C1020.88 797.332 1021.4 797.136 1021.88 796.856C1022.35 796.548 1022.72 796.114 1022.97 795.554C1023.25 794.966 1023.39 794.224 1023.39 793.328C1023.39 792.236 1023.21 791.41 1022.84 790.85C1022.48 790.29 1021.93 789.912 1021.21 789.716C1020.51 789.492 1019.67 789.38 1018.69 789.38H1014.7V797.612ZM1029.61 801.35V797.612H1032.08L1032.13 780.35H1029.56V776.654H1040.06V780.35H1036.37L1036.33 797.612H1040.06V801.35H1029.61ZM1043.79 776.612H1062.69L1065.04 783.668L1061.51 784.886L1059.87 780.35H1051.81V786.818H1059.2V790.514H1051.81V797.612H1060.88L1062.44 793.286L1065.96 794.504L1063.61 801.35H1043.75V797.612H1047.48L1047.53 780.35H1043.79V776.612ZM790.68 823.612H801.222V827.35H798.702L798.66 842.848L810.798 823.612H818.778V827.35H814.998V844.612H818.694V848.35H808.278V844.612H810.756V829.282L798.66 848.35H790.68V844.612H794.418V827.35H790.68V823.612ZM822.476 823.612H840.62L842.426 830.5L838.814 831.55L837.596 827.35H830.708L830.666 844.612H835.286V848.35H822.434V844.612H826.424L826.466 827.35H822.476V823.612ZM855.62 823.612C858.756 823.612 861.15 824.298 862.802 825.67C864.482 827.014 865.322 828.974 865.322 831.55C865.322 834.182 864.482 836.198 862.802 837.598C861.15 838.97 858.756 839.656 855.62 839.656H852.554V844.612H857.09V848.35H844.616V844.612H848.27V827.35H844.616V823.612H855.62ZM855.578 836.17C859.078 836.17 860.828 834.658 860.828 831.634C860.828 828.778 859.078 827.35 855.578 827.35H852.596V836.17H855.578ZM867.797 848.308V844.612H871.451V827.308H867.881V823.57H878.255V827.308H875.693V832.642H880.019C882.007 832.642 883.659 832.922 884.975 833.482C886.291 834.014 887.271 834.854 887.915 836.002C888.559 837.15 888.881 838.606 888.881 840.37C888.881 842.022 888.545 843.45 887.873 844.654C887.201 845.83 886.235 846.74 884.975 847.384C883.715 848.028 882.217 848.35 880.481 848.35L867.797 848.308ZM875.693 844.612H879.599C880.187 844.612 880.761 844.556 881.321 844.444C881.881 844.332 882.399 844.136 882.875 843.856C883.351 843.548 883.715 843.114 883.967 842.554C884.247 841.966 884.387 841.224 884.387 840.328C884.387 839.236 884.205 838.41 883.841 837.85C883.477 837.29 882.931 836.912 882.203 836.716C881.503 836.492 880.663 836.38 879.683 836.38H875.693V844.612ZM890.603 848.35V844.612H893.081L893.123 827.35H890.561V823.654H901.061V827.35H897.365L897.323 844.612H901.061V848.35H890.603Z" fill="white"/>
<path d="M258.668 460.901C259.403 460.167 260.59 460.167 261.317 460.901L265.075 464.65C265.263 464.838 265.411 465.064 265.505 465.314L266.708 468.517L272.763 474.579C276.287 472.283 280.522 472.22 282.999 474.704C283.858 475.563 284.405 476.626 284.671 477.798C284.96 479.094 286.163 480.196 287.491 480.266C289.492 480.368 291.343 481.102 292.75 482.5C296.25 486.008 295.594 492.335 291.289 496.64C286.984 500.944 280.655 501.6 277.155 498.1C275.756 496.702 275.014 494.843 274.92 492.843C274.85 491.515 273.748 490.32 272.451 490.023C271.279 489.757 270.216 489.203 269.357 488.351C266.872 485.867 266.935 481.641 269.232 478.118L263.169 472.056L259.965 470.853C259.715 470.759 259.489 470.611 259.301 470.423L255.551 466.674C254.816 465.939 254.816 464.752 255.551 464.026L258.668 460.901ZM278.748 480.352C277.754 480.352 276.8 480.747 276.097 481.45C275.393 482.153 274.998 483.107 274.998 484.102C274.998 485.096 275.393 486.05 276.097 486.753C276.8 487.456 277.754 487.851 278.748 487.851C279.743 487.851 280.697 487.456 281.4 486.753C282.104 486.05 282.499 485.096 282.499 484.102C282.499 483.107 282.104 482.153 281.4 481.45C280.697 480.747 279.743 480.352 278.748 480.352Z" fill="#F2C247"/>
<path d="M296.332 581.901C295.597 581.167 294.41 581.167 293.683 581.901L289.925 585.65C289.737 585.838 289.589 586.064 289.495 586.314L288.292 589.517L282.237 595.579C278.713 593.283 274.478 593.22 272.001 595.704C271.142 596.563 270.595 597.626 270.329 598.798C270.04 600.094 268.837 601.196 267.509 601.266C265.508 601.368 263.657 602.102 262.25 603.5C258.75 607.008 259.406 613.335 263.711 617.64C268.016 621.944 274.345 622.6 277.845 619.1C279.244 617.702 279.986 615.843 280.08 613.843C280.15 612.515 281.252 611.32 282.549 611.023C283.721 610.757 284.784 610.203 285.643 609.351C288.128 606.867 288.065 602.641 285.768 599.118L291.831 593.056L295.035 591.853C295.285 591.759 295.511 591.611 295.699 591.423L299.449 587.674C300.184 586.939 300.184 585.752 299.449 585.026L296.332 581.901ZM276.252 601.352C277.246 601.352 278.2 601.747 278.903 602.45C279.607 603.153 280.002 604.107 280.002 605.102C280.002 606.096 279.607 607.05 278.903 607.753C278.2 608.456 277.246 608.851 276.252 608.851C275.257 608.851 274.303 608.456 273.6 607.753C272.896 607.05 272.501 606.096 272.501 605.102C272.501 604.107 272.896 603.153 273.6 602.45C274.303 601.747 275.257 601.352 276.252 601.352Z" fill="#F2C247"/>
<path d="M610.875 569.547V571.874H613.125V569.547C617.556 568.99 621 565.207 621 560.625H618.75C618.75 564.347 615.723 567.374 612 567.374C608.277 567.374 605.25 564.347 605.25 560.625H603C603 565.205 606.444 568.99 610.875 569.547Z" fill="#F2C247"/>
<path d="M832.875 569.547V571.874H835.125V569.547C839.556 568.99 843 565.207 843 560.625H840.75C840.75 564.347 837.723 567.374 834 567.374C830.277 567.374 827.25 564.347 827.25 560.625H825C825 565.205 828.444 568.99 832.875 569.547Z" fill="#F2C247"/>
<path d="M612 565.124C614.482 565.124 616.5 563.105 616.5 560.624V553.874C616.5 551.38 614.492 549.35 612.024 549.35C611.944 549.351 611.866 549.36 611.789 549.378C610.633 549.434 609.544 549.932 608.746 550.769C607.948 551.606 607.502 552.717 607.5 553.874V560.624C607.5 563.105 609.518 565.124 612 565.124Z" fill="#F2C247"/>
<path d="M834 565.124C836.482 565.124 838.5 563.105 838.5 560.624V553.874C838.5 551.38 836.492 549.35 834.024 549.35C833.944 549.351 833.866 549.36 833.789 549.378C832.633 549.434 831.544 549.932 830.746 550.769C829.948 551.606 829.502 552.717 829.5 553.874V560.624C829.5 563.105 831.518 565.124 834 565.124Z" fill="#F2C247"/>
</g>
<defs>
<clipPath id="clip0_6282_10215">
<rect width="1125" height="903" fill="white"/>
</clipPath>
</defs>
</svg>
