<?xml version="1.0" encoding="utf-8"?>
<!-- Generator: Adobe Illustrator 28.0.0, SVG Export Plug-In . SVG Version: 6.00 Build 0)  -->
<svg version="1.1" id="Слой_1" xmlns="http://www.w3.org/2000/svg" xmlns:xlink="http://www.w3.org/1999/xlink" x="0px" y="0px"
	 viewBox="0 0 1820 710" style="enable-background:new 0 0 1820 710;" xml:space="preserve">
<style type="text/css">
	.st0{fill:#272727;}
	.st1{fill:#F2C247;}
	.st2{fill-rule:evenodd;clip-rule:evenodd;fill:#F2C247;}
	.st3{fill:#FFFFFF;}
	.st4{fill:#EFEFEF;}
	.st5{fill:#272727;stroke:#272727;stroke-width:10;}
	.st6{fill:none;stroke:#F2C247;stroke-width:8;stroke-linecap:round;stroke-linejoin:round;}
	.st7{fill:#F2C247;stroke:#F2C247;stroke-width:2;stroke-linejoin:round;}
</style>
<rect x="958" y="152.8" class="st0" width="450" height="130.4"/>
<path class="st0" d="M1176.5,0l290.6,157.5H885.9L1176.5,0z"/>
<path class="st1" d="M1130.9,125.8c0.6,0.4,1.2,1,1.7,1.6s0.8,1.3,0.9,2.1c0.1,0.7,0,1.5-0.3,2.2s-0.7,1.3-1.1,1.9l-2.5,3.6
	l-1.1-0.8l0.7-1.1l-6.5-4.7l-0.7,1l-1.1-0.8l2.7-3.8c0.5-0.7,1.1-1.3,1.7-1.8c0.7-0.5,1.6-0.7,2.4-0.6c0.4,0,0.8,0.1,1.2,0.2
	c0.4,0.1,0.7,0.2,1,0.4C1130.2,125.4,1130.6,125.6,1130.9,125.8L1130.9,125.8z M1129.6,127.6l-0.4-0.2l-0.5-0.2
	c-0.4-0.2-0.8-0.3-1.2-0.4c-0.4-0.1-0.9-0.1-1.3,0s-0.8,0.2-1.1,0.5c-0.3,0.3-0.6,0.6-0.9,1l-0.6,0.9l6.5,4.7l0.3-0.4
	c0.5-0.6,0.8-1.2,1.1-1.9c0.2-0.7,0-1.5-0.4-2.1c-0.1-0.1-0.1-0.2-0.2-0.3s-0.1-0.2-0.2-0.3s-0.2-0.2-0.3-0.3
	c-0.1-0.1-0.2-0.2-0.4-0.3L1129.6,127.6L1129.6,127.6z M1143.2,121.7l-2,1.8l-1.9-1.3c-0.6-0.4-1.3-0.8-2-0.9c-0.2,0-0.3,0-0.4,0.1
	s-0.3,0.2-0.4,0.3l-0.2,0.2l-0.8,0.7l2.2,2.3l0.9-0.8l0.9,1l-3.4,3.1l-0.9-1l1-0.9l-5.4-5.9l-0.9,0.9l-0.9-1l3.8-3.5
	c0.4-0.4,0.8-0.7,1.3-1c0.3-0.2,0.7-0.3,1-0.3c0.4,0,0.8,0,1.2,0.2c0.4,0.2,0.8,0.5,1.1,0.8c0.5,0.5,0.7,1.1,0.8,1.8
	c0,0.7-0.2,1.3-0.7,1.8c0.3-0.3,0.8-0.5,1.2-0.5c0.4,0.1,0.9,0.3,1.2,0.5l1.8,1.1l0.7-0.6L1143.2,121.7L1143.2,121.7L1143.2,121.7z
	 M1135.8,118c-0.2-0.2-0.4-0.3-0.6-0.5c-0.2-0.1-0.5-0.1-0.7-0.1s-0.4,0.1-0.5,0.2c-0.2,0.2-0.4,0.3-0.6,0.5l-1,0.9l2.4,2.6l0.8-0.7
	c0.2-0.2,0.4-0.5,0.7-0.7c0.2-0.2,0.2-0.5,0.3-0.8c0-0.3,0-0.5-0.1-0.8C1136.1,118.4,1136,118.2,1135.8,118L1135.8,118z
	 M1153.4,115.6l-3.8,2.2l-0.7-1.2l1.1-0.6l-1.5-1.4l-3.5,2l0.4,2l1.1-0.6l0.7,1.2l-3.6,2l-0.6-1.1l0.8-0.4l-1.6-10l2.2-1.2l7.6,6.5
	l0.8-0.4L1153.4,115.6L1153.4,115.6L1153.4,115.6z M1147.3,113.7l-3.4-3.1l0.8,4.5L1147.3,113.7L1147.3,113.7z M1159.8,105.5
	l-1.6,0.5l-0.6-2l-3.5,1.1l1.1,3.3l1.4-0.4l-0.4-1.3l1.3-0.4l1.3,4l-1.3,0.4l-0.5-1.4l-1.3,0.5l1,3.1l1.5-0.5l0.4,1.3l-4.6,1.4
	l-0.4-1.3l1.2-0.4l-2.5-7.6l-1.2,0.4l-0.4-1.3l8.2-2.6L1159.8,105.5L1159.8,105.5z M1170.7,103.6l-1.7,0.3l-0.4-2.2l-1.7,0.2
	l1.3,7.9l1.4-0.2l0.2,1.3l-4.9,0.8l-0.2-1.3l1.4-0.2l-1.3-7.9l-1.7,0.3l0.4,2.2l-1.7,0.3l-0.6-3.6l8.8-1.4L1170.7,103.6
	L1170.7,103.6L1170.7,103.6z M1191.5,108.7c-0.1,0.5-0.3,1.1-0.6,1.5c-0.3,0.4-0.7,0.8-1.2,1.1c-1,0.5-2.2,0.6-3.3,0.4
	c-0.7-0.1-1.4-0.3-2-0.7c-0.6-0.4-1.1-0.9-1.5-1.5c-0.7-1.3-0.8-2.8-0.5-4.2c0.1-0.9,0.4-1.8,0.9-2.7c0.3-0.5,0.8-1,1.3-1.3
	c0.4-0.3,0.9-0.5,1.4-0.6c0.6-0.1,1.3-0.1,1.9,0s1.1,0.2,1.6,0.5s0.9,0.7,1.2,1.2l0.2-1l1.7,0.3l-0.7,3.9l-1.8-0.3
	c0.2-0.7,0.1-1.4-0.3-2c-0.2-0.3-0.4-0.6-0.7-0.7c-0.3-0.2-0.6-0.3-1-0.3c-0.5-0.1-0.9-0.1-1.4,0.1c-0.4,0.2-0.8,0.5-1.1,0.9
	c-0.6,0.8-0.9,1.7-1.1,2.6s-0.2,1.9,0,2.8c0.1,0.5,0.4,0.9,0.7,1.2c0.4,0.3,0.8,0.5,1.3,0.6c0.3,0.1,0.6,0.1,0.9,0s0.6-0.2,0.9-0.4
	c0.2-0.2,0.5-0.4,0.6-0.7c0.2-0.3,0.3-0.6,0.3-0.9L1191.5,108.7L1191.5,108.7z M1200.8,116l-2.5-1c0.1-0.9,0.2-1.7,0.3-2.3
	c0.1-0.7,0.1-1.5-0.1-2.2c-0.1-0.1-0.1-0.3-0.3-0.3c-0.1-0.1-0.3-0.2-0.4-0.2l-0.3-0.2l-1-0.4l-1.1,3l1.2,0.5l-0.5,1.3l-4.3-1.6
	l0.5-1.3l1.2,0.5l2.9-7.5l-1.2-0.5l0.5-1.3l4.9,1.9c0.5,0.2,1,0.4,1.4,0.7c0.3,0.2,0.5,0.5,0.7,0.8c0.2,0.4,0.4,0.8,0.4,1.2
	c0,0.4-0.1,0.9-0.2,1.3c-0.2,0.6-0.7,1.1-1.2,1.4c-0.6,0.3-1.3,0.4-1.9,0.2c0.4,0.2,0.8,0.5,1,0.9c0.1,0.5,0.1,0.9,0,1.3l-0.2,2.2
	l0.8,0.3L1200.8,116L1200.8,116L1200.8,116z M1200.8,107.7c0.1-0.2,0.1-0.5,0.1-0.8s-0.1-0.5-0.2-0.7s-0.2-0.3-0.4-0.4
	c-0.2-0.1-0.5-0.2-0.7-0.3l-1.3-0.5l-1.2,3.3l1,0.4c0.3,0.1,0.6,0.2,0.9,0.3c0.3,0,0.5,0,0.8-0.2c0.2-0.1,0.5-0.2,0.6-0.4
	C1200.6,108.1,1200.8,107.9,1200.8,107.7L1200.8,107.7L1200.8,107.7z M1210.9,122.3l-3.7-2.3l0.7-1.1l1.1,0.7l0.4-2.1l-3.4-2.2
	l-1.6,1.3l1.1,0.7l-0.7,1.2l-3.5-2.2l0.7-1.2l0.7,0.5l8-6.1l2.1,1.3l-2,9.8l0.7,0.5L1210.9,122.3L1210.9,122.3L1210.9,122.3z
	 M1209.8,116l1.1-4.5l-3.6,2.9L1209.8,116L1209.8,116L1209.8,116z M1222.5,123.4l-1.1-1.1l1.4-1.5l-2.6-2.5l-2.4,2.5l1,1l0.9-1
	l1.1,1l-2.9,3.1l-1-1l1-1.1l-1-1l-2.2,2.3l1.1,1.1l-0.9,1l-3.5-3.3l0.9-1l0.9,0.9l5.5-5.9l-0.9-0.9l0.9-1l6.2,5.9L1222.5,123.4
	L1222.5,123.4z M1229.2,132.6l-1-1.4l1.8-1.3l-1-1.4l-6.5,4.7l0.8,1.2l-1.1,0.8l-2.9-4l1.1-0.8l0.8,1.2l6.5-4.6l-1-1.4l-1.8,1.3
	l-1-1.4l3-2.2l5.2,7.3L1229.2,132.6L1229.2,132.6L1229.2,132.6z"/>
<path class="st1" d="M1191.9,146.3h-9.7v-2.7h2.9v-14.5l-0.2,0.1c-0.3,0.3-0.7,0.6-1.1,0.9c-0.2,0.2-0.5,0.3-0.7,0.5l-2.7,1.9V129
	c0.8-0.5,1.6-1.1,2.5-1.8c0.8-0.6,1.6-1.3,2.4-2h3.8v18.4h2.7L1191.9,146.3L1191.9,146.3z M1207.4,140.5c0,0.7,0,1.4-0.2,2.1
	c-0.2,0.6-0.5,1.2-1,1.7c-0.8,0.9-1.8,1.6-3,1.9c-0.9,0.3-1.9,0.4-2.8,0.4c-1.8,0.1-3.6-0.4-5-1.5c-0.7-0.6-1.2-1.3-1.5-2.1
	s-0.5-1.7-0.4-2.6h4c-0.1,0.9,0.2,1.8,0.7,2.5c0.3,0.3,0.7,0.6,1.1,0.8s0.9,0.2,1.3,0.2s0.9-0.2,1.2-0.4c0.4-0.2,0.7-0.5,0.9-0.9
	c0.4-0.7,0.6-1.4,0.6-2.2c0-0.5-0.1-1.1-0.2-1.6c-0.2-0.5-0.4-0.9-0.8-1.3c-0.2-0.2-0.5-0.4-0.9-0.5s-0.7-0.1-1.1-0.1h-1.3v-2.6
	c1.1,0.1,2.1-0.2,3-0.8c0.4-0.3,0.7-0.8,0.9-1.2c0.2-0.5,0.3-1,0.2-1.5c0-0.8-0.2-1.6-0.7-2.2c-0.2-0.3-0.6-0.6-0.9-0.7
	c-0.4-0.2-0.8-0.2-1.1-0.2c-0.4,0-0.9,0.1-1.2,0.2c-0.4,0.2-0.7,0.5-0.9,0.8c-0.4,0.7-0.7,1.6-0.6,2.5h-4c0-0.5,0.1-1,0.2-1.5
	c0.1-0.7,0.4-1.5,0.8-2.1s1-1.2,1.6-1.6c1.3-0.8,2.8-1.1,4.4-1.1c0.8,0,1.6,0.1,2.4,0.3c0.8,0.2,1.5,0.6,2.2,1.1
	c0.7,0.6,1.2,1.3,1.6,2.2c0.2,0.7,0.4,1.3,0.4,2c0,0.9-0.1,1.8-0.5,2.7c-0.5,0.8-1.1,1.4-1.9,1.8c-0.3,0.2-0.6,0.3-0.9,0.4
	c-0.3,0.1-0.7,0.2-1,0.3c0.9,0.1,1.8,0.4,2.6,0.8c0.7,0.5,1.2,1.2,1.6,2C1207.3,139.1,1207.4,139.8,1207.4,140.5L1207.4,140.5z"/>
<path class="st1" d="M1142.1,184c-2.2,0.4-4.3,0.7-6.4,1.2c-0.6-2.8-1-5-1.4-6.7c-0.7-3.3-1.3-5.5-2-6.3c-0.2-0.3-0.5-0.6-0.9-0.7
	c-0.4-0.1-0.8-0.2-1.2-0.1h-0.7l-2.4,0.1v11l3-0.5v4.5c-3.7,0.9-7.4,1.9-11,3v-5.2l3.1-0.7v-29.7c-1.1-0.2-2.1-0.4-3.1-0.7V148
	c4.1,1.2,8.3,2.3,12.4,3.3c1.3,0.3,2.6,0.7,3.8,1.3c0.9,0.5,1.7,1.1,2.3,1.8c0.9,0.9,1.5,2.1,1.9,3.3c0.4,1.3,0.6,2.6,0.6,4
	c0.1,1.9-0.5,3.8-1.5,5.3c-0.5,0.7-1.1,1.3-1.8,1.7c-0.7,0.4-1.5,0.7-2.4,0.8c1.1,0.1,2.2,0.6,2.9,1.5c0.7,1.1,1.1,2.4,1.3,3.6
	c0.4,2,0.9,4,1.4,6c0.7-0.1,1.4-0.2,2.1-0.3L1142.1,184L1142.1,184L1142.1,184z M1134.9,161.1c0-0.8-0.1-1.6-0.4-2.4
	c-0.2-0.7-0.6-1.4-1.1-2c-0.3-0.4-0.8-0.7-1.3-0.9c-0.6-0.2-1.3-0.4-1.9-0.5l-3.3-0.6v12.1l2.5,0.1c0.8,0,1.6-0.1,2.3-0.2
	c0.7-0.2,1.3-0.6,1.7-1.1c0.5-0.6,0.8-1.2,1-1.9C1134.8,162.8,1134.9,161.9,1134.9,161.1L1134.9,161.1z M1168.2,158.8
	c-0.9,0-1.7,0-2.6-0.1v13.2c0,0.9,0,1.9-0.2,2.8c-0.1,0.6-0.3,1.2-0.5,1.8c-0.8,1.9-2.1,3.5-3.8,4.6c-0.8,0.5-1.7,0.9-2.6,1.1
	c-1,0.3-1.9,0.5-2.9,0.6c-0.9,0.1-1.8,0-2.8-0.1c-0.9-0.1-1.7-0.4-2.5-0.7c-0.7-0.3-1.4-0.8-1.9-1.4c-0.6-0.7-1.1-1.5-1.5-2.3
	c-0.5-0.9-0.7-1.9-0.8-2.9c-0.1-1.3-0.2-2.7-0.2-4v-13.9l-2.6-0.3v-3.8c3.6,0.5,7.1,0.9,10.7,1.3v3.5l-3.2-0.2v13.5
	c0,1.1,0,2.2,0.1,3.4c0.1,0.8,0.4,1.5,0.8,2.2s1,1.3,1.8,1.7c0.8,0.3,1.7,0.5,2.5,0.4c0.4,0,0.8-0.1,1.2-0.2
	c0.3-0.1,0.7-0.3,1.2-0.5c0.6-0.3,1.1-0.8,1.5-1.5c0.4-0.6,0.7-1.4,0.9-2.1c0.1-0.4,0.2-0.9,0.2-1.3v-14.8l-3.2-0.2V155
	c3.4,0.2,6.8,0.4,10.2,0.5L1168.2,158.8L1168.2,158.8L1168.2,158.8z M1189.6,181.8c-6.7-0.2-13.3-0.3-19.9-0.2v-3.3h3v-19.4h-3v-3.3
	c3.9,0.1,7.9,0.1,11.8,0v3.3h-3.9v19.3c2.6,0,5.1,0,7.7,0.1v-5.9h4.3V181.8L1189.6,181.8L1189.6,181.8z M1212.9,184.3
	c-7.1-1.1-14.2-1.9-21.3-2.5v-3.3l3,0.2v-20.3l-3,0.1v-3.3c7.1-0.5,14.2-1.3,21.3-2.4v9.6l-4,0.2v-5.5c-3.1,0.3-6.3,0.6-9.4,0.9v8.5
	h3.8v-3.7l3.4-0.2v11.3l-3.4-0.2v-3.6h-3.8v8.8c3.1,0.2,6.3,0.5,9.4,0.9V174l4,0.2V184.3z M1234.3,178c0,1.4-0.1,2.8-0.4,4.1
	c-0.3,1-0.6,2-1.2,2.9c-0.3,0.7-0.7,1.2-1.3,1.7c-0.5,0.5-1.2,0.8-1.9,1c-1.2,0.2-2.4,0.2-3.5-0.1c-1.2-0.3-2.4-0.9-3.5-1.6
	c-1.2-0.9-2.1-2.1-2.6-3.5v3.1l-4-0.8v-11.3l4.2,0.3c-0.1,1.9,0.3,3.9,1,5.7c0.3,0.8,0.8,1.5,1.4,2.1s1.4,0.9,2.3,1.1
	c0.5,0.1,1.1,0.1,1.6,0s1-0.4,1.4-0.8c0.5-0.5,0.8-1.2,1-1.8c0.2-0.7,0.3-1.4,0.2-2.1c0-1.2-0.2-2.3-0.7-3.3
	c-0.8-1.2-1.8-2.2-3.1-2.8c-1.1-0.6-2.2-1.3-3.3-1.8c-1.1-0.6-1.9-1-2.3-1.3c-1.2-0.8-2.2-2-2.8-3.3c-0.7-1.3-0.9-2.8-0.9-4.2
	c0-1.3,0.2-2.6,0.6-3.9c0.2-0.9,0.6-1.7,1-2.5c0.6-1.1,1.4-2.1,2.4-2.9c1.1-0.9,2.3-1.5,3.7-1.8c1.1-0.3,2.3-0.3,3.5-0.1
	c0.6,0.2,1.1,0.5,1.5,0.9s0.8,0.9,0.9,1.5v-3.3c1.3-0.4,2.7-0.8,4-1.2v13.6l-4.2,0.4v-1.2c0.1-1.8-0.3-3.6-1.2-5.2
	c-0.3-0.6-0.8-1-1.5-1.2c-0.6-0.2-1.3-0.3-1.9-0.1c-0.6,0.1-1.2,0.3-1.8,0.6c-0.5,0.3-1,0.8-1.2,1.4c-0.6,1.1-0.9,2.4-0.9,3.7
	c0,0.6,0.1,1.1,0.3,1.7c0.2,0.5,0.5,1,1,1.4c0.8,0.6,1.7,1.1,2.6,1.5c1.1,0.5,2.1,1.1,3.1,1.6c1.1,0.5,1.4,0.7,1.5,0.8
	c0.9,0.6,1.6,1.2,2.3,2c0.6,0.7,1.1,1.6,1.4,2.5c0.4,1,0.6,2.1,0.8,3.2C1234.3,175.6,1234.3,176.8,1234.3,178L1234.3,178L1234.3,178
	z"/>
<path class="st1" d="M1135.1,198.2h-2.9V197h2.9V198.2z M1177,201h-2.2l-0.6-0.7l-0.1,0.1c-0.3,0.2-0.7,0.4-1.1,0.6
	c-0.4,0.1-0.8,0.2-1.3,0.2c-0.4,0-0.7,0-1.1-0.1c-0.3-0.1-0.6-0.2-0.8-0.4l-0.2-0.2l-0.2-0.2c-0.2-0.2-0.4-0.5-0.4-0.8
	c-0.1-0.3-0.1-0.6-0.1-0.9c0-0.5,0.2-1.1,0.5-1.5s0.7-0.8,1.2-1l-0.2-0.1c-0.3-0.2-0.5-0.5-0.6-0.8c-0.2-0.3-0.2-0.7-0.2-1
	s0.1-0.6,0.2-0.8s0.3-0.5,0.6-0.6c0.5-0.3,1.1-0.5,1.6-0.5c0.6,0,1.1,0.1,1.6,0.4c0.2,0.2,0.4,0.4,0.5,0.6c0.1,0.3,0.2,0.5,0.2,0.8
	c0,0.2,0,0.5-0.1,0.7s-0.2,0.5-0.4,0.7c-0.1,0.2-0.3,0.4-0.5,0.5c-0.2,0.2-0.4,0.3-0.6,0.4l1.7,1.9c0.3-0.4,0.4-0.9,0.4-1.4h-0.7v-1
	h2.9v1h-0.9c0,0.4-0.1,0.8-0.2,1.2s-0.3,0.8-0.6,1.2l0.6,0.7h1.2L1177,201L1177,201z M1172.7,194c0-0.2-0.1-0.5-0.2-0.7
	c-0.1-0.1-0.2-0.2-0.3-0.2c-0.1,0-0.2-0.1-0.4-0.1c-0.2,0-0.5,0.1-0.7,0.2c-0.1,0.1-0.2,0.2-0.2,0.3s-0.1,0.2-0.1,0.3
	c0,0.2,0.1,0.4,0.1,0.6c0.2,0.3,0.4,0.6,0.7,0.9l0.1-0.1c0.2-0.1,0.4-0.3,0.6-0.5C1172.6,194.6,1172.7,194.3,1172.7,194z
	 M1173.3,199.4l-1.9-2.3c-0.3,0.2-0.5,0.4-0.7,0.7s-0.3,0.6-0.3,1c0,0.3,0.1,0.5,0.2,0.8c0.2,0.2,0.4,0.4,0.7,0.5
	c0.1,0,0.2,0.1,0.3,0.1h0.3c0.3,0,0.5-0.1,0.8-0.2C1172.9,199.8,1173.1,199.6,1173.3,199.4L1173.3,199.4L1173.3,199.4z
	 M1221.1,198.2h-2.9V197h2.9V198.2L1221.1,198.2z M1146.7,198.7c0,0.4-0.1,0.8-0.3,1.2c-0.2,0.4-0.5,0.6-0.9,0.8
	c-0.3,0.2-0.6,0.2-0.9,0.3h-5v-1.1h1v-6.4h-1v-1.1h4.4c0.4,0,0.8,0,1.2,0.1c0.3,0.1,0.5,0.2,0.7,0.4s0.4,0.4,0.5,0.7s0.2,0.6,0.2,1
	c0,0.2,0,0.5-0.1,0.7s-0.2,0.4-0.4,0.6c-0.2,0.2-0.4,0.3-0.6,0.4c-0.2,0.1-0.4,0.2-0.7,0.2c0.3,0,0.5,0,0.8,0.2
	c0.2,0.1,0.5,0.3,0.6,0.5C1146.5,197.6,1146.7,198.1,1146.7,198.7L1146.7,198.7L1146.7,198.7z M1144.8,194.7c0-0.2,0-0.5-0.1-0.7
	s-0.3-0.4-0.5-0.4c-0.1,0-0.3-0.1-0.4-0.1h-1.6v2.5h1c0.2,0,0.4,0,0.7,0c0.2,0,0.4-0.1,0.6-0.2
	C1144.7,195.5,1144.8,195.1,1144.8,194.7L1144.8,194.7L1144.8,194.7z M1145,198.4c0-0.2,0-0.4-0.1-0.6c-0.1-0.2-0.2-0.4-0.4-0.5
	c-0.1-0.1-0.3-0.2-0.5-0.2s-0.4,0-0.6,0h-1.2v2.8h1.1c0.3,0,0.6,0,0.8-0.1c0.2-0.1,0.3-0.1,0.5-0.3c0.1-0.1,0.3-0.3,0.3-0.5
	C1145,198.9,1145,198.7,1145,198.4L1145,198.4L1145,198.4z M1156.4,201h-3.5v-1.1h1l-0.5-1.6h-3.2l-0.6,1.6h1v1.1h-3.3v-1.1h0.7
	l2.8-7.5h2l2.8,7.5h0.7L1156.4,201L1156.4,201z M1153,197.2l-1.2-3.5l-1.2,3.5H1153L1153,197.2z M1164.6,201h-2.2
	c-0.2-0.7-0.3-1.3-0.5-1.8c-0.1-0.6-0.3-1.1-0.7-1.6c-0.1-0.1-0.2-0.2-0.3-0.2c-0.1,0-0.3,0-0.4,0h-1.1v2.6h1v1.1h-3.6V200h1.1v-6.5
	h-1.1v-1.1h4.2c0.4,0,0.8,0,1.3,0.1c0.3,0.1,0.5,0.2,0.8,0.4s0.5,0.5,0.6,0.8s0.2,0.7,0.2,1.1c0,0.5-0.2,1.1-0.5,1.5
	c-0.2,0.2-0.4,0.4-0.6,0.5s-0.5,0.2-0.8,0.2c0.4,0,0.7,0.2,1,0.4c0.2,0.3,0.4,0.6,0.4,1l0.5,1.7h0.7V201L1164.6,201z M1162.2,194.7
	c0-0.2,0-0.4-0.1-0.6c-0.1-0.2-0.2-0.4-0.4-0.5c-0.1-0.1-0.3-0.2-0.4-0.2c-0.2,0-0.4,0-0.6,0h-1.1v2.8h0.9c0.3,0,0.5,0,0.8-0.1
	c0.2,0,0.4-0.2,0.6-0.3s0.3-0.3,0.3-0.5C1162.2,195.2,1162.2,195,1162.2,194.7L1162.2,194.7L1162.2,194.7z M1187.4,198.6
	c0,0.3,0,0.6-0.1,0.9c-0.1,0.2-0.2,0.5-0.4,0.7c-0.3,0.4-0.6,0.6-1.1,0.8c-0.4,0.1-0.8,0.2-1.2,0.2c-0.4,0-0.8-0.1-1.2-0.2
	c-0.4-0.1-0.7-0.4-0.9-0.7v0.8h-1.3v-3h1.4c0,0.5,0.1,1,0.3,1.4c0.1,0.2,0.3,0.4,0.5,0.5s0.5,0.2,0.7,0.1c0.4,0,0.7-0.1,1-0.3
	c0.2-0.1,0.3-0.2,0.3-0.4c0.1-0.2,0.1-0.3,0.1-0.5c0-0.3-0.1-0.5-0.2-0.7c-0.3-0.3-0.6-0.5-1-0.6l-1.1-0.4c-0.4-0.1-0.6-0.2-0.8-0.3
	c-0.2-0.1-0.5-0.3-0.7-0.5s-0.3-0.4-0.4-0.7c-0.1-0.2-0.1-0.5-0.1-0.8s0.1-0.7,0.2-1c0.1-0.2,0.2-0.4,0.3-0.6
	c0.2-0.3,0.5-0.5,0.8-0.6c0.4-0.2,0.8-0.2,1.2-0.2c0.4,0,0.8,0.1,1.2,0.2c0.3,0.1,0.6,0.4,0.8,0.7v-0.7h1.3v2.8h-1.4v-0.3
	c0-0.4-0.1-0.9-0.4-1.2c-0.1-0.2-0.3-0.3-0.5-0.3c-0.2-0.1-0.4-0.1-0.6-0.1s-0.4,0-0.6,0.1s-0.3,0.2-0.4,0.3
	c-0.2,0.2-0.3,0.6-0.3,0.9c0,0.2,0,0.3,0.1,0.5c0.1,0.1,0.2,0.3,0.3,0.3c0.3,0.2,0.6,0.3,0.9,0.4l1.1,0.4l0.5,0.2
	c0.3,0.1,0.5,0.3,0.8,0.5c0.2,0.1,0.4,0.3,0.5,0.5s0.2,0.4,0.2,0.7C1187.5,198.1,1187.5,198.4,1187.4,198.6L1187.4,198.6
	L1187.4,198.6z M1196.9,201h-3.7v-1.1h1.1v-2.8h-3.5v2.7h1.1v1.1h-3.8v-1.1h1v-6.4h-1v-1.1h3.7v1.1h-1.1v2.6h3.5v-2.6h-1.1v-1.1h3.7
	v1.1h-1v6.5h1L1196.9,201L1196.9,201L1196.9,201z M1206,196.6v0.7c0,0.4-0.1,0.7-0.2,1.1c-0.1,0.3-0.2,0.5-0.3,0.8
	c-0.1,0.2-0.3,0.5-0.5,0.7c-0.4,0.4-0.8,0.7-1.4,0.9c-0.5,0.2-1.1,0.3-1.7,0.3s-1.2-0.1-1.7-0.3s-1-0.5-1.4-1
	c-0.3-0.4-0.6-0.9-0.8-1.4c-0.2-0.5-0.3-1.1-0.3-1.6c0-0.6,0.1-1.2,0.2-1.8c0.1-0.5,0.4-1.1,0.8-1.5s0.8-0.8,1.4-1
	c0.5-0.2,1.1-0.3,1.7-0.3s1.1,0.1,1.7,0.3s1,0.5,1.4,1C1205.6,194.3,1206,195.5,1206,196.6L1206,196.6L1206,196.6z M1204.2,196.6
	c0-0.4,0-0.8-0.1-1.2c0-0.3-0.2-0.7-0.3-1c-0.3-0.5-0.8-0.9-1.4-1s-1.2-0.1-1.7,0.2c-0.3,0.2-0.6,0.5-0.8,0.9
	c-0.2,0.3-0.3,0.6-0.3,0.9c-0.1,0.4-0.1,0.8-0.1,1.2c0,0.8,0.1,1.6,0.5,2.3c0.2,0.3,0.4,0.6,0.8,0.8c0.3,0.2,0.7,0.3,1.1,0.3
	c0.3,0,0.6-0.1,0.9-0.2c0.3-0.1,0.5-0.3,0.7-0.5s0.3-0.4,0.4-0.6c0.1-0.2,0.2-0.5,0.2-0.7s0.1-0.4,0.1-0.5L1204.2,196.6
	L1204.2,196.6L1204.2,196.6z M1213.7,195c0,0.4-0.1,0.8-0.2,1.2c-0.2,0.4-0.4,0.7-0.7,0.9c-0.3,0.2-0.6,0.4-1,0.4s-0.7,0-1.1,0h-1.1
	v2.2h1.3v1.1h-3.9v-1.1h1v-6.5h-1v-1.1h4.1c0.4,0,0.8,0,1.2,0.1c0.3,0.1,0.6,0.3,0.9,0.6c0.2,0.2,0.4,0.6,0.5,0.9
	c0.1,0.4,0.2,0.7,0.2,1.1L1213.7,195L1213.7,195z M1212,195c0-0.2,0-0.5-0.1-0.7s-0.2-0.4-0.3-0.5c-0.2-0.1-0.3-0.2-0.5-0.3
	c-0.2,0-0.5-0.1-0.7-0.1h-0.8v3.1h0.8c0.3,0,0.6,0,0.9-0.1c0.2-0.1,0.3-0.2,0.4-0.3c0.1-0.2,0.2-0.3,0.3-0.5
	C1212,195.4,1212,195.2,1212,195L1212,195L1212,195z"/>
<path class="st2" d="M1157.9,149.1c-2.8-0.7-5.4-2.3-7.4-4.5s-3.2-4.9-3.6-7.8c-0.4-2.9,0-5.9,1.3-8.5c1.3-2.6,3.3-4.9,5.8-6.4
	s5.4-2.2,8.4-2.1c2.9,0.2,5.8,1.2,8.1,2.9c2.4,1.8,4.1,4.2,5.1,6.9c1,2.8,1.1,5.8,0.4,8.6c-0.5,1.9-1.3,3.7-2.5,5.2
	c-1.2,1.6-2.6,2.9-4.3,3.9c-1.7,1-3.5,1.6-5.5,1.9C1161.7,149.7,1159.8,149.6,1157.9,149.1z M1170.9,123.4c-0.7,3.3-1.7,6.5-3.1,9.5
	l1.1,0.8c0.4,0.3,0.9,0.7,1.3,1c1.8-3.2,3.7-4.2,5.4-4.2c0.1,0.3,0.2,0.6,0.2,0.9c-1.6,0-3.4,0.9-5,3.9c1.6,1.4,3.1,2.9,4.4,4.6
	c-0.1,0.3-0.2,0.6-0.4,0.9c-1.3-1.8-2.8-3.4-4.4-4.7c-1,2.4-1.6,4.9-1.8,7.4c-0.1,1.5-0.4,3-0.8,4.4c-0.3,0.2-0.7,0.3-1.1,0.5
	c0.6-1.6,1-3.3,1.1-5c0.2-2.7,0.8-5.4,1.9-7.9l-1.4-1.1l-0.9-0.7c-2.7,5.7-6.8,11.3-12.2,14.2c-0.3-0.1-0.6-0.3-0.9-0.5
	c5.4-2.7,9.6-8.3,12.3-14.1v-0.1c-0.8-0.6-1.7-1.1-2.5-1.6c-2.4,4.1-10.3,5.8-16,7l-0.7,0.2c-0.1-0.3-0.2-0.5-0.2-0.8l0.7-0.2
	c5.4-1.2,13.2-2.8,15.4-6.5c-3.4-2-7-3.3-10.9-4c-1.1-0.2-2.3-0.2-3.4-0.2c0.2-0.3,0.4-0.6,0.5-0.8c1,0,2,0.1,3,0.2
	c3.9,0.7,7.7,2.1,11.2,4.1c1.1-2.5,0.3-4.9-1.1-7c-0.9-1.2-1.9-2.3-3-3.3c0.4,0,0.7-0.1,1.1-0.1c0.9,0.9,1.8,1.9,2.5,2.9
	c1.5,2.2,2.4,5,1.1,7.8c0.9,0.5,1.7,1,2.5,1.6c1.4-3.1,2.4-6.3,3-9.6L1170.9,123.4L1170.9,123.4L1170.9,123.4z"/>
<path class="st3" d="M999.7,229.3h10.5v3.7h-2.5v15.5l12.1-19.2h8v3.7h-3.8v17.3h3.7v3.7h-10.4v-3.7h2.5V235l-12.1,19.1h-8v-3.7h3.7
	V233h-3.7L999.7,229.3L999.7,229.3z M1031.1,229.3h10.6v3.7h-2.5v6.6h11.2V233h-2.5v-3.7h10.5v3.7h-3.7l-0.1,17.3h3.7v3.7h-10.5
	v-3.7h2.5v-7h-11.2v7h2.5v3.7h-10.5v-3.7h3.7V233h-3.7V229.3z M1069.4,255.7V252h4v-2.1h-0.7c-1.5,0-3-0.2-4.4-0.5s-2.6-0.9-3.6-1.6
	c-1-0.8-1.9-1.8-2.4-3c-0.6-1.2-0.9-2.8-0.9-4.6s0.3-3.4,0.9-4.5c0.6-1.2,1.4-2.1,2.4-2.7c1-0.7,2.2-1.1,3.6-1.4
	c1.4-0.3,2.8-0.4,4.4-0.4h0.8v-1.8l-4.3-1.3l1.1-3.7l7.4,2.4v4.5h0.8c1.5,0,3,0.2,4.3,0.5c1.4,0.3,2.6,0.7,3.6,1.3s1.8,1.6,2.4,2.7
	c0.6,1.2,0.9,2.7,0.9,4.5s-0.3,3.3-0.9,4.6c-0.6,1.2-1.4,2.2-2.4,3c-1,0.7-2.2,1.3-3.6,1.6c-1.3,0.3-2.8,0.5-4.3,0.5h-0.8v2.1h4v3.7
	h-12.3V255.7z M1072.4,246.7h1.1v-12.5h-1c-0.9,0-1.7,0.1-2.5,0.3c-0.7,0.1-1.4,0.4-1.9,0.9c-0.6,0.4-1,1-1.3,1.8s-0.5,1.8-0.5,3.1
	c0,1.7,0.3,3,0.8,3.9s1.3,1.6,2.2,2C1070.2,246.5,1071.2,246.7,1072.4,246.7z M1077.7,246.7h0.9c1.2,0,2.2-0.2,3.2-0.6
	c1-0.4,1.7-1.1,2.3-2s0.8-2.2,0.8-3.9c0-1.3-0.2-2.3-0.5-3.1s-0.8-1.4-1.3-1.8c-0.6-0.4-1.2-0.7-2-0.9s-1.6-0.3-2.5-0.3h-0.9V246.7z
	 M1103.8,229.3c3.1,0,5.5,0.7,7.2,2.1c1.7,1.3,2.5,3.3,2.5,5.9c0,2.6-0.8,4.6-2.5,6s-4,2.1-7.2,2.1h-3.1v5h4.5v3.7h-12.5v-3.7h3.6
	V233h-3.6v-3.7H1103.8z M1103.8,241.8c3.5,0,5.2-1.5,5.2-4.5c0-2.9-1.8-4.3-5.2-4.3h-3v8.8H1103.8z M1112.4,254v-3.7h4.1l6.6-17.3
	h-3.8v-3.7h9l7.7,21h3.9v3.7h-10.6v-3.7h2.4l-1.3-3.7h-8.7l-1.3,3.7h2.5v3.7H1112.4z M1122.8,243.4h6.4l-3.1-9.6L1122.8,243.4z
	 M1157.2,233c-0.1-0.1-0.4-0.2-0.9-0.3c-0.4-0.1-1-0.3-1.6-0.4c-0.6-0.1-1.3-0.2-2-0.2c-2.6,0-4.5,0.8-5.9,2.5c-1.3,1.7-2,4-2,7
	s0.7,5.4,2.1,7.1c1.4,1.7,3.3,2.5,5.8,2.5c0.7,0,1.3-0.1,2-0.2s1.2-0.3,1.6-0.4c0.4-0.2,0.8-0.3,0.9-0.3l0.9-3.5l3.6,0.8l-1.2,5.5
	c0,0-0.3,0.1-1,0.4c-0.6,0.3-1.6,0.6-2.8,0.8c-1.2,0.3-2.5,0.5-4.1,0.5c-2.5,0-4.6-0.5-6.5-1.5c-1.8-1-3.3-2.5-4.3-4.5
	s-1.5-4.4-1.6-7.2c0-2.7,0.5-5.1,1.5-7c1-2,2.4-3.5,4.3-4.5c1.9-1.1,4.1-1.6,6.5-1.6c1.8,0,3.3,0.2,4.5,0.5s2.1,0.7,2.6,1.1
	c0.6,0.3,0.9,0.5,0.9,0.5l1.1,5.5l-3.7,0.8L1157.2,233z M1164.9,229.3h22.1v7.8h-3.9V233h-5v17.3h3.7v3.7H1170v-3.7h3.7V233h-5v4.1
	h-3.9v-7.8H1164.9z M1201.2,229.3c3.1,0,5.5,0.7,7.2,2.1c1.7,1.3,2.5,3.3,2.5,5.9c0,2.6-0.8,4.6-2.5,6s-4,2.1-7.2,2.1h-3.1v5h4.5
	v3.7h-12.5v-3.7h3.7V233h-3.7v-3.7H1201.2z M1201.2,241.8c3.5,0,5.2-1.5,5.2-4.5c0-2.9-1.8-4.3-5.2-4.3h-3v8.8H1201.2z
	 M1221.6,254.8c-0.7,0-1.5-0.1-2.2-0.2c-0.7-0.1-1.6-0.3-2.6-0.6l1.1-3.7c0.6,0.3,1.2,0.4,1.9,0.6c0.7,0.1,1.2,0.2,1.7,0.2
	c0.8,0,1.3-0.2,1.7-0.6c0.4-0.4,0.7-1.1,1.1-2.1l-8.6-15.5h-3.7v-3.7h10.8v3.7h-2.4l5.7,10.9l4.1-10.9h-2.6v-3.7h10.9v3.7h-4.1
	l-6.7,16.6c-0.7,1.7-1.5,3-2.3,3.9C1224.5,254.4,1223.2,254.8,1221.6,254.8z M1240.2,229.3h10.4v3.7h-2.5v6.8h3.4l5-6.8h-2.5v-3.7
	h10.7v3.7h-3.9l-6,7.8l6.7,9.4h4.2v3.7h-12v-3.7h3.1l-4.7-6.8h-4v6.8h2.5v3.7h-10.4v-3.7h3.7V233h-3.7L1240.2,229.3L1240.2,229.3z
	 M1267.1,229.3h22.1v7.8h-3.9V233h-5l-0.1,17.3h3.7v3.7h-11.8v-3.7h3.7V233h-5v4.1h-3.9v-7.8H1267.1z M1300.6,254.8
	c-0.7,0-1.5-0.1-2.2-0.2c-0.7-0.1-1.6-0.3-2.6-0.6l1.1-3.7c0.6,0.3,1.2,0.4,1.9,0.6c0.7,0.1,1.2,0.2,1.7,0.2c0.8,0,1.3-0.2,1.7-0.6
	s0.7-1.1,1.1-2.1l-8.6-15.5h-3.7v-3.7h10.8v3.7h-2.4l5.7,10.9l4.1-10.9h-2.6v-3.7h10.9v3.7h-4.2l-6.7,16.6c-0.7,1.7-1.5,3-2.3,3.9
	C1303.5,254.4,1302.2,254.8,1300.6,254.8z M1330.3,229.3c3.1,0,5.5,0.7,7.2,2.1c1.7,1.3,2.5,3.3,2.5,5.9c0,2.6-0.8,4.6-2.5,6
	c-1.6,1.4-4,2.1-7.2,2.1h-3.1v5h4.5v3.7h-12.5v-3.7h3.7V233h-3.7v-3.7H1330.3z M1330.2,241.8c3.5,0,5.2-1.5,5.2-4.5
	c0-2.9-1.8-4.3-5.2-4.3h-3v8.8H1330.2z M1338.9,254v-3.7h4.1l6.6-17.3h-3.8v-3.7h9l7.7,21h3.9v3.7h-10.6v-3.7h2.4l-1.3-3.7h-8.7
	l-1.3,3.7h2.5v3.7H1338.9z M1349.3,243.4h6.4l-3.1-9.6L1349.3,243.4z"/>
<rect y="280" class="st0" width="300" height="150"/>
<path class="st1" d="M1772,407h-70c-8.3,0-15-6.7-15-15v-70c0-8.3,6.7-15,15-15h70c8.3,0,15,6.7,15,15v70
	C1787,400.3,1780.3,407,1772,407z M1702,312c-5.5,0-10,4.5-10,10v70c0,5.5,4.5,10,10,10h70c5.5,0,10-4.5,10-10v-70
	c0-5.5-4.5-10-10-10H1702z"/>
<path class="st1" d="M1647,407h-70c-8.3,0-15-6.7-15-15v-70c0-8.3,6.7-15,15-15h70c8.3,0,15,6.7,15,15v70
	C1662,400.3,1655.3,407,1647,407z M1577,312c-5.5,0-10,4.5-10,10v70c0,5.5,4.5,10,10,10h70c5.5,0,10-4.5,10-10v-70
	c0-5.5-4.5-10-10-10H1577z"/>
<path class="st1" d="M1522,407h-70c-8.3,0-15-6.7-15-15v-70c0-8.3,6.7-15,15-15h70c8.3,0,15,6.7,15,15v70
	C1537,400.3,1530.3,407,1522,407z M1452,312c-5.5,0-10,4.5-10,10v70c0,5.5,4.5,10,10,10h70c5.5,0,10-4.5,10-10v-70
	c0-5.5-4.5-10-10-10H1452z"/>
<path class="st3" d="M93.7,342.8h2.7v21.4h6.4v3.7H85.4v-3.7h6.8v-15.1l-5.3,4.4l-2.4-3L93.7,342.8z M115.5,342.5
	c1.5,0,2.9,0.2,4.1,0.6c1.3,0.4,2.4,1.1,3.3,2.1c1,1,1.7,2.4,2.2,4.1s0.8,3.8,0.8,6.3s-0.3,4.6-0.8,6.3c-0.5,1.7-1.2,3-2.2,4
	c-0.9,1-2,1.7-3.3,2.1s-2.6,0.7-4.1,0.7s-2.9-0.2-4.1-0.7c-1.3-0.4-2.4-1.1-3.3-2.1s-1.7-2.4-2.2-4c-0.5-1.7-0.8-3.8-0.8-6.3
	s0.3-4.6,0.8-6.3c0.5-1.7,1.3-3.1,2.2-4.1c1-1,2.1-1.7,3.3-2.1C112.6,342.7,114,342.5,115.5,342.5z M115.5,346.3
	c-0.8,0-1.5,0.1-2.2,0.4s-1.3,0.7-1.8,1.3c-0.5,0.6-1,1.6-1.3,2.8c-0.3,1.2-0.5,2.8-0.5,4.8s0.2,3.6,0.5,4.8
	c0.3,1.2,0.7,2.1,1.3,2.8c0.5,0.6,1.1,1.1,1.8,1.3c0.7,0.3,1.4,0.4,2.2,0.4c0.8,0,1.5-0.1,2.2-0.4s1.3-0.7,1.8-1.3
	c0.6-0.7,1-1.6,1.3-2.8c0.3-1.2,0.5-2.8,0.5-4.8s-0.2-3.6-0.5-4.8c-0.3-1.2-0.7-2.2-1.3-2.8c-0.5-0.6-1.1-1.1-1.8-1.3
	C117,346.4,116.3,346.3,115.5,346.3z M140.8,342.5c1.5,0,2.9,0.2,4.1,0.6c1.3,0.4,2.4,1.1,3.3,2.1c1,1,1.7,2.4,2.2,4.1
	s0.8,3.8,0.8,6.3s-0.3,4.6-0.8,6.3c-0.5,1.7-1.2,3-2.2,4c-0.9,1-2,1.7-3.3,2.1s-2.6,0.7-4.1,0.7s-2.9-0.2-4.1-0.7
	c-1.3-0.4-2.4-1.1-3.3-2.1c-0.9-1-1.7-2.4-2.2-4c-0.5-1.7-0.8-3.8-0.8-6.3s0.3-4.6,0.8-6.3c0.5-1.7,1.3-3.1,2.2-4.1
	c1-1,2.1-1.7,3.3-2.1S139.3,342.5,140.8,342.5z M140.8,346.3c-0.8,0-1.5,0.1-2.2,0.4s-1.3,0.7-1.8,1.3c-0.5,0.6-1,1.6-1.3,2.8
	s-0.5,2.8-0.5,4.8s0.2,3.6,0.5,4.8c0.3,1.2,0.7,2.1,1.3,2.8c0.5,0.6,1.1,1.1,1.8,1.3c0.7,0.3,1.4,0.4,2.2,0.4s1.5-0.1,2.2-0.4
	s1.3-0.7,1.8-1.3c0.6-0.7,1-1.6,1.3-2.8c0.3-1.2,0.5-2.8,0.5-4.8s-0.2-3.6-0.5-4.8c-0.3-1.2-0.7-2.2-1.3-2.8
	c-0.5-0.6-1.1-1.1-1.8-1.3C142.3,346.4,141.5,346.3,140.8,346.3z M165.3,343.3h10.4l6.2,16.3l5.8-16.3H198v3.7h-3.7v17.3h3.7v3.7
	h-10.7v-3.7h2.7v-17.8l-1.8,5.6l-4.7,12.9H180l-5.2-13.3l-1.8-5l-0.1,17.6h2.8v3.7h-10.5v-3.7h3.7V347h-3.7v-3.7H165.3z
	 M201.9,358.8l-1.1-3.3c1.1-0.7,2.2-1.3,3.2-1.9c1.1-0.6,2-1.2,2.8-1.8c1.1-0.8,1.8-1.5,2.4-2.2c0.5-0.7,0.8-1.4,0.8-2
	c0-0.7-0.3-1.2-0.8-1.5s-1.1-0.5-1.8-0.5s-1.5,0.2-2.4,0.5c-0.8,0.3-1.6,0.8-2.3,1.4l-2.1-2.4c1-0.9,2.1-1.5,3.1-2
	c1.1-0.5,2.2-0.7,3.4-0.7c1.3,0,2.4,0.2,3.4,0.6s1.8,1,2.3,1.7c0.6,0.7,0.9,1.6,0.9,2.6c0,1.1-0.4,2.2-1.1,3.1
	c-0.7,0.9-1.7,1.8-2.8,2.5c-0.7,0.6-1.5,1.1-2.4,1.6s-1.8,1-2.7,1.4h6.6l1.6-2.3l2.6,1.6l-2.4,3.5L201.9,358.8L201.9,358.8z"/>
<path class="st4" d="M385.3,352.7c0.8-0.5,1.6-0.9,2.4-1.1s1.7-0.3,2.5-0.3c1.5,0,2.9,0.3,4.1,1c1.2,0.6,2.2,1.6,2.9,2.8
	c0.8,1.2,1.1,2.7,1.1,4.5c0,3-0.9,5.2-2.6,6.8c-1.7,1.5-4.2,2.3-7.3,2.3c-1.6,0-3.1-0.3-4.7-0.8c-1.5-0.6-2.8-1.5-3.9-2.6l2.8-2.6
	c0.8,0.8,1.8,1.4,2.8,1.8s2.1,0.6,3.2,0.6c1.8,0,3.1-0.4,4-1.3s1.4-2.2,1.4-3.9c0-1.1-0.2-2-0.7-2.8s-1.1-1.3-1.9-1.7
	c-0.8-0.4-1.6-0.6-2.5-0.6s-1.8,0.2-2.7,0.6c-0.9,0.4-1.8,1-2.5,1.8l-2.5-1.2v-12.8h15.3v3.7h-11.2L385.3,352.7L385.3,352.7z
	 M412.3,342.5c1.5,0,2.9,0.2,4.1,0.6c1.3,0.4,2.4,1.1,3.3,2.1c1,1,1.7,2.4,2.2,4.1s0.8,3.8,0.8,6.3s-0.3,4.6-0.8,6.3
	c-0.5,1.7-1.2,3-2.2,4c-0.9,1-2,1.7-3.3,2.1s-2.6,0.7-4.1,0.7s-2.9-0.2-4.1-0.7c-1.3-0.4-2.4-1.1-3.3-2.1s-1.7-2.4-2.2-4
	c-0.5-1.7-0.8-3.8-0.8-6.3s0.3-4.6,0.8-6.3c0.5-1.7,1.3-3.1,2.2-4.1c1-1,2.1-1.7,3.3-2.1C409.5,342.7,410.9,342.5,412.3,342.5z
	 M412.3,346.3c-0.8,0-1.5,0.1-2.2,0.4s-1.3,0.7-1.8,1.3c-0.5,0.6-1,1.6-1.3,2.8c-0.3,1.2-0.5,2.8-0.5,4.8s0.2,3.6,0.5,4.8
	c0.3,1.2,0.7,2.1,1.3,2.8c0.5,0.6,1.1,1.1,1.8,1.3c0.7,0.3,1.4,0.4,2.2,0.4s1.5-0.1,2.2-0.4s1.3-0.7,1.8-1.3c0.6-0.7,1-1.6,1.3-2.8
	c0.3-1.2,0.5-2.8,0.5-4.8s-0.2-3.6-0.5-4.8c-0.3-1.2-0.7-2.2-1.3-2.8c-0.5-0.6-1.1-1.1-1.8-1.3C413.9,346.4,413.1,346.3,412.3,346.3
	z M437.2,343.3h18.1l1.8,6.9l-3.6,1.1l-1.2-4.2h-6.9v17.3h4.6v3.7h-12.9v-3.7h4v-17.3h-4v-3.8H437.2z M471.2,342.5
	c2.4,0,4.5,0.5,6.3,1.6c1.8,1,3.2,2.5,4.2,4.5c1,1.9,1.5,4.3,1.5,7s-0.5,5.1-1.5,7c-1,2-2.4,3.5-4.2,4.5s-3.9,1.6-6.3,1.6
	s-4.4-0.5-6.3-1.6c-1.8-1.1-3.2-2.6-4.2-4.5c-1-2-1.5-4.3-1.5-7s0.5-5.1,1.5-7c1-2,2.4-3.5,4.2-4.5
	C466.8,343,468.9,342.5,471.2,342.5z M471.3,346.2c-2.4,0-4.3,0.8-5.5,2.5c-1.3,1.6-1.9,3.9-1.9,7s0.6,5.4,1.9,7.1
	c1.3,1.6,3.1,2.4,5.5,2.4s4.3-0.8,5.5-2.4c1.3-1.7,1.9-4,1.9-7.1c0-3-0.6-5.3-1.9-7S473.7,346.2,471.3,346.2z M503.7,347
	c-0.1-0.1-0.4-0.2-0.9-0.3c-0.4-0.1-1-0.3-1.6-0.4s-1.3-0.2-2-0.2c-2.5,0-4.5,0.8-5.9,2.5c-1.3,1.7-2,4-2,7s0.7,5.4,2.1,7.1
	s3.3,2.5,5.8,2.5c0.7,0,1.4-0.1,2-0.2s1.1-0.3,1.6-0.4c0.4-0.2,0.8-0.3,0.9-0.3l0.9-3.5l3.6,0.8l-1.2,5.5c0,0-0.3,0.1-1,0.4
	c-0.6,0.3-1.6,0.6-2.8,0.8c-1.2,0.3-2.5,0.5-4.1,0.5c-2.5,0-4.6-0.5-6.5-1.5c-1.8-1-3.3-2.5-4.3-4.5s-1.5-4.4-1.6-7.2
	c0-2.7,0.5-5.1,1.5-7c1-2,2.4-3.5,4.3-4.5c1.9-1.1,4.1-1.6,6.6-1.6c1.8,0,3.3,0.2,4.5,0.5s2.1,0.7,2.6,1c0.6,0.3,0.9,0.5,0.9,0.5
	l1.1,5.5l-3.7,0.8L503.7,347z M511.4,343.3h22.1v7.8h-3.9V347h-5v17.3h3.7v3.7h-11.8v-3.7h3.7V347h-5v4.1h-3.9L511.4,343.3
	L511.4,343.3z M536.7,343.3h18.9l2.4,7.1l-3.5,1.2l-1.6-4.5h-8.1v6.5h7.4v3.7h-7.4v7.1h9.1l1.6-4.3l3.5,1.2l-2.4,6.8h-19.9v-3.7h3.7
	v-17.3h-3.7V343.3z M561.9,343.3h10.5v3.7h-2.5v15.5l12.1-19.2h8v3.7h-3.8v17.3h3.7v3.7h-10.4v-3.7h2.5V349l-12.1,19h-8v-3.7h3.7
	V347h-3.7V343.3z M576.4,341c-2,0-3.7-0.4-5-1.2c-1.3-0.8-2.2-2-2.6-3.6l3.5-0.5c0.4,1.8,1.8,2.6,4.1,2.6s3.7-0.9,4.1-2.6l3.5,0.5
	c-0.4,1.6-1.3,2.8-2.6,3.6C580.1,340.6,578.4,341,576.4,341z"/>
<path class="st4" d="M511.7,670.5c2.7,0,4.8,0.5,6.2,1.7s2.1,2.9,2.1,5.2c0,2.4-0.7,4.3-2,5.6s-3.3,1.9-5.9,1.9h-13.4v-3.7h3.7V664
	h-3.7v-3.7h18.6l1.7,6.3l-3.7,1l-1-3.6h-7.6v6.6L511.7,670.5z M511.2,681.3c1.4,0,2.5-0.3,3.2-0.9c0.8-0.6,1.1-1.6,1.1-2.8
	s-0.3-2-1-2.6s-1.7-0.8-3-0.8l-4.8,0.1v6.9L511.2,681.3L511.2,681.3z M531,685.8c-0.7,0-1.5-0.1-2.2-0.2c-0.7-0.1-1.6-0.3-2.6-0.6
	l1.1-3.7c0.6,0.3,1.2,0.4,1.9,0.6c0.7,0.1,1.2,0.2,1.7,0.2c0.8,0,1.3-0.2,1.7-0.6c0.4-0.4,0.7-1.1,1.1-2.1l-8.6-15.5h-3.7v-3.7h10.8
	v3.7h-2.4l5.7,10.9l4.1-10.9H537v-3.7h10.9v3.7h-4.2l-6.7,16.6c-0.7,1.7-1.5,3-2.3,3.9C533.9,685.4,532.7,685.8,531,685.8z
	 M560.7,660.3c3.1,0,5.5,0.7,7.2,2.1c1.7,1.3,2.5,3.3,2.5,5.9c0,2.6-0.8,4.6-2.5,6s-4,2.1-7.2,2.1h-3.1v5h4.5v3.7h-12.5v-3.7h3.7
	V664h-3.7v-3.7H560.7z M560.7,672.8c3.5,0,5.2-1.5,5.2-4.5c0-2.9-1.8-4.3-5.2-4.3h-3v8.8H560.7z M572.9,660.3H591l1.8,6.9l-3.6,1
	L588,664h-6.9v17.3h4.6v3.7h-12.9v-3.7h4V664h-4v-3.7H572.9z M595.1,660.3H614l2.4,7.1l-3.5,1.2l-1.6-4.5h-8.1v6.5h7.4v3.7h-7.4v7.1
	h9.1l1.6-4.3l3.5,1.2l-2.4,6.8h-19.9v-3.7h3.7v-17.3h-3.7V660.3z M631.3,660.3c3.1,0,5.5,0.7,7.2,2.1c1.7,1.3,2.5,3.3,2.5,5.9
	c0,2.6-0.8,4.6-2.5,6s-4,2.1-7.2,2.1h-3.1v5h4.5v3.7h-12.5v-3.7h3.7V664h-3.7v-3.7H631.3z M631.3,672.8c3.5,0,5.2-1.5,5.2-4.5
	c0-2.9-1.8-4.3-5.2-4.3h-3v8.8H631.3z M643.5,685v-3.7h3.7V664h-3.6v-3.7H654v3.7h-2.6v5.3h4.3c2,0,3.6,0.3,5,0.8
	c1.3,0.5,2.3,1.4,2.9,2.5c0.6,1.1,1,2.6,1,4.4c0,1.7-0.3,3.1-1,4.3s-1.6,2.1-2.9,2.7s-2.8,1-4.5,1H643.5z M651.4,681.3h3.9
	c0.6,0,1.2-0.1,1.7-0.2s1.1-0.3,1.6-0.6s0.8-0.7,1.1-1.3s0.4-1.3,0.4-2.2c0-1.1-0.2-1.9-0.5-2.5c-0.4-0.6-0.9-0.9-1.6-1.1
	c-0.7-0.2-1.5-0.3-2.5-0.3h-4v8.2H651.4z M666.3,685v-3.7h2.5V664h-2.6v-3.7h10.5v3.7H673v17.3h3.7v3.7H666.3z"/>
<path class="st4" d="M515.7,520c-0.1-0.1-0.4-0.2-0.9-0.3c-0.4-0.1-1-0.3-1.6-0.4c-0.6-0.1-1.3-0.2-2-0.2c-2.5,0-4.5,0.8-5.9,2.5
	c-1.3,1.7-2,4-2,7s0.7,5.4,2.1,7.1c1.4,1.7,3.3,2.5,5.8,2.5c0.7,0,1.4-0.1,2-0.2c0.6-0.1,1.1-0.3,1.6-0.4c0.4-0.2,0.8-0.3,0.9-0.3
	l0.9-3.5l3.6,0.8L519,540c0,0-0.3,0.1-1,0.4c-0.6,0.3-1.6,0.6-2.8,0.8c-1.2,0.3-2.5,0.5-4.1,0.5c-2.5,0-4.6-0.5-6.5-1.5
	c-1.8-1-3.3-2.5-4.3-4.5s-1.5-4.4-1.6-7.2c0-2.7,0.5-5.1,1.5-7s2.4-3.5,4.3-4.5c1.9-1.1,4.1-1.6,6.6-1.6c1.8,0,3.3,0.2,4.5,0.5
	c1.2,0.3,2.1,0.7,2.6,1c0.6,0.3,0.9,0.5,0.9,0.5l1.1,5.5l-3.7,0.8L515.7,520z M523.5,516.3H534v3.7h-2.5v6.6h11.2V520h-2.5v-3.7
	h10.5v3.7H547l-0.1,17.3h3.7v3.7h-10.5v-3.7h2.5v-7h-11.2v7h2.5v3.7h-10.5v-3.7h3.7V520h-3.7L523.5,516.3L523.5,516.3z M563.7,541.8
	c-1.7,0-3.2-0.2-4.4-0.5s-2.2-0.6-2.9-0.8c-0.7-0.3-1-0.4-1-0.4l-1.1-5.1l3.6-0.9l0.8,3.1c0.2,0.1,0.5,0.2,1,0.3
	c0.5,0.2,1,0.3,1.7,0.5c0.7,0.1,1.5,0.2,2.3,0.2c2.3,0,4.1-0.7,5.5-2.1s2.1-3.3,2.3-5.8l-5.8,0.3h-4.5v-3.7h4.5l5.8,0.3
	c-0.2-2.6-0.9-4.6-2.2-6s-3.1-2.1-5.6-2.1c-0.8,0-1.6,0.1-2.3,0.2c-0.7,0.1-1.2,0.2-1.7,0.4s-0.8,0.3-1,0.4l-0.8,3.5l-3.7-0.8l1-5.1
	c0.4-0.3,1-0.5,1.7-0.8s1.7-0.6,2.8-0.9c1.1-0.3,2.5-0.4,4-0.4c2.5,0,4.7,0.5,6.5,1.6s3.3,2.6,4.3,4.5c1,2,1.5,4.3,1.5,7
	c0,2.8-0.5,5.2-1.6,7.2c-1,2-2.5,3.4-4.3,4.5S566.2,541.8,563.7,541.8z M579.6,516.3h10.5v3.7h-2.5v6.8h3.4l5-6.8h-2.5v-3.7h10.7
	v3.7h-3.9l-6,7.8l6.7,9.5h4.2v3.7h-12v-3.7h3.1l-4.7-6.8h-4v6.8h2.5v3.7h-10.5v-3.7h3.7V520h-3.7V516.3z M608.3,516.3h10.5v3.7h-2.5
	v15.5l12.1-19.2h8v3.7h-3.8v17.3h3.7v3.7h-10.4v-3.7h2.5V522l-12.1,19h-8v-3.7h3.7V520h-3.7V516.3z"/>
<path class="st4" d="M496.4,589.5c1.3-0.7,2.6-1.2,4.1-1.5c1.4-0.3,2.8-0.5,4.1-0.5c1.7,0,3.3,0.3,4.6,0.8c1.3,0.5,2.4,1.3,3.2,2.4
	c0.8,1.1,1.2,2.4,1.2,3.9c0,1.3-0.3,2.5-1,3.4s-1.8,1.6-3.2,2.1c1.8,0.4,3.1,1.2,3.9,2.2c0.8,1,1.3,2.2,1.3,3.7c0,1.6-0.4,3-1.3,4.1
	c-0.9,1.1-2.1,2-3.6,2.6s-3.2,0.9-5.1,0.9c-1.6,0-3.1-0.2-4.5-0.7c-1.4-0.4-2.8-1.2-4-2.2l-1-4.3l3.6-0.9l0.8,2.9
	c0.7,0.6,1.5,1.1,2.3,1.3c0.8,0.3,1.8,0.4,2.9,0.4c1.7,0,3.1-0.3,4-1c1-0.7,1.4-1.7,1.4-3c0-1.2-0.4-2.2-1.2-2.9
	c-0.8-0.7-1.9-1-3.4-1h-3.8v-3.5h3.7c1.3,0,2.2-0.3,2.8-1c0.6-0.7,1-1.7,1-2.8c0-1.3-0.4-2.2-1.3-2.8s-2-0.9-3.4-0.9
	c-0.8,0-1.5,0.1-2.3,0.3c-0.8,0.1-1.5,0.4-2.1,0.7l-0.8,3.2l-3.7-0.8L496.4,589.5z M516.1,613v-3.7h4.1l6.6-17.3H523v-3.7h9l7.7,21
	h3.9v3.7H533v-3.7h2.4l-1.3-3.7h-8.7l-1.3,3.7h2.5v3.7H516.1z M526.5,602.4h6.4l-3.1-9.6L526.5,602.4z M545.6,588.3H556v3.7h-2.5
	v6.8h3.4l5-6.8h-2.5v-3.7h10.7v3.7h-3.9l-6,7.8l6.7,9.5h4.2v3.7h-12v-3.7h3.1l-4.7-6.8h-4v6.8h2.5v3.7h-10.5v-3.7h3.7V592h-3.7
	L545.6,588.3L545.6,588.3z M581.2,613.8c-0.7,0-1.5-0.1-2.2-0.2c-0.7-0.1-1.6-0.3-2.6-0.6l1.1-3.7c0.6,0.3,1.2,0.4,1.9,0.6
	c0.7,0.1,1.2,0.2,1.7,0.2c0.8,0,1.3-0.2,1.7-0.6c0.4-0.4,0.7-1.1,1.1-2.1l-8.6-15.5h-3.7v-3.7h10.8v3.7H580l5.7,10.9l4.1-10.9h-2.6
	v-3.7h10.9v3.7h-4.2l-6.7,16.6c-0.7,1.7-1.5,3-2.3,3.9C584.1,613.4,582.9,613.8,581.2,613.8z M614.9,592c-0.1-0.1-0.4-0.2-0.9-0.3
	c-0.4-0.1-1-0.3-1.6-0.4c-0.6-0.1-1.3-0.2-2-0.2c-2.5,0-4.5,0.8-5.9,2.5c-1.3,1.7-2,4-2,7s0.7,5.4,2.1,7.1c1.4,1.7,3.3,2.5,5.8,2.5
	c0.7,0,1.4-0.1,2-0.2c0.6-0.1,1.1-0.3,1.6-0.4c0.4-0.2,0.8-0.3,0.9-0.3l0.9-3.5l3.6,0.8l-1.2,5.5c0,0-0.3,0.1-1,0.4
	c-0.6,0.3-1.6,0.6-2.8,0.8c-1.2,0.3-2.5,0.5-4.1,0.5c-2.5,0-4.6-0.5-6.5-1.5c-1.8-1-3.3-2.5-4.3-4.5s-1.5-4.4-1.6-7.2
	c0-2.7,0.5-5.1,1.5-7s2.4-3.5,4.3-4.5c1.9-1.1,4.1-1.6,6.6-1.6c1.8,0,3.3,0.2,4.5,0.5s2.1,0.7,2.6,1c0.6,0.3,0.9,0.5,0.9,0.5
	l1.1,5.5l-3.7,0.8L614.9,592z M622.6,588.3h10.5v3.7h-2.5v6.8h3.4l5-6.8h-2.5v-3.7h10.7v3.7h-3.9l-6,7.8l6.7,9.5h4.2v3.7h-12v-3.7
	h3.1l-4.7-6.8h-4v6.8h2.5v3.7h-10.5v-3.7h3.7V592h-3.7V588.3z M651.4,588.3h10.5v3.7h-2.5v15.5l12.1-19.2h8v3.7h-3.8v17.3h3.7v3.7
	H669v-3.7h2.5V594l-12.2,19h-8v-3.7h3.7V592h-3.7v-3.7H651.4z"/>
<path class="st4" d="M71.7,590.7c-2,2.6-3.7,5.3-5,7.9c-1.3,2.6-2.2,5.2-2.8,7.6c-0.6,2.4-0.8,4.7-0.8,6.7h-4.4
	c0.1-2.2,0.5-4.3,1-6.6c0.6-2.2,1.4-4.5,2.4-6.9c1.1-2.4,2.5-4.9,4.2-7.5h-10l-0.6,2.8l-3.8-0.8l1-5.7h18.6v2.5H71.7z M101.2,592
	c-0.1-0.1-0.4-0.2-0.9-0.3c-0.4-0.1-1-0.3-1.6-0.4c-0.6-0.1-1.3-0.2-2-0.2c-2.5,0-4.5,0.8-5.9,2.5c-1.3,1.7-2,4-2,7s0.7,5.4,2.1,7.1
	c1.4,1.7,3.3,2.5,5.8,2.5c0.7,0,1.4-0.1,2-0.2c0.6-0.1,1.1-0.3,1.6-0.4c0.4-0.2,0.8-0.3,0.9-0.3l0.9-3.5l3.6,0.8l-1.2,5.5
	c0,0-0.3,0.1-1,0.4c-0.6,0.3-1.6,0.6-2.8,0.8c-1.2,0.3-2.5,0.5-4.1,0.5c-2.5,0-4.6-0.5-6.5-1.5c-1.8-1-3.3-2.5-4.3-4.5
	s-1.5-4.4-1.6-7.2c0-2.7,0.5-5.1,1.5-7c1-2,2.4-3.5,4.3-4.5c1.9-1.1,4.1-1.6,6.6-1.6c1.8,0,3.3,0.2,4.5,0.5s2.1,0.7,2.6,1
	c0.6,0.3,0.9,0.5,0.9,0.5l1.1,5.5l-3.7,0.8L101.2,592z M108.8,588.3h22.1v7.8H127V592h-5v17.3h3.7v3.7h-11.8v-3.7h3.7V592h-5v4.1
	h-3.9v-7.8H108.8z M145.2,587.5c2.4,0,4.5,0.5,6.3,1.6c1.8,1,3.2,2.5,4.2,4.5c1,1.9,1.5,4.3,1.5,7s-0.5,5.1-1.5,7
	c-1,2-2.4,3.5-4.2,4.5c-1.8,1.1-3.9,1.6-6.3,1.6c-2.4,0-4.4-0.5-6.3-1.6c-1.8-1.1-3.2-2.6-4.2-4.5c-1-2-1.5-4.3-1.5-7s0.5-5.1,1.5-7
	c1-2,2.4-3.5,4.2-4.5C140.8,588,142.9,587.5,145.2,587.5z M145.2,591.2c-2.4,0-4.3,0.8-5.5,2.5c-1.3,1.6-1.9,3.9-1.9,7
	s0.6,5.4,1.9,7.1c1.3,1.6,3.1,2.4,5.5,2.4s4.3-0.8,5.5-2.4c1.3-1.7,1.9-4,1.9-7.1c0-3-0.6-5.3-1.9-7
	C149.5,592,147.7,591.2,145.2,591.2z M160.4,613.6c-0.2,0-0.4,0-0.6,0c-0.2,0-0.5,0-0.9,0v-4c1.6,0,2.8-0.3,3.6-0.8
	c0.8-0.6,1.4-1.5,1.8-2.7c0.4-1.3,0.6-2.9,0.8-5l0.7-9.1h-3.7v-3.7h22.5v3.7h-4v17.3h4v3.7h-11.3v-3.7h3V592h-6.7l-0.8,10.2
	c-0.1,2.2-0.5,4.2-1.1,5.9c-0.5,1.7-1.4,3.1-2.5,4.1C164,613.1,162.4,613.6,160.4,613.6z M200.2,587.5c2.4,0,4.5,0.5,6.3,1.6
	c1.8,1,3.2,2.5,4.2,4.5c1,1.9,1.5,4.3,1.5,7s-0.5,5.1-1.5,7c-1,2-2.4,3.5-4.2,4.5c-1.8,1.1-3.9,1.6-6.3,1.6c-2.4,0-4.4-0.5-6.3-1.6
	c-1.8-1.1-3.2-2.6-4.2-4.5c-1-2-1.5-4.3-1.5-7s0.5-5.1,1.5-7c1-2,2.4-3.5,4.2-4.5C195.7,588,197.8,587.5,200.2,587.5z M200.2,591.2
	c-2.4,0-4.3,0.8-5.5,2.5c-1.3,1.6-1.9,3.9-1.9,7s0.6,5.4,1.9,7.1c1.3,1.6,3.1,2.4,5.5,2.4s4.3-0.8,5.5-2.4c1.3-1.7,1.9-4,1.9-7.1
	c0-3-0.6-5.3-1.9-7C204.5,592,202.6,591.2,200.2,591.2z M215.7,613v-3.7h3.7V592h-3.7v-3.7h10.9c3.2,0,5.6,0.6,7.2,1.7
	c1.7,1.1,2.5,2.7,2.5,4.9c0,1.2-0.3,2.3-0.9,3.2c-0.6,1-1.4,1.7-2.5,2.2c1.2,0.4,2.2,1.1,3,2.1s1.1,2.3,1.1,3.8c0,2-0.7,3.7-2.1,4.9
	c-1.4,1.2-3.5,1.8-6.3,1.8L215.7,613L215.7,613z M223.7,609.3h4.5c1.4,0,2.5-0.3,3.2-0.9c0.8-0.6,1.1-1.5,1.1-2.7
	c0-1.1-0.4-2-1.1-2.6c-0.7-0.6-1.7-0.9-3-0.9h-4.7V609.3z M223.7,598.9h4.8c1.1,0,1.9-0.3,2.4-0.9c0.6-0.6,0.8-1.5,0.8-2.5
	c0-2.3-1.6-3.4-4.7-3.4h-3.3V598.9z"/>
<g>
	<path class="st0" d="M1184,540h613c5.5,0,10,4.5,10,10v153h-633V550C1174,544.5,1178.5,540,1184,540z"/>
	<path class="st0" d="M1812,708h-643V550c0-8.3,6.7-15,15-15h613c8.3,0,15,6.7,15,15V708z M1179,698h623V550c0-2.8-2.2-5-5-5h-613
		c-2.8,0-5,2.2-5,5V698z"/>
</g>
<rect x="740" y="496" class="st5" width="235" height="209"/>
<path class="st1" d="M85,524.8c0-4.8-11.2-8.8-25-8.8s-25,3.9-25,8.8c0,4.5,9.9,8.3,22.5,8.7v10h-4.1c-2,0-3.9,1.2-4.7,3.2L45,556h5
	l3-7.5h14l3,7.5h5l-3.8-9.3c-0.8-1.9-2.6-3.2-4.6-3.2h-4.1v-10C75.1,533,85,529.3,85,524.8z"/>
<path class="st1" d="M170,524.8c0-4.8-11.2-8.8-25-8.8s-25,3.9-25,8.8c0,4.5,9.9,8.3,22.5,8.7v10h-4.1c-2.1,0-3.9,1.2-4.6,3.2
	L130,556h5l3-7.5h14l3,7.5h5l-3.8-9.3c-0.8-1.9-2.6-3.2-4.6-3.2h-4.1v-10C160.1,533,170,529.3,170,524.8z"/>
<path class="st1" d="M85,653.8c0-4.8-11.2-8.8-25-8.8s-25,3.9-25,8.8c0,4.5,9.9,8.3,22.5,8.7v10h-4.1c-2,0-3.9,1.2-4.7,3.2L45,685h5
	l3-7.5h14l3,7.5h5l-3.8-9.3c-0.8-1.9-2.6-3.2-4.6-3.2h-4.1v-10C75.1,662,85,658.3,85,653.8z"/>
<path class="st1" d="M170,653.8c0-4.8-11.2-8.8-25-8.8s-25,3.9-25,8.8c0,4.5,9.9,8.3,22.5,8.7v10h-4.1c-2.1,0-3.9,1.2-4.6,3.2
	L130,685h5l3-7.5h14l3,7.5h5l-3.8-9.3c-0.8-1.9-2.6-3.2-4.6-3.2h-4.1v-10C160.1,662,170,658.3,170,653.8z"/>
<path class="st1" d="M255,653.8c0-4.8-11.2-8.8-25-8.8s-25,3.9-25,8.8c0,4.5,9.9,8.3,22.5,8.7v10h-4.1c-2.1,0-3.9,1.2-4.6,3.2
	L215,685h5l3-7.5h14l3,7.5h5l-3.8-9.3c-0.8-1.9-2.6-3.2-4.6-3.2h-4.1v-10C245.1,662,255,658.3,255,653.8z"/>
<path class="st1" d="M324,588.8c0-4.8-11.2-8.8-25-8.8s-25,3.9-25,8.8c0,4.5,9.9,8.3,22.5,8.7v10h-4.1c-2,0-3.9,1.2-4.6,3.2L284,620
	h5l3-7.5h14l3,7.5h5l-3.8-9.3c-0.8-1.9-2.6-3.2-4.6-3.2h-4.1v-10C314.1,597,324,593.3,324,588.8z"/>
<path class="st1" d="M255,524.8c0-4.8-11.2-8.8-25-8.8s-25,3.9-25,8.8c0,4.5,9.9,8.3,22.5,8.7v10h-4.1c-2.1,0-3.9,1.2-4.6,3.2
	L215,556h5l3-7.5h14l3,7.5h5l-3.8-9.3c-0.8-1.9-2.6-3.2-4.6-3.2h-4.1v-10C245.1,533,255,529.3,255,524.8z"/>
<rect x="1365" y="431" class="st0" width="455" height="60"/>
<path class="st0" d="M1365,344c0-11,8.9-20,20-20h20c11.1,0,20,9,20,20v147h-60V344z"/>
<path class="st1" d="M1737,340c0.9,0,1.6,0.7,1.6,1.6v3.2l1.6-1.6c0.6-0.6,1.7-0.6,2.3,0c0.6,0.6,0.6,1.7,0,2.3l-3.8,3.9v5.2
	l4.5-2.6l1.4-5.3c0.2-0.9,1.1-1.4,2-1.2c0.9,0.2,1.4,1.1,1.2,2l-0.6,2.1l2.5-1.5c0.8-0.5,1.8-0.2,2.2,0.6c0.4,0.8,0.2,1.8-0.6,2.2
	l-2.5,1.5l2.1,0.6c0.9,0.2,1.4,1.1,1.1,2c-0.2,0.9-1.1,1.4-2,1.2l-5.2-1.4l-4.5,2.6l4.5,2.6l5.2-1.4c0.9-0.2,1.8,0.3,2,1.2
	c0.2,0.9-0.3,1.8-1.1,2l-2.1,0.6l2.5,1.5c0.8,0.5,1,1.5,0.6,2.2c-0.5,0.8-1.4,1.1-2.2,0.6l-2.5-1.5l0.6,2.2c0.2,0.9-0.3,1.8-1.2,2
	c-0.9,0.2-1.8-0.3-2-1.2l-1.4-5.3l-4.5-2.6v5.2l3.8,3.9c0.6,0.6,0.6,1.7,0,2.3c-0.6,0.6-1.7,0.6-2.3,0l-1.6-1.6v3.1
	c0,0.9-0.7,1.6-1.6,1.6s-1.6-0.7-1.6-1.6V370l-1.6,1.6c-0.6,0.6-1.7,0.6-2.3,0c-0.6-0.6-0.6-1.7,0-2.3l3.8-3.9v-5.2l-4.5,2.6
	l-1.4,5.3c-0.2,0.9-1.1,1.4-2,1.2c-0.9-0.2-1.4-1.1-1.1-2l0.6-2.1l-2.5,1.5c-0.8,0.5-1.8,0.2-2.2-0.6c-0.4-0.8-0.2-1.8,0.6-2.2
	l2.5-1.5l-2.1-0.6c-0.9-0.2-1.4-1.1-1.1-2c0.2-0.9,1.1-1.4,2-1.2l5.2,1.4l4.5-2.6l-4.5-2.6l-5.2,1.4c-0.9,0.2-1.8-0.3-2-1.2
	c-0.2-0.9,0.3-1.8,1.1-2l2.1-0.6l-2.5-1.5c-0.8-0.5-1-1.5-0.6-2.2c0.5-0.8,1.4-1.1,2.2-0.6l2.5,1.5l-0.6-2.2c-0.2-0.9,0.3-1.8,1.2-2
	c0.9-0.2,1.8,0.3,2,1.2l1.4,5.3l4.5,2.6v-5.2l-3.8-3.9c-0.6-0.6-0.6-1.7,0-2.3c0.6-0.6,1.7-0.6,2.3,0l1.6,1.6v-3.2
	C1735.4,340.7,1736.1,340,1737,340L1737,340z"/>
<path class="st6" d="M893,615v-60c-24.1,23-25.1,41.6-25,60H893z M893,615v30h-5v-15 M838,560v85 M823,560v15c0,4,1.6,7.8,4.4,10.6
	S834,590,838,590s7.8-1.6,10.6-4.4S853,579,853,575v-15"/>
<path class="st0" d="M763,287h413v142c0,19.3-15.7,35-35,35H798c-19.3,0-35-15.7-35-35V287z"/>
<path class="st1" d="M895.4,346.7c0,0.5-0.2,1-0.6,1.4c-0.4,0.4-0.8,0.6-1.4,0.6s-1-0.2-1.4-0.6s-0.6-0.8-0.6-1.4
	c0-0.5,0.2-1,0.6-1.4c0.4-0.4,0.8-0.6,1.4-0.6s1,0.2,1.4,0.6C895.2,345.7,895.4,346.2,895.4,346.7z M890.6,359.1
	c0-0.8,0.3-1.5,0.8-2s1.3-0.8,2-0.8s1.5,0.3,2,0.8s0.8,1.3,0.8,2s-0.3,1.5-0.8,2s-1.3,0.8-2,0.8s-1.5-0.3-2-0.8
	S890.6,359.9,890.6,359.1z"/>
<path class="st1" d="M885.8,339c-1,0-2,0.4-2.7,1.1s-1.1,1.7-1.1,2.7v23c0,1,0.4,2,1.1,2.7s1.7,1.1,2.7,1.1h15.3c1,0,2-0.4,2.7-1.1
	s1.1-1.7,1.1-2.7v-23c0-1-0.4-2-1.1-2.7c-0.7-0.7-1.7-1.1-2.7-1.1H885.8z M897.3,346.7c0,1-0.4,2-1.1,2.7c-0.7,0.7-1.7,1.1-2.7,1.1
	s-2-0.4-2.7-1.1s-1.1-1.7-1.1-2.7s0.4-2,1.1-2.7c0.7-0.7,1.7-1.1,2.7-1.1s2,0.4,2.7,1.1S897.3,345.6,897.3,346.7z M893.5,352.4
	c1.8,0,3.5,0.7,4.7,2c1.3,1.3,2,3,2,4.7s-0.7,3.5-2,4.7c-1.3,1.3-3,2-4.7,2s-3.5-0.7-4.7-2c-1.3-1.3-2-3-2-4.7s0.7-3.5,2-4.7
	C890,353.1,891.7,352.4,893.5,352.4z"/>
<path class="st1" d="M1048.4,346.7c0,0.5-0.2,1-0.6,1.4s-0.8,0.6-1.4,0.6s-1-0.2-1.4-0.6c-0.3-0.4-0.6-0.8-0.6-1.4
	c0-0.5,0.2-1,0.6-1.4s0.8-0.6,1.4-0.6s1,0.2,1.4,0.6C1048.2,345.7,1048.4,346.2,1048.4,346.7z M1043.6,359.1c0-0.8,0.3-1.5,0.8-2
	s1.3-0.8,2-0.8s1.5,0.3,2,0.8s0.8,1.3,0.8,2s-0.3,1.5-0.8,2s-1.3,0.8-2,0.8s-1.5-0.3-2-0.8S1043.6,359.9,1043.6,359.1z"/>
<path class="st1" d="M1038.8,339c-1,0-2,0.4-2.7,1.1s-1.1,1.7-1.1,2.7v23c0,1,0.4,2,1.1,2.7s1.7,1.1,2.7,1.1h15.3c1,0,2-0.4,2.7-1.1
	s1.1-1.7,1.1-2.7v-23c0-1-0.4-2-1.1-2.7s-1.7-1.1-2.7-1.1H1038.8z M1050.3,346.7c0,1-0.4,2-1.1,2.7s-1.7,1.1-2.7,1.1s-2-0.4-2.7-1.1
	s-1.1-1.7-1.1-2.7s0.4-2,1.1-2.7s1.7-1.1,2.7-1.1s2,0.4,2.7,1.1S1050.3,345.6,1050.3,346.7z M1046.5,352.4c1.8,0,3.5,0.7,4.7,2
	c1.3,1.3,2,3,2,4.7s-0.7,3.5-2,4.7c-1.2,1.3-3,2-4.7,2s-3.5-0.7-4.7-2c-1.3-1.3-2-3-2-4.7s0.7-3.5,2-4.7
	C1043,353.1,1044.7,352.4,1046.5,352.4z"/>
<path class="st2" d="M966.7,359.1H940c-5.5,0-10-4.4-10-9.9v-16.4c0-5.4,4.5-9.9,10-9.9h60c5.5,0,10,4.4,10,9.9v16.4
	c0,5.4-4.5,9.9-10,9.9h-26.7v3.3h6.7c1.8,0,3.3,1.5,3.3,3.3s-1.5,3.3-3.3,3.3h-20c-1.8,0-3.3-1.5-3.3-3.3s1.5-3.3,3.3-3.3h6.7V359.1
	z M940,329.6h60c1.8,0,3.3,1.5,3.3,3.3v16.4c0,1.8-1.5,3.3-3.3,3.3h-60c-1.8,0-3.3-1.5-3.3-3.3v-16.4
	C936.7,331,938.2,329.6,940,329.6z"/>
<path class="st3" d="M812.7,405.3h10.4l6.2,16.3l5.8-16.3h10.3v3.7h-3.7v17.3h3.7v3.7h-10.7v-3.7h2.7v-17.8l-1.8,5.6L831,427h-3.6
	l-5.2-13.3l-1.8-5l-0.1,17.6h2.8v3.7h-10.5v-3.7h3.7V409h-3.7L812.7,405.3L812.7,405.3z M857,430.8c-0.7,0-1.5-0.1-2.2-0.2
	s-1.6-0.3-2.6-0.6l1.1-3.7c0.6,0.3,1.2,0.4,1.9,0.6c0.7,0.1,1.2,0.2,1.7,0.2c0.8,0,1.3-0.2,1.7-0.6s0.7-1.1,1.1-2.1L851,409h-3.7
	v-3.7h10.8v3.7h-2.4l5.7,10.9l4.1-10.9h-2.6v-3.7h10.9v3.7h-4.2l-6.7,16.6c-0.7,1.7-1.5,3-2.3,3.9
	C859.9,430.4,858.6,430.8,857,430.8z M874.9,430.6c-0.2,0-0.4,0-0.6,0c-0.2,0-0.5,0-0.9,0v-4c1.6,0,2.8-0.3,3.6-0.8
	c0.8-0.6,1.4-1.5,1.8-2.7c0.4-1.3,0.6-2.9,0.8-5l0.7-9.1h-3.7v-3.7h22.5v3.7h-4v17.3h4v3.7h-11.3v-3.7h3V409h-6.7l-0.8,10.2
	c-0.1,2.2-0.5,4.2-1,5.9c-0.5,1.7-1.4,3.1-2.5,4.1C878.4,430.1,876.8,430.6,874.9,430.6z M915.1,414.3c2,0,3.7,0.3,5,0.8
	s2.3,1.4,2.9,2.5c0.7,1.1,1,2.6,1,4.4c0,1.7-0.4,3.1-1.1,4.3c-0.7,1.2-1.6,2.1-2.9,2.7c-1.2,0.6-2.7,1-4.5,1h-12.6v-3.7h3.7V409H903
	v-3.7h10.4v3.7h-2.6v5.3H915.1z M914.6,426.3c0.6,0,1.2-0.1,1.7-0.2c0.6-0.1,1.1-0.3,1.6-0.6c0.5-0.3,0.9-0.7,1.1-1.3
	c0.3-0.6,0.4-1.3,0.4-2.2c0-1.1-0.2-1.9-0.6-2.5c-0.4-0.6-0.9-0.9-1.6-1.1c-0.7-0.2-1.6-0.3-2.6-0.3h-3.9v8.2H914.6z M924,405.3
	h22.1v7.8h-3.9V409h-5v17.3h3.7v3.7h-11.8v-3.7h3.7V409h-5v4.1H924V405.3z M949.3,405.3h10.5v3.7h-2.5v15.5l12.1-19.2h8v3.7h-3.8
	v17.3h3.7v3.7h-10.4v-3.7h2.5V411l-12.1,19h-8v-3.7h3.7V409h-3.7V405.3z M980.8,405.3h10.4l6.2,16.3l5.8-16.3h10.3v3.7h-3.7v17.3
	h3.7v3.7h-10.7v-3.7h2.7v-17.8l-1.8,5.6L999,427h-3.6l-5.2-13.3l-1.8-5l-0.1,17.6h2.8v3.7h-10.5v-3.7h3.7V409h-3.7v-3.7H980.8z
	 M1016.9,405.3h18.9l2.3,7.1l-3.5,1.2l-1.6-4.5h-8.1v6.5h7.4v3.7h-7.4v7.1h9.1l1.6-4.3l3.5,1.2l-2.3,6.8h-19.9v-3.7h3.7v-17.3h-3.7
	V405.3z M1045.2,426.3c0.8-1,1.4-2.2,1.8-3.6c0.5-1.4,0.8-3.3,1-5.5l0.7-8.1h-4.4v-3.7h23.1v3.7h-4v17.3h3.9v9.3h-3.6V430h-18.1v5.6
	h-3.6v-9.3L1045.2,426.3L1045.2,426.3z M1049,426.3h10.2V409h-6.6l-0.8,8.7c-0.2,2-0.5,3.7-1,5.1
	C1050.3,424.1,1049.7,425.3,1049,426.3z M1071.2,405.3h10.5v3.7h-2.5v15.5l12.1-19.2h8v3.7h-3.8v17.3h3.7v3.7h-10.4v-3.7h2.5V411
	l-12.1,19.1h-8v-3.7h3.7V409h-3.7L1071.2,405.3L1071.2,405.3z M1101.2,430v-3.7h4.1l6.6-17.3h-3.8v-3.7h9l7.7,21h3.9v3.7H1118v-3.7
	h2.4l-1.3-3.7h-8.7l-1.3,3.7h2.5v3.7H1101.2z M1111.6,419.4h6.4l-3.1-9.6L1111.6,419.4z"/>
<path class="st1" d="M1605.1,382c-2.8,0-5-2-5.1-4.3v-20.4c0-1.8,0.6-3.6,1.8-5.1l2.3-3c0.7-0.8,1.1-1.8,1.2-2.7l2-11.8h-0.8
	c-0.8,0-1.5-0.6-1.5-1.3c0-0.7,0.7-1.3,1.5-1.3h2.5h7.5c0.8,0,1.5,0.6,1.5,1.3c0,0.7-0.7,1.3-1.5,1.3h-0.8l2,11.8
	c0.2,1,0.6,1.9,1.2,2.7l2.3,3c1.2,1.5,1.8,3.3,1.8,5.1v20.4c0,2.4-2.3,4.3-5,4.4h-12.9V382z M1614.8,346.8l-2.1-12.2h-2.4l-2,12.2
	H1614.8L1614.8,346.8z"/>
<path class="st2" d="M1486.2,379.7v-16.4h1.6v16.4H1486.2z"/>
<path class="st2" d="M1469.1,345.8c0.1-0.3,0.4-0.5,0.7-0.5h34.4c0.3,0,0.6,0.2,0.7,0.5s0,0.6-0.2,0.9l-4.3,3.9
	c-0.3,0.3-0.8,0.3-1.1-0.1c-0.3-0.3-0.3-0.8,0.1-1.1l2.8-2.5h-30.3l2.8,2.5c0.3,0.3,0.3,0.8,0.1,1.1c-0.3,0.3-0.8,0.3-1.1,0.1
	l-4.3-3.9C1469.1,346.4,1469,346.1,1469.1,345.8z"/>
<path class="st7" d="M1487,363.2l-9.4-9.4h18.8L1487,363.2z"/>
<path class="st2" d="M1478.4,379.7c0-0.4,0.3-0.8,0.8-0.8h15.6c0.4,0,0.8,0.4,0.8,0.8s-0.3,0.8-0.8,0.8h-15.6
	C1478.8,380.4,1478.4,380.1,1478.4,379.7z"/>
<path class="st2" d="M1500.9,340.3l-5.5,6.2l-1.2-1l5.5-6.2L1500.9,340.3z"/>
<circle class="st1" cx="1501.1" cy="338.2" r="3.9"/>
<path class="st3" d="M1569.7,459.5c2.7,0,4.8,0.5,6.2,1.7c1.4,1.2,2.2,2.9,2.2,5.2c0,2.4-0.7,4.3-2,5.6c-1.3,1.3-3.3,1.9-5.9,1.9
	h-13.4v-3.7h3.7V453h-3.7v-3.7h18.6l1.7,6.3l-3.7,1l-1-3.6h-7.6v6.6L1569.7,459.5z M1569.2,470.3c1.4,0,2.5-0.3,3.2-0.9
	c0.8-0.6,1.1-1.6,1.1-2.8c0-1.2-0.3-2-1.1-2.6c-0.7-0.6-1.7-0.8-3-0.8l-4.8,0.1v6.9L1569.2,470.3L1569.2,470.3z M1579.5,474v-3.7
	h4.1l6.6-17.3h-3.8v-3.7h9l7.7,21h3.9v3.7h-10.6v-3.7h2.4l-1.3-3.7h-8.7l-1.3,3.7h2.5v3.7H1579.5z M1589.9,463.4h6.4l-3.1-9.6
	L1589.9,463.4z M1620,449.3c3.1,0,5.5,0.7,7.2,2.1c1.7,1.3,2.5,3.3,2.5,5.9s-0.8,4.6-2.5,6s-4.1,2.1-7.2,2.1h-3.1v5h4.5v3.7H1609
	v-3.7h3.7V453h-3.7v-3.7H1620z M1619.9,461.8c3.5,0,5.2-1.5,5.2-4.5c0-2.9-1.8-4.3-5.2-4.3h-3v8.8H1619.9z"/>
<path class="st3" d="M1325.7,609.3h10.6v3.7h-2.5v6.6h11.2V613h-2.5v-3.7h10.5v3.7h-3.7l-0.1,17.3h3.7v3.7h-10.4v-3.7h2.5v-7h-11.2
	v7h2.5v3.7h-10.5v-3.7h3.7V613h-3.7L1325.7,609.3L1325.7,609.3z M1354.9,634v-3.7h4.1l6.6-17.3h-3.8v-3.7h9l7.7,21h3.9v3.7h-10.6
	v-3.7h2.4l-1.3-3.7h-8.7l-1.3,3.7h2.5v3.7H1354.9z M1365.3,623.4h6.4l-3.1-9.6L1365.3,623.4z M1399.7,613c-0.1-0.1-0.4-0.2-0.9-0.3
	c-0.4-0.1-1-0.3-1.6-0.4c-0.6-0.1-1.3-0.2-2-0.2c-2.6,0-4.5,0.8-5.9,2.5c-1.3,1.7-2,4-2,7s0.7,5.4,2.1,7.1c1.4,1.7,3.3,2.5,5.8,2.5
	c0.7,0,1.4-0.1,2-0.2c0.6-0.1,1.2-0.3,1.6-0.4c0.5-0.2,0.8-0.3,0.9-0.3l0.9-3.5l3.6,0.8l-1.2,5.5c0,0-0.3,0.1-1,0.4
	c-0.6,0.3-1.6,0.6-2.8,0.8c-1.2,0.3-2.5,0.5-4.1,0.5c-2.5,0-4.6-0.5-6.5-1.5c-1.8-1-3.3-2.5-4.3-4.5s-1.5-4.4-1.6-7.2
	c0-2.7,0.5-5.1,1.5-7s2.4-3.5,4.3-4.5c1.9-1.1,4.1-1.6,6.6-1.6c1.8,0,3.3,0.2,4.5,0.5s2.1,0.7,2.6,1c0.6,0.3,0.9,0.5,0.9,0.5
	l1.1,5.5l-3.7,0.8L1399.7,613z M1407.4,609.3h22.1v7.8h-3.9V613h-5v17.3h3.7v3.7h-11.8v-3.7h3.7V613h-5v4.1h-3.9v-7.8H1407.4z
	 M1443.8,608.5c2.4,0,4.5,0.5,6.3,1.6c1.8,1,3.2,2.5,4.2,4.5c1,1.9,1.5,4.3,1.5,7s-0.5,5.1-1.5,7c-1,2-2.4,3.5-4.2,4.5
	c-1.8,1.1-3.9,1.6-6.3,1.6s-4.4-0.5-6.3-1.6c-1.8-1.1-3.2-2.6-4.2-4.5c-1-2-1.5-4.3-1.5-7s0.5-5.1,1.5-7c1-2,2.4-3.5,4.2-4.5
	C1439.3,609,1441.4,608.5,1443.8,608.5z M1443.8,612.2c-2.4,0-4.2,0.8-5.5,2.5c-1.3,1.6-1.9,3.9-1.9,7s0.6,5.4,1.9,7.1
	c1.3,1.6,3.1,2.4,5.5,2.4s4.3-0.8,5.5-2.4c1.3-1.7,1.9-4,1.9-7.1c0-3-0.7-5.3-1.9-7S1446.2,612.2,1443.8,612.2z M1459,634.6
	c-0.2,0-0.4,0-0.6,0s-0.5,0-0.9,0v-4c1.6,0,2.8-0.3,3.6-0.8c0.8-0.6,1.4-1.5,1.8-2.7c0.4-1.3,0.6-2.9,0.8-5l0.7-9.1h-3.7v-3.7h22.5
	v3.7h-4v17.3h4v3.7h-11.3v-3.7h3V613h-6.7l-0.8,10.2c-0.1,2.2-0.5,4.2-1,5.9s-1.4,3.1-2.5,4.1C1462.5,634.1,1461,634.6,1459,634.6z
	 M1499.2,618.3c2,0,3.7,0.3,5,0.8s2.3,1.4,2.9,2.5c0.7,1.1,1,2.6,1,4.4c0,1.7-0.3,3.1-1,4.3s-1.6,2.1-2.9,2.7c-1.2,0.6-2.7,1-4.5,1
	h-12.6v-3.7h3.7V613h-3.6v-3.7h10.4v3.7h-2.6v5.3H1499.2z M1498.8,630.3c0.6,0,1.2-0.1,1.7-0.2c0.6-0.1,1.1-0.3,1.6-0.6
	s0.8-0.7,1.1-1.3c0.3-0.6,0.4-1.3,0.4-2.2c0-1.1-0.2-1.9-0.6-2.5s-0.9-0.9-1.6-1.1c-0.7-0.2-1.6-0.3-2.6-0.3h-3.9v8.2L1498.8,630.3
	L1498.8,630.3z M1510.9,609.3h10.6v3.7h-2.5v6.6h11.2V613h-2.5v-3.7h10.5v3.7h-3.7l-0.1,17.3h3.7v3.7h-10.5v-3.7h2.5v-7h-11.2v7h2.5
	v3.7h-10.5v-3.7h3.7V613h-3.7V609.3z M1541.8,634v-3.7h3.6V613h-3.6v-3.7h10.4v3.7h-2.6v5.3h4.3c2,0,3.6,0.3,5,0.8
	c1.3,0.5,2.3,1.4,2.9,2.5s1,2.6,1,4.4c0,1.7-0.3,3.1-1,4.3s-1.6,2.1-2.9,2.7s-2.8,1-4.5,1H1541.8z M1549.7,630.3h3.9
	c0.6,0,1.2-0.1,1.7-0.2c0.6-0.1,1.1-0.3,1.6-0.6s0.8-0.7,1.1-1.3c0.3-0.6,0.4-1.3,0.4-2.2c0-1.1-0.2-1.9-0.6-2.5s-0.9-0.9-1.6-1.1
	c-0.7-0.2-1.5-0.3-2.5-0.3h-4V630.3z M1564.6,634v-3.7h2.5l0.1-17.3h-2.6v-3.7h10.5v3.7h-3.7v17.3h3.7v3.7H1564.6z M1578.8,609.3
	h18.9l2.4,7.1l-3.5,1.2l-1.6-4.5h-8.1v6.5h7.4v3.7h-7.4v7.1h9.1l1.6-4.3l3.5,1.2l-2.3,6.8h-19.9v-3.7h3.7l0.1-17.3h-3.7v-3.8H1578.8
	z M1614.2,609.3h10.5v3.7h-2.5v15.5l12.1-19.2h8v3.7h-3.8v17.3h3.7v3.7h-10.4v-3.7h2.5V615l-12.1,19.1h-8v-3.7h3.7V613h-3.7
	L1614.2,609.3L1614.2,609.3z M1646,609.3h18.1l1.8,6.9l-3.6,1l-1.2-4.2h-6.9v17.3h4.6v3.7h-12.9v-3.7h4V613h-4L1646,609.3
	L1646,609.3z M1679.1,609.3c3.1,0,5.5,0.7,7.2,2.1c1.7,1.3,2.5,3.3,2.5,5.9c0,2.6-0.8,4.6-2.5,6s-4.1,2.1-7.2,2.1h-3.1v5h4.5v3.7
	H1668v-3.7h3.7V613h-3.7v-3.7H1679.1z M1679.1,621.8c3.5,0,5.2-1.5,5.2-4.5c0-2.9-1.8-4.3-5.2-4.3h-3v8.8H1679.1z M1691.3,634v-3.7
	h3.7V613h-3.6v-3.7h10.4v3.7h-2.6v5.3h4.3c2,0,3.6,0.3,5,0.8c1.3,0.5,2.3,1.4,2.9,2.5s1,2.6,1,4.4c0,1.7-0.3,3.1-1,4.3
	s-1.6,2.1-2.9,2.7s-2.8,1-4.5,1H1691.3z M1699.2,630.3h3.9c0.6,0,1.2-0.1,1.7-0.2c0.6-0.1,1.1-0.3,1.6-0.6s0.8-0.7,1.1-1.3
	c0.3-0.6,0.4-1.3,0.4-2.2c0-1.1-0.2-1.9-0.5-2.5c-0.4-0.6-0.9-0.9-1.6-1.1c-0.7-0.2-1.5-0.3-2.5-0.3h-4L1699.2,630.3L1699.2,630.3z
	 M1714.1,634v-3.7h2.5V613h-2.6v-3.7h10.5v3.7h-3.7v17.3h3.7v3.7H1714.1z"/>
<path class="st1" d="M1294,609.7c-4.6-0.3-9.2,0.9-13.1,3.4c-0.9-1.1-1.9-2.1-2.9-3.2l-0.8-0.7l0.4-0.3c1.3-1.1,2.2-2.6,2.6-4.2
	c0.4-1.6,0.3-3.4-0.3-4.9c-0.9-1.8-2.2-3.3-3.9-4.3c-1.7-1-3.6-1.6-5.6-1.5v5.2c0.9,0,1.8,0.2,2.7,0.7c0.8,0.5,1.5,1.1,2,1.9
	c0.4,1,0,2.2-1.2,3.4l-0.6,0.5c-2.7-2.3-5.7-4.2-8.9-5.8c-6.6-3-10-1.6-11.7,0c-0.5,0.5-0.9,1.1-1.2,1.8l-0.5,1.4l-3.8,11.4
	c3,7.4,10.2,20.7,25.9,26.4l13.1-4.3c0.4-0.2,0.8-0.4,1.1-0.8l0.5-0.5c3.7-3.8,1.3-11-3.7-18.1c3-1.7,6.4-2.6,9.9-2.3V609.7z
	 M1284.1,631.6h-0.2c-1.8,1-9.3-1.5-17.8-10c-0.9-0.9-1.7-1.8-2.5-2.6c-0.3-0.3-0.5-0.6-0.8-0.9l-1.4-1.7l-0.7-1
	c-0.4-0.5-0.7-1-1.1-1.5c-0.3-0.5-0.4-0.7-0.6-1s-0.6-0.9-0.8-1.3c-0.2-0.4-0.3-0.6-0.5-1c-0.2-0.3-0.5-0.7-0.6-1.1
	c-0.2-0.4-0.2-0.6-0.4-0.9c-0.1-0.3-0.3-0.7-0.4-1s-0.1-0.5-0.2-0.8c0-0.3-0.2-0.6-0.2-0.9c0-0.2,0-0.4,0-0.6c0-0.2,0-0.5,0-0.7
	l0.3-0.8c0.4-0.5,2.4-0.6,5.8,1c2.3,1.1,4.5,2.5,6.5,4c-1.1,0.5-2.3,0.8-3.5,0.9v5.2c2.8-0.2,5.5-1,7.9-2.5l1.3,1.2
	c1.2,1.1,2.2,2.3,3.1,3.3c-1.6,2.7-2.2,5.8-1.8,8.9l5.2-1c-0.2-1-0.2-2,0-3C1284.3,627.1,1284.9,630.8,1284.1,631.6z M1245.3,620.2
	l-5.8,17.5c-0.4,1.3-0.5,2.7-0.3,4s0.7,2.6,1.5,3.7c0.8,1.1,1.8,2,3.1,2.6c1.2,0.6,2.5,0.9,3.9,0.9c0.9,0,1.8-0.2,2.6-0.4l17.1-5.7
	C1257.6,638,1249.9,630,1245.3,620.2z"/>
<polygon class="st0" points="358,620 358,700 10,700 10,501 358,501 358,580 368,580 368,491 0,491 0,710 368,710 368,620 "/>
<polygon class="st0" points="335,280 335,430 553,430 553,420 345,420 345,290 625,290 625,420 593,420 593,430 635,430 635,280 "/>
<polygon class="st0" points="735,491 735,501 970,501 970,700 472,700 472,501 695,501 695,491 462,491 462,710 980,710 980,491 "/>
<polygon class="st0" points="0,280 0,710 1045,710 1045,700 10,700 10,290 1810,290 1810,700 1105,700 1105,710 1820,710 1820,280 
	"/>
<path class="st1" d="M1087,362.8c2.5,0,4.5-2,4.5-4.5v-6.7c0-2.5-2-4.5-4.5-4.5c-0.1,0-0.2,0-0.2,0c-1.2,0.1-2.2,0.6-3,1.4
	s-1.2,1.9-1.2,3.1v6.7C1082.5,360.8,1084.5,362.8,1087,362.8z"/>
<path class="st1" d="M1085.9,367.2v2.3h2.2v-2.3c4.4-0.6,7.9-4.3,7.9-8.9h-2.2c0,3.7-3,6.8-6.8,6.8s-6.8-3-6.8-6.8h-2.2
	C1078,362.9,1081.4,366.6,1085.9,367.2z"/>
<path class="st1" d="M853,362.8c2.5,0,4.5-2,4.5-4.5v-6.7c0-2.5-2-4.5-4.5-4.5c-0.1,0-0.2,0-0.2,0c-1.2,0.1-2.2,0.6-3,1.4
	s-1.2,1.9-1.2,3.1v6.7C848.5,360.8,850.5,362.8,853,362.8z"/>
<path class="st1" d="M851.9,367.2v2.3h2.2v-2.3c4.4-0.6,7.9-4.3,7.9-8.9h-2.2c0,3.7-3,6.8-6.8,6.8s-6.8-3-6.8-6.8H844
	C844,362.9,847.4,366.6,851.9,367.2z"/>
<path class="st1" d="M283.7,516.6c0.7-0.7,1.9-0.7,2.6,0l3.8,3.7c0.2,0.2,0.3,0.4,0.4,0.7l1.2,3.2l6.1,6.1c3.5-2.3,7.8-2.4,10.2,0.1
	c0.9,0.9,1.4,1.9,1.7,3.1c0.3,1.3,1.5,2.4,2.8,2.5c2,0.1,3.9,0.8,5.3,2.2c3.5,3.5,2.8,9.8-1.5,14.1s-10.6,5-14.1,1.5
	c-1.4-1.4-2.1-3.3-2.2-5.3c-0.1-1.3-1.2-2.5-2.5-2.8c-1.2-0.3-2.2-0.8-3.1-1.7c-2.5-2.5-2.4-6.7-0.1-10.2l-6.1-6.1l-3.2-1.2
	c-0.2-0.1-0.5-0.2-0.7-0.4l-3.8-3.7c-0.7-0.7-0.7-1.9,0-2.6L283.7,516.6z M303.7,536c-1,0-1.9,0.4-2.7,1.1c-0.7,0.7-1.1,1.7-1.1,2.7
	s0.4,1.9,1.1,2.7c0.7,0.7,1.7,1.1,2.7,1.1s1.9-0.4,2.7-1.1c0.7-0.7,1.1-1.7,1.1-2.7s-0.4-1.9-1.1-2.7
	C305.7,536.4,304.7,536,303.7,536z"/>
<path class="st1" d="M316.3,645.6c-0.7-0.7-1.9-0.7-2.6,0l-3.8,3.7c-0.2,0.2-0.3,0.4-0.4,0.7l-1.2,3.2l-6.1,6.1
	c-3.5-2.3-7.8-2.4-10.2,0.1c-0.9,0.9-1.4,1.9-1.7,3.1c-0.3,1.3-1.5,2.4-2.8,2.5c-2,0.1-3.9,0.8-5.3,2.2c-3.5,3.5-2.8,9.8,1.5,14.1
	s10.6,5,14.1,1.5c1.4-1.4,2.1-3.3,2.2-5.3c0.1-1.3,1.2-2.5,2.5-2.8c1.2-0.3,2.2-0.8,3.1-1.7c2.5-2.5,2.4-6.7,0.1-10.2l6.1-6.1
	l3.2-1.2c0.2-0.1,0.5-0.2,0.7-0.4l3.8-3.7c0.7-0.7,0.7-1.9,0-2.6L316.3,645.6z M296.3,665c1,0,1.9,0.4,2.7,1.1
	c0.7,0.7,1.1,1.7,1.1,2.7s-0.4,1.9-1.1,2.7c-0.7,0.7-1.7,1.1-2.7,1.1s-1.9-0.4-2.7-1.1c-0.7-0.7-1.1-1.7-1.1-2.7s0.4-1.9,1.1-2.7
	C294.3,665.4,295.3,665,296.3,665z"/>
</svg>
