<svg width="119" class="iconPrimary" height="119" viewBox="0 0 119 119" fill="none" xmlns="http://www.w3.org/2000/svg">
<path d="M66.8735 22H52.1266C51.6516 22.0002 51.1828 21.8921 50.7559 21.6839C50.329 21.4757 49.9551 21.173 49.6627 20.7986C49.3703 20.4243 49.1671 19.9883 49.0685 19.5236C48.97 19.059 48.9786 18.578 49.0938 18.1172L49.5797 16.175C49.8334 15.1608 50.4189 14.2605 51.243 13.6173C52.0672 12.974 53.0827 12.6248 54.1281 12.625H64.8719C65.9173 12.6248 66.9329 12.974 67.757 13.6173C68.5812 14.2605 69.1666 15.1608 69.4203 16.175L69.9063 18.1172C70.0215 18.578 70.0301 19.059 69.9315 19.5236C69.8329 19.9883 69.6297 20.4243 69.3373 20.7986C69.0449 21.173 68.6711 21.4757 68.2441 21.6839C67.8172 21.8921 67.3484 22.0002 66.8735 22ZM54.1281 15.75C53.7793 15.7497 53.4405 15.8662 53.1655 16.0808C52.8906 16.2955 52.6954 16.5959 52.611 16.9344L52.1266 18.875H66.8781L66.3891 16.9344C66.3047 16.5959 66.1094 16.2955 65.8345 16.0808C65.5596 15.8662 65.2207 15.7497 64.8719 15.75H54.1281Z" fill="#EFEFEF"/>
<path d="M70.0922 51.4375C70.3385 49.4472 70.4538 47.4429 70.4375 45.4375C70.4375 40.6344 67.4047 26.9297 67.275 26.3484C67.1979 26.0015 67.0047 25.6912 66.7275 25.4687C66.4502 25.2463 66.1054 25.1251 65.75 25.125H53.25C52.8946 25.1251 52.5498 25.2463 52.2725 25.4687C51.9953 25.6912 51.8021 26.0015 51.725 26.3484C51.5953 26.9297 48.5625 40.6344 48.5625 45.4375C48.5462 47.4429 48.6615 49.4472 48.9078 51.4375C46.475 52.5651 44.4148 54.3641 42.9696 56.6229C41.5244 58.8816 40.7543 61.506 40.75 64.1875V98.5625C40.7525 100.634 41.5764 102.619 43.041 104.084C44.5056 105.549 46.4913 106.373 48.5625 106.375H70.4375C72.5087 106.373 74.4944 105.549 75.959 104.084C77.4236 102.619 78.2475 100.634 78.25 98.5625V64.1875C78.2457 61.506 77.4756 58.8816 76.0304 56.6229C74.5852 54.3641 72.525 52.5651 70.0922 51.4375ZM59.5 87.625C57.3368 87.625 55.2221 86.9835 53.4234 85.7817C51.6248 84.5799 50.2229 82.8717 49.3951 80.8731C48.5672 78.8745 48.3506 76.6754 48.7727 74.5537C49.1947 72.432 50.2364 70.4832 51.766 68.9535C53.2957 67.4239 55.2445 66.3822 57.3662 65.9602C59.4879 65.5381 61.687 65.7547 63.6856 66.5826C65.6842 67.4104 67.3924 68.8123 68.5942 70.611C69.796 72.4096 70.4375 74.5243 70.4375 76.6875C70.4375 79.5883 69.2852 82.3703 67.234 84.4215C65.1828 86.4727 62.4008 87.625 59.5 87.625Z" fill="currentColor"/>
<path d="M59.5 89.1875C57.0277 89.1875 54.611 88.4544 52.5554 87.0809C50.4998 85.7074 48.8976 83.7551 47.9515 81.4711C47.0054 79.187 46.7579 76.6736 47.2402 74.2489C47.7225 71.8241 48.913 69.5968 50.6612 67.8487C52.4093 66.1005 54.6366 64.91 57.0614 64.4277C59.4861 63.9454 61.9995 64.1929 64.2836 65.139C66.5676 66.0851 68.5199 67.6873 69.8934 69.7429C71.2669 71.7985 72 74.2152 72 76.6875C71.9963 80.0016 70.6781 83.1788 68.3347 85.5222C65.9913 87.8656 62.8141 89.1838 59.5 89.1875ZM59.5 67.3125C57.6458 67.3125 55.8332 67.8623 54.2915 68.8925C52.7498 69.9226 51.5482 71.3868 50.8386 73.0998C50.1291 74.8129 49.9434 76.6979 50.3051 78.5165C50.6669 80.3351 51.5598 82.0055 52.8709 83.3166C54.182 84.6278 55.8525 85.5206 57.671 85.8824C59.4896 86.2441 61.3746 86.0585 63.0877 85.3489C64.8007 84.6393 66.2649 83.4377 67.295 81.896C68.3252 80.3543 68.875 78.5417 68.875 76.6875C68.8725 74.2019 67.884 71.8187 66.1264 70.0611C64.3688 68.3035 61.9857 67.315 59.5 67.3125Z" fill="#EFEFEF"/>
</svg>
