<svg xmlns="http://www.w3.org/2000/svg" width="119" height="119" fill="none" class="iconPrimary" viewBox="0 0 119 119">
    <path fill="#EFEFEF" d="M66.874 22H52.127a3.124 3.124 0 0 1-3.033-3.883l.486-1.942a4.688 4.688 0 0 1 4.548-3.55h10.744a4.687 4.687 0 0 1 4.548 3.55l.486 1.942A3.124 3.124 0 0 1 66.874 22Zm-12.746-6.25a1.562 1.562 0 0 0-1.517 1.184l-.484 1.941h14.751l-.489-1.94a1.563 1.563 0 0 0-1.517-1.185H54.128Z"/>
    <path fill="currentColor" d="M70.092 51.438c.246-1.99.362-3.995.346-6 0-4.804-3.033-18.508-3.163-19.09a1.563 1.563 0 0 0-1.525-1.223h-12.5a1.563 1.563 0 0 0-1.525 1.223c-.13.582-3.163 14.286-3.163 19.09-.016 2.005.1 4.01.346 6a14.078 14.078 0 0 0-8.158 12.75v34.374a7.822 7.822 0 0 0 7.813 7.813h21.874a7.818 7.818 0 0 0 7.813-7.813V64.189a14.077 14.077 0 0 0-8.158-12.75ZM59.5 87.624a10.938 10.938 0 1 1 0-21.876 10.938 10.938 0 0 1 0 21.876Z"/>
    <path fill="#EFEFEF" d="M59.5 89.188a12.5 12.5 0 1 1 12.5-12.5 12.514 12.514 0 0 1-12.5 12.5Zm0-21.876a9.375 9.375 0 1 0 9.375 9.376 9.385 9.385 0 0 0-9.375-9.376Z"/>
</svg>
