<svg width="24" height="24" viewBox="0 0 24 24" fill="none" xmlns="http://www.w3.org/2000/svg">
<path d="M5 10H2V20H5V10Z" fill="currentColor"/>
<path d="M19 9H14V4C14 3.73478 13.8946 3.48043 13.7071 3.29289C13.5196 3.10536 13.2652 3 13 3H12L7.66473 8.37579C7.2346 8.9092 7.00002 9.57377 7 10.259V18C7 18.5304 7.21071 19.0391 7.58579 19.4142C7.96086 19.7893 8.46957 20 9 20H15.4348C15.9947 20 16.5434 19.8433 17.0188 19.5477C17.4943 19.2521 17.8775 18.8294 18.1252 18.3273L21 12.5V11C21 10.4696 20.7893 9.96086 20.4142 9.58579C20.0391 9.21071 19.5304 9 19 9Z" fill="currentColor"/>
</svg>
