<svg width="10" height="12" viewBox="0 0 10 12" fill="none" xmlns="http://www.w3.org/2000/svg">
<path d="M9.61553 4.68472C9.61553 2.1358 7.54923 0.0693359 5.00015 0.0693359C2.45123 0.0693359 0.384766 2.1358 0.384766 4.68472C0.384766 5.77487 0.763843 6.77641 1.39584 7.56611L1.396 7.56672C1.396 7.56672 1.39569 7.56703 1.39538 7.56703C2.58707 9.05534 4.27123 11.1589 4.81984 11.844C4.86369 11.8986 4.93 11.9304 5 11.9306C5.07015 11.9306 5.13661 11.8989 5.1803 11.8441C5.72861 11.1592 7.4123 9.05657 8.604 7.56811L8.60415 7.56749C8.60415 7.56749 8.60384 7.56718 8.60354 7.56718C9.23615 6.77718 9.61553 5.77564 9.61553 4.68472ZM7.85661 7.02457L5.00015 10.5924L2.17138 7.05949L2.14246 7.02349C2.134 7.01195 2.12538 7.00057 2.11646 6.98934C1.58738 6.32826 1.30784 5.53134 1.30784 4.68472C1.30784 2.64872 2.9643 0.992413 5.00015 0.992413C7.036 0.992413 8.69246 2.64872 8.69246 4.68472C8.69246 5.5318 8.41261 6.32903 7.88292 6.99026C7.874 7.00149 7.86523 7.01287 7.85661 7.02457Z" fill="#F2C247"/>
</svg>
