<svg width="20" height="30" viewBox="0 0 20 30" fill="none" xmlns="http://www.w3.org/2000/svg">
<g clip-path="url(#clip0_3279_24168)">
<path fill-rule="evenodd" clip-rule="evenodd" d="M18.9521 14.2405C20.3126 11.205 20.0428 7.68734 18.2344 4.89463C16.4271 2.10192 13.3271 0.416504 10.0001 0.416504C9.99902 0.416504 9.99902 0.416504 9.99798 0.416504C6.67089 0.416504 3.57089 2.10296 1.76256 4.89463C-0.0457755 7.68734 -0.314526 11.2061 1.04589 14.2415C3.21672 19.0811 5.56152 24.3092 7.14798 27.8478C7.65214 28.9707 8.76881 29.6936 10.0001 29.6936C11.2313 29.6936 12.348 28.9707 12.8511 27.8467C14.4376 24.3082 16.7824 19.08 18.9521 14.2405ZM9.99589 4.58838C7.11985 4.58838 4.78548 6.92067 4.78548 9.79359C4.78548 12.6655 7.11985 14.9978 9.99589 14.9978C12.8719 14.9978 15.2063 12.6655 15.2063 9.79359C15.2063 6.92067 12.8719 4.58838 9.99589 4.58838Z" fill="currentColor"/>
</g>
<defs>
<clipPath id="clip0_3279_24168">
<rect width="20" height="30" fill="white"/>
</clipPath>
</defs>
</svg>
