<svg xmlns="http://www.w3.org/2000/svg" width="20" height="30" fill="none" viewBox="0 0 20 30">
    <g clip-path="url(#a)">
        <path fill="currentColor" fill-rule="evenodd" d="M18.952 14.24A9.81 9.81 0 0 0 10 .418h-.002A9.813 9.813 0 0 0 1.046 14.24l6.102 13.607a3.127 3.127 0 0 0 5.703-.001l6.101-13.607ZM9.996 4.589a5.21 5.21 0 0 0-5.21 5.206 5.21 5.21 0 0 0 5.21 5.204 5.21 5.21 0 0 0 5.21-5.204 5.21 5.21 0 0 0-5.21-5.206Z" clip-rule="evenodd"/>
    </g>
    <defs>
        <clipPath id="a">
            <path fill="#fff" d="M0 0h20v30H0z"/>
        </clipPath>
    </defs>
</svg>
