<svg xmlns="http://www.w3.org/2000/svg" width="271" height="65" fill="none" viewBox="0 0 271 65"><g clip-path="url(#a)"><path fill="#fff" d="M92.327 29.332c-.586-4.878-4.279-7.681-9.167-7.681-5.576 0-9.836 3.94-9.836 10.847 0 6.887 4.187 10.851 9.836 10.851 5.416 0 8.683-3.601 9.167-7.488l-4.516-.019c-.42 2.255-2.197 3.558-4.579 3.558-3.204 0-5.382-2.387-5.382-6.903 0-4.395 2.144-6.897 5.416-6.897 2.444 0 4.206 1.413 4.545 3.732h4.516Zm3.21 13.727h14.273v-3.684h-9.806v-5.043h9.032v-3.678h-9.032v-5.035h9.767v-3.683H95.536V43.06Zm35.454-21.122h-4.443v13.286h-.189l-9.115-13.287h-3.92V43.06h4.468V29.768h.155l9.187 13.29h3.858V21.937h-.001Zm2.88 3.683h6.467v17.439h4.414v-17.44h6.467v-3.683h-17.348v3.684Zm20.213 17.439h14.274v-3.684h-9.806v-5.043h9.032v-3.678h-9.032v-5.035h9.767v-3.683h-14.235V43.06Zm17.788 0h4.468V35.57h3.257l4.003 7.488h4.927l-4.487-8.21c2.406-1.03 3.737-3.126 3.737-6.01 0-4.197-2.773-6.902-7.57-6.902h-8.335v21.122Zm4.468-11.074V25.59h3.01c2.58 0 3.829 1.142 3.829 3.248 0 2.09-1.249 3.146-3.81 3.146h-3.029Zm17.081 11.34c1.316 0 2.464-1.104 2.474-2.473-.01-1.35-1.158-2.454-2.474-2.454-1.36 0-2.488 1.103-2.478 2.454-.01 1.37 1.118 2.473 2.478 2.473Zm6.157-.266h9.027c4.743 0 7.27-2.474 7.27-5.837 0-3.127-2.241-5.015-4.642-5.126v-.208c2.198-.494 3.814-2.052 3.814-4.536 0-3.165-2.347-5.416-7.013-5.416h-8.456V43.06Zm4.468-3.65V33.8h3.741c2.144 0 3.475 1.235 3.475 2.977 0 1.592-1.079 2.633-3.577 2.633h-3.639Zm0-8.635v-5.227h3.393c1.979 0 3.102 1.021 3.102 2.546 0 1.674-1.36 2.681-3.185 2.681h-3.31Zm14.724 12.284h14.273v-3.683h-9.806v-5.043h9.032v-3.679h-9.032V25.62h9.768v-3.683H218.77v21.122Zm17.787 0h14.275v-3.683h-9.807v-5.043h9.032v-3.679h-9.032V25.62h9.768v-3.683h-14.235v21.122h-.001Zm17.789 0h4.467V35.57h3.258l4.003 7.488h4.927l-4.487-8.209c2.406-1.03 3.737-3.126 3.737-6.01 0-4.197-2.774-6.903-7.57-6.903h-8.335v21.122Zm4.467-11.074V25.59h3.011c2.58 0 3.828 1.143 3.828 3.248 0 2.091-1.248 3.146-3.809 3.146h-3.03Z"/><path fill="#989898" fill-rule="evenodd" d="m22.362 47.86 16.882-9.745-6.356-3.669-10.526 6.075v7.34Zm-12.864.088-3.143 1.814v-34.39C15.2 20.477 24.042 25.584 32.886 30.69l6.468-3.733C28.102 20.459 16.849 13.967 5.599 7.467L.001 10.7 0 54.549l5.387 3.111 4.111-2.373v-7.34Z" clip-rule="evenodd"/><path fill="#F2C247" fill-rule="evenodd" d="m12.755 3.336-.001 4.506 6.355 3.67V7.8l29.967 17.3-12.935 7.466c4.239 2.447 8.475 4.895 12.712 7.34L19.108 57.077V26.492l-6.356-3.67v39.09L18.099 65l38.285-22.104v-6.109l-7.421-4.283 7.42-4.284v-6.368C43.977 14.683 31.09 7.249 18.535 0c-1.926 1.113-3.853 2.224-5.78 3.336Z" clip-rule="evenodd"/></g><defs><clipPath id="a"><path fill="#fff" d="M0 0h271v65H0z"/></clipPath></defs></svg>