<svg xmlns="http://www.w3.org/2000/svg" width="35" height="35" fill="none" viewBox="0 0 35 35"><rect width="35" height="35" fill="#272727" rx="17.5" transform="matrix(1 0 0 -1 0 35)"/><path fill="#EFEFEF" d="M9.584 12.312a.483.483 0 0 1-.307-.106.372.372 0 0 1-.139-.263 28.35 28.35 0 0 1-.044-1.584c0-.103.047-.203.13-.276a.48.48 0 0 1 .316-.114.48.48 0 0 1 .315.114c.084.073.13.173.13.276 0 .53.017 1.047.046 1.541a.362.362 0 0 1-.113.282.473.473 0 0 1-.334.13ZM22.197 12.312h-.025a.498.498 0 0 1-.169-.037.446.446 0 0 1-.139-.092.384.384 0 0 1-.089-.131.345.345 0 0 1-.024-.151c.03-.494.044-1.012.044-1.541 0-.104.047-.204.13-.277a.48.48 0 0 1 .316-.114.48.48 0 0 1 .316.114c.084.073.13.173.13.277 0 .543-.016 1.075-.047 1.584a.372.372 0 0 1-.138.26.481.481 0 0 1-.305.108Z"/><path fill="#F2C247" d="M22.685 13.72a.42.42 0 0 0-.42-.47h-1.498c-.02.145-.06.286-.118.42a.842.842 0 0 1-.868.41.823.823 0 0 1-.575-.41 1.589 1.589 0 0 1-.127-.42H9.984a.424.424 0 0 0-.419.47c.223 1.85.66 3.67 1.304 5.42.164 0 .31-.004.443-.013l.002.012h2.068a1.057 1.057 0 0 1 1.055 1.052 1.05 1.05 0 0 1-1.055 1.052 1.057 1.057 0 0 1 1.055 1.052 1.05 1.05 0 0 1-1.055 1.051 1.057 1.057 0 0 1 1.055 1.052 1.05 1.05 0 0 1-1.055 1.052h-.506a.908.908 0 0 0-.64 0h-.016v.004c-.142.04-.287.068-.434.084-.091.863-.235 1.72-.432 2.566a1.258 1.258 0 0 0 .68 1.426c.171.083.36.126.55.126h7.081a1.268 1.268 0 0 0 1.235-.986c.042-.186.041-.379-.003-.564a21.056 21.056 0 0 1-.552-4.76c0-1.273.389-2.373.839-3.646a.41.41 0 0 0 .021-.136 3.88 3.88 0 0 1-.419-.004h-2.129a1.268 1.268 0 0 1-1.266-1.262 1.26 1.26 0 0 1 1.266-1.262h2.948l.008-.03c.13.016.27.024.429.027.296-1.087.51-2.195.643-3.313Z"/><path fill="#EFEFEF" d="M10.456 8.094a.424.424 0 0 1-.396-.265.41.41 0 0 1 .007-.319c.198-.445.524-.824.94-1.09.414-.267.899-.41 1.394-.41.228 0 .453.032.672.093.202-.46.522-.861.928-1.164a3.025 3.025 0 0 1 2.89-.391c.475.183.894.484 1.216.873a2.578 2.578 0 0 1 2.896.49c.477.468.746 1.103.747 1.766 0 .11-.045.217-.125.295a.43.43 0 0 1-.6 0 .413.413 0 0 1-.125-.295c0-.305-.084-.604-.245-.865a1.683 1.683 0 0 0-.668-.614 1.724 1.724 0 0 0-1.76.116.43.43 0 0 1-.607-.125 2.106 2.106 0 0 0-.912-.81 2.158 2.158 0 0 0-2.33.336 2.073 2.073 0 0 0-.634 1.034.413.413 0 0 1-.234.276.432.432 0 0 1-.365-.004 1.724 1.724 0 0 0-1.907.28c-.167.153-.3.338-.393.543a.43.43 0 0 1-.39.25ZM22.297 10.438a.413.413 0 0 1-.276-.104.335.335 0 0 1-.115-.248.335.335 0 0 0-.114-.249.414.414 0 0 0-.276-.103h-.067a.344.344 0 0 0-.229.086.278.278 0 0 0-.095.206.335.335 0 0 1-.114.249.414.414 0 0 1-.277.103.414.414 0 0 1-.276-.103.335.335 0 0 1-.114-.249c0-.264.117-.516.324-.703.207-.186.488-.291.781-.292h.067c.31 0 .609.111.828.31.22.197.343.465.343.745a.335.335 0 0 1-.114.248.413.413 0 0 1-.276.104ZM15.969 11.844h-.093a1.806 1.806 0 0 1-1.17-.534 1.582 1.582 0 0 1-.456-1.142.323.323 0 0 0-.105-.235.37.37 0 0 0-.252-.098h-3.51a.445.445 0 0 0-.304.117.389.389 0 0 0-.126.285.389.389 0 0 1-.126.284.445.445 0 0 1-.304.117.445.445 0 0 1-.303-.117.389.389 0 0 1-.126-.284c0-.32.136-.627.377-.853.242-.226.57-.353.912-.353h3.51c.323 0 .632.12.86.334.228.213.356.502.356.803a.818.818 0 0 0 .224.585c.15.162.36.264.589.287a.914.914 0 0 0 .343-.048.87.87 0 0 0 .295-.171.806.806 0 0 0 .199-.266c.046-.1.07-.21.07-.318 0-.32.135-.627.377-.853.241-.226.57-.353.911-.353.342 0 .67.127.912.353.241.226.377.533.377.853a.389.389 0 0 1-.126.284.445.445 0 0 1-.303.117.445.445 0 0 1-.304-.117.389.389 0 0 1-.126-.284.389.389 0 0 0-.126-.284.445.445 0 0 0-.304-.118.445.445 0 0 0-.304.117.389.389 0 0 0-.125.285c-.001.218-.049.433-.14.633-.093.2-.227.381-.396.532a1.77 1.77 0 0 1-1.183.442ZM13.215 21.688h-2.149c-.399 0-.781-.149-1.063-.412a1.361 1.361 0 0 1-.44-.995c0-.373.158-.73.44-.994a1.558 1.558 0 0 1 1.063-.412h2.149c.399 0 .781.148 1.063.412.282.264.44.621.44.994s-.158.73-.44.995a1.559 1.559 0 0 1-1.063.412Zm-2.149-2.01a.668.668 0 0 0-.455.177.583.583 0 0 0-.19.426c0 .16.069.313.19.426.12.113.284.177.455.177h2.149a.668.668 0 0 0 .456-.177.583.583 0 0 0 .188-.426.583.583 0 0 0-.188-.426.668.668 0 0 0-.456-.176h-2.149Z"/><path fill="#EFEFEF" d="M13.215 23.563h-2.149c-.399 0-.781-.149-1.063-.412a1.361 1.361 0 0 1-.44-.995c0-.373.158-.73.44-.994a1.558 1.558 0 0 1 1.063-.412h2.149c.399 0 .781.148 1.063.412.282.264.44.621.44.994s-.158.73-.44.995a1.559 1.559 0 0 1-1.063.412Zm-2.149-2.01a.668.668 0 0 0-.455.177.583.583 0 0 0-.19.426c0 .16.069.313.19.426.12.113.284.177.455.177h2.149a.668.668 0 0 0 .456-.177.583.583 0 0 0 .188-.426.583.583 0 0 0-.188-.426.668.668 0 0 0-.456-.176h-2.149Z"/><path fill="#EFEFEF" d="M13.215 25.906h-2.149c-.399 0-.781-.148-1.063-.412a1.362 1.362 0 0 1-.44-.994c0-.373.158-.73.44-.994a1.558 1.558 0 0 1 1.063-.412h2.149c.399 0 .781.148 1.063.412.282.263.44.621.44.994s-.158.73-.44.994a1.559 1.559 0 0 1-1.063.412Zm-2.149-2.009a.668.668 0 0 0-.455.177.584.584 0 0 0-.19.426c0 .16.069.313.19.426.12.113.284.177.455.177h2.149a.668.668 0 0 0 .456-.177.584.584 0 0 0 .188-.426.584.584 0 0 0-.188-.426.668.668 0 0 0-.456-.177h-2.149ZM21.353 19.813h-3.029c-.459 0-.899-.173-1.223-.481a1.598 1.598 0 0 1-.507-1.16c0-.435.182-.852.507-1.16a1.78 1.78 0 0 1 1.224-.48h3.461c.115 0 .225.043.306.12a.4.4 0 0 1 .127.29.4.4 0 0 1-.127.29.445.445 0 0 1-.306.12h-3.462a.89.89 0 0 0-.611.24.8.8 0 0 0-.254.58.8.8 0 0 0 .254.58.89.89 0 0 0 .611.24h3.03c.114 0 .224.043.305.12a.4.4 0 0 1 .127.29.4.4 0 0 1-.127.29.445.445 0 0 1-.306.12Z"/><path fill="#EFEFEF" d="M26.94 18.875h-3.047a.462.462 0 0 1-.308-.114.371.371 0 0 1-.127-.277c0-.31-.138-.609-.383-.828a1.386 1.386 0 0 0-.923-.343h-.436a.462.462 0 0 1-.307-.115.372.372 0 0 1-.128-.276c0-.104.046-.203.128-.276a.462.462 0 0 1 .308-.115h.435c.501 0 .987.156 1.376.441.388.285.656.68.757 1.122h2.655c.115 0 .226.04.307.114a.371.371 0 0 1 .128.276.372.372 0 0 1-.128.277.462.462 0 0 1-.307.114ZM22.152 26.844h-.436a.42.42 0 0 1-.307-.138.488.488 0 0 1-.128-.331c0-.124.046-.244.128-.331a.42.42 0 0 1 .308-.138h.435c.346 0 .678-.148.923-.412.245-.263.383-.621.383-.994 0-.124.045-.244.127-.331a.42.42 0 0 1 .308-.138h3.047a.42.42 0 0 1 .307.138.488.488 0 0 1 .128.331.488.488 0 0 1-.128.331.42.42 0 0 1-.307.138h-2.655a2.384 2.384 0 0 1-.757 1.346 2.087 2.087 0 0 1-1.376.529ZM19.64 14.656c-.064 0-.128-.006-.192-.017a1.192 1.192 0 0 1-.707-.452 1.356 1.356 0 0 1-.272-.835V10.46c0-.112.041-.218.114-.297a.378.378 0 0 1 .276-.123c.104 0 .203.044.277.123a.436.436 0 0 1 .114.297v2.892a.478.478 0 0 0 .085.291.422.422 0 0 0 .237.168.364.364 0 0 0 .32-.092.418.418 0 0 0 .103-.144.447.447 0 0 0 .036-.178v-3.009c0-.11.041-.218.115-.296a.377.377 0 0 1 .276-.123c.104 0 .203.044.276.123a.436.436 0 0 1 .114.296v3.01c0 .333-.123.653-.343.89-.22.236-.518.368-.828.368Z"/></svg>