<svg xmlns="http://www.w3.org/2000/svg" width="26" height="27" fill="none" class="iconPrimary" viewBox="0 0 26 27">
    <path fill="currentColor" d="M24.688 8.938a11.07 11.07 0 0 0-2.797-4.378c-2.9-2.9-6.433-3.91-8.043-2.298L8.964 7.145a7.313 7.313 0 1 0 10.342 10.342l4.883-4.883c.802-.802.98-2.104.499-3.666Zm-4.233-.07c-.476.477-1.503.22-2.298-.574-.795-.793-1.05-1.822-.575-2.297.476-.476 1.503-.219 2.298.574.795.794 1.05 1.822.575 2.298Z"/>
    <path fill="#EFEFEF" d="M5.804 25.383a2.428 2.428 0 0 1-2.429-2.307 2.435 2.435 0 1 1 1.547-4.413l1.84-1.797a.405.405 0 0 1 .658.45.406.406 0 0 1-.09.13l-2.103 2.055a.406.406 0 0 1-.57-.003 1.666 1.666 0 0 0-2.299 0 1.62 1.62 0 0 0 1.385 2.75.406.406 0 0 1 .461.46 1.61 1.61 0 0 0 .452 1.386 1.666 1.666 0 0 0 2.298 0 1.625 1.625 0 0 0 0-2.298.406.406 0 0 1 .002-.577l2.103-2.056a.407.407 0 0 1 .569.582l-1.834 1.791a2.438 2.438 0 0 1-1.99 3.847Z"/>
    <path fill="currentColor" d="M21.938 13.361h-.02c-1.788-.087-3.947-1.229-5.773-3.055-1.803-1.803-2.944-3.94-3.052-5.718a.408.408 0 0 1 .813-.05C14 6.1 15.078 8.09 16.72 9.732c1.662 1.661 3.668 2.741 5.237 2.817a.406.406 0 1 1-.02.813v-.001Z" class="iconSecondary"/>
</svg>