<svg xmlns="http://www.w3.org/2000/svg" width="26" height="26" fill="none" viewBox="0 0 26 26">
    <path fill="#141414" d="M16.25 4.875c-.55 0-1.021.347-1.125.823l-.086.385c-.104.482-.58.823-1.131.823h-1.816c-.55 0-1.021-.341-1.131-.823l-.086-.385c-.104-.476-.575-.823-1.125-.823h6.5Z"/>
    <path fill="#F2C247" d="M18.688 6.697v12.606c0 1.004-.84 1.822-1.88 1.822H9.187c-1.042 0-1.874-.818-1.874-1.822V6.697c0-1.004.832-1.822 1.874-1.822h.648c.535 0 .993.371 1.095.882l.083.412c.107.517.565.882 1.1.882h1.768c.535 0 .999-.365 1.1-.882l.083-.412c.101-.51.56-.882 1.095-.882h.649c1.04 0 1.88.818 1.88 1.822Z"/>
    <path fill="#141414" d="M11.375 18.89c0 .561.49 1.016 1.094 1.016h1.062c.604 0 1.094-.454 1.094-1.015 0-.561-.49-1.016-1.094-1.016h-1.06c-.605 0-1.096.455-1.096 1.016Z"/>
    <path fill="#EFEFEF" d="M18.568 10.532a.532.532 0 0 0-.524.54v8.443c0 .74-.59 1.343-1.316 1.343H9.266c-.723 0-1.31-.602-1.31-1.343V6.486c0-.74.587-1.343 1.31-1.343h.627l.007.001c.272 0 .508.2.561.475l.082.427c.148.78.816 1.347 1.59 1.347h1.732c.772 0 1.44-.566 1.59-1.347l.08-.427a.579.579 0 0 1 .562-.476h.632c.726 0 1.316.602 1.316 1.343v1.842c0 .298.235.54.524.54.29 0 .525-.242.525-.54V6.486c0-1.337-1.061-2.423-2.366-2.423H9.266c-1.3 0-2.36 1.087-2.36 2.423v13.028c0 1.337 1.059 2.424 2.36 2.424h7.462c1.304 0 2.365-1.088 2.365-2.424v-8.442a.533.533 0 0 0-.525-.54Zm-4.062-5.12-.082.427a.577.577 0 0 1-.56.475h-1.732a.577.577 0 0 1-.561-.475l-.082-.427a1.653 1.653 0 0 0-.075-.27h3.168a1.772 1.772 0 0 0-.076.27Z"/>
</svg>