<svg width="263" height="263" viewBox="0 0 263 263" fill="none" xmlns="http://www.w3.org/2000/svg">
<path d="M81.6193 0H72.3096V9.30975H81.6193V0Z" fill="white"/>
<path d="M90.6574 0H81.3477V9.30975H90.6574V0Z" fill="white"/>
<path d="M108.734 0H99.4238V9.30975H108.734V0Z" fill="white"/>
<path d="M117.774 0H108.464V9.30975H117.774V0Z" fill="white"/>
<path d="M135.85 0H126.541V9.30975H135.85V0Z" fill="white"/>
<path d="M153.928 0H144.619V9.30975H153.928V0Z" fill="white"/>
<path d="M162.965 0H153.655V9.30975H162.965V0Z" fill="white"/>
<path d="M172.005 0H162.695V9.30975H172.005V0Z" fill="white"/>
<path d="M190.083 0H180.773V9.30975H190.083V0Z" fill="white"/>
<path d="M81.6193 9.03857H72.3096V18.3483H81.6193V9.03857Z" fill="white"/>
<path d="M108.734 9.03857H99.4238V18.3483H108.734V9.03857Z" fill="white"/>
<path d="M126.81 9.03857H117.5V18.3483H126.81V9.03857Z" fill="white"/>
<path d="M144.888 9.03857H135.578V18.3483H144.888V9.03857Z" fill="white"/>
<path d="M162.965 9.03857H153.655V18.3483H162.965V9.03857Z" fill="white"/>
<path d="M181.043 9.03857H171.733V18.3483H181.043V9.03857Z" fill="white"/>
<path d="M81.6193 18.0771H72.3096V27.3869H81.6193V18.0771Z" fill="white"/>
<path d="M90.6574 18.0771H81.3477V27.3869H90.6574V18.0771Z" fill="white"/>
<path d="M108.734 18.0771H99.4238V27.3869H108.734V18.0771Z" fill="white"/>
<path d="M135.85 18.0771H126.541V27.3869H135.85V18.0771Z" fill="white"/>
<path d="M144.888 18.0771H135.578V27.3869H144.888V18.0771Z" fill="white"/>
<path d="M172.005 18.0771H162.695V27.3869H172.005V18.0771Z" fill="white"/>
<path d="M181.043 18.0771H171.733V27.3869H181.043V18.0771Z" fill="white"/>
<path d="M190.083 18.0771H180.773V27.3869H190.083V18.0771Z" fill="white"/>
<path d="M90.6574 27.1162H81.3477V36.426H90.6574V27.1162Z" fill="white"/>
<path d="M117.774 27.1162H108.464V36.426H117.774V27.1162Z" fill="white"/>
<path d="M135.85 27.1162H126.541V36.426H135.85V27.1162Z" fill="white"/>
<path d="M153.928 27.1162H144.619V36.426H153.928V27.1162Z" fill="white"/>
<path d="M162.965 27.1162H153.655V36.426H162.965V27.1162Z" fill="white"/>
<path d="M181.043 27.1162H171.733V36.426H181.043V27.1162Z" fill="white"/>
<path d="M90.6574 36.1548H81.3477V45.4645H90.6574V36.1548Z" fill="white"/>
<path d="M99.6955 36.1548H90.3857V45.4645H99.6955V36.1548Z" fill="white"/>
<path d="M126.81 36.1548H117.5V45.4645H126.81V36.1548Z" fill="white"/>
<path d="M135.85 36.1548H126.541V45.4645H135.85V36.1548Z" fill="white"/>
<path d="M144.888 36.1543H135.578V45.464H144.888V36.1543Z" fill="white"/>
<path d="M181.043 36.1548H171.733V45.4645H181.043V36.1548Z" fill="white"/>
<path d="M190.083 36.1548H180.773V45.4645H190.083V36.1548Z" fill="white"/>
<path d="M81.6193 45.1934H72.3096V54.5031H81.6193V45.1934Z" fill="white"/>
<path d="M90.6574 45.1934H81.3477V54.5031H90.6574V45.1934Z" fill="white"/>
<path d="M126.81 45.1934H117.5V54.5031H126.81V45.1934Z" fill="white"/>
<path d="M135.85 45.1934H126.541V54.5031H135.85V45.1934Z" fill="white"/>
<path d="M144.888 45.1934H135.578V54.5031H144.888V45.1934Z" fill="white"/>
<path d="M153.928 45.1934H144.619V54.5031H153.928V45.1934Z" fill="white"/>
<path d="M172.005 45.1934H162.695V54.5031H172.005V45.1934Z" fill="white"/>
<path d="M190.083 45.1934H180.773V54.5031H190.083V45.1934Z" fill="white"/>
<path d="M81.6193 54.2314H72.3096V63.5412H81.6193V54.2314Z" fill="white"/>
<path d="M99.6955 54.2314H90.3857V63.5412H99.6955V54.2314Z" fill="white"/>
<path d="M117.774 54.2314H108.464V63.5412H117.774V54.2314Z" fill="white"/>
<path d="M135.85 54.2314H126.541V63.5412H135.85V54.2314Z" fill="white"/>
<path d="M153.928 54.2314H144.619V63.5412H153.928V54.2314Z" fill="white"/>
<path d="M172.005 54.2319H162.695V63.5417H172.005V54.2319Z" fill="white"/>
<path d="M190.083 54.2314H180.773V63.5412H190.083V54.2314Z" fill="white"/>
<path d="M81.6193 63.27H72.3096V72.5798H81.6193V63.27Z" fill="white"/>
<path d="M90.6574 63.27H81.3477V72.5798H90.6574V63.27Z" fill="white"/>
<path d="M99.6955 63.27H90.3857V72.5798H99.6955V63.27Z" fill="white"/>
<path d="M126.81 63.27H117.5V72.5798H126.81V63.27Z" fill="white"/>
<path d="M144.888 63.2705H135.578V72.5803H144.888V63.2705Z" fill="white"/>
<path d="M190.083 63.27H180.773V72.5798H190.083V63.27Z" fill="white"/>
<path d="M27.3859 72.3086H18.0762V81.6183H27.3859V72.3086Z" fill="white"/>
<path d="M36.4245 72.3086H27.1147V81.6183H36.4245V72.3086Z" fill="white"/>
<path d="M45.464 72.3091H36.1543V81.6188H45.464V72.3091Z" fill="white"/>
<path d="M63.5407 72.3086H54.231V81.6183H63.5407V72.3086Z" fill="white"/>
<path d="M81.6193 72.3086H72.3096V81.6183H81.6193V72.3086Z" fill="white"/>
<path d="M108.734 72.3091H99.4238V81.6188H108.734V72.3091Z" fill="white"/>
<path d="M117.774 72.3086H108.464V81.6183H117.774V72.3086Z" fill="white"/>
<path d="M126.81 72.3086H117.5V81.6183H126.81V72.3086Z" fill="white"/>
<path d="M144.888 72.3091H135.578V81.6188H144.888V72.3091Z" fill="white"/>
<path d="M153.928 72.3086H144.619V81.6183H153.928V72.3086Z" fill="white"/>
<path d="M172.005 72.3091H162.695V81.6188H172.005V72.3091Z" fill="white"/>
<path d="M190.083 72.3086H180.773V81.6183H190.083V72.3086Z" fill="white"/>
<path d="M199.119 72.3086H189.81V81.6183H199.119V72.3086Z" fill="white"/>
<path d="M208.159 72.3091H198.85V81.6188H208.159V72.3091Z" fill="white"/>
<path d="M217.197 72.3086H207.888V81.6183H217.197V72.3086Z" fill="white"/>
<path d="M244.314 72.3091H235.004V81.6188H244.314V72.3091Z" fill="white"/>
<path d="M253.352 72.3086H244.042V81.6183H253.352V72.3086Z" fill="white"/>
<path d="M262.39 72.3086H253.081V81.6183H262.39V72.3086Z" fill="white"/>
<path d="M18.3478 81.3472H9.03809V90.6569H18.3478V81.3472Z" fill="white"/>
<path d="M36.4245 81.3472H27.1147V90.6569H36.4245V81.3472Z" fill="white"/>
<path d="M45.464 81.3472H36.1543V90.6569H45.464V81.3472Z" fill="white"/>
<path d="M54.5026 81.3472H45.1929V90.6569H54.5026V81.3472Z" fill="white"/>
<path d="M99.6955 81.3472H90.3857V90.6569H99.6955V81.3472Z" fill="white"/>
<path d="M108.734 81.3472H99.4238V90.6569H108.734V81.3472Z" fill="white"/>
<path d="M126.81 81.3472H117.5V90.6569H126.81V81.3472Z" fill="white"/>
<path d="M153.928 81.3472H144.619V90.6569H153.928V81.3472Z" fill="white"/>
<path d="M162.965 81.3472H153.655V90.6569H162.965V81.3472Z" fill="white"/>
<path d="M208.159 81.3472H198.85V90.6569H208.159V81.3472Z" fill="white"/>
<path d="M217.197 81.3472H207.888V90.6569H217.197V81.3472Z" fill="white"/>
<path d="M226.236 81.3472H216.926V90.6569H226.236V81.3472Z" fill="white"/>
<path d="M262.39 81.3472H253.081V90.6569H262.39V81.3472Z" fill="white"/>
<path d="M45.464 90.3857H36.1543V99.6955H45.464V90.3857Z" fill="white"/>
<path d="M63.5407 90.3857H54.231V99.6955H63.5407V90.3857Z" fill="white"/>
<path d="M72.5793 90.3857H63.2695V99.6955H72.5793V90.3857Z" fill="white"/>
<path d="M90.6574 90.3857H81.3477V99.6955H90.6574V90.3857Z" fill="white"/>
<path d="M117.774 90.3857H108.464V99.6955H117.774V90.3857Z" fill="white"/>
<path d="M135.85 90.3857H126.541V99.6955H135.85V90.3857Z" fill="white"/>
<path d="M144.888 90.3857H135.578V99.6955H144.888V90.3857Z" fill="white"/>
<path d="M153.928 90.3857H144.619V99.6955H153.928V90.3857Z" fill="white"/>
<path d="M162.965 90.3857H153.655V99.6955H162.965V90.3857Z" fill="white"/>
<path d="M172.005 90.3857H162.695V99.6955H172.005V90.3857Z" fill="white"/>
<path d="M190.083 90.3857H180.773V99.6955H190.083V90.3857Z" fill="white"/>
<path d="M199.119 90.3857H189.81V99.6955H199.119V90.3857Z" fill="white"/>
<path d="M208.159 90.3857H198.85V99.6955H208.159V90.3857Z" fill="white"/>
<path d="M217.197 90.3857H207.888V99.6955H217.197V90.3857Z" fill="white"/>
<path d="M226.236 90.3857H216.926V99.6955H226.236V90.3857Z" fill="white"/>
<path d="M244.314 90.3857H235.004V99.6955H244.314V90.3857Z" fill="white"/>
<path d="M9.30975 99.4243H0V108.734H9.30975V99.4243Z" fill="white"/>
<path d="M18.3478 99.4243H9.03809V108.734H18.3478V99.4243Z" fill="white"/>
<path d="M27.3859 99.4243H18.0762V108.734H27.3859V99.4243Z" fill="white"/>
<path d="M72.5793 99.4243H63.2695V108.734H72.5793V99.4243Z" fill="white"/>
<path d="M99.6955 99.4243H90.3857V108.734H99.6955V99.4243Z" fill="white"/>
<path d="M126.81 99.4243H117.5V108.734H126.81V99.4243Z" fill="white"/>
<path d="M153.928 99.4243H144.619V108.734H153.928V99.4243Z" fill="white"/>
<path d="M162.965 99.4243H153.655V108.734H162.965V99.4243Z" fill="white"/>
<path d="M199.119 99.4243H189.81V108.734H199.119V99.4243Z" fill="white"/>
<path d="M208.159 99.4243H198.85V108.734H208.159V99.4243Z" fill="white"/>
<path d="M217.197 99.4243H207.888V108.734H217.197V99.4243Z" fill="white"/>
<path d="M226.236 99.4243H216.926V108.734H226.236V99.4243Z" fill="white"/>
<path d="M253.352 99.4243H244.042V108.734H253.352V99.4243Z" fill="white"/>
<path d="M36.4245 108.463H27.1147V117.773H36.4245V108.463Z" fill="white"/>
<path d="M63.5407 108.463H54.231V117.773H63.5407V108.463Z" fill="white"/>
<path d="M72.5793 108.463H63.2695V117.773H72.5793V108.463Z" fill="white"/>
<path d="M90.6574 108.463H81.3477V117.773H90.6574V108.463Z" fill="white"/>
<path d="M99.6955 108.463H90.3857V117.773H99.6955V108.463Z" fill="white"/>
<path d="M126.81 108.463H117.5V117.773H126.81V108.463Z" fill="white"/>
<path d="M135.85 108.463H126.541V117.773H135.85V108.463Z" fill="white"/>
<path d="M144.888 108.463H135.578V117.773H144.888V108.463Z" fill="white"/>
<path d="M153.928 108.463H144.619V117.773H153.928V108.463Z" fill="white"/>
<path d="M162.965 108.463H153.655V117.773H162.965V108.463Z" fill="white"/>
<path d="M199.119 108.463H189.81V117.773H199.119V108.463Z" fill="white"/>
<path d="M217.197 108.463H207.888V117.773H217.197V108.463Z" fill="white"/>
<path d="M244.314 108.463H235.004V117.773H244.314V108.463Z" fill="white"/>
<path d="M253.352 108.463H244.042V117.773H253.352V108.463Z" fill="white"/>
<path d="M262.39 108.463H253.081V117.773H262.39V108.463Z" fill="white"/>
<path d="M9.30975 117.501H0V126.811H9.30975V117.501Z" fill="white"/>
<path d="M18.3478 117.502H9.03809V126.812H18.3478V117.502Z" fill="white"/>
<path d="M27.3859 117.502H18.0762V126.812H27.3859V117.502Z" fill="white"/>
<path d="M36.4245 117.502H27.1147V126.812H36.4245V117.502Z" fill="white"/>
<path d="M72.5793 117.501H63.2695V126.811H72.5793V117.501Z" fill="white"/>
<path d="M90.6574 117.502H81.3477V126.812H90.6574V117.502Z" fill="white"/>
<path d="M108.734 117.501H99.4238V126.811H108.734V117.501Z" fill="white"/>
<path d="M126.81 117.502H117.5V126.812H126.81V117.502Z" fill="white"/>
<path d="M135.85 117.502H126.541V126.812H135.85V117.502Z" fill="white"/>
<path d="M144.888 117.501H135.578V126.811H144.888V117.501Z" fill="white"/>
<path d="M162.965 117.502H153.655V126.812H162.965V117.502Z" fill="white"/>
<path d="M181.043 117.502H171.733V126.812H181.043V117.502Z" fill="white"/>
<path d="M190.083 117.502H180.773V126.812H190.083V117.502Z" fill="white"/>
<path d="M199.119 117.502H189.81V126.812H199.119V117.502Z" fill="white"/>
<path d="M208.159 117.501H198.85V126.811H208.159V117.501Z" fill="white"/>
<path d="M226.236 117.502H216.926V126.812H226.236V117.502Z" fill="white"/>
<path d="M235.274 117.502H225.964V126.812H235.274V117.502Z" fill="white"/>
<path d="M262.39 117.502H253.081V126.812H262.39V117.502Z" fill="white"/>
<path d="M9.30975 126.54H0V135.85H9.30975V126.54Z" fill="white"/>
<path d="M27.3859 126.541H18.0762V135.85H27.3859V126.541Z" fill="white"/>
<path d="M36.4245 126.541H27.1147V135.85H36.4245V126.541Z" fill="white"/>
<path d="M54.5026 126.541H45.1929V135.85H54.5026V126.541Z" fill="white"/>
<path d="M63.5407 126.541H54.231V135.85H63.5407V126.541Z" fill="white"/>
<path d="M72.5793 126.54H63.2695V135.85H72.5793V126.54Z" fill="white"/>
<path d="M90.6574 126.541H81.3477V135.85H90.6574V126.541Z" fill="white"/>
<path d="M99.6955 126.541H90.3857V135.85H99.6955V126.541Z" fill="white"/>
<path d="M108.734 126.54H99.4238V135.85H108.734V126.54Z" fill="white"/>
<path d="M144.888 126.54H135.578V135.85H144.888V126.54Z" fill="white"/>
<path d="M190.083 126.541H180.773V135.85H190.083V126.541Z" fill="white"/>
<path d="M199.119 126.541H189.81V135.85H199.119V126.541Z" fill="white"/>
<path d="M217.197 126.541H207.888V135.85H217.197V126.541Z" fill="white"/>
<path d="M9.30975 135.579H0V144.889H9.30975V135.579Z" fill="white"/>
<path d="M36.4245 135.579H27.1147V144.889H36.4245V135.579Z" fill="white"/>
<path d="M54.5026 135.579H45.1929V144.889H54.5026V135.579Z" fill="white"/>
<path d="M72.5793 135.579H63.2695V144.889H72.5793V135.579Z" fill="white"/>
<path d="M81.6193 135.579H72.3096V144.889H81.6193V135.579Z" fill="white"/>
<path d="M90.6574 135.579H81.3477V144.889H90.6574V135.579Z" fill="white"/>
<path d="M99.6955 135.579H90.3857V144.889H99.6955V135.579Z" fill="white"/>
<path d="M117.774 135.579H108.464V144.889H117.774V135.579Z" fill="white"/>
<path d="M126.81 135.579H117.5V144.889H126.81V135.579Z" fill="white"/>
<path d="M135.85 135.579H126.541V144.889H135.85V135.579Z" fill="white"/>
<path d="M162.965 135.579H153.655V144.889H162.965V135.579Z" fill="white"/>
<path d="M172.005 135.579H162.695V144.889H172.005V135.579Z" fill="white"/>
<path d="M181.043 135.579H171.733V144.889H181.043V135.579Z" fill="white"/>
<path d="M199.119 135.579H189.81V144.889H199.119V135.579Z" fill="white"/>
<path d="M208.159 135.579H198.85V144.889H208.159V135.579Z" fill="white"/>
<path d="M226.236 135.579H216.926V144.889H226.236V135.579Z" fill="white"/>
<path d="M235.274 135.579H225.964V144.889H235.274V135.579Z" fill="white"/>
<path d="M63.5407 144.617H54.231V153.927H63.5407V144.617Z" fill="white"/>
<path d="M99.6955 144.617H90.3857V153.927H99.6955V144.617Z" fill="white"/>
<path d="M117.774 144.617H108.464V153.927H117.774V144.617Z" fill="white"/>
<path d="M126.81 144.617H117.5V153.927H126.81V144.617Z" fill="white"/>
<path d="M135.85 144.617H126.541V153.927H135.85V144.617Z" fill="white"/>
<path d="M153.928 144.617H144.619V153.927H153.928V144.617Z" fill="white"/>
<path d="M162.965 144.617H153.655V153.927H162.965V144.617Z" fill="white"/>
<path d="M199.119 144.617H189.81V153.927H199.119V144.617Z" fill="white"/>
<path d="M235.274 144.617H225.964V153.927H235.274V144.617Z" fill="white"/>
<path d="M244.314 144.617H235.004V153.927H244.314V144.617Z" fill="white"/>
<path d="M9.30975 153.656H0V162.966H9.30975V153.656Z" fill="white"/>
<path d="M18.3478 153.656H9.03809V162.966H18.3478V153.656Z" fill="white"/>
<path d="M27.3859 153.656H18.0762V162.966H27.3859V153.656Z" fill="white"/>
<path d="M45.464 153.656H36.1543V162.966H45.464V153.656Z" fill="white"/>
<path d="M81.6193 153.656H72.3096V162.966H81.6193V153.656Z" fill="white"/>
<path d="M108.734 153.656H99.4238V162.966H108.734V153.656Z" fill="white"/>
<path d="M126.81 153.656H117.5V162.966H126.81V153.656Z" fill="white"/>
<path d="M135.85 153.656H126.541V162.966H135.85V153.656Z" fill="white"/>
<path d="M172.005 153.656H162.695V162.966H172.005V153.656Z" fill="white"/>
<path d="M190.083 153.656H180.773V162.966H190.083V153.656Z" fill="white"/>
<path d="M199.119 153.656H189.81V162.966H199.119V153.656Z" fill="white"/>
<path d="M208.159 153.656H198.85V162.966H208.159V153.656Z" fill="white"/>
<path d="M217.197 153.656H207.888V162.966H217.197V153.656Z" fill="white"/>
<path d="M226.236 153.656H216.926V162.966H226.236V153.656Z" fill="white"/>
<path d="M235.274 153.656H225.964V162.966H235.274V153.656Z" fill="white"/>
<path d="M244.314 153.656H235.004V162.966H244.314V153.656Z" fill="white"/>
<path d="M253.352 153.656H244.042V162.966H253.352V153.656Z" fill="white"/>
<path d="M262.39 153.656H253.081V162.966H262.39V153.656Z" fill="white"/>
<path d="M9.30975 162.695H0V172.005H9.30975V162.695Z" fill="white"/>
<path d="M27.3859 162.694H18.0762V172.004H27.3859V162.694Z" fill="white"/>
<path d="M45.464 162.695H36.1543V172.005H45.464V162.695Z" fill="white"/>
<path d="M63.5407 162.694H54.231V172.004H63.5407V162.694Z" fill="white"/>
<path d="M81.6193 162.694H72.3096V172.004H81.6193V162.694Z" fill="white"/>
<path d="M90.6574 162.694H81.3477V172.004H90.6574V162.694Z" fill="white"/>
<path d="M117.774 162.694H108.464V172.004H117.774V162.694Z" fill="white"/>
<path d="M135.85 162.694H126.541V172.004H135.85V162.694Z" fill="white"/>
<path d="M144.888 162.695H135.578V172.005H144.888V162.695Z" fill="white"/>
<path d="M181.043 162.694H171.733V172.004H181.043V162.694Z" fill="white"/>
<path d="M208.159 162.695H198.85V172.005H208.159V162.695Z" fill="white"/>
<path d="M217.197 162.694H207.888V172.004H217.197V162.694Z" fill="white"/>
<path d="M226.236 162.694H216.926V172.004H226.236V162.694Z" fill="white"/>
<path d="M244.314 162.695H235.004V172.005H244.314V162.695Z" fill="white"/>
<path d="M9.30975 171.733H0V181.043H9.30975V171.733Z" fill="white"/>
<path d="M45.464 171.733H36.1543V181.043H45.464V171.733Z" fill="white"/>
<path d="M72.5793 171.733H63.2695V181.043H72.5793V171.733Z" fill="white"/>
<path d="M81.6193 171.733H72.3096V181.043H81.6193V171.733Z" fill="white"/>
<path d="M99.6955 171.733H90.3857V181.043H99.6955V171.733Z" fill="white"/>
<path d="M117.774 171.733H108.464V181.043H117.774V171.733Z" fill="white"/>
<path d="M126.81 171.733H117.5V181.043H126.81V171.733Z" fill="white"/>
<path d="M153.928 171.733H144.619V181.043H153.928V171.733Z" fill="white"/>
<path d="M162.965 171.733H153.655V181.043H162.965V171.733Z" fill="white"/>
<path d="M181.043 171.733H171.733V181.043H181.043V171.733Z" fill="white"/>
<path d="M190.083 171.733H180.773V181.043H190.083V171.733Z" fill="white"/>
<path d="M208.159 171.733H198.85V181.043H208.159V171.733Z" fill="white"/>
<path d="M217.197 171.733H207.888V181.043H217.197V171.733Z" fill="white"/>
<path d="M226.236 171.733H216.926V181.043H226.236V171.733Z" fill="white"/>
<path d="M235.274 171.733H225.964V181.043H235.274V171.733Z" fill="white"/>
<path d="M253.352 171.733H244.042V181.043H253.352V171.733Z" fill="white"/>
<path d="M9.30975 180.772H0V190.082H9.30975V180.772Z" fill="white"/>
<path d="M63.5407 180.772H54.231V190.082H63.5407V180.772Z" fill="white"/>
<path d="M72.5793 180.772H63.2695V190.082H72.5793V180.772Z" fill="white"/>
<path d="M108.734 180.772H99.4238V190.082H108.734V180.772Z" fill="white"/>
<path d="M117.774 180.772H108.464V190.082H117.774V180.772Z" fill="white"/>
<path d="M126.81 180.772H117.5V190.082H126.81V180.772Z" fill="white"/>
<path d="M135.85 180.772H126.541V190.082H135.85V180.772Z" fill="white"/>
<path d="M144.888 180.772H135.578V190.082H144.888V180.772Z" fill="white"/>
<path d="M172.005 180.772H162.695V190.082H172.005V180.772Z" fill="white"/>
<path d="M181.043 180.772H171.733V190.082H181.043V180.772Z" fill="white"/>
<path d="M190.083 180.772H180.773V190.082H190.083V180.772Z" fill="white"/>
<path d="M199.119 180.772H189.81V190.082H199.119V180.772Z" fill="white"/>
<path d="M208.159 180.772H198.85V190.082H208.159V180.772Z" fill="white"/>
<path d="M217.197 180.772H207.888V190.082H217.197V180.772Z" fill="white"/>
<path d="M226.236 180.772H216.926V190.082H226.236V180.772Z" fill="white"/>
<path d="M244.314 180.772H235.004V190.082H244.314V180.772Z" fill="white"/>
<path d="M81.6193 189.811H72.3096V199.12H81.6193V189.811Z" fill="white"/>
<path d="M108.734 189.811H99.4238V199.12H108.734V189.811Z" fill="white"/>
<path d="M126.81 189.811H117.5V199.12H126.81V189.811Z" fill="white"/>
<path d="M144.888 189.811H135.578V199.12H144.888V189.811Z" fill="white"/>
<path d="M162.965 189.811H153.655V199.12H162.965V189.811Z" fill="white"/>
<path d="M190.083 189.811H180.773V199.12H190.083V189.811Z" fill="white"/>
<path d="M226.236 189.811H216.926V199.12H226.236V189.811Z" fill="white"/>
<path d="M235.274 189.811H225.964V199.12H235.274V189.811Z" fill="white"/>
<path d="M253.352 189.811H244.042V199.12H253.352V189.811Z" fill="white"/>
<path d="M262.39 189.811H253.081V199.12H262.39V189.811Z" fill="white"/>
<path d="M90.6574 198.849H81.3477V208.159H90.6574V198.849Z" fill="white"/>
<path d="M117.774 198.849H108.464V208.159H117.774V198.849Z" fill="white"/>
<path d="M135.85 198.849H126.541V208.159H135.85V198.849Z" fill="white"/>
<path d="M153.928 198.849H144.619V208.159H153.928V198.849Z" fill="white"/>
<path d="M162.965 198.849H153.655V208.159H162.965V198.849Z" fill="white"/>
<path d="M181.043 198.849H171.733V208.159H181.043V198.849Z" fill="white"/>
<path d="M190.083 198.849H180.773V208.159H190.083V198.849Z" fill="white"/>
<path d="M208.159 198.849H198.85V208.159H208.159V198.849Z" fill="white"/>
<path d="M226.236 198.849H216.926V208.159H226.236V198.849Z" fill="white"/>
<path d="M90.6574 207.888H81.3477V217.197H90.6574V207.888Z" fill="white"/>
<path d="M99.6955 207.888H90.3857V217.197H99.6955V207.888Z" fill="white"/>
<path d="M108.734 207.888H99.4238V217.197H108.734V207.888Z" fill="white"/>
<path d="M117.774 207.888H108.464V217.197H117.774V207.888Z" fill="white"/>
<path d="M135.85 207.888H126.541V217.197H135.85V207.888Z" fill="white"/>
<path d="M153.928 207.888H144.619V217.197H153.928V207.888Z" fill="white"/>
<path d="M162.965 207.888H153.655V217.197H162.965V207.888Z" fill="white"/>
<path d="M181.043 207.888H171.733V217.197H181.043V207.888Z" fill="white"/>
<path d="M190.083 207.888H180.773V217.197H190.083V207.888Z" fill="white"/>
<path d="M226.236 207.888H216.926V217.197H226.236V207.888Z" fill="white"/>
<path d="M235.274 207.888H225.964V217.197H235.274V207.888Z" fill="white"/>
<path d="M253.352 207.888H244.042V217.197H253.352V207.888Z" fill="white"/>
<path d="M81.6193 216.927H72.3096V226.237H81.6193V216.927Z" fill="white"/>
<path d="M90.6574 216.927H81.3477V226.237H90.6574V216.927Z" fill="white"/>
<path d="M99.6955 216.927H90.3857V226.237H99.6955V216.927Z" fill="white"/>
<path d="M117.774 216.927H108.464V226.237H117.774V216.927Z" fill="white"/>
<path d="M153.928 216.927H144.619V226.237H153.928V216.927Z" fill="white"/>
<path d="M162.965 216.927H153.655V226.237H162.965V216.927Z" fill="white"/>
<path d="M190.083 216.927H180.773V226.237H190.083V216.927Z" fill="white"/>
<path d="M199.119 216.927H189.81V226.237H199.119V216.927Z" fill="white"/>
<path d="M208.159 216.926H198.85V226.236H208.159V216.926Z" fill="white"/>
<path d="M217.197 216.927H207.888V226.237H217.197V216.927Z" fill="white"/>
<path d="M226.236 216.927H216.926V226.237H226.236V216.927Z" fill="white"/>
<path d="M235.274 216.927H225.964V226.237H235.274V216.927Z" fill="white"/>
<path d="M244.314 216.926H235.004V226.236H244.314V216.926Z" fill="white"/>
<path d="M81.6193 225.965H72.3096V235.275H81.6193V225.965Z" fill="white"/>
<path d="M108.734 225.965H99.4238V235.275H108.734V225.965Z" fill="white"/>
<path d="M117.774 225.965H108.464V235.275H117.774V225.965Z" fill="white"/>
<path d="M126.81 225.965H117.5V235.275H126.81V225.965Z" fill="white"/>
<path d="M135.85 225.965H126.541V235.275H135.85V225.965Z" fill="white"/>
<path d="M153.928 225.965H144.619V235.275H153.928V225.965Z" fill="white"/>
<path d="M181.043 225.965H171.733V235.275H181.043V225.965Z" fill="white"/>
<path d="M190.083 225.965H180.773V235.275H190.083V225.965Z" fill="white"/>
<path d="M199.119 225.965H189.81V235.275H199.119V225.965Z" fill="white"/>
<path d="M217.197 225.965H207.888V235.275H217.197V225.965Z" fill="white"/>
<path d="M81.6193 235.003H72.3096V244.313H81.6193V235.003Z" fill="white"/>
<path d="M117.774 235.003H108.464V244.313H117.774V235.003Z" fill="white"/>
<path d="M126.81 235.003H117.5V244.313H126.81V235.003Z" fill="white"/>
<path d="M135.85 235.003H126.541V244.313H135.85V235.003Z" fill="white"/>
<path d="M181.043 235.003H171.733V244.313H181.043V235.003Z" fill="white"/>
<path d="M190.083 235.003H180.773V244.313H190.083V235.003Z" fill="white"/>
<path d="M199.119 235.003H189.81V244.313H199.119V235.003Z" fill="white"/>
<path d="M208.159 235.003H198.85V244.313H208.159V235.003Z" fill="white"/>
<path d="M217.197 235.003H207.888V244.313H217.197V235.003Z" fill="white"/>
<path d="M226.236 235.003H216.926V244.313H226.236V235.003Z" fill="white"/>
<path d="M244.314 235.003H235.004V244.313H244.314V235.003Z" fill="white"/>
<path d="M253.352 235.003H244.042V244.313H253.352V235.003Z" fill="white"/>
<path d="M99.6955 244.042H90.3857V253.351H99.6955V244.042Z" fill="white"/>
<path d="M126.81 244.042H117.5V253.351H126.81V244.042Z" fill="white"/>
<path d="M135.85 244.042H126.541V253.351H135.85V244.042Z" fill="white"/>
<path d="M162.965 244.042H153.655V253.351H162.965V244.042Z" fill="white"/>
<path d="M208.159 244.042H198.85V253.352H208.159V244.042Z" fill="white"/>
<path d="M226.236 244.042H216.926V253.351H226.236V244.042Z" fill="white"/>
<path d="M235.274 244.042H225.964V253.351H235.274V244.042Z" fill="white"/>
<path d="M253.352 244.042H244.042V253.351H253.352V244.042Z" fill="white"/>
<path d="M90.6574 253.08H81.3477V262.39H90.6574V253.08Z" fill="white"/>
<path d="M99.6955 253.08H90.3857V262.39H99.6955V253.08Z" fill="white"/>
<path d="M108.734 253.081H99.4238V262.39H108.734V253.081Z" fill="white"/>
<path d="M126.81 253.08H117.5V262.39H126.81V253.08Z" fill="white"/>
<path d="M172.005 253.081H162.695V262.39H172.005V253.081Z" fill="white"/>
<path d="M208.159 253.081H198.85V262.39H208.159V253.081Z" fill="white"/>
<path d="M226.236 253.08H216.926V262.39H226.236V253.08Z" fill="white"/>
<path d="M244.314 253.081H235.004V262.39H244.314V253.081Z" fill="white"/>
<path d="M0 0V63.2701H63.2701V0H0ZM54.2315 54.2315H9.03859V9.03859H54.2315V54.2315Z" fill="white"/>
<path d="M198.85 0V63.2701H262.12V0H198.85ZM253.081 54.2315H207.888V9.03859H253.081V54.2315Z" fill="white"/>
<path d="M0 198.849V262.119H63.2701V198.849H0ZM54.2315 253.081H9.03859V207.888H54.2315V253.081Z" fill="white"/>
<path d="M45.1915 18.0771H18.0757V45.1929H45.1915V18.0771Z" fill="white"/>
<path d="M244.041 18.0771H216.925V45.1929H244.041V18.0771Z" fill="white"/>
<path d="M45.1915 216.927H18.0757V244.043H45.1915V216.927Z" fill="white"/>
</svg>
