<svg xmlns="http://www.w3.org/2000/svg" width="263" height="263" fill="none" viewBox="0 0 263 263"><path fill="#fff" d="M81.62 0h-9.31v9.31h9.31V0Z"/><path fill="#fff" d="M90.657 0h-9.31v9.31h9.31V0ZM108.734 0h-9.31v9.31h9.31V0Z"/><path fill="#fff" d="M117.774 0h-9.31v9.31h9.31V0ZM135.85 0h-9.309v9.31h9.309V0ZM153.928 0h-9.309v9.31h9.309V0Z"/><path fill="#fff" d="M162.965 0h-9.31v9.31h9.31V0Z"/><path fill="#fff" d="M172.005 0h-9.31v9.31h9.31V0ZM190.083 0h-9.31v9.31h9.31V0ZM81.62 9.039h-9.31v9.31h9.31v-9.31ZM108.734 9.039h-9.31v9.31h9.31v-9.31ZM126.81 9.039h-9.31v9.31h9.31v-9.31ZM144.888 9.039h-9.31v9.31h9.31v-9.31Z"/><path fill="#fff" d="M162.965 9.039h-9.31v9.31h9.31v-9.31ZM181.043 9.039h-9.31v9.31h9.31v-9.31ZM81.62 18.077h-9.31v9.31h9.31v-9.31Z"/><path fill="#fff" d="M90.657 18.077h-9.31v9.31h9.31v-9.31ZM108.734 18.077h-9.31v9.31h9.31v-9.31ZM135.85 18.077h-9.309v9.31h9.309v-9.31Z"/><path fill="#fff" d="M144.888 18.077h-9.31v9.31h9.31v-9.31ZM172.005 18.077h-9.31v9.31h9.31v-9.31Z"/><path fill="#fff" d="M181.043 18.077h-9.31v9.31h9.31v-9.31Z"/><path fill="#fff" d="M190.083 18.077h-9.31v9.31h9.31v-9.31ZM90.657 27.116h-9.31v9.31h9.31v-9.31ZM117.774 27.116h-9.31v9.31h9.31v-9.31ZM135.85 27.116h-9.309v9.31h9.309v-9.31ZM153.928 27.116h-9.309v9.31h9.309v-9.31Z"/><path fill="#fff" d="M162.965 27.116h-9.31v9.31h9.31v-9.31ZM181.043 27.116h-9.31v9.31h9.31v-9.31ZM90.657 36.155h-9.31v9.31h9.31v-9.31Z"/><path fill="#fff" d="M99.695 36.155h-9.31v9.31h9.31v-9.31ZM126.81 36.155h-9.31v9.31h9.31v-9.31Z"/><path fill="#fff" d="M135.85 36.155h-9.309v9.31h9.309v-9.31Z"/><path fill="#fff" d="M144.888 36.154h-9.31v9.31h9.31v-9.31ZM181.043 36.155h-9.31v9.31h9.31v-9.31Z"/><path fill="#fff" d="M190.083 36.155h-9.31v9.31h9.31v-9.31ZM81.62 45.193h-9.31v9.31h9.31v-9.31Z"/><path fill="#fff" d="M90.657 45.193h-9.31v9.31h9.31v-9.31ZM126.81 45.193h-9.31v9.31h9.31v-9.31Z"/><path fill="#fff" d="M135.85 45.193h-9.309v9.31h9.309v-9.31Z"/><path fill="#fff" d="M144.888 45.193h-9.31v9.31h9.31v-9.31Z"/><path fill="#fff" d="M153.928 45.193h-9.309v9.31h9.309v-9.31ZM172.005 45.193h-9.31v9.31h9.31v-9.31ZM190.083 45.193h-9.31v9.31h9.31v-9.31ZM81.62 54.231h-9.31v9.31h9.31v-9.31ZM99.695 54.231h-9.31v9.31h9.31v-9.31ZM117.774 54.231h-9.31v9.31h9.31v-9.31ZM135.85 54.231h-9.309v9.31h9.309v-9.31Z"/><path fill="#fff" d="M153.928 54.231h-9.309v9.31h9.309v-9.31ZM172.005 54.232h-9.31v9.31h9.31v-9.31ZM190.083 54.231h-9.31v9.31h9.31v-9.31ZM81.62 63.27h-9.31v9.31h9.31v-9.31Z"/><path fill="#fff" d="M90.657 63.27h-9.31v9.31h9.31v-9.31Z"/><path fill="#fff" d="M99.695 63.27h-9.31v9.31h9.31v-9.31ZM126.81 63.27h-9.31v9.31h9.31v-9.31ZM144.888 63.27h-9.31v9.31h9.31v-9.31ZM190.083 63.27h-9.31v9.31h9.31v-9.31ZM27.386 72.309h-9.31v9.31h9.31v-9.31Z"/><path fill="#fff" d="M36.425 72.309h-9.31v9.31h9.31v-9.31Z"/><path fill="#fff" d="M45.464 72.31h-9.31v9.309h9.31v-9.31ZM63.54 72.309h-9.309v9.31h9.31v-9.31ZM81.62 72.309h-9.31v9.31h9.31v-9.31ZM108.734 72.31h-9.31v9.309h9.31v-9.31Z"/><path fill="#fff" d="M117.774 72.309h-9.31v9.31h9.31v-9.31Z"/><path fill="#fff" d="M126.81 72.309h-9.31v9.31h9.31v-9.31ZM144.888 72.31h-9.31v9.309h9.31v-9.31Z"/><path fill="#fff" d="M153.928 72.309h-9.309v9.31h9.309v-9.31ZM172.005 72.31h-9.31v9.309h9.31v-9.31ZM190.083 72.309h-9.31v9.31h9.31v-9.31Z"/><path fill="#fff" d="M199.119 72.309h-9.309v9.31h9.309v-9.31Z"/><path fill="#fff" d="M208.159 72.31h-9.309v9.309h9.309v-9.31Z"/><path fill="#fff" d="M217.197 72.309h-9.309v9.31h9.309v-9.31ZM244.314 72.31h-9.31v9.309h9.31v-9.31Z"/><path fill="#fff" d="M253.352 72.309h-9.31v9.31h9.31v-9.31Z"/><path fill="#fff" d="M262.39 72.309h-9.309v9.31h9.309v-9.31ZM18.348 81.347h-9.31v9.31h9.31v-9.31ZM36.425 81.347h-9.31v9.31h9.31v-9.31Z"/><path fill="#fff" d="M45.464 81.347h-9.31v9.31h9.31v-9.31Z"/><path fill="#fff" d="M54.503 81.347h-9.31v9.31h9.31v-9.31ZM99.695 81.347h-9.31v9.31h9.31v-9.31Z"/><path fill="#fff" d="M108.734 81.347h-9.31v9.31h9.31v-9.31ZM126.81 81.347h-9.31v9.31h9.31v-9.31ZM153.928 81.347h-9.309v9.31h9.309v-9.31Z"/><path fill="#fff" d="M162.965 81.347h-9.31v9.31h9.31v-9.31ZM208.159 81.347h-9.309v9.31h9.309v-9.31Z"/><path fill="#fff" d="M217.197 81.347h-9.309v9.31h9.309v-9.31Z"/><path fill="#fff" d="M226.236 81.347h-9.31v9.31h9.31v-9.31ZM262.39 81.347h-9.309v9.31h9.309v-9.31ZM45.464 90.386h-9.31v9.31h9.31v-9.31ZM63.54 90.386h-9.309v9.31h9.31v-9.31Z"/><path fill="#fff" d="M72.58 90.386h-9.31v9.31h9.31v-9.31ZM90.657 90.386h-9.31v9.31h9.31v-9.31ZM117.774 90.386h-9.31v9.31h9.31v-9.31ZM135.85 90.386h-9.309v9.31h9.309v-9.31Z"/><path fill="#fff" d="M144.888 90.386h-9.31v9.31h9.31v-9.31Z"/><path fill="#fff" d="M153.928 90.386h-9.309v9.31h9.309v-9.31Z"/><path fill="#fff" d="M162.965 90.386h-9.31v9.31h9.31v-9.31Z"/><path fill="#fff" d="M172.005 90.386h-9.31v9.31h9.31v-9.31ZM190.083 90.386h-9.31v9.31h9.31v-9.31Z"/><path fill="#fff" d="M199.119 90.386h-9.309v9.31h9.309v-9.31Z"/><path fill="#fff" d="M208.159 90.386h-9.309v9.31h9.309v-9.31Z"/><path fill="#fff" d="M217.197 90.386h-9.309v9.31h9.309v-9.31Z"/><path fill="#fff" d="M226.236 90.386h-9.31v9.31h9.31v-9.31ZM244.314 90.386h-9.31v9.31h9.31v-9.31ZM9.31 99.424H0v9.31h9.31v-9.31Z"/><path fill="#fff" d="M18.348 99.424h-9.31v9.31h9.31v-9.31Z"/><path fill="#fff" d="M27.386 99.424h-9.31v9.31h9.31v-9.31ZM72.58 99.424h-9.31v9.31h9.31v-9.31ZM99.695 99.424h-9.31v9.31h9.31v-9.31ZM126.81 99.424h-9.31v9.31h9.31v-9.31ZM153.928 99.424h-9.309v9.31h9.309v-9.31Z"/><path fill="#fff" d="M162.965 99.424h-9.31v9.31h9.31v-9.31ZM199.119 99.424h-9.309v9.31h9.309v-9.31Z"/><path fill="#fff" d="M208.159 99.424h-9.309v9.31h9.309v-9.31Z"/><path fill="#fff" d="M217.197 99.424h-9.309v9.31h9.309v-9.31Z"/><path fill="#fff" d="M226.236 99.424h-9.31v9.31h9.31v-9.31ZM253.352 99.424h-9.31v9.31h9.31v-9.31ZM36.425 108.463h-9.31v9.31h9.31v-9.31ZM63.54 108.463h-9.309v9.31h9.31v-9.31Z"/><path fill="#fff" d="M72.58 108.463h-9.31v9.31h9.31v-9.31ZM90.657 108.463h-9.31v9.31h9.31v-9.31Z"/><path fill="#fff" d="M99.695 108.463h-9.31v9.31h9.31v-9.31ZM126.81 108.463h-9.31v9.31h9.31v-9.31Z"/><path fill="#fff" d="M135.85 108.463h-9.309v9.31h9.309v-9.31Z"/><path fill="#fff" d="M144.888 108.463h-9.31v9.31h9.31v-9.31Z"/><path fill="#fff" d="M153.928 108.463h-9.309v9.31h9.309v-9.31Z"/><path fill="#fff" d="M162.965 108.463h-9.31v9.31h9.31v-9.31ZM199.119 108.463h-9.309v9.31h9.309v-9.31ZM217.197 108.463h-9.309v9.31h9.309v-9.31ZM244.314 108.463h-9.31v9.31h9.31v-9.31Z"/><path fill="#fff" d="M253.352 108.463h-9.31v9.31h9.31v-9.31Z"/><path fill="#fff" d="M262.39 108.463h-9.309v9.31h9.309v-9.31ZM9.31 117.501H0v9.31h9.31v-9.31Z"/><path fill="#fff" d="M18.348 117.502h-9.31v9.31h9.31v-9.31Z"/><path fill="#fff" d="M27.386 117.502h-9.31v9.31h9.31v-9.31Z"/><path fill="#fff" d="M36.425 117.502h-9.31v9.31h9.31v-9.31ZM72.58 117.501h-9.31v9.31h9.31v-9.31ZM90.657 117.502h-9.31v9.31h9.31v-9.31ZM108.734 117.501h-9.31v9.31h9.31v-9.31ZM126.81 117.502h-9.31v9.31h9.31v-9.31Z"/><path fill="#fff" d="M135.85 117.502h-9.309v9.31h9.309v-9.31Z"/><path fill="#fff" d="M144.888 117.501h-9.31v9.31h9.31v-9.31ZM162.965 117.502h-9.31v9.31h9.31v-9.31ZM181.043 117.502h-9.31v9.31h9.31v-9.31Z"/><path fill="#fff" d="M190.083 117.502h-9.31v9.31h9.31v-9.31Z"/><path fill="#fff" d="M199.119 117.502h-9.309v9.31h9.309v-9.31Z"/><path fill="#fff" d="M208.159 117.501h-9.309v9.31h9.309v-9.31ZM226.236 117.502h-9.31v9.31h9.31v-9.31Z"/><path fill="#fff" d="M235.274 117.502h-9.31v9.31h9.31v-9.31ZM262.39 117.502h-9.309v9.31h9.309v-9.31ZM9.31 126.54H0v9.31h9.31v-9.31ZM27.386 126.541h-9.31v9.309h9.31v-9.309Z"/><path fill="#fff" d="M36.425 126.541h-9.31v9.309h9.31v-9.309ZM54.503 126.541h-9.31v9.309h9.31v-9.309Z"/><path fill="#fff" d="M63.54 126.541h-9.309v9.309h9.31v-9.309Z"/><path fill="#fff" d="M72.58 126.54h-9.31v9.31h9.31v-9.31ZM90.657 126.541h-9.31v9.309h9.31v-9.309Z"/><path fill="#fff" d="M99.695 126.541h-9.31v9.309h9.31v-9.309Z"/><path fill="#fff" d="M108.734 126.54h-9.31v9.31h9.31v-9.31ZM144.888 126.54h-9.31v9.31h9.31v-9.31ZM190.083 126.541h-9.31v9.309h9.31v-9.309Z"/><path fill="#fff" d="M199.119 126.541h-9.309v9.309h9.309v-9.309ZM217.197 126.541h-9.309v9.309h9.309v-9.309ZM9.31 135.579H0v9.31h9.31v-9.31ZM36.425 135.579h-9.31v9.31h9.31v-9.31ZM54.503 135.579h-9.31v9.31h9.31v-9.31ZM72.58 135.579h-9.31v9.31h9.31v-9.31Z"/><path fill="#fff" d="M81.62 135.579h-9.31v9.31h9.31v-9.31Z"/><path fill="#fff" d="M90.657 135.579h-9.31v9.31h9.31v-9.31Z"/><path fill="#fff" d="M99.695 135.579h-9.31v9.31h9.31v-9.31ZM117.774 135.579h-9.31v9.31h9.31v-9.31Z"/><path fill="#fff" d="M126.81 135.579h-9.31v9.31h9.31v-9.31Z"/><path fill="#fff" d="M135.85 135.579h-9.309v9.31h9.309v-9.31ZM162.965 135.579h-9.31v9.31h9.31v-9.31Z"/><path fill="#fff" d="M172.005 135.579h-9.31v9.31h9.31v-9.31Z"/><path fill="#fff" d="M181.043 135.579h-9.31v9.31h9.31v-9.31ZM199.119 135.579h-9.309v9.31h9.309v-9.31Z"/><path fill="#fff" d="M208.159 135.579h-9.309v9.31h9.309v-9.31ZM226.236 135.579h-9.31v9.31h9.31v-9.31Z"/><path fill="#fff" d="M235.274 135.579h-9.31v9.31h9.31v-9.31ZM63.54 144.617h-9.309v9.31h9.31v-9.31ZM99.695 144.617h-9.31v9.31h9.31v-9.31ZM117.774 144.617h-9.31v9.31h9.31v-9.31Z"/><path fill="#fff" d="M126.81 144.617h-9.31v9.31h9.31v-9.31Z"/><path fill="#fff" d="M135.85 144.617h-9.309v9.31h9.309v-9.31ZM153.928 144.617h-9.309v9.31h9.309v-9.31Z"/><path fill="#fff" d="M162.965 144.617h-9.31v9.31h9.31v-9.31ZM199.119 144.617h-9.309v9.31h9.309v-9.31ZM235.274 144.617h-9.31v9.31h9.31v-9.31Z"/><path fill="#fff" d="M244.314 144.617h-9.31v9.31h9.31v-9.31ZM9.31 153.656H0v9.31h9.31v-9.31Z"/><path fill="#fff" d="M18.348 153.656h-9.31v9.31h9.31v-9.31Z"/><path fill="#fff" d="M27.386 153.656h-9.31v9.31h9.31v-9.31ZM45.464 153.656h-9.31v9.31h9.31v-9.31ZM81.62 153.656h-9.31v9.31h9.31v-9.31ZM108.734 153.656h-9.31v9.31h9.31v-9.31ZM126.81 153.656h-9.31v9.31h9.31v-9.31Z"/><path fill="#fff" d="M135.85 153.656h-9.309v9.31h9.309v-9.31ZM172.005 153.656h-9.31v9.31h9.31v-9.31ZM190.083 153.656h-9.31v9.31h9.31v-9.31Z"/><path fill="#fff" d="M199.119 153.656h-9.309v9.31h9.309v-9.31Z"/><path fill="#fff" d="M208.159 153.656h-9.309v9.31h9.309v-9.31Z"/><path fill="#fff" d="M217.197 153.656h-9.309v9.31h9.309v-9.31Z"/><path fill="#fff" d="M226.236 153.656h-9.31v9.31h9.31v-9.31Z"/><path fill="#fff" d="M235.274 153.656h-9.31v9.31h9.31v-9.31Z"/><path fill="#fff" d="M244.314 153.656h-9.31v9.31h9.31v-9.31Z"/><path fill="#fff" d="M253.352 153.656h-9.31v9.31h9.31v-9.31Z"/><path fill="#fff" d="M262.39 153.656h-9.309v9.31h9.309v-9.31ZM9.31 162.695H0v9.31h9.31v-9.31ZM27.386 162.694h-9.31v9.31h9.31v-9.31ZM45.464 162.695h-9.31v9.31h9.31v-9.31ZM63.54 162.694h-9.309v9.31h9.31v-9.31ZM81.62 162.694h-9.31v9.31h9.31v-9.31Z"/><path fill="#fff" d="M90.657 162.694h-9.31v9.31h9.31v-9.31ZM117.774 162.694h-9.31v9.31h9.31v-9.31ZM135.85 162.694h-9.309v9.31h9.309v-9.31Z"/><path fill="#fff" d="M144.888 162.695h-9.31v9.31h9.31v-9.31ZM181.043 162.694h-9.31v9.31h9.31v-9.31ZM208.159 162.695h-9.309v9.31h9.309v-9.31Z"/><path fill="#fff" d="M217.197 162.694h-9.309v9.31h9.309v-9.31Z"/><path fill="#fff" d="M226.236 162.694h-9.31v9.31h9.31v-9.31ZM244.314 162.695h-9.31v9.31h9.31v-9.31ZM9.31 171.733H0v9.31h9.31v-9.31ZM45.464 171.733h-9.31v9.31h9.31v-9.31ZM72.58 171.733h-9.31v9.31h9.31v-9.31Z"/><path fill="#fff" d="M81.62 171.733h-9.31v9.31h9.31v-9.31ZM99.695 171.733h-9.31v9.31h9.31v-9.31ZM117.774 171.733h-9.31v9.31h9.31v-9.31Z"/><path fill="#fff" d="M126.81 171.733h-9.31v9.31h9.31v-9.31ZM153.928 171.733h-9.309v9.31h9.309v-9.31Z"/><path fill="#fff" d="M162.965 171.733h-9.31v9.31h9.31v-9.31ZM181.043 171.733h-9.31v9.31h9.31v-9.31Z"/><path fill="#fff" d="M190.083 171.733h-9.31v9.31h9.31v-9.31ZM208.159 171.733h-9.309v9.31h9.309v-9.31Z"/><path fill="#fff" d="M217.197 171.733h-9.309v9.31h9.309v-9.31Z"/><path fill="#fff" d="M226.236 171.733h-9.31v9.31h9.31v-9.31Z"/><path fill="#fff" d="M235.274 171.733h-9.31v9.31h9.31v-9.31ZM253.352 171.733h-9.31v9.31h9.31v-9.31ZM9.31 180.772H0v9.31h9.31v-9.31ZM63.54 180.772h-9.309v9.31h9.31v-9.31Z"/><path fill="#fff" d="M72.58 180.772h-9.31v9.31h9.31v-9.31ZM108.734 180.772h-9.31v9.31h9.31v-9.31Z"/><path fill="#fff" d="M117.774 180.772h-9.31v9.31h9.31v-9.31Z"/><path fill="#fff" d="M126.81 180.772h-9.31v9.31h9.31v-9.31Z"/><path fill="#fff" d="M135.85 180.772h-9.309v9.31h9.309v-9.31Z"/><path fill="#fff" d="M144.888 180.772h-9.31v9.31h9.31v-9.31ZM172.005 180.772h-9.31v9.31h9.31v-9.31Z"/><path fill="#fff" d="M181.043 180.772h-9.31v9.31h9.31v-9.31Z"/><path fill="#fff" d="M190.083 180.772h-9.31v9.31h9.31v-9.31Z"/><path fill="#fff" d="M199.119 180.772h-9.309v9.31h9.309v-9.31Z"/><path fill="#fff" d="M208.159 180.772h-9.309v9.31h9.309v-9.31Z"/><path fill="#fff" d="M217.197 180.772h-9.309v9.31h9.309v-9.31Z"/><path fill="#fff" d="M226.236 180.772h-9.31v9.31h9.31v-9.31ZM244.314 180.772h-9.31v9.31h9.31v-9.31ZM81.62 189.811h-9.31v9.309h9.31v-9.309ZM108.734 189.811h-9.31v9.309h9.31v-9.309ZM126.81 189.811h-9.31v9.309h9.31v-9.309ZM144.888 189.811h-9.31v9.309h9.31v-9.309ZM162.965 189.811h-9.31v9.309h9.31v-9.309ZM190.083 189.811h-9.31v9.309h9.31v-9.309Z"/><path fill="#fff" d="M226.236 189.811h-9.31v9.309h9.31v-9.309Z"/><path fill="#fff" d="M235.274 189.811h-9.31v9.309h9.31v-9.309ZM253.352 189.811h-9.31v9.309h9.31v-9.309Z"/><path fill="#fff" d="M262.39 189.811h-9.309v9.309h9.309v-9.309ZM90.657 198.849h-9.31v9.31h9.31v-9.31ZM117.774 198.849h-9.31v9.31h9.31v-9.31ZM135.85 198.849h-9.309v9.31h9.309v-9.31ZM153.928 198.849h-9.309v9.31h9.309v-9.31Z"/><path fill="#fff" d="M162.965 198.849h-9.31v9.31h9.31v-9.31ZM181.043 198.849h-9.31v9.31h9.31v-9.31Z"/><path fill="#fff" d="M190.083 198.849h-9.31v9.31h9.31v-9.31ZM208.159 198.849h-9.309v9.31h9.309v-9.31ZM226.236 198.849h-9.31v9.31h9.31v-9.31ZM90.657 207.888h-9.31v9.309h9.31v-9.309Z"/><path fill="#fff" d="M99.695 207.888h-9.31v9.309h9.31v-9.309Z"/><path fill="#fff" d="M108.734 207.888h-9.31v9.309h9.31v-9.309Z"/><path fill="#fff" d="M117.774 207.888h-9.31v9.309h9.31v-9.309ZM135.85 207.888h-9.309v9.309h9.309v-9.309ZM153.928 207.888h-9.309v9.309h9.309v-9.309Z"/><path fill="#fff" d="M162.965 207.888h-9.31v9.309h9.31v-9.309ZM181.043 207.888h-9.31v9.309h9.31v-9.309Z"/><path fill="#fff" d="M190.083 207.888h-9.31v9.309h9.31v-9.309ZM226.236 207.888h-9.31v9.309h9.31v-9.309Z"/><path fill="#fff" d="M235.274 207.888h-9.31v9.309h9.31v-9.309ZM253.352 207.888h-9.31v9.309h9.31v-9.309ZM81.62 216.927h-9.31v9.31h9.31v-9.31Z"/><path fill="#fff" d="M90.657 216.927h-9.31v9.31h9.31v-9.31Z"/><path fill="#fff" d="M99.695 216.927h-9.31v9.31h9.31v-9.31ZM117.774 216.927h-9.31v9.31h9.31v-9.31ZM153.928 216.927h-9.309v9.31h9.309v-9.31Z"/><path fill="#fff" d="M162.965 216.927h-9.31v9.31h9.31v-9.31ZM190.083 216.927h-9.31v9.31h9.31v-9.31Z"/><path fill="#fff" d="M199.119 216.927h-9.309v9.31h9.309v-9.31Z"/><path fill="#fff" d="M208.159 216.926h-9.309v9.31h9.309v-9.31Z"/><path fill="#fff" d="M217.197 216.927h-9.309v9.31h9.309v-9.31Z"/><path fill="#fff" d="M226.236 216.927h-9.31v9.31h9.31v-9.31Z"/><path fill="#fff" d="M235.274 216.927h-9.31v9.31h9.31v-9.31Z"/><path fill="#fff" d="M244.314 216.926h-9.31v9.31h9.31v-9.31ZM81.62 225.965h-9.31v9.31h9.31v-9.31ZM108.734 225.965h-9.31v9.31h9.31v-9.31Z"/><path fill="#fff" d="M117.774 225.965h-9.31v9.31h9.31v-9.31Z"/><path fill="#fff" d="M126.81 225.965h-9.31v9.31h9.31v-9.31Z"/><path fill="#fff" d="M135.85 225.965h-9.309v9.31h9.309v-9.31ZM153.928 225.965h-9.309v9.31h9.309v-9.31ZM181.043 225.965h-9.31v9.31h9.31v-9.31Z"/><path fill="#fff" d="M190.083 225.965h-9.31v9.31h9.31v-9.31Z"/><path fill="#fff" d="M199.119 225.965h-9.309v9.31h9.309v-9.31ZM217.197 225.965h-9.309v9.31h9.309v-9.31ZM81.62 235.003h-9.31v9.31h9.31v-9.31ZM117.774 235.003h-9.31v9.31h9.31v-9.31Z"/><path fill="#fff" d="M126.81 235.003h-9.31v9.31h9.31v-9.31Z"/><path fill="#fff" d="M135.85 235.003h-9.309v9.31h9.309v-9.31ZM181.043 235.003h-9.31v9.31h9.31v-9.31Z"/><path fill="#fff" d="M190.083 235.003h-9.31v9.31h9.31v-9.31Z"/><path fill="#fff" d="M199.119 235.003h-9.309v9.31h9.309v-9.31Z"/><path fill="#fff" d="M208.159 235.003h-9.309v9.31h9.309v-9.31Z"/><path fill="#fff" d="M217.197 235.003h-9.309v9.31h9.309v-9.31Z"/><path fill="#fff" d="M226.236 235.003h-9.31v9.31h9.31v-9.31ZM244.314 235.003h-9.31v9.31h9.31v-9.31Z"/><path fill="#fff" d="M253.352 235.003h-9.31v9.31h9.31v-9.31ZM99.695 244.042h-9.31v9.309h9.31v-9.309ZM126.81 244.042h-9.31v9.309h9.31v-9.309Z"/><path fill="#fff" d="M135.85 244.042h-9.309v9.309h9.309v-9.309ZM162.965 244.042h-9.31v9.309h9.31v-9.309ZM208.159 244.042h-9.309v9.31h9.309v-9.31ZM226.236 244.042h-9.31v9.309h9.31v-9.309Z"/><path fill="#fff" d="M235.274 244.042h-9.31v9.309h9.31v-9.309ZM253.352 244.042h-9.31v9.309h9.31v-9.309ZM90.657 253.08h-9.31v9.31h9.31v-9.31Z"/><path fill="#fff" d="M99.695 253.08h-9.31v9.31h9.31v-9.31Z"/><path fill="#fff" d="M108.734 253.081h-9.31v9.309h9.31v-9.309ZM126.81 253.08h-9.31v9.31h9.31v-9.31ZM172.005 253.081h-9.31v9.309h9.31v-9.309ZM208.159 253.081h-9.309v9.309h9.309v-9.309ZM226.236 253.08h-9.31v9.31h9.31v-9.31ZM244.314 253.081h-9.31v9.309h9.31v-9.309ZM0 0v63.27h63.27V0H0Zm54.231 54.231H9.04V9.04H54.23V54.23ZM198.85 0v63.27h63.27V0h-63.27Zm54.231 54.231h-45.193V9.04h45.193V54.23ZM0 198.849v63.27h63.27v-63.27H0Zm54.231 54.232H9.04v-45.193H54.23v45.193Z"/><path fill="#fff" d="M45.191 18.077H18.076v27.116H45.19V18.077ZM244.041 18.077h-27.116v27.116h27.116V18.077ZM45.191 216.927H18.076v27.116H45.19v-27.116Z"/></svg>
