<svg xmlns="http://www.w3.org/2000/svg" width="119" height="95" fill="none" viewBox="0 0 119 95">
    <path fill="#3C3B3B" d="M71.865 95v-7.956C82.939 80.493 90.756 74.362 95.269 68.7c4.56-5.663 6.794-12.121 6.794-19.422 0-3.837-.698-6.692-2.047-8.61-1.35-1.92-3.025-2.855-5.026-2.855-.744 0-1.675.14-2.838.421a45.02 45.02 0 0 0-3.676 1.076c-1.256.468-2.513.843-3.676 1.077-1.163.28-2.14.42-2.838.42-4.7 0-8.98-1.871-12.796-5.615-3.816-3.744-5.723-8.283-5.723-13.571 0-3.65.744-6.833 2.186-9.594 1.443-2.714 3.304-5.007 5.584-6.832a22.065 22.065 0 0 1 7.631-3.978A28.942 28.942 0 0 1 87.174 0c4.187 0 8.188.936 11.957 2.855 3.816 1.918 7.213 4.492 10.191 7.815 2.978 3.276 5.351 7.113 7.072 11.512 1.722 4.4 2.606 9.126 2.606 14.227 0 5.85-.838 11.606-2.606 17.268-1.721 5.663-4.513 11.045-8.282 16.146-3.816 5.1-8.701 9.827-14.704 14.086C87.406 88.214 80.24 91.91 71.911 95h-.046ZM8.3 95v-7.956C19.376 80.493 27.193 74.362 31.706 68.7c4.56-5.663 6.794-12.121 6.794-19.422 0-3.837-.698-6.692-2.047-8.61-1.35-1.92-3.025-2.855-5.026-2.855-.744 0-1.675.14-2.838.421-1.163.28-2.42.655-3.676 1.076-1.256.468-2.513.843-3.676 1.077-1.163.28-2.14.42-2.838.42-4.7 0-8.98-1.871-12.796-5.615C1.787 31.448-.121 26.91-.121 21.621c0-3.65.745-6.833 2.187-9.594C3.51 9.313 5.37 7.02 7.65 5.195a22.065 22.065 0 0 1 7.631-3.978A28.942 28.942 0 0 1 23.61 0c4.188 0 8.19.936 11.958 2.855 3.816 1.918 7.213 4.492 10.19 7.815 2.978 3.276 5.352 7.113 7.073 11.512 1.722 4.4 2.606 9.126 2.606 14.227 0 5.85-.838 11.606-2.606 17.268-1.721 5.663-4.513 11.045-8.282 16.146-3.816 5.1-8.701 9.827-14.704 14.086C23.843 88.214 16.677 91.91 8.348 95h-.047Z"/>
</svg>