<svg xmlns="http://www.w3.org/2000/svg" width="169" height="70" fill="none" viewBox="0 0 169 70">
    <path fill="#9A9A9A" d="M7.416 41.77c-1.302 0-2.439-.273-3.411-.819a5.698 5.698 0 0 1-2.25-2.304c-.534-.99-.801-2.142-.801-3.456 0-.954.159-1.827.477-2.619a6.232 6.232 0 0 1 1.341-2.079 6.088 6.088 0 0 1 2.052-1.377c.792-.324 1.659-.486 2.601-.486.894 0 1.686.114 2.376.342.69.222 1.281.537 1.773.945l-.756 1.116a4.17 4.17 0 0 0-1.467-.828 5.837 5.837 0 0 0-1.818-.27c-.78 0-1.488.123-2.124.369a4.681 4.681 0 0 0-1.629 1.053c-.45.45-.798.999-1.044 1.647-.24.642-.36 1.368-.36 2.178 0 1.116.216 2.067.648 2.853a4.38 4.38 0 0 0 1.827 1.791c.792.414 1.722.621 2.79.621.684 0 1.332-.099 1.944-.297a4.96 4.96 0 0 0 1.719-.999l.648 1.17a6.487 6.487 0 0 1-2.07 1.098 8.247 8.247 0 0 1-2.466.351Zm12.506-.27-3.015-4.689 2.61-4.041h1.45l-2.602 3.987 3.186 4.743h-1.629Zm-5.913 0v-8.73h1.332v3.519h2.601v1.17h-2.6V41.5h-1.333Zm11.913.27c-.624 0-1.164-.114-1.62-.342a2.503 2.503 0 0 1-1.053-.954c-.246-.414-.369-.897-.369-1.449 0-.456.117-.873.351-1.251.24-.384.615-.702 1.125-.954.516-.258 1.188-.429 2.016-.513.828-.084 1.836-.06 3.024.072l.045 1.053c-.978-.126-1.806-.171-2.484-.135-.672.036-1.212.132-1.62.288-.408.156-.705.357-.891.603-.18.246-.27.516-.27.81 0 .504.177.897.531 1.179.354.282.846.423 1.476.423.528 0 1.002-.099 1.422-.297a2.5 2.5 0 0 0 .999-.819c.246-.348.369-.747.369-1.197V35.74c0-.444-.096-.825-.288-1.143a1.893 1.893 0 0 0-.846-.738c-.366-.174-.813-.261-1.341-.261-.456 0-.912.069-1.368.207-.45.138-.891.366-1.323.684l-.432-1.089a4.992 4.992 0 0 1 1.629-.774 6.378 6.378 0 0 1 1.593-.216c.798 0 1.47.126 2.016.378s.96.624 1.242 1.116c.282.492.423 1.101.423 1.827V41.5h-1.26v-1.107c-.312.444-.741.786-1.287 1.026a4.546 4.546 0 0 1-1.809.351Zm12.354-.27v-3.672a12.29 12.29 0 0 1-1.251.261 9.404 9.404 0 0 1-1.27.081c-.815 0-1.484-.12-2.006-.36-.522-.246-.91-.603-1.161-1.071-.246-.474-.37-1.056-.37-1.746V32.77h1.333v2.025c0 .708.177 1.245.53 1.611.36.366.97.549 1.828.549.492 0 .924-.024 1.296-.072.378-.048.735-.108 1.07-.18V32.77h1.333v8.73h-1.332Zm6.7.27c-.623 0-1.163-.114-1.62-.342a2.503 2.503 0 0 1-1.052-.954c-.246-.414-.37-.897-.37-1.449 0-.456.118-.873.352-1.251.24-.384.615-.702 1.125-.954.516-.258 1.188-.429 2.016-.513.828-.084 1.836-.06 3.024.072l.045 1.053c-.978-.126-1.806-.171-2.484-.135-.672.036-1.212.132-1.62.288-.408.156-.705.357-.891.603-.18.246-.27.516-.27.81 0 .504.177.897.53 1.179.355.282.847.423 1.477.423.528 0 1.002-.099 1.422-.297a2.5 2.5 0 0 0 .999-.819c.246-.348.369-.747.369-1.197V35.74c0-.444-.096-.825-.288-1.143a1.893 1.893 0 0 0-.846-.738c-.366-.174-.813-.261-1.341-.261-.456 0-.912.069-1.368.207-.45.138-.891.366-1.323.684L42.43 33.4a4.992 4.992 0 0 1 1.629-.774 6.378 6.378 0 0 1 1.593-.216c.798 0 1.47.126 2.016.378s.96.624 1.242 1.116c.282.492.423 1.101.423 1.827V41.5h-1.26v-1.107c-.312.444-.741.786-1.287 1.026a4.546 4.546 0 0 1-1.81.351Zm8.967-.27v-7.56H50.82v-1.17h7.578v1.17h-3.123v7.56h-1.332Zm6.385 0v-8.73h1.332v7.605h2.025c.774 0 1.35-.141 1.728-.423.384-.282.576-.711.576-1.287s-.18-1.011-.54-1.305c-.36-.294-.897-.441-1.611-.441h-2.421v-1.125h2.51c1.075 0 1.92.249 2.539.747.618.498.927 1.206.927 2.124 0 .594-.153 1.104-.46 1.53-.3.42-.722.744-1.268.972-.546.222-1.18.333-1.9.333h-3.437Zm14.732.27c-.312 0-.58-.099-.801-.297a1.019 1.019 0 0 1-.324-.774c0-.21.048-.393.144-.549.102-.162.237-.288.405-.378.174-.096.366-.144.576-.144.318 0 .585.102.8.306a.978.978 0 0 1 .334.765 1.025 1.025 0 0 1-.567.936c-.168.09-.357.135-.567.135Zm6.198 0c-.624 0-1.164-.114-1.62-.342a2.503 2.503 0 0 1-1.053-.954c-.246-.414-.37-.897-.37-1.449 0-.456.118-.873.352-1.251.24-.384.615-.702 1.125-.954.516-.258 1.188-.429 2.016-.513.828-.084 1.836-.06 3.024.072l.045 1.053c-.978-.126-1.806-.171-2.484-.135-.672.036-1.212.132-1.62.288-.408.156-.705.357-.891.603-.18.246-.27.516-.27.81 0 .504.177.897.53 1.179.355.282.847.423 1.477.423.528 0 1.002-.099 1.422-.297a2.5 2.5 0 0 0 .999-.819c.246-.348.369-.747.369-1.197V35.74c0-.444-.096-.825-.288-1.143a1.893 1.893 0 0 0-.846-.738c-.366-.174-.813-.261-1.341-.261-.456 0-.912.069-1.368.207-.45.138-.891.366-1.323.684L78.71 33.4a4.992 4.992 0 0 1 1.629-.774 6.378 6.378 0 0 1 1.593-.216c.798 0 1.47.126 2.016.378s.96.624 1.242 1.116c.282.492.423 1.101.423 1.827V41.5h-1.26v-1.107c-.312.444-.741.786-1.287 1.026a4.546 4.546 0 0 1-1.81.351Zm7.195 3.51V32.77h1.269v1.386c.372-.48.84-.876 1.404-1.188.564-.312 1.287-.468 2.169-.468.87 0 1.635.207 2.295.621a4.246 4.246 0 0 1 1.548 1.674c.372.702.558 1.482.558 2.34a4.99 4.99 0 0 1-.324 1.8 4.52 4.52 0 0 1-.9 1.476c-.39.426-.855.759-1.395.999s-1.137.36-1.791.36c-.804 0-1.494-.15-2.07-.45a4.305 4.305 0 0 1-1.431-1.206v5.166h-1.332Zm4.599-4.743c.636 0 1.2-.138 1.692-.414a2.983 2.983 0 0 0 1.152-1.179c.282-.51.423-1.113.423-1.809s-.141-1.299-.423-1.809a2.967 2.967 0 0 0-1.161-1.179c-.486-.276-1.047-.414-1.683-.414-.636 0-1.2.138-1.692.414a2.967 2.967 0 0 0-1.161 1.179c-.276.51-.414 1.113-.414 1.809s.138 1.299.414 1.809c.282.504.669.897 1.16 1.179.493.276 1.057.414 1.693.414Zm6.809.963V28.54h1.332v8.235l4.005-4.005h1.62l-3.105 3.213 3.69 5.517h-1.629l-3.033-4.653-1.548 1.539V41.5h-1.332Z"/>
    <path stroke="#F2C247" stroke-width="2" d="M103.857 18a34 34 0 1 1 .362 34.613"/>
    <path stroke="#fff" stroke-width="2" d="M146.202 22.9 158.301 35m0 0h-29.698m29.698 0-12.099 12.1"/>
</svg>