<svg width="70" height="70" viewBox="0 0 70 70" fill="none" xmlns="http://www.w3.org/2000/svg">
<path d="M5.55514 18C9.28219 11.5446 15.0274 6.49284 21.9066 3.62226C28.7858 0.75169 36.4177 0.221363 43.6278 2.1129C50.8379 4.00443 57.2266 8.213 61.8106 14.0909C66.3947 19.9688 68.9201 27.1903 68.9981 34.644C69.0762 42.0976 66.7026 49.3704 62.2426 55.343C57.7827 61.3157 51.4835 65.6571 44.3146 67.6992C37.1457 69.7413 29.5044 69.3709 22.5666 66.6451C15.6288 63.9192 9.77902 58.9889 5.91761 52.6129" stroke="#F2C247" stroke-width="2"/>
<path d="M47.9007 22.9007L60.0001 35.0001M60.0001 35.0001H30.3016M60.0001 35.0001L47.9007 47.0995" stroke="white" stroke-width="2"/>
</svg>
