<svg xmlns="http://www.w3.org/2000/svg" width="26" height="26" fill="none" viewBox="0 0 26 26">
    <path fill="#EFEFEF" d="M24.781 4.469h-1.218a.406.406 0 0 1-.407-.407V2.845a.407.407 0 0 1 .813 0v.812h.812a.406.406 0 1 1 0 .813ZM2.438 4.875h-1.22a.406.406 0 1 1 0-.813h.813V3.25a.406.406 0 1 1 .813 0v1.219a.406.406 0 0 1-.406.406Z"/>
    <path fill="#F2C247" d="M23.653 4.075a2.64 2.64 0 0 0-3.734 0A9.72 9.72 0 0 1 13 6.941a9.72 9.72 0 0 1-6.919-2.866A2.64 2.64 0 1 0 2.347 7.81a15.005 15.005 0 0 0 7.312 4.034h.183l.314-2.094h1.625v1.608l-.033.806a15.21 15.21 0 0 0 2.504 0l-.033-.806V9.75h1.625l.299 2.094h.197a14.799 14.799 0 0 0 1.616-.472.367.367 0 0 0 .056-.008 14.899 14.899 0 0 0 5.643-3.554 2.64 2.64 0 0 0 0-3.735h-.002Z"/>
    <path fill="#EFEFEF" d="M11.781 23.969a.406.406 0 0 1-.406-.406V18.44a3.67 3.67 0 0 1-2.31-3.927l.691-4.822a.406.406 0 0 1 .805.116l-.691 4.821a2.853 2.853 0 0 0 2.024 3.13.406.406 0 0 1 .294.39v5.414a.407.407 0 0 1-.407.406Z"/>
    <path fill="#EFEFEF" d="M13 16.25a1.625 1.625 0 0 1-1.625-1.625V9.75a.406.406 0 1 1 .813 0v4.875a.812.812 0 1 0 1.624 0V9.75a.406.406 0 1 1 .813 0v4.875A1.625 1.625 0 0 1 13 16.25Z"/>
    <path fill="#EFEFEF" d="M14.219 23.969a.406.406 0 0 1-.406-.406V18.15a.406.406 0 0 1 .293-.39 2.853 2.853 0 0 0 2.024-3.13l-.69-4.822a.406.406 0 1 1 .804-.116l.69 4.822a3.671 3.671 0 0 1-2.309 3.927v5.122a.406.406 0 0 1-.406.406Z"/>
</svg>