<svg xmlns="http://www.w3.org/2000/svg" width="22" height="22" fill="none" viewBox="0 0 22 22">
    <path fill="currentColor" d="M14.803 12.805A6.54 6.54 0 0 0 9.29 2.75a6.541 6.541 0 0 0-6.54 6.544 6.54 6.54 0 0 0 10.09 5.496l.296-.206 4.666 4.666 1.448-1.474-4.662-4.666.215-.305ZM12.95 5.638a5.132 5.132 0 0 1 1.512 3.652c0 1.38-.537 2.677-1.512 3.652a5.132 5.132 0 0 1-3.653 1.513 5.132 5.132 0 0 1-3.652-1.513A5.132 5.132 0 0 1 4.134 9.29c0-1.38.537-2.677 1.512-3.652a5.132 5.132 0 0 1 3.652-1.513c1.38 0 2.677.537 3.653 1.513Z"/>
</svg>