<svg width="30" height="30" viewBox="0 0 30 30" fill="none" xmlns="http://www.w3.org/2000/svg">
<path d="M29.9207 10.77C29.8264 10.4924 29.6529 10.2484 29.4215 10.0682C29.1901 9.88803 28.911 9.77955 28.6187 9.75616L20.0672 9.07675L16.3666 0.886334C16.2488 0.622537 16.0571 0.398481 15.8147 0.241206C15.5723 0.0839307 15.2896 0.000158797 15.0006 2.25538e-07C14.7117 -0.000158346 14.4288 0.0833032 14.1863 0.240312C13.9437 0.397321 13.7518 0.621167 13.6336 0.884834L9.9331 9.07675L1.38155 9.75616C1.09423 9.77892 0.819551 9.88396 0.590375 10.0587C0.361199 10.2335 0.18723 10.4705 0.0892796 10.7416C-0.00867062 11.0126 -0.0264541 11.3061 0.038057 11.587C0.102568 11.8678 0.246642 12.1242 0.453042 12.3253L6.77258 18.485L4.53757 28.1617C4.4697 28.4546 4.49145 28.7612 4.6 29.0416C4.70854 29.322 4.89886 29.5633 5.14627 29.7342C5.39368 29.9051 5.68675 29.9977 5.98745 30C6.28815 30.0022 6.5826 29.9141 6.83258 29.747L15.0001 24.3027L23.1677 29.747C23.4232 29.9166 23.7245 30.0039 24.0311 29.9972C24.3377 29.9905 24.635 29.8901 24.8828 29.7094C25.1306 29.5287 25.3171 29.2765 25.4173 28.9867C25.5175 28.6969 25.5265 28.3833 25.4432 28.0882L22.6997 18.4895L29.5037 12.3673C29.9492 11.9654 30.1127 11.3384 29.9207 10.77Z" fill="#272727"/>
</svg>
