<svg xmlns="http://www.w3.org/2000/svg" width="26" height="26" fill="none" viewBox="0 0 26 26">
    <path fill="#EFEFEF" d="M15.64 13.406a.406.406 0 0 1-.403-.365l-.13-1.3a.406.406 0 0 0-.404-.366h-8.28a.406.406 0 0 0-.404.366l-.128 1.3a.406.406 0 0 1-.809-.082l.13-1.3a1.214 1.214 0 0 1 1.21-1.097h8.28a1.214 1.214 0 0 1 1.213 1.097l.13 1.3a.408.408 0 0 1-.364.447h-.04ZM11.375 9.75a.406.406 0 0 1-.406-.406V8.53a1.219 1.219 0 0 1 1.219-1.219h4.468a.406.406 0 0 0 0-.812h-.812a1.219 1.219 0 1 1 0-2.438h5.078a.406.406 0 1 0 0-.812H10.359a.406.406 0 1 0 0 .813h2.235a1.218 1.218 0 1 1 0 2.437h-.406a2.034 2.034 0 0 0-2.032 2.031v.813a.406.406 0 1 1-.812 0V8.53a2.848 2.848 0 0 1 2.844-2.844h.406a.406.406 0 0 0 0-.812h-2.235a1.219 1.219 0 1 1 0-2.438h10.563a1.219 1.219 0 0 1 0 2.438h-5.078a.406.406 0 1 0 0 .813h.812a1.218 1.218 0 1 1 0 2.437h-4.468a.406.406 0 0 0-.407.406v.813a.406.406 0 0 1-.406.406Z"/>
    <path fill="#F2C247" d="m16.525 17.756-.315-3.172a.406.406 0 0 0-.407-.365H5.323a.406.406 0 0 0-.407.365l-.317 3.172a5.281 5.281 0 0 0 5.257 5.806h1.414a5.283 5.283 0 0 0 5.255-5.806Z"/>
    <path stroke="#EFEFEF" stroke-linecap="round" stroke-linejoin="round" stroke-width="1.9" d="M17.28 15.992c.478.05.908.26 1.212.572.302.311.46.701.464 1.093.004.392-.146.784-.442 1.1a1.965 1.965 0 0 1-1.2.59"/>
</svg>